<?xml version="1.0" encoding="UTF-8" standalone="no"?>
<!-- Created with Inkscape (http://www.inkscape.org/) -->

<svg
   width="24"
   height="24"
   viewBox="0 0 24 24"
   version="1.1"
   id="svg5"
   inkscape:version="1.1.1 (3bf5ae0d25, 2021-09-20)"
   sodipodi:docname="5-2red.svg"
   xmlns:inkscape="http://www.inkscape.org/namespaces/inkscape"
   xmlns:sodipodi="http://sodipodi.sourceforge.net/DTD/sodipodi-0.dtd"
   xmlns="http://www.w3.org/2000/svg"
   xmlns:svg="http://www.w3.org/2000/svg">
  <sodipodi:namedview
     id="namedview7"
     pagecolor="#ffffff"
     bordercolor="#666666"
     borderopacity="1.0"
     inkscape:pageshadow="2"
     inkscape:pageopacity="0.0"
     inkscape:pagecheckerboard="0"
     inkscape:document-units="mm"
     showgrid="false"
     inkscape:zoom="0.46324355"
     inkscape:cx="295.74076"
     inkscape:cy="39.935796"
     inkscape:window-width="1366"
     inkscape:window-height="705"
     inkscape:window-x="-8"
     inkscape:window-y="-8"
     inkscape:window-maximized="1"
     inkscape:current-layer="layer1" />
  <defs
     id="defs2" />
  <g
     inkscape:label="Capa 1"
     inkscape:groupmode="layer"
     id="layer1"
     transform="translate(-16.733686,-27.739278)">
    <g
       id="g51"
       transform="matrix(0.1266528,0,0,0.1262864,15.627053,25.101732)">
      <path
         style="fill:#f6a6a1;stroke-width:0.264583"
         d="M 55.922979,163.47378 C 14.248257,121.79857 8.501414,115.95703 8.7447132,115.51805 8.8970888,115.24313 30.210537,93.838319 56.10793,67.95181 l 47.08617,-47.066378 0.75383,0.548831 c 1.12281,0.817468 94.28403,94.073237 94.28403,94.379717 0,0.1447 -21.34207,21.60493 -47.42683,47.68938 l -47.42684,47.42629 z M 63.162177,74.933813 C 85.280983,52.814645 103.49754,34.717145 103.64343,34.717145 c 0.14588,0 18.36244,18.0975 40.48124,40.216668 l 40.21602,40.216667 h 1.25709 c 0.69141,0 1.2571,-0.0894 1.2571,-0.19875 0,-0.10932 -18.69286,-18.891331 -41.53969,-41.737815 L 103.77551,31.674857 62.037698,73.41267 20.299888,115.15048 h 1.323138 1.323138 z m 60.589583,34.660417 v -1.19062 H 104.83405 85.916343 l -0.08479,0.88508 c -0.168709,1.76112 -1.660705,1.63869 19.061017,1.56408 l 18.85919,-0.0679 z m -11.50938,-4.58771 c 2.94891,-0.28443 3.47932,-0.41545 4.89479,-1.20914 3.95424,-2.21724 4.58256,-2.73265 6.31881,-5.183358 2.21182,-3.121967 3.01306,-5.637266 3.49771,-10.980209 0.62356,-6.874266 0.35348,-10.496304 -0.40444,-5.423958 -0.47075,3.150539 -0.67937,3.631499 -1.9257,4.439629 -1.09044,0.707057 -2.42042,0.946168 -2.70466,0.486262 -0.0794,-0.128418 0.0936,-0.535906 0.38433,-0.905529 0.29075,-0.369625 1.01925,-2.08026 1.6189,-3.801412 l 1.09026,-3.129367 -0.29278,-2.398649 c -0.27891,-2.285106 -1.26521,-5.671143 -1.6519,-5.671143 -0.0999,0 -0.66336,0.803672 -1.25208,1.785938 -1.17431,1.959324 -3.21015,4.299479 -3.74035,4.299479 -0.23977,0 -0.28575,-0.247539 -0.15974,-0.859896 0.51113,-2.483689 0.63562,-5.992826 0.30272,-8.532813 -0.30565,-2.332061 -0.49791,-2.920383 -1.62118,-4.960937 -0.70093,-1.273308 -1.35459,-2.315105 -1.4526,-2.315105 -0.098,0 -0.2568,1.041797 -0.35289,2.315105 -0.23032,3.052069 -1.32413,6.886493 -2.18877,7.672917 -1.16661,1.061077 -1.32551,0.834093 -1.49356,-2.133524 l -0.15454,-2.728838 -2.82977,-5.936266 c -2.22759,-4.673021 -2.97736,-6.545144 -3.52335,-8.797502 -0.38147,-1.573678 -0.80262,-2.861633 -0.93589,-2.86212 -0.35036,-0.0013 -1.41272,2.739985 -1.73272,4.470998 -0.15066,0.815007 -0.27393,2.833878 -0.27393,4.486376 0,1.6525 -0.12653,4.139258 -0.28117,5.526133 -0.29073,2.607275 -1.463921,6.470089 -2.019726,6.65009 -0.421311,0.136443 -1.317508,-1.66484 -1.77211,-3.56181 -0.521454,-2.175934 -0.888524,-3.012173 -1.698514,-3.86946 -0.59523,-0.629986 -2.895097,-2.025849 -3.337853,-2.025849 -0.07212,0 -0.06238,0.744141 0.02164,1.653646 0.09155,0.990907 -0.01511,2.71403 -0.266145,4.29948 -0.675883,4.26866 -0.821817,6.873086 -0.43715,7.801753 0.816354,1.970855 -0.76573,1.203624 -2.351701,-1.140458 -0.706583,-1.044337 -1.789845,-2.302586 -2.40725,-2.796111 l -1.122551,-0.897319 0.186434,2.355536 c 0.115202,1.455533 0.07147,2.989514 -0.114454,4.014822 -0.517218,2.85229 0.45719,7.654597 2.006889,9.890813 0.809206,1.167686 0.655182,1.582547 -0.505672,1.362011 C 86.082321,86.11606 85.255662,85.53599 82.518235,82.8591 81.05088,81.424193 79.793297,80.307196 79.723606,80.376888 c -0.16668,0.166679 0.103656,1.340403 2.160455,9.380125 1.517769,5.932739 1.86132,6.966484 2.827118,8.506838 0.944052,1.505673 1.432851,1.964819 3.459326,3.249479 3.257632,2.06515 6.138947,2.93289 10.974993,3.30525 2.037292,0.15687 4.120882,0.32401 4.630212,0.37142 2.04375,0.19026 5.33009,0.11904 8.46666,-0.18348 z m -8.50576,-0.58191 c -3.929383,-0.72365 -5.971924,-1.63793 -8.050115,-3.6034 -1.294871,-1.224631 -2.512287,-3.249927 -2.912814,-4.845756 -0.218021,-0.868667 0.15902,-0.853062 1.233506,0.05106 0.673098,0.566375 1.337133,0.790126 3.115612,1.049827 1.243108,0.181526 2.316099,0.274143 2.384422,0.20582 0.06832,-0.06832 -0.236101,-0.630042 -0.676497,-1.248265 -0.440399,-0.618223 -1.293879,-2.027166 -1.896621,-3.130986 -0.949256,-1.7384 -1.095896,-2.225199 -1.095896,-3.638021 0,-2.01471 0.280969,-2.07264 1.75437,-0.361715 0.85302,0.990531 3.765623,2.963974 4.374533,2.963974 0.0559,0 0.0997,-1.577578 0.0973,-3.505729 -0.004,-3.444714 0.0128,-3.548217 0.98721,-5.946958 0.5454,-1.342676 1.11991,-3.039317 1.27668,-3.770313 0.15677,-0.730996 0.39349,-1.329084 0.52603,-1.329084 0.39894,0 1.83934,2.126554 2.81533,4.156467 1.06253,2.20989 1.34948,4.695661 0.92516,8.014367 -0.13955,1.091406 -0.20338,2.071989 -0.14185,2.179076 0.20755,0.361207 4.1789,-1.84886 5.05262,-2.811798 1.28784,-1.419352 1.46943,-1.269537 1.32818,1.095743 -0.13981,2.341247 -0.63475,3.500871 -2.44032,5.717622 l -1.1712,1.437918 1.17678,0.176466 c 0.95004,0.142468 1.4623,0.04575 2.65871,-0.501989 2.48687,-1.138528 2.69288,-0.926295 1.36472,1.406004 -1.44976,2.54586 -3.21517,4.17372 -6.09348,5.61871 -1.41618,0.71096 -2.72587,1.28019 -2.91041,1.26495 -0.18455,-0.0152 -1.84141,-0.30504 -3.68193,-0.64399 z"
         id="path65" />
      <path
         style="fill:#fdf000;stroke-width:0.264583"
         d="M 56.057757,163.43181 C 24.779117,132.09368 9.0324269,116.13932 9.0942181,115.84891 9.1453464,115.60861 30.380303,94.1898 56.28301,68.251552 l 47.09583,-47.160449 47.18868,47.256384 c 31.36855,31.413562 47.15754,47.402883 47.09583,47.693353 -0.0921,0.43351 -94.15794,94.66428 -94.41504,94.5806 -0.0737,-0.024 -21.309478,-21.25934 -47.190553,-47.18963 z M 63.294468,75.330688 C 85.340514,53.284281 103.49754,35.246312 103.64343,35.246312 c 0.14588,0 18.30291,18.037969 40.34895,40.084376 l 40.08372,40.084372 h 1.78627 c 0.98244,0 1.78626,-0.0892 1.78626,-0.19812 0,-0.38844 -83.48293,-83.674795 -83.87229,-83.674795 -0.38976,0 -83.873537,83.285325 -83.873537,83.674165 0,0.10932 0.744288,0.19875 1.653974,0.19875 h 1.653973 z m 60.721872,34.263542 v -1.45521 l -19.24844,-0.0679 -19.248432,-0.0679 v 1.59095 1.59096 l 19.248432,-0.0679 19.24844,-0.0679 z m -11.37808,-4.24508 c 3.10587,-0.29452 3.98013,-0.64099 7.87313,-3.12001 2.21115,-1.40805 4.6083,-4.872894 5.70451,-8.245326 1.23968,-3.813792 1.90429,-12.458158 1.21628,-15.819677 -0.24731,-1.208315 -0.57157,-0.26485 -1.17025,3.404918 -0.47999,2.942252 -0.72857,3.853371 -1.16342,4.264237 -0.82529,0.779785 -2.00236,1.330214 -2.46498,1.152689 -0.36622,-0.140528 -0.36455,-0.206081 0.016,-0.626525 0.23373,-0.258268 0.96928,-2.003978 1.63456,-3.879356 l 1.2096,-3.409781 -0.38731,-2.398982 c -0.46727,-2.894269 -1.47432,-5.838566 -1.99699,-5.838566 -0.20557,0 -0.8595,0.790723 -1.45317,1.757162 -1.27138,2.06966 -2.94162,4.128812 -3.16996,3.90806 -0.0885,-0.08559 -0.0413,-0.786448 0.1049,-1.557468 0.34318,-1.809567 0.33803,-4.60439 -0.0136,-7.409082 -0.24275,-1.935909 -0.47489,-2.58753 -1.76486,-4.953998 -0.81695,-1.498684 -1.63298,-2.724883 -1.81341,-2.724883 -0.22367,0 -0.37965,0.736656 -0.4902,2.315105 -0.17324,2.47373 -1.27445,7.073469 -1.91099,7.982265 -0.21209,0.302802 -0.57071,0.550547 -0.79694,0.550547 -0.32506,0 -0.37567,-0.190031 -0.24133,-0.906142 0.38241,-2.038416 -0.28519,-4.203936 -3.17402,-10.295605 -2.2803,-4.808487 -2.9148,-6.424554 -3.52533,-8.979056 -0.40949,-1.713346 -0.81314,-3.183785 -0.89699,-3.267639 -0.3301,-0.330099 -0.71713,0.264626 -1.53114,2.352818 -0.80195,2.05725 -0.8608,2.449108 -1.06221,7.072707 -0.11728,2.692136 -0.32634,5.751045 -0.46457,6.797572 -0.26905,2.036964 -1.271175,5.373262 -1.613967,5.373262 -0.225594,0 -1.336619,-2.518571 -1.336619,-3.029969 0,-0.933193 -0.923163,-3.18443 -1.641187,-4.002212 -0.829288,-0.944507 -3.009606,-2.228236 -3.784494,-2.228236 -0.350866,0 -0.404593,0.34259 -0.342304,2.182813 0.04161,1.229286 -0.138658,3.499477 -0.412668,5.196919 -0.285541,1.768885 -0.447543,3.873058 -0.392134,5.09323 0.05193,1.143518 0.0079,2.079122 -0.09792,2.079122 -0.105786,0 -0.778944,-0.863203 -1.495907,-1.918229 -1.228703,-1.80806 -3.369331,-3.902605 -3.988469,-3.902605 -0.336402,0 -0.340683,0.594043 -0.02193,3.042709 0.162155,1.245677 0.142833,2.430155 -0.05901,3.617629 -0.524513,3.085725 0.472297,8.243618 1.958234,10.13268 0.714105,0.907835 0.479404,1.094459 -0.868521,0.690613 -0.834829,-0.250122 -1.821908,-1.049222 -4.147614,-3.357735 -2.04661,-2.031484 -3.139731,-2.94182 -3.318195,-2.763356 -0.314375,0.314375 -0.109587,1.275868 2.200884,10.333294 1.462042,5.73145 1.787564,6.700177 2.81034,8.363374 1.028597,1.672653 1.42475,2.050963 3.57536,3.414323 3.305614,2.09556 6.155496,2.98713 10.95158,3.42614 4.718721,0.43193 10.044291,0.48234 13.757341,0.13025 z m -9.39171,-1.41913 c -3.535494,-0.68203 -5.401817,-1.53165 -7.231707,-3.29215 -1.275506,-1.227137 -2.557876,-3.321664 -2.557876,-4.177839 0,-0.392012 0.08005,-0.376587 0.604999,0.116575 0.87848,0.825288 6.009584,1.522084 6.009584,0.816094 0,-0.162406 -0.397941,-0.847016 -0.884314,-1.521354 -1.820473,-2.524035 -3.084435,-5.181161 -3.084435,-6.484168 0,-0.673309 0.05386,-1.224198 0.119692,-1.224198 0.06583,0 0.705765,0.586071 1.422074,1.302382 1.357789,1.357789 4.459443,3.131842 4.812833,2.752797 0.11216,-0.120296 0.0744,-1.382453 -0.084,-2.80479 -0.26267,-2.359753 -0.23952,-2.741806 0.26446,-4.365625 0.65665,-2.115717 2.261,-6.752659 2.39945,-6.934978 0.17487,-0.230262 1.10718,1.147998 2.05555,3.038755 1.21857,2.429442 1.46462,4.075089 1.14144,7.634346 -0.14341,1.579518 -0.19599,3.040608 -0.11684,3.246869 0.11223,0.292473 0.65485,0.117661 2.46512,-0.794181 1.27667,-0.643062 2.60986,-1.479074 2.96264,-1.857806 0.97171,-1.04316 1.17231,-0.872067 0.97636,0.832752 -0.22115,1.924092 -1.17435,3.896175 -2.70734,5.601232 -0.65884,0.73279 -1.12267,1.454047 -1.03074,1.602796 0.31463,0.509082 3.21622,0.309583 4.48866,-0.308618 0.65554,-0.318487 1.2669,-0.504063 1.35858,-0.412391 0.2849,0.284906 -1.64516,3.178387 -2.98272,4.47158 -1.52358,1.47304 -5.25107,3.40995 -6.49304,3.37396 -0.47618,-0.0138 -2.23499,-0.28921 -3.90848,-0.61204 z"
         id="path63" />
      <path
         style="fill:#f05e55;stroke-width:0.264583"
         d="M 61.310922,158.01298 19.239085,115.94423 h -5.114147 c -3.273326,0 -5.0824029,-0.0947 -5.0259538,-0.26313 C 9.1474911,115.53638 30.380303,94.194427 56.28301,68.254539 l 47.09583,-47.163436 47.16198,47.229685 c 25.93909,25.976324 47.16198,47.318282 47.16198,47.426562 0,0.10829 -2.17201,0.19688 -4.82669,0.19688 h -4.82669 l -42.07183,42.06875 c -23.13951,23.13782 -42.18951,42.06875 -42.33334,42.06875 -0.14382,0 -19.193815,-18.93093 -42.333328,-42.06875 z m 82.406018,-1.97351 c 21.89455,-21.89492 39.74366,-39.87355 39.66469,-39.95252 -0.079,-0.079 -36.03081,-0.11363 -79.89298,-0.077 l -79.749389,0.0666 39.820778,39.88594 c 21.901427,21.93727 39.939541,39.88594 40.084701,39.88594 0.14516,0 18.17765,-17.91402 40.0722,-39.80893 z m -52.128251,20.41056 c -0.663752,-0.18601 -1.576266,-0.60128 -2.027812,-0.92281 -0.948928,-0.6757 -2.003126,-2.66779 -1.878107,-3.54901 0.07723,-0.5444 0.247155,-0.61149 1.728194,-0.68225 l 1.642539,-0.0785 0.675886,1.07068 c 0.579654,0.91823 0.807625,1.07067 1.601195,1.07067 1.044652,0 1.761122,-0.64427 1.991344,-1.79067 0.203113,-1.01141 -0.160922,-2.49684 -0.710361,-2.8986 -0.686517,-0.502 -2.050778,-0.40924 -2.814296,0.19135 -0.814515,0.6407 -2.872388,0.72873 -3.357962,0.14365 -0.415589,-0.50076 0.594013,-8.85341 1.110406,-9.18663 0.184456,-0.11903 2.299909,-0.18688 4.701002,-0.15078 l 4.365625,0.0656 v 1.5875 1.5875 l -3.219235,0.0741 -3.219236,0.0741 -0.18047,1.0682 c -0.09926,0.5875 -0.135043,1.11362 -0.07952,1.16914 0.05552,0.0555 0.592044,-0.0237 1.192268,-0.17605 1.636807,-0.41547 3.70859,0.25778 4.920175,1.59886 2.398856,2.65524 1.522852,7.66323 -1.621012,9.26711 -1.357169,0.69238 -3.332972,0.88369 -4.820626,0.46677 z m 9.655561,-0.52898 c -0.0786,-0.20489 -0.10675,-1.07357 -0.0625,-1.9304 l 0.0804,-1.55788 h 1.85208 1.85208 v 1.85209 1.85208 l -1.78957,0.0783 c -1.34916,0.059 -1.82475,-0.0134 -1.93252,-0.29421 z m 5.73443,-0.015 c -0.47996,-0.57832 0.14984,-2.92108 1.13237,-4.21226 0.46586,-0.61221 1.61387,-1.70842 2.55113,-2.43602 3.16603,-2.45782 3.69687,-3.09333 3.69687,-4.42578 0,-1.39522 -0.57056,-2.05651 -1.77438,-2.05651 -0.93849,0 -1.42568,0.49214 -1.80496,1.82331 -0.27146,0.95272 -0.27568,0.95499 -1.92166,1.03368 -1.97881,0.0946 -2.13222,-0.11169 -1.65822,-2.22975 0.61471,-2.74681 2.88617,-4.26729 5.99038,-4.00986 1.70677,0.14153 3.16587,0.89448 4.19329,2.16389 0.69793,0.86232 0.81557,1.24284 0.89403,2.8918 0.12946,2.72078 -0.48033,3.76606 -3.52931,6.0498 -1.29951,0.97336 -2.40487,1.89609 -2.45634,2.05052 -0.0622,0.18652 0.87313,0.28078 2.78596,0.28078 1.88687,0 2.989,0.10945 3.19704,0.3175 0.17463,0.17462 0.3175,0.80566 0.3175,1.40229 0,0.59664 -0.14287,1.22767 -0.3175,1.40229 -0.48769,0.48769 -10.88845,0.44564 -11.2962,-0.0457 z M 63.294468,75.330688 C 85.340514,53.284281 103.49754,35.246312 103.64343,35.246312 c 0.14588,0 18.30291,18.037969 40.34895,40.084376 l 40.08372,40.084372 h 1.78627 c 0.98244,0 1.78626,-0.0892 1.78626,-0.19812 0,-0.38844 -83.48293,-83.674795 -83.87229,-83.674795 -0.38976,0 -83.873537,83.285325 -83.873537,83.674165 0,0.10932 0.744288,0.19875 1.653974,0.19875 h 1.653973 z m 60.721872,34.263542 v -1.45521 l -19.24844,-0.0679 -19.248432,-0.0679 v 1.59095 1.59096 l 19.248432,-0.0679 19.24844,-0.0679 z m -11.37808,-4.24508 c 3.10587,-0.29452 3.98013,-0.64099 7.87313,-3.12001 2.21115,-1.40805 4.6083,-4.872894 5.70451,-8.245326 1.23968,-3.813792 1.90429,-12.458158 1.21628,-15.819677 -0.24731,-1.208315 -0.57157,-0.26485 -1.17025,3.404918 -0.47999,2.942252 -0.72857,3.853371 -1.16342,4.264237 -0.82529,0.779785 -2.00236,1.330214 -2.46498,1.152689 -0.36622,-0.140528 -0.36455,-0.206081 0.016,-0.626525 0.23373,-0.258268 0.96928,-2.003978 1.63456,-3.879356 l 1.2096,-3.409781 -0.38731,-2.398982 c -0.46727,-2.894269 -1.47432,-5.838566 -1.99699,-5.838566 -0.20557,0 -0.8595,0.790723 -1.45317,1.757162 -1.27138,2.06966 -2.94162,4.128812 -3.16996,3.90806 -0.0885,-0.08559 -0.0413,-0.786448 0.1049,-1.557468 0.34318,-1.809567 0.33803,-4.60439 -0.0136,-7.409082 -0.24275,-1.935909 -0.47489,-2.58753 -1.76486,-4.953998 -0.81695,-1.498684 -1.63298,-2.724883 -1.81341,-2.724883 -0.22367,0 -0.37965,0.736656 -0.4902,2.315105 -0.17324,2.47373 -1.27445,7.073469 -1.91099,7.982265 -0.21209,0.302802 -0.57071,0.550547 -0.79694,0.550547 -0.32506,0 -0.37567,-0.190031 -0.24133,-0.906142 0.38241,-2.038416 -0.28519,-4.203936 -3.17402,-10.295605 -2.2803,-4.808487 -2.9148,-6.424554 -3.52533,-8.979056 -0.40949,-1.713346 -0.81314,-3.183785 -0.89699,-3.267639 -0.3301,-0.330099 -0.71713,0.264626 -1.53114,2.352818 -0.80195,2.05725 -0.8608,2.449108 -1.06221,7.072707 -0.11728,2.692136 -0.32634,5.751045 -0.46457,6.797572 -0.26905,2.036964 -1.271175,5.373262 -1.613967,5.373262 -0.225594,0 -1.336619,-2.518571 -1.336619,-3.029969 0,-0.933193 -0.923163,-3.18443 -1.641187,-4.002212 -0.829288,-0.944507 -3.009606,-2.228236 -3.784494,-2.228236 -0.350866,0 -0.404593,0.34259 -0.342304,2.182813 0.04161,1.229286 -0.138658,3.499477 -0.412668,5.196919 -0.285541,1.768885 -0.447543,3.873058 -0.392134,5.09323 0.05193,1.143518 0.0079,2.079122 -0.09792,2.079122 -0.105786,0 -0.778944,-0.863203 -1.495907,-1.918229 -1.228703,-1.80806 -3.369331,-3.902605 -3.988469,-3.902605 -0.336402,0 -0.340683,0.594043 -0.02193,3.042709 0.162155,1.245677 0.142833,2.430155 -0.05901,3.617629 -0.524513,3.085725 0.472297,8.243618 1.958234,10.13268 0.714105,0.907835 0.479404,1.094459 -0.868521,0.690613 -0.834829,-0.250122 -1.821908,-1.049222 -4.147614,-3.357735 -2.04661,-2.031484 -3.139731,-2.94182 -3.318195,-2.763356 -0.314375,0.314375 -0.109587,1.275868 2.200884,10.333294 1.462042,5.73145 1.787564,6.700177 2.81034,8.363374 1.028597,1.672653 1.42475,2.050963 3.57536,3.414323 3.305614,2.09556 6.155496,2.98713 10.95158,3.42614 4.718721,0.43193 10.044291,0.48234 13.757341,0.13025 z m -9.39171,-1.41913 c -3.535494,-0.68203 -5.401817,-1.53165 -7.231707,-3.29215 -1.275506,-1.227137 -2.557876,-3.321664 -2.557876,-4.177839 0,-0.392012 0.08005,-0.376587 0.604999,0.116575 0.87848,0.825288 6.009584,1.522084 6.009584,0.816094 0,-0.162406 -0.397941,-0.847016 -0.884314,-1.521354 -1.820473,-2.524035 -3.084435,-5.181161 -3.084435,-6.484168 0,-0.673309 0.05386,-1.224198 0.119692,-1.224198 0.06583,0 0.705765,0.586071 1.422074,1.302382 1.357789,1.357789 4.459443,3.131842 4.812833,2.752797 0.11216,-0.120296 0.0744,-1.382453 -0.084,-2.80479 -0.26267,-2.359753 -0.23952,-2.741806 0.26446,-4.365625 0.65665,-2.115717 2.261,-6.752659 2.39945,-6.934978 0.17487,-0.230262 1.10718,1.147998 2.05555,3.038755 1.21857,2.429442 1.46462,4.075089 1.14144,7.634346 -0.14341,1.579518 -0.19599,3.040608 -0.11684,3.246869 0.11223,0.292473 0.65485,0.117661 2.46512,-0.794181 1.27667,-0.643062 2.60986,-1.479074 2.96264,-1.857806 0.97171,-1.04316 1.17231,-0.872067 0.97636,0.832752 -0.22115,1.924092 -1.17435,3.896175 -2.70734,5.601232 -0.65884,0.73279 -1.12267,1.454047 -1.03074,1.602796 0.31463,0.509082 3.21622,0.309583 4.48866,-0.308618 0.65554,-0.318487 1.2669,-0.504063 1.35858,-0.412391 0.2849,0.284906 -1.64516,3.178387 -2.98272,4.47158 -1.52358,1.47304 -5.25107,3.40995 -6.49304,3.37396 -0.47618,-0.0138 -2.23499,-0.28921 -3.90848,-0.61204 z"
         id="path61" />
      <path
         style="fill:#ee4035;stroke-width:0.264583"
         d="m 61.212505,157.91353 -42.23388,-42.23388 h -4.697286 c -2.583507,0 -4.6972854,-0.0894 -4.6972854,-0.19872 0,-0.30242 93.4921564,-93.728369 93.7947864,-93.728369 0.30264,0 93.79479,93.425949 93.79479,93.728369 0,0.10929 -2.02701,0.19872 -4.50446,0.19872 -4.42455,0 -4.50868,-0.0106 -4.74193,-0.59531 -0.32636,-0.81822 -83.66117,-84.071362 -84.15381,-84.071362 -0.47455,0 -84.399793,83.862062 -84.399793,84.336252 0,0.23575 0.587588,0.33042 2.050848,0.33042 h 2.050848 L 63.559052,75.595271 103.64277,35.510893 143.7278,75.595271 183.81282,115.67965 h 2.18249 c 1.20037,0 2.18249,0.0307 2.18249,0.0681 0,0.17308 -84.17475,84.21351 -84.4354,84.30067 -0.16281,0.0544 -19.30126,-18.90626 -42.529895,-42.1349 z m 82.648785,-2.08336 39.95088,-40.01823 -39.99682,-0.067 c -21.99825,-0.0369 -58.074191,-0.0369 -80.168748,0 l -40.171924,0.067 39.952212,40.01823 c 21.973714,22.01003 40.07175,40.01823 40.21786,40.01823 0.14611,0 18.24355,-18.0082 40.21654,-40.01823 z m -52.272601,20.61986 c -0.663752,-0.18601 -1.576266,-0.60128 -2.027812,-0.92281 -0.948928,-0.6757 -2.003126,-2.66779 -1.878107,-3.54901 0.07723,-0.5444 0.247155,-0.61149 1.728194,-0.68225 l 1.642539,-0.0785 0.675886,1.07068 c 0.579654,0.91823 0.807625,1.07067 1.601195,1.07067 1.044652,0 1.761122,-0.64427 1.991344,-1.79067 0.203113,-1.01141 -0.160922,-2.49684 -0.710361,-2.8986 -0.686517,-0.502 -2.050778,-0.40924 -2.814296,0.19135 -0.814515,0.6407 -2.872388,0.72873 -3.357962,0.14365 -0.415589,-0.50076 0.594013,-8.85341 1.110406,-9.18663 0.184456,-0.11903 2.299909,-0.18688 4.701002,-0.15078 l 4.365625,0.0656 v 1.5875 1.5875 l -3.219235,0.0741 -3.219236,0.0741 -0.18047,1.0682 c -0.09926,0.5875 -0.135043,1.11362 -0.07952,1.16914 0.05552,0.0555 0.592044,-0.0237 1.192268,-0.17605 1.636807,-0.41547 3.70859,0.25778 4.920175,1.59886 2.398856,2.65524 1.522852,7.66323 -1.621012,9.26711 -1.357169,0.69238 -3.332972,0.88369 -4.820626,0.46677 z m 9.655561,-0.52898 c -0.0786,-0.20489 -0.10675,-1.07357 -0.0625,-1.9304 l 0.0804,-1.55788 h 1.85208 1.85208 v 1.85209 1.85208 l -1.78957,0.0783 c -1.34916,0.059 -1.82475,-0.0134 -1.93252,-0.29421 z m 5.73443,-0.015 c -0.47996,-0.57832 0.14984,-2.92108 1.13237,-4.21226 0.46586,-0.61221 1.61387,-1.70842 2.55113,-2.43602 3.16603,-2.45782 3.69687,-3.09333 3.69687,-4.42578 0,-1.39522 -0.57056,-2.05651 -1.77438,-2.05651 -0.93849,0 -1.42568,0.49214 -1.80496,1.82331 -0.27146,0.95272 -0.27568,0.95499 -1.92166,1.03368 -1.97881,0.0946 -2.13222,-0.11169 -1.65822,-2.22975 0.61471,-2.74681 2.88617,-4.26729 5.99038,-4.00986 1.70677,0.14153 3.16587,0.89448 4.19329,2.16389 0.69793,0.86232 0.81557,1.24284 0.89403,2.8918 0.12946,2.72078 -0.48033,3.76606 -3.52931,6.0498 -1.29951,0.97336 -2.40487,1.89609 -2.45634,2.05052 -0.0622,0.18652 0.87313,0.28078 2.78596,0.28078 1.88687,0 2.989,0.10945 3.19704,0.3175 0.17463,0.17462 0.3175,0.80566 0.3175,1.40229 0,0.59664 -0.14287,1.22767 -0.3175,1.40229 -0.48769,0.48769 -10.88845,0.44564 -11.2962,-0.0457 z m 17.30224,-66.31182 v -1.71979 l -19.43019,-0.0679 c -15.369095,-0.0537 -19.474301,0.002 -19.641256,0.26459 -0.249777,0.39343 -0.288245,2.35813 -0.05792,2.95835 0.145624,0.37948 2.049603,0.41364 19.645306,0.35237 l 19.48406,-0.0679 z m -12.69999,-3.81533 c 3.95977,-0.35461 3.97383,-0.35821 6.2177,-1.59096 3.50043,-1.92308 4.57635,-2.83165 6.33061,-5.345921 2.29598,-3.290673 3.03717,-5.738702 3.60222,-11.897517 0.39592,-4.315291 0.3776,-8.521965 -0.0434,-9.960168 -0.15638,-0.534255 -0.77826,-0.619874 -0.96088,-0.132292 -0.0681,0.181901 -0.40165,2.160048 -0.74116,4.395886 l -0.6173,4.065153 -1.01231,0.669917 c -1.09934,0.727515 -1.46965,0.673378 -1.02878,-0.150399 0.15413,-0.287991 0.76748,-1.875767 1.36302,-3.528391 l 1.08278,-3.00477 -0.31395,-2.38125 c -0.3654,-2.7715 -1.70214,-6.746875 -2.26867,-6.746875 -0.20821,0 -0.84312,0.74414 -1.41089,1.653646 -1.2384,1.983753 -2.43989,3.637819 -2.64301,3.63856 -0.0812,2.65e-4 -0.10998,-1.337167 -0.0639,-2.972138 0.13681,-4.854875 -0.22331,-6.664365 -2.00096,-10.053895 -2.18751,-4.171058 -2.54355,-4.163663 -2.93262,0.06091 -0.24921,2.705912 -1.17685,6.644145 -1.73704,7.374491 -0.20591,0.268464 -0.36117,-0.282922 -0.59599,-2.116667 -0.29696,-2.318967 -0.49894,-2.859858 -3.11611,-8.344573 -2.27309,-4.763622 -2.92326,-6.403096 -3.46258,-8.73125 -1.15752,-4.996834 -1.47484,-5.172045 -2.91514,-1.609606 -0.96823,2.394821 -0.99413,2.549703 -1.20558,7.209896 -0.11884,2.619375 -0.34012,5.702012 -0.49172,6.850306 -0.29079,2.202651 -1.040775,4.923653 -1.357089,4.923653 -0.255712,0 -0.925455,-1.752719 -1.157084,-3.028096 -0.241266,-1.328441 -1.235117,-3.28872 -2.038281,-4.020322 -0.724453,-0.659903 -3.209938,-1.947416 -3.759401,-1.947416 -0.57063,0 -0.682731,0.580443 -0.441722,2.287154 0.14972,1.060257 0.103436,2.175687 -0.146629,3.53368 -0.200973,1.091406 -0.483386,3.340476 -0.627581,4.997934 -0.144198,1.657456 -0.29795,3.049334 -0.341678,3.093059 -0.04372,0.04372 -0.48623,-0.53847 -0.983343,-1.293768 -1.051528,-1.597652 -3.217473,-3.660412 -3.901931,-3.716041 -0.434721,-0.03533 -0.466773,0.220848 -0.39242,3.136524 0.04453,1.74625 -0.03455,3.768178 -0.175749,4.493173 -0.18382,0.943872 -0.155755,1.941844 0.09883,3.514532 0.379905,2.346839 1.334371,5.514925 1.736363,5.763369 0.396952,0.245332 0.278479,0.648719 -0.190529,0.648719 -0.581025,0 -2.949112,-2.018568 -5.40027,-4.603216 -2.963593,-3.124989 -3.2727,-2.480281 -1.700229,3.54616 0.512422,1.963828 1.421292,5.535129 2.019716,7.936223 0.93581,3.754826 1.25518,4.6278 2.282658,6.239502 1.034598,1.622864 1.51657,2.081634 3.598082,3.424844 4.121832,2.65984 7.01793,3.30901 17.493917,3.92129 0.7276,0.0425 1.56104,0.0942 1.85208,0.11484 0.29104,0.0206 2.3151,-0.12241 4.49792,-0.31789 z m -8.0698,-2.11931 c -3.673368,-0.70022 -5.659952,-1.65132 -7.591977,-3.63474 -1.489355,-1.528972 -2.336315,-3.094591 -1.474933,-2.726432 0.701337,0.299752 5.384591,0.893739 5.79747,0.735304 0.55524,-0.213069 0.4541,-0.487934 -0.933783,-2.537558 -1.650166,-2.436969 -2.940523,-5.013026 -2.940523,-5.87043 0,-0.367953 0.05939,-0.669004 0.13199,-0.669004 0.07259,0 0.610455,0.464336 1.195247,1.031859 1.315551,1.2767 4.229339,2.830328 4.856709,2.589586 0.40032,-0.15362 0.42885,-0.414578 0.24359,-2.228448 -0.39777,-3.894646 -0.23459,-4.704784 2.27349,-11.286702 0.16214,-0.425492 0.31818,-0.302652 1.03545,0.81511 1.78543,2.782358 2.30723,6.139579 1.65777,10.666095 -0.2361,1.645523 -0.13784,2.116667 0.44142,2.116667 0.60305,0 5.3792,-2.646715 5.54207,-3.071159 0.30868,-0.8044 0.61068,-0.303403 0.45575,0.756055 -0.2584,1.766985 -1.24599,3.694559 -2.73573,5.339588 -1.1074,1.222825 -1.31072,1.586084 -1.05813,1.890437 0.42328,0.510022 3.33453,0.497205 4.57269,-0.02013 0.52242,-0.218281 1.02292,-0.396875 1.11222,-0.396875 0.3631,0 -1.11253,2.081893 -2.50038,3.527647 -1.63355,1.70172 -5.0404,3.63887 -6.30422,3.58463 -0.40341,-0.0173 -2.1027,-0.29249 -3.77619,-0.61149 z m -0.31419,-82.352353 c 0.191,-0.07643 0.4192,-0.06703 0.50712,0.02089 0.0879,0.08792 -0.0683,0.150453 -0.34727,0.138964 -0.30822,-0.0127 -0.37092,-0.07539 -0.15985,-0.159852 z"
         id="path59" />
      <path
         style="fill:#a59c00;stroke-width:0.264583"
         d="M 61.410789,158.11285 C 38.290355,134.99412 19.373637,115.98398 19.373637,115.86809 c 0,-0.11588 0.894661,-0.17593 1.988136,-0.13342 l 1.988136,0.0773 40.014822,40.01823 c 22.00815,22.01003 40.134259,40.01823 40.280249,40.01823 0.14598,0 18.24332,-17.99968 40.21631,-39.99928 l 39.95088,-39.99929 2.18281,-0.11224 c 1.20055,-0.0617 2.18282,-0.0694 2.18282,-0.017 0,0.19054 -84.14782,84.23165 -84.43463,84.32756 -0.16238,0.0543 -19.211948,-18.8166 -42.332381,-41.93532 z m 30.1779,18.33718 c -0.663752,-0.18601 -1.576266,-0.60128 -2.027812,-0.92281 -0.948928,-0.6757 -2.003126,-2.66779 -1.878107,-3.54901 0.07723,-0.5444 0.247155,-0.61149 1.728194,-0.68225 l 1.642539,-0.0785 0.675886,1.07068 c 0.579654,0.91823 0.807625,1.07067 1.601195,1.07067 1.044652,0 1.761122,-0.64427 1.991344,-1.79067 0.203113,-1.01141 -0.160922,-2.49684 -0.710361,-2.8986 -0.686517,-0.502 -2.050778,-0.40924 -2.814296,0.19135 -0.814515,0.6407 -2.872388,0.72873 -3.357962,0.14365 -0.415589,-0.50076 0.594013,-8.85341 1.110406,-9.18663 0.184456,-0.11903 2.299909,-0.18688 4.701002,-0.15078 l 4.365625,0.0656 v 1.5875 1.5875 l -3.219235,0.0741 -3.219236,0.0741 -0.18047,1.0682 c -0.09926,0.5875 -0.135043,1.11362 -0.07952,1.16914 0.05552,0.0555 0.592044,-0.0237 1.192268,-0.17605 1.636807,-0.41547 3.70859,0.25778 4.920175,1.59886 2.398856,2.65524 1.522852,7.66323 -1.621012,9.26711 -1.357169,0.69238 -3.332972,0.88369 -4.820626,0.46677 z m 9.655561,-0.52898 c -0.0786,-0.20489 -0.10675,-1.07357 -0.0625,-1.9304 l 0.0804,-1.55788 h 1.85208 1.85208 v 1.85209 1.85208 l -1.78957,0.0783 c -1.34916,0.059 -1.82475,-0.0134 -1.93252,-0.29421 z m 5.73443,-0.015 c -0.47996,-0.57832 0.14984,-2.92108 1.13237,-4.21226 0.46586,-0.61221 1.61387,-1.70842 2.55113,-2.43602 3.16603,-2.45782 3.69687,-3.09333 3.69687,-4.42578 0,-1.39522 -0.57056,-2.05651 -1.77438,-2.05651 -0.93849,0 -1.42568,0.49214 -1.80496,1.82331 -0.27146,0.95272 -0.27568,0.95499 -1.92166,1.03368 -1.97881,0.0946 -2.13222,-0.11169 -1.65822,-2.22975 0.61471,-2.74681 2.88617,-4.26729 5.99038,-4.00986 1.70677,0.14153 3.16587,0.89448 4.19329,2.16389 0.69793,0.86232 0.81557,1.24284 0.89403,2.8918 0.12946,2.72078 -0.48033,3.76606 -3.52931,6.0498 -1.29951,0.97336 -2.40487,1.89609 -2.45634,2.05052 -0.0622,0.18652 0.87313,0.28078 2.78596,0.28078 1.88687,0 2.989,0.10945 3.19704,0.3175 0.17463,0.17462 0.3175,0.80566 0.3175,1.40229 0,0.59664 -0.14287,1.22767 -0.3175,1.40229 -0.48769,0.48769 -10.88845,0.44564 -11.2962,-0.0457 z"
         id="path57" />
      <path
         style="fill:#686300;stroke-width:0.264583"
         d="M 61.574677,157.7484 19.506552,115.67965 h 1.72154 1.721541 l 40.213414,40.21667 c 22.117378,22.11916 40.333163,40.21666 40.479513,40.21666 0.14636,0 18.36331,-18.0975 40.48211,-40.21666 l 40.21602,-40.21667 h 1.65397 c 0.90968,0 1.65397,0.0898 1.65397,0.19958 0,0.21596 -83.65939,83.93792 -83.8752,83.93792 -0.0718,0 -19.061285,-18.93094 -42.198753,-42.06875 z m 30.331197,18.49985 c -2.019977,-0.3958 -3.658179,-1.98711 -3.797506,-3.68883 l -0.07536,-0.9204 1.361871,-0.079 c 1.278721,-0.0742 1.399101,-0.0257 1.971628,0.79375 0.785164,1.12386 0.997698,1.26071 1.965441,1.26561 2.223849,0.0112 3.2258,-2.90682 1.675022,-4.87832 -0.663292,-0.84324 -2.117858,-0.90761 -3.269795,-0.14471 -0.810287,0.53663 -2.371556,0.69505 -2.989122,0.3033 -0.278551,-0.1767 -0.241721,-1.00859 0.195312,-4.41137 0.29623,-2.30648 0.638384,-4.29338 0.760344,-4.41534 0.12196,-0.12196 2.117664,-0.18885 4.434898,-0.14865 l 4.213151,0.0731 v 1.32291 1.32292 l -3.118628,0.0746 c -3.06434,0.0733 -3.123062,0.0863 -3.373437,0.74483 -0.140145,0.36861 -0.25481,1.02503 -0.25481,1.45871 0,0.7713 0.02167,0.78403 0.992188,0.5831 3.758885,-0.77821 6.482291,1.34321 6.482291,5.04943 0,3.99227 -3.139853,6.4847 -7.173489,5.69436 z m 9.601856,-0.59465 c -0.0797,-0.2077 -0.10803,-0.95783 -0.0629,-1.66694 l 0.082,-1.2893 h 1.5875 1.5875 v 1.5875 1.5875 l -1.52456,0.0794 c -1.1317,0.059 -1.56189,-0.0179 -1.66947,-0.2982 z m 5.61433,-0.0395 c -0.2149,-0.56003 0.47204,-2.66353 1.25741,-3.85029 0.36923,-0.55795 1.59779,-1.72299 2.73014,-2.58899 3.36051,-2.57004 4.04578,-3.5975 3.50078,-5.24888 -0.33548,-1.0165 -0.92303,-1.41507 -2.08603,-1.41507 -1.02283,0 -1.78785,0.75105 -2.01875,1.98187 l -0.1788,0.95306 -1.48704,-0.0784 c -1.69694,-0.0895 -1.83503,-0.29823 -1.36121,-2.05785 0.40703,-1.51162 1.90584,-3.10213 3.27098,-3.47112 2.59243,-0.70073 5.60916,0.37317 6.74988,2.40281 0.52464,0.93347 0.6052,1.38738 0.51852,2.92145 -0.12746,2.25584 -0.73052,3.09813 -3.94014,5.50319 -1.22776,0.91999 -2.27079,1.84273 -2.31784,2.05052 -0.0704,0.31107 0.47373,0.3778 3.08055,0.3778 3.43349,0 3.48729,0.024 3.48729,1.55623 0,1.29697 -0.24699,1.35419 -5.84544,1.35419 -4.34974,0 -5.2352,-0.0645 -5.3603,-0.39052 z"
         id="path55" />
      <path
         style="fill:#090900;stroke-width:0.264583"
         d="M 61.706968,157.61611 20.035725,115.94423 h 1.45522 1.455219 l 40.216013,40.21667 c 22.118806,22.11917 40.395283,40.21667 40.614403,40.21667 0.21912,0 18.49443,-18.0975 40.61181,-40.21667 l 40.21341,-40.21667 h 1.32466 1.32467 l -41.67125,41.67188 c -22.91918,22.91953 -41.79059,41.67187 -41.93645,41.67187 -0.14587,0 -19.017278,-18.75234 -41.936462,-41.67187 z m 28.839583,17.80929 c -0.890916,-0.45748 -1.346171,-0.92488 -1.808552,-1.85682 -0.339857,-0.685 -0.541192,-1.36961 -0.447405,-1.52136 0.09379,-0.15175 0.696217,-0.2759 1.338736,-0.2759 1.027822,0 1.217055,0.0944 1.574623,0.7859 0.496102,0.95936 1.147225,1.33342 2.301766,1.32235 1.11695,-0.0107 1.691598,-0.4533 2.214981,-1.70593 0.527632,-1.2628 0.302207,-2.7716 -0.551765,-3.69306 -0.813805,-0.8781 -2.464535,-0.93177 -3.608342,-0.11731 -0.591529,0.42121 -1.021257,0.52276 -1.727272,0.40819 -0.516908,-0.0839 -0.976021,-0.1887 -1.020246,-0.23292 -0.162071,-0.16208 0.940223,-7.98605 1.155449,-8.20128 0.122253,-0.12225 1.998964,-0.18921 4.170465,-0.1488 l 3.948187,0.0735 v 1.05833 1.05834 l -3.118628,0.0746 c -3.497413,0.0837 -3.476265,0.0703 -3.667927,2.3261 l -0.08826,1.03886 2.246783,-0.089 c 2.00361,-0.0794 2.344378,-0.0221 3.148497,0.52916 1.529162,1.04829 1.981009,1.88937 2.094555,3.89887 0.127249,2.25196 -0.499983,3.84252 -1.952029,4.95007 -0.867434,0.66163 -1.274054,0.77616 -3.008006,0.84726 -1.678141,0.0688 -2.199074,-0.0175 -3.195608,-0.52917 z m 11.301089,0.15047 c -0.10372,-0.10372 -0.18859,-0.76405 -0.18859,-1.4674 v -1.27882 h 1.46904 1.46903 l -0.08,1.38906 -0.08,1.38906 -1.20048,0.0784 c -0.66026,0.0431 -1.28534,-0.007 -1.38906,-0.11025 z m 5.63805,-0.6957 c 0.0132,-1.94985 1.36809,-3.67057 5.17887,-6.57707 2.55435,-1.94823 3.1764,-4.21061 1.51668,-5.51615 -1.51751,-1.19367 -3.56688,-0.40414 -3.95223,1.52261 -0.16284,0.81415 -0.21971,0.84717 -1.45928,0.84717 -1.46527,0 -1.48413,-0.0435 -0.88862,-2.04879 0.46866,-1.57813 1.48561,-2.56018 3.10185,-2.99539 1.449,-0.39017 3.66241,-0.0953 4.72747,0.62978 1.47561,1.00459 1.93075,1.86515 2.02434,3.82755 0.11736,2.46081 -0.4424,3.33143 -3.7726,5.86774 -1.4552,1.1083 -2.64583,2.18919 -2.64583,2.402 0,0.31439 0.60749,0.40083 3.24115,0.46119 l 3.24114,0.0743 v 1.18249 1.18248 h -5.15937 -5.15938 l 0.006,-0.8599 z"
         id="path53" />
    </g>
  </g>
</svg>
