<?xml version="1.0" encoding="UTF-8" standalone="no"?>
<!-- Created with Inkscape (http://www.inkscape.org/) -->

<svg
   width="24"
   height="24"
   viewBox="0 0 24 24"
   version="1.1"
   id="svg5"
   inkscape:version="1.1.1 (3bf5ae0d25, 2021-09-20)"
   sodipodi:docname="exclam.svg"
   xmlns:inkscape="http://www.inkscape.org/namespaces/inkscape"
   xmlns:sodipodi="http://sodipodi.sourceforge.net/DTD/sodipodi-0.dtd"
   xmlns="http://www.w3.org/2000/svg"
   xmlns:svg="http://www.w3.org/2000/svg">
  <g
     inkscape:label="Capa 1"
     inkscape:groupmode="layer"
     id="layer1"
     transform="translate(15.946791,28.864379)">
    <g
       id="g4409"
       transform="matrix(0.12812239,0,0,0.12708914,-207.56124,-4.2074214)" />
    <g
       id="g8122"
       transform="matrix(0.12598473,0,0,0.12588623,-1.4167229,-30.325027)">
      <path
         style="fill:#f6a9a4;stroke-width:0.264583"
         d="M -67.233362,154.69526 C -93.339626,128.5902 -114.6993,107.05302 -114.6993,106.83485 c 0,-0.21816 21.359674,-21.75535 47.465938,-47.860412 l 47.465934,-47.463752 0.75438,0.549225 c 1.430745,1.04165 94.549175,94.382429 94.549175,94.774939 0,0.39251 -93.11843,93.73329 -94.549175,94.77494 l -0.75438,0.54923 z m 87.47157,-87.680201 -39.819354,-39.820011 -39.819793,39.819792 -39.819793,39.81979 39.819354,39.82001 39.819354,39.82001 39.819793,-39.81979 39.819793,-39.81979 z m -41.751939,80.434591 c -1.686907,-0.47423 -2.185975,-0.72397 -3.825862,-1.91451 -1.709627,-1.24117 -3.273158,-3.50622 -3.943319,-5.71258 -0.815996,-2.68649 -0.607708,-6.0732 0.521986,-8.48731 1.092677,-2.33499 3.11921,-4.44056 5.313649,-5.52088 1.625753,-0.80035 1.917885,-0.85556 4.52715,-0.85556 2.609266,0 2.901397,0.0552 4.527151,0.85556 2.194438,1.08032 4.220972,3.18589 5.3136484,5.52088 1.1296942,2.41411 1.3379821,5.80082 0.5219859,8.48731 -1.7030593,5.60696 -7.6627623,9.11528 -12.9563893,7.62709 z m 0.266583,-28.68056 c -1.832488,-0.63296 -3.126473,-1.70828 -4.074165,-3.38573 -0.727824,-1.28826 -0.949661,-2.58117 -4.195096,-24.449642 -1.884648,-12.699198 -3.426635,-23.75866 -3.426635,-24.576585 0,-7.441861 12.984393,-11.816043 22.092709,-7.442589 3.9128096,1.878775 5.9549062,4.426453 5.9514137,7.424859 -0.00106,0.808173 -1.5447487,11.87086 -3.4306803,24.583748 -3.2369284,21.819799 -3.4717354,23.190489 -4.1925374,24.473959 -0.929703,1.65544 -2.524485,2.93005 -4.341019,3.4695 -1.747697,0.51901 -2.657639,0.49877 -4.38399,-0.0975 z"
         id="path8136" />
      <path
         style="fill:#f3847d;stroke-width:0.264583"
         d="m -67.206494,154.45994 -47.624546,-47.62509 47.624546,-47.625092 47.624541,-47.625091 47.625094,47.625091 47.625095,47.625092 -47.625095,47.62509 -47.625094,47.62509 z m 87.642811,-7.47424 c 21.864686,-21.86432 39.753976,-39.93191 39.753976,-40.15019 0,-0.43275 -79.339194,-79.904826 -79.771219,-79.904826 -0.432036,0 -79.772537,79.470766 -79.772537,79.903506 0,0.43275 79.339194,79.90483 79.771219,79.90483 0.145521,0 18.1538756,-17.88899 40.018561,-39.75332 z m -41.148668,0.56532 c -5.353637,-0.89159 -9.363099,-6.2456 -8.982845,-11.99518 0.541446,-8.18688 8.354862,-13.04899 15.385699,-9.57416 7.0601945,3.48934 8.4153163,13.29317 2.59053,18.74158 -1.676546,1.56821 -3.528312,2.50058 -5.650199,2.84488 -0.925787,0.15022 -1.742784,0.26011 -1.815544,0.2442 -0.07276,-0.0159 -0.760198,-0.13351 -1.527641,-0.26132 z m 0.601599,-28.56639 c -0.582083,-0.10972 -1.384842,-0.32517 -1.783908,-0.47878 -1.125135,-0.43307 -3.140228,-2.42475 -3.68014,-3.63737 -0.507286,-1.13936 -7.370765,-46.430595 -7.365659,-48.605065 0.0083,-3.524255 3.732382,-7.038004 8.910183,-8.406889 2.65956,-0.703125 7.096797,-0.761685 9.733047,-0.128453 5.3487617,1.284785 9.3888303,4.941322 9.3974345,8.50532 0.00423,1.752341 -6.8317425,47.390307 -7.2474935,48.385337 -1.221478,2.92341 -4.90438,4.94252 -7.963464,4.3659 z"
         id="path8134" />
      <path
         style="fill:#a0a0a0;stroke-width:0.264583"
         d="m -67.074578,154.39371 -47.492992,-47.55886 47.492992,-47.558853 47.492993,-47.558854 47.492816,47.558854 47.492816,47.558853 -47.492816,47.55886 -47.492816,47.55885 z m 87.641446,-7.27485 c 21.938404,-21.9366 39.888008,-40.06441 39.888008,-40.28401 0,-0.4316 -79.605569,-80.168749 -80.036461,-80.168749 -0.430892,0 -80.036461,79.737149 -80.036461,80.168749 0,0.43161 79.605569,80.16875 80.036461,80.16875 0.143245,0 18.2100491,-17.94813 40.148453,-39.88474 z m -41.279219,0.43216 c -5.353637,-0.89159 -9.363099,-6.2456 -8.982845,-11.99518 0.541446,-8.18688 8.354862,-13.04899 15.385699,-9.57416 7.0601945,3.48934 8.4153163,13.29317 2.59053,18.74158 -1.676546,1.56821 -3.528312,2.50058 -5.650199,2.84488 -0.925787,0.15022 -1.742784,0.26011 -1.815544,0.2442 -0.07276,-0.0159 -0.760198,-0.13351 -1.527641,-0.26132 z m 0.601599,-28.56639 c -0.582083,-0.10972 -1.384842,-0.32517 -1.783908,-0.47878 -1.125135,-0.43307 -3.140228,-2.42475 -3.68014,-3.63737 -0.507286,-1.13936 -7.370765,-46.430595 -7.365659,-48.605065 0.0083,-3.524255 3.732382,-7.038004 8.910183,-8.406889 2.65956,-0.703125 7.096797,-0.761685 9.733047,-0.128453 5.3487617,1.284785 9.3888303,4.941322 9.3974345,8.50532 0.00423,1.752341 -6.8317425,47.390307 -7.2474935,48.385337 -1.221478,2.92341 -4.90438,4.94252 -7.963464,4.3659 z"
         id="path8132" />
      <path
         style="fill:#f05e55;stroke-width:0.264583"
         d="m -67.074578,154.39371 -47.492992,-47.55886 47.492992,-47.558853 47.492993,-47.558854 47.492816,47.558854 47.492816,47.558853 -47.492816,47.55886 -47.492816,47.55885 z m 87.641446,-7.27485 c 21.938404,-21.9366 39.888008,-40.06441 39.888008,-40.28401 0,-0.4316 -79.605569,-80.168749 -80.036461,-80.168749 -0.430892,0 -80.036461,79.737149 -80.036461,80.168749 0,0.43161 79.605569,80.16875 80.036461,80.16875 0.143245,0 18.2100491,-17.94813 40.148453,-39.88474 z m -41.279219,0.16758 c -3.785444,-0.63043 -7.041041,-3.62043 -8.268274,-7.59375 -1.674908,-5.42272 0.796166,-11.27161 5.754336,-13.62018 1.626401,-0.77038 2.025684,-0.84912 4.306162,-0.84912 2.27479,0 2.681944,0.0798 4.286438,0.8399 4.7147882,2.23358 7.2654457,7.81058 5.9383671,12.9842 -0.5588079,2.17851 -1.1974539,3.38413 -2.6463021,4.9956 -1.490162,1.65741 -3.768931,2.89405 -5.999901,3.25601 -0.94099,0.15267 -1.770425,0.26457 -1.843185,0.24865 -0.07276,-0.0159 -0.760198,-0.1335 -1.527641,-0.26131 z m 0.560258,-28.57038 c -2.303539,-0.42623 -4.437832,-2.09062 -5.286997,-4.12295 -0.410281,-0.98195 -7.240852,-46.598785 -7.236785,-48.329695 0.0079,-3.382592 3.66215,-6.824885 8.642802,-8.141592 2.653335,-0.701447 7.099084,-0.76259 9.716577,-0.133635 5.2111467,1.252185 9.1437865,4.795128 9.1521182,8.245205 0.00421,1.737831 -6.8299622,47.386047 -7.2419612,48.372097 -1.185182,2.83654 -4.661342,4.68129 -7.745754,4.11057 z"
         id="path8130" />
      <path
         style="fill:#ee4034;stroke-width:0.264583"
         d="m -19.763486,201.63953 c 0.190995,-0.0764 0.419201,-0.067 0.507119,0.0209 0.08792,0.0879 -0.06835,0.15046 -0.347266,0.13897 -0.308226,-0.0127 -0.370919,-0.0754 -0.159853,-0.15985 z m -47.310809,-47.57655 -47.227575,-47.22813 47.227575,-47.228124 c 25.975163,-25.975469 47.346882,-47.228125 47.49271,-47.228125 0.145828,0 21.5175473,21.252656 47.49271,47.228125 l 47.227571,47.228124 -47.227571,47.22813 c -25.9751627,25.97546 -47.346882,47.22812 -47.49271,47.22812 -0.145828,0 -21.517547,-21.25266 -47.49271,-47.22812 z m 87.773463,-6.81183 c 22.011159,-22.00937 40.020291,-40.19671 40.020291,-40.4163 0,-0.43161 -79.870146,-80.433332 -80.301044,-80.433332 -0.430898,0 -80.301044,80.001722 -80.301044,80.433332 0,0.43161 79.870146,80.43333 80.301044,80.43333 0.143253,0 18.2695909,-18.00766 40.280753,-40.01703 z m -41.411519,0.0353 c -3.785444,-0.63043 -7.041041,-3.62043 -8.268274,-7.59375 -1.674908,-5.42272 0.796166,-11.27161 5.754336,-13.62018 1.626401,-0.77038 2.025684,-0.84912 4.306162,-0.84912 2.27479,0 2.681944,0.0798 4.286438,0.8399 4.7147882,2.23358 7.2654457,7.81058 5.9383671,12.9842 -0.5588079,2.17851 -1.1974539,3.38413 -2.6463021,4.9956 -1.490162,1.65741 -3.768931,2.89405 -5.999901,3.25601 -0.94099,0.15267 -1.770425,0.26457 -1.843185,0.24865 -0.07276,-0.0159 -0.760198,-0.1335 -1.527641,-0.26131 z m 0.560258,-28.57038 c -2.303539,-0.42623 -4.437832,-2.09062 -5.286997,-4.12295 -0.410281,-0.98195 -7.240852,-46.598785 -7.236785,-48.329695 0.0079,-3.382592 3.66215,-6.824885 8.642802,-8.141592 2.653335,-0.701447 7.099084,-0.76259 9.716577,-0.133635 5.2111467,1.252185 9.1437865,4.795128 9.1521182,8.245205 0.00421,1.737831 -6.8299622,47.386047 -7.2419612,48.372097 -1.185182,2.83654 -4.661342,4.68129 -7.745754,4.11057 z m 0.388607,-106.782783 c 0.190995,-0.07643 0.419201,-0.06703 0.507119,0.02089 0.08792,0.08792 -0.06835,0.150453 -0.347266,0.138964 -0.308226,-0.01269 -0.370919,-0.07539 -0.159853,-0.159852 z"
         id="path8128" />
      <path
         style="fill:#5e5e5e;stroke-width:0.264583"
         d="m -20.712351,147.28644 c -3.785444,-0.63043 -7.041041,-3.62043 -8.268274,-7.59375 -1.674908,-5.42272 0.796166,-11.27161 5.754336,-13.62018 1.626401,-0.77038 2.025684,-0.84912 4.306162,-0.84912 2.27479,0 2.681944,0.0798 4.286438,0.8399 4.7147882,2.23358 7.2654457,7.81058 5.9383671,12.9842 -0.5588079,2.17851 -1.1974539,3.38413 -2.6463021,4.9956 -1.490162,1.65741 -3.768931,2.89405 -5.999901,3.25601 -0.94099,0.15267 -1.770425,0.26457 -1.843185,0.24865 -0.07276,-0.0159 -0.760198,-0.1335 -1.527641,-0.26131 z m 0.560258,-28.57038 c -2.303539,-0.42623 -4.437832,-2.09062 -5.286997,-4.12295 -0.410281,-0.98195 -7.240852,-46.598785 -7.236785,-48.329695 0.0079,-3.382592 3.66215,-6.824885 8.642802,-8.141592 2.653335,-0.701447 7.099084,-0.76259 9.716577,-0.133635 5.2111467,1.252185 9.1437865,4.795128 9.1521182,8.245205 0.00421,1.737831 -6.8299622,47.386047 -7.2419612,48.372097 -1.185182,2.83654 -4.661342,4.68129 -7.745754,4.11057 z"
         id="path8126" />
      <path
         style="fill:#010101;stroke-width:0.264583"
         d="m -22.069809,146.6677 c -0.640921,-0.20802 -1.772015,-0.79826 -2.513542,-1.31165 -6.830816,-4.72924 -5.898737,-15.63795 1.636777,-19.15625 1.304528,-0.60907 1.85987,-0.70674 4.032012,-0.70909 2.308862,-0.002 2.664489,0.0688 4.261114,0.85485 6.5916709,3.24507 8.0631459,12.47622 2.835328,17.78715 -1.94261,1.97349 -3.773368,2.75061 -6.690315,2.83988 -1.547024,0.0473 -2.808991,-0.0607 -3.561374,-0.30489 z m 0.567971,-28.58649 c -1.510279,-0.65638 -2.6366,-1.70395 -3.356176,-3.12151 -0.624592,-1.23045 -1.068385,-3.87065 -4.145347,-24.661307 -2.321623,-15.686953 -3.401557,-23.688726 -3.310051,-24.525881 0.174807,-1.59925 0.724744,-2.639295 2.148268,-4.062819 5.187003,-5.187003 17.51161,-5.100754 22.634182,0.158395 1.2533286,1.286743 2.1045858,3.093633 2.1045858,4.467217 0,0.374655 -1.5481327,11.141922 -3.4402952,23.927258 -2.3034096,15.564137 -3.6007786,23.608867 -3.9259276,24.343917 -0.611317,1.38199 -1.965645,2.74905 -3.343531,3.37498 -1.293329,0.58752 -4.122376,0.64011 -5.365708,0.0998 z"
         id="path8124" />
    </g>
  </g>
</svg>
