<?xml version="1.0" encoding="UTF-8" standalone="no"?>
<!-- Created with Inkscape (http://www.inkscape.org/) -->

<svg
   width="24"
   height="24"
   viewBox="0 0 24 24"
   version="1.1"
   id="svg5"
   inkscape:version="1.1.1 (3bf5ae0d25, 2021-09-20)"
   sodipodi:docname="Gas inflamable transporte.svg"
   xmlns:inkscape="http://www.inkscape.org/namespaces/inkscape"
   xmlns:sodipodi="http://sodipodi.sourceforge.net/DTD/sodipodi-0.dtd"
   xmlns="http://www.w3.org/2000/svg"
   xmlns:svg="http://www.w3.org/2000/svg">
  <g
     inkscape:label="Capa 1"
     inkscape:groupmode="layer"
     id="layer1"
     transform="translate(15.946791,28.864379)">
    <g
       id="g4409"
       transform="matrix(0.12812239,0,0,0.12708914,-207.56124,-4.2074214)" />
    <g
       id="g8627"
       transform="matrix(0.12641286,0,0,0.12659979,-1.3362434,-30.153699)">
      <path
         style="fill:#facdca;stroke-width:0.264583"
         d="m -22.105052,197.64813 c -0.940501,-0.51624 -93.101278,-92.72797 -93.536478,-93.58819 -0.31441,-0.62148 -0.31441,-0.83372 0,-1.4552 0.42817,-0.84633 93.074296,-93.4309571 94.019817,-93.9574044 0.617632,-0.343886 1.832573,0.8460664 47.963693,46.9771854 l 47.330008,47.330009 -0.396346,0.78422 c -0.436054,0.86278 -93.053019,93.46173 -94.006096,93.98781 -0.325448,0.17964 -0.623104,0.31494 -0.661458,0.30067 -0.03835,-0.0143 -0.359267,-0.18486 -0.71314,-0.3791 z M 20.739499,145.00411 62.410848,103.33213 20.540853,61.462131 -21.329145,19.592135 -63.001126,61.263485 c -22.919589,22.919242 -41.671984,41.790415 -41.671984,41.935935 0,0.34637 83.129676,83.47667 83.476045,83.47667 0.145867,0 19.0173213,-18.75239 41.936564,-41.67198 z m -82.482978,-1.25765 c -22.010566,-22.01056 -40.019211,-40.19643 -40.019211,-40.41304 0,-0.51791 79.914562,-80.434413 80.432466,-80.434413 0.5199,0 80.434201,79.914093 80.434201,80.433983 0,0.51806 -79.914629,80.43268 -80.43268,80.43268 -0.217562,0 -18.40421,-18.00864 -40.414776,-40.01921 z m 46.446019,26.98848 -0.07877,-1.65364 -2.84427,-0.0751 c -3.505812,-0.0926 -3.588015,-0.29433 -0.926042,-2.27298 2.332323,-1.73362 2.961492,-2.39398 3.4931,-3.66631 0.790306,-1.89146 0.267653,-4.61423 -1.123113,-5.85087 -1.476278,-1.31268 -4.551667,-1.60795 -6.425698,-0.61694 -1.458672,0.77137 -2.625018,2.80996 -2.625018,4.58812 v 1.17361 l 1.500079,-0.0794 1.500076,-0.0793 0.285861,-1.16583 c 0.336844,-1.37378 1.365173,-2.29642 2.24739,-2.01642 1.567582,0.49753 2.074283,2.36912 1.077872,3.98135 -0.292856,0.47385 -1.416129,1.52665 -2.496161,2.33955 -2.115576,1.59231 -3.387108,3.19498 -4.028659,5.07782 -0.684898,2.01007 -0.790874,1.96999 5.209529,1.96999 h 5.312595 z M -1.6178983,98.56984 V 96.320882 H -20.403315 -39.188732 l -0.07857,1.959615 c -0.04321,1.077786 -0.01688,2.120383 0.05853,2.316883 0.113662,0.2962 3.337983,0.34565 18.863987,0.28934 l 18.7268937,-0.0679 z M -22.950961,91.962885 c -2.698613,-0.543197 -4.707586,-1.66002 -6.766666,-3.761706 -1.190112,-1.214736 -2.72423,-3.872822 -2.72423,-4.720132 0,-0.425445 0.769417,-0.290586 1.532067,0.268526 0.669677,0.49095 4.693087,1.274974 4.994757,0.973307 0.06827,-0.06827 -0.292367,-0.703842 -0.80141,-1.412389 -1.566619,-2.180619 -2.814997,-5.064741 -2.814997,-6.503468 0,-1.816225 0.515371,-1.887371 1.968021,-0.271675 1.025933,1.141085 4.234617,3.220048 4.523687,2.930978 0.05743,-0.05743 -0.02437,-0.931648 -0.181774,-1.942703 -0.412337,-2.648519 -0.161737,-4.385403 1.08145,-7.49544 0.603451,-1.50963 1.186881,-3.176505 1.296514,-3.704166 0.308597,-1.485292 1.021358,-1.276565 2.335596,0.683969 1.704338,2.542471 2.208475,4.161229 2.189901,7.031675 -0.0087,1.340609 -0.11488,3.032784 -0.236014,3.760388 -0.121131,0.727604 -0.165174,1.380918 -0.09787,1.451808 0.231023,0.24334 3.646466,-1.716698 4.771887,-2.738472 1.806517,-1.640139 2.3101488,-0.940302 1.630585,2.265829 -0.386392,1.822971 -0.980533,2.964367 -2.354104,4.522432 -0.614947,0.697545 -1.07365,1.305772 -1.019339,1.351614 0.05431,0.04584 0.53453,0.150508 1.067147,0.232595 0.735928,0.113416 1.360903,-0.03638 2.6034443,-0.624009 2.7862027,-1.317665 2.9497073,-1.064834 1.2145803,1.87811 -1.4752086,2.502093 -2.9763056,3.959955 -5.4657206,5.308291 l -1.966534,1.06513 3.042709,-0.155628 c 2.797254,-0.143073 3.1921129,-0.230849 4.8947913,-1.088117 3.3517787,-1.687563 4.9324578,-2.920992 6.4533463,-5.035648 2.1035539,-2.924797 2.8795848,-5.575258 3.3546812,-11.457596 0.4383378,-5.427226 0.3249162,-6.294792 -0.2897214,-2.216058 -0.145796,0.967497 -0.3341529,1.217343 -1.46463546,1.942772 -0.71352569,0.457867 -1.77570074,0.896652 -2.36039024,0.975075 -0.9337225,0.12524 -1.063072,0.07831 -1.063072,-0.385734 0,-0.290578 0.2458667,-0.840893 0.5463725,-1.222922 0.3005032,-0.38203 1.0213684,-2.094728 1.6019171,-3.805995 0.95570149,-2.817079 1.03914049,-3.274073 0.8820997,-4.831186 -0.18013892,-1.786128 -1.3259118,-5.821034 -1.6528389,-5.820563 -0.1028091,1.48e-4 -0.5334635,0.625226 -0.9570085,1.389063 -1.4998885,2.704949 -3.2738086,4.692168 -4.1908544,4.694769 -0.5738733,0.0016 -0.5968207,-0.672169 -0.066146,-1.942251 0.4555437,-1.090268 0.5168398,-4.367993 0.1473359,-7.878551 -0.2002843,-1.902843 -0.4367795,-2.671299 -1.4249532,-4.630208 -1.3474329,-2.67108 -1.3767249,-2.648664 -1.5983959,1.223158 -0.144883,2.530592 -1.139123,5.891808 -1.920978,6.494225 -0.637706,0.491352 -1.578033,0.747051 -1.935289,0.526253 -0.173734,-0.107373 -0.219358,-0.694446 -0.120169,-1.546262 0.272413,-2.339462 -0.273402,-4.163004 -3.076146,-10.277279 -2.064544,-4.503862 -2.800623,-6.42616 -3.290329,-8.59281 -0.346956,-1.535067 -0.681607,-2.84181 -0.743667,-2.90387 -0.06206,-0.06206 -0.44218,0.752258 -0.844706,1.809596 -0.661715,1.738162 -0.753322,2.404316 -0.955683,6.949522 -0.354606,7.964773 -1.361869,12.832292 -2.655459,12.832292 -0.55318,0 -1.393058,-1.463157 -1.670632,-2.910417 -0.09769,-0.509323 -0.485863,-1.801251 -0.862616,-2.870954 -0.631841,-1.793968 -0.794118,-2.014712 -2.090928,-2.844271 -0.773258,-0.494646 -1.515391,-0.899358 -1.649185,-0.899358 -0.133795,0 -0.228812,0.982265 -0.211148,2.182812 0.01767,1.200547 -0.197268,3.811551 -0.477626,5.802231 -0.447442,3.177056 -0.466487,3.799726 -0.155824,5.094713 0.194654,0.811411 0.270397,1.558814 0.168318,1.660896 -0.388046,0.388043 -1.668743,-0.724998 -2.942336,-2.557164 -1.199992,-1.726282 -2.906549,-3.412011 -3.178675,-3.139882 -0.05941,0.05941 -0.01514,0.977165 0.09837,2.039467 0.127027,1.188842 0.09389,2.608527 -0.0862,3.692424 -0.513032,3.087881 0.344327,7.2882 2.020981,9.901034 1.007234,1.569641 0.805135,1.898952 -1.005369,1.638202 -1.205357,-0.173593 -1.481172,-0.378714 -4.265253,-3.172002 -1.63711,-1.642523 -2.976563,-2.833037 -2.976563,-2.645585 0,0.18745 0.842299,3.765476 1.871777,7.951169 2.298686,9.346102 2.68384,10.11655 6.204622,12.411509 3.683696,2.401154 8.228158,3.501588 14.545476,3.522159 l 1.852084,0.006 z"
         id="path8641" />
      <path
         style="fill:#f8b5b1;stroke-width:0.264583"
         d="m -68.794114,150.72071 -47.331916,-47.33247 0.55006,-0.75555 c 1.04365,-1.43354 93.854207,-94.0211829 94.247553,-94.0211829 0.516599,0 94.719894,94.2049529 94.719894,94.7215629 0,0.43076 -94.160941,94.7201 -94.591119,94.7201 -0.144407,0 -21.561922,-21.29961 -47.594472,-47.33246 z M 20.871791,145.1364 62.675434,103.33213 20.673978,61.330676 -21.327478,19.329219 -63.132584,61.131196 c -22.992808,22.99109 -41.805106,41.980944 -41.805106,42.199684 0,0.51987 83.088475,83.60979 83.608333,83.60979 0.218626,0 19.2091419,-18.81192 42.201148,-41.80427 z m -82.351997,-1.65386 c -22.009846,-22.01021 -40.017904,-40.13654 -40.017904,-40.28075 0,-0.43147 79.735712,-80.0382 80.167883,-80.0382 0.519903,0 80.16962,79.6495 80.16962,80.16941 0,0.43274 -79.605076,80.16809 -80.037114,80.16809 -0.145521,0 -18.272638,-18.00835 -40.282485,-40.01855 z m 46.446792,27.2524 0.07824,-1.78593 h -2.50399 c -2.521217,0 -3.341021,-0.13351 -3.341021,-0.54411 0,-0.1226 0.744141,-0.75568 1.653646,-1.40684 3.073003,-2.20014 4.1729,-3.79768 4.161377,-6.0442 -0.01246,-2.43063 -1.58137,-4.36571 -4.040793,-4.9839 -3.714301,-0.9336 -6.832325,1.3223 -6.904215,4.99522 l -0.02939,1.50154 1.562957,0.0806 c 1.697887,0.0875 1.997872,-0.10722 2.004867,-1.30168 0.0054,-0.92087 0.953278,-2.08621 1.696927,-2.08621 0.625385,0 1.543759,0.84126 1.845378,1.69042 0.342371,0.96389 -0.812313,2.69802 -2.755905,4.13887 -2.105107,1.56058 -2.946146,2.48763 -3.807113,4.19645 -0.847768,1.68263 -1.097603,2.94263 -0.641538,3.23549 0.197456,0.12679 2.74026,0.20122 5.650677,0.16538 l 5.291667,-0.0651 z m 13.4948907,-69.83677 c 0.458462,-0.45846 0.4236376,-4.292117 -0.042505,-4.67898 -0.2616888,-0.217181 -5.4461543,-0.280223 -18.9838547,-0.230834 l -18.623849,0.06794 -0.07756,2.226842 c -0.04266,1.224764 -0.01662,2.385622 0.05784,2.579692 0.188751,0.49187 37.178689,0.52658 37.669925,0.0353 z M -18.450711,92.62904 c -0.06598,-0.06598 -1.544341,-0.373841 -3.285244,-0.684131 -3.665606,-0.653338 -5.049737,-1.296408 -7.337486,-3.409003 -1.417968,-1.309404 -2.474963,-2.901817 -2.955105,-4.452003 -0.224033,-0.723315 0.248113,-0.797078 0.962681,-0.150405 0.419426,0.379574 3.564941,1.083905 5.040154,1.128572 0.693605,0.02101 0.57005,-0.394967 -0.568973,-1.915562 -1.437696,-1.919322 -2.672173,-4.765635 -2.672173,-6.161191 0,-0.626128 0.109734,-1.206232 0.243851,-1.289121 0.13412,-0.08289 0.797076,0.433599 1.47324,1.147757 1.306946,1.380382 4.26907,3.150082 4.637352,2.770553 0.121126,-0.124825 0.115332,-0.762738 -0.01289,-1.417582 -0.555643,-2.838043 -0.337711,-4.540692 1.066766,-8.334375 0.727604,-1.96536 1.322917,-3.760364 1.322917,-3.988904 0,-1.428183 2.410333,1.426213 3.480051,4.121195 0.469157,1.18196 0.571818,1.952025 0.546732,4.101042 -0.01699,1.455208 -0.145883,3.239209 -0.286437,3.964445 -0.140552,0.725239 -0.19711,1.413174 -0.125683,1.528747 0.192,0.310663 4.042119,-1.855306 5.127742,-2.884723 1.415396,-1.342117 1.674182,-1.204987 1.513099,0.801788 -0.170699,2.126546 -1.074119,4.118793 -2.666474,5.880174 -0.672703,0.744112 -1.147307,1.428721 -1.054674,1.521354 0.410573,0.410575 2.795466,0.131056 4.2066476,-0.493035 2.3929499,-1.058275 2.4439536,-0.951656 0.834517,1.744483 -1.3748386,2.303142 -3.3277046,4.044111 -6.1515626,5.484085 l -2.116667,1.079354 1.322917,0.0061 c 0.727604,0.0033 2.405269,-0.09873 3.728146,-0.226798 1.969151,-0.190635 2.7606571,-0.411528 4.3656249,-1.218356 4.6074912,-2.316213 6.93072341,-4.907158 8.41292454,-9.382369 C 1.3193259,79.733118 1.4905801,78.652809 1.8469289,74.043349 2.1392353,70.2623 2.1789704,68.559738 1.9827766,68.222516 1.7694245,67.855801 1.7031861,67.837409 1.6955581,68.142757 c -0.00545,0.218281 -0.1769507,1.509252 -0.3811005,2.868822 -0.39372912,2.622097 -0.45691691,2.723583 -2.3733549,3.811907 -0.9815247,0.557398 -2.2788033,0.615366 -2.2788033,0.101828 0,-0.198657 0.2172071,-0.645142 0.4826847,-0.992188 0.2654776,-0.347046 0.9887479,-2.07323 1.607267,-3.835963 l 1.12457971,-3.204967 -0.31889171,-2.218992 c -0.32660695,-2.272686 -1.2877403,-5.298995 -1.7297109,-5.446318 -0.1359085,-0.0453 -0.6547882,0.602782 -1.1530647,1.440188 -1.8859686,3.169574 -3.6119277,5.023146 -4.163613,4.471461 -0.100539,-0.100536 0.018944,-0.745638 0.2654935,-1.433557 0.5184378,-1.446483 0.5699998,-3.819621 0.1680818,-7.736208 -0.2440887,-2.378562 -0.4188195,-2.986252 -1.4476862,-5.034852 -0.643554,-1.28139 -1.2759214,-2.395204 -1.4052629,-2.475142 -0.2417317,-0.149402 -0.5736167,2.260293 -0.5736167,4.16487 0,0.589608 -0.299223,2.053013 -0.66494,3.252014 -0.690354,2.263312 -1.485257,3.271264 -2.579828,3.271264 -0.48052,0 -0.511826,-0.1187 -0.351012,-1.330973 0.306065,-2.307231 -0.24779,-4.171612 -3.124261,-10.516841 -2.204056,-4.861941 -2.842178,-6.557534 -3.336861,-8.866553 -0.33641,-1.570244 -0.70026,-2.909753 -0.808559,-2.976684 -0.108297,-0.06693 -0.579649,0.920157 -1.047446,2.193533 -0.799856,2.177262 -0.863428,2.614793 -1.066829,7.342309 -0.118957,2.764896 -0.387027,6.162673 -0.595709,7.550616 -0.386231,2.568821 -1.240431,4.752509 -1.859053,4.752509 -0.470035,0 -1.149448,-1.510167 -1.638734,-3.642492 -0.663982,-2.893666 -1.554787,-4.231574 -3.538283,-5.314188 l -1.69381,-0.924499 0.209915,1.434859 c 0.281673,1.925363 0.288177,1.784295 -0.252902,5.48703 -0.317439,2.172314 -0.432628,4.090479 -0.34558,5.754687 0.07181,1.37295 0.0798,2.49627 0.01775,2.49627 -0.505318,0 -1.330233,-0.840369 -2.441583,-2.487319 -1.187551,-1.759873 -3.302768,-3.840805 -3.600969,-3.542601 -0.06561,0.06561 0.0013,1.062228 0.148495,2.214708 0.19422,1.519753 0.18066,2.617433 -0.04935,3.995536 -0.512929,3.073175 0.407257,7.695097 1.998136,10.036286 0.746649,1.098794 0.693489,1.425057 -0.232191,1.425057 -1.268732,0 -2.15012,-0.616823 -4.968197,-3.476911 -1.583174,-1.606772 -2.951658,-2.848247 -3.041074,-2.758832 -0.08942,0.08942 0.700048,3.701931 1.754368,8.027805 2.329966,9.559859 2.829777,10.63111 5.934292,12.718979 2.575951,1.732399 2.762038,1.82055 5.695971,2.698202 1.615445,0.483243 3.634761,0.853001 5.470948,1.001792 3.208465,0.259988 8.22669,0.3785 8.038021,0.189831 z"
         id="path8639" />
      <path
         style="fill:#f4938d;stroke-width:0.264583"
         d="M -68.822158,150.69266 -116.18211,103.33216 -68.755734,55.905778 -21.329357,8.4794 26.097021,55.905778 73.523398,103.33216 26.163444,150.69266 c -26.0479749,26.04828 -47.419736,47.36051 -47.492801,47.36051 -0.07306,0 -21.444825,-21.31223 -47.492801,-47.36051 z m 89.495093,-5.3574 c 23.028844,-23.0285 41.870625,-41.98906 41.870625,-42.13458 0,-0.34638 -83.394256,-83.741256 -83.740625,-83.741256 -0.145865,0 -19.136334,18.871406 -42.201042,41.936458 l -41.935833,41.936458 41.935833,41.93646 c 23.064708,23.06505 41.995366,41.93646 42.068126,41.93646 0.07276,0 18.9740724,-18.8415 42.002916,-41.87 z m -82.153143,-1.85273 c -21.864323,-21.86468 -39.753312,-39.93256 -39.753312,-40.15085 0,-0.21828 17.961871,-18.358449 39.915271,-40.311489 35.04891,-35.048333 39.976211,-39.880817 40.415104,-39.637377 0.711716,0.394769 79.742538,79.502006 79.742538,79.819646 0,0.43088 -79.737802,80.03405 -80.169406,80.03405 -0.218284,0 -18.28587,-17.88929 -40.150195,-39.75398 z m 46.71577,27.73297 c 0.160671,-2.5383 0.169225,-2.53108 -2.998084,-2.53108 -1.612119,0 -2.773085,-0.10727 -2.773085,-0.25623 0,-0.14093 0.68461,-0.75329 1.521355,-1.36079 3.287818,-2.38705 4.034895,-3.50833 4.034895,-6.05589 0,-3.08325 -1.7688,-5.0239 -4.777367,-5.24152 -2.241915,-0.16216 -3.317684,0.11911 -4.483377,1.17225 -1.146321,1.03563 -1.814957,2.54771 -1.916417,4.33385 l -0.06763,1.19063 h 1.84024 1.840241 l 0.217133,-1.04508 c 0.119425,-0.57479 0.411096,-1.2594 0.648163,-1.52135 0.605618,-0.6692 1.81212,-0.61104 2.318387,0.11176 0.872525,1.2457 0.224142,2.98096 -1.616117,4.32521 -3.146163,2.29817 -5.379633,5.39555 -5.38013,7.46118 l -2.09e-4,0.86505 5.754687,-0.0713 5.754688,-0.0713 z M -1.353315,98.56984 v -2.513541 h -19.05 -19.05 l -0.07756,2.226842 c -0.04266,1.224764 -0.01632,2.386409 0.05851,2.581439 0.112331,0.29273 3.449619,0.34275 19.127557,0.2867 l 18.991485,-0.0679 z m -11.845102,-5.845008 c 3.04751,-0.260474 3.5598522,-0.38086 5.2305187,-1.229032 4.8374829,-2.455915 7.24355609,-5.063865 8.66019876,-9.386808 C 1.5571546,79.46985 2.1851828,74.14682 2.2074105,69.267236 2.2198194,66.541298 1.8268867,65.9922 1.5447245,68.341195 c -0.10051,0.836744 -0.3174365,2.35032 -0.4820576,3.363499 -0.291936,1.796725 -0.32954388,1.860799 -1.52532032,2.598746 -0.82954018,0.511932 -1.49449368,0.729046 -2.05625698,0.671396 l -0.8302519,-0.0852 0.6293961,-0.926042 c 0.3461676,-0.509322 1.0876915,-2.320996 1.6478329,-4.025937 l 1.01843684,-3.099898 -0.30372314,-2.32406 c -0.30043173,-2.298882 -1.3006758,-5.380104 -1.8006166,-5.546751 -0.1421738,-0.04739 -0.8269658,0.862425 -1.5217616,2.021813 -1.4117241,2.355707 -2.8165875,3.979 -3.4435865,3.979 -0.3773011,0 -0.3769122,-0.113892 0.00421,-1.232429 0.3452124,-1.013143 0.3924459,-2.007603 0.2654697,-5.588995 l -0.1544616,-4.35657 -1.2576836,-2.622277 c -0.6917241,-1.442254 -1.408819,-2.747714 -1.5935458,-2.901024 -0.4289824,-0.356023 -0.5403504,0.162261 -0.7460954,3.472124 -0.210656,3.388884 -1.205667,6.467584 -2.267781,7.016825 -0.416402,0.215331 -0.82254,0.391509 -0.902526,0.391509 -0.07999,0 -0.148341,-0.863203 -0.1519,-1.918229 -0.0095,-2.811865 -0.277164,-3.656037 -3.164067,-9.978247 -2.101382,-4.601943 -2.759784,-6.347138 -3.303855,-8.757338 -0.373716,-1.655533 -0.782143,-3.11272 -0.907619,-3.238196 -0.308345,-0.308346 -1.718431,3.46969 -2.141138,5.736733 -0.204562,1.097095 -0.277346,2.626683 -0.183131,3.848473 0.301334,3.907517 -1.227095,12.45472 -2.22717,12.45472 -0.343109,0 -1.226873,-1.873125 -1.441394,-3.055014 -0.333545,-1.837623 -1.217822,-3.931502 -2.017837,-4.778031 -0.776891,-0.822063 -3.268668,-2.168795 -3.52974,-1.907722 -0.0762,0.0762 -0.0074,0.750255 0.152979,1.497896 0.24016,1.119822 0.188873,2.070703 -0.291055,5.396423 -0.405915,2.812844 -0.533797,4.618771 -0.421706,5.955303 0.08848,1.055026 0.06408,1.918229 -0.05421,1.918229 -0.310936,0 -1.158949,-0.987446 -2.206297,-2.569062 -0.842306,-1.271979 -3.094106,-3.516355 -3.527986,-3.516355 -0.102507,0 -0.103327,1.16086 -0.0019,2.579688 0.114435,1.599541 0.07127,3.204236 -0.113604,4.223459 -0.488577,2.693577 0.618593,7.906549 2.071568,9.753706 0.790374,1.004794 0.711222,1.17023 -0.5599,1.17023 -1.080217,0 -1.232903,-0.11358 -4.26815,-3.175 -2.881752,-2.906633 -3.607358,-3.507816 -3.607358,-2.98882 0,0.102399 0.84678,3.704039 1.881735,8.003646 1.638784,6.808139 2.023091,8.070858 2.976562,9.780045 0.998982,1.790771 1.299962,2.097627 3.438089,3.505205 3.062412,2.016059 6.265405,3.055842 10.48903,3.405037 6.795154,0.561803 9.319599,0.604432 13.68719,0.231129 z m -8.586772,-0.909061 c -3.80284,-0.714015 -5.271098,-1.444378 -7.535989,-3.748677 -1.356588,-1.380194 -2.84235,-3.886692 -2.504284,-4.224758 0.0723,-0.07229 0.437226,0.06891 0.810961,0.313793 0.804294,0.526994 5.395058,1.225841 5.623586,0.856073 0.08426,-0.136332 -0.222427,-0.743276 -0.681527,-1.348764 -0.459097,-0.605489 -1.366686,-2.165935 -2.016865,-3.467656 -0.981033,-1.964124 -1.153277,-2.526771 -1.012455,-3.307292 0.09333,-0.517289 0.200668,-0.977378 0.238533,-1.022418 0.03786,-0.04504 0.661352,0.510614 1.38553,1.234789 1.287248,1.287251 3.595275,2.683563 4.435776,2.683563 0.366811,0 0.39378,-0.249648 0.207233,-1.918229 -0.361498,-3.233428 -0.21576,-4.639649 0.719801,-6.945313 0.472382,-1.164167 1.067078,-2.77151 1.321552,-3.571875 0.262498,-0.825614 0.618667,-1.455208 0.823224,-1.455208 0.569913,0 2.28718,2.746481 2.871155,4.591934 0.601229,1.899972 0.664824,3.730421 0.239427,6.891377 -0.160972,1.196107 -0.212111,2.255308 -0.113641,2.353775 0.249552,0.249553 3.933939,-1.745593 5.186286,-2.808443 0.56874,-0.482685 1.134067,-0.815811 1.256281,-0.740278 0.122214,0.07553 0.127548,0.923597 0.01185,1.884587 -0.240813,2.000285 -1.064376,3.690004 -2.615956,5.367192 -0.577996,0.624788 -1.050901,1.234983 -1.050901,1.35599 0,0.229828 1.271899,0.550741 2.182799,0.550741 0.291036,0 1.231127,-0.315026 2.0890918,-0.700059 0.857967,-0.385032 1.6306826,-0.629311 1.7171511,-0.542843 0.313936,0.313936 -1.7540288,3.525481 -3.1265869,4.855576 -1.573625,1.524947 -5.329385,3.549163 -6.494602,3.50035 -0.403413,-0.01691 -2.188758,-0.303967 -3.967435,-0.637927 z"
         id="path8637" />
      <path
         style="fill:#f3837c;stroke-width:0.264583"
         d="M -68.691795,150.64879 -115.92194,103.3318 -68.559601,55.971646 -21.197261,8.6114963 26.097113,55.905871 73.391487,103.20024 25.967216,150.62671 c -26.08334992,26.08456 -47.425306,47.4068 -47.426568,47.38277 -0.0013,-0.024 -21.255863,-21.33634 -47.232443,-47.36069 z m 89.629314,-5.31353 c 23.028843,-23.0285 41.870624,-41.98622 41.870624,-42.12826 0,-0.32363 -16.06633,-16.426686 -54.3223288,-54.446517 L -21.362559,19.096376 -63.282415,61.015607 c -23.055921,23.055577 -41.919855,42.097823 -41.919855,42.316103 0,0.51892 83.35338,83.87355 83.872286,83.87355 0.218284,0 19.2386588,-18.8415 42.267503,-41.87 z m -82.351251,-2.05084 -39.951428,-39.95208 39.951428,-39.952083 c 21.973284,-21.973646 40.070786,-39.952083 40.216667,-39.952083 0.432459,0 79.771875,79.471646 79.771875,79.904826 0,0.43274 -79.340498,79.90351 -79.772531,79.90351 -0.145521,0 -18.242727,-17.97844 -40.216011,-39.95209 z m 46.381287,29.40716 c 0.241392,-0.15312 0.320196,-0.76264 0.264583,-2.04647 l -0.0792,-1.82839 -2.711979,-0.0754 c -1.922939,-0.0535 -2.706637,-0.16893 -2.69362,-0.39687 0.01011,-0.17681 0.952318,-1.00682 2.09382,-1.84447 1.621962,-1.19022 2.224984,-1.82306 2.759766,-2.89622 1.659292,-3.32977 -0.05271,-7.09783 -3.582903,-7.88585 -4.035666,-0.90087 -7.157694,1.44599 -7.21808,5.4259 l -0.02408,1.5875 h 1.845712 c 2.016398,0 1.957266,0.0511 2.385172,-2.05952 0.180649,-0.89104 1.268433,-1.49441 1.941226,-1.07676 0.243361,0.15107 0.595181,0.58565 0.781823,0.96574 0.485817,0.98933 -0.09145,2.21231 -1.657771,3.51215 -3.677195,3.05156 -5.092898,4.90315 -5.527291,7.22908 -0.294481,1.57679 -0.153757,1.61621 5.753629,1.61172 2.92898,-0.002 5.480121,-0.10219 5.669203,-0.22213 z m 13.6602308,-71.6271 c 0.59021664,-0.59021 0.59021664,-4.399065 0,-4.989282 -0.3700383,-0.370041 -2.4485785,-0.415774 -18.8960678,-0.415774 -10.164162,0 -18.668627,0.07227 -18.898809,0.160599 -0.342276,0.131342 -0.418516,0.633415 -0.418516,2.756078 0,1.828819 0.09769,2.634899 0.330729,2.728929 0.181902,0.0734 8.686367,0.14285 18.89881,0.15434 16.5453956,0.0186 18.613371,-0.0244 18.9838538,-0.39489 z M -12.675627,92.756172 c 2.614292,-0.223626 3.1935368,-0.368549 4.8947917,-1.224645 4.8361045,-2.433598 7.02059442,-4.841666 8.57247622,-9.449856 C 1.5736831,79.759463 1.7221752,78.841449 2.0987672,74.000738 2.5020372,68.81709 2.4392939,65.429111 1.9492988,65.92983 1.8262861,66.055533 1.5091248,67.765726 1.2444965,69.730257 l -0.48114483,3.571875 -1.2866714,0.859896 c -1.13353847,0.757552 -2.54978697,1.147638 -2.54978697,0.702302 0,-0.08668 0.2181093,-0.473631 0.4846876,-0.859896 0.2665783,-0.386265 0.9910551,-2.147943 1.6099446,-3.914838 l 1.12525704,-3.212537 -0.30229175,-2.07913 c -0.32687419,-2.248217 -0.60930631,-3.29389 -1.37353149,-5.085345 -0.6004665,-1.407578 -0.8335539,-1.281617 -2.2217009,1.200621 -0.969862,1.734278 -3.1590589,4.274802 -3.4408322,3.993029 -0.084087,-0.08409 0.034264,-0.704118 0.2629985,-1.377845 0.4896247,-1.442151 0.524039,-3.475916 0.1259761,-7.444367 -0.2710577,-2.702268 -0.378595,-3.061483 -1.6536459,-5.523735 -0.7500567,-1.448432 -1.5004521,-2.674707 -1.6675469,-2.725055 -0.209553,-0.06314 -0.362757,0.877065 -0.493797,3.030387 -0.295585,4.8572 -1.47615,8.016721 -2.995473,8.016721 -0.285879,0 -0.328464,-0.263943 -0.190754,-1.182269 0.312637,-2.084808 -0.334547,-4.218424 -3.172621,-10.459397 -2.208943,-4.857504 -2.818598,-6.479143 -3.312591,-8.811279 -0.863553,-4.076792 -1.041167,-4.208314 -2.072296,-1.534506 -1.114232,2.889303 -1.349283,4.269557 -1.349283,7.923236 0,5.416341 -1.192231,12.212132 -2.142453,12.212132 -0.370853,0 -1.010139,-1.458039 -1.426551,-3.253581 -0.50092,-2.159918 -1.267383,-3.886891 -2.039668,-4.59572 -0.741203,-0.680302 -3.383962,-2.031675 -3.583312,-1.832324 -0.07894,0.07894 -0.02283,0.890619 0.124716,1.803725 0.207539,1.284438 0.177721,2.13926 -0.131744,3.776858 -0.219998,1.164167 -0.41311,3.693904 -0.429138,5.62164 -0.01603,1.927733 -0.04917,3.505311 -0.07365,3.505729 -0.449561,0.0076 -1.051933,-0.607402 -1.79845,-1.836301 -1.016833,-1.673889 -3.322013,-3.983776 -3.975655,-3.983776 -0.421365,0 -0.415965,0.767347 0.02572,3.652832 0.07364,0.48109 -0.01365,1.75286 -0.194011,2.826158 -0.260339,1.549365 -0.260665,2.390677 -0.0016,4.083156 0.380788,2.487469 1.149035,4.882107 1.892022,5.897454 0.716346,0.978945 0.659892,1.267483 -0.248002,1.267483 -0.928029,0 -3.27919,-1.924788 -5.792631,-4.742161 -0.918737,-1.029832 -1.78194,-1.872422 -1.918229,-1.872422 -0.470848,0 -0.246105,1.221261 1.648909,8.960332 1.611757,6.582269 2.049034,8.01202 2.86122,9.355232 1.255393,2.076196 1.679073,2.481345 4.152728,3.971089 3.132289,1.886403 6.362613,2.75123 11.59455,3.104108 7.57455,0.510881 6.722541,0.509762 12.490188,0.0164 z m -8.521438,-0.953169 c -1.891771,-0.344506 -3.915833,-0.838137 -4.497917,-1.096958 -0.582083,-0.258818 -1.961814,-1.331184 -3.066068,-2.383038 -2.475606,-2.358126 -3.917638,-5.140198 -2.050116,-3.955233 0.511638,0.324642 4.124963,0.9729 5.422836,0.9729 0.583722,0 0.411962,-0.476171 -0.705757,-1.956578 -1.529866,-2.026296 -2.908186,-4.989632 -2.908186,-6.252498 0,-0.578239 0.07779,-1.051341 0.172873,-1.051341 0.09508,0 0.797491,0.590738 1.560915,1.312754 1.544505,1.460728 4.204277,2.916603 4.589147,2.511952 0.140238,-0.147442 0.147426,-0.80427 0.01725,-1.575748 -0.531183,-3.147994 -0.340066,-4.662892 1.068147,-8.466666 0.727604,-1.96536 1.322917,-3.712858 1.322917,-3.883332 0,-0.514419 1.138332,0.72032 2.0419,2.21483 1.431306,2.367399 1.769354,4.257847 1.400731,7.833246 -0.172342,1.671579 -0.37071,3.188718 -0.44082,3.371419 -0.299299,0.779965 0.588463,0.610986 2.625582,-0.499761 1.197798,-0.653106 2.46646,-1.49496 2.819247,-1.870787 1.072438,-1.142476 1.441151,-0.917567 1.266703,0.772671 -0.199247,1.930505 -1.150141,3.922524 -2.680687,5.615741 -0.687668,0.760757 -1.175091,1.504897 -1.083159,1.653646 0.327737,0.530289 3.1081,0.298117 4.5676902,-0.381418 0.7639843,-0.355687 1.3890625,-0.528376 1.3890625,-0.383752 0,0.690351 -1.2888463,2.644707 -2.7483777,4.167526 -1.498119,1.563085 -4.37279,3.357505 -6.115164,3.817192 -0.291042,0.07679 -2.076979,-0.142259 -3.968749,-0.486767 z"
         id="path8635" />
      <path
         style="fill:#f17169;stroke-width:0.264583"
         d="m -68.62372,150.6267 -47.29656,-47.29656 47.295822,-47.293639 47.295826,-47.2936386 47.294377,47.2943766 47.294377,47.294381 -47.293639,47.29582 -47.293638,47.29583 z m 89.428365,-4.89488 c 22.959417,-22.95591 41.815922,-41.96278 41.90334,-42.23748 0.126418,-0.39725 -8.41584,-9.074375 -41.740447,-42.39948 -23.0446657,-23.04501 -42.07723,-41.90002 -42.294585,-41.90002 -0.394139,0 -82.621493,82.00347 -83.665633,83.43783 l -0.54999,0.75553 42.040201,42.04082 c 23.122107,23.12245 42.157764,42.04082 42.301456,42.04082 0.143696,0 19.0462407,-18.78211 42.005658,-41.73802 z m -81.952806,-2.18271 c -21.901428,-21.89962 -39.820779,-39.99677 -39.820779,-40.2159 0,-0.21912 17.918957,-18.317064 39.819903,-40.217647 l 39.8199,-39.819242 40.018009,40.01801 40.01801,40.018009 -40.017134,40.01713 -40.017134,40.01714 z m 46.37823,27.19363 c 0.09025,-2.39008 0.243007,-2.28123 -3.352451,-2.38884 l -2.216983,-0.0663 1.945259,-1.45521 c 1.06989,-0.80036 2.305658,-1.97148 2.74615,-2.60248 0.723598,-1.03655 0.800891,-1.34483 0.800891,-3.19432 0,-1.80157 -0.0893,-2.18199 -0.744635,-3.17227 -0.983607,-1.48633 -2.894449,-2.40184 -5.020594,-2.40543 -3.440353,-0.006 -5.943888,2.70545 -5.692444,6.16474 l 0.08059,1.10872 1.828398,0.0792 c 1.979199,0.0857 2.261422,-0.076 2.268593,-1.30029 0.0047,-0.79496 0.919741,-2.0862 1.478462,-2.0862 0.650071,0 1.436005,1.01875 1.436005,1.86139 0,1.12999 -0.596141,1.9157 -2.684854,3.53864 -2.682801,2.08454 -4.19332,4.16006 -4.59817,6.31809 -0.346289,1.84588 -0.524282,1.79404 5.887643,1.71466 l 5.761006,-0.0713 z M -1.27394,101.16276 c 0.42880756,-0.42881 0.42880756,-4.757029 0,-5.185836 -0.4593616,-0.459362 -37.799388,-0.459362 -38.25875,0 -0.428808,0.428807 -0.428808,4.757026 0,5.185836 0.459362,0.45936 37.7993884,0.45936 38.25875,0 z m -11.985228,-8.242716 c 3.5395507,-0.325257 3.7988292,-0.389898 5.8208332,-1.451192 3.0905106,-1.622123 4.4578852,-2.725113 6.042279,-4.873992 2.14949353,-2.915312 3.0101011,-5.736596 3.4898674,-11.440645 0.3942212,-4.68699 0.4499293,-8.170481 0.1523286,-9.525 -0.2536878,-1.154639 -0.4603274,-0.452527 -0.9528863,3.237649 -0.60290077,4.516852 -0.57804052,4.441552 -1.71467994,5.193744 -1.92176136,1.271759 -2.89255996,1.188241 -2.00475846,-0.172471 0.2102881,-0.322303 0.8792024,-1.955224 1.48647675,-3.628713 L 0.1644276,67.216715 -0.12753746,64.794937 c -0.31353919,-2.600714 -1.47686444,-6.17718 -2.00926704,-6.17718 -0.1789191,0 -0.9299019,0.982266 -1.6688514,2.182813 -1.5932785,2.588548 -2.8394925,4.113953 -3.1288461,3.829809 -0.1148662,-0.1128 -0.06695,-0.597503 0.1064816,-1.077119 0.3830558,-1.05932 0.4059608,-5.032695 0.047067,-8.164875 -0.2328254,-2.031949 -0.4391184,-2.634345 -1.7509172,-5.112848 -0.8687091,-1.641335 -1.5848994,-2.711616 -1.7224534,-2.574062 -0.129503,0.129503 -0.338035,1.609817 -0.463405,3.289586 -0.29814,3.994676 -1.156803,6.983407 -2.154565,7.499371 -0.39438,0.203943 -0.776529,0.311332 -0.849218,0.238643 -0.07269,-0.07269 -0.0723,-0.663273 7.94e-4,-1.31241 0.23636,-2.096989 -0.407538,-4.171624 -3.137575,-10.109216 -2.247341,-4.887947 -2.756601,-6.253752 -3.379033,-9.062609 -0.511662,-2.308987 -0.844666,-3.307291 -1.103212,-3.307291 -0.22303,0 -0.729663,0.947137 -1.273752,2.38125 -0.861338,2.270329 -0.913643,2.609254 -1.12287,7.276041 -0.120698,2.692136 -0.38825,6.085417 -0.594559,7.540625 -0.351978,2.482655 -1.065212,4.630209 -1.537763,4.630209 -0.343178,0 -0.995815,-1.466758 -1.315128,-2.955658 -0.424492,-1.979335 -1.194268,-3.659473 -2.113415,-4.612804 -0.954979,-0.990497 -3.317679,-2.158788 -3.651924,-1.805781 -0.134573,0.142126 -0.11566,0.877922 0.04476,1.741426 0.227279,1.223413 0.169391,2.256539 -0.31836,5.681711 -0.409403,2.874983 -0.540295,4.680084 -0.417849,5.762376 0.167111,1.477068 0.149363,1.552218 -0.282802,1.197454 -0.253606,-0.208182 -0.887029,-1.048679 -1.407607,-1.867768 -0.943285,-1.484183 -3.409379,-3.934706 -3.95971,-3.934706 -0.202244,0 -0.242268,0.937916 -0.13267,3.108854 0.09121,1.80667 0.04292,3.59641 -0.115279,4.272851 -0.488995,2.090836 0.759603,7.812858 2.067716,9.475857 0.691666,0.879311 0.386911,1.197504 -0.826137,0.862565 -0.693248,-0.191415 -1.775039,-1.113237 -4.05705,-3.457117 -2.007309,-2.061731 -3.202699,-3.105145 -3.368021,-2.939822 -0.165322,0.165322 0.458809,3.194772 1.758492,8.535495 1.846117,7.586144 2.10979,8.435903 3.149775,10.151033 1.006303,1.659583 1.404599,2.044113 3.512719,3.391305 3.178514,2.031222 6.372482,3.00428 11.077827,3.374919 7.075641,0.557345 8.559093,0.577046 12.96498,0.17218 z m -8.77189,-1.36136 c -3.662942,-0.697627 -5.044258,-1.418548 -7.419446,-3.872262 -1.657612,-1.712415 -2.616303,-3.784645 -1.469998,-3.177432 0.534376,0.283068 3.883906,0.831684 5.077764,0.831684 0.445069,0 0.809215,-0.127492 0.809215,-0.283319 0,-0.155823 -0.538049,-1.037322 -1.195663,-1.958885 -2.783136,-3.900217 -3.878887,-8.488074 -1.395434,-5.842614 1.096293,1.167808 3.808352,2.793151 4.66067,2.793151 0.59899,0 0.633553,-0.07149 0.479719,-0.992187 -0.09118,-0.545703 -0.239038,-1.944688 -0.328578,-3.108855 -0.159343,-2.071679 -0.134062,-2.194001 1.189492,-5.755438 0.743763,-2.001327 1.352294,-3.757499 1.352294,-3.902605 0,-1.196019 2.320808,2.060647 3.064843,4.300731 0.372547,1.12163 0.419616,1.908006 0.272185,4.547354 -0.09804,1.755167 -0.24765,3.578162 -0.332465,4.051104 -0.123171,0.686832 -0.06578,0.859896 0.28516,0.859896 0.602157,0 4.286967,-2.048346 5.326113,-2.960727 0.465701,-0.408892 0.931481,-0.74344 1.035066,-0.74344 0.352467,0 -0.170456,2.773154 -0.778555,4.128834 -0.33323,0.742889 -1.226389,2.035908 -1.984801,2.873372 -0.75841,0.837462 -1.278914,1.617086 -1.156677,1.732492 0.122241,0.115409 0.817568,0.263419 1.545172,0.328911 1.014746,0.09134 1.678594,-0.03494 2.849769,-0.542112 0.8397692,-0.363657 1.588884,-0.599162 1.664703,-0.523346 0.2951877,0.295188 -1.766602,3.330789 -3.15259,4.641596 -1.631952,1.543434 -5.011137,3.250533 -6.35585,3.210856 -0.454776,-0.01341 -2.273726,-0.299961 -4.042108,-0.636759 z"
         id="path8633" />
      <path
         style="fill:#ef5349;stroke-width:0.264583"
         d="M -68.558868,150.51615 -115.65609,103.3316 -68.627223,56.302283 C -42.761347,30.436158 -21.448538,9.2411827 -21.26542,9.2023372 c 0.431128,-0.091458 94.225515,93.7046228 94.094588,94.0962928 -0.07985,0.23888 -94.282937,94.59878 -94.289057,94.44602 -0.0011,-0.0242 -21.195509,-21.27699 -47.098979,-47.2285 z m 89.628678,-5.0486 c 23.101605,-23.10126 42.002917,-42.1186 42.002917,-42.26076 0,-0.32307 -16.778925,-17.139906 -54.850668,-54.974588 L -21.3609,18.833447 -63.413878,60.883318 c -23.129137,23.12743 -42.052982,42.228832 -42.052982,42.447572 0,0.51946 83.617436,84.13895 84.136879,84.13895 0.218284,0 19.2981897,-18.90103 42.399791,-42.00229 z m -82.35125,-2.31542 -39.81913,-39.81979 39.81913,-39.819791 c 21.900523,-21.900886 39.938492,-39.819792 40.084375,-39.819792 0.432459,0 79.507292,79.207063 79.507292,79.640243 0,0.43275 -79.075918,79.63892 -79.507951,79.63892 -0.145521,0 -18.183193,-17.9189 -40.083716,-39.81979 z m 46.698958,27.51667 v -2.11667 l -2.579687,-0.0757 c -1.418828,-0.0416 -2.579688,-0.1638 -2.579688,-0.27144 0,-0.10764 0.826276,-0.81405 1.836169,-1.56979 3.924842,-2.93714 4.562975,-6.76846 1.604682,-9.63443 -1.603081,-1.55305 -3.489484,-2.06103 -5.763702,-1.55208 -2.597483,0.58129 -4.556315,3.26393 -4.556315,6.23992 0,1.20035 0.481359,1.47885 2.396783,1.38666 1.80702,-0.087 1.852885,-0.12614 2.416353,-2.06374 0.287721,-0.9894 0.466412,-1.20451 1.057275,-1.27275 0.523957,-0.0605 0.827492,0.0956 1.153646,0.59338 0.846289,1.29161 0.325708,2.07239 -3.693107,5.53901 -1.684678,1.4532 -2.743427,3.08322 -3.235957,4.98197 -0.563237,2.17134 -0.82351,2.08377 5.954461,2.00338 l 5.989087,-0.071 z M -1.0887317,98.56984 V 95.791715 H -20.403315 -39.717898 l -0.07669,2.493693 c -0.04218,1.371531 -0.01585,2.652232 0.0585,2.846002 0.111192,0.28976 3.554172,0.34026 19.391271,0.28443 l 19.2560783,-0.0679 z M -12.61921,92.993329 c 2.617444,-0.245176 3.2721552,-0.408774 4.8947918,-1.223098 C -1.1842489,88.48803 1.487765,84.192118 2.1873048,75.834721 2.5463338,71.545373 2.5760676,64.791833 2.2368427,64.582182 1.8136046,64.320605 1.6849669,64.833195 1.10926,69.075321 l -0.55984777,4.125275 -1.13132658,0.778372 C -1.2041456,74.407072 -1.967786,74.75734 -2.2788989,74.75734 c -0.5642161,0 -0.5643589,-0.0019 -0.056118,-0.727604 0.2802441,-0.400182 1.0022232,-2.215885 1.60439368,-4.034896 L 0.36423035,66.687549 -0.01370577,64.358535 C -0.4451724,61.699648 -1.6300692,58.353174 -2.140043,58.353174 c -0.1889733,0 -0.8506142,0.863203 -1.4703134,1.918229 -1.2364693,2.10507 -2.8055622,4.167187 -3.1708672,4.167187 -0.1282091,0 -0.1035764,-0.371567 0.054737,-0.825706 0.1865816,-0.535231 0.2407656,-2.466597 0.1540219,-5.490104 l -0.1338236,-4.664398 -1.4825556,-2.955914 c -0.8154035,-1.625751 -1.5917916,-3.023426 -1.7253056,-3.105939 -0.5212715,-0.322164 -0.7741235,0.626404 -0.9458485,3.548311 -0.25899,4.406739 -1.400045,7.672917 -2.680573,7.672917 -0.100925,0 -0.108659,-0.468027 -0.0172,-1.040061 0.301625,-1.886262 -0.491133,-4.462859 -3.149685,-10.237012 -2.125577,-4.616572 -2.673834,-6.088973 -3.337642,-8.963552 -0.436853,-1.891771 -0.894154,-3.542318 -1.016222,-3.667884 -0.400121,-0.411584 -0.740833,0.06966 -1.550564,2.190128 -1.071203,2.805229 -1.363308,4.566031 -1.363308,8.218069 0,3.860822 -0.664334,9.031145 -1.360697,10.589895 l -0.531902,1.190625 -0.477536,-0.926041 c -0.262646,-0.509323 -0.566298,-1.461823 -0.67478,-2.116667 -0.247846,-1.496078 -1.298072,-3.900395 -2.061826,-4.720206 -0.31999,-0.343474 -1.281094,-0.978882 -2.135789,-1.412013 -1.983369,-1.005109 -2.222986,-0.818417 -1.808718,1.409206 0.251513,1.352433 0.228005,2.055704 -0.135035,4.040137 -0.241755,1.321467 -0.446633,3.786208 -0.455282,5.477206 -0.01048,2.049208 -0.109183,3.038885 -0.295965,2.96763 -0.154133,-0.0588 -0.66856,-0.747633 -1.143172,-1.530739 -0.849263,-1.401276 -3.716991,-4.379138 -4.217181,-4.379138 -0.469323,0 -0.536607,0.707658 -0.267187,2.810148 0.19403,1.514155 0.178967,2.666188 -0.05505,4.20969 -0.251362,1.657943 -0.252579,2.559391 -0.0055,4.101042 0.399021,2.49002 1.219057,5.060524 1.884124,5.906018 0.662879,0.842714 0.64615,0.964769 -0.132231,0.964769 -0.758049,0 -2.927297,-1.835668 -5.705707,-4.828304 -1.046883,-1.127599 -2.010865,-1.983775 -2.142189,-1.902614 -0.4558,0.281699 -0.228854,1.559505 1.637197,9.218099 1.733817,7.115877 1.968286,7.854527 3.094358,9.748155 1.119018,1.881765 1.41311,2.172317 3.605747,3.562316 3.212155,2.036313 6.703372,3.106049 11.267683,3.452508 4.693076,0.356232 9.956887,0.373486 13.472647,0.04416 z m -8.786598,-1.451756 c -2.216536,-0.407995 -3.823528,-0.862203 -4.658688,-1.316754 -1.602621,-0.872255 -4.698347,-3.981842 -4.93654,-4.958641 -0.168386,-0.690536 -0.140822,-0.720416 0.44663,-0.484135 0.852532,0.3429 5.208952,0.883706 5.528376,0.686292 0.446955,-0.276233 0.288552,-0.656135 -0.938451,-2.250715 -1.382895,-1.797177 -2.773209,-4.724543 -2.773209,-5.839111 0,-0.422997 0.05939,-0.769085 0.13199,-0.769085 0.07259,0 0.618231,0.471882 1.212527,1.048628 1.022969,0.992757 3.917413,2.655538 4.622559,2.655538 0.501214,0 0.616001,-0.583811 0.367705,-1.870183 -0.124476,-0.644887 -0.231505,-2.085112 -0.237842,-3.200498 -0.01019,-1.790994 0.127609,-2.383798 1.179103,-5.072994 0.654843,-1.674759 1.190625,-3.232719 1.190625,-3.462131 0,-1.424485 2.139479,1.540489 2.917026,4.042532 0.593447,1.90963 0.623242,3.106647 0.164174,6.5957 -0.177758,1.35101 -0.231789,2.601166 -0.120066,2.778125 0.256987,0.407045 4.394528,-1.716709 5.429906,-2.787113 1.02135,-1.055902 1.227987,-0.92134 1.061551,0.691274 -0.182779,1.770957 -1.109498,3.629023 -2.6827,5.378805 -1.31146,1.458658 -1.440694,1.789824 -0.795126,2.037551 0.756811,0.290417 3.033358,0.167714 3.761811,-0.202756 0.392957,-0.199848 0.9901268,-0.448461 1.3270472,-0.552479 l 0.6125818,-0.189121 -0.5828347,1.142449 c -0.3205586,0.628349 -1.3051423,1.89466 -2.1879663,2.814029 -1.235729,1.286886 -2.118696,1.912242 -3.836684,2.717319 -1.227354,0.575159 -2.363901,1.033269 -2.525656,1.018026 -0.161759,-0.01524 -1.816791,-0.307991 -3.677849,-0.650552 z"
         id="path8631" />
      <path
         style="fill:#ee4035;stroke-width:0.264583"
         d="M -68.425283,150.29579 -115.38836,103.33216 -68.358859,56.302653 -21.329357,9.2731515 25.700146,56.302653 72.729645,103.33216 25.766569,150.29579 c -25.829691,25.83 -47.022858,46.96363 -47.095926,46.96363 -0.07307,0 -21.266234,-21.13363 -47.095926,-46.96363 z m 89.627388,-4.69595 c 23.174362,-23.17402 42.135205,-42.25291 42.135205,-42.39752 0,-0.14461 -18.900659,-19.164981 -42.001466,-42.267493 -27.8693302,-27.871391 -42.179791,-42.00457 -42.531459,-42.00457 -0.627287,0 -84.535825,83.775173 -84.535825,84.401463 0,0.51891 83.882555,84.4027 84.401462,84.4027 0.218281,0 19.3577179,-18.96056 42.532083,-42.13458 z m -82.351253,-2.58 -39.686842,-39.6875 39.686842,-39.6875 c 21.82776,-21.828125 39.8062,-39.6875 39.952083,-39.6875 0.34639,0 79.242708,78.89698 79.242708,79.24337 0,0.25964 -79.116444,79.50663 -79.375661,79.50663 -0.07276,0 -17.99137,-17.85937 -39.81913,-39.6875 z m 46.646041,29.845 c 0.390898,-0.3909 0.42308,-3.48876 0.04361,-4.19781 -0.240033,-0.44851 -0.572003,-0.51177 -2.685293,-0.51177 h -2.411397 l 1.763488,-1.335 c 2.062204,-1.56113 2.982433,-2.8308 3.305656,-4.56092 0.524756,-2.80889 -0.604837,-5.24409 -2.969088,-6.40081 -3.4334,-1.67981 -7.400925,-0.41988 -8.72817,2.77173 -0.495295,1.19102 -0.788114,3.73295 -0.482547,4.18891 0.311303,0.46452 3.152693,0.70169 4.080721,0.34061 0.510109,-0.19847 0.727605,-0.47097 0.727605,-0.91162 0,-0.34569 0.130709,-1.00348 0.290467,-1.46176 0.580245,-1.66449 2.429306,-0.63054 1.991548,1.11363 -0.09151,0.36463 -0.716809,1.11755 -1.389544,1.67316 -4.071557,3.36267 -5.498857,5.22131 -5.822418,7.58195 -0.291328,2.12547 -0.585071,2.0272 6.059352,2.0272 4.242732,0 5.998023,-0.0895 6.22601,-0.3175 z m 13.67895867,-74.295 V 95.527132 L -20.254339,95.459256 c -15.369101,-0.05369 -19.474307,0.0016 -19.641261,0.264583 -0.246902,0.388898 -0.294434,4.987841 -0.05792,5.604181 0.145624,0.37949 2.049603,0.41364 19.645312,0.35237 l 19.48406267,-0.0678 z M -12.933834,93.244678 c 3.0149087,-0.266005 3.5777251,-0.397926 5.230519,-1.22599 C -0.95791637,88.639184 1.7891148,84.104379 2.4559521,75.247751 2.7724282,71.044469 2.8450378,65.000039 2.5871272,64.327939 2.3503066,63.710793 1.7203575,63.819376 1.5614144,64.504736 c -0.1367605,0.589717 -1.19493773,8.072512 -1.19493773,8.449898 0,0.275367 -1.90233297,1.538123 -2.31717057,1.538123 -0.271952,0 -0.265176,-0.149455 0.03298,-0.727604 0.206375,-0.400182 0.8472064,-2.111521 1.42406689,-3.802973 L 0.55518808,66.886809 0.1971354,64.468121 C 2.0602083e-4,63.137841 -0.4917814,61.188007 -0.89617321,60.135156 -1.8818387,57.568928 -2.2741788,57.58326 -3.8553367,60.243259 -4.5165172,61.355568 -5.3551379,62.644075 -5.71894,63.106607 l -0.6614583,0.84097 -0.01815,-5.149242 -0.01815,-5.149244 -1.6127095,-3.136572 c -1.5456667,-3.00618 -2.2026742,-3.874 -2.6182772,-3.458398 -0.105383,0.105381 -0.291277,1.708516 -0.413096,3.562517 -0.24724,3.762753 -1.059037,7.074368 -1.836135,7.490259 -0.434048,0.232296 -0.476691,0.127019 -0.460938,-1.137936 0.02981,-2.393418 -0.446648,-3.865552 -3.166888,-9.7849 -1.99662,-4.344728 -2.780445,-6.3763 -3.215587,-8.334375 -0.98279,-4.422516 -1.034981,-4.573596 -1.579994,-4.573596 -0.381402,0 -0.698476,0.515348 -1.339022,2.176341 -1.208481,3.133699 -1.57063,5.189797 -1.575834,8.946785 -0.0052,3.768326 -0.647787,8.984927 -1.250252,10.149964 l -0.404614,0.782437 -0.34925,-0.642866 c -0.19209,-0.353579 -0.42954,-1.119119 -0.527669,-1.701202 -0.283922,-1.684166 -1.383297,-4.148029 -2.24971,-5.041943 -0.438377,-0.452289 -1.508741,-1.162502 -2.378585,-1.57825 -2.080326,-0.994304 -2.308625,-0.793096 -1.872517,1.65031 0.268888,1.506521 0.251319,2.194544 -0.10935,4.282546 -0.236339,1.368213 -0.50954,3.680589 -0.607116,5.13861 l -0.177405,2.65095 -0.989828,-1.492967 c -0.924163,-1.393922 -2.909099,-3.455117 -3.844904,-3.992618 -0.80609,-0.462997 -1.034997,0.408387 -0.769075,2.92766 0.171265,1.622515 0.152665,2.906083 -0.06096,4.207126 -0.229042,1.394918 -0.232458,2.373043 -0.01339,3.836459 0.399957,2.671886 1.200716,5.322548 1.861841,6.163034 l 0.547441,0.695958 h -0.630221 c -0.550693,0 -3.508843,-2.742176 -6.899201,-6.395487 -0.62906,-0.677852 -1.090179,-0.497264 -1.181558,0.462737 -0.04049,0.425358 0.81756,4.386517 1.906776,8.802582 1.842383,7.46968 2.062612,8.161099 3.160315,9.921875 1.038045,1.665081 1.469911,2.079046 3.591497,3.442639 3.331329,2.141122 6.267828,3.025251 11.523361,3.469476 5.214278,0.440741 8.895744,0.470821 13.025731,0.106432 z m -8.716375,-1.964145 c -2.765533,-0.509186 -3.612282,-0.77972 -4.7625,-1.521606 -2.033291,-1.311468 -5.134523,-4.682837 -4.307615,-4.682837 0.07372,0 1.347512,0.182261 2.830653,0.405027 1.48314,0.222764 2.851576,0.345562 3.040967,0.272886 0.605888,-0.2325 0.373782,-0.944404 -0.809858,-2.483948 -1.41546,-1.841071 -2.814545,-4.559466 -2.814545,-5.468614 0,-0.669373 0.01191,-0.665697 1.389063,0.428773 1.536771,1.221319 4.051228,2.449073 4.591296,2.241827 0.273944,-0.105121 0.31424,-0.877977 0.190391,-3.651625 l -0.157096,-3.518284 1.112277,-2.910417 c 0.611753,-1.600729 1.201298,-3.139141 1.310097,-3.418694 0.167259,-0.429752 0.349787,-0.266248 1.181484,1.058333 1.84145,2.932745 1.963087,3.920877 1.324652,10.760882 -0.148217,1.587977 -0.115374,1.785938 0.296302,1.785938 0.49526,0 4.964634,-2.420186 5.798468,-3.139898 0.482999,-0.416893 0.495776,-0.388932 0.365929,0.800833 -0.184449,1.690079 -1.005882,3.274904 -2.580582,4.978823 -1.619861,1.752786 -1.688404,2.258605 -0.336343,2.482086 1.710997,0.28281 2.698266,0.187573 3.780853,-0.364721 0.5762866,-0.293999 1.0477927,-0.467849 1.0477927,-0.386336 0,0.566145 -1.2611367,2.350466 -2.5589997,3.620608 -1.518026,1.485604 -5.051385,3.424074 -6.120762,3.357973 -0.2466,-0.01524 -1.961965,-0.306395 -3.811924,-0.647009 z"
         id="path8629" />
    </g>
  </g>
</svg>
