<?xml version="1.0" encoding="UTF-8" standalone="no"?>
<svg
   xmlns:dc="http://purl.org/dc/elements/1.1/"
   xmlns:cc="http://creativecommons.org/ns#"
   xmlns:rdf="http://www.w3.org/1999/02/22-rdf-syntax-ns#"
   xmlns:svg="http://www.w3.org/2000/svg"
   xmlns="http://www.w3.org/2000/svg"
   xmlns:sodipodi="http://sodipodi.sourceforge.net/DTD/sodipodi-0.dtd"
   xmlns:inkscape="http://www.inkscape.org/namespaces/inkscape"
   width="24"
   height="24"
   viewBox="0 0 48.904419 48.904175"
   version="1.1"
   id="svg8"
   inkscape:version="1.0.2 (e86c870879, 2021-01-15)"
   sodipodi:docname="jaune5-1.gif.svg">
  <defs
     id="defs2" />
  <sodipodi:namedview
     id="base"
     pagecolor="#ffffff"
     bordercolor="#666666"
     borderopacity="1.0"
     inkscape:pageopacity="0.0"
     inkscape:pageshadow="2"
     inkscape:zoom="0.35"
     inkscape:cx="107.98377"
     inkscape:cy="139.4116"
     inkscape:document-units="mm"
     inkscape:current-layer="layer1"
     inkscape:document-rotation="0"
     showgrid="false"
     inkscape:window-width="1360"
     inkscape:window-height="687"
     inkscape:window-x="0"
     inkscape:window-y="26"
     inkscape:window-maximized="1" />
  <metadata
     id="metadata5">
    <rdf:RDF>
      <cc:Work
         rdf:about="">
        <dc:format>image/svg+xml</dc:format>
        <dc:type
           rdf:resource="http://purl.org/dc/dcmitype/StillImage" />
        <dc:title></dc:title>
      </cc:Work>
    </rdf:RDF>
  </metadata>
  <g
     inkscape:label="Layer 1"
     inkscape:groupmode="layer"
     id="layer1"
     transform="translate(-77.262627,-111.28068)">
    <g
       id="g74"
       transform="matrix(0.25590539,0,0,0.25590539,74.674837,97.859363)">
      <path
         style="fill:#fef9a1;stroke-width:0.264583"
         d="m 57.708333,195.95074 -47.596043,-47.59822 0.548915,-0.75439 c 0.301904,-0.4149 21.79757,-21.99378 47.76815,-47.953049 l 47.219235,-47.198673 0.75383,0.548836 c 0.41461,0.30186 21.91719,21.720647 47.78352,47.597306 31.01656,31.02894 47.02969,47.22776 47.02969,47.57505 0,0.7302 -94.65281,95.38136 -95.38302,95.38136 -0.34958,0 -16.625303,-16.09781 -48.124277,-47.59822 z"
         id="path88" />
      <path
         style="fill:#fef556;stroke-width:0.264583"
         d="M 58.075953,195.79158 10.319118,148.03419 58.01008,100.34323 105.70104,52.652269 153.45843,100.40965 201.21581,148.16703 153.5243,195.858 105.83279,243.54896 Z"
         id="path86" />
      <path
         style="fill:#fdf000;stroke-width:0.264583"
         d="M 58.274203,195.72525 C 32.262507,169.71325 10.98021,148.31164 10.98021,148.16612 c 0,-0.34597 94.50771,-94.852576 94.85368,-94.852576 0.14552,0 21.57652,21.312188 47.62444,47.360416 l 47.35987,47.36042 -47.49216,47.49271 c -26.12068,26.12099 -47.55193,47.4927 -47.625,47.4927 -0.0731,0 -21.415139,-21.28254 -47.426837,-47.29454 z"
         id="path84" />
      <path
         style="fill:#a69e00;stroke-width:0.264583"
         d="M 63.404278,190.27116 C 26.644045,153.50819 21.54064,148.30928 21.78369,147.87168 c 0.152359,-0.27432 19.023198,-19.2376 41.935199,-42.14063 36.728231,-36.713845 41.732151,-41.62287 42.283191,-41.481381 0.90131,0.231426 83.83646,83.247281 83.83646,83.918041 0,0.73071 -83.27655,84.00417 -84.00729,84.00417 -0.35083,0 -14.659954,-14.13164 -42.426972,-41.90072 z m 82.446962,-2.08593 c 21.86468,-21.86433 39.75397,-39.87238 39.75397,-40.0179 0,-0.14553 -17.94852,-18.21341 -39.88561,-40.15086 l -39.88561,-39.886261 -40.018556,40.017901 -40.018557,40.0179 39.885609,39.88627 c 21.937086,21.93744 40.004674,39.88626 40.150194,39.88626 0.14552,0 18.15387,-17.88899 40.01856,-39.75331 z m -50.763939,20.07371 c -2.296898,-0.82083 -3.50576,-2.42964 -3.35798,-4.46898 l 0.0811,-1.11912 2.161696,-0.0765 c 2.053754,-0.0727 2.170917,-0.0463 2.3464,0.52917 0.281646,0.92356 0.928962,1.53171 1.630354,1.53171 0.905997,0 1.931342,-1.12373 1.931342,-2.11667 0,-0.99528 -1.02602,-2.11666 -1.936668,-2.11666 -0.35079,0 -0.94053,0.23812 -1.310529,0.52916 -0.50011,0.39339 -1.073356,0.52917 -2.23407,0.52917 -2.589723,0 -2.556306,0.0954 -1.834221,-5.23779 0.340783,-2.51698 0.735853,-4.69257 0.877932,-4.83465 0.155117,-0.15512 2.2591,-0.2295 5.266172,-0.18617 l 5.007841,0.0721 0.0792,1.8284 c 0.0556,1.28383 -0.0232,1.89335 -0.26458,2.04647 -0.18908,0.11994 -1.73004,0.2199 -3.42433,0.22212 -2.395941,0.003 -3.112187,0.0865 -3.222918,0.37506 -0.210793,0.54932 0.0099,0.64715 1.122961,0.49785 2.391537,-0.32077 5.425337,1.33396 6.406847,3.4945 1.45623,3.20551 -0.44484,7.58275 -3.71933,8.56381 -1.333539,0.39954 -4.409582,0.36496 -5.607216,-0.063 z m 10.679889,-0.0748 c -0.22734,-0.0917 -0.33073,-0.82074 -0.33073,-2.33205 0,-2.54354 -0.0237,-2.51981 2.51354,-2.51981 2.53649,0 2.51354,-0.0229 2.51354,2.51355 0,1.75505 -0.0835,2.22437 -0.41851,2.35294 -0.49397,0.18955 -3.79984,0.17825 -4.27784,-0.0146 z m 10.5701,-0.14227 c -0.22551,-0.22552 -0.3175,-1.83187 -0.3175,-5.54466 v -5.22716 l -1.91823,-0.0777 -1.91822,-0.0777 -0.0807,-1.41055 c -0.0967,-1.6896 0.22245,-2.16133 1.46219,-2.16133 1.35842,0 2.51869,-0.66486 3.11644,-1.7858 0.49833,-0.93449 0.61137,-0.99703 1.93971,-1.07304 0.81255,-0.0465 1.56969,0.0514 1.78594,0.23083 0.50703,0.4208 0.5618,16.62327 0.0579,17.12718 -0.1828,0.1828 -1.05833,0.3175 -2.06375,0.3175 -1.00541,0 -1.88094,-0.1347 -2.06375,-0.3175 z M 91.201877,137.92729 c -0.449869,-0.44986 -0.424395,-4.29149 0.03096,-4.6694 0.204711,-0.1699 1.86718,-0.3197 4.029961,-0.36313 l 3.6815,-0.0739 -1.392118,-0.89261 c -2.956944,-1.89594 -5.491348,-5.69489 -6.254224,-9.37477 -0.211143,-1.01849 -0.652351,-2.16782 -1.015688,-2.64583 -1.731867,-2.27847 -2.264735,-4.53892 -2.56935,-10.89929 -0.125449,-2.61938 -0.314277,-5.74477 -0.419616,-6.94532 -0.233762,-2.664134 -0.07049,-2.734675 2.296517,-0.99218 0.889543,0.65484 1.724147,1.19062 1.854674,1.19062 0.130529,0 0.179771,-0.80367 0.109426,-1.78594 -0.300818,-4.200543 -0.3908,-8.797393 -0.172206,-8.797393 0.309004,0 1.94478,1.820183 2.807903,3.124449 0.37604,0.568232 0.951193,1.155025 1.278123,1.303983 l 0.594418,0.270836 -0.0071,-3.474115 c -0.0064,-3.129872 0.05353,-3.588059 0.604499,-4.624099 0.422402,-0.794271 0.587028,-1.489921 0.532225,-2.248958 -0.06265,-0.86769 0.0105,-1.098971 0.347631,-1.098971 0.556522,0 2.539468,2.404999 2.741548,3.325067 0.18002,0.819652 1.46173,2.892642 1.7885,2.892642 0.6916,0 2.04404,-6.014014 2.04404,-9.089409 0,-0.997929 0.16617,-2.486448 0.36925,-3.307817 0.20309,-0.82137 0.44348,-1.820821 0.53421,-2.221003 0.25036,-1.104287 0.8866,-0.89519 1.20761,0.396874 0.31779,1.27913 1.1024,3.638011 2.48615,7.47448 0.81838,2.268982 0.95464,2.973353 0.95667,4.945321 0.002,2.399443 0.17958,2.802279 1.03158,2.346302 0.84163,-0.450424 1.62537,-1.998816 1.97753,-3.906901 0.22794,-1.23507 0.45096,-1.797222 0.713,-1.797222 0.21349,0 0.9958,1.164365 1.77767,2.645833 l 1.39637,2.645833 -0.0932,2.844271 c -0.0513,1.564349 -0.0549,2.844271 -0.008,2.844271 0.272,0 2.20336,-1.969923 2.20336,-2.24735 0,-0.183528 0.16279,-0.468799 0.36177,-0.633933 0.51961,-0.431242 0.82721,0.03908 1.37748,2.106205 l 0.46278,1.738463 -0.7059,2.494871 c -0.38824,1.37218 -0.70511,2.58417 -0.70414,2.69331 0.005,0.58074 1.04493,0.0406 2.17119,-1.12788 1.24346,-1.29007 1.28544,-1.30995 1.536,-0.72761 0.76103,1.7688 1.58623,6.47001 1.58623,9.03685 0,2.3697 -0.11004,3.02947 -0.89321,5.35501 -0.49127,1.45878 -1.37549,3.41694 -1.96495,4.35146 -0.58946,0.93453 -1.21789,2.29446 -1.39652,3.02206 -0.8174,3.32937 -2.90351,6.47158 -5.64084,8.49652 l -1.74797,1.29307 3.6212,0.0739 c 2.11895,0.0433 3.76576,0.1939 3.96966,0.36313 0.45536,0.37791 0.48084,4.21954 0.031,4.6694 -0.45811,0.45811 -29.069398,0.45811 -29.527503,0 z m 18.839573,-9.96909 c 5.67426,-2.79343 7.03755,-10.03326 2.76881,-14.70394 -1.7503,-1.91511 -3.63982,-2.83432 -6.15847,-2.99595 -7.244105,-0.4649 -12.209299,6.60323 -9.251483,13.16982 2.175082,4.82885 7.880833,6.87356 12.641143,4.53007 z m 9.41793,-17.37732 v -1.99934 l -0.82326,0.47798 c -0.45278,0.26289 -0.87689,0.61285 -0.94245,0.7777 -0.0994,0.25008 1.43133,2.74299 1.68435,2.74299 0.0447,0 0.0814,-0.8997 0.0814,-1.99933 z m -24.785405,-1.57254 c -0.231498,-0.14553 -0.76717,-0.54729 -1.190385,-0.89282 -0.423214,-0.34553 -0.829029,-0.56869 -0.901813,-0.49591 -0.07278,0.0728 0.06931,0.93507 0.315759,1.91619 l 0.44809,1.78386 0.874625,-1.02337 c 0.760376,-0.88969 0.819645,-1.05793 0.453724,-1.28795 z m 4.214047,-2.6356 c 1.110367,-0.56529 1.146558,-0.66404 0.617996,-1.68616 -0.205806,-0.39799 -0.457182,-1.16598 -0.558612,-1.70666 -0.101431,-0.54067 -0.261557,-0.98304 -0.355833,-0.98304 -0.261967,0 -1.393442,4.4898 -1.207355,4.79089 0.08978,0.14527 0.24162,0.22497 0.337426,0.17711 0.09581,-0.0479 0.620675,-0.31432 1.166378,-0.59214 z m 15.268578,0.32049 c -0.21631,-1.2879 -1.0279,-4.02845 -1.21107,-4.08951 -0.24404,-0.0814 -1.72812,2.21595 -1.71614,2.65653 0.007,0.24295 2.0805,1.407 2.60759,1.46361 0.1819,0.0195 0.32573,0.006 0.31962,-0.0306 z m -6.172,-2.14698 c 0.019,-0.0197 -0.19958,-1.04786 -0.48578,-2.28479 -0.28621,-1.23693 -0.56585,-2.492594 -0.62143,-2.790369 -0.0556,-0.297778 -0.51662,-1.012153 -1.02456,-1.5875 l -0.92351,-1.046089 -0.011,0.998062 c -0.007,0.619754 -0.41216,1.795909 -1.06934,3.102976 -0.59923,1.19181 -1.05834,2.4858 -1.05834,2.98292 v 0.878 l 2.57969,-0.10869 c 1.41883,-0.0598 2.59526,-0.12481 2.61428,-0.14452 z"
         id="path82" />
      <path
         style="fill:#857e00;stroke-width:0.264583"
         d="M 63.81639,190.43386 C 40.995924,167.62347 22.200125,148.73598 22.047948,148.46167 c -0.242704,-0.4375 4.852912,-5.62874 41.488622,-42.26719 22.970918,-22.97264 41.94456,-41.768436 42.16364,-41.768436 0.43369,0 83.87375,83.308246 83.87375,83.741256 0,0.43055 -83.44001,83.73999 -83.87124,83.73999 -0.21701,0 -19.065861,-18.66304 -41.88633,-41.47343 z m 82.16714,-2.11634 c 21.93744,-21.93709 39.88626,-40.00497 39.88626,-40.15085 0,-0.14588 -18.03782,-18.30277 -40.08405,-40.34863 L 105.7017,67.734644 65.551504,107.88484 25.40131,148.03503 65.484702,188.11908 c 22.045867,22.04623 40.202458,40.08405 40.347978,40.08405 0.14552,0 18.2134,-17.94853 40.15085,-39.88561 z m -49.42084,20.03052 c -2.453384,-0.33461 -4.140894,-1.68176 -4.583804,-3.65926 -0.394718,-1.76235 -0.264575,-1.88565 1.99027,-1.88565 1.953882,0 1.972088,0.006 2.24848,0.79933 0.521467,1.49588 1.954633,1.74306 3.153759,0.54394 0.527844,-0.52785 0.773395,-1.03834 0.773395,-1.60786 0,-1.02696 -1.247174,-2.38125 -2.192922,-2.38125 -0.355369,0 -0.948856,0.23813 -1.318855,0.52917 -0.796716,0.6267 -3.641309,0.75865 -4.112609,0.19077 -0.199943,-0.24092 -0.131784,-1.47951 0.236604,-4.29948 0.284601,-2.1786 0.577265,-4.22897 0.650369,-4.55639 0.132093,-0.59164 0.163732,-0.59532 5.126649,-0.59532 5.517424,0 5.314934,-0.067 5.314934,1.75883 0,1.86503 -0.15876,1.94534 -3.84577,1.94534 h -3.29798 v 0.76125 c 0,0.74571 0.02432,0.75851 1.190564,0.62706 1.522804,-0.17165 3.309016,0.33083 4.663176,1.31178 3.53198,2.55855 2.35015,8.95837 -1.88499,10.20756 -1.414515,0.41723 -2.64546,0.5101 -4.11127,0.31018 z m 9.25364,-0.59902 c -0.0777,-0.2025 -0.10567,-1.18981 -0.0621,-2.19402 l 0.0791,-1.82583 h 2.11667 2.11667 v 2.11667 2.11666 l -2.05453,0.0773 c -1.56503,0.0589 -2.08819,-0.0104 -2.19581,-0.29083 z m 10.59832,0.0267 c -0.0696,-0.18831 -0.15723,-2.66411 -0.1946,-5.50177 l -0.068,-5.15937 -1.85209,-0.1323 -1.85208,-0.13229 v -1.45521 -1.4552 l 1.34167,-0.16377 c 1.7963,-0.21926 2.39124,-0.5804 3.03502,-1.8423 l 0.54196,-1.06234 1.50943,0.079 1.50942,0.079 v 8.46667 8.46666 l -1.92206,0.0778 c -1.38861,0.0562 -1.9572,-0.0172 -2.04871,-0.26459 z M 91.46646,137.66271 c -0.444085,-0.44408 -0.418817,-3.76695 0.03149,-4.14067 0.208717,-0.17322 1.936835,-0.31918 4.29948,-0.36313 l 3.950493,-0.0735 -1.910776,-1.27214 c -1.050925,-0.69967 -2.394275,-1.83076 -2.985219,-2.51354 -1.425718,-1.64726 -2.828907,-4.5251 -3.28938,-6.74628 -0.22538,-1.08716 -0.650062,-2.16355 -1.071731,-2.71638 -1.828353,-2.3971 -2.673956,-6.66044 -2.869383,-14.46677 -0.07195,-2.87403 -0.05183,-5.22423 0.04471,-5.22266 0.09654,0.002 0.940829,0.53735 1.876198,1.19062 0.935368,0.65328 1.856806,1.18777 2.047636,1.18777 0.269299,0 0.319048,-0.51822 0.222248,-2.3151 -0.390319,-7.245554 -0.397677,-8.047408 -0.07285,-7.939135 0.177892,0.0593 0.947269,0.925917 1.709727,1.925822 1.195464,1.567765 2.180849,2.463546 2.748092,2.498207 0.08439,0.0052 0.14392,-1.627733 0.132291,-3.628644 -0.01913,-3.289562 0.03587,-3.744717 0.574167,-4.751959 0.341043,-0.638151 0.600377,-1.598732 0.607169,-2.248959 l 0.01185,-1.13502 1.112623,1.241499 c 0.611945,0.682826 1.316075,1.81392 1.564735,2.513542 0.24866,0.699625 0.80382,1.688761 1.23369,2.198084 l 0.78158,0.926042 0.5265,-1.218644 c 0.75542,-1.748502 1.63198,-6.322558 1.66224,-8.673926 0.0281,-2.184828 0.71817,-5.35552 1.19951,-5.511648 0.17867,-0.05795 0.48961,0.681033 0.77116,1.832722 0.25948,1.061406 0.81677,2.763267 1.23842,3.781913 1.33545,3.226204 2.05666,6.112822 2.05666,8.231682 0,2.3022 0.33902,2.510954 1.71259,1.054542 0.78532,-0.832681 1.727,-3.272724 1.727,-4.474935 0,-1.152583 0.82404,-0.18719 2.10593,2.467147 1.50388,3.114021 1.54785,3.447653 0.91492,6.942918 -0.0988,0.545703 -0.0748,0.991743 0.0534,0.991198 0.6133,-0.0026 2.00649,-1.151869 2.40215,-1.981576 0.24335,-0.510318 0.57948,-0.927851 0.74695,-0.927851 0.28522,0 1.185,2.700139 1.185,3.556068 0,0.213982 -0.30954,1.468165 -0.68786,2.787071 -0.7749,2.70144 -0.72305,3.38145 0.22091,2.8974 0.32958,-0.169 1.04555,-0.7339 1.59103,-1.25534 0.63217,-0.6043 1.0837,-0.85617 1.24525,-0.69462 0.1394,0.1394 0.55615,1.50285 0.9261,3.02988 0.50236,2.07358 0.67272,3.48327 0.67298,5.5687 2.6e-4,2.472 -0.10211,3.09652 -0.89287,5.44461 -0.49127,1.45878 -1.37759,3.41927 -1.96959,4.35665 -0.59202,0.93738 -1.19852,2.24932 -1.3478,2.91542 -0.81889,3.65408 -3.19962,6.95538 -6.63732,9.20383 l -1.4552,0.95179 3.95049,0.0735 c 2.36264,0.0439 4.09076,0.18991 4.29948,0.36313 0.4503,0.37372 0.47557,3.69659 0.0315,4.14067 -0.458,0.458 -28.540325,0.458 -28.998327,0 z m 18.44569,-9.35111 c 1.88102,-0.84416 4.00155,-2.94428 4.86392,-4.81713 0.4724,-1.02592 0.57911,-1.7433 0.58053,-3.9028 0.002,-2.31928 -0.0858,-2.83264 -0.70764,-4.15934 -0.8763,-1.86967 -2.66374,-3.64397 -4.65702,-4.62279 -1.33549,-0.65581 -1.80733,-0.74287 -4.02631,-0.74287 -2.17528,0 -2.71778,0.0957 -4.03114,0.71124 -3.939383,1.84626 -6.295643,6.30089 -5.492405,10.38367 0.739761,3.76014 3.169642,6.51816 6.752045,7.66389 1.90616,0.60962 4.68884,0.39677 6.71802,-0.51387 z m 9.81181,-17.58347 c 0,-1.51041 -0.10322,-2.38125 -0.28224,-2.38125 -0.35309,0 -2.09901,1.31592 -2.09901,1.58204 0,0.32691 1.94985,3.18046 2.17323,3.18046 0.11441,0 0.20802,-1.07157 0.20802,-2.38125 z m -25.164494,-0.46705 c 0.570372,-0.7809 0.781558,-1.2665 0.580011,-1.33368 -0.174323,-0.0581 -0.857549,-0.5183 -1.518274,-1.02264 -0.660728,-0.50435 -1.268701,-0.84962 -1.35105,-0.76727 -0.249867,0.24987 0.796272,4.38559 1.1049,4.36801 0.158097,-0.009 0.691081,-0.56899 1.184413,-1.24442 z m 4.361378,-3.65661 c 1.342846,-0.75054 1.393516,-0.86326 0.857967,-1.90875 -0.20129,-0.39296 -0.517893,-1.39908 -0.703561,-2.23582 -0.185669,-0.83675 -0.4323,-1.52136 -0.548072,-1.52136 -0.115768,0 -0.287242,0.44649 -0.38105,0.99219 -0.09381,0.5457 -0.398854,1.75533 -0.677878,2.68805 -0.476668,1.5934 -0.470533,2.66976 0.01521,2.66976 0.117388,0 0.764207,-0.30783 1.437381,-0.68407 z m 14.965306,-1.96748 c -0.29418,-1.23171 -0.64045,-2.34504 -0.76948,-2.47407 -0.21618,-0.21618 -2.00148,2.24687 -2.18126,3.00935 -0.087,0.36911 3.00502,2.1297 3.29282,1.8749 0.10604,-0.0939 -0.0479,-1.17846 -0.34208,-2.41018 z m -5.57846,0.1299 c 0.0512,-0.0495 -0.0913,-0.66316 -0.31679,-1.36381 -0.22544,-0.70065 -0.49091,-1.86922 -0.58994,-2.59683 -0.099,-0.7276 -0.29819,-1.561039 -0.44257,-1.852081 -0.32574,-0.656611 -1.81474,-2.248958 -2.103,-2.248958 -0.11697,0 -0.21268,0.478893 -0.21268,1.064207 0,0.714364 -0.34791,1.756166 -1.05833,3.169122 -0.91679,1.8234 -1.3388,3.59889 -0.94857,3.9908 0.12686,0.1274 5.53203,-0.0274 5.67188,-0.16245 z"
         id="path80" />
      <path
         style="fill:#5f5a00;stroke-width:0.264583"
         d="M 63.830416,190.16896 C 40.874679,167.21288 22.09271,148.31156 22.09271,148.16604 c 0,-0.3465 83.39558,-83.739996 83.74208,-83.739996 0.14598,0 19.05981,18.795796 42.03073,41.768436 36.63571,36.63845 41.73132,41.82969 41.48862,42.26719 -0.39456,0.71124 -83.20577,83.44562 -83.52311,83.44562 -0.1446,0 -19.044875,-18.78225 -42.000614,-41.73833 z m 82.285404,-1.71915 c 22.01021,-22.00985 40.01856,-40.13697 40.01856,-40.28249 0,-0.34596 -79.95444,-80.301693 -80.30039,-80.301693 -0.34596,0 -80.301697,79.954433 -80.301697,80.300393 0,0.34596 79.954437,80.30169 80.300387,80.30169 0.14552,0 18.27294,-18.00805 40.28314,-40.0179 z m -50.81106,19.50396 c -2.200138,-0.80748 -3.480943,-2.41865 -3.312078,-4.16638 l 0.08232,-0.85197 h 1.84427 c 1.621054,0 1.878486,0.0686 2.126996,0.56709 0.522081,1.0472 0.983509,1.41728 1.767067,1.41728 1.12331,0 1.794201,-0.44517 2.225115,-1.4765 0.32765,-0.78417 0.32765,-1.02532 0,-1.80949 -0.207913,-0.49761 -0.618403,-1.03339 -0.912197,-1.19063 -0.753414,-0.40321 -1.964108,-0.35487 -2.568911,0.10259 -0.330485,0.24996 -1.150313,0.39145 -2.299528,0.39687 -1.783284,0.008 -1.785937,0.007 -1.785937,-0.7353 0,-1.29684 1.049932,-8.34955 1.27676,-8.57638 0.119623,-0.11962 2.351836,-0.1849 4.960472,-0.14505 l 4.742971,0.0724 0.0788,1.65364 0.0788,1.65365 h -3.267 c -3.456188,0 -3.902003,0.14053 -3.902003,1.23002 0,0.56124 0.101362,0.59326 1.785937,0.56418 2.181026,-0.0377 3.795136,0.60421 5.015946,1.99465 2.70895,3.08536 1.02322,8.40836 -2.98223,9.41695 -1.531889,0.38573 -3.725859,0.33364 -4.95552,-0.11766 z m 10.51028,-0.47271 c -0.0784,-0.20436 -0.10638,-1.0726 -0.0621,-1.92943 l 0.0804,-1.55788 h 2.11667 2.11667 v 1.85209 1.85208 l -2.05453,0.0773 c -1.57351,0.0592 -2.0879,-0.01 -2.1971,-0.29421 z m 10.65621,0.18325 c -0.10278,-0.10278 -0.18687,-2.54828 -0.18687,-5.43445 v -5.24757 h -1.6874 c -1.97596,0 -2.35344,-0.2981 -2.23228,-1.76283 0.0826,-0.99831 0.0953,-1.00869 1.66562,-1.35562 1.69615,-0.37474 2.34936,-0.81381 2.95602,-1.98695 0.36056,-0.69726 0.47228,-0.73637 1.89114,-0.66209 l 1.50794,0.0789 v 8.20209 8.20208 l -1.86364,0.0766 c -1.02501,0.0421 -1.94774,-0.007 -2.05053,-0.11025 z M 91.413543,135.60568 v -2.10995 l 4.101643,-0.0729 c 2.460654,-0.0437 4.124121,-0.17872 4.157829,-0.33745 0.0309,-0.14552 -0.475382,-0.5547 -1.12508,-0.90929 -3.166031,-1.72793 -6.167355,-5.97003 -6.960767,-9.83841 -0.205708,-1.00297 -0.645588,-2.13404 -1.028983,-2.64584 -1.110705,-1.48271 -1.443754,-2.35529 -2.007497,-5.25959 -0.354674,-1.82721 -0.590912,-4.40826 -0.690181,-7.54062 -0.08301,-2.61938 -0.22402,-5.14945 -0.313352,-5.6224 -0.102658,-0.54349 -0.05632,-0.85989 0.125934,-0.85989 0.158597,0 1.087236,0.53578 2.063647,1.19062 2.234943,1.4989 2.573451,1.52435 2.345711,0.17637 -0.212386,-1.25711 -0.63781,-9.130905 -0.501586,-9.283487 0.180234,-0.201883 1.416603,1.117713 2.219467,2.36887 0.753084,1.17358 1.673329,1.843458 2.532447,1.843458 0.31773,0 0.356174,-0.196935 0.19368,-0.992188 -0.111504,-0.545703 -0.199708,-2.06375 -0.196006,-3.373437 0.0058,-2.037623 0.114379,-2.618809 0.752713,-4.027472 0.413425,-0.912341 0.683427,-1.885431 0.60566,-2.182812 -0.08172,-0.31251 -0.01254,-0.533176 0.165637,-0.52841 0.414505,0.01109 1.917566,2.079646 2.112727,2.907598 0.222104,0.942277 1.745534,3.169637 2.167904,3.169637 0.8215,0 2.23365,-5.732044 2.25388,-9.148744 0.0117,-1.975037 0.75853,-5.66672 1.16314,-5.749492 0.13636,-0.0279 0.56461,1.02084 0.95166,2.330528 0.38705,1.309688 0.9532,2.940603 1.25811,3.624255 1.10758,2.483331 1.64333,4.82098 1.64333,7.170427 0,1.24903 0.11556,2.342386 0.25681,2.429682 0.44015,0.272027 1.78304,-0.602194 2.36064,-1.536771 0.30353,-0.491122 0.70973,-1.587997 0.90266,-2.437503 0.19293,-0.849506 0.46618,-1.583021 0.60722,-1.630032 0.14103,-0.04701 0.83422,1.088835 1.5404,2.524104 1.28125,2.604042 1.28366,2.614017 1.13633,4.699376 -0.0812,1.149387 -0.23047,2.357686 -0.33171,2.685108 -0.15078,0.487656 -0.0829,0.595312 0.3752,0.595312 0.65637,0 2.67745,-1.737516 2.67745,-2.301795 0,-0.895356 0.68661,-0.0578 1.12023,1.366509 0.45336,1.48912 0.45182,1.59199 -0.0491,3.286781 -0.91688,3.102048 -1.06421,4.017758 -0.67073,4.168748 0.46831,0.17971 1.39137,-0.316 2.44441,-1.31273 0.52227,-0.49434 0.94978,-0.71582 1.08784,-0.56356 0.12509,0.13796 0.48204,1.28833 0.79323,2.55637 0.42904,1.74822 0.56581,3.12729 0.56581,5.70505 0,3.04794 -0.0789,3.63279 -0.76237,5.65492 -0.41931,1.24046 -1.25634,3.03753 -1.86008,3.99348 -0.60374,0.95596 -1.27484,2.43391 -1.49133,3.28435 -0.91509,3.59475 -3.06377,6.60174 -6.2137,8.6958 -1.01623,0.67559 -1.78016,1.33762 -1.69762,1.47117 0.0825,0.13355 1.98852,0.24282 4.2355,0.24282 h 4.08543 v 2.11667 2.11667 h -14.5521 -14.552087 z m 18.847677,-7.36029 c 2.12169,-1.04516 3.91595,-2.96052 4.76055,-5.08185 0.87388,-2.19486 0.82363,-5.44027 -0.1156,-7.46603 -1.89959,-4.09708 -6.32087,-6.5373 -10.4619,-5.77418 -8.790874,1.62001 -11.242958,12.68783 -3.92628,17.72184 1.79067,1.23201 3.20144,1.61131 5.71889,1.53757 1.93952,-0.0568 2.50351,-0.18818 4.02434,-0.93735 z m 9.46274,-17.38497 c 0,-1.76463 -0.0937,-2.51354 -0.31436,-2.51354 -0.51347,0 -2.06312,1.16134 -2.06508,1.54762 -0.002,0.4695 1.85964,3.47946 2.15246,3.47946 0.12484,0 0.22698,-1.13109 0.22698,-2.51354 z m -25.323737,-0.24883 c 1.016278,-1.2158 1.255575,-2.00013 0.610228,-2.00013 -0.204513,0 -0.889122,-0.43337 -1.521355,-0.96304 l -1.149511,-0.96304 -0.08681,0.73045 c -0.097,0.8162 0.704315,4.37063 0.985321,4.37063 0.09903,0 0.621986,-0.52869 1.162124,-1.17487 z m 5.843877,-4.66975 c 0.12806,-0.1113 -0.008,-0.71288 -0.304084,-1.34552 -0.294626,-0.62933 -0.678701,-1.76968 -0.853498,-2.53411 -0.371197,-1.62335 -0.71936,-1.97671 -0.922287,-0.93605 -0.0792,0.40614 -0.338804,1.51233 -0.576905,2.45822 -0.6534,2.59569 -0.707991,3.14407 -0.355312,3.56903 0.279995,0.33737 0.486571,0.29603 1.551741,-0.31055 0.67581,-0.38486 1.332965,-0.79031 1.460345,-0.90102 z m 14.18613,0.88368 c -0.004,-0.79315 -0.98036,-4.59398 -1.24994,-4.86357 -0.25872,-0.25871 -2.45216,2.7978 -2.45216,3.41703 0,0.29201 2.69957,1.78814 3.37343,1.86959 0.18191,0.022 0.3298,-0.16839 0.32867,-0.42305 z m -6.25359,-2.50279 c -0.0209,-0.33333 -0.27396,-1.70683 -0.56242,-3.05222 -0.42977,-2.00444 -0.70084,-2.661374 -1.50113,-3.638017 -0.53715,-0.655526 -1.08044,-1.191866 -1.2073,-1.191866 -0.12686,0 -0.30474,0.565547 -0.39529,1.256771 -0.0905,0.691224 -0.63362,2.27071 -1.20684,3.509972 -1.72881,3.73761 -1.61868,3.93919 2.0845,3.81569 2.7553,-0.0919 2.82547,-0.10951 2.78848,-0.70033 z"
         id="path78" />
      <path
         style="fill:#070700;stroke-width:0.264583"
         d="M 63.962708,190.03667 C 41.079729,167.15334 22.357293,148.31156 22.357293,148.16604 c 0,-0.14552 18.752344,-19.01664 41.671875,-41.93583 l 41.671872,-41.671245 41.80417,41.803535 41.80417,41.80354 -41.73771,41.73834 c -22.95574,22.95608 -41.79752,41.73833 -41.87063,41.73833 -0.0731,0 -18.855356,-18.72272 -41.738332,-41.60604 z m 82.285402,-1.45457 c 22.08297,-22.08261 40.15085,-40.26926 40.15085,-40.41478 0,-0.43091 -80.26392,-80.566276 -80.69552,-80.566276 -0.48097,0 -80.110481,79.566096 -80.335296,80.271326 -0.126652,0.3973 8.058742,8.71754 40.020369,40.67969 22.098772,22.09913 40.298647,40.18023 40.444167,40.18023 0.14552,0 18.33247,-18.06758 40.41543,-40.15019 z m -50.663664,19.24925 c -2.043703,-0.61537 -3.377153,-2.17253 -3.377153,-3.94373 v -0.81991 h 1.733556 c 1.690986,0 1.740397,0.0196 2.012204,0.79934 0.714451,2.04947 3.815119,1.61526 4.409837,-0.61755 0.63225,-2.37368 -1.920579,-4.23837 -3.959302,-2.89202 -0.510728,0.33727 -1.097505,0.43691 -2.182813,0.37064 -1.360247,-0.0831 -1.484315,-0.14311 -1.484315,-0.71851 0,-0.59357 0.630571,-5.60033 0.93943,-7.45909 l 0.142883,-0.85989 h 4.750509 4.750508 v 1.45521 1.4552 h -3.1561 c -3.486314,0 -4.088546,0.23788 -3.935865,1.55462 0.07793,0.67209 0.13988,0.69536 1.932593,0.72603 3.209662,0.0549 5.309462,1.41439 5.969262,3.8647 0.58063,2.15631 -0.37417,5.03907 -2.06768,6.24276 -1.40993,1.00212 -4.578296,1.41407 -6.477554,0.8422 z m 10.381184,-1.98551 v -1.7198 h 1.98437 1.98438 v 1.7198 1.71979 H 107.95 105.96563 Z m 10.71408,1.40177 c -0.0698,-0.18889 -0.15759,-2.60563 -0.19501,-5.37052 l -0.068,-5.02709 -1.85209,-0.13229 -1.85208,-0.13229 -0.0794,-1.08528 -0.0794,-1.08529 1.46243,-0.29369 c 1.79737,-0.36096 2.64392,-0.89183 3.07262,-1.9268 0.31177,-0.75267 0.398,-0.78935 1.6804,-0.7147 l 1.35178,0.0787 v 7.9375 7.9375 l -1.65707,0.0789 c -1.17547,0.0559 -1.69398,-0.0209 -1.78406,-0.26458 z M 91.678127,135.59896 v -1.85208 l 4.034895,-0.004 c 3.874093,-0.004 4.946198,-0.17139 4.607258,-0.71981 -0.0863,-0.13962 -0.948946,-0.71706 -1.917017,-1.28321 -3.245249,-1.89789 -5.749493,-5.49174 -6.551511,-9.40209 -0.205709,-1.00297 -0.645589,-2.13403 -1.028984,-2.64583 -1.127921,-1.5057 -1.502518,-2.4746 -2.053092,-5.31035 -0.346922,-1.78683 -0.5305,-3.82227 -0.532339,-5.90237 -0.0016,-1.74625 -0.118319,-4.17976 -0.259498,-5.40779 -0.141182,-1.22804 -0.212818,-2.27667 -0.159192,-2.3303 0.05363,-0.0536 0.906574,0.44512 1.895441,1.10832 0.988867,0.6632 2.029483,1.20581 2.312482,1.20581 0.44787,0 0.492916,-0.12856 0.347622,-0.99218 -0.09181,-0.54571 -0.2312,-2.420942 -0.309763,-4.167192 -0.07856,-1.74625 -0.190132,-3.561953 -0.247936,-4.034896 -0.0578,-0.472942 0.0024,-0.859895 0.133734,-0.859895 0.131357,0 0.748951,0.726022 1.372428,1.613379 0.667679,0.950269 1.530752,1.817018 2.099889,2.108835 1.370121,0.702511 1.59733,0.33756 1.254295,-2.014683 -0.352722,-2.418655 -0.07258,-4.965484 0.717727,-6.525083 0.348459,-0.68765 0.6384,-1.46259 0.644313,-1.722091 0.01659,-0.727578 1.434399,1.052428 1.793817,2.252059 0.368214,1.229003 1.814084,3.22925 2.334234,3.22925 0.93002,0 2.47217,-5.817925 2.47991,-9.355688 0.006,-2.554443 0.82021,-6.029098 1.14962,-4.903535 0.23852,0.815018 1.49033,4.489246 2.37915,6.983182 0.83045,2.330114 0.94428,2.954649 0.95399,5.233823 0.0124,2.897987 0.18671,3.169174 1.57578,2.450859 1.08532,-0.561244 2.05045,-2.072275 2.4157,-3.782078 0.1632,-0.763985 0.38143,-1.389063 0.48496,-1.389063 0.10353,0 0.70524,1.054786 1.33715,2.343968 1.13423,2.31403 1.14692,2.370632 0.99282,4.431771 -0.0858,1.148291 -0.23507,2.415225 -0.33158,2.815407 -0.154,0.638487 -0.0988,0.72739 0.45066,0.725861 0.76881,-0.0021 1.95875,-0.761828 2.75246,-1.757241 l 0.59465,-0.74576 0.42821,1.441918 c 0.4147,1.396445 0.40797,1.513126 -0.21317,3.699773 -0.90936,3.20125 -0.98922,3.65858 -0.67296,3.85404 0.49908,0.30845 1.56221,-0.13223 2.6162,-1.08445 0.56619,-0.51151 1.08971,-0.83251 1.16337,-0.71332 0.0737,0.11919 0.38132,1.18564 0.68369,2.36989 0.41688,1.63279 0.54975,2.97782 0.54975,5.5652 0,3.0617 -0.0783,3.64357 -0.76237,5.6674 -0.4193,1.24047 -1.25633,3.03753 -1.86007,3.99349 -0.60374,0.95595 -1.27484,2.43391 -1.49133,3.28434 -0.92716,3.64216 -3.48252,7.08609 -6.5357,8.80837 -2.82762,1.59504 -2.41877,1.85661 2.91041,1.86196 l 4.0349,0.004 v 1.85208 1.85208 h -14.2875 -14.287503 z m 18.599823,-7.09776 c 6.27581,-3.08958 7.57438,-11.08055 2.60775,-16.04719 -4.89168,-4.89168 -12.986228,-3.38248 -16.002055,2.98351 -0.74993,1.583 -0.839893,2.02797 -0.839893,4.15415 0,2.02994 0.104616,2.60445 0.709099,3.89416 0.776692,1.65712 2.784022,3.9703 4.045069,4.66141 1.96999,1.07964 3.15304,1.35695 5.46585,1.2812 1.94806,-0.0638 2.53625,-0.19966 4.01418,-0.92724 z m 9.65418,-17.50702 c 0.0417,-1.50352 -0.0368,-2.84639 -0.17462,-2.98417 -0.42367,-0.42367 -2.67938,1.30534 -2.67938,2.05375 0,0.34823 0.12359,0.70952 0.27464,0.80288 0.15105,0.0934 0.64158,0.81992 1.09006,1.61458 0.44849,0.79467 0.94997,1.40025 1.11442,1.34574 0.18977,-0.0629 0.32672,-1.09775 0.37488,-2.83278 z m -25.23715,-0.37472 c 0.93323,-1.20547 1.143296,-1.64509 0.916607,-1.91823 -0.161748,-0.19489 -0.457759,-0.35435 -0.657802,-0.35435 -0.200044,0 -0.839444,-0.42979 -1.420887,-0.95509 -1.277884,-1.15449 -1.920756,-1.07177 -1.689544,0.21741 0.179363,1.0001 0.857067,3.87477 1.036762,4.3977 0.187613,0.54599 0.507245,0.30163 1.814864,-1.38744 z m 5.68265,-4.54127 c 0.30879,-0.28124 0.28229,-0.50947 -0.1718,-1.47933 -0.295301,-0.63072 -0.683702,-1.80162 -0.863108,-2.60198 -0.659138,-2.940574 -1.121666,-3.009461 -1.56392,-0.23293 -0.153437,0.96329 -0.457766,2.25819 -0.676283,2.87753 -0.50831,1.4407 -0.502954,2.23904 0.01852,2.76051 0.378042,0.37804 0.528291,0.3519 1.653646,-0.28771 0.680804,-0.38695 1.402135,-0.85318 1.602955,-1.03609 z m 13.94847,-1.09606 c -0.56116,-2.69993 -0.84033,-3.51442 -1.2046,-3.51442 -0.35262,0 -2.66041,3.45486 -2.64916,3.96592 0.0108,0.49075 3.72408,2.37344 4.08016,2.06871 0.15815,-0.13535 0.0736,-1.07701 -0.2264,-2.52021 z m -5.88143,-0.52957 c -0.0742,-1.58194 -1.10751,-5.612662 -1.62274,-6.329696 -0.79839,-1.111104 -2.10131,-2.288159 -2.25224,-2.034662 -0.0721,0.121074 -0.21766,0.861822 -0.32351,1.646111 -0.10584,0.784286 -0.66894,2.419007 -1.25132,3.632717 -0.84786,1.767 -1.02528,2.38577 -0.89032,3.10515 l 0.16854,0.89842 3.10304,-0.0911 3.10305,-0.0911 z"
         id="path76" />
    </g>
  </g>
</svg>
