<?xml version="1.0" encoding="UTF-8" standalone="no"?>
<!-- Created with Inkscape (http://www.inkscape.org/) -->

<svg
   width="24"
   height="24"
   viewBox="0 0 24 24"
   version="1.1"
   id="svg5"
   inkscape:version="1.1.1 (3bf5ae0d25, 2021-09-20)"
   sodipodi:docname="rondflam.svg"
   xmlns:inkscape="http://www.inkscape.org/namespaces/inkscape"
   xmlns:sodipodi="http://sodipodi.sourceforge.net/DTD/sodipodi-0.dtd"
   xmlns="http://www.w3.org/2000/svg"
   xmlns:svg="http://www.w3.org/2000/svg">
  <g
     inkscape:label="Capa 1"
     inkscape:groupmode="layer"
     id="layer1"
     transform="translate(15.946791,28.864379)">
    <g
       id="g4409"
       transform="matrix(0.12812239,0,0,0.12708914,-207.56124,-4.2074214)" />
    <g
       id="g9127"
       transform="matrix(0.12598244,0,0,0.12598425,-174.2406,-23.711568)">
      <g
         id="g9831"
         transform="matrix(-0.12598244,0,0,0.12598426,1530.7934,-74.598756)">
        <path
           style="fill:#f6a39d;stroke-width:2.10015"
           d="M 1033.9533,1398.714 C 826.90323,1191.6575 657.49866,1020.8437 657.49866,1019.1279 c 0,-4.0827 751.97494,-756.04108 756.05774,-756.04108 4.0828,0 756.0578,751.95838 756.0578,756.04108 0,4.0979 -751.9599,756.0526 -756.0578,756.0526 -1.7317,0 -172.5531,-169.4099 -379.6031,-376.4665 z m 696.7282,-63.5116 316.0698,-316.0705 -316.594,-316.58937 -316.5939,-316.58939 -316.5975,316.59288 -316.5974,316.59288 316.0663,316.0669 c 173.8365,173.8369 316.5412,316.067 317.1216,316.067 0.5804,0 143.2867,-142.2317 317.1251,-316.0704 z m -516.21,9.0417 c -3.7524,-3.7523 -3.5119,-59.1653 0.2704,-62.3043 1.869,-1.551 23.0068,-2.5101 63.5299,-2.8823 l 60.7289,-0.5578 -16.0615,-7.8511 c -42.1934,-20.6249 -76.1544,-55.5242 -96.3441,-99.006 -7.6611,-16.4994 -16.7543,-47.5589 -16.7543,-57.2273 0,-2.5988 -4.6404,-10.7793 -10.3119,-18.1789 -18.6084,-24.2781 -24.8595,-39.6838 -32.879,-81.0302 -6.7189,-34.64093 -7.1845,-39.79738 -7.2306,-80.07775 -0.032,-27.98184 -1.4945,-56.56144 -4.1776,-81.64302 -2.2705,-21.22471 -3.6172,-39.41709 -2.9927,-40.4275 2.2696,-3.67227 6.6098,-1.57794 25.5701,12.33872 10.6225,7.79674 24.1887,16.89992 30.1471,20.22932 l 10.8337,6.05343 -1.3829,-7.1035 c -0.7606,-3.90693 -2.3349,-29.7849 -3.4984,-57.50662 -1.1635,-27.72172 -3.4814,-58.88206 -5.1508,-69.2452 -4.0119,-24.90365 -1.9436,-26.94475 11.7649,-11.60981 5.679,6.35289 16.2287,19.9149 23.4437,30.13781 11.2314,15.91389 14.8976,19.48881 25.4912,24.85681 l 12.3732,6.2697 -1.2445,-8.05576 c -8.6704,-56.12684 -6.6411,-87.71263 7.3973,-115.13778 8.4962,-16.59809 8.5618,-16.90082 6.1705,-28.47817 -5.151,-24.93845 -2.2142,-24.66233 19.3592,1.82012 10.1333,12.43907 16.8025,22.76508 18.3036,28.33996 1.299,4.82376 4.2596,12.55604 6.5793,17.18284 5.2335,10.43857 20.0386,30.46369 22.5226,30.46369 1.0123,0 5.2247,-8.74179 9.3609,-19.4262 10.5608,-27.27998 20.1649,-80.62818 20.1649,-112.01006 0,-19.65195 1.2702,-29.28699 7.3549,-55.79017 10.5537,-45.96893 12.3395,-46.32358 22.136,-4.39612 4.1963,17.95954 11.3268,39.96915 18.876,58.26429 6.6727,16.171 15.5312,40.83997 19.6856,54.8199 7.2198,24.29572 7.5533,26.82274 7.5533,57.22855 0,17.49576 0.4516,31.81046 1.0036,31.81046 0.5519,0 6.3242,-2.59891 12.8273,-5.77536 10.6379,-5.1961 12.5331,-7.18154 18.8958,-19.79524 6.7693,-13.41972 15.577,-46.63156 15.577,-58.73736 0,-6.72751 2.7732,-9.19764 5.9835,-5.32956 1.2424,1.4971 10.3277,20.07626 20.1895,41.28702 l 17.9304,38.56505 0.015,22.21881 c 0.01,12.22032 -1.1002,29.53778 -2.4618,38.48322 -1.3616,8.94544 -1.9343,16.80573 -1.2728,17.46727 2.1023,2.10221 21.3143,-8.93379 28.2334,-16.21811 3.6637,-3.85712 9.1239,-12.6235 12.1338,-19.48085 4.754,-10.83112 5.8676,-12.0718 8.4824,-9.45058 1.6556,1.65952 6.2794,14.95267 10.2753,29.54034 l 7.2654,26.52305 -8.0904,27.36753 c -8.7658,29.6523 -13.8127,52.40807 -12.0206,54.20007 0.6199,0.61992 6.1827,-1.39339 12.3618,-4.47399 14.0465,-7.00339 33.2855,-25.36186 33.2855,-31.76291 0,-5.25642 3.2016,-8.23604 5.264,-4.89906 0.7446,1.20482 5.9927,21.30273 11.6623,44.66204 l 10.3085,42.47143 0.034,45.41895 0.034,45.4189 -9.5214,27.7973 c -13.1709,38.4517 -13.1761,38.4626 -35.5783,74.3302 -11.5393,18.4753 -22.0781,38.1499 -24.9457,46.5703 -18.2185,53.4987 -55.8908,96.3663 -105.5043,120.0543 l -16.6149,7.9328 72.4556,1.0501 72.4555,1.0501 v 32.552 32.552 l -204.8604,0.5353 c -157.596,0.4118 -205.4442,-0.048 -207.3908,-1.9951 z m 231.4075,-121.339 c 24.9891,-6.3911 43.8363,-17.3246 63.4107,-36.7854 18.8328,-18.7235 31.5476,-40.9095 37.8271,-66.004 4.6879,-18.7343 3.1903,-56.9917 -2.9664,-75.7805 -19.386,-59.16115 -78.3386,-99.53655 -140.0447,-95.91368 -36.4737,2.14142 -65.6596,15.2562 -91.5355,41.13178 -17.9281,17.9278 -28.586,35.4673 -35.8407,58.9822 -7.1232,23.0887 -6.701,57.409 0.9948,80.855 16.1723,49.2706 56.3813,85.7158 105.3798,95.5157 16.334,3.2668 45.8568,2.3257 62.7749,-2.0011 z m 160.4811,-252.65176 c 0.5529,-21.06872 0.1508,-38.32532 -0.9178,-39.39393 -2.3807,-2.38068 -36.474,22.64995 -36.474,26.77853 0,1.61922 3.3692,7.35648 7.4871,12.74945 4.1179,5.39296 11.3812,17.66392 16.1406,27.26878 7.1701,14.46963 9.0073,16.83133 10.717,13.77643 1.1348,-2.0278 2.506,-20.55848 3.0471,-41.17926 z m -364.47,5.16126 c 2.918,-4.40925 10.5639,-14.21513 16.9909,-21.79083 11.6949,-13.78504 12.5083,-16.39519 5.1097,-16.39519 -6.2392,0 -16.4303,-6.06767 -28.9479,-17.23535 -11.3306,-10.10864 -11.5635,-10.20363 -12.2111,-4.98092 -0.363,2.92834 2.2359,17.23037 5.7755,31.7823 3.5396,14.55191 6.4356,28.74824 6.4356,31.54742 0,2.79918 0.3469,5.08941 0.771,5.08941 0.424,0 3.1584,-3.60758 6.0763,-8.01684 z m 288.631,-57.61222 c -0.6048,-2.59891 -4.1976,-21.02755 -7.9839,-40.95254 -3.7863,-19.92498 -7.6526,-36.22724 -8.5917,-36.22724 -1.9207,0 -33.341,47.60696 -34.6519,52.50325 -0.5883,2.19724 2.9113,4.63986 11.5685,8.07456 6.8266,2.70839 17.9787,8.54066 24.7825,12.96059 14.6029,9.48644 16.3354,9.91052 14.8765,3.64138 z m -214.0772,-9.28245 c 10.0961,-5.39412 18.7863,-10.15541 19.3116,-10.58067 0.5253,-0.42525 -3.0342,-8.5339 -7.9099,-18.01924 -4.8757,-9.48532 -8.8495,-18.356 -8.8307,-19.7126 0.061,-4.41407 -8.7774,-40.87512 -9.688,-39.96453 -0.4866,0.4866 -2.175,8.81509 -3.752,18.50771 -1.577,9.69263 -5.8916,27.98115 -9.588,40.64115 -6.0648,20.77191 -6.4643,23.79484 -4.094,30.97692 1.4447,4.3773 3.4295,7.95874 4.4106,7.95874 0.9812,0 10.0444,-4.41336 20.1404,-9.80748 z m 85.5616,-22.95144 c 12.706,-0.68353 28.536,-0.35087 35.1777,0.73922 8.9052,1.46161 12.0759,1.3418 12.0759,-0.45629 0,-1.34106 -2.7261,-10.50303 -6.0579,-20.3599 -3.3319,-9.85686 -7.6545,-27.754 -9.6058,-39.77138 -1.9513,-12.01741 -4.0076,-23.48299 -4.5697,-25.47908 -1.0829,-3.84523 -27.4004,-35.78342 -30.4666,-36.97325 -0.9922,-0.38504 -1.804,7.53044 -1.804,17.58994 v 18.28997 l -14.7011,27.82403 -14.7011,27.82404 v 17.30973 17.30971 l 5.7754,-1.30197 c 3.1765,-0.7161 16.1713,-1.86124 28.8772,-2.54477 z"
           id="path9845" />
        <path
           style="fill:#f3837c;stroke-width:2.10015"
           d="M 1035.5167,1396.815 658.52701,1019.151 1035.5189,642.16898 c 207.3455,-207.34011 377.4637,-376.98203 378.0405,-376.98203 0.5768,0 170.93,169.87099 378.5626,377.49108 l 377.5139,377.49107 -377.5147,377.5026 c -207.6331,207.6264 -377.9872,377.3461 -378.5648,377.1549 -0.5775,-0.1911 -170.6954,-170.2964 -378.0397,-378.0116 z m 696.7364,-58.984 c 173.5535,-173.5481 315.5518,-316.4893 315.5518,-317.6473 0,-1.1579 -142.7063,-144.80721 -317.1251,-319.22062 L 1413.5547,383.84778 1095.908,701.48984 778.26136,1019.1319 1095.3812,1336.2524 c 174.416,174.4163 318.065,317.1205 319.2201,317.1205 1.1551,0 144.0984,-141.9938 317.6518,-315.5419 z m -517.7816,6.4131 c -3.7524,-3.7523 -3.5119,-59.1653 0.2704,-62.3043 1.869,-1.551 23.0068,-2.5101 63.5299,-2.8823 l 60.7289,-0.5578 -15.3406,-7.8749 c -42.9071,-22.026 -74.2137,-52.8508 -94.3836,-92.9313 -7.8654,-15.6297 -16.6701,-43.1731 -18.5632,-58.0708 -1.1596,-9.1254 -3.5029,-13.9924 -12.4869,-25.9344 -18.5566,-24.6666 -23.2585,-36.4504 -31.4531,-78.8287 -6.9093,-35.73137 -7.3385,-40.46936 -7.374,-81.41165 -0.025,-28.40168 -1.4481,-56.5177 -4.1061,-81.10268 -2.2376,-20.6967 -3.5824,-38.41654 -2.9886,-39.37744 2.0546,-3.32423 5.6327,-1.69951 20.4342,9.27863 18.1446,13.45767 43.6344,29.34499 44.9579,28.02145 0.5338,-0.53377 -0.03,-7.41136 -1.253,-15.28353 -1.223,-7.87215 -2.8484,-34.14694 -3.6119,-58.38839 -0.7636,-24.24146 -2.6022,-51.64816 -4.0857,-60.90377 -4.1148,-25.67285 -2.2366,-26.09916 16.3124,-3.70259 7.4139,8.9518 17.3765,22.06856 22.139,29.14838 6.4136,9.53417 11.7341,14.6077 20.5162,19.56395 6.5213,3.68037 12.2562,6.29236 12.7442,5.80444 0.4879,-0.48794 -0.7216,-13.85552 -2.6878,-29.70575 -4.9582,-39.96924 -2.1236,-65.51081 10.1923,-91.8385 6.7192,-14.36344 8.2382,-19.67532 7.207,-25.20156 -4.0185,-21.53425 -4.1079,-23.33159 -1.1111,-22.33644 6.3189,2.09835 33.206,36.38469 36.7287,46.83628 1.9465,5.77536 5.4061,14.28089 7.688,18.90117 5.9147,11.97604 20.394,30.82966 23.0076,29.95846 4.8037,-1.6012 15.0517,-33.90208 21.8314,-68.81086 5.612,-28.8967 7.138,-41.99885 7.1392,-61.29833 0,-20.65385 1.1808,-29.64237 7.4392,-56.6857 7.4045,-31.99616 9.7541,-38.04057 13.2827,-34.1704 1.0005,1.09732 4.9019,14.75342 8.6699,30.34688 3.8744,16.03433 12.0789,41.1254 18.8846,57.75358 6.6186,16.171 15.4757,40.9221 19.6823,55.00247 7.326,24.52124 7.6485,26.93417 7.6485,57.22854 0,20.36358 0.7729,31.6279 2.17,31.6279 1.1935,0 6.8587,-2.37594 12.5894,-5.27985 9.0392,-4.58045 11.3908,-7.20859 17.7518,-19.8396 7.1549,-14.20756 15.7925,-46.33479 15.7925,-58.73958 0,-8.11665 3.238,-9.89149 7.0938,-3.88833 1.693,2.63572 10.7127,21.41836 20.0438,41.73918 l 16.9658,36.94696 -0.077,23.95681 c -0.042,13.17626 -1.3649,30.57223 -2.9387,38.65773 -1.5738,8.0855 -2.4814,15.09743 -2.0168,15.58208 0.4645,0.48463 5.4965,-1.29763 11.1821,-3.96059 13.3026,-6.2305 25.7935,-19.42852 30.4844,-32.21003 2.5849,-7.04317 4.7195,-9.89206 7.0721,-9.43898 3.4035,0.65546 4.5237,3.69073 13.8194,37.44503 l 4.9346,17.91816 -7.9078,26.80184 c -8.3628,28.34403 -13.7899,53.37813 -11.9669,55.20104 0.6012,0.60125 6.6229,-1.72482 13.3816,-5.16899 13.0382,-6.64426 31.3763,-23.8664 32.5733,-30.5911 0.3942,-2.21444 1.8062,-4.38896 3.1378,-4.83227 1.5718,-0.52331 6.1762,14.72873 13.126,43.4805 l 10.705,44.28654 v 43.57242 43.57243 l -11.5011,34.36016 c -10.4505,31.2218 -13.3716,37.3536 -31.9807,67.1326 -12.2395,19.5863 -22.7782,39.2582 -26.1925,48.8919 -6.6636,18.8018 -16.5023,38.9106 -25.3458,51.8028 -18.2233,26.566 -47.5472,52.1707 -76.5842,66.8706 l -19.9825,10.1161 72.1666,1.0501 72.1666,1.0501 v 32.552 32.552 l -204.8604,0.5353 c -157.596,0.4118 -205.4442,-0.048 -207.3908,-1.9951 z m 231.4075,-121.339 c 25.1202,-6.4246 43.8647,-17.2659 63.4756,-36.7126 14.2404,-14.1213 18.6134,-20.1795 26.6001,-36.8508 5.2569,-10.9732 10.5827,-24.9593 11.8351,-31.0803 3.2763,-16.0131 2.8063,-49.9533 -0.8941,-64.5594 -26.1726,-103.30823 -154.8487,-140.61729 -231.7118,-67.18379 -18.777,17.93919 -29.8245,35.38509 -37.2772,58.86709 -24.2363,76.3642 21.9923,159.6742 98.9226,178.2714 18.7617,4.5354 49.6936,4.1987 69.0497,-0.7516 z m 160.4811,-252.65176 c 0.5901,-22.48591 0.1792,-38.29697 -1.0266,-39.50269 -2.4072,-2.40724 -36.3652,22.14618 -36.3652,26.29398 0,1.50105 4.3895,9.23348 9.7546,17.18316 5.365,7.94969 12.5921,20.46728 16.0601,27.81681 5.401,11.4462 6.613,12.8134 8.4494,9.532 1.1792,-2.107 2.5866,-20.70248 3.1277,-41.32326 z m -348.8559,-14.26839 c 7.1559,-8.90275 12.4325,-16.76496 11.7259,-17.47159 -0.7067,-0.70663 -3.0644,-1.28478 -5.2394,-1.28478 -6.3686,0 -16.5682,-6.14855 -28.9479,-17.45046 -11.4874,-10.48721 -11.5545,-10.51468 -12.2111,-4.99338 -0.363,3.05351 2.2359,17.45794 5.7755,32.00987 3.5396,14.55191 6.4881,28.98451 6.5523,32.07245 l 0.1165,5.61445 4.6087,-6.15487 c 2.5348,-3.3852 10.4635,-13.43895 17.6194,-22.34169 z m 273.6692,-35.03238 c 0.013,-2.46066 -14.7949,-76.79823 -15.9989,-80.31956 -1.0474,-3.06333 -36.5304,48.99894 -36.4921,53.5429 0.011,1.15508 7.9602,5.73166 17.6679,10.17018 9.7076,4.43854 20.8035,10.29881 24.6575,13.02282 7.375,5.21265 10.1524,6.19175 10.1656,3.58366 z m -224.6298,-6.89332 c 3.2968,-2.34748 11.2395,-6.66953 17.6505,-9.60454 6.411,-2.935 11.6349,-6.44843 11.6087,-7.80759 -0.026,-1.35917 -3.3669,-8.61409 -7.4237,-16.12205 -4.6693,-8.64155 -9.2831,-22.07115 -12.573,-36.59704 -2.8584,-12.62039 -5.5708,-23.31988 -6.0275,-23.77662 -0.9152,-0.91511 -2.4103,6.01332 -4.4177,20.47119 -0.7217,5.19782 -4.6663,21.14728 -8.7658,35.44324 -6.6433,23.16687 -7.1886,26.877 -5.0164,34.12712 2.7812,9.28251 6.1398,10.15024 14.9649,3.86629 z m 94.4118,-28.43234 c 12.1285,-0.71818 27.7222,-0.36655 34.6527,0.78138 6.9305,1.14793 13.0275,1.67867 13.5488,1.17943 0.5212,-0.49924 -2.0386,-10.08932 -5.6887,-21.31126 -3.65,-11.22194 -8.1445,-29.85412 -9.9877,-41.40484 -1.8432,-11.55071 -4.2357,-23.15194 -5.3167,-25.78048 -2.3333,-5.67361 -27.4482,-36.17336 -29.7868,-36.17336 -0.892,0 -1.6219,7.57307 -1.6219,16.82904 0,16.64101 -0.1642,17.15689 -14.7011,46.17487 -14.5894,29.12288 -14.7011,29.47555 -14.7011,46.4197 v 17.07384 l 5.7754,-1.24126 c 3.1765,-0.68269 15.6987,-1.82887 27.8271,-2.54706 z"
           id="path9843" />
        <path
           style="fill:#a1a1a1;stroke-width:2.10015"
           d="m 1035.0061,1395.6257 -375.40004,-375.4624 377.49004,-377.48458 377.4901,-377.4846 377.0056,376.97855 377.0057,376.97853 -375.4037,375.3895 c -206.472,206.4642 -377.065,375.65 -379.0956,375.9684 -2.4922,0.3908 -125.6907,-121.44 -379.0921,-374.8834 z m 697.7747,-58.3223 318.1691,-318.1697 -317.119,-317.11969 c -174.4155,-174.4158 -318.5366,-317.11964 -320.2693,-317.11964 -4.1189,0 -634.25364,630.11533 -634.25364,634.23403 0,2.7526 631.50494,636.3447 634.24844,636.3447 0.5804,0 144.2314,-143.1764 319.2244,-318.1697 z m -518.3093,6.9407 c -3.7524,-3.7523 -3.5119,-59.1653 0.2704,-62.3043 1.869,-1.551 23.0068,-2.5101 63.5299,-2.8823 l 60.7289,-0.5578 -15.3406,-7.8749 c -42.9071,-22.026 -74.2137,-52.8508 -94.3836,-92.9313 -7.8654,-15.6297 -16.6701,-43.1731 -18.5632,-58.0708 -1.1596,-9.1254 -3.5029,-13.9924 -12.4869,-25.9344 -18.5566,-24.6666 -23.2585,-36.4504 -31.4531,-78.8287 -6.9093,-35.73137 -7.3385,-40.46936 -7.374,-81.41165 -0.025,-28.40168 -1.4481,-56.5177 -4.1061,-81.10268 -2.2376,-20.6967 -3.5824,-38.41654 -2.9886,-39.37744 2.0546,-3.32423 5.6327,-1.69951 20.4342,9.27863 18.1446,13.45767 43.6344,29.34499 44.9579,28.02145 0.5338,-0.53377 -0.03,-7.41136 -1.253,-15.28353 -1.223,-7.87215 -2.8484,-34.14694 -3.6119,-58.38839 -0.7636,-24.24146 -2.6022,-51.64816 -4.0857,-60.90377 -4.1148,-25.67285 -2.2366,-26.09916 16.3124,-3.70259 7.4139,8.9518 17.3765,22.06856 22.139,29.14838 6.4136,9.53417 11.7341,14.6077 20.5162,19.56395 6.5213,3.68037 12.2562,6.29236 12.7442,5.80444 0.4879,-0.48794 -0.7216,-13.85552 -2.6878,-29.70575 -4.9582,-39.96924 -2.1236,-65.51081 10.1923,-91.8385 6.7192,-14.36344 8.2382,-19.67532 7.207,-25.20156 -4.0185,-21.53425 -4.1079,-23.33159 -1.1111,-22.33644 6.3189,2.09835 33.206,36.38469 36.7287,46.83628 1.9465,5.77536 5.4061,14.28089 7.688,18.90117 5.9147,11.97604 20.394,30.82966 23.0076,29.95846 4.8037,-1.6012 15.0517,-33.90208 21.8314,-68.81086 5.612,-28.8967 7.138,-41.99885 7.1392,-61.29833 0,-20.65385 1.1808,-29.64237 7.4392,-56.6857 7.4045,-31.99616 9.7541,-38.04057 13.2827,-34.1704 1.0005,1.09732 4.9019,14.75342 8.6699,30.34688 3.8744,16.03433 12.0789,41.1254 18.8846,57.75358 6.6186,16.171 15.4757,40.9221 19.6823,55.00247 7.326,24.52124 7.6485,26.93417 7.6485,57.22854 0,20.36358 0.7729,31.6279 2.17,31.6279 1.1935,0 6.8587,-2.37594 12.5894,-5.27985 9.0392,-4.58045 11.3908,-7.20859 17.7518,-19.8396 7.1549,-14.20756 15.7925,-46.33479 15.7925,-58.73958 0,-8.11665 3.238,-9.89149 7.0938,-3.88833 1.693,2.63572 10.7127,21.41836 20.0438,41.73918 l 16.9658,36.94696 -0.077,23.95681 c -0.042,13.17626 -1.3649,30.57223 -2.9387,38.65773 -1.5738,8.0855 -2.4814,15.09743 -2.0168,15.58208 0.4645,0.48463 5.4965,-1.29763 11.1821,-3.96059 13.3026,-6.2305 25.7935,-19.42852 30.4844,-32.21003 2.5849,-7.04317 4.7195,-9.89206 7.0721,-9.43898 3.4035,0.65546 4.5237,3.69073 13.8194,37.44503 l 4.9346,17.91816 -7.9078,26.80184 c -8.3628,28.34403 -13.7899,53.37813 -11.9669,55.20104 0.6012,0.60125 6.6229,-1.72482 13.3816,-5.16899 13.0382,-6.64426 31.3763,-23.8664 32.5733,-30.5911 0.3942,-2.21444 1.8062,-4.38896 3.1378,-4.83227 1.5718,-0.52331 6.1762,14.72873 13.126,43.4805 l 10.705,44.28654 v 43.57242 43.57243 l -11.5011,34.36016 c -10.4505,31.2218 -13.3716,37.3536 -31.9807,67.1326 -12.2395,19.5863 -22.7782,39.2582 -26.1925,48.8919 -6.6636,18.8018 -16.5023,38.9106 -25.3458,51.8028 -18.2233,26.566 -47.5472,52.1707 -76.5842,66.8706 l -19.9825,10.1161 72.1666,1.0501 72.1666,1.0501 v 32.552 32.552 l -204.8604,0.5353 c -157.596,0.4118 -205.4442,-0.048 -207.3908,-1.9951 z m 231.4075,-121.339 c 25.1202,-6.4246 43.8647,-17.2659 63.4756,-36.7126 14.2404,-14.1213 18.6134,-20.1795 26.6001,-36.8508 5.2569,-10.9732 10.5827,-24.9593 11.8351,-31.0803 3.2763,-16.0131 2.8063,-49.9533 -0.8941,-64.5594 -26.1726,-103.30823 -154.8487,-140.61729 -231.7118,-67.18379 -18.777,17.93919 -29.8245,35.38509 -37.2772,58.86709 -24.2363,76.3642 21.9923,159.6742 98.9226,178.2714 18.7617,4.5354 49.6936,4.1987 69.0497,-0.7516 z m 160.4811,-252.65176 c 0.5901,-22.48591 0.1792,-38.29697 -1.0266,-39.50269 -2.4072,-2.40724 -36.3652,22.14618 -36.3652,26.29398 0,1.50105 4.3895,9.23348 9.7546,17.18316 5.365,7.94969 12.5921,20.46728 16.0601,27.81681 5.401,11.4462 6.613,12.8134 8.4494,9.532 1.1792,-2.107 2.5866,-20.70248 3.1277,-41.32326 z m -348.8559,-14.26839 c 7.1559,-8.90275 12.4325,-16.76496 11.7259,-17.47159 -0.7067,-0.70663 -3.0644,-1.28478 -5.2394,-1.28478 -6.3686,0 -16.5682,-6.14855 -28.9479,-17.45046 -11.4874,-10.48721 -11.5545,-10.51468 -12.2111,-4.99338 -0.363,3.05351 2.2359,17.45794 5.7755,32.00987 3.5396,14.55191 6.4881,28.98451 6.5523,32.07245 l 0.1165,5.61445 4.6087,-6.15487 c 2.5348,-3.3852 10.4635,-13.43895 17.6194,-22.34169 z m 273.6692,-35.03238 c 0.013,-2.46066 -14.7949,-76.79823 -15.9989,-80.31956 -1.0474,-3.06333 -36.5304,48.99894 -36.4921,53.5429 0.011,1.15508 7.9602,5.73166 17.6679,10.17018 9.7076,4.43854 20.8035,10.29881 24.6575,13.02282 7.375,5.21265 10.1524,6.19175 10.1656,3.58366 z m -224.6298,-6.89332 c 3.2968,-2.34748 11.2395,-6.66953 17.6505,-9.60454 6.411,-2.935 11.6349,-6.44843 11.6087,-7.80759 -0.026,-1.35917 -3.3669,-8.61409 -7.4237,-16.12205 -4.6693,-8.64155 -9.2831,-22.07115 -12.573,-36.59704 -2.8584,-12.62039 -5.5708,-23.31988 -6.0275,-23.77662 -0.9152,-0.91511 -2.4103,6.01332 -4.4177,20.47119 -0.7217,5.19782 -4.6663,21.14728 -8.7658,35.44324 -6.6433,23.16687 -7.1886,26.877 -5.0164,34.12712 2.7812,9.28251 6.1398,10.15024 14.9649,3.86629 z m 94.4118,-28.43234 c 12.1285,-0.71818 27.7222,-0.36655 34.6527,0.78138 6.9305,1.14793 13.0275,1.67867 13.5488,1.17943 0.5212,-0.49924 -2.0386,-10.08932 -5.6887,-21.31126 -3.65,-11.22194 -8.1445,-29.85412 -9.9877,-41.40484 -1.8432,-11.55071 -4.2357,-23.15194 -5.3167,-25.78048 -2.3333,-5.67361 -27.4482,-36.17336 -29.7868,-36.17336 -0.892,0 -1.6219,7.57307 -1.6219,16.82904 0,16.64101 -0.1642,17.15689 -14.7011,46.17487 -14.5894,29.12288 -14.7011,29.47555 -14.7011,46.4197 v 17.07384 l 5.7754,-1.24126 c 3.1765,-0.68269 15.6987,-1.82887 27.8271,-2.54706 z"
           id="path9841" />
        <path
           style="fill:#f06055;stroke-width:2.10015"
           d="m 1035.0061,1395.6257 -375.40004,-375.4624 377.49004,-377.48458 377.4901,-377.4846 377.0056,376.97855 377.0057,376.97853 -375.4037,375.3895 c -206.472,206.4642 -377.065,375.65 -379.0956,375.9684 -2.4922,0.3908 -125.6907,-121.44 -379.0921,-374.8834 z m 697.7747,-58.3223 318.1691,-318.1697 -317.119,-317.11969 c -174.4155,-174.4158 -318.5366,-317.11964 -320.2693,-317.11964 -4.1189,0 -634.25364,630.11533 -634.25364,634.23403 0,2.7526 631.50494,636.3447 634.24844,636.3447 0.5804,0 144.2314,-143.1764 319.2244,-318.1697 z m -517.4609,4.0388 c -1.6623,-4.3318 -1.6656,-52.0401 0,-56.3703 1.1244,-2.93 8.9301,-3.322 66.1551,-3.322 36.1699,0 64.8805,-0.8214 64.8805,-1.8562 0,-1.0209 -5.1034,-3.9275 -11.3408,-6.459 -46.953,-19.0566 -90.2404,-62.4707 -109.4597,-109.7802 -3.8795,-9.5496 -8.93,-26.5972 -11.2232,-37.8834 -3.6131,-17.7817 -5.2759,-21.8458 -12.4598,-30.4519 -4.5596,-5.4623 -12.2615,-17.8463 -17.1153,-27.52 -7.413,-14.7742 -9.9738,-23.5113 -16.0044,-54.6034 -6.7574,-34.83927 -7.1868,-39.66866 -7.3059,-82.16761 -0.08,-28.39298 -1.5302,-58.01498 -3.9082,-79.80494 -2.0799,-19.05868 -3.0507,-35.47435 -2.1574,-36.47926 0.8933,-1.00491 7.2438,2.49699 14.1123,7.78205 18.4759,14.21671 49.3592,33.13537 51.1353,31.32478 0.8511,-0.86762 0.2238,-7.72039 -1.3939,-15.22835 -1.6178,-7.50797 -3.0262,-24.04649 -3.1297,-36.75228 -0.2027,-24.85645 -3.208,-75.61491 -5.4426,-91.92135 -1.1065,-8.07443 -0.8098,-9.77632 1.5303,-8.7785 3.6822,1.57003 19.0308,20.62105 32.4455,40.27213 8.6111,12.61437 12.5548,16.33015 23.3561,22.00678 7.1475,3.7564 13.6233,6.20205 14.3906,5.43478 0.7673,-0.76728 -0.2693,-15.39561 -2.3035,-32.50743 -3.4789,-29.26376 -3.4915,-32.52948 -0.212,-54.96174 2.8094,-19.21687 4.9684,-26.66895 11.1149,-38.36558 7.7826,-14.81029 8.345,-20.43515 3.701,-37.01622 -2.4325,-8.68473 2.4174,-4.87457 17.3758,13.65084 10.8457,13.43189 15.755,21.55305 18.2465,30.18366 5.0034,17.33233 28.4016,51.14117 32.5247,46.99613 1.149,-1.15508 5.426,-10.60566 9.5045,-21.00131 10.789,-27.4999 18.2895,-68.50817 20.1662,-110.25683 1.2749,-28.36177 2.7985,-39.73698 8.3931,-62.66328 4.4146,-18.09065 7.5567,-27.28991 8.872,-25.97466 1.1201,1.12008 5.3089,15.02246 9.3085,30.89419 3.9996,15.87174 12.0676,40.31862 17.9289,54.32642 5.8612,14.00779 14.3248,37.67827 18.808,52.60108 7.9338,26.40871 8.1512,27.99108 8.1512,59.32867 0,36.88205 -0.3667,36.33795 17.7736,26.37188 14.2007,-7.80162 24.4544,-25.63899 30.3985,-52.88089 2.3825,-10.91911 4.3319,-22.1023 4.3319,-24.85154 0,-2.74926 0.9711,-4.67493 2.1581,-4.27928 1.1869,0.39564 10.1651,17.96571 19.9515,39.04458 l 17.7934,38.32524 v 21.50917 c 0,11.83004 -1.4099,29.50421 -3.1296,39.27592 -1.7197,9.77172 -2.4088,18.48457 -1.5315,19.3619 2.3098,2.30981 21.5113,-7.1017 30.3856,-14.89335 6.7495,-5.92602 13.0579,-16.36007 17.1475,-28.36185 0.8734,-2.56319 2.1022,-3.29616 3.3815,-2.01691 2.6943,2.69432 14.654,45.59085 14.654,52.56053 0,3.03626 -2.7809,14.60327 -6.1798,25.7045 -3.3989,11.1012 -7.6509,26.79942 -9.4489,34.88492 -1.798,8.0855 -3.7605,16.82729 -4.361,19.42621 -2.5817,11.17269 20.445,0.78441 40.0255,-18.0572 7.6201,-7.33254 14.1734,-13.00289 14.5629,-12.60078 0.3896,0.40211 5.0501,18.55608 10.3569,40.34216 l 9.6478,39.61103 v 43.41568 43.41565 l -11.4129,34.09696 c -10.4673,31.2716 -13.2257,37.0086 -33.2884,69.2328 -14.8703,23.8842 -23.4026,40.0027 -26.6444,50.334 -15.7867,50.3109 -62.3806,100.0942 -111.8933,119.5527 -7.7968,3.0642 -14.176,6.355 -14.176,7.313 0,0.9581 33.7863,1.9901 75.0807,2.2934 l 75.0807,0.5516 v 30.4519 30.4519 l -204.0119,0.5353 c -184.675,0.4847 -204.1331,0.2196 -205.2907,-2.7969 z m 229.1981,-115.3487 c 50.3034,-11.8604 91.1248,-52.423 104.6169,-103.9535 4.7068,-17.9768 4.6732,-51.1627 -0.07,-69.2684 -13.4592,-51.3755 -57.1406,-93.35052 -108.4885,-104.25054 -22.5639,-4.78978 -52.6227,-3.04449 -74.2533,4.31138 -36.3462,12.36013 -65.3252,37.48722 -81.8595,70.97866 -12.369,25.0541 -16.5661,44.6526 -15.1896,70.9272 3.187,60.8328 43.5924,111.9864 102.2793,129.4864 19.1085,5.698 52.8324,6.5155 72.9648,1.7688 z m 161.072,-210.5351 c 0.7748,-3.1764 1.9506,-24.44024 2.6131,-47.2529 1.4165,-48.78272 2.2844,-47.53124 -20.9702,-30.2374 -24.7696,18.42054 -24.3518,17.3614 -13.1632,33.36664 5.2284,7.47911 13.4253,21.76604 18.2154,31.74876 4.7901,9.9826 9.4263,18.1503 10.3027,18.1503 0.8765,0 2.2274,-2.5989 3.0022,-5.7754 z m -360.0459,-40.95251 c 5.0754,-7.2192 13.855,-18.03537 19.5102,-24.03595 11.003,-11.67487 11.2936,-15.34149 1.2159,-15.34149 -8.269,0 -21.5635,-7.93933 -33.2398,-19.85053 -16.8311,-17.16966 -17.4901,-13.54063 -6.2074,34.18732 3.3658,14.23813 6.1196,28.65027 6.1196,32.02699 0,3.37671 0.759,6.13947 1.6867,6.13947 0.9277,0 5.8394,-5.90661 10.9148,-13.12581 z m 287.7215,-51.69844 c 0,-4.00505 -13.9729,-78.05873 -16.0233,-84.92059 -0.868,-2.90473 -1.7889,-3.24002 -3.957,-1.44069 -3.5589,2.95358 -39.6144,58.7276 -38.5557,59.64151 0.4298,0.37105 8.8147,4.47618 18.6329,9.12246 9.8183,4.64629 22.1042,11.31506 27.3021,14.81949 11.2784,7.60394 12.601,7.89548 12.601,2.77782 z m -215.7438,-11.8305 c 12.3411,-6.34942 20.4134,-11.77318 20.4192,-13.71956 0.01,-1.77041 -3.3012,-9.45398 -7.3479,-17.07462 -4.7087,-8.86757 -9.2766,-22.45184 -12.6883,-37.73361 -8.7277,-39.0936 -9.7089,-39.95638 -13.4222,-11.80218 -1.4092,10.68441 -5.7962,30.39182 -9.749,43.79422 -3.9528,13.40242 -7.1868,25.90532 -7.1868,27.78424 0,4.77591 6.5323,20.60845 8.1959,19.86454 0.7532,-0.3368 10.5538,-5.33767 21.7791,-11.11303 z m 84.4837,-23.41609 c 9.2407,-0.6561 23.8871,-0.18985 32.5475,1.03593 8.6605,1.22587 16.4582,1.51699 17.3282,0.64693 0.8701,-0.87007 -1.6751,-11.25332 -5.6559,-23.07388 -3.9808,-11.82058 -8.9224,-32.09125 -10.9812,-45.04594 l -3.7434,-23.55397 -15.8422,-18.74102 c -8.7133,-10.30756 -17.0036,-19.12811 -18.4229,-19.60122 -1.9146,-0.63819 -2.5806,4.06967 -2.5806,18.24223 v 19.10243 l -15.386,30.95069 -15.386,30.95066 0.9272,16.52826 0.9271,16.52825 9.7335,-1.3882 c 5.3534,-0.76353 17.294,-1.92503 26.5347,-2.58115 z"
           id="path9839" />
        <path
           style="fill:#ee4034;stroke-width:2.10015"
           d="m 1037.627,1394.0061 -374.875,-374.8739 375.4022,-375.3968 375.4022,-375.39679 375.4022,375.39679 375.4022,375.3968 -374.8749,374.8739 c -206.1813,206.1807 -375.3495,374.874 -375.9295,374.874 -0.58,0 -169.7482,-168.6933 -375.9294,-374.874 z m 696.7211,-54.0854 c 174.7114,-174.7088 317.6571,-319.0591 317.6571,-320.7784 0,-4.9553 -632.4232,-636.34806 -637.3866,-636.34806 -5.8368,0 -637.4108,631.55976 -637.4108,637.39636 0,4.9681 631.3971,637.3826 636.3572,637.3826 1.7194,0 146.0717,-142.9436 320.7831,-317.6525 z m -519.0282,1.4215 c -1.6623,-4.3318 -1.6656,-52.0401 0,-56.3703 1.1244,-2.93 8.9301,-3.322 66.1551,-3.322 36.1699,0 64.8805,-0.8214 64.8805,-1.8562 0,-1.0209 -5.1034,-3.9275 -11.3408,-6.459 -46.953,-19.0566 -90.2404,-62.4707 -109.4597,-109.7802 -3.8795,-9.5496 -8.93,-26.5972 -11.2232,-37.8834 -3.6131,-17.7817 -5.2759,-21.8458 -12.4598,-30.4519 -4.5596,-5.4623 -12.2615,-17.8463 -17.1153,-27.52 -7.413,-14.7742 -9.9738,-23.5113 -16.0044,-54.6034 -6.7574,-34.83927 -7.1868,-39.66866 -7.3059,-82.16761 -0.08,-28.39298 -1.5302,-58.01498 -3.9082,-79.80494 -2.0799,-19.05868 -3.0507,-35.47435 -2.1574,-36.47926 0.8933,-1.00491 7.2438,2.49699 14.1123,7.78205 18.4759,14.21671 49.3592,33.13537 51.1353,31.32478 0.8511,-0.86762 0.2238,-7.72039 -1.3939,-15.22835 -1.6178,-7.50797 -3.0262,-24.04649 -3.1297,-36.75228 -0.2027,-24.85645 -3.208,-75.61491 -5.4426,-91.92135 -1.1065,-8.07443 -0.8098,-9.77632 1.5303,-8.7785 3.6822,1.57003 19.0308,20.62105 32.4455,40.27213 8.6111,12.61437 12.5548,16.33015 23.3561,22.00678 7.1475,3.7564 13.6233,6.20205 14.3906,5.43478 0.7673,-0.76728 -0.2693,-15.39561 -2.3035,-32.50743 -3.4789,-29.26376 -3.4915,-32.52948 -0.212,-54.96174 2.8094,-19.21687 4.9684,-26.66895 11.1149,-38.36558 7.7826,-14.81029 8.345,-20.43515 3.701,-37.01622 -2.4325,-8.68473 2.4174,-4.87457 17.3758,13.65084 10.8457,13.43189 15.755,21.55305 18.2465,30.18366 5.0034,17.33233 28.4016,51.14117 32.5247,46.99613 1.149,-1.15508 5.426,-10.60566 9.5045,-21.00131 10.789,-27.4999 18.2895,-68.50817 20.1662,-110.25683 1.2749,-28.36177 2.7985,-39.73698 8.3931,-62.66328 4.4146,-18.09065 7.5567,-27.28991 8.872,-25.97466 1.1201,1.12008 5.3089,15.02246 9.3085,30.89419 3.9996,15.87174 12.0676,40.31862 17.9289,54.32642 5.8612,14.00779 14.3248,37.67827 18.808,52.60108 7.9338,26.40871 8.1512,27.99108 8.1512,59.32867 0,36.88205 -0.3667,36.33795 17.7736,26.37188 14.2007,-7.80162 24.4544,-25.63899 30.3985,-52.88089 2.3825,-10.91911 4.3319,-22.1023 4.3319,-24.85154 0,-2.74926 0.9711,-4.67493 2.1581,-4.27928 1.1869,0.39564 10.1651,17.96571 19.9515,39.04458 l 17.7934,38.32524 v 21.50917 c 0,11.83004 -1.4099,29.50421 -3.1296,39.27592 -1.7197,9.77172 -2.4088,18.48457 -1.5315,19.3619 2.3098,2.30981 21.5113,-7.1017 30.3856,-14.89335 6.7495,-5.92602 13.0579,-16.36007 17.1475,-28.36185 0.8734,-2.56319 2.1022,-3.29616 3.3815,-2.01691 2.6943,2.69432 14.654,45.59085 14.654,52.56053 0,3.03626 -2.7809,14.60327 -6.1798,25.7045 -3.3989,11.1012 -7.6509,26.79942 -9.4489,34.88492 -1.798,8.0855 -3.7605,16.82729 -4.361,19.42621 -2.5817,11.17269 20.445,0.78441 40.0255,-18.0572 7.6201,-7.33254 14.1734,-13.00289 14.5629,-12.60078 0.3896,0.40211 5.0501,18.55608 10.3569,40.34216 l 9.6478,39.61103 v 43.41568 43.41565 l -11.4129,34.09696 c -10.4673,31.2716 -13.2257,37.0086 -33.2884,69.2328 -14.8703,23.8842 -23.4026,40.0027 -26.6444,50.334 -15.7867,50.3109 -62.3806,100.0942 -111.8933,119.5527 -7.7968,3.0642 -14.176,6.355 -14.176,7.313 0,0.9581 33.7863,1.9901 75.0807,2.2934 l 75.0807,0.5516 v 30.4519 30.4519 l -204.0119,0.5353 c -184.675,0.4847 -204.1331,0.2196 -205.2907,-2.7969 z m 229.1981,-115.3487 c 50.3034,-11.8604 91.1248,-52.423 104.6169,-103.9535 4.7068,-17.9768 4.6732,-51.1627 -0.07,-69.2684 -13.4592,-51.3755 -57.1406,-93.35052 -108.4885,-104.25054 -22.5639,-4.78978 -52.6227,-3.04449 -74.2533,4.31138 -36.3462,12.36013 -65.3252,37.48722 -81.8595,70.97866 -12.369,25.0541 -16.5661,44.6526 -15.1896,70.9272 3.187,60.8328 43.5924,111.9864 102.2793,129.4864 19.1085,5.698 52.8324,6.5155 72.9648,1.7688 z m 161.072,-210.5351 c 0.7748,-3.1764 1.9506,-24.44024 2.6131,-47.2529 1.4165,-48.78272 2.2844,-47.53124 -20.9702,-30.2374 -24.7696,18.42054 -24.3518,17.3614 -13.1632,33.36664 5.2284,7.47911 13.4253,21.76604 18.2154,31.74876 4.7901,9.9826 9.4263,18.1503 10.3027,18.1503 0.8765,0 2.2274,-2.5989 3.0022,-5.7754 z m -360.0459,-40.95251 c 5.0754,-7.2192 13.855,-18.03537 19.5102,-24.03595 11.003,-11.67487 11.2936,-15.34149 1.2159,-15.34149 -8.269,0 -21.5635,-7.93933 -33.2398,-19.85053 -16.8311,-17.16966 -17.4901,-13.54063 -6.2074,34.18732 3.3658,14.23813 6.1196,28.65027 6.1196,32.02699 0,3.37671 0.759,6.13947 1.6867,6.13947 0.9277,0 5.8394,-5.90661 10.9148,-13.12581 z m 287.7215,-51.69844 c 0,-4.00505 -13.9729,-78.05873 -16.0233,-84.92059 -0.868,-2.90473 -1.7889,-3.24002 -3.957,-1.44069 -3.5589,2.95358 -39.6144,58.7276 -38.5557,59.64151 0.4298,0.37105 8.8147,4.47618 18.6329,9.12246 9.8183,4.64629 22.1042,11.31506 27.3021,14.81949 11.2784,7.60394 12.601,7.89548 12.601,2.77782 z m -215.7438,-11.8305 c 12.3411,-6.34942 20.4134,-11.77318 20.4192,-13.71956 0.01,-1.77041 -3.3012,-9.45398 -7.3479,-17.07462 -4.7087,-8.86757 -9.2766,-22.45184 -12.6883,-37.73361 -8.7277,-39.0936 -9.7089,-39.95638 -13.4222,-11.80218 -1.4092,10.68441 -5.7962,30.39182 -9.749,43.79422 -3.9528,13.40242 -7.1868,25.90532 -7.1868,27.78424 0,4.77591 6.5323,20.60845 8.1959,19.86454 0.7532,-0.3368 10.5538,-5.33767 21.7791,-11.11303 z m 84.4837,-23.41609 c 9.2407,-0.6561 23.8871,-0.18985 32.5475,1.03593 8.6605,1.22587 16.4582,1.51699 17.3282,0.64693 0.8701,-0.87007 -1.6751,-11.25332 -5.6559,-23.07388 -3.9808,-11.82058 -8.9224,-32.09125 -10.9812,-45.04594 l -3.7434,-23.55397 -15.8422,-18.74102 c -8.7133,-10.30756 -17.0036,-19.12811 -18.4229,-19.60122 -1.9146,-0.63819 -2.5806,4.06967 -2.5806,18.24223 v 19.10243 l -15.386,30.95069 -15.386,30.95066 0.9272,16.52826 0.9271,16.52825 9.7335,-1.3882 c 5.3534,-0.76353 17.294,-1.92503 26.5347,-2.58115 z"
           id="path9837" />
        <path
           style="fill:#5d5d5d;stroke-width:2.10015"
           d="m 1215.3199,1341.3422 c -1.6623,-4.3318 -1.6656,-52.0401 0,-56.3703 1.1244,-2.93 8.9301,-3.322 66.1551,-3.322 36.1699,0 64.8805,-0.8214 64.8805,-1.8562 0,-1.0209 -5.1034,-3.9275 -11.3408,-6.459 -46.953,-19.0566 -90.2404,-62.4707 -109.4597,-109.7802 -3.8795,-9.5496 -8.93,-26.5972 -11.2232,-37.8834 -3.6131,-17.7817 -5.2759,-21.8458 -12.4598,-30.4519 -4.5596,-5.4623 -12.2615,-17.8463 -17.1153,-27.52 -7.413,-14.7742 -9.9738,-23.5113 -16.0044,-54.6034 -6.7574,-34.83927 -7.1868,-39.66866 -7.3059,-82.16761 -0.08,-28.39298 -1.5302,-58.01498 -3.9082,-79.80494 -2.0799,-19.05868 -3.0507,-35.47435 -2.1574,-36.47926 0.8933,-1.00491 7.2438,2.49699 14.1123,7.78205 18.4759,14.21671 49.3592,33.13537 51.1353,31.32478 0.8511,-0.86762 0.2238,-7.72039 -1.3939,-15.22835 -1.6178,-7.50797 -3.0262,-24.04649 -3.1297,-36.75228 -0.2027,-24.85645 -3.208,-75.61491 -5.4426,-91.92135 -1.1065,-8.07443 -0.8098,-9.77632 1.5303,-8.7785 3.6822,1.57003 19.0308,20.62105 32.4455,40.27213 8.6111,12.61437 12.5548,16.33015 23.3561,22.00678 7.1475,3.7564 13.6233,6.20205 14.3906,5.43478 0.7673,-0.76728 -0.2693,-15.39561 -2.3035,-32.50743 -3.4789,-29.26376 -3.4915,-32.52948 -0.212,-54.96174 2.8094,-19.21687 4.9684,-26.66895 11.1149,-38.36558 7.7826,-14.81029 8.345,-20.43515 3.701,-37.01622 -2.4325,-8.68473 2.4174,-4.87457 17.3758,13.65084 10.8457,13.43189 15.755,21.55305 18.2465,30.18366 5.0034,17.33233 28.4016,51.14117 32.5247,46.99613 1.149,-1.15508 5.426,-10.60566 9.5045,-21.00131 10.789,-27.4999 18.2895,-68.50817 20.1662,-110.25683 1.2749,-28.36177 2.7985,-39.73698 8.3931,-62.66328 4.4146,-18.09065 7.5567,-27.28991 8.872,-25.97466 1.1201,1.12008 5.3089,15.02246 9.3085,30.89419 3.9996,15.87174 12.0676,40.31862 17.9289,54.32642 5.8612,14.00779 14.3248,37.67827 18.808,52.60108 7.9338,26.40871 8.1512,27.99108 8.1512,59.32867 0,36.88205 -0.3667,36.33795 17.7736,26.37188 14.2007,-7.80162 24.4544,-25.63899 30.3985,-52.88089 2.3825,-10.91911 4.3319,-22.1023 4.3319,-24.85154 0,-2.74926 0.9711,-4.67493 2.1581,-4.27928 1.1869,0.39564 10.1651,17.96571 19.9515,39.04458 l 17.7934,38.32524 v 21.50917 c 0,11.83004 -1.4099,29.50421 -3.1296,39.27592 -1.7197,9.77172 -2.4088,18.48457 -1.5315,19.3619 2.3098,2.30981 21.5113,-7.1017 30.3856,-14.89335 6.7495,-5.92602 13.0579,-16.36007 17.1475,-28.36185 0.8734,-2.56319 2.1022,-3.29616 3.3815,-2.01691 2.6943,2.69432 14.654,45.59085 14.654,52.56053 0,3.03626 -2.7809,14.60327 -6.1798,25.7045 -3.3989,11.1012 -7.6509,26.79942 -9.4489,34.88492 -1.798,8.0855 -3.7605,16.82729 -4.361,19.42621 -2.5817,11.17269 20.445,0.78441 40.0255,-18.0572 7.6201,-7.33254 14.1734,-13.00289 14.5629,-12.60078 0.3896,0.40211 5.0501,18.55608 10.3569,40.34216 l 9.6478,39.61103 v 43.41568 43.41565 l -11.4129,34.09696 c -10.4673,31.2716 -13.2257,37.0086 -33.2884,69.2328 -14.8703,23.8842 -23.4026,40.0027 -26.6444,50.334 -15.7867,50.3109 -62.3806,100.0942 -111.8933,119.5527 -7.7968,3.0642 -14.176,6.355 -14.176,7.313 0,0.9581 33.7863,1.9901 75.0807,2.2934 l 75.0807,0.5516 v 30.4519 30.4519 l -204.0119,0.5353 c -184.675,0.4847 -204.1331,0.2196 -205.2907,-2.7969 z m 229.1981,-115.3487 c 50.3034,-11.8604 91.1248,-52.423 104.6169,-103.9535 4.7068,-17.9768 4.6732,-51.1627 -0.07,-69.2684 -13.4592,-51.3755 -57.1406,-93.35052 -108.4885,-104.25054 -22.5639,-4.78978 -52.6227,-3.04449 -74.2533,4.31138 -36.3462,12.36013 -65.3252,37.48722 -81.8595,70.97866 -12.369,25.0541 -16.5661,44.6526 -15.1896,70.9272 3.187,60.8328 43.5924,111.9864 102.2793,129.4864 19.1085,5.698 52.8324,6.5155 72.9648,1.7688 z m 161.072,-210.5351 c 0.7748,-3.1764 1.9506,-24.44024 2.6131,-47.2529 1.4165,-48.78272 2.2844,-47.53124 -20.9702,-30.2374 -24.7696,18.42054 -24.3518,17.3614 -13.1632,33.36664 5.2284,7.47911 13.4253,21.76604 18.2154,31.74876 4.7901,9.9826 9.4263,18.1503 10.3027,18.1503 0.8765,0 2.2274,-2.5989 3.0022,-5.7754 z m -360.0459,-40.95251 c 5.0754,-7.2192 13.855,-18.03537 19.5102,-24.03595 11.003,-11.67487 11.2936,-15.34149 1.2159,-15.34149 -8.269,0 -21.5635,-7.93933 -33.2398,-19.85053 -16.8311,-17.16966 -17.4901,-13.54063 -6.2074,34.18732 3.3658,14.23813 6.1196,28.65027 6.1196,32.02699 0,3.37671 0.759,6.13947 1.6867,6.13947 0.9277,0 5.8394,-5.90661 10.9148,-13.12581 z m 287.7215,-51.69844 c 0,-4.00505 -13.9729,-78.05873 -16.0233,-84.92059 -0.868,-2.90473 -1.7889,-3.24002 -3.957,-1.44069 -3.5589,2.95358 -39.6144,58.7276 -38.5557,59.64151 0.4298,0.37105 8.8147,4.47618 18.6329,9.12246 9.8183,4.64629 22.1042,11.31506 27.3021,14.81949 11.2784,7.60394 12.601,7.89548 12.601,2.77782 z m -215.7438,-11.8305 c 12.3411,-6.34942 20.4134,-11.77318 20.4192,-13.71956 0.01,-1.77041 -3.3012,-9.45398 -7.3479,-17.07462 -4.7087,-8.86757 -9.2766,-22.45184 -12.6883,-37.73361 -8.7277,-39.0936 -9.7089,-39.95638 -13.4222,-11.80218 -1.4092,10.68441 -5.7962,30.39182 -9.749,43.79422 -3.9528,13.40242 -7.1868,25.90532 -7.1868,27.78424 0,4.77591 6.5323,20.60845 8.1959,19.86454 0.7532,-0.3368 10.5538,-5.33767 21.7791,-11.11303 z m 84.4837,-23.41609 c 9.2407,-0.6561 23.8871,-0.18985 32.5475,1.03593 8.6605,1.22587 16.4582,1.51699 17.3282,0.64693 0.8701,-0.87007 -1.6751,-11.25332 -5.6559,-23.07388 -3.9808,-11.82058 -8.9224,-32.09125 -10.9812,-45.04594 l -3.7434,-23.55397 -15.8422,-18.74102 c -8.7133,-10.30756 -17.0036,-19.12811 -18.4229,-19.60122 -1.9146,-0.63819 -2.5806,4.06967 -2.5806,18.24223 v 19.10243 l -15.386,30.95069 -15.386,30.95066 0.9272,16.52826 0.9271,16.52825 9.7335,-1.3882 c 5.3534,-0.76353 17.294,-1.92503 26.5347,-2.58115 z"
           id="path9835" />
        <path
           style="fill:#020202;stroke-width:2.10015"
           d="m 1218.2415,1313.1915 v -29.3833 l 67.5558,-0.5541 c 45.0911,-0.3699 67.8015,-1.2917 68.2945,-2.7721 0.4063,-1.2199 -6.1308,-4.8807 -14.5268,-8.1352 -65.004,-25.1971 -111.6064,-81.9524 -123.5157,-150.4253 -2.3316,-13.4059 -4.1258,-17.4272 -12.5969,-28.2332 -17.9998,-22.9613 -24.0459,-38.1322 -32.352,-81.1776 -7.0854,-36.71968 -7.4628,-40.90469 -7.4577,-82.70604 0,-26.33296 -1.3942,-57.33309 -3.4768,-77.12979 -1.9152,-18.2053 -2.9205,-33.66221 -2.234,-34.3487 0.6865,-0.68649 6.9174,3.11413 13.8465,8.44582 14.2224,10.94375 45.3434,30.65165 48.4025,30.65165 4.0518,0 4.3001,-4.14925 1.2135,-20.27947 -2.0946,-10.94583 -3.1533,-29.50861 -3.1554,-55.32522 0,-24.97712 -1.1161,-45.17615 -3.1195,-56.55963 -1.7139,-9.73897 -2.6159,-18.20756 -2.0043,-18.8191 1.4403,-1.44037 8.0615,6.54619 26.4485,31.90281 14.557,20.07491 20.9986,25.43392 40.1879,33.43384 6.2019,2.58553 6.6555,-3.40963 2.7421,-36.24506 -3.4487,-28.9366 -3.4626,-32.33339 -0.2237,-54.34004 2.8867,-19.61316 4.8326,-26.02809 11.8312,-39.00274 7.931,-14.70328 8.2511,-15.99318 6.0233,-24.26673 -1.2942,-4.80589 -1.9928,-9.09814 -1.5526,-9.53831 2.1988,-2.19885 25.3196,29.73442 28.7522,39.71115 5.2904,15.37682 9.5691,23.3591 20.6884,38.59649 14.463,19.81941 15.1534,19.63853 25.6822,-6.72899 10.6162,-26.58638 20.964,-82.59545 20.9431,-113.35744 -0.015,-20.99262 1.1122,-30.12111 6.6797,-54.12793 3.6834,-15.88223 7.2767,-28.87679 7.9852,-28.87679 0.7085,0 3.9658,11.10444 7.2383,24.67653 3.2726,13.57209 10.9846,36.76003 17.138,51.52875 6.1533,14.76872 15.0114,39.51269 19.6845,54.98657 8.354,27.66222 8.4966,28.68089 8.4966,60.70426 0,18.50994 0.8691,33.10704 2.0132,33.81413 1.1073,0.68431 8.7204,-2.13343 16.918,-6.26164 14.6145,-7.35963 15.0604,-7.82742 22.8877,-24.0131 4.8714,-10.07323 9.4397,-24.00768 11.7206,-35.75055 2.0558,-10.58384 4.4838,-18.47445 5.3955,-17.53468 0.9117,0.93974 8.8159,17.37603 17.5649,36.52506 l 15.9072,34.81642 v 19.52684 c 0,10.73975 -1.5242,28.46817 -3.387,39.39647 -4.3051,25.25581 -3.2676,26.65237 13.7551,18.51638 14.5628,-6.96031 27.9048,-19.72635 32.7294,-31.31672 1.8663,-4.4835 4.1299,-7.31868 5.0301,-6.30039 2.0982,2.37334 12.777,40.67114 12.777,45.82259 0,2.14436 -3.2338,14.86443 -7.1863,28.26685 -10.6504,36.11413 -14.8055,56.76986 -11.987,59.5884 3.749,3.74894 26.941,-8.43755 40.7513,-21.41318 7.1331,-6.70202 12.8618,-10.59387 13.9109,-9.45058 0.9809,1.06907 5.6918,18.4823 10.4687,38.69605 8.6331,36.53212 8.685,36.99757 8.6659,77.70309 l -0.019,40.95084 -11.6089,34.82953 c -10.6179,31.8563 -13.3424,37.5933 -31.9167,67.2059 -11.9463,19.0456 -22.6826,39.0023 -26.0753,48.4689 -11.9578,33.3657 -28.111,59.4963 -50.3067,81.3802 -20.273,19.9882 -39.8527,32.0393 -78.3521,48.2251 -3.8012,1.5981 -5.3524,3.3048 -4.1219,4.5353 1.1375,1.1375 34.3997,2.2065 78.5504,2.5246 l 76.5772,0.5517 v 28.3518 28.3517 l -202.1405,0.5356 -202.1404,0.5355 z m 228.5622,-85.2749 c 6.5484,-1.6566 19.9393,-6.9444 29.7575,-11.7507 14.2882,-6.9946 21.4689,-12.3555 35.9753,-26.8581 15.3169,-15.3129 19.5916,-21.1934 27.6002,-37.9682 5.212,-10.9169 10.5348,-24.3287 11.8284,-29.804 9.1993,-38.9346 1.5903,-80.0743 -21.0791,-113.9673 -26.8284,-40.11116 -71.8861,-64.087 -120.2907,-64.00829 -24.3248,0.0395 -41.825,4.17096 -64.244,15.16659 -24.1579,11.84841 -52.0214,39.23323 -63.5998,62.5072 -44.9515,90.357 8.6938,194.0049 108.7532,210.1219 13.2525,2.1346 39.79,0.4842 55.299,-3.4391 z m 161.3159,-215.2403 c 3.1532,-17.73986 3.6342,-87.31713 0.6165,-89.18215 -3.9316,-2.42981 -46.0683,28.07882 -46.0683,33.35521 0,1.49714 3.8351,7.8543 8.5225,14.12703 8.5932,11.49964 22.2339,36.95591 26.7504,49.92181 3.5903,10.3067 7.4379,7.1988 10.1789,-8.2219 z M 1244.259,980.50619 c 3.887,-6.07624 13.4713,-18.39054 21.2986,-27.36511 15.0376,-17.24176 15.3765,-20.00994 2.4584,-20.08061 -8.4302,-0.0462 -17.376,-5.24062 -33.1542,-19.25143 -7.6076,-6.75546 -15.0621,-12.28267 -16.5654,-12.28267 -3.7736,0 -1.709,16.07343 6.2521,48.67501 3.4617,14.17583 6.294,29.18439 6.294,33.3524 0,13.79342 3.0926,13.09093 13.4165,-3.04759 z m 292.5083,-56.40342 c -0.6346,-2.59891 -4.5781,-22.68141 -8.7634,-44.62777 -9.1448,-47.95294 -8.9557,-47.25292 -12.7593,-47.25292 -4.5756,0 -43.785,61.10553 -41.5167,64.70143 1.005,1.59333 7.3939,5.24439 14.1976,8.11344 6.8036,2.86907 19.0796,9.35509 27.28,14.4134 17.1245,10.56305 23.3323,11.90251 21.5618,4.65242 z m -229.7523,-5.08952 c 4.8862,-3.08799 14.7907,-8.29522 22.01,-11.57161 7.2193,-3.27639 13.126,-7.04837 13.126,-8.38219 0,-1.33379 -3.6625,-9.12112 -8.1388,-17.30515 -6.0694,-11.09659 -9.8184,-22.34029 -14.7446,-44.22032 -9.267,-41.16052 -12.6394,-43.06082 -16.8806,-9.51216 -1.3873,10.97318 -5.874,31.62701 -9.9705,45.89744 -7.8203,27.24236 -8.1563,35.92925 -1.767,45.68035 4.1526,6.33764 5.4852,6.28991 16.3655,-0.58636 z m 84.1117,-28.17098 c 13.3613,-1.63867 24.4428,-1.62779 39.7649,0.0391 13.0586,1.42061 21.9921,1.56018 23.19,0.36233 1.1978,-1.19783 -0.9183,-10.71675 -5.4932,-24.70965 -4.0928,-12.51866 -9.0346,-32.68432 -10.9816,-44.81257 -1.947,-12.12825 -4.5009,-23.87918 -5.6753,-26.11317 -4.1953,-7.98018 -33.7827,-41.20566 -36.0329,-40.46352 -1.3654,0.45033 -2.7353,9.61356 -3.3847,22.64092 l -1.091,21.8844 -15.1852,28.55562 c -15.9872,30.06353 -17.3592,35.71775 -13.8373,57.02468 1.5037,9.09739 0.9779,8.99503 28.7263,5.59191 z"
           id="path9833" />
      </g>
    </g>
  </g>
</svg>
