<?xml version="1.0" encoding="UTF-8" standalone="no"?>
<!-- Created with Inkscape (http://www.inkscape.org/) -->

<svg
   width="24"
   height="24"
   viewBox="0 0 24 24"
   version="1.1"
   id="svg5"
   inkscape:version="1.1.1 (3bf5ae0d25, 2021-09-20)"
   sodipodi:docname="silhouete.svg"
   xmlns:inkscape="http://www.inkscape.org/namespaces/inkscape"
   xmlns:sodipodi="http://sodipodi.sourceforge.net/DTD/sodipodi-0.dtd"
   xmlns="http://www.w3.org/2000/svg"
   xmlns:svg="http://www.w3.org/2000/svg">
  <g
     inkscape:label="Capa 1"
     inkscape:groupmode="layer"
     id="layer1"
     transform="translate(15.946791,28.864379)">
    <g
       id="g4409"
       transform="matrix(0.12812239,0,0,0.12708914,-207.56124,-4.2074214)" />
    <g
       id="g9127"
       transform="matrix(0.12598244,0,0,0.12598425,-174.2406,-23.711568)">
      <g
         id="g10307"
         transform="matrix(0.12593574,0,0,0.12593523,1186.0648,-78.330086)">
        <path
           style="fill:#f6a7a1;stroke-width:2.10015"
           d="M 931.19205,1428.578 C 726.37065,1223.8415 556.82911,1053.6373 554.43308,1050.3464 l -4.35641,-5.9835 373.59474,-373.75263 C 1129.1485,465.04632 1299.9608,294.89699 1303.2541,292.50066 l 5.988,-4.35698 376.7663,376.74351 c 207.2214,207.20891 376.7663,378.15771 376.7663,379.88631 0,4.1006 -751.9497,756.0525 -756.0504,756.0525 -1.7213,0 -170.7108,-167.5116 -375.53225,-372.248 z m 692.64205,-67.7223 316.062,-316.0625 -315.0049,-315.02655 C 1451.6385,556.5021 1308.9381,414.74017 1307.7792,414.74017 c -2.7507,0 -631.11045,628.33333 -631.11045,631.08383 0,2.0644 627.98715,631.0944 630.04815,631.0944 0.5804,0 143.2832,-142.2282 317.1172,-316.0627 z m -388.5616,121.2756 c -153.5543,-154.9192 -149.7426,-150.8702 -148.1378,-157.3602 0.8058,-3.2587 3.9372,-8.5238 6.9586,-11.7003 5.4409,-5.72 5.4488,-5.7753 0.8264,-5.7753 -2.5669,0 -6.9297,1.4824 -9.695,3.2943 -11.3978,7.468 -13.9054,5.5857 -73.3489,-55.0598 l -55.88571,-57.0158 v -42.8531 c 0,-41.7996 0.13252,-43.119 5.39164,-53.6725 5.88339,-11.8063 15.56605,-21.4005 27.74427,-27.491 4.29947,-2.1503 22.3102,-9.4155 40.0239,-16.145 31.241,-11.8686 32.4058,-12.1394 38.8529,-9.0309 7.9976,3.856 19.0558,7.8543 27.6974,10.0144 10.2324,2.5578 14.943,5.8615 19.5918,13.7406 2.4029,4.0726 5.672,7.4047 7.2645,7.4047 3.7311,0 9.8471,6.7485 9.8471,10.8656 0,5.2724 8.1207,11.0505 14.8142,10.5404 11.2784,-0.8593 20.6393,4.7983 25.2738,15.2754 2.3165,5.2368 5.5635,9.5215 7.2154,9.5215 1.652,0 4.5517,2.3626 6.4438,5.2503 2.522,3.8491 5.2945,5.2503 10.3881,5.2503 8.8447,0 18.765,8.1362 22.0476,18.0825 l 2.4569,7.4444 4.7049,-4.4199 c 4.114,-3.865 6.2377,-4.2398 16.9124,-2.9852 17.9511,2.1097 24.3809,10.324 16.6835,21.3134 -4.2608,6.0831 -15.5712,6.3362 -20.8825,0.4673 -2.0907,-2.3102 -5.2189,-4.2003 -6.9515,-4.2003 -2.6816,0 -2.6331,0.5714 0.3255,3.8406 4.4839,4.9546 4.4355,12.6193 -0.1113,17.6433 -2.9029,3.2077 -3.1007,4.641 -1.0367,7.5159 4.7563,6.6251 5.3151,9.4103 3.0777,15.338 -1.9344,5.1247 -1.6813,6.0911 1.8926,7.2254 8.7759,2.7854 8.2137,18.1744 -0.7682,21.0251 -8.7729,2.7844 -19.6391,-12.3245 -12.1794,-16.9348 3.4255,-2.1171 2.4311,-3.9969 -4.0708,-7.6959 -6.1186,-3.4809 -6.1534,-3.4695 -8.3099,2.7164 -1.6853,4.8344 -1.396,7.8255 1.3045,13.4884 3.3109,6.9431 3.2738,7.5404 -0.8102,13.0347 -8.7622,11.788 -25.9164,6.4619 -25.9164,-8.0468 0,-5.0147 -0.8198,-6.2976 -3.6753,-5.7514 -2.6733,0.5114 -3.9876,3.4135 -4.8208,10.6451 -1.4324,12.4309 -3.734,14.7335 -16.1595,16.1662 -9.6804,1.1161 -9.9699,1.3581 -11.2768,9.4268 -1.9075,11.7776 -10.4603,18.7797 -21.1822,17.3416 -6.7479,-0.9051 -8.4193,-0.3464 -10.3192,3.4496 -1.247,2.4912 -4.6264,6.5234 -7.5098,8.9602 -5.1715,4.3707 -5.1823,4.4465 -0.7969,5.5933 2.8899,0.7557 6.529,-0.5904 10.3988,-3.8466 8.498,-7.1505 16.704,-9.7531 25.8694,-8.2047 4.5859,0.7748 7.9699,0.498 7.9699,-0.6518 0,-5.0267 11.2996,-13.0718 18.3596,-13.0718 4.7917,0 9.5187,-1.8786 13.8076,-5.4874 5.7286,-4.8203 7.8081,-5.3423 17.1044,-4.2937 7.5323,0.8496 11.7581,0.3125 14.6596,-1.8631 2.2422,-1.6812 5.6811,-3.0567 7.6419,-3.0567 2.4132,0 4.0117,-2.3802 4.9471,-7.3664 1.938,-10.3298 9.6669,-15.209 18.8385,-11.8925 3.7385,1.3518 9.5654,2.4637 12.9487,2.4708 3.3832,0.01 8.8465,1.4186 12.1405,3.1365 3.2941,1.718 8.0195,2.6151 10.5008,1.9936 2.4814,-0.6216 6.254,0.1455 8.3836,1.7044 4.1218,3.0173 4.2511,4.3657 2.7721,28.8957 -0.7621,12.6399 -0.1753,17.2508 2.9394,23.1014 l 3.8915,7.3095 0.088,-6.6754 c 0.099,-7.4848 4.7177,-13.2758 10.5889,-13.2758 4.8301,0 10.4783,5.4119 10.5676,10.1256 0.037,1.9389 1.4543,5.3597 3.1502,7.6019 11.0393,14.5951 -10.7096,30.9514 -22.0263,16.5649 -3.3127,-4.2115 -5.0121,-5.0111 -6.8159,-3.2072 -1.8039,1.8039 -1.7889,3.7508 0.06,7.8091 3.5029,7.6878 3.0698,12.2715 -1.7371,18.3823 -5.4761,6.9617 -5.6006,17.6006 -0.2258,19.3065 4.0294,1.2789 7.9834,9.2132 8.4082,16.8727 0.1281,2.3101 0.466,8.453 0.7507,13.6508 0.2847,5.1979 2.1715,11.7873 4.1929,14.6432 4.3742,6.1801 4.6626,17.9576 0.6186,25.2593 -2.0556,3.7114 -2.5636,9.3631 -1.7332,19.282 0.961,11.4801 0.4402,15.2991 -2.8643,21.0013 -3.3634,5.804 -3.9359,10.3063 -3.4231,26.9209 0.7278,23.5824 -0.3119,29.4018 -5.253,29.4018 -2.0071,0 -29.6437,-26.2254 -61.4145,-58.2786 z m 79.4523,57.1858 c -2.5325,-2.5324 0.7278,-63.1368 3.7862,-70.3793 2.7927,-6.6135 2.7799,-8.0942 -0.1176,-13.6509 -1.7876,-3.428 -3.2559,-8.3894 -3.263,-11.0254 -0.017,-6.3328 4.7907,-17.607 8.9953,-21.0938 3.0586,-2.5365 2.9731,-3.5246 -0.9573,-11.0651 -2.8015,-5.3747 -3.9633,-10.661 -3.3112,-15.066 0.776,-5.2418 -0.1269,-7.8385 -3.9678,-11.411 -5.4428,-5.0627 -6.4062,-12.9907 -2.4536,-20.1896 1.3854,-2.523 2.2868,-6.5307 2.0032,-8.906 -0.2836,-2.3753 1.5555,-6.9517 4.0869,-10.1697 3.7491,-4.7661 5.9089,-5.6985 11.6479,-5.0285 l 7.0454,0.8225 v -10.8064 c 0,-5.9435 -1.4856,-13.7842 -3.3013,-17.4238 -1.8157,-3.6396 -3.0135,-8.8131 -2.6618,-11.4967 0.3516,-2.6835 -0.998,-7.3781 -2.9992,-10.4323 -6.5393,-9.9801 -3.6007,-18.6064 7.988,-23.4483 4.0012,-1.6718 7.2749,-4.3407 7.2749,-5.9309 0,-4.8069 9.3409,-12.024 15.5623,-12.024 3.2125,0 8.4144,1.8325 11.5597,4.0721 5.6533,4.0254 5.7893,4.0256 11.8751,0.015 8.2798,-5.458 13.896,-5.1279 19.8074,1.1644 2.7129,2.8877 6.2758,5.2504 7.9176,5.2504 5.6465,0 15.1213,7.1765 18.2896,13.8532 4.1725,8.7926 12.0227,10.8691 19.3378,5.1151 7.1355,-5.6127 11.611,-5.3833 19.1769,0.9829 3.4319,2.8877 8.466,5.2538 11.187,5.2582 7.3469,0.013 18.2977,7.5137 19.8197,13.5778 1.0231,4.0764 2.6814,5.3155 7.1138,5.3155 3.1789,0 9.2439,2.3508 13.4778,5.224 4.234,2.8731 10.0906,5.8244 13.0147,6.5583 7.4571,1.8716 12.6114,10.272 10.1489,16.5407 -2.2827,5.8101 -220.2132,206.8907 -224.2284,206.8907 -1.5192,0 -3.2539,-0.4918 -3.8549,-1.0928 z m 230.7841,-223.663 c -2.9662,-2.3331 -5.6926,-6.2491 -6.0587,-8.7021 -0.4793,-3.2122 -2.4196,-4.6441 -6.9348,-5.1179 -8.853,-0.9289 -14.5022,-4.4051 -18.6958,-11.5042 -2.7284,-4.6187 -5.1873,-6.1359 -9.9444,-6.1359 -7.1418,0 -14.313,-3.2833 -17.9502,-8.2185 -1.5766,-2.1393 -5.7362,-3.3525 -11.6191,-3.3889 -6.1104,-0.038 -11.4105,-1.6568 -15.9082,-4.8594 -3.7096,-2.6415 -8.4043,-4.6335 -10.4325,-4.4268 -8.2416,0.8403 -11.2423,-0.3577 -13.5427,-5.4064 -2.0408,-4.4791 -1.709,-6.2527 2.1452,-11.4657 8.6817,-11.7425 3.4137,-16.6057 -9.7834,-9.0317 -5.5185,3.1671 -6.9511,3.248 -11.7778,0.6649 -7.4297,-3.9762 -9.0243,-11.5808 -4.2768,-20.3962 2.9658,-5.5071 3.2574,-7.6539 1.3048,-9.6065 -1.9527,-1.9526 -3.4351,-1.9396 -6.634,0.058 -2.2657,1.4149 -6.2114,2.5726 -8.7682,2.5726 -3.6158,0 -4.0888,0.56 -2.1287,2.5201 4.11,4.11 2.9492,13.8906 -2.2052,18.5806 -2.5989,2.3648 -6.6487,6.1451 -8.9995,8.4005 -4.7957,4.6012 -13.5405,5.3976 -17.3575,1.5807 -3.4289,-3.4289 -3.1706,-10.5181 0.5633,-15.4546 1.6959,-2.2421 3.1135,-5.584 3.1502,-7.4263 0.1057,-5.2992 7.1378,-10.3011 14.4821,-10.3011 6.0731,0 6.5144,-0.4104 4.4963,-4.1813 -1.6661,-3.1132 -1.4673,-5.6712 0.7781,-10.0134 1.6588,-3.2076 2.5093,-8.4821 1.8901,-11.7212 -1.5633,-8.1776 3.004,-15.5913 11.497,-18.6624 4.8557,-1.7558 8.0924,-4.7898 10.0126,-9.3853 1.6824,-4.0267 4.8334,-7.2917 7.7412,-8.0215 2.7166,-0.6818 6.7595,-4.6204 9.0641,-8.8302 5.6593,-10.3377 12.8281,-15.1358 24.3539,-16.3 15.3831,-1.5539 20.6774,-4.355 22.1503,-11.7197 1.9944,-9.9717 13.0923,-20.4521 23.403,-22.1009 6.9736,-1.1151 9.5427,-2.8189 12.9448,-8.5848 4.7735,-8.0905 16.9281,-14.2549 24.406,-12.3781 3.4486,0.8655 6.36,-0.3004 10.1071,-4.0475 2.8948,-2.8947 6.7621,-5.2631 8.594,-5.2631 1.8319,0 6.0351,-1.9994 9.3405,-4.4431 l 6.0097,-4.4432 32.7687,10.9214 c 36.1015,12.0321 52.2391,21.6467 64.3893,38.3623 11.9412,16.4282 12.462,19.2491 12.4593,67.4907 v 44.3713 l -59.951,55.1284 c -42.4212,39.0086 -61.3748,55.1285 -64.8196,55.1285 -2.6776,0 -7.2952,-1.9089 -10.2614,-4.2421 z M 1284.843,1244.488 c -5.566,-6.1503 -3.702,-17.3392 3.4574,-20.7535 9.3398,-4.4541 18.3225,1.684 18.3843,12.5625 0.06,10.5659 -14.6873,16.0965 -21.8417,8.191 z m 67.204,-86.8671 c -10.3541,-9.6426 -11.9729,-15.5622 -5.7867,-21.1605 4.6872,-4.2419 8.5262,-4.3134 13.887,-0.2588 2.2422,1.6959 6.1123,3.0834 8.6002,3.0834 10.8358,0 15.8492,17.6994 6.8074,24.0325 -7.4993,5.2526 -13.2461,3.86 -23.5079,-5.6966 z m -130.9694,-19.505 c -5.8844,-4.1215 -6.3447,-15.5633 -0.827,-20.5567 8.7982,-7.9621 21.3613,-1.6418 21.3613,10.7465 0,6.7649 -6.0836,13.0795 -12.6009,13.0795 -1.7962,0 -5.3662,-1.4712 -7.9334,-3.2693 z m 132.6074,-9.6877 c -5.2117,-2.5235 -9.1652,-10.1723 -9.1652,-17.7318 0,-2.9092 -1.1005,-7.3459 -2.4456,-9.8591 -1.3451,-2.5132 -2.5654,-12.6494 -2.7118,-22.5249 -0.2301,-15.5157 -0.8965,-18.5857 -4.905,-22.5941 -6.482,-6.482 -5.8897,-12.5228 1.6485,-16.8121 5.3879,-3.0659 6.2891,-4.8199 6.3004,-12.2631 0.01,-4.777 -1.3985,-11.3924 -3.124,-14.7009 -1.7255,-3.3085 -3.1732,-7.9055 -3.217,-10.2157 -0.044,-2.31012 -1.4673,-6.03472 -3.1632,-8.27686 -3.6872,-4.8748 -3.9803,-13.70872 -0.6941,-20.92097 1.9044,-4.17966 1.6913,-6.71502 -1.0501,-12.49195 -1.8917,-3.98638 -3.4394,-9.80389 -3.4394,-12.92779 0,-3.12392 -2.3627,-8.48768 -5.2504,-11.9195 -3.0238,-3.59355 -5.2504,-8.88742 -5.2504,-12.48322 0,-7.38947 -6.4908,-21.1288 -7.9451,-16.81773 -0.5321,1.57745 0.2845,6.66178 1.8148,11.29853 2.5094,7.60352 2.3681,9.18677 -1.4413,16.1412 -2.874,5.24686 -3.7598,9.44531 -2.7719,13.13902 2.0621,7.71034 0.1237,15.49048 -5.3242,21.36868 -6.3367,6.83729 -9.0387,28.64029 -3.5493,28.64029 9.289,0 17.4529,13.7496 10.6575,17.9493 -1.2425,0.7679 -2.0554,4.8401 -1.8066,9.0495 0.7451,12.6049 0.1565,14.526 -6.9198,22.5854 -6.1037,6.9516 -6.7568,8.9628 -6.5025,20.0252 0.1554,6.7636 -0.6005,12.8432 -1.6799,13.5104 -1.0795,0.6671 -1.3985,4.2205 -0.7088,7.8965 1.6788,8.9486 -1.4501,16.3874 -12.1498,28.8863 -9.6596,11.2838 -16.8445,13.0383 -21.3159,5.2051 -7.7352,-13.551 -27.1791,-19.2449 -39.6835,-11.6207 -11.0827,6.7574 -19.7389,5.4809 -29.0246,-4.2802 -4.3952,-4.6203 -9.3476,-8.4006 -11.0052,-8.4006 -1.6577,0 -5.2396,-2.3463 -7.9597,-5.214 -3.2639,-3.4409 -7.2649,-5.2264 -11.7653,-5.2503 -4.7072,-0.025 -9.2608,-2.1962 -14.7011,-7.0095 -4.3349,-3.8353 -10.9852,-8.216 -14.7784,-9.7349 -3.7932,-1.5189 -8.5186,-4.7899 -10.5008,-7.269 -1.9822,-2.479 -7.57,-5.6815 -12.4171,-7.1167 -12.3974,-3.6706 -21.7572,-16.3927 -15.0913,-20.5124 1.2912,-0.798 27.8909,-10.7255 59.1104,-22.0611 31.2194,-11.3356 57.6024,-21.44997 58.6287,-22.4763 1.0264,-1.02634 2.9202,-13.32984 4.2084,-27.34111 l 2.3424,-25.47502 -10.6401,-15.39127 c -22.1555,-32.04863 -41.3501,-79.0045 -50.859,-124.41689 -5.687,-27.15962 -7.8106,-73.17362 -4.3634,-94.54278 9.3043,-57.67587 43.1222,-105.01679 92.9308,-130.09174 24.9335,-12.55212 43.9378,-16.5172 73.6988,-15.37667 27.0788,1.03778 41.9795,5.34309 65.5078,18.92741 20.5255,11.85065 53.7084,45.68411 66.4711,67.77428 30.6712,53.08715 34.0072,91.57569 14.6,168.44625 -13.1302,52.00812 -30.091,91.82831 -50.7189,119.07681 l -10.3408,13.6596 v 22.93729 c 0,15.8631 0.8097,23.56566 2.6252,24.97474 1.4439,1.12059 30.4261,10.9119 64.4049,21.7585 33.9789,10.8465 63.0398,20.9811 64.58,22.5212 4.2471,4.247 3.4796,6.4608 -4.7511,13.705 -4.1532,3.6554 -9.3626,10.1751 -11.5764,14.4881 -4.2894,8.3566 -10.4992,11.2589 -20.1446,9.4151 -7.2638,-1.3886 -16.8033,5.5516 -18.5477,13.4936 -0.7189,3.2728 -3.5529,7.7171 -6.2979,9.8763 -6.0847,4.7862 -31.4838,7.975 -35.6936,4.4812 -1.5927,-1.3218 -5.7823,-1.7419 -9.8191,-0.9845 -5.4104,1.0149 -8.3914,0.2588 -12.8708,-3.2646 -7.1599,-5.6319 -9.1149,-4.1715 -5.6414,4.2141 2.2168,5.3518 2.1044,7.1612 -0.7115,11.4588 -4.1207,6.2889 -10.3603,8.4706 -15.8394,5.5383 -6.6978,-3.5845 -10.7674,-2.6079 -17.0187,4.0839 -6.1164,6.5476 -12.2481,7.7123 -20.237,3.8441 z m -60.5832,-5.1582 c -5.2889,-5.2888 -3.2533,-13.9689 3.8592,-16.456 5.13,-1.7939 6.5544,-1.4059 9.8704,2.6891 4.1295,5.0996 3.47,10.262 -1.8595,14.556 -4.3814,3.5302 -7.7764,3.3045 -11.8701,-0.7891 z m 11.6919,-26.8243 c -1.3406,-1.6154 -2.2425,-6.1044 -2.0043,-9.9757 0.2382,-3.8712 -0.2148,-9.0165 -1.0067,-11.434 -0.9664,-2.9498 0,-6.2305 2.9497,-9.9756 10.8922,-13.847 30.5381,2.5336 19.9026,16.5947 -1.6958,2.2421 -3.1134,6.014 -3.1502,8.3819 -0.1325,8.5427 -11.3465,12.8484 -16.6911,6.4087 z"
           id="path10321" />
        <path
           style="fill:#f3837c;stroke-width:2.10015"
           d="M 928.67715,1422.4606 551.68747,1044.7966 929.20219,667.29169 1306.7169,289.7868 l 378.0289,378.01904 378.0289,378.01906 -377.5017,377.5006 c -207.6259,207.6253 -377.9752,377.3427 -378.5539,377.1498 -0.5788,-0.193 -170.6976,-170.2995 -378.04195,-378.0147 z m 696.73645,-58.984 c 173.5535,-173.5481 315.5518,-316.487 315.5518,-317.6421 0,-3.4372 -630.8125,-633.19446 -634.2554,-633.19446 -1.7394,0 -145.3872,142.23444 -319.21748,316.07653 l -316.05505,316.07653 317.11206,317.1127 c 174.41167,174.412 318.05717,317.1127 319.21227,317.1127 1.155,0 144.0984,-141.9939 317.6518,-315.5419 z m -435.2019,72.8488 c -93.4083,-94.8122 -102.5266,-104.6812 -102.3544,-110.7819 0.1321,-4.6785 2.1364,-8.4383 6.6495,-12.4727 l 6.4606,-5.7753 -5.8085,0.067 c -3.1948,0.037 -7.6431,1.4544 -9.8853,3.1502 -9.9606,7.5338 -12.0723,5.9446 -72.2256,-54.3539 l -57.29901,-57.4374 0.64559,-43.8939 c 0.73367,-49.8828 1.70537,-53.6385 17.97744,-69.4846 7.37156,-7.1785 14.88655,-11.0715 41.00048,-21.2392 50.947,-19.8368 46.6939,-18.7768 53.9167,-13.4368 3.432,2.5373 8.5851,4.6132 11.4515,4.6132 2.8663,0 5.7955,0.9451 6.5094,2.1002 0.7139,1.155 3.2258,2.1001 5.582,2.1001 7.8074,0 18.8795,6.8073 22.1181,13.5985 1.7929,3.7597 5.8153,7.6381 9.2766,8.9446 4.385,1.6551 6.4814,4.1572 7.4214,8.8576 1.5947,7.9732 7.345,11.4946 19.0243,11.6504 10.0572,0.1342 18.1021,6.2098 22.6759,17.1253 1.5263,3.6427 4.7032,7.235 7.0597,7.9829 2.3565,0.7479 4.8311,3.0816 5.499,5.186 0.8705,2.7428 4.0035,4.1405 11.0651,4.9364 7.577,0.854 11.1996,2.6199 15.6944,7.6503 3.2139,3.597 5.8435,8.3594 5.8435,10.5832 0,6.1601 4.1533,7.393 7.7253,2.2933 2.8551,-4.0762 4.4326,-4.4115 15.0583,-3.2011 13.843,1.577 22.452,8.6024 20.1339,16.4303 -2.9811,10.0669 -13.4693,12.6644 -22.4889,5.5696 -2.9369,-2.3102 -7.0809,-4.1507 -9.2089,-4.0901 -3.4192,0.097 -3.3196,0.4935 0.8563,3.4063 5.4112,3.7747 6.2064,11.5411 1.5751,15.3847 -1.7326,1.4379 -3.1502,4.2731 -3.1502,6.3004 0,2.0273 1.4176,4.8624 3.1502,6.3004 4.074,3.381 4.0437,11.345 -0.056,14.7475 -2.793,2.318 -2.3869,3.1594 3.1503,6.5267 7.579,4.609 8.5246,12.6713 2.0204,17.227 -9.786,6.8543 -20.3971,-4.1415 -13.7647,-14.2637 2.3489,-3.5847 2.6733,-5.3363 0.9884,-5.3363 -1.3796,0 -4.2589,-1.5843 -6.3986,-3.5206 -2.3507,-2.1275 -4.6141,-2.7508 -5.7195,-1.5751 -3.0932,3.2896 -4.7979,15.0852 -2.3948,16.5704 1.2227,0.7557 2.2232,4.5723 2.2232,8.4813 -10e-5,7.7874 -5.9044,13.646 -13.7524,13.646 -6.0461,0 -13.5498,-8.5069 -13.5498,-15.3613 0,-3.2276 -1.1678,-5.64 -2.7302,-5.64 -4.7141,0 -7.586,4.5982 -6.4426,10.3151 1.6833,8.4163 -6.2735,17.4252 -14.7455,16.6953 -8.5724,-0.7386 -11.7844,1.4158 -11.7844,7.9038 0,11.6631 -11.7431,21.1339 -23.1091,18.6376 -4.8917,-1.0744 -6.453,-0.4196 -8.4452,3.542 -1.3442,2.673 -4.8406,6.8837 -7.7698,9.3571 l -5.3258,4.4971 4.6707,1.4823 c 3.468,1.1007 6.1477,0.067 10.4071,-4.0133 7.4311,-7.1194 17.1296,-9.877 25.8956,-7.363 5.0108,1.4371 7.0553,1.264 7.6938,-0.6514 0.4783,-1.4347 3.4776,-5.2166 6.6652,-8.4041 4.432,-4.432 7.8102,-5.7956 14.3578,-5.7956 4.7092,0 8.5622,-0.9208 8.5622,-2.0462 0,-4.3151 12.7971,-8.7905 21.1167,-7.3849 5.8125,0.982 9.4889,0.4259 12.8778,-1.9477 2.6087,-1.8272 6.4525,-3.3221 8.5419,-3.3221 3.8667,0 4.4973,-1.0256 6.6153,-10.7598 1.7787,-8.1751 11.3921,-11.622 19.9996,-7.171 3.6178,1.8709 7.4252,2.8778 8.4609,2.2378 1.0356,-0.6401 6.2938,0.3337 11.6847,2.1639 5.3909,1.8303 11.0228,2.8592 12.5153,2.2865 1.4925,-0.5727 4.6357,0.3049 6.9848,1.9503 3.7748,2.6439 4.2043,4.9107 3.6951,19.5019 -0.3169,9.0807 -1.1928,17.5081 -1.9465,18.7275 -0.7536,1.2195 0.9755,6.7844 3.8426,12.3666 l 5.2129,10.1495 0.054,-7.55 c 0.056,-7.8449 5.0686,-14.5014 10.9198,-14.5014 3.8556,0 10.1103,6.5388 10.2027,10.666 0.037,1.6417 1.4543,4.8193 3.1502,7.0615 4.2901,5.6719 3.8475,12.1624 -1.1987,17.5787 -6.4294,6.901 -15.2902,6.0335 -21.6728,-2.1218 l -5.2578,-6.7181 -1.3735,5.4724 c -0.7554,3.0098 -0.348,7.3884 0.9053,9.7302 3.4179,6.3864 2.8081,9.8829 -2.9083,16.6765 -6.1561,7.316 -5.5853,13.7392 1.7326,19.4953 5.1576,4.0569 7.7504,14.3492 7.8583,31.1934 0.025,3.9478 1.8799,9.5093 4.1215,12.359 4.8298,6.1399 5.3741,18.8596 1.0565,24.6896 -2.2684,3.063 -2.7347,7.9928 -1.8756,19.8276 1.0572,14.5622 0.7242,16.3613 -4.4124,23.8389 -3.7035,5.3915 -4.891,8.8922 -3.5619,10.5006 2.3613,2.8573 2.0254,36.945 -0.4014,40.7401 -0.9232,1.4439 -2.8741,2.6252 -4.3353,2.6252 -1.4612,0 -48.8012,-46.838 -105.2,-104.0845 z m 124.9249,100.9573 c -1.7381,-2.0943 -2.0758,-5.736 -1.0223,-11.0257 0.8652,-4.3441 1.4017,-17.0399 1.1923,-28.2128 -0.2701,-14.4092 0.5743,-22.6001 2.9049,-28.1779 2.9949,-7.1677 2.984,-8.6536 -0.1237,-16.791 -3.8091,-9.9737 -2.0487,-19.2376 5.4726,-28.7992 3.9445,-5.0145 3.9409,-5.2095 -0.2426,-13.257 -2.7108,-5.2148 -3.8818,-10.5594 -3.2389,-14.7831 0.7753,-5.0936 -0.1626,-7.7142 -4.0773,-11.3918 -5.3843,-5.0582 -6.7359,-14.1534 -2.7026,-18.1866 1.3099,-1.3099 2.667,-5.9774 3.0157,-10.3724 0.7937,-10.0023 7.6202,-16.2494 15.9388,-14.5857 5.5427,1.1085 5.7642,0.8049 6.3847,-8.7524 0.3535,-5.4453 -0.6357,-12.6354 -2.1982,-15.9779 -1.5625,-3.3424 -2.841,-9.4151 -2.841,-13.4949 0,-4.1786 -1.8756,-9.9546 -4.2954,-13.2275 -3.791,-5.1275 -3.9827,-6.5647 -1.6326,-12.2384 1.8352,-4.4305 4.7043,-6.9546 9.2308,-8.1211 4.4542,-1.1478 6.7822,-3.1598 7.2336,-6.2518 0.8319,-5.6987 9.9179,-13.0436 16.1356,-13.0436 2.5762,0 7.0869,1.8902 10.0238,4.2003 2.9369,2.3101 5.9868,4.2003 6.7775,4.2003 0.7907,0 3.8406,-1.8902 6.7775,-4.2003 6.9742,-5.4859 11.5354,-5.3007 18.7883,0.7627 3.2651,2.7296 8.2993,5.6766 11.187,6.5488 6.6906,2.0208 12.2497,6.9187 15.9297,14.035 3.0158,5.8319 14.9384,10.279 17.4102,6.4941 4.8062,-7.3598 16.9592,-7.2065 23.1828,0.2924 1.5378,1.8529 5.4431,3.369 8.6783,3.369 6.4153,0 17.8543,8.3956 19.8026,14.5342 0.8023,2.5278 4.095,4.3085 9.5925,5.1876 4.6039,0.7362 10.284,3.2516 12.6222,5.5899 2.3383,2.3382 7.7374,5.3964 11.9981,6.7959 10.1739,3.3418 13.684,11.7959 7.7013,18.5489 -7.1531,8.0741 -219.803,203.4592 -221.4375,203.4592 -0.8653,0 -2.7412,-1.4072 -4.1687,-3.1272 z m 232.3769,-219.7649 c -2.1296,-1.2379 -5.2138,-5.462 -6.8537,-9.3868 -2.4022,-5.7493 -4.1454,-7.1359 -8.9707,-7.1359 -7.0081,0 -16.5824,-6.8805 -19.2171,-13.8103 -1.5706,-4.131 -2.9128,-4.6851 -8.968,-3.7025 -5.8863,0.9552 -8.4091,0.025 -14.5496,-5.3667 -5.689,-4.995 -9.4161,-6.5224 -15.9159,-6.5224 -5.8574,0 -10.3268,-1.5416 -14.4239,-4.9754 -4.3748,-3.6665 -7.6831,-4.716 -12.5754,-3.9893 -5.4454,0.8089 -7.2952,-0.015 -10.2894,-4.5851 -3.5162,-5.3663 -3.4844,-5.796 0.8634,-11.6767 8.6378,-11.683 3.8619,-16.1193 -9.9405,-9.2339 -6.1319,3.059 -7.1345,3.0567 -11.8402,-0.027 -6.7747,-4.4389 -8.6312,-12.2668 -4.3567,-18.3695 1.8421,-2.6299 3.3493,-6.5717 3.3493,-8.7594 0,-4.0493 -1.8907,-4.0963 -13.863,-0.3445 -2.8185,0.8832 -5.6634,0.1317 -7.8756,-2.0806 -3.8297,-3.8296 -4.6471,-12.6844 -1.3586,-14.7168 1.1763,-0.7269 1.5577,-4.7214 0.8646,-9.0555 -1.5184,-9.4955 4.4132,-18.2748 13.7296,-20.321 4.1394,-0.9091 6.3603,-2.8245 6.8,-5.8644 0.3591,-2.4829 3.9201,-6.711 7.9134,-9.3956 3.9932,-2.6847 8.4289,-7.6602 9.857,-11.0565 3.0896,-7.3482 14.185,-14.6397 22.2936,-14.6506 11.4788,-0.015 22.6355,-4.9074 23.9667,-10.5085 3.2874,-13.8318 16.2313,-25.2016 28.6908,-25.2016 3.692,0 5.8105,-1.7652 7.7564,-6.4631 3.5593,-8.5928 10.7052,-12.9584 20.9789,-12.8167 6.2322,0.086 9.7608,-1.2171 13.5466,-5.0029 2.8156,-2.8154 6.9366,-5.119 9.1579,-5.119 2.2212,0 5.2151,-1.4176 6.6531,-3.1502 1.4379,-1.7326 5.0296,-3.1502 7.9815,-3.1502 7.4811,0 51.7993,14.0671 64.3607,20.4289 14.1048,7.1433 33.5104,26.1084 39.9619,39.0549 5.1571,10.3488 5.3049,11.8505 5.3049,53.9342 0,31.5175 -0.7139,44.1626 -2.6252,46.5018 -4.2059,5.1473 -109.2054,101.3635 -114.9261,105.3124 -5.9405,4.1006 -9.9619,4.4139 -15.4807,1.206 z m -261.7982,-73.2262 c -8.3307,-8.3306 -3.3682,-21.0013 8.2251,-21.0013 6.7947,0 12.7765,5.7311 12.7765,12.2411 0,5.7153 -7.0442,12.9604 -12.601,12.9604 -2.3101,0 -6.0904,-1.8901 -8.4006,-4.2002 z m 79.5145,-5.0516 c -1.8928,-4.1543 -1.335,-7.0949 3.1406,-16.5554 5.5573,-11.7471 8.4152,-14.0953 17.1552,-14.0953 5.4726,0 11.4982,7.0369 11.4982,13.4281 0,2.2511 -4.2694,8.1838 -9.4876,13.1836 -11.0176,10.5565 -18.7027,11.9481 -22.3064,4.039 z m -12.0267,-81.4251 c -12.2209,-9.9412 -13.9066,-16.3867 -5.6931,-21.7683 4.4739,-2.9314 5.8091,-2.973 11.0258,-0.3432 3.2645,1.6457 8.5666,3.6234 11.7824,4.3949 11.3241,2.7168 13.0454,19.2259 2.5053,24.0283 -7.5842,3.4555 -7.6322,3.4401 -19.6204,-6.3117 z m -128.3925,-17.8872 c -9.4946,-3.3932 -11.4404,-17.4553 -3.1655,-22.8771 10.3199,-6.7618 22.2923,2.1826 19.2336,14.3691 -0.9727,3.8755 -9.8393,10.8314 -12.4916,9.7997 -0.2344,-0.091 -1.8438,-0.6724 -3.5765,-1.2917 z m 126.6518,-14.1115 c -4.3549,-3.7458 -5.9865,-7.1709 -6.2525,-13.1258 -0.1978,-4.4316 -1.7898,-11.9076 -3.5375,-16.6132 -2.2708,-6.1143 -2.6682,-10.8144 -1.3924,-16.471 2.0611,-9.1383 -0.5232,-18.8334 -6.8985,-25.8807 -3.5348,-3.9074 -3.8615,-5.5703 -1.9279,-9.814 1.2804,-2.8102 4.4798,-5.4185 7.1096,-5.7961 4.3244,-0.621 4.7214,-1.6544 4.1515,-10.8067 -0.3465,-5.566 -1.985,-13.3627 -3.641,-17.3261 -1.656,-3.9633 -2.4486,-7.206 -1.7614,-7.206 0.6873,0 -0.7176,-3.18301 -3.122,-7.07331 -5.116,-8.27777 -5.6236,-17.50637 -1.3023,-23.6759 2.7375,-3.90819 2.6239,-5.25591 -1.05,-12.46207 -2.2658,-4.44398 -4.1195,-10.20081 -4.1195,-12.79296 0,-2.59215 -2.3627,-8.19456 -5.2504,-12.4498 -2.8877,-4.25522 -5.2504,-10.25166 -5.2504,-13.32541 0,-5.876 -4.2963,-16.88232 -6.6008,-16.91029 -3.3501,-0.0405 -3.4871,7.00742 -0.2675,13.75883 3.36,7.04584 3.3323,7.76658 -0.5767,15.03442 -2.8382,5.27691 -3.8924,10.65049 -3.4143,17.40478 0.5584,7.88994 -0.2906,10.95195 -4.4102,15.9054 -3.4761,4.1798 -5.541,9.96833 -6.4803,18.16682 -1.3572,11.84664 -1.2891,12.05378 4.4102,13.4154 3.1838,0.76064 6.97,2.31349 8.4139,3.45069 3.3278,2.6211 3.3976,10.4416 0.1224,13.7167 -1.4307,1.4307 -2.2689,6.9067 -1.9569,12.7846 0.4772,8.9921 -0.3061,11.2522 -6.2441,18.015 -5.7452,6.5434 -6.9215,9.7297 -7.6464,20.7124 -0.4712,7.1387 -1.1554,16.2871 -1.5203,20.3299 -0.365,4.0427 -0.7688,9.5495 -0.8974,12.2373 -0.1285,2.6878 -2.8918,7.5449 -6.1407,10.7937 -3.2488,3.2487 -7.5234,8.3739 -9.4991,11.3891 -4.6471,7.0923 -12.8645,7.3336 -16.5543,0.486 -8.0196,-14.8829 -24.542,-19.5274 -41.0459,-11.5381 -12.186,5.8991 -21.6155,4.0977 -29.3606,-5.609 -3.1852,-3.992 -6.9002,-7.2582 -8.2555,-7.2583 -1.3552,0 -5.2719,-2.3627 -8.7038,-5.2504 -3.4318,-2.8877 -8.2766,-5.2503 -10.7662,-5.2503 -6.1456,0 -16.3407,-5.4962 -18.8329,-10.1529 -1.1212,-2.0949 -5.8784,-4.9594 -10.5715,-6.3654 -4.6932,-1.4061 -10.0163,-4.8203 -11.8292,-7.5871 -1.8129,-2.7668 -6.2843,-5.6868 -9.9365,-6.489 -12.1718,-2.6733 -22.3055,-13.2514 -18.5367,-19.3494 0.7833,-1.2673 28.0121,-11.8928 60.5085,-23.6124 67.9795,-24.5162 60.3362,-17.73545 62.8402,-55.74852 l 1.393,-21.14799 -9.3367,-12.68292 c -41.7972,-56.77666 -67.3204,-161.18765 -55.1217,-225.4932 10.7381,-56.60585 48.2413,-105.44795 98.2746,-127.98745 27.0624,-12.19134 66.4048,-16.17734 92.779,-9.39997 47.7954,12.28202 91.9309,51.92154 116.5647,104.6906 15.5927,33.40167 19.4349,60.92005 13.8167,98.95568 -9.5504,64.65624 -34.2341,133.34797 -59.9955,166.96034 l -10.4624,13.65085 -0.076,24.56557 -0.077,24.5656 58.2795,18.87721 c 32.0537,10.3825 60.8088,19.4954 63.9003,20.2511 3.0915,0.7556 7.2332,3.1554 9.2038,5.3329 3.4078,3.7654 3.2784,4.244 -2.6449,9.7867 -3.4253,3.2052 -8.6198,9.6218 -11.5434,14.259 -7.6542,12.141 -11.0099,14.3607 -19.6022,12.9663 -10.4367,-1.6936 -19.3806,3.7999 -22.0361,13.5349 -1.1448,4.197 -3.5146,8.8202 -5.2661,10.2738 -7.6001,6.3075 -52.3055,5.6697 -59.5086,-0.8489 -3.6223,-3.2782 -8.6819,-4.6074 -8.6819,-2.2809 0,0.6181 1.4933,3.403 3.3184,6.1885 7.2636,11.0854 -7.2044,22.7009 -19.8476,15.9346 -3.3985,-1.8188 -5.6631,-0.919 -12.8967,5.1245 -10.367,8.6612 -14.5107,9.079 -22.436,2.2623 z m -56.8792,-2.4012 c -5.7959,-4.0596 -5.9702,-9.6018 -0.4587,-14.5896 9.2684,-8.3877 20.2742,5.6769 11.3923,14.5587 -4.0999,4.0998 -5.1202,4.1027 -10.9336,0.031 z m 10.5907,-26.6576 c -1.1315,-1.4438 -2.122,-9.0286 -2.2011,-16.855 -0.1298,-12.8342 0.357,-14.5579 4.9628,-17.5757 4.2894,-2.8105 6.117,-2.9274 11.4214,-0.7303 7.8035,3.2323 10.0866,10.6891 5.4428,17.7763 -1.86,2.8387 -3.3818,7.017 -3.3818,9.2853 0,8.4319 -11.4928,14.1623 -16.2441,8.0994 z"
           id="path10319" />
        <path
           style="fill:#a0a0a0;stroke-width:2.10015"
           d="M 928.1586,1421.2173 552.76652,1045.8089 929.74535,668.83549 1306.7242,291.86212 l 375.4,375.41516 c 206.47,206.47835 375.7542,376.47462 376.1871,377.76952 1.0322,3.0877 -747.4802,751.579 -751.6002,751.579 -1.7382,0 -172.0868,-168.9338 -378.5525,-375.4085 z m 698.3172,-56.7097 c 174.1244,-174.1361 316.5897,-317.5475 316.5897,-318.6922 0,-3.4167 -632.9209,-635.27549 -636.3434,-635.27549 -4.1189,0 -634.25367,630.11529 -634.25367,634.23409 0,3.4428 631.86827,636.3446 635.30547,636.3446 1.1617,0 144.5776,-142.475 318.7019,-316.611 z m -436.2641,71.8178 c -93.4083,-94.8122 -102.5266,-104.6812 -102.3544,-110.7819 0.1321,-4.6785 2.1364,-8.4383 6.6495,-12.4727 l 6.4606,-5.7753 -5.8085,0.067 c -3.1948,0.037 -7.6431,1.4544 -9.8853,3.1502 -9.9606,7.5338 -12.0723,5.9446 -72.2256,-54.3539 l -57.29901,-57.4374 0.64559,-43.8939 c 0.73367,-49.8828 1.70537,-53.6385 17.97744,-69.4846 7.37156,-7.1785 14.88655,-11.0715 41.00048,-21.2392 50.947,-19.8368 46.6939,-18.7768 53.9167,-13.4368 3.432,2.5373 8.5851,4.6132 11.4515,4.6132 2.8663,0 5.7955,0.9451 6.5094,2.1002 0.7139,1.155 3.2258,2.1001 5.582,2.1001 7.8074,0 18.8795,6.8073 22.1181,13.5985 1.7929,3.7597 5.8153,7.6381 9.2766,8.9446 4.385,1.6551 6.4814,4.1572 7.4214,8.8576 1.5947,7.9732 7.345,11.4946 19.0243,11.6504 10.0572,0.1342 18.1021,6.2098 22.6759,17.1253 1.5263,3.6427 4.7032,7.235 7.0597,7.9829 2.3565,0.7479 4.8311,3.0816 5.499,5.186 0.8705,2.7428 4.0035,4.1405 11.0651,4.9364 7.577,0.854 11.1996,2.6199 15.6944,7.6503 3.2139,3.597 5.8435,8.3594 5.8435,10.5832 0,6.1601 4.1533,7.393 7.7253,2.2933 2.8551,-4.0762 4.4326,-4.4115 15.0583,-3.2011 13.843,1.577 22.452,8.6024 20.1339,16.4303 -2.9811,10.0669 -13.4693,12.6644 -22.4889,5.5696 -2.9369,-2.3102 -7.0809,-4.1507 -9.2089,-4.0901 -3.4192,0.097 -3.3196,0.4935 0.8563,3.4063 5.4112,3.7747 6.2064,11.5411 1.5751,15.3847 -1.7326,1.4379 -3.1502,4.2731 -3.1502,6.3004 0,2.0273 1.4176,4.8624 3.1502,6.3004 4.074,3.381 4.0437,11.345 -0.056,14.7475 -2.793,2.318 -2.3869,3.1594 3.1503,6.5267 7.579,4.609 8.5246,12.6713 2.0204,17.227 -9.786,6.8543 -20.3971,-4.1415 -13.7647,-14.2637 2.3489,-3.5847 2.6733,-5.3363 0.9884,-5.3363 -1.3796,0 -4.2589,-1.5843 -6.3986,-3.5206 -2.3507,-2.1275 -4.6141,-2.7508 -5.7195,-1.5751 -3.0932,3.2896 -4.7979,15.0852 -2.3948,16.5704 1.2227,0.7557 2.2232,4.5723 2.2232,8.4813 -10e-5,7.7874 -5.9044,13.646 -13.7524,13.646 -6.0461,0 -13.5498,-8.5069 -13.5498,-15.3613 0,-3.2276 -1.1678,-5.64 -2.7302,-5.64 -4.7141,0 -7.586,4.5982 -6.4426,10.3151 1.6833,8.4163 -6.2735,17.4252 -14.7455,16.6953 -8.5724,-0.7386 -11.7844,1.4158 -11.7844,7.9038 0,11.6631 -11.7431,21.1339 -23.1091,18.6376 -4.8917,-1.0744 -6.453,-0.4196 -8.4452,3.542 -1.3442,2.673 -4.8406,6.8837 -7.7698,9.3571 l -5.3258,4.4971 4.6707,1.4823 c 3.468,1.1007 6.1477,0.067 10.4071,-4.0133 7.4311,-7.1194 17.1296,-9.877 25.8956,-7.363 5.0108,1.4371 7.0553,1.264 7.6938,-0.6514 0.4783,-1.4347 3.4776,-5.2166 6.6652,-8.4041 4.432,-4.432 7.8102,-5.7956 14.3578,-5.7956 4.7092,0 8.5622,-0.9208 8.5622,-2.0462 0,-4.3151 12.7971,-8.7905 21.1167,-7.3849 5.8125,0.982 9.4889,0.4259 12.8778,-1.9477 2.6087,-1.8272 6.4525,-3.3221 8.5419,-3.3221 3.8667,0 4.4973,-1.0256 6.6153,-10.7598 1.7787,-8.1751 11.3921,-11.622 19.9996,-7.171 3.6178,1.8709 7.4252,2.8778 8.4609,2.2378 1.0356,-0.6401 6.2938,0.3337 11.6847,2.1639 5.3909,1.8303 11.0228,2.8592 12.5153,2.2865 1.4925,-0.5727 4.6357,0.3049 6.9848,1.9503 3.7748,2.6439 4.2043,4.9107 3.6951,19.5019 -0.3169,9.0807 -1.1928,17.5081 -1.9465,18.7275 -0.7536,1.2195 0.9755,6.7844 3.8426,12.3666 l 5.2129,10.1495 0.054,-7.55 c 0.056,-7.8449 5.0686,-14.5014 10.9198,-14.5014 3.8556,0 10.1103,6.5388 10.2027,10.666 0.037,1.6417 1.4543,4.8193 3.1502,7.0615 4.2901,5.6719 3.8475,12.1624 -1.1987,17.5787 -6.4294,6.901 -15.2902,6.0335 -21.6728,-2.1218 l -5.2578,-6.7181 -1.3735,5.4724 c -0.7554,3.0098 -0.348,7.3884 0.9053,9.7302 3.4179,6.3864 2.8081,9.8829 -2.9083,16.6765 -6.1561,7.316 -5.5853,13.7392 1.7326,19.4953 5.1576,4.0569 7.7504,14.3492 7.8583,31.1934 0.025,3.9478 1.8799,9.5093 4.1215,12.359 4.8298,6.1399 5.3741,18.8596 1.0565,24.6896 -2.2684,3.063 -2.7347,7.9928 -1.8756,19.8276 1.0572,14.5622 0.7242,16.3613 -4.4124,23.8389 -3.7035,5.3915 -4.891,8.8922 -3.5619,10.5006 2.3613,2.8573 2.0254,36.945 -0.4014,40.7401 -0.9232,1.4439 -2.8741,2.6252 -4.3353,2.6252 -1.4612,0 -48.8012,-46.838 -105.2,-104.0845 z m 124.9249,100.9573 c -1.7381,-2.0943 -2.0758,-5.736 -1.0223,-11.0257 0.8652,-4.3441 1.4017,-17.0399 1.1923,-28.2128 -0.2701,-14.4092 0.5743,-22.6001 2.9049,-28.1779 2.9949,-7.1677 2.984,-8.6536 -0.1237,-16.791 -3.8091,-9.9737 -2.0487,-19.2376 5.4726,-28.7992 3.9445,-5.0145 3.9409,-5.2095 -0.2426,-13.257 -2.7108,-5.2148 -3.8818,-10.5594 -3.2389,-14.7831 0.7753,-5.0936 -0.1626,-7.7142 -4.0773,-11.3918 -5.3843,-5.0582 -6.7359,-14.1534 -2.7026,-18.1866 1.3099,-1.3099 2.667,-5.9774 3.0157,-10.3724 0.7937,-10.0023 7.6202,-16.2494 15.9388,-14.5857 5.5427,1.1085 5.7642,0.8049 6.3847,-8.7524 0.3535,-5.4453 -0.6357,-12.6354 -2.1982,-15.9779 -1.5625,-3.3424 -2.841,-9.4151 -2.841,-13.4949 0,-4.1786 -1.8756,-9.9546 -4.2954,-13.2275 -3.791,-5.1275 -3.9827,-6.5647 -1.6326,-12.2384 1.8352,-4.4305 4.7043,-6.9546 9.2308,-8.1211 4.4542,-1.1478 6.7822,-3.1598 7.2336,-6.2518 0.8319,-5.6987 9.9179,-13.0436 16.1356,-13.0436 2.5762,0 7.0869,1.8902 10.0238,4.2003 2.9369,2.3101 5.9868,4.2003 6.7775,4.2003 0.7907,0 3.8406,-1.8902 6.7775,-4.2003 6.9742,-5.4859 11.5354,-5.3007 18.7883,0.7627 3.2651,2.7296 8.2993,5.6766 11.187,6.5488 6.6906,2.0208 12.2497,6.9187 15.9297,14.035 3.0158,5.8319 14.9384,10.279 17.4102,6.4941 4.8062,-7.3598 16.9592,-7.2065 23.1828,0.2924 1.5378,1.8529 5.4431,3.369 8.6783,3.369 6.4153,0 17.8543,8.3956 19.8026,14.5342 0.8023,2.5278 4.095,4.3085 9.5925,5.1876 4.6039,0.7362 10.284,3.2516 12.6222,5.5899 2.3383,2.3382 7.7374,5.3964 11.9981,6.7959 10.1739,3.3418 13.684,11.7959 7.7013,18.5489 -7.1531,8.0741 -219.803,203.4592 -221.4375,203.4592 -0.8653,0 -2.7412,-1.4072 -4.1687,-3.1272 z m 232.3769,-219.7649 c -2.1296,-1.2379 -5.2138,-5.462 -6.8537,-9.3868 -2.4022,-5.7493 -4.1454,-7.1359 -8.9707,-7.1359 -7.0081,0 -16.5824,-6.8805 -19.2171,-13.8103 -1.5706,-4.131 -2.9128,-4.6851 -8.968,-3.7025 -5.8863,0.9552 -8.4091,0.025 -14.5496,-5.3667 -5.689,-4.995 -9.4161,-6.5224 -15.9159,-6.5224 -5.8574,0 -10.3268,-1.5416 -14.4239,-4.9754 -4.3748,-3.6665 -7.6831,-4.716 -12.5754,-3.9893 -5.4454,0.8089 -7.2952,-0.015 -10.2894,-4.5851 -3.5162,-5.3663 -3.4844,-5.796 0.8634,-11.6767 8.6378,-11.683 3.8619,-16.1193 -9.9405,-9.2339 -6.1319,3.059 -7.1345,3.0567 -11.8402,-0.027 -6.7747,-4.4389 -8.6312,-12.2668 -4.3567,-18.3695 1.8421,-2.6299 3.3493,-6.5717 3.3493,-8.7594 0,-4.0493 -1.8907,-4.0963 -13.863,-0.3445 -2.8185,0.8832 -5.6634,0.1317 -7.8756,-2.0806 -3.8297,-3.8296 -4.6471,-12.6844 -1.3586,-14.7168 1.1763,-0.7269 1.5577,-4.7214 0.8646,-9.0555 -1.5184,-9.4955 4.4132,-18.2748 13.7296,-20.321 4.1394,-0.9091 6.3603,-2.8245 6.8,-5.8644 0.3591,-2.4829 3.9201,-6.711 7.9134,-9.3956 3.9932,-2.6847 8.4289,-7.6602 9.857,-11.0565 3.0896,-7.3482 14.185,-14.6397 22.2936,-14.6506 11.4788,-0.015 22.6355,-4.9074 23.9667,-10.5085 3.2874,-13.8318 16.2313,-25.2016 28.6908,-25.2016 3.692,0 5.8105,-1.7652 7.7564,-6.4631 3.5593,-8.5928 10.7052,-12.9584 20.9789,-12.8167 6.2322,0.086 9.7608,-1.2171 13.5466,-5.0029 2.8156,-2.8154 6.9366,-5.119 9.1579,-5.119 2.2212,0 5.2151,-1.4176 6.6531,-3.1502 1.4379,-1.7326 5.0296,-3.1502 7.9815,-3.1502 7.4811,0 51.7993,14.0671 64.3607,20.4289 14.1048,7.1433 33.5104,26.1084 39.9619,39.0549 5.1571,10.3488 5.3049,11.8505 5.3049,53.9342 0,31.5175 -0.7139,44.1626 -2.6252,46.5018 -4.2059,5.1473 -109.2054,101.3635 -114.9261,105.3124 -5.9405,4.1006 -9.9619,4.4139 -15.4807,1.206 z m -261.7982,-73.2262 c -8.3307,-8.3306 -3.3682,-21.0013 8.2251,-21.0013 6.7947,0 12.7765,5.7311 12.7765,12.2411 0,5.7153 -7.0442,12.9604 -12.601,12.9604 -2.3101,0 -6.0904,-1.8901 -8.4006,-4.2002 z m 79.5145,-5.0516 c -1.8928,-4.1543 -1.335,-7.0949 3.1406,-16.5554 5.5573,-11.7471 8.4152,-14.0953 17.1552,-14.0953 5.4726,0 11.4982,7.0369 11.4982,13.4281 0,2.2511 -4.2694,8.1838 -9.4876,13.1836 -11.0176,10.5565 -18.7027,11.9481 -22.3064,4.039 z m -12.0267,-81.4251 c -12.2209,-9.9412 -13.9066,-16.3867 -5.6931,-21.7683 4.4739,-2.9314 5.8091,-2.973 11.0258,-0.3432 3.2645,1.6457 8.5666,3.6234 11.7824,4.3949 11.3241,2.7168 13.0454,19.2259 2.5053,24.0283 -7.5842,3.4555 -7.6322,3.4401 -19.6204,-6.3117 z m -128.3925,-17.8872 c -9.4946,-3.3932 -11.4404,-17.4553 -3.1655,-22.8771 10.3199,-6.7618 22.2923,2.1826 19.2336,14.3691 -0.9727,3.8755 -9.8393,10.8314 -12.4916,9.7997 -0.2344,-0.091 -1.8438,-0.6724 -3.5765,-1.2917 z m 126.6518,-14.1115 c -4.3549,-3.7458 -5.9865,-7.1709 -6.2525,-13.1258 -0.1978,-4.4316 -1.7898,-11.9076 -3.5375,-16.6132 -2.2708,-6.1143 -2.6682,-10.8144 -1.3924,-16.471 2.0611,-9.1383 -0.5232,-18.8334 -6.8985,-25.8807 -3.5348,-3.9074 -3.8615,-5.5703 -1.9279,-9.814 1.2804,-2.8102 4.4798,-5.4185 7.1096,-5.7961 4.3244,-0.621 4.7214,-1.6544 4.1515,-10.8067 -0.3465,-5.566 -1.985,-13.3627 -3.641,-17.3261 -1.656,-3.9633 -2.4486,-7.206 -1.7614,-7.206 0.6873,0 -0.7176,-3.18301 -3.122,-7.07331 -5.116,-8.27777 -5.6236,-17.50637 -1.3023,-23.6759 2.7375,-3.90819 2.6239,-5.25591 -1.05,-12.46207 -2.2658,-4.44398 -4.1195,-10.20081 -4.1195,-12.79296 0,-2.59215 -2.3627,-8.19456 -5.2504,-12.4498 -2.8877,-4.25522 -5.2504,-10.25166 -5.2504,-13.32541 0,-5.876 -4.2963,-16.88232 -6.6008,-16.91029 -3.3501,-0.0405 -3.4871,7.00742 -0.2675,13.75883 3.36,7.04584 3.3323,7.76658 -0.5767,15.03442 -2.8382,5.27691 -3.8924,10.65049 -3.4143,17.40478 0.5584,7.88994 -0.2906,10.95195 -4.4102,15.9054 -3.4761,4.1798 -5.541,9.96833 -6.4803,18.16682 -1.3572,11.84664 -1.2891,12.05378 4.4102,13.4154 3.1838,0.76064 6.97,2.31349 8.4139,3.45069 3.3278,2.6211 3.3976,10.4416 0.1224,13.7167 -1.4307,1.4307 -2.2689,6.9067 -1.9569,12.7846 0.4772,8.9921 -0.3061,11.2522 -6.2441,18.015 -5.7452,6.5434 -6.9215,9.7297 -7.6464,20.7124 -0.4712,7.1387 -1.1554,16.2871 -1.5203,20.3299 -0.365,4.0427 -0.7688,9.5495 -0.8974,12.2373 -0.1285,2.6878 -2.8918,7.5449 -6.1407,10.7937 -3.2488,3.2487 -7.5234,8.3739 -9.4991,11.3891 -4.6471,7.0923 -12.8645,7.3336 -16.5543,0.486 -8.0196,-14.8829 -24.542,-19.5274 -41.0459,-11.5381 -12.186,5.8991 -21.6155,4.0977 -29.3606,-5.609 -3.1852,-3.992 -6.9002,-7.2582 -8.2555,-7.2583 -1.3552,0 -5.2719,-2.3627 -8.7038,-5.2504 -3.4318,-2.8877 -8.2766,-5.2503 -10.7662,-5.2503 -6.1456,0 -16.3407,-5.4962 -18.8329,-10.1529 -1.1212,-2.0949 -5.8784,-4.9594 -10.5715,-6.3654 -4.6932,-1.4061 -10.0163,-4.8203 -11.8292,-7.5871 -1.8129,-2.7668 -6.2843,-5.6868 -9.9365,-6.489 -12.1718,-2.6733 -22.3055,-13.2514 -18.5367,-19.3494 0.7833,-1.2673 28.0121,-11.8928 60.5085,-23.6124 67.9795,-24.5162 60.3362,-17.73545 62.8402,-55.74852 l 1.393,-21.14799 -9.3367,-12.68292 c -41.7972,-56.77666 -67.3204,-161.18765 -55.1217,-225.4932 10.7381,-56.60585 48.2413,-105.44795 98.2746,-127.98745 27.0624,-12.19134 66.4048,-16.17734 92.779,-9.39997 47.7954,12.28202 91.9309,51.92154 116.5647,104.6906 15.5927,33.40167 19.4349,60.92005 13.8167,98.95568 -9.5504,64.65624 -34.2341,133.34797 -59.9955,166.96034 l -10.4624,13.65085 -0.076,24.56557 -0.077,24.5656 58.2795,18.87721 c 32.0537,10.3825 60.8088,19.4954 63.9003,20.2511 3.0915,0.7556 7.2332,3.1554 9.2038,5.3329 3.4078,3.7654 3.2784,4.244 -2.6449,9.7867 -3.4253,3.2052 -8.6198,9.6218 -11.5434,14.259 -7.6542,12.141 -11.0099,14.3607 -19.6022,12.9663 -10.4367,-1.6936 -19.3806,3.7999 -22.0361,13.5349 -1.1448,4.197 -3.5146,8.8202 -5.2661,10.2738 -7.6001,6.3075 -52.3055,5.6697 -59.5086,-0.8489 -3.6223,-3.2782 -8.6819,-4.6074 -8.6819,-2.2809 0,0.6181 1.4933,3.403 3.3184,6.1885 7.2636,11.0854 -7.2044,22.7009 -19.8476,15.9346 -3.3985,-1.8188 -5.6631,-0.919 -12.8967,5.1245 -10.367,8.6612 -14.5107,9.079 -22.436,2.2623 z m -56.8792,-2.4012 c -5.7959,-4.0596 -5.9702,-9.6018 -0.4587,-14.5896 9.2684,-8.3877 20.2742,5.6769 11.3923,14.5587 -4.0999,4.0998 -5.1202,4.1027 -10.9336,0.031 z m 10.5907,-26.6576 c -1.1315,-1.4438 -2.122,-9.0286 -2.2011,-16.855 -0.1298,-12.8342 0.357,-14.5579 4.9628,-17.5757 4.2894,-2.8105 6.117,-2.9274 11.4214,-0.7303 7.8035,3.2323 10.0866,10.6891 5.4428,17.7763 -1.86,2.8387 -3.3818,7.017 -3.3818,9.2853 0,8.4319 -11.4928,14.1623 -16.2441,8.0994 z"
           id="path10317" />
        <path
           style="fill:#f05f55;stroke-width:2.10015"
           d="M 928.1586,1421.2173 552.76652,1045.8089 929.74535,668.83549 1306.7242,291.86212 l 375.4,375.41516 c 206.47,206.47835 375.7542,376.47462 376.1871,377.76952 1.0322,3.0877 -747.4802,751.579 -751.6002,751.579 -1.7382,0 -172.0868,-168.9338 -378.5525,-375.4085 z m 698.3172,-56.7097 c 174.1244,-174.1361 316.5897,-317.5475 316.5897,-318.6922 0,-3.4167 -632.9209,-635.27549 -636.3434,-635.27549 -4.1189,0 -634.25367,630.11529 -634.25367,634.23409 0,3.4428 631.86827,636.3446 635.30547,636.3446 1.1617,0 144.5776,-142.475 318.7019,-316.611 z m -434.7427,70.6864 c -102.3406,-104.1246 -103.9603,-106.0069 -100.0282,-116.2537 1.825,-4.7558 12.7957,-10.0185 17.6639,-8.4734 2.7422,0.8703 6.7593,-0.8835 12.3929,-5.4107 7.6496,-6.1473 9.3045,-6.6181 20.1124,-5.7219 11.2067,0.9294 11.9246,0.6911 14.826,-4.9194 3.7177,-7.1891 8.9948,-10.2209 17.7905,-10.2209 4.0404,0 9.1149,-2.0653 12.9001,-5.2503 6.2898,-5.2924 11.9817,-6.2822 19.4031,-3.374 2.508,0.9828 6.879,0.1667 11.5509,-2.1564 4.1338,-2.0556 9.1699,-4.2214 11.1913,-4.813 2.4475,-0.7162 3.6753,-3.1861 3.6753,-7.3934 0,-4.38 1.5716,-7.3476 5.1238,-9.6751 4.6026,-3.0157 5.831,-3.0361 12.0759,-0.2012 6.3079,2.8635 12.6269,4.1144 32.5184,6.4371 3.6656,0.4281 7.6053,1.3596 8.7548,2.07 2.2586,1.3959 1.8694,32.77 -0.4532,36.5279 -0.7657,1.239 0.645,6.1612 3.135,10.9382 4.0037,7.6813 4.2386,9.649 2.0309,17.0175 -1.9415,6.4801 -1.9276,9.9049 0.063,15.4088 2.3515,6.503 2.1048,7.6167 -3.0426,13.7339 -7.3612,8.7483 -7.206,15.407 0.4868,20.8847 6.2169,4.4267 8.6998,13.2925 8.8163,31.4803 0.025,3.9478 1.88,9.5093 4.1215,12.359 5.2296,6.6482 5.2254,18.5795 -0.01,26.5204 -3.1361,4.7574 -3.5564,7.0906 -1.8512,10.2768 3.4756,6.4942 1.0273,25.0686 -4.2883,32.5335 -3.4166,4.7981 -4.158,7.5869 -2.7406,10.3082 1.0687,2.0519 1.6932,11.2911 1.3876,20.5317 -0.6922,20.9353 -0.5124,19.9529 -3.6486,19.9429 -1.4439,0 -48.225,-46.4029 -103.958,-103.1074 z m 124.3664,100.9054 c -0.7691,-1.2443 -0.6941,-5.7451 0.1667,-10.0017 0.8607,-4.2565 1.4697,-17.1371 1.3533,-28.6234 -0.1493,-14.74 0.7308,-22.8703 2.9919,-27.6351 2.8717,-6.0515 2.8712,-7.7295 0,-16.1988 -3.7139,-10.9388 -1.9751,-20.2512 5.2091,-27.8983 l 4.4986,-4.7885 -4.5693,-9.4389 c -3.292,-6.8002 -4.1951,-11.4339 -3.2306,-16.5751 1.1476,-6.1171 0.565,-7.6433 -4.0794,-10.6863 -6.2246,-4.0785 -7.0055,-10.7532 -2.0807,-17.7843 1.8357,-2.6207 2.7842,-6.2072 2.1077,-7.9699 -1.3082,-3.4092 2.0515,-11.3278 5.895,-13.8942 4.5074,-3.0096 9.9327,-1.5322 15.3061,4.1681 l 5.4442,5.7754 -1.6348,-6.3004 c -0.8992,-3.4652 -1.8057,-11.0257 -2.0145,-16.801 -0.2088,-5.7754 -1.4956,-12.565 -2.8595,-15.0879 -1.364,-2.523 -2.48,-7.9953 -2.48,-12.1608 0,-4.5363 -1.875,-10.1096 -4.6754,-13.8973 -4.3158,-5.8374 -4.4345,-6.7529 -1.5435,-11.9035 1.7225,-3.0689 5.4803,-6.1303 8.3507,-6.8032 3.1615,-0.7411 6.5102,-3.9409 8.4948,-8.117 5.6097,-11.8043 14.0792,-14.0339 23.9166,-6.2959 l 5.7073,4.4894 8.2351,-4.6283 c 9.0762,-5.1011 15.3177,-4.4063 18.7957,2.0922 1.1945,2.2319 3.6031,4.058 5.3525,4.058 6.0415,0 15.5128,6.3926 18.7521,12.6566 1.7876,3.4568 6.2927,7.5686 10.0113,9.1372 5.966,2.5168 7.255,2.4277 10.9614,-0.7579 2.3102,-1.9855 5.3622,-4.2668 6.7821,-5.0696 2.9668,-1.6772 11.3179,2.191 13.7988,6.3917 0.9238,1.564 3.9337,2.8436 6.6888,2.8436 8.8081,0 15.4851,3.8252 20.4952,11.7414 3.742,5.9125 6.4353,7.8311 11.5591,8.2342 3.6742,0.289 9.622,3.0007 13.2173,6.0259 3.5954,3.0252 8.3329,5.5004 10.5278,5.5004 5.6508,0 11.2711,9.1286 8.6411,14.0351 -2.1563,4.0229 -213.8544,199.4858 -219.4415,202.6125 -1.9905,1.1139 -3.7902,0.9418 -4.6469,-0.4444 z m -7.8075,-203.7207 c -2.8907,-1.7229 -3.6753,-5.0667 -3.6753,-15.6631 0,-11.3232 0.6701,-13.8313 4.2004,-15.7205 5.1002,-2.7296 12.6009,0.5593 12.6009,5.5252 0,1.8025 1.6406,6.0545 3.6457,9.4488 3.3049,5.5948 3.3478,6.7046 0.4588,11.8748 -3.4522,6.178 -11.0975,8.1901 -17.2305,4.5348 z m 240.4422,-17.1575 c -2.6133,-1.2598 -5.5044,-5.2123 -6.4246,-8.7834 -1.2241,-4.7506 -3.0486,-6.6506 -6.7994,-7.0807 -11.665,-1.3379 -14.7976,-3.0075 -19.4576,-10.3705 -4.3465,-6.8677 -5.9052,-7.7567 -13.9533,-7.9586 -7.1655,-0.1798 -10.003,-1.4097 -13.5684,-5.8811 -3.7293,-4.6769 -6.1904,-5.6538 -14.244,-5.6538 -7.1707,0 -11.2998,-1.3108 -15.6723,-4.9755 -4.3747,-3.6664 -7.6831,-4.716 -12.5753,-3.9893 -5.27,0.7829 -7.1473,0.036 -9.1056,-3.6232 -2.0791,-3.8846 -1.751,-5.3713 2.0864,-9.456 6.2638,-6.6675 4.9911,-14.4965 -2.4971,-15.3611 -3.1099,-0.3591 -8.0081,0.8894 -10.885,2.7744 -4.0684,2.6657 -6.1899,2.914 -9.5471,1.1173 -5.979,-3.1998 -7.8429,-11.8875 -3.5648,-16.6147 4.3248,-4.7787 4.388,-12.6281 0.1151,-14.2678 -1.8063,-0.6932 -5.6406,-0.1865 -8.5207,1.1256 -3.6854,1.6791 -6.4451,1.739 -9.3168,0.2022 -4.2962,-2.2992 -5.6109,-11.3427 -1.9756,-13.5894 1.1652,-0.7201 1.5684,-4.7597 0.9033,-9.0495 -1.4715,-9.4907 2.157,-15.0429 11.9833,-18.3363 4.783,-1.6031 7.2841,-3.8885 7.7538,-7.0853 0.3966,-2.699 3.7675,-6.5326 7.8755,-8.9563 3.9501,-2.3306 8.615,-7.2571 10.3664,-10.9478 3.7444,-7.8906 12.8882,-13.8634 21.2918,-13.9078 3.287,-0.017 9.7567,-1.3339 14.3771,-2.9255 6.8537,-2.3609 8.9024,-4.3752 11.1255,-10.9389 4.4204,-13.0506 15.0602,-21.8062 26.4992,-21.8062 3.3543,0 6.1696,-1.7238 7.7173,-4.7253 5.5022,-10.671 10.6482,-14.1759 20.813,-14.1759 7.7045,0 10.8109,-1.1094 14.7011,-5.2503 2.7129,-2.8877 7.0148,-5.2504 9.5597,-5.2504 2.5449,0 5.8037,-1.4175 7.2416,-3.1501 1.438,-1.7327 4.6646,-3.1502 7.1702,-3.1502 5.3703,0 56.078,16.7471 65.5707,21.6558 11.4135,5.9021 29.6629,24.2893 35.2653,35.5317 5.2806,10.5967 5.4025,11.8233 5.4025,54.3556 v 43.5143 l -50.0179,46.1555 c -75.0797,69.2819 -70.0777,65.464 -79.6932,60.8286 z m -534.7153,-60.464 -55.92865,-56.7385 0.021,-41.4426 c 0.0189,-39.0504 0.30493,-42.0533 4.9476,-52.0232 8.55347,-18.3681 19.54275,-25.8442 61.28975,-41.6956 l 36.9552,-14.0318 6.9208,4.2772 c 3.8064,2.3525 9.3525,4.2773 12.3244,4.2773 2.972,0 5.911,0.8209 6.5311,1.8243 0.6201,1.0033 4.7472,2.403 9.1713,3.1105 8.0166,1.2818 14.5369,6.57 19.1628,15.5414 1.3401,2.599 3.6744,4.7253 5.1874,4.7253 3.7207,0 9.7023,6.8696 9.7023,11.1427 0,5.0823 10.1803,10.8893 19.3538,11.0397 9.9351,0.163 18.8432,6.5306 21.3465,15.2591 1.0352,3.6091 3.6671,7.1286 5.8488,7.821 2.1816,0.6924 5.4678,3.5499 7.3025,6.35 2.3535,3.5918 5.2747,5.0934 9.9198,5.0989 9.131,0.011 19.8226,7.0155 21.5262,14.1029 1.6892,7.0273 10.3073,22.3453 14.5551,25.8707 3.9507,3.2787 3.9058,9.2015 -0.095,12.5218 -1.7326,1.4379 -3.1502,4.7456 -3.1502,7.3505 0,2.6048 1.4176,5.9125 3.1502,7.3504 3.7933,3.1481 4.0819,8.7289 0.63,12.1808 -3.4518,3.4518 -9.0327,3.1631 -12.1809,-0.6301 -4.4345,-5.3432 -8.1203,-3.5232 -10.7691,5.3178 -1.9346,6.4568 -1.9546,9.0504 -0.084,10.9206 3.5104,3.5104 3.0264,13.3398 -0.8475,17.2137 -7.0267,7.0266 -17.1791,2.1473 -19.5388,-9.3905 -0.9645,-4.7156 -2.8651,-7.5019 -5.4578,-8.0012 -5.4154,-1.043 -9.5531,5.2308 -8.1329,12.3314 1.585,7.9252 -5.7943,15.5098 -13.6322,14.0115 -8.4855,-1.622 -12.9434,1.8179 -12.9434,9.9872 0,10.5911 -10.2758,18.7259 -21.3014,16.8632 -7.2293,-1.2214 -8.2701,-0.8276 -10.0271,3.7934 -2.8277,7.4375 -12.2878,14.1083 -20.0073,14.1083 -3.6662,0 -8.5004,1.3876 -10.7426,3.0834 -10.1734,7.6947 -12.0859,6.2532 -71.0074,-53.5215 z m 273.072,-12.2061 c -7.382,-8.1569 -2.4166,-18.0398 8.4345,-16.7874 8.114,0.9365 11.5292,10.253 5.9986,16.3641 -4.7874,5.29 -9.8933,5.4397 -14.4331,0.4233 z m -61.77,-2.7896 c -3.6623,-3.6622 -3.2564,-6.8352 1.4152,-11.0628 3.2592,-2.9495 4.8825,-3.1845 8.5265,-1.2343 6.5634,3.5126 5.1266,13.4517 -2.0661,14.2923 -2.8958,0.3383 -6.4398,-0.5595 -7.8756,-1.9952 z m 142.7207,-0.09 c -3.4519,-3.4519 -3.1632,-9.0327 0.63,-12.1808 1.7327,-1.4379 3.1503,-4.2423 3.1503,-6.232 0,-8.7688 13.3872,-13.683 19.8015,-7.2688 5.4193,5.4193 3.8119,11.094 -5.6255,19.8593 -9.3057,8.643 -13.7081,10.0705 -17.9563,5.8223 z m -127.3088,-64.4952 c -1.9967,-2.2062 -5.9831,-4.6018 -8.8586,-5.3235 -4.2064,-1.0558 -5.0998,-2.4267 -4.5708,-7.0143 0.6173,-5.3533 1.2356,-5.6698 10.1082,-5.1741 14.1919,0.7929 18.5469,2.2359 21.0902,6.988 1.791,3.3465 1.5578,5.4644 -1.0378,9.4258 -4.0453,6.1737 -11.6841,6.6751 -16.7312,1.0981 z m 116.0573,-16.9899 c -3.626,-3.4652 -7.2966,-6.3004 -8.1568,-6.3004 -2.4638,0 -4.3274,-6.5184 -3.0311,-10.6025 1.7211,-5.4226 7.2114,-6.7515 12.7907,-3.096 2.6843,1.7588 6.6575,3.1979 8.8293,3.1979 5.1041,0 10.9001,6.4457 10.9001,12.122 0,4.5042 -7.099,10.9794 -12.0373,10.9794 -1.4861,0 -5.6688,-2.8352 -9.2949,-6.3004 z m -133.6123,-22.1704 c -8.1609,-5.7161 -4.1339,-19.8322 5.6577,-19.8322 4.91,0 10.6763,6.5471 10.6763,12.1221 0,3.7945 -6.8717,10.9793 -10.5008,10.9793 -0.6411,0 -3.266,-1.4711 -5.8332,-3.2692 z m 132.5051,-9.3462 c -5.7996,-2.3367 -9.7787,-9.6222 -8.3141,-15.2227 0.6195,-2.3691 -0.2989,-7.0636 -2.041,-10.4323 -2.043,-3.9506 -2.985,-10.7325 -2.6536,-19.1044 0.5941,-15.009 -1.0866,-21.5682 -7.2512,-28.2998 -5.2044,-5.6831 -3.0764,-11.1469 5.0952,-13.0824 4.7423,-1.1233 5.0081,-1.9621 4.3396,-13.6986 -0.3916,-6.8762 -1.5729,-13.3999 -2.6252,-14.4972 -1.0522,-1.0973 -1.9342,-4.405 -1.9599,-7.3505 -0.026,-2.9454 -1.8948,-7.71795 -4.1536,-10.60563 -4.9196,-6.28934 -5.3583,-15.18146 -1.0717,-21.72362 2.8245,-4.3106 2.7224,-5.5716 -1.0501,-12.97095 -2.2982,-4.50788 -4.1786,-10.93132 -4.1786,-14.27435 0,-3.41941 -2.2967,-8.80761 -5.2504,-12.31785 -3.1795,-3.77855 -5.2535,-8.86824 -5.2583,-12.90396 -0.01,-6.01788 -6.6676,-20.31512 -9.464,-20.31512 -0.6231,0 -2.0514,2.41576 -3.174,5.36835 -1.5012,3.94843 -1.1979,6.99879 1.1466,11.53259 3.4166,6.60689 2.4403,14.99023 -2.1936,18.83599 -1.9524,1.62027 -2.4428,5.57462 -1.6472,13.28244 0.9831,9.52505 0.448,11.79848 -4.0494,17.20521 -3.5333,4.24776 -5.613,9.99305 -6.5365,18.05748 -1.4772,12.89915 -0.024,15.58251 9.1247,16.84802 6.1356,0.8487 8.1887,8.0954 3.4158,12.0566 -2.3123,1.919 -2.7959,5.3864 -1.9263,13.8123 1.0582,10.2527 0.6473,11.7638 -4.6348,17.0459 -6.7767,6.7765 -10.2715,17.5704 -8.4193,26.0032 0.7414,3.3757 0.3451,6.5591 -0.9134,7.3369 -1.2227,0.7557 -2.2232,6.8893 -2.2232,13.6304 0,10.4343 -0.7943,12.9916 -5.3432,17.2021 -2.9388,2.7202 -6.7434,7.5446 -8.4546,10.7211 -1.7112,3.1764 -4.6055,5.7753 -6.4317,5.7753 -1.8263,0 -7.7569,-4.7253 -13.1791,-10.5006 -9.5453,-10.1669 -10.2309,-10.5007 -21.5704,-10.5007 -7.6153,0 -12.5871,1.0547 -14.2142,3.0152 -6.5808,7.9293 -24.1195,5.476 -30.5032,-4.2667 -1.8117,-2.7648 -6.5964,-6.4068 -10.6327,-8.0933 -4.0364,-1.6865 -7.8992,-4.5265 -8.5841,-6.3113 -0.7195,-1.8748 -3.7691,-3.245 -7.2223,-3.245 -8.0268,0 -15.9516,-3.8329 -19.6756,-9.5164 -1.6825,-2.5678 -5.6721,-5.3245 -8.8659,-6.1261 -3.1938,-0.8016 -9.3938,-4.6979 -13.7777,-8.6584 -4.384,-3.9606 -10.166,-7.2011 -12.8491,-7.2011 -5.879,0 -14.6731,-8.7522 -13.6761,-13.6111 0.5076,-2.474 17.7399,-9.6874 59.3977,-24.8638 67.6108,-24.63141 60.954,-18.75403 63.304,-55.89208 l 1.4104,-22.28853 -11.8421,-17.39099 c -19.828,-29.11883 -33.1173,-59.23304 -43.255,-98.01786 -9.335,-35.71372 -11.5106,-52.01894 -11.4886,-86.10533 0.023,-36.29596 2.8968,-50.5306 15.8316,-78.42625 27.4381,-59.17405 76.6998,-93.73559 137.4131,-96.40757 27.2135,-1.19766 42.229,1.83915 65.608,13.26879 52.9998,25.91086 97.205,89.7939 102.4898,148.11279 4.9185,54.27635 -28.0813,164.45791 -63.1547,210.86446 l -9.5235,12.60079 0.5739,24.97699 c 0.4505,19.60484 1.2515,25.34909 3.7242,26.70706 1.7326,0.95153 31.2661,10.77603 65.63,21.83213 52.0873,16.7585 62.4798,20.7471 62.4798,23.9796 0,2.1326 -2.3506,5.4176 -5.2234,7.2999 -2.8729,1.8823 -7.1288,7.1573 -9.4576,11.722 -5.1964,10.1857 -10.8301,13.4438 -20.2052,11.685 -5.7605,-1.0807 -8.561,-0.2573 -14.4799,4.2573 -4.5108,3.4405 -7.3383,7.3986 -7.3383,10.2726 0,6.5266 -7.2613,12.3984 -16.4181,13.2765 -18.8287,1.8057 -38.4936,-0.3532 -46.5461,-5.1098 -8.3844,-4.9527 -11.9235,-1.784 -7.5097,6.7236 2.6584,5.124 2.7132,6.7497 0.3483,10.3342 -3.1968,4.8454 -12.783,6.729 -16.8918,3.319 -3.6303,-3.0128 -9.3512,-0.6899 -16.208,6.581 -5.8582,6.212 -8.3358,6.8055 -15.8214,3.7895 z m -60.0461,-4.468 c -4.9498,-2.77 -4.5582,-9.5689 0.7135,-12.3902 3.2175,-1.7219 5.1119,-1.6747 7.3506,0.1833 7.0697,5.8673 -0.073,16.6791 -8.0641,12.207 z m 11.6825,-27.5443 c -3.3574,-4.3805 -2.7999,-26.3794 0.7587,-29.9379 3.9915,-3.9914 7.0322,-3.9607 12.8727,0.13 5.4077,3.7877 5.9605,8.9195 1.5842,14.7055 -1.6959,2.2421 -3.1135,6.014 -3.1503,8.3819 -0.1218,7.856 -7.882,12.1784 -12.0653,6.7204 z"
           id="path10315" />
        <path
           style="fill:#ee4034;stroke-width:2.10015"
           d="M 930.78743,1419.6517 555.91246,1044.7777 931.31394,669.38168 1306.7154,293.98563 1681.5948,668.85517 c 206.1837,206.17826 374.8794,375.81663 374.8794,376.97413 0,2.7489 -745.9626,748.6963 -748.7116,748.6963 -1.1551,0 -170.7939,-168.6932 -376.97517,-374.8739 z m 696.72637,-54.075 c 174.7085,-174.7032 317.6519,-318.5872 317.6519,-319.7423 0,-3.4326 -635.0105,-637.39462 -638.4488,-637.39462 -1.7355,0 -145.753,142.5978 -320.03887,316.88403 -279.3582,279.35879 -316.73256,317.47149 -315.60973,321.84489 1.54779,6.0287 631.1853,636.05 635.6625,636.05 1.7221,0 146.0745,-142.9389 320.783,-317.642 z m -435.7807,69.6173 c -102.3406,-104.1246 -103.9603,-106.0069 -100.0282,-116.2537 1.825,-4.7558 12.7957,-10.0185 17.6639,-8.4734 2.7422,0.8703 6.7593,-0.8835 12.3929,-5.4107 7.6496,-6.1473 9.3045,-6.6181 20.1124,-5.7219 11.2067,0.9294 11.9246,0.6911 14.826,-4.9194 3.7177,-7.1891 8.9948,-10.2209 17.7905,-10.2209 4.0404,0 9.1149,-2.0653 12.9001,-5.2503 6.2898,-5.2924 11.9817,-6.2822 19.4031,-3.374 2.508,0.9828 6.879,0.1667 11.5509,-2.1564 4.1338,-2.0556 9.1699,-4.2214 11.1913,-4.813 2.4475,-0.7162 3.6753,-3.1861 3.6753,-7.3934 0,-4.38 1.5716,-7.3476 5.1238,-9.6751 4.6026,-3.0157 5.831,-3.0361 12.0759,-0.2012 6.3079,2.8635 12.6269,4.1144 32.5184,6.4371 3.6656,0.4281 7.6053,1.3596 8.7548,2.07 2.2586,1.3959 1.8694,32.77 -0.4532,36.5279 -0.7657,1.239 0.645,6.1612 3.135,10.9382 4.0037,7.6813 4.2386,9.649 2.0309,17.0175 -1.9415,6.4801 -1.9276,9.9049 0.063,15.4088 2.3515,6.503 2.1048,7.6167 -3.0426,13.7339 -7.3612,8.7483 -7.206,15.407 0.4868,20.8847 6.2169,4.4267 8.6998,13.2925 8.8163,31.4803 0.025,3.9478 1.88,9.5093 4.1215,12.359 5.2296,6.6482 5.2254,18.5795 -0.01,26.5204 -3.1361,4.7574 -3.5564,7.0906 -1.8512,10.2768 3.4756,6.4942 1.0273,25.0686 -4.2883,32.5335 -3.4166,4.7981 -4.158,7.5869 -2.7406,10.3082 1.0687,2.0519 1.6932,11.2911 1.3876,20.5317 -0.6922,20.9353 -0.5124,19.9529 -3.6486,19.9429 -1.4439,0 -48.225,-46.4029 -103.958,-103.1074 z m 124.3664,100.9054 c -0.7691,-1.2443 -0.6941,-5.7451 0.1667,-10.0017 0.8607,-4.2565 1.4697,-17.1371 1.3533,-28.6234 -0.1493,-14.74 0.7308,-22.8703 2.9919,-27.6351 2.8717,-6.0515 2.8712,-7.7295 0,-16.1988 -3.7139,-10.9388 -1.9751,-20.2512 5.2091,-27.8983 l 4.4986,-4.7885 -4.5693,-9.4389 c -3.292,-6.8002 -4.1951,-11.4339 -3.2306,-16.5751 1.1476,-6.1171 0.565,-7.6433 -4.0794,-10.6863 -6.2246,-4.0785 -7.0055,-10.7532 -2.0807,-17.7843 1.8357,-2.6207 2.7842,-6.2072 2.1077,-7.9699 -1.3082,-3.4092 2.0515,-11.3278 5.895,-13.8942 4.5074,-3.0096 9.9327,-1.5322 15.3061,4.1681 l 5.4442,5.7754 -1.6348,-6.3004 c -0.8992,-3.4652 -1.8057,-11.0257 -2.0145,-16.801 -0.2088,-5.7754 -1.4956,-12.565 -2.8595,-15.0879 -1.364,-2.523 -2.48,-7.9953 -2.48,-12.1608 0,-4.5363 -1.875,-10.1096 -4.6754,-13.8973 -4.3158,-5.8374 -4.4345,-6.7529 -1.5435,-11.9035 1.7225,-3.0689 5.4803,-6.1303 8.3507,-6.8032 3.1615,-0.7411 6.5102,-3.9409 8.4948,-8.117 5.6097,-11.8043 14.0792,-14.0339 23.9166,-6.2959 l 5.7073,4.4894 8.2351,-4.6283 c 9.0762,-5.1011 15.3177,-4.4063 18.7957,2.0922 1.1945,2.2319 3.6031,4.058 5.3525,4.058 6.0415,0 15.5128,6.3926 18.7521,12.6566 1.7876,3.4568 6.2927,7.5686 10.0113,9.1372 5.966,2.5168 7.255,2.4277 10.9614,-0.7579 2.3102,-1.9855 5.3622,-4.2668 6.7821,-5.0696 2.9668,-1.6772 11.3179,2.191 13.7988,6.3917 0.9238,1.564 3.9337,2.8436 6.6888,2.8436 8.8081,0 15.4851,3.8252 20.4952,11.7414 3.742,5.9125 6.4353,7.8311 11.5591,8.2342 3.6742,0.289 9.622,3.0007 13.2173,6.0259 3.5954,3.0252 8.3329,5.5004 10.5278,5.5004 5.6508,0 11.2711,9.1286 8.6411,14.0351 -2.1563,4.0229 -213.8544,199.4858 -219.4415,202.6125 -1.9905,1.1139 -3.7902,0.9418 -4.6469,-0.4444 z m -7.8075,-203.7207 c -2.8907,-1.7229 -3.6753,-5.0667 -3.6753,-15.6631 0,-11.3232 0.6701,-13.8313 4.2004,-15.7205 5.1002,-2.7296 12.6009,0.5593 12.6009,5.5252 0,1.8025 1.6406,6.0545 3.6457,9.4488 3.3049,5.5948 3.3478,6.7046 0.4588,11.8748 -3.4522,6.178 -11.0975,8.1901 -17.2305,4.5348 z m 240.4422,-17.1575 c -2.6133,-1.2598 -5.5044,-5.2123 -6.4246,-8.7834 -1.2241,-4.7506 -3.0486,-6.6506 -6.7994,-7.0807 -11.665,-1.3379 -14.7976,-3.0075 -19.4576,-10.3705 -4.3465,-6.8677 -5.9052,-7.7567 -13.9533,-7.9586 -7.1655,-0.1798 -10.003,-1.4097 -13.5684,-5.8811 -3.7293,-4.6769 -6.1904,-5.6538 -14.244,-5.6538 -7.1707,0 -11.2998,-1.3108 -15.6723,-4.9755 -4.3747,-3.6664 -7.6831,-4.716 -12.5753,-3.9893 -5.27,0.7829 -7.1473,0.036 -9.1056,-3.6232 -2.0791,-3.8846 -1.751,-5.3713 2.0864,-9.456 6.2638,-6.6675 4.9911,-14.4965 -2.4971,-15.3611 -3.1099,-0.3591 -8.0081,0.8894 -10.885,2.7744 -4.0684,2.6657 -6.1899,2.914 -9.5471,1.1173 -5.979,-3.1998 -7.8429,-11.8875 -3.5648,-16.6147 4.3248,-4.7787 4.388,-12.6281 0.1151,-14.2678 -1.8063,-0.6932 -5.6406,-0.1865 -8.5207,1.1256 -3.6854,1.6791 -6.4451,1.739 -9.3168,0.2022 -4.2962,-2.2992 -5.6109,-11.3427 -1.9756,-13.5894 1.1652,-0.7201 1.5684,-4.7597 0.9033,-9.0495 -1.4715,-9.4907 2.157,-15.0429 11.9833,-18.3363 4.783,-1.6031 7.2841,-3.8885 7.7538,-7.0853 0.3966,-2.699 3.7675,-6.5326 7.8755,-8.9563 3.9501,-2.3306 8.615,-7.2571 10.3664,-10.9478 3.7444,-7.8906 12.8882,-13.8634 21.2918,-13.9078 3.287,-0.017 9.7567,-1.3339 14.3771,-2.9255 6.8537,-2.3609 8.9024,-4.3752 11.1255,-10.9389 4.4204,-13.0506 15.0602,-21.8062 26.4992,-21.8062 3.3543,0 6.1696,-1.7238 7.7173,-4.7253 5.5022,-10.671 10.6482,-14.1759 20.813,-14.1759 7.7045,0 10.8109,-1.1094 14.7011,-5.2503 2.7129,-2.8877 7.0148,-5.2504 9.5597,-5.2504 2.5449,0 5.8037,-1.4175 7.2416,-3.1501 1.438,-1.7327 4.6646,-3.1502 7.1702,-3.1502 5.3703,0 56.078,16.7471 65.5707,21.6558 11.4135,5.9021 29.6629,24.2893 35.2653,35.5317 5.2806,10.5967 5.4025,11.8233 5.4025,54.3556 v 43.5143 l -50.0179,46.1555 c -75.0797,69.2819 -70.0777,65.464 -79.6932,60.8286 z m -534.7153,-60.464 -55.92865,-56.7385 0.021,-41.4426 c 0.0189,-39.0504 0.30493,-42.0533 4.9476,-52.0232 8.55347,-18.3681 19.54275,-25.8442 61.28975,-41.6956 l 36.9552,-14.0318 6.9208,4.2772 c 3.8064,2.3525 9.3525,4.2773 12.3244,4.2773 2.972,0 5.911,0.8209 6.5311,1.8243 0.6201,1.0033 4.7472,2.403 9.1713,3.1105 8.0166,1.2818 14.5369,6.57 19.1628,15.5414 1.3401,2.599 3.6744,4.7253 5.1874,4.7253 3.7207,0 9.7023,6.8696 9.7023,11.1427 0,5.0823 10.1803,10.8893 19.3538,11.0397 9.9351,0.163 18.8432,6.5306 21.3465,15.2591 1.0352,3.6091 3.6671,7.1286 5.8488,7.821 2.1816,0.6924 5.4678,3.5499 7.3025,6.35 2.3535,3.5918 5.2747,5.0934 9.9198,5.0989 9.131,0.011 19.8226,7.0155 21.5262,14.1029 1.6892,7.0273 10.3073,22.3453 14.5551,25.8707 3.9507,3.2787 3.9058,9.2015 -0.095,12.5218 -1.7326,1.4379 -3.1502,4.7456 -3.1502,7.3505 0,2.6048 1.4176,5.9125 3.1502,7.3504 3.7933,3.1481 4.0819,8.7289 0.63,12.1808 -3.4518,3.4518 -9.0327,3.1631 -12.1809,-0.6301 -4.4345,-5.3432 -8.1203,-3.5232 -10.7691,5.3178 -1.9346,6.4568 -1.9546,9.0504 -0.084,10.9206 3.5104,3.5104 3.0264,13.3398 -0.8475,17.2137 -7.0267,7.0266 -17.1791,2.1473 -19.5388,-9.3905 -0.9645,-4.7156 -2.8651,-7.5019 -5.4578,-8.0012 -5.4154,-1.043 -9.5531,5.2308 -8.1329,12.3314 1.585,7.9252 -5.7943,15.5098 -13.6322,14.0115 -8.4855,-1.622 -12.9434,1.8179 -12.9434,9.9872 0,10.5911 -10.2758,18.7259 -21.3014,16.8632 -7.2293,-1.2214 -8.2701,-0.8276 -10.0271,3.7934 -2.8277,7.4375 -12.2878,14.1083 -20.0073,14.1083 -3.6662,0 -8.5004,1.3876 -10.7426,3.0834 -10.1734,7.6947 -12.0859,6.2532 -71.0074,-53.5215 z m 273.072,-12.2061 c -7.382,-8.1569 -2.4166,-18.0398 8.4345,-16.7874 8.114,0.9365 11.5292,10.253 5.9986,16.3641 -4.7874,5.29 -9.8933,5.4397 -14.4331,0.4233 z m -61.77,-2.7896 c -3.6623,-3.6622 -3.2564,-6.8352 1.4152,-11.0628 3.2592,-2.9495 4.8825,-3.1845 8.5265,-1.2343 6.5634,3.5126 5.1266,13.4517 -2.0661,14.2923 -2.8958,0.3383 -6.4398,-0.5595 -7.8756,-1.9952 z m 142.7207,-0.09 c -3.4519,-3.4519 -3.1632,-9.0327 0.63,-12.1808 1.7327,-1.4379 3.1503,-4.2423 3.1503,-6.232 0,-8.7688 13.3872,-13.683 19.8015,-7.2688 5.4193,5.4193 3.8119,11.094 -5.6255,19.8593 -9.3057,8.643 -13.7081,10.0705 -17.9563,5.8223 z m -127.3088,-64.4952 c -1.9967,-2.2062 -5.9831,-4.6018 -8.8586,-5.3235 -4.2064,-1.0558 -5.0998,-2.4267 -4.5708,-7.0143 0.6173,-5.3533 1.2356,-5.6698 10.1082,-5.1741 14.1919,0.7929 18.5469,2.2359 21.0902,6.988 1.791,3.3465 1.5578,5.4644 -1.0378,9.4258 -4.0453,6.1737 -11.6841,6.6751 -16.7312,1.0981 z m 116.0573,-16.9899 c -3.626,-3.4652 -7.2966,-6.3004 -8.1568,-6.3004 -2.4638,0 -4.3274,-6.5184 -3.0311,-10.6025 1.7211,-5.4226 7.2114,-6.7515 12.7907,-3.096 2.6843,1.7588 6.6575,3.1979 8.8293,3.1979 5.1041,0 10.9001,6.4457 10.9001,12.122 0,4.5042 -7.099,10.9794 -12.0373,10.9794 -1.4861,0 -5.6688,-2.8352 -9.2949,-6.3004 z m -133.6123,-22.1704 c -8.1609,-5.7161 -4.1339,-19.8322 5.6577,-19.8322 4.91,0 10.6763,6.5471 10.6763,12.1221 0,3.7945 -6.8717,10.9793 -10.5008,10.9793 -0.6411,0 -3.266,-1.4711 -5.8332,-3.2692 z m 132.5051,-9.3462 c -5.7996,-2.3367 -9.7787,-9.6222 -8.3141,-15.2227 0.6195,-2.3691 -0.2989,-7.0636 -2.041,-10.4323 -2.043,-3.9506 -2.985,-10.7325 -2.6536,-19.1044 0.5941,-15.009 -1.0866,-21.5682 -7.2512,-28.2998 -5.2044,-5.6831 -3.0764,-11.1469 5.0952,-13.0824 4.7423,-1.1233 5.0081,-1.9621 4.3396,-13.6986 -0.3916,-6.8762 -1.5729,-13.3999 -2.6252,-14.4972 -1.0522,-1.0973 -1.9342,-4.405 -1.9599,-7.3505 -0.026,-2.9454 -1.8948,-7.71795 -4.1536,-10.60563 -4.9196,-6.28934 -5.3583,-15.18146 -1.0717,-21.72362 2.8245,-4.3106 2.7224,-5.5716 -1.0501,-12.97095 -2.2982,-4.50788 -4.1786,-10.93132 -4.1786,-14.27435 0,-3.41941 -2.2967,-8.80761 -5.2504,-12.31785 -3.1795,-3.77855 -5.2535,-8.86824 -5.2583,-12.90396 -0.01,-6.01788 -6.6676,-20.31512 -9.464,-20.31512 -0.6231,0 -2.0514,2.41576 -3.174,5.36835 -1.5012,3.94843 -1.1979,6.99879 1.1466,11.53259 3.4166,6.60689 2.4403,14.99023 -2.1936,18.83599 -1.9524,1.62027 -2.4428,5.57462 -1.6472,13.28244 0.9831,9.52505 0.448,11.79848 -4.0494,17.20521 -3.5333,4.24776 -5.613,9.99305 -6.5365,18.05748 -1.4772,12.89915 -0.024,15.58251 9.1247,16.84802 6.1356,0.8487 8.1887,8.0954 3.4158,12.0566 -2.3123,1.919 -2.7959,5.3864 -1.9263,13.8123 1.0582,10.2527 0.6473,11.7638 -4.6348,17.0459 -6.7767,6.7765 -10.2715,17.5704 -8.4193,26.0032 0.7414,3.3757 0.3451,6.5591 -0.9134,7.3369 -1.2227,0.7557 -2.2232,6.8893 -2.2232,13.6304 0,10.4343 -0.7943,12.9916 -5.3432,17.2021 -2.9388,2.7202 -6.7434,7.5446 -8.4546,10.7211 -1.7112,3.1764 -4.6055,5.7753 -6.4317,5.7753 -1.8263,0 -7.7569,-4.7253 -13.1791,-10.5006 -9.5453,-10.1669 -10.2309,-10.5007 -21.5704,-10.5007 -7.6153,0 -12.5871,1.0547 -14.2142,3.0152 -6.5808,7.9293 -24.1195,5.476 -30.5032,-4.2667 -1.8117,-2.7648 -6.5964,-6.4068 -10.6327,-8.0933 -4.0364,-1.6865 -7.8992,-4.5265 -8.5841,-6.3113 -0.7195,-1.8748 -3.7691,-3.245 -7.2223,-3.245 -8.0268,0 -15.9516,-3.8329 -19.6756,-9.5164 -1.6825,-2.5678 -5.6721,-5.3245 -8.8659,-6.1261 -3.1938,-0.8016 -9.3938,-4.6979 -13.7777,-8.6584 -4.384,-3.9606 -10.166,-7.2011 -12.8491,-7.2011 -5.879,0 -14.6731,-8.7522 -13.6761,-13.6111 0.5076,-2.474 17.7399,-9.6874 59.3977,-24.8638 67.6108,-24.63141 60.954,-18.75403 63.304,-55.89208 l 1.4104,-22.28853 -11.8421,-17.39099 c -19.828,-29.11883 -33.1173,-59.23304 -43.255,-98.01786 -9.335,-35.71372 -11.5106,-52.01894 -11.4886,-86.10533 0.023,-36.29596 2.8968,-50.5306 15.8316,-78.42625 27.4381,-59.17405 76.6998,-93.73559 137.4131,-96.40757 27.2135,-1.19766 42.229,1.83915 65.608,13.26879 52.9998,25.91086 97.205,89.7939 102.4898,148.11279 4.9185,54.27635 -28.0813,164.45791 -63.1547,210.86446 l -9.5235,12.60079 0.5739,24.97699 c 0.4505,19.60484 1.2515,25.34909 3.7242,26.70706 1.7326,0.95153 31.2661,10.77603 65.63,21.83213 52.0873,16.7585 62.4798,20.7471 62.4798,23.9796 0,2.1326 -2.3506,5.4176 -5.2234,7.2999 -2.8729,1.8823 -7.1288,7.1573 -9.4576,11.722 -5.1964,10.1857 -10.8301,13.4438 -20.2052,11.685 -5.7605,-1.0807 -8.561,-0.2573 -14.4799,4.2573 -4.5108,3.4405 -7.3383,7.3986 -7.3383,10.2726 0,6.5266 -7.2613,12.3984 -16.4181,13.2765 -18.8287,1.8057 -38.4936,-0.3532 -46.5461,-5.1098 -8.3844,-4.9527 -11.9235,-1.784 -7.5097,6.7236 2.6584,5.124 2.7132,6.7497 0.3483,10.3342 -3.1968,4.8454 -12.783,6.729 -16.8918,3.319 -3.6303,-3.0128 -9.3512,-0.6899 -16.208,6.581 -5.8582,6.212 -8.3358,6.8055 -15.8214,3.7895 z m -60.0461,-4.468 c -4.9498,-2.77 -4.5582,-9.5689 0.7135,-12.3902 3.2175,-1.7219 5.1119,-1.6747 7.3506,0.1833 7.0697,5.8673 -0.073,16.6791 -8.0641,12.207 z m 11.6825,-27.5443 c -3.3574,-4.3805 -2.7999,-26.3794 0.7587,-29.9379 3.9915,-3.9914 7.0322,-3.9607 12.8727,0.13 5.4077,3.7877 5.9605,8.9195 1.5842,14.7055 -1.6959,2.2421 -3.1135,6.014 -3.1503,8.3819 -0.1218,7.856 -7.882,12.1784 -12.0653,6.7204 z"
           id="path10313" />
        <path
           style="fill:#5e5e5e;stroke-width:2.10015"
           d="m 1191.7331,1435.194 c -102.3406,-104.1246 -103.9603,-106.0069 -100.0282,-116.2537 1.825,-4.7558 12.7957,-10.0185 17.6639,-8.4734 2.7422,0.8703 6.7593,-0.8835 12.3929,-5.4107 7.6496,-6.1473 9.3045,-6.6181 20.1124,-5.7219 11.2067,0.9294 11.9246,0.6911 14.826,-4.9194 3.7177,-7.1891 8.9948,-10.2209 17.7905,-10.2209 4.0404,0 9.1149,-2.0653 12.9001,-5.2503 6.2898,-5.2924 11.9817,-6.2822 19.4031,-3.374 2.508,0.9828 6.879,0.1667 11.5509,-2.1564 4.1338,-2.0556 9.1699,-4.2214 11.1913,-4.813 2.4475,-0.7162 3.6753,-3.1861 3.6753,-7.3934 0,-4.38 1.5716,-7.3476 5.1238,-9.6751 4.6026,-3.0157 5.831,-3.0361 12.0759,-0.2012 6.3079,2.8635 12.6269,4.1144 32.5184,6.4371 3.6656,0.4281 7.6053,1.3596 8.7548,2.07 2.2586,1.3959 1.8694,32.77 -0.4532,36.5279 -0.7657,1.239 0.645,6.1612 3.135,10.9382 4.0037,7.6813 4.2386,9.649 2.0309,17.0175 -1.9415,6.4801 -1.9276,9.9049 0.063,15.4088 2.3515,6.503 2.1048,7.6167 -3.0426,13.7339 -7.3612,8.7483 -7.206,15.407 0.4868,20.8847 6.2169,4.4267 8.6998,13.2925 8.8163,31.4803 0.025,3.9478 1.88,9.5093 4.1215,12.359 5.2296,6.6482 5.2254,18.5795 -0.01,26.5204 -3.1361,4.7574 -3.5564,7.0906 -1.8512,10.2768 3.4756,6.4942 1.0273,25.0686 -4.2883,32.5335 -3.4166,4.7981 -4.158,7.5869 -2.7406,10.3082 1.0687,2.0519 1.6932,11.2911 1.3876,20.5317 -0.6922,20.9353 -0.5124,19.9529 -3.6486,19.9429 -1.4439,0 -48.225,-46.4029 -103.958,-103.1074 z m 124.3664,100.9054 c -0.7691,-1.2443 -0.6941,-5.7451 0.1667,-10.0017 0.8607,-4.2565 1.4697,-17.1371 1.3533,-28.6234 -0.1493,-14.74 0.7308,-22.8703 2.9919,-27.6351 2.8717,-6.0515 2.8712,-7.7295 0,-16.1988 -3.7139,-10.9388 -1.9751,-20.2512 5.2091,-27.8983 l 4.4986,-4.7885 -4.5693,-9.4389 c -3.292,-6.8002 -4.1951,-11.4339 -3.2306,-16.5751 1.1476,-6.1171 0.565,-7.6433 -4.0794,-10.6863 -6.2246,-4.0785 -7.0055,-10.7532 -2.0807,-17.7843 1.8357,-2.6207 2.7842,-6.2072 2.1077,-7.9699 -1.3082,-3.4092 2.0515,-11.3278 5.895,-13.8942 4.5074,-3.0096 9.9327,-1.5322 15.3061,4.1681 l 5.4442,5.7754 -1.6348,-6.3004 c -0.8992,-3.4652 -1.8057,-11.0257 -2.0145,-16.801 -0.2088,-5.7754 -1.4956,-12.565 -2.8595,-15.0879 -1.364,-2.523 -2.48,-7.9953 -2.48,-12.1608 0,-4.5363 -1.875,-10.1096 -4.6754,-13.8973 -4.3158,-5.8374 -4.4345,-6.7529 -1.5435,-11.9035 1.7225,-3.0689 5.4803,-6.1303 8.3507,-6.8032 3.1615,-0.7411 6.5102,-3.9409 8.4948,-8.117 5.6097,-11.8043 14.0792,-14.0339 23.9166,-6.2959 l 5.7073,4.4894 8.2351,-4.6283 c 9.0762,-5.1011 15.3177,-4.4063 18.7957,2.0922 1.1945,2.2319 3.6031,4.058 5.3525,4.058 6.0415,0 15.5128,6.3926 18.7521,12.6566 1.7876,3.4568 6.2927,7.5686 10.0113,9.1372 5.966,2.5168 7.255,2.4277 10.9614,-0.7579 2.3102,-1.9855 5.3622,-4.2668 6.7821,-5.0696 2.9668,-1.6772 11.3179,2.191 13.7988,6.3917 0.9238,1.564 3.9337,2.8436 6.6888,2.8436 8.8081,0 15.4851,3.8252 20.4952,11.7414 3.742,5.9125 6.4353,7.8311 11.5591,8.2342 3.6742,0.289 9.622,3.0007 13.2173,6.0259 3.5954,3.0252 8.3329,5.5004 10.5278,5.5004 5.6508,0 11.2711,9.1286 8.6411,14.0351 -2.1563,4.0229 -213.8544,199.4858 -219.4415,202.6125 -1.9905,1.1139 -3.7902,0.9418 -4.6469,-0.4444 z m -7.8075,-203.7207 c -2.8907,-1.7229 -3.6753,-5.0667 -3.6753,-15.6631 0,-11.3232 0.6701,-13.8313 4.2004,-15.7205 5.1002,-2.7296 12.6009,0.5593 12.6009,5.5252 0,1.8025 1.6406,6.0545 3.6457,9.4488 3.3049,5.5948 3.3478,6.7046 0.4588,11.8748 -3.4522,6.178 -11.0975,8.1901 -17.2305,4.5348 z m 240.4422,-17.1575 c -2.6133,-1.2598 -5.5044,-5.2123 -6.4246,-8.7834 -1.2241,-4.7506 -3.0486,-6.6506 -6.7994,-7.0807 -11.665,-1.3379 -14.7976,-3.0075 -19.4576,-10.3705 -4.3465,-6.8677 -5.9052,-7.7567 -13.9533,-7.9586 -7.1655,-0.1798 -10.003,-1.4097 -13.5684,-5.8811 -3.7293,-4.6769 -6.1904,-5.6538 -14.244,-5.6538 -7.1707,0 -11.2998,-1.3108 -15.6723,-4.9755 -4.3747,-3.6664 -7.6831,-4.716 -12.5753,-3.9893 -5.27,0.7829 -7.1473,0.036 -9.1056,-3.6232 -2.0791,-3.8846 -1.751,-5.3713 2.0864,-9.456 6.2638,-6.6675 4.9911,-14.4965 -2.4971,-15.3611 -3.1099,-0.3591 -8.0081,0.8894 -10.885,2.7744 -4.0684,2.6657 -6.1899,2.914 -9.5471,1.1173 -5.979,-3.1998 -7.8429,-11.8875 -3.5648,-16.6147 4.3248,-4.7787 4.388,-12.6281 0.1151,-14.2678 -1.8063,-0.6932 -5.6406,-0.1865 -8.5207,1.1256 -3.6854,1.6791 -6.4451,1.739 -9.3168,0.2022 -4.2962,-2.2992 -5.6109,-11.3427 -1.9756,-13.5894 1.1652,-0.7201 1.5684,-4.7597 0.9033,-9.0495 -1.4715,-9.4907 2.157,-15.0429 11.9833,-18.3363 4.783,-1.6031 7.2841,-3.8885 7.7538,-7.0853 0.3966,-2.699 3.7675,-6.5326 7.8755,-8.9563 3.9501,-2.3306 8.615,-7.2571 10.3664,-10.9478 3.7444,-7.8906 12.8882,-13.8634 21.2918,-13.9078 3.287,-0.017 9.7567,-1.3339 14.3771,-2.9255 6.8537,-2.3609 8.9024,-4.3752 11.1255,-10.9389 4.4204,-13.0506 15.0602,-21.8062 26.4992,-21.8062 3.3543,0 6.1696,-1.7238 7.7173,-4.7253 5.5022,-10.671 10.6482,-14.1759 20.813,-14.1759 7.7045,0 10.8109,-1.1094 14.7011,-5.2503 2.7129,-2.8877 7.0148,-5.2504 9.5597,-5.2504 2.5449,0 5.8037,-1.4175 7.2416,-3.1501 1.438,-1.7327 4.6646,-3.1502 7.1702,-3.1502 5.3703,0 56.078,16.7471 65.5707,21.6558 11.4135,5.9021 29.6629,24.2893 35.2653,35.5317 5.2806,10.5967 5.4025,11.8233 5.4025,54.3556 v 43.5143 l -50.0179,46.1555 c -75.0797,69.2819 -70.0777,65.464 -79.6932,60.8286 z m -534.7153,-60.464 -55.92865,-56.7385 0.021,-41.4426 c 0.0189,-39.0504 0.30493,-42.0533 4.9476,-52.0232 8.55347,-18.3681 19.54275,-25.8442 61.28975,-41.6956 l 36.9552,-14.0318 6.9208,4.2772 c 3.8064,2.3525 9.3525,4.2773 12.3244,4.2773 2.972,0 5.911,0.8209 6.5311,1.8243 0.6201,1.0033 4.7472,2.403 9.1713,3.1105 8.0166,1.2818 14.5369,6.57 19.1628,15.5414 1.3401,2.599 3.6744,4.7253 5.1874,4.7253 3.7207,0 9.7023,6.8696 9.7023,11.1427 0,5.0823 10.1803,10.8893 19.3538,11.0397 9.9351,0.163 18.8432,6.5306 21.3465,15.2591 1.0352,3.6091 3.6671,7.1286 5.8488,7.821 2.1816,0.6924 5.4678,3.5499 7.3025,6.35 2.3535,3.5918 5.2747,5.0934 9.9198,5.0989 9.131,0.011 19.8226,7.0155 21.5262,14.1029 1.6892,7.0273 10.3073,22.3453 14.5551,25.8707 3.9507,3.2787 3.9058,9.2015 -0.095,12.5218 -1.7326,1.4379 -3.1502,4.7456 -3.1502,7.3505 0,2.6048 1.4176,5.9125 3.1502,7.3504 3.7933,3.1481 4.0819,8.7289 0.63,12.1808 -3.4518,3.4518 -9.0327,3.1631 -12.1809,-0.6301 -4.4345,-5.3432 -8.1203,-3.5232 -10.7691,5.3178 -1.9346,6.4568 -1.9546,9.0504 -0.084,10.9206 3.5104,3.5104 3.0264,13.3398 -0.8475,17.2137 -7.0267,7.0266 -17.1791,2.1473 -19.5388,-9.3905 -0.9645,-4.7156 -2.8651,-7.5019 -5.4578,-8.0012 -5.4154,-1.043 -9.5531,5.2308 -8.1329,12.3314 1.585,7.9252 -5.7943,15.5098 -13.6322,14.0115 -8.4855,-1.622 -12.9434,1.8179 -12.9434,9.9872 0,10.5911 -10.2758,18.7259 -21.3014,16.8632 -7.2293,-1.2214 -8.2701,-0.8276 -10.0271,3.7934 -2.8277,7.4375 -12.2878,14.1083 -20.0073,14.1083 -3.6662,0 -8.5004,1.3876 -10.7426,3.0834 -10.1734,7.6947 -12.0859,6.2532 -71.0074,-53.5215 z m 273.072,-12.2061 c -7.382,-8.1569 -2.4166,-18.0398 8.4345,-16.7874 8.114,0.9365 11.5292,10.253 5.9986,16.3641 -4.7874,5.29 -9.8933,5.4397 -14.4331,0.4233 z m -61.77,-2.7896 c -3.6623,-3.6622 -3.2564,-6.8352 1.4152,-11.0628 3.2592,-2.9495 4.8825,-3.1845 8.5265,-1.2343 6.5634,3.5126 5.1266,13.4517 -2.0661,14.2923 -2.8958,0.3383 -6.4398,-0.5595 -7.8756,-1.9952 z m 142.7207,-0.09 c -3.4519,-3.4519 -3.1632,-9.0327 0.63,-12.1808 1.7327,-1.4379 3.1503,-4.2423 3.1503,-6.232 0,-8.7688 13.3872,-13.683 19.8015,-7.2688 5.4193,5.4193 3.8119,11.094 -5.6255,19.8593 -9.3057,8.643 -13.7081,10.0705 -17.9563,5.8223 z m -127.3088,-64.4952 c -1.9967,-2.2062 -5.9831,-4.6018 -8.8586,-5.3235 -4.2064,-1.0558 -5.0998,-2.4267 -4.5708,-7.0143 0.6173,-5.3533 1.2356,-5.6698 10.1082,-5.1741 14.1919,0.7929 18.5469,2.2359 21.0902,6.988 1.791,3.3465 1.5578,5.4644 -1.0378,9.4258 -4.0453,6.1737 -11.6841,6.6751 -16.7312,1.0981 z m 116.0573,-16.9899 c -3.626,-3.4652 -7.2966,-6.3004 -8.1568,-6.3004 -2.4638,0 -4.3274,-6.5184 -3.0311,-10.6025 1.7211,-5.4226 7.2114,-6.7515 12.7907,-3.096 2.6843,1.7588 6.6575,3.1979 8.8293,3.1979 5.1041,0 10.9001,6.4457 10.9001,12.122 0,4.5042 -7.099,10.9794 -12.0373,10.9794 -1.4861,0 -5.6688,-2.8352 -9.2949,-6.3004 z m -133.6123,-22.1704 c -8.1609,-5.7161 -4.1339,-19.8322 5.6577,-19.8322 4.91,0 10.6763,6.5471 10.6763,12.1221 0,3.7945 -6.8717,10.9793 -10.5008,10.9793 -0.6411,0 -3.266,-1.4711 -5.8332,-3.2692 z m 132.5051,-9.3462 c -5.7996,-2.3367 -9.7787,-9.6222 -8.3141,-15.2227 0.6195,-2.3691 -0.2989,-7.0636 -2.041,-10.4323 -2.043,-3.9506 -2.985,-10.7325 -2.6536,-19.1044 0.5941,-15.009 -1.0866,-21.5682 -7.2512,-28.2998 -5.2044,-5.6831 -3.0764,-11.1469 5.0952,-13.0824 4.7423,-1.1233 5.0081,-1.9621 4.3396,-13.6986 -0.3916,-6.8762 -1.5729,-13.3999 -2.6252,-14.4972 -1.0522,-1.0973 -1.9342,-4.405 -1.9599,-7.3505 -0.026,-2.9454 -1.8948,-7.71795 -4.1536,-10.60563 -4.9196,-6.28934 -5.3583,-15.18146 -1.0717,-21.72362 2.8245,-4.3106 2.7224,-5.5716 -1.0501,-12.97095 -2.2982,-4.50788 -4.1786,-10.93132 -4.1786,-14.27435 0,-3.41941 -2.2967,-8.80761 -5.2504,-12.31785 -3.1795,-3.77855 -5.2535,-8.86824 -5.2583,-12.90396 -0.01,-6.01788 -6.6676,-20.31512 -9.464,-20.31512 -0.6231,0 -2.0514,2.41576 -3.174,5.36835 -1.5012,3.94843 -1.1979,6.99879 1.1466,11.53259 3.4166,6.60689 2.4403,14.99023 -2.1936,18.83599 -1.9524,1.62027 -2.4428,5.57462 -1.6472,13.28244 0.9831,9.52505 0.448,11.79848 -4.0494,17.20521 -3.5333,4.24776 -5.613,9.99305 -6.5365,18.05748 -1.4772,12.89915 -0.024,15.58251 9.1247,16.84802 6.1356,0.8487 8.1887,8.0954 3.4158,12.0566 -2.3123,1.919 -2.7959,5.3864 -1.9263,13.8123 1.0582,10.2527 0.6473,11.7638 -4.6348,17.0459 -6.7767,6.7765 -10.2715,17.5704 -8.4193,26.0032 0.7414,3.3757 0.3451,6.5591 -0.9134,7.3369 -1.2227,0.7557 -2.2232,6.8893 -2.2232,13.6304 0,10.4343 -0.7943,12.9916 -5.3432,17.2021 -2.9388,2.7202 -6.7434,7.5446 -8.4546,10.7211 -1.7112,3.1764 -4.6055,5.7753 -6.4317,5.7753 -1.8263,0 -7.7569,-4.7253 -13.1791,-10.5006 -9.5453,-10.1669 -10.2309,-10.5007 -21.5704,-10.5007 -7.6153,0 -12.5871,1.0547 -14.2142,3.0152 -6.5808,7.9293 -24.1195,5.476 -30.5032,-4.2667 -1.8117,-2.7648 -6.5964,-6.4068 -10.6327,-8.0933 -4.0364,-1.6865 -7.8992,-4.5265 -8.5841,-6.3113 -0.7195,-1.8748 -3.7691,-3.245 -7.2223,-3.245 -8.0268,0 -15.9516,-3.8329 -19.6756,-9.5164 -1.6825,-2.5678 -5.6721,-5.3245 -8.8659,-6.1261 -3.1938,-0.8016 -9.3938,-4.6979 -13.7777,-8.6584 -4.384,-3.9606 -10.166,-7.2011 -12.8491,-7.2011 -5.879,0 -14.6731,-8.7522 -13.6761,-13.6111 0.5076,-2.474 17.7399,-9.6874 59.3977,-24.8638 67.6108,-24.63141 60.954,-18.75403 63.304,-55.89208 l 1.4104,-22.28853 -11.8421,-17.39099 c -19.828,-29.11883 -33.1173,-59.23304 -43.255,-98.01786 -9.335,-35.71372 -11.5106,-52.01894 -11.4886,-86.10533 0.023,-36.29596 2.8968,-50.5306 15.8316,-78.42625 27.4381,-59.17405 76.6998,-93.73559 137.4131,-96.40757 27.2135,-1.19766 42.229,1.83915 65.608,13.26879 52.9998,25.91086 97.205,89.7939 102.4898,148.11279 4.9185,54.27635 -28.0813,164.45791 -63.1547,210.86446 l -9.5235,12.60079 0.5739,24.97699 c 0.4505,19.60484 1.2515,25.34909 3.7242,26.70706 1.7326,0.95153 31.2661,10.77603 65.63,21.83213 52.0873,16.7585 62.4798,20.7471 62.4798,23.9796 0,2.1326 -2.3506,5.4176 -5.2234,7.2999 -2.8729,1.8823 -7.1288,7.1573 -9.4576,11.722 -5.1964,10.1857 -10.8301,13.4438 -20.2052,11.685 -5.7605,-1.0807 -8.561,-0.2573 -14.4799,4.2573 -4.5108,3.4405 -7.3383,7.3986 -7.3383,10.2726 0,6.5266 -7.2613,12.3984 -16.4181,13.2765 -18.8287,1.8057 -38.4936,-0.3532 -46.5461,-5.1098 -8.3844,-4.9527 -11.9235,-1.784 -7.5097,6.7236 2.6584,5.124 2.7132,6.7497 0.3483,10.3342 -3.1968,4.8454 -12.783,6.729 -16.8918,3.319 -3.6303,-3.0128 -9.3512,-0.6899 -16.208,6.581 -5.8582,6.212 -8.3358,6.8055 -15.8214,3.7895 z m -60.0461,-4.468 c -4.9498,-2.77 -4.5582,-9.5689 0.7135,-12.3902 3.2175,-1.7219 5.1119,-1.6747 7.3506,0.1833 7.0697,5.8673 -0.073,16.6791 -8.0641,12.207 z m 11.6825,-27.5443 c -3.3574,-4.3805 -2.7999,-26.3794 0.7587,-29.9379 3.9915,-3.9914 7.0322,-3.9607 12.8727,0.13 5.4077,3.7877 5.9605,8.9195 1.5842,14.7055 -1.6959,2.2421 -3.1135,6.014 -3.1503,8.3819 -0.1218,7.856 -7.882,12.1784 -12.0653,6.7204 z"
           id="path10311" />
        <path
           style="fill:#010101;stroke-width:2.10015"
           d="m 1194.1079,1434.2751 c -70.4381,-71.5085 -100.7617,-103.6676 -101.2398,-107.3678 -1.0187,-7.8853 5.0577,-13.3115 14.9068,-13.3115 6.3259,0 10.1154,-1.5737 15.7931,-6.5587 6.9593,-6.1103 8.2922,-6.4842 19.4931,-5.4686 11.9658,1.085 12.0465,1.0538 16.9647,-6.567 4.3931,-6.8071 6.0474,-7.7283 14.8992,-8.2969 7.126,-0.4577 10.5532,-1.7528 12.0527,-4.5545 2.6743,-4.9969 13.1576,-7.3465 18.9491,-4.247 3.5691,1.9101 5.5855,1.6546 10.0551,-1.2739 3.0748,-2.0147 8.4456,-4.2429 11.935,-4.9515 5.5234,-1.1217 6.4804,-2.3656 7.3945,-9.612 1.0101,-8.0068 1.3299,-8.3088 8.4007,-7.9366 4.0428,0.2128 12.0759,1.3649 17.8513,2.56 5.7755,1.1953 14.7537,2.9114 19.9516,3.8136 l 9.4507,1.6405 v 12.6005 c 0,6.9303 -0.7558,15.6813 -1.6796,19.4468 -1.2181,4.965 -0.7852,8.1231 1.5751,11.493 3.7638,5.3735 4.2656,16.8003 1.0053,22.8922 -1.7131,3.2009 -1.4628,5.4035 1.0501,9.2386 4.3987,6.7132 4.2044,8.1908 -1.9509,14.8324 -7.4235,8.01 -7.043,17.2348 0.9879,23.9531 5.7603,4.8187 6.3597,6.596 7.2913,21.6206 0.7564,12.199 2.1053,17.7563 5.2936,21.8096 5.4161,6.8853 5.4303,14.0642 0.045,22.7773 -3.395,5.4931 -3.8109,7.9609 -2.1002,12.4604 3.7117,9.7623 2.5171,20.9865 -3.1172,29.2889 -5.5592,8.1918 -6.5557,12.7961 -3.2164,14.8599 1.7938,1.1086 1.0586,34.4006 -0.8008,36.26 -0.3762,0.3762 -45.9348,-45.2544 -101.2413,-101.4014 z m 124.2495,94.059 c 0.8772,-3.1764 1.7297,-16.6435 1.8943,-29.9268 0.22,-17.7451 1.1985,-25.8347 3.6888,-30.497 2.9265,-5.4787 2.9959,-7.0564 0.5079,-11.5507 -4.8878,-8.8293 -3.8266,-22.451 2.22,-28.4976 6.3025,-6.3024 6.4298,-8.1584 1.2555,-18.3074 -2.7556,-5.4049 -3.6563,-10.3608 -2.9033,-15.9751 0.9326,-6.9529 0.4442,-8.3449 -3.3507,-9.5493 -5.9769,-1.897 -8.0435,-10.7023 -3.651,-15.5559 1.8695,-2.0658 3.3991,-7.2458 3.3991,-11.5111 0,-6.327 1.0124,-8.2164 5.4971,-10.2598 4.8659,-2.217 5.9616,-1.931 9.5426,2.4913 2.225,2.7477 3.6191,6.1071 3.0979,7.4653 -1.3294,3.4642 1.9484,8.1527 4.5678,6.5339 4.1614,-2.5719 4.8134,-12.8161 1.268,-19.9229 -2.2542,-4.5187 -3.0407,-9.5356 -2.2544,-14.3809 0.7507,-4.6261 0.049,-9.6817 -1.8551,-13.3636 -1.6844,-3.2573 -3.0626,-9.3642 -3.0626,-13.5709 0,-4.3389 -1.7296,-9.8473 -3.9972,-12.73 -5.1238,-6.5138 -3.4486,-13.1195 3.7231,-14.6805 9.9492,-2.1656 10.7749,-2.7642 10.7749,-7.8108 0,-10.5614 12.8776,-15.5583 19.9515,-7.7418 2.0907,2.3101 5.6321,4.2002 7.8699,4.2002 2.2377,0 6.4715,-1.8901 9.4084,-4.2002 6.7527,-5.3116 7.3767,-5.2729 14.7291,0.9136 3.3428,2.8127 8.5436,5.7329 11.5575,6.4893 5.7894,1.453 11.2618,6.4982 15.0532,13.8778 1.2576,2.4479 5.9972,5.9166 10.5325,7.7083 7.9389,3.1363 8.3589,3.0873 11.282,-1.315 3.9504,-5.9496 14.096,-6.1628 17.7123,-0.3723 1.5757,2.5231 4.8976,4.2002 8.3196,4.2002 9.0307,0 15.5705,4.038 19.9168,12.2977 3.3645,6.3939 5.4072,7.8399 12.411,8.786 4.623,0.6244 10.4665,3.2152 13.0267,5.7753 2.5536,2.5537 6.9724,4.643 9.8195,4.643 5.7256,0 9.7192,5.5334 7.6856,10.649 -1.7491,4.4 -215.8363,201.4641 -218.8672,201.4641 -1.5678,0 -1.828,-1.9486 -0.7711,-5.7754 z m -9.1203,-198.3572 c -3.6981,-3.6981 -3.2298,-23.6784 0.63,-26.8817 3.7745,-3.1325 9.4082,0.4383 9.5175,6.0325 0.037,1.8799 1.4544,5.2526 3.1503,7.4947 3.9515,5.2242 3.8956,8.462 -0.2168,12.5744 -3.9305,3.9304 -9.5929,4.2681 -13.081,0.7801 z m 240.4079,-16.9085 c -1.9765,-1.4452 -4.3499,-5.4617 -5.2744,-8.9256 -1.4409,-5.3989 -2.908,-6.4645 -10.2772,-7.465 -9.764,-1.3257 -14.2261,-4.3921 -18.5455,-12.7447 -2.6057,-5.0388 -4.1651,-5.7711 -11.6537,-5.4725 -7.0401,0.2808 -9.5569,-0.7148 -13.5539,-5.3614 -4.0912,-4.7562 -6.6123,-5.7062 -15.1437,-5.7062 -8.2233,0 -11.2127,-1.0401 -15.206,-5.2908 -3.7917,-4.036 -6.725,-5.1567 -12.3677,-4.7253 -9.0551,0.6922 -11.3547,-4.9527 -4.5864,-11.2582 5.0336,-4.6894 5.4991,-8.0391 1.7659,-12.7084 -3.7555,-4.6972 -11.2553,-5.9498 -15.6535,-2.6142 -5.1204,3.8831 -12.114,3.7121 -15.5096,-0.3792 -2.3686,-2.854 -2.1252,-4.5535 1.5793,-11.0257 3.2686,-5.7108 3.9058,-8.9179 2.5122,-12.6434 -1.7312,-4.6279 -2.6332,-4.8902 -12.3736,-3.5981 -8.4339,1.1188 -10.7525,0.7518 -11.7549,-1.8604 -0.6868,-1.7898 -0.091,-4.6493 1.3244,-6.3545 1.571,-1.8929 2.0653,-5.8075 1.2692,-10.0509 -1.625,-8.662 1.9339,-13.9321 11.505,-17.0367 4.3874,-1.4232 7.4214,-3.9237 7.8997,-6.5108 1.0413,-5.6317 4.4094,-9.5106 10.1548,-11.6949 2.6137,-0.9938 6.0968,-5.0246 7.74,-8.9574 3.8175,-9.1363 10.7984,-13.9914 20.175,-14.0315 7.1327,-0.03 19.2698,-3.4332 24.7346,-6.9347 1.4439,-0.9251 2.6252,-3.5633 2.6252,-5.8627 0,-11.417 13.0304,-22.8731 26.0162,-22.8731 4.1961,0 6.1116,-1.6318 8.4305,-7.1815 3.6669,-8.7759 8.7668,-11.7197 20.3036,-11.7197 6.7135,0 9.9864,-1.2553 13.6889,-5.2503 2.6762,-2.8877 6.6854,-5.2504 8.9093,-5.2504 2.2239,0 5.22,-1.4176 6.6579,-3.1502 4.0236,-4.848 9.8498,-3.9151 39.9614,6.3987 39.8607,13.6532 56.3316,25.8186 67.1074,49.5655 3.6875,8.1261 4.147,13.7985 4.1435,51.1425 v 42.0026 l -54.6904,50.4031 c -49.3748,45.5043 -63.5661,57.7088 -67.1423,57.7425 -0.6455,0.01 -2.7908,-1.1713 -4.7672,-2.6165 z m -533.9616,-59.8513 -55.46711,-56.1785 0.5121,-43.2257 0.5121,-43.2257 6.35017,-10.2627 c 8.81186,-14.241 18.12122,-20.0206 55.60454,-34.5215 33.9184,-13.1218 41.8293,-14.7437 46.2036,-9.4731 1.4379,1.7326 4.8742,3.1502 7.6362,3.1502 2.7619,0 6.6628,0.9233 8.6685,2.0519 2.0057,1.1285 7.6626,3.0548 12.5708,4.2807 7.3248,1.8295 9.6849,3.7201 13.1687,10.549 2.544,4.9865 5.7421,8.32 7.9823,8.32 5.0174,0 8.7779,4.0594 8.7779,9.4756 0,6.8006 10.8049,13.6258 21.5707,13.6258 10.6938,0 17.2382,4.9381 19.3626,14.6103 0.9656,4.3965 2.9911,6.7932 6.4814,7.6692 2.7923,0.7008 6.2611,3.7255 7.7083,6.7216 2.2075,4.5699 4.1155,5.4834 11.8434,5.6706 7.285,0.1764 10.2502,1.4303 14.176,5.9943 2.7304,3.1741 4.9853,7.3722 5.0109,9.3292 0.026,1.957 1.8948,5.9208 4.1536,8.8084 2.2589,2.8877 4.128,6.3984 4.1537,7.8016 0.026,1.4032 1.9368,3.5629 4.247,4.7992 4.9877,2.6693 5.4091,6.8831 1.0501,10.5007 -1.7327,1.4379 -3.1503,5.2181 -3.1503,8.4005 0,3.1823 1.4176,6.9626 3.1503,8.4005 4.0233,3.339 4.009,7.1735 -0.04,10.5334 -2.6003,2.158 -3.892,2.0115 -6.9909,-0.793 -2.0906,-1.892 -5.8167,-3.44 -8.2802,-3.44 -5.8829,0 -10.4302,14.7936 -6.9172,22.5035 3.3933,7.4474 2.7667,12.7885 -1.786,15.225 -2.2342,1.1957 -5.002,2.174 -6.1505,2.174 -4.0966,0 -8.6887,-6.6999 -8.6887,-12.6769 0,-4.0184 -1.4898,-6.8738 -4.3985,-8.4305 -3.6493,-1.953 -5.2828,-1.5231 -9.591,2.5242 -4.1124,3.8633 -4.9389,6.2303 -3.973,11.3787 1.6071,8.5668 -4.4986,14.6481 -12.6522,12.6017 -7.1429,-1.7927 -13.4887,3.6159 -13.4887,11.4966 0,11.6344 -10.3301,18.0063 -22.4778,13.865 -3.9184,-1.3359 -5.2587,-0.338 -8.7572,6.5195 -4.3746,8.5747 -11.4956,13.0816 -20.8428,13.1916 -3.1221,0.037 -7.5111,1.4543 -9.7533,3.1502 -2.2421,1.6959 -5.8646,3.0834 -8.0498,3.0834 -2.416,0 -25.7111,-22.0167 -59.4402,-56.1785 z m 273.3552,-11.6895 c -7.4843,-5.4726 0.9044,-17.6936 8.7526,-12.7512 5.0091,3.1545 5.6234,8.0167 1.53,12.11 -4.1239,4.1239 -5.41,4.2041 -10.2826,0.6412 z m -62.9794,-4.8267 c -0.7625,-1.9868 -0.5106,-4.488 0.5597,-5.5583 3.2513,-3.2513 9.7426,-0.768 9.7426,3.7271 0,5.4149 -8.3571,6.9004 -10.3023,1.8312 z m 142.5962,1.2641 c -0.7227,-1.1695 1.1393,-7.3124 4.1379,-13.6509 4.2491,-8.9817 6.5043,-11.5245 10.2209,-11.5245 5.5267,0 9.8108,3.6243 9.8058,8.2955 0,4.0214 -15.6126,19.0062 -19.7971,19.0062 -1.6793,0 -3.6447,-0.9568 -4.3675,-2.1263 z m -126.1737,-63.7404 c -0.6636,-1.7293 -4.0398,-4.1318 -7.5027,-5.3389 -7.979,-2.7815 -7.6597,-10.0063 0.398,-9.0053 2.8516,0.3542 7.7048,0.6347 10.7847,0.6233 6.8292,-0.025 10.7065,4.2106 9.7875,10.6927 -0.8257,5.8247 -11.4755,8.2193 -13.4675,3.0282 z m 114.0861,-19.6505 c -10.1799,-8.505 -11.7547,-14.4696 -3.6474,-13.8151 17.9599,1.4501 24.4384,5.5153 22.3092,13.9988 -2.0656,8.2301 -8.6688,8.1651 -18.6618,-0.1838 z m -134.5574,-20.8894 c -2.9498,-2.9498 -1.224,-11.1471 2.8002,-13.3008 8.008,-4.2857 14.7414,2.4791 11.3262,11.3789 -1.2664,3.3001 -11.3731,4.6751 -14.1264,1.9219 z m 135.7727,-9.1152 c -5.6079,-2.2594 -9.4965,-9.0127 -7.7742,-13.5011 0.7006,-1.8256 -0.3644,-6.7715 -2.3666,-10.9908 -2.6721,-5.6309 -3.33,-10.679 -2.4734,-18.9782 1.3061,-12.6553 -1.2239,-22.441 -7.6327,-29.5226 -4.8092,-5.3139 -3.3122,-8.1478 4.8834,-9.2449 4.9278,-0.6597 5.2504,-1.4643 5.2504,-13.094 0,-6.8151 -1.1513,-13.903 -2.5584,-15.751 -1.4071,-1.8479 -2.5884,-6.046 -2.6252,-9.329 -0.037,-3.283 -1.9569,-8.37203 -4.2671,-11.30889 -5.0715,-6.4473 -5.3476,-12.70142 -0.8446,-19.13036 3.1123,-4.44335 3.0362,-5.53406 -1.05,-15.0325 -2.4232,-5.63285 -4.4059,-12.36807 -4.4059,-14.96717 0,-2.5991 -1.9676,-6.82004 -4.3725,-9.37987 -2.4048,-2.55981 -4.9192,-8.73039 -5.5874,-13.71236 -1.5042,-11.21438 -8.3414,-23.2819 -12.7106,-22.43403 -5.3827,1.0445 -7.6177,11.43197 -4.0464,18.80591 3.376,6.97054 2.7214,12.85798 -1.8514,16.65304 -2.1522,1.78612 -2.5679,5.34884 -1.5925,13.64774 1.212,10.31221 0.8247,11.79473 -4.7362,18.12868 -5.3456,6.08878 -6.0561,8.49897 -6.0561,20.54427 v 13.64623 l 7.3505,2.37481 c 8.0837,2.6117 10.2895,7.1019 5.4583,11.1113 -2.3098,1.917 -2.8147,5.1895 -1.94,12.5747 1.0517,8.8802 0.5038,10.7771 -4.9579,17.1667 -7.2713,8.5065 -11.4371,20.8636 -8.689,25.7741 1.1797,2.108 1.0717,4.963 -0.2834,7.4951 -1.2039,2.2495 -2.1889,8.9501 -2.1889,14.8902 0,9.2104 -0.9315,11.7318 -6.3275,17.1277 -3.4802,3.4801 -7.2937,8.1327 -8.4746,10.3391 -2.7641,5.1647 -8.3903,5.1689 -9.7401,0.01 -0.576,-2.2024 -4.5603,-6.8275 -8.854,-10.278 -10.0828,-8.1027 -25.5131,-9.7211 -34.6064,-3.6297 -3.3263,2.2282 -9.3687,4.0513 -13.4275,4.0513 -5.9342,0 -8.6574,-1.5219 -13.9036,-7.7705 -3.5883,-4.2738 -7.6329,-7.7706 -8.9882,-7.7705 -1.3552,0 -5.1355,-2.2183 -8.4006,-4.9296 -3.2651,-2.7114 -9.7169,-5.5088 -14.3372,-6.2165 -5.6077,-0.859 -10.1463,-3.3018 -13.6511,-7.3473 -2.8877,-3.3334 -8.5382,-7.1776 -12.5567,-8.5428 -4.0184,-1.3652 -9.8719,-5.2912 -13.0076,-8.7243 -3.3492,-3.666 -7.8202,-6.2411 -10.8374,-6.2411 -6.4793,0 -15.0774,-6.7924 -13.5426,-10.6986 0.638,-1.6237 27.3599,-12.374 59.382,-23.8894 45.3983,-16.3257 58.5719,-21.87643 59.8111,-25.20158 0.8741,-2.34543 2.2555,-13.24246 3.0698,-24.21564 0.8143,-10.97318 1.94,-21.88046 2.5016,-24.23842 0.6807,-2.85819 -2.7746,-9.86061 -10.3663,-21.00838 -46.597,-68.42287 -68.7992,-168.9797 -51.888,-235.0072 8.7628,-34.21305 30.0351,-68.53766 55.3407,-89.29711 54.1258,-44.40192 125.5342,-47.48672 178.8623,-7.72676 41.824,31.18286 72.0195,82.30315 77.7767,131.6744 2.7909,23.93329 -6.9046,79.04915 -22.175,126.05772 -10.5807,32.57191 -23.5541,59.63526 -38.4916,80.29592 l -11.8597,16.40363 V 970.282 c 0,22.67781 0.4758,26.29877 3.6753,27.97092 2.0214,1.05645 31.0823,10.66318 64.5799,21.34828 33.4976,10.6851 61.8303,20.2775 62.9617,21.3164 1.3017,1.1954 0.022,3.6012 -3.4844,6.5523 -3.0478,2.5649 -8.0304,8.7251 -11.0724,13.6893 -6.5748,10.7293 -10.087,12.4392 -18.7873,9.1466 -5.5065,-2.084 -6.91,-1.9294 -9.0604,0.9977 -1.3996,1.905 -4.7073,4.5354 -7.3506,5.8455 -3.1958,1.5838 -5.0225,4.6002 -5.4524,9.003 -0.75,7.6821 -4.3594,11.3454 -11.2617,11.4297 -2.6912,0.033 -8.3424,1.0449 -12.5581,2.2489 -6.1287,1.7503 -8.5944,1.5381 -12.3023,-1.059 -3.039,-2.1286 -7.109,-2.8469 -11.809,-2.0843 -5.0827,0.8248 -8.3309,0.1147 -11.1514,-2.4376 -2.1887,-1.9808 -6.1839,-3.2892 -8.8781,-2.9077 -3.8581,0.5465 -4.7618,1.809 -4.2547,5.9441 2.0871,17.0203 1.8532,17.8686 -4.8442,17.5738 -3.4653,-0.1524 -8.2583,-0.9274 -10.6512,-1.722 -3.2116,-1.0665 -6.7004,0.5182 -13.3247,6.0526 -4.9357,4.1236 -9.1208,7.4376 -9.3003,7.3643 -0.1796,-0.073 -2.391,-0.9649 -4.9144,-1.9816 z m -62.6171,-6.2858 c -1.9391,-3.1374 0.7589,-6.3003 5.3744,-6.3003 2.6762,0 4.0763,1.4426 4.0763,4.2002 0,4.4545 -7.0301,6.0167 -9.4507,2.1001 z m 13.4373,-23.4724 c -0.1176,-0.3735 -0.5239,-6.5757 -0.9031,-13.7828 -0.5385,-10.2363 0.033,-13.508 2.6122,-14.9513 8.2568,-4.6206 16.6506,4.9888 10.4205,11.9295 -1.7401,1.9386 -3.4791,6.3519 -3.8645,9.8072 -0.4414,3.9572 -2.061,6.5404 -4.3761,6.9794 -2.0214,0.3833 -3.7714,0.3914 -3.889,0.019 z"
           id="path10309" />
      </g>
    </g>
  </g>
</svg>
