<?xml version="1.0" encoding="UTF-8" standalone="no"?>
<!-- Created with Inkscape (http://www.inkscape.org/) -->

<svg
   width="24"
   height="24"
   viewBox="0 0 24 24"
   version="1.1"
   id="svg5"
   inkscape:version="1.1.1 (3bf5ae0d25, 2021-09-20)"
   sodipodi:docname="skull.svg"
   xmlns:inkscape="http://www.inkscape.org/namespaces/inkscape"
   xmlns:sodipodi="http://sodipodi.sourceforge.net/DTD/sodipodi-0.dtd"
   xmlns="http://www.w3.org/2000/svg"
   xmlns:svg="http://www.w3.org/2000/svg">
  <g
     inkscape:label="Capa 1"
     inkscape:groupmode="layer"
     id="layer1"
     transform="translate(15.946791,28.864379)">
    <g
       id="g4409"
       transform="matrix(0.12812239,0,0,0.12708914,-207.56124,-4.2074214)" />
    <g
       id="g9127"
       transform="matrix(0.12598244,0,0,0.12598425,-174.2406,-23.711568)">
      <g
         id="g10545"
         transform="matrix(0.1259822,0,0,0.12598426,1184.6429,-75.161161)">
        <path
           style="fill:#f6a39d;stroke-width:2.10015"
           d="M 924.96971,1394.4085 C 717.91332,1187.3551 548.50354,1016.544 548.50354,1014.8281 c 0,-4.0978 751.95986,-756.05252 756.05776,-756.05252 4.0979,0 756.0577,751.95472 756.0577,756.05252 0,4.0827 -751.9749,756.0412 -756.0577,756.0412 -1.719,0 -172.5352,-169.4074 -379.59159,-376.4608 z M 1623.7769,1328.9138 1937.7422,1014.8067 1621.1517,698.22079 1304.5613,381.63493 987.9708,698.22085 671.38031,1014.8068 987.30465,1330.7526 c 248.39505,248.4119 316.62785,315.5528 319.21565,314.1071 1.8103,-1.0114 144.5758,-143.187 317.2566,-315.9459 z m -606.6398,-91.8112 c -13.2207,-6.5439 -19.99005,-17.1202 -24.1123,-37.6725 -1.90565,-9.501 -3.7062,-17.4597 -4.00123,-17.6859 -0.29503,-0.2263 -8.35738,-4.4445 -17.91634,-9.3739 -18.78749,-9.6883 -24.36774,-15.1443 -28.04615,-27.4216 -3.40808,-11.375 -0.70047,-21.9305 8.13362,-31.7086 12.01408,-13.298 25.6244,-19.1937 46.74317,-20.2483 15.73893,-0.7859 20.18313,-0.1205 37.55593,5.6224 10.8376,3.5826 22.4131,6.5138 25.7234,6.5138 3.3218,0 30.5183,-11.5278 60.6943,-25.7266 72.9631,-34.3314 73.894,-28.0227 -10.4181,-70.6027 -74.3263,-37.53689 -72.8509,-37.17168 -100.1829,-24.79754 -28.66081,12.97569 -44.73281,12.46185 -57.28266,-1.83142 -8.40957,-9.57783 -11.34345,-21.58006 -10.24267,-41.90194 1.00961,-18.63941 4.20458,-26.56736 15.09581,-37.45841 5.01123,-5.01118 7.77221,-10.33245 9.47107,-18.25389 5.06325,-23.60886 17.80671,-34.75486 39.22345,-34.30659 22.6497,0.47409 40.0172,11.55956 58.3419,37.23894 5.0771,7.11482 13.3666,16.70311 18.421,21.30729 8.9448,8.14788 38.4336,23.89759 40.6307,21.70048 0.6032,-0.60318 -0.5612,-4.32157 -2.5876,-8.26305 -3.1,-6.0297 -3.6844,-13.00927 -3.6844,-44.00572 v -36.83942 l -8.9668,-13.7733 c -20.3301,-31.22755 -31.8291,-63.93718 -28.9416,-82.32613 2.9519,-18.79917 10.9205,-28.03911 78.8615,-91.44298 34.7131,-32.39491 38.035,-34.92191 59.8546,-45.5324 32.5149,-15.81141 50.0946,-20.15402 86.5401,-21.37752 64.3839,-2.16137 88.5883,9.44431 168.6294,80.85531 49.2271,43.91945 56.3816,51.42548 63.0782,66.17715 9.4705,20.86261 0.8812,52.34972 -25.309,92.77827 -8.3213,12.84524 -12.4791,21.24368 -11.7154,23.66431 0.651,2.06378 2.1273,12.87985 3.2805,24.03572 2.4662,23.85688 0.2088,40.17914 -7.4773,54.06556 -2.8144,5.0847 -4.8206,9.54135 -4.4583,9.90366 0.3623,0.36232 11.9533,-4.86247 25.7576,-11.61063 26.2171,-12.81602 34.1694,-19.38695 49.7888,-41.14004 17.6565,-24.59006 35.1096,-35.36062 57.3814,-35.41088 21.5588,-0.0487 31.815,8.81742 37.9119,32.77329 2.5102,9.86309 5.3583,15.18323 11.4249,21.34165 9.9934,10.14455 14.5566,23.01028 14.5413,40.99874 -0.015,17.91509 -2.9441,27.98925 -10.7086,36.83237 -12.5224,14.26207 -28.6152,14.76843 -57.2564,1.80158 -27.4157,-12.41202 -25.2784,-12.96345 -104.2522,26.89664 -37.4601,18.9071 -68.4042,35.4097 -68.7647,36.6726 -0.3605,1.2629 7.6433,6.1471 17.7863,10.8538 10.1429,4.7067 36.6558,17.1405 58.9175,27.6307 22.2616,10.4902 43.1644,19.0731 46.4504,19.0731 3.2861,0 14.5781,-2.8352 25.0935,-6.3004 23.9048,-7.8776 42.7394,-8.4331 60.6397,-1.7886 23.4401,8.7009 37.7993,29.8182 32.4396,47.7071 -3.7419,12.4891 -9.2447,17.8973 -28.1069,27.6242 -9.5589,4.9294 -17.6918,9.2181 -18.073,9.5305 -0.3812,0.3124 -2.4949,8.8134 -4.6972,18.8911 -2.5141,11.5047 -5.9471,20.8703 -9.2256,25.1685 -7.5349,9.8786 -20.8476,15.6802 -35.926,15.6564 -22.0577,-0.035 -43.637,-16.9023 -49.4426,-38.6466 -4.8418,-18.1342 -8.4617,-25.8929 -15.0682,-32.296 -4.2351,-4.1048 -29.6034,-17.5696 -66.5747,-35.3359 l -59.7323,-28.704 -9.5301,5.6852 c -18.8135,11.2232 -56.5852,28.5125 -67.321,30.8149 -8.9948,1.929 -13.5575,1.7122 -25.6088,-1.2168 -17.4973,-4.2527 -46.8403,-15.8178 -61.767,-24.3446 -5.9161,-3.3795 -12.1604,-6.1446 -13.8763,-6.1446 -1.716,0 -28.063,11.8123 -58.5489,26.2495 -60.708,28.7496 -68.6551,34.3555 -73.3299,51.7274 -7.0799,26.3096 -15.952,39.0517 -33.3827,47.944 -11.5146,5.8743 -29.7264,5.767 -41.8757,-0.2467 z m 36.1827,-29.1108 c 5.2448,-4.605 7.9452,-9.3525 9.855,-17.3261 5.2392,-21.8738 14.7614,-37.0427 29.6759,-47.2734 4.9748,-3.4125 30.7818,-16.3984 57.3488,-28.8575 26.567,-12.4591 49.0755,-23.3268 50.0189,-24.1504 0.9433,-0.8236 -0.5932,-4.1811 -3.4146,-7.4611 l -5.1297,-5.9636 -58.5684,27.735 c -68.335,32.36 -69.463,32.594 -103.3265,21.4346 -10.6875,-3.522 -23.6306,-6.3004 -29.35,-6.3004 -21.33555,0 -37.53121,15.3435 -25.26465,23.9352 4.6055,3.2258 4.86477,3.0989 7.58065,-3.7103 3.51132,-8.8034 11.01434,-12.6812 18.201,-9.4068 6.7003,3.0529 8.2431,7.4407 15.7641,44.8354 6.9782,34.6958 9.3683,38.8524 22.3403,38.8524 4.8433,0 9.3024,-1.9822 14.2692,-6.343 z m 551.3343,2.6677 c 3.4485,-2.8573 5.7988,-10.452 10.5613,-34.1271 8.5225,-42.3671 8.3232,-41.767 15.0151,-45.2274 8.013,-4.1436 16.4403,-0.4833 18.1102,7.866 1.5376,7.6875 3.134,8.505 8.8252,4.5188 12.3214,-8.6301 -4.2197,-23.6796 -26.1607,-23.8017 -6.5093,-0.036 -17.9102,2.4334 -29.4023,6.3691 -15.7016,5.3773 -21.1738,6.2924 -33.4715,5.5973 -13.8376,-0.7822 -18.2131,-2.5127 -74.4925,-29.4619 l -59.7914,-28.631 -4.7885,4.4986 c -2.6337,2.4742 -4.7886,5.3279 -4.7886,6.3416 0,1.0137 13.4673,8.2821 29.9273,16.1519 92.9513,44.4417 94.8135,45.6143 106.1172,66.822 3.6245,6.8 7.2494,16.5587 8.0554,21.6859 2.0152,12.8186 13.9814,25.0732 24.4833,25.0732 4.0507,0 9.361,-1.6539 11.8005,-3.6753 z m -250.937,-109.3872 c 29.908,-14.6938 48.7533,-30.3232 59.1145,-49.0271 5.8795,-10.6134 6.1884,-12.4201 6.1884,-36.1846 0,-27.48252 -1.122,-29.78931 -10.5464,-21.68287 -5.0713,4.36206 -5.9357,6.97207 -7.2464,21.87947 -2.1187,24.0962 -9.9633,33.6302 -38.7582,47.1048 -21.4105,10.019 -43.5725,13.7783 -63.8252,10.8265 -30.4711,-4.4412 -61.0065,-20.5193 -70.8412,-37.3008 -3.9999,-6.8251 -5.1547,-11.7859 -5.1797,-22.2498 -0.017,-7.4065 -0.7265,-14.4569 -1.5751,-15.66764 -1.8161,-2.59098 -14.2289,-11.44954 -16.0433,-11.44954 -0.688,0 -1.242,12.52198 -1.2312,27.82668 0.019,26.8538 0.2329,28.1984 6.1165,38.4559 13.1048,22.8469 42.6722,43.5326 79.9704,55.9482 24.8685,8.278 31.5561,7.3901 63.8569,-8.4792 z m -25.9693,-54.964 c 14.147,-2.6829 32.8688,-11.1969 40.3433,-18.3467 5.0437,-4.8245 5.7813,-7.1378 5.8216,-18.2574 0.059,-16.28266 5.531,-28.51678 16.2048,-36.22978 4.4943,-3.2477 20.6158,-13.39255 35.8254,-22.54407 33.1954,-19.97346 41.2463,-26.35897 46.6922,-37.03366 5.2414,-10.27383 5.5168,-32.87951 0.7274,-59.69323 -3.3884,-18.96989 -3.3739,-19.27911 2.1001,-44.76707 3.0317,-14.11588 5.5122,-28.99496 5.5122,-33.06466 0,-10.41255 -4.5957,-20.20984 -14.541,-30.99903 -4.7084,-5.10798 -8.5608,-10.55414 -8.5608,-12.10259 0,-4.10216 12.8124,-16.66617 16.9957,-16.66617 7.5444,0 28.1154,28.5489 31.6714,43.95428 1.3498,5.84747 2.8791,10.2068 3.3985,9.68737 0.5195,-0.5194 1.7488,-5.24988 2.7319,-10.51218 2.1349,-11.42719 0.3766,-16.84086 -8.9018,-27.40821 -9.2467,-10.53131 -79.028,-72.74206 -96.2288,-85.78908 -16.3292,-12.38585 -37.9864,-23.00423 -56.7751,-27.83648 -17.373,-4.46814 -56.4756,-4.57673 -76.6905,-0.21298 -19.2007,4.1448 -46.2118,14.63104 -58.2831,22.62659 -11.2128,7.42697 -97.7787,89.26595 -103.2431,97.60559 -2.047,3.12402 -3.7218,8.87576 -3.7218,12.78162 0,8.97089 4.5182,28.10738 6.6362,28.10738 0.8783,0 2.1447,-5.30822 2.8144,-11.79605 1.5696,-15.20803 9.5563,-31.35742 22.1325,-44.75253 7.8884,-8.40203 11.3928,-10.65558 16.5702,-10.65558 6.6742,0 15.2716,7.79974 15.2716,13.85469 0,1.53317 -5.1813,8.59423 -11.5139,15.69122 -17.76,19.90378 -19.199,29.9345 -10.1576,70.80774 5.2245,23.61827 5.4828,26.81366 3.0557,37.80234 -5.1678,23.39713 -6.6714,41.03963 -4.4992,52.79273 3.6015,19.48698 6.7466,22.40343 55.5958,51.55393 40.9861,24.45816 45.2251,29.58494 45.2251,54.69557 0,12.6934 0.3682,13.6881 6.9141,18.6809 13.7278,10.4705 37.5344,19.2117 54.229,19.9116 3.0188,0.1266 10.5102,-0.7222 16.6476,-1.8861 z m -47.5491,-38.685 c -11.7619,-5.1202 -12.3479,-16.28414 -1.8894,-35.99781 4.0428,-7.62049 7.3505,-15.22594 7.3505,-16.90103 0,-5.4977 10.2442,-23.40051 15.9649,-27.90033 3.6854,-2.89889 8.644,-4.40744 14.4875,-4.40744 14.7553,0 23.974,10.06154 32.4925,35.46328 2.4737,7.37656 6.8069,16.81026 9.6294,20.96377 6.5291,9.60833 6.5687,17.93159 0.1159,24.38426 -6.8436,6.8435 -17.5277,8.5613 -27.4537,4.414 -9.7605,-4.0782 -19.3896,-4.1403 -26.335,-0.17 -6.5876,3.7657 -15.9264,3.8238 -24.3626,0.1514 z m -79.5954,-92.87933 c -17.3254,-9.08636 -33.9625,-34.13087 -36.2695,-54.59805 -0.8833,-7.83611 -0.2209,-9.71911 5.3939,-15.33376 l 6.4007,-6.40067 40.5896,0.0462 c 35.2779,0.0401 41.7356,0.5664 49.3459,4.02173 14.9206,6.77437 17.1442,17.50555 7.2145,34.81644 -8.3305,14.52284 -24.4,31.9137 -34.0271,36.82496 -9.8928,5.04686 -29.607,5.36478 -38.648,0.62323 z m 182.714,-0.0168 c -8.6571,-4.56386 -14.6888,-10.27934 -25.1294,-23.81205 -20.5368,-26.61892 -21.2323,-39.94322 -2.5283,-48.43541 7.6104,-3.45532 14.0681,-3.98163 49.3459,-4.02173 l 40.5896,-0.0462 6.4176,6.41749 c 5.892,5.89188 6.3178,7.26043 5.1987,16.70889 -2.4468,20.65957 -18.8341,45.19871 -35.4488,53.08276 -9.5836,4.54769 -29.9137,4.60383 -38.4453,0.10606 z m 125.7115,68.67106 c 77.1777,-39.62924 85.3796,-41.45949 118.6787,-26.4826 27.0545,12.16824 31.4632,11.89233 32.3235,-2.02288 0.5065,-8.19114 0.4929,-8.20607 -6.9311,-7.61743 -12.1885,0.96646 -13.9676,-2.96217 -15.0726,-33.28364 -0.5566,-15.27399 -2.0663,-28.34823 -3.6055,-31.22429 -2.3358,-4.36443 -3.8071,-4.83645 -12.4778,-4.00331 -13.7173,1.31804 -19.4533,5.7938 -35.9844,28.0783 -8.005,10.79103 -19.3935,23.17976 -25.5794,27.82599 -6.1326,4.60621 -34.0682,19.02012 -62.0791,32.03093 l -50.9289,23.65599 v 11.18371 c 0,6.625 0.9268,11.1837 2.2738,11.1837 1.2506,0 27.9728,-13.19604 59.3828,-29.32447 z m -335.0977,13.32442 -0.6298,-11.79937 -44.6699,-20.68025 c -24.5684,-11.37414 -48.8208,-23.53618 -53.8943,-27.02674 -9.4764,-6.5199 -21.6661,-20.02831 -35.6923,-39.55377 -8.8702,-12.34801 -20.2668,-19.34856 -31.4987,-19.34856 -10.55731,0 -12.36849,4.82801 -13.39316,35.70221 -1.00564,30.3011 -2.78095,34.22989 -15.02852,33.25877 -7.42396,-0.58864 -7.43757,-0.57371 -6.93112,7.61743 0.86038,13.91521 5.26908,14.19112 32.3235,2.02288 32.9871,-14.83657 41.9285,-12.93108 114.024,24.29964 28.9632,14.95684 53.4163,27.21961 54.3402,27.25071 0.924,0.031 1.3965,-5.2533 1.0501,-11.74295 z"
           id="path10559" />
        <path
           style="fill:#f3837c;stroke-width:2.10015"
           d="M 924.94499,1390.9273 548.47892,1013.787 926.0016,636.28701 l 377.5227,-377.49997 378.0325,378.00973 378.0324,378.00973 -376.9911,376.9813 c -207.3451,207.3397 -377.9352,376.8235 -379.0891,376.6306 -1.1539,-0.1929 -171.5077,-170.0639 -378.56401,-377.4911 z m 697.79061,-58.9852 317.119,-317.1197 -317.119,-317.11963 C 1448.3201,523.28697 1304.666,380.58313 1303.5043,380.58313 c -2.7415,0 -633.19146,630.46157 -633.19146,633.20307 0,2.0519 632.19996,635.2755 634.24846,635.2755 0.5804,0 143.7588,-142.7038 318.1743,-317.1196 z m -605.4684,-94.7751 c -14.4394,-7.1472 -21.45194,-19.0687 -24.65317,-41.911 -0.74216,-5.2955 -1.9743,-10.5797 -2.73811,-11.7428 -0.76383,-1.163 -9.20973,-6.1625 -18.76869,-11.11 -18.86889,-9.766 -24.3676,-15.1767 -28.10685,-27.6571 -7.60546,-25.3844 22.27254,-52.2189 58.14142,-52.2189 9.2814,0 19.7404,1.9839 33.2159,6.3004 10.8179,3.4652 22.6309,6.3004 26.2513,6.3004 3.7415,0 19.963,-6.2481 37.5857,-14.4771 59.2948,-27.688 80.357,-37.8735 80.357,-38.8603 0,-0.5459 -0.9148,-3.3985 -2.0328,-6.3391 -1.6477,-4.3337 -14.0811,-11.3762 -65.63,-37.1743 -74.2936,-37.18082 -73.6577,-37.02835 -100.803,-24.17083 -27.21567,12.89085 -43.53415,12.3271 -56.05806,-1.93663 -8.32083,-9.47677 -11.36017,-21.60267 -10.23941,-40.85188 1.0385,-17.83689 5.04393,-27.87593 15.20795,-38.11665 4.94764,-4.98495 7.95858,-10.87432 10.32836,-20.20216 4.00307,-15.75673 9.8517,-24.26687 20.02333,-29.13529 22.60423,-10.81901 55.01523,2.48511 74.18823,30.45294 13.1961,19.24939 25.0283,29.81794 44.1147,39.4036 10.1182,5.08156 18.3967,8.40479 18.3967,7.38494 0,-1.01982 -2.0301,-6.44338 -4.5112,-12.05235 -4.2186,-9.53661 -4.4251,-12.38232 -3.1832,-43.86972 l 1.328,-33.67158 -8.4874,-12.57574 c -19.385,-28.72262 -29.6821,-54.91238 -30.0582,-76.45011 -0.3972,-22.74826 5.0645,-29.77804 71.164,-91.5947 17.3263,-16.2037 35.8417,-32.96961 41.1453,-37.25757 12.0982,-9.7814 39.2697,-22.60595 63.8742,-30.14774 17.3561,-5.31999 21.7889,-5.80027 54.5927,-5.91496 31.7918,-0.11109 37.4182,0.41385 51.3634,4.79292 35.3849,11.11143 50.6131,21.51264 114.2945,78.06532 59.6996,53.01667 67.1595,64.14797 62.3811,93.08188 -3.13,18.95227 -10.3073,35.49842 -26.784,61.74599 -8.806,14.02814 -13.1383,22.92716 -12.3581,25.38526 2.8096,8.85226 4.8048,44.20478 3.0998,54.92418 -1.0062,6.32576 -4.2393,16.14609 -7.1846,21.823 -2.9454,5.67688 -5.0068,10.67 -4.5809,11.0958 0.4258,0.4258 12.0269,-4.77385 25.7803,-11.55477 26.1299,-12.88303 36.1261,-21.25945 50.6425,-42.43613 7.5981,-11.08407 20.662,-23.3936 29.8937,-28.16743 17.4969,-9.04788 40.2251,-7.93912 51.4965,2.51222 6.8694,6.36953 13.6216,20.32061 13.6865,28.2783 0.031,3.72878 3.5592,9.66767 10.3663,17.44645 12.4745,14.25509 15.976,26.1017 14.2928,48.35698 -1.2999,17.18697 -4.7728,25.36918 -14.0986,33.21619 -12.5458,10.55649 -26.5388,9.93021 -53.5677,-2.39755 -26.8584,-12.25 -24.9928,-12.73725 -105.2179,27.48072 -38.0025,19.0512 -68.983,35.4521 -68.8456,36.4465 0.1373,0.9944 26.5994,14.2998 58.8045,29.5675 40.4378,19.1707 60.8782,27.7803 66.0642,27.8267 4.1302,0.037 14.526,-2.4333 23.1017,-5.4895 33.3796,-11.8958 63.4815,-8.075 82.7775,10.5069 11.2344,10.8187 15.0664,21.9709 11.7637,34.2361 -3.4444,12.7913 -8.797,18.1674 -27.9664,28.0889 -9.5589,4.9475 -17.9326,9.8301 -18.6082,10.8504 -0.6755,1.0202 -2.3938,8.1805 -3.8183,15.9117 -4.9605,26.9209 -18.0013,40.4045 -40.7043,42.0865 -28.9867,2.1475 -48.2569,-14.9786 -58.0921,-51.6284 -4.6821,-17.4473 -11.0503,-21.9898 -73.388,-52.3486 -31.6371,-15.4073 -59.6121,-28.5379 -62.1668,-29.1791 -3.0354,-0.7618 -7.4824,0.7752 -12.8335,4.4358 -25.3542,17.3442 -67.4496,33.599 -81.432,31.4445 -17.7055,-2.7281 -57.4226,-17.642 -72.7504,-27.3179 -4.5565,-2.8763 -10.0524,-5.2297 -12.213,-5.2297 -2.1607,0 -27.9327,11.2378 -57.2711,24.9728 -62.6185,29.3154 -70.693,35.2219 -76.3946,55.8822 -1.9126,6.9304 -4.4772,15.2056 -5.6992,18.3893 -3.1123,8.1091 -17.9566,22.4646 -27.9532,27.0327 -11.6424,5.3202 -29.1594,5.0875 -40.5252,-0.5384 z m 37.2949,-30.7077 c 5.647,-5.6824 8.2255,-10.4147 9.2593,-16.9938 1.5129,-9.6275 7.3212,-22.4432 14.7253,-32.4906 7.9453,-10.7819 22.5174,-19.3893 71.6528,-42.3237 26.567,-12.4004 49.0755,-23.2702 50.0189,-24.1552 0.9433,-0.885 -0.5934,-4.293 -3.415,-7.5732 l -5.1301,-5.964 -23.8871,11.2394 c -13.138,6.1816 -39.0083,18.3614 -57.4897,27.0661 -41.9804,19.7725 -50.5871,20.9603 -79.6751,10.9951 -11.443,-3.9202 -22.9207,-6.4125 -29.4022,-6.3844 -12.3305,0.054 -27.10572,6.0567 -30.49538,12.3902 -1.98427,3.7076 -1.45873,5.2851 3.36889,10.1127 l 5.71989,5.7198 2.97761,-7.309 c 3.47898,-8.5396 5.8211,-10.3831 13.24703,-10.427 9.61176,-0.057 12.55196,6.1909 19.75196,41.9705 7.6639,38.0842 9.7744,42.0026 22.6243,42.0026 6.8253,0 9.7299,-1.4166 16.1486,-7.8755 z m 550.04,4.2002 c 3.3489,-2.8077 5.876,-10.8628 10.7066,-34.1271 8.4419,-40.6566 8.0297,-39.1552 11.7804,-42.9058 6.7868,-6.7868 21.8985,-1.6766 21.8985,7.4052 0,6.2349 3.8594,6.6306 9.5145,0.9756 6.8251,-6.825 4.6515,-11.629 -8.0418,-17.7736 -12.8514,-6.2212 -26.5569,-5.6464 -50.0233,2.0981 -32.2301,10.6367 -33.7992,10.2824 -105.8005,-23.8935 l -60.6636,-28.7945 -4.8513,4.5574 c -2.6681,2.5066 -4.8512,5.3785 -4.8512,6.382 0,1.0034 21.5004,12.2318 47.7787,24.9518 26.2782,12.7201 51.9461,25.2014 57.0397,27.7363 19.432,9.6706 32.8924,27.3553 39.0253,51.2727 5.4594,21.2911 24.0395,32.5525 36.488,22.1154 z m -274.8139,-98.1898 c 4.9245,-1.7375 18.0381,-7.5777 29.1412,-12.9783 16.342,-7.9487 23.2108,-12.8477 36.0582,-25.7177 21.8012,-21.8397 23.8708,-26.7296 24.7288,-58.4263 0.6182,-22.84046 0.3055,-25.72655 -2.7868,-25.72655 -1.9157,0 -6.2456,2.76247 -9.622,6.13885 -5.4732,5.4731 -6.1389,7.5598 -6.1389,19.2417 0,21.0384 -10.269,34.1933 -37.4478,47.9719 -12.0476,6.1076 -38.4969,12.7529 -50.759,12.7529 -21.2974,0 -56.3125,-12.1175 -72.4555,-25.0744 -13.2266,-10.6161 -17.8225,-19.8294 -17.8728,-35.8294 -0.023,-7.508 -0.7372,-14.6285 -1.5858,-15.82335 -2.3136,-3.2576 -13.3983,-11.47833 -15.4773,-11.47833 -0.9993,0 -1.808,12.52198 -1.7972,27.82668 0.019,26.8538 0.2329,28.1984 6.1165,38.4559 9.8128,17.1077 29.6383,33.8152 53.7184,45.2699 33.2367,15.8105 49.8221,19.1678 66.18,13.3965 z m 2.7481,-67.1854 c 14.8283,-3.8622 27.9237,-10.2838 35.5548,-17.435 5.0563,-4.7382 5.7812,-6.9978 5.8216,-18.1451 0.054,-14.89298 5.1427,-27.75275 13.621,-34.42169 3.1868,-2.50669 19.2915,-12.66874 35.7883,-22.58234 34.195,-20.54915 45.1619,-29.19836 50.03,-39.45708 4.4722,-9.42437 4.4766,-34.0362 0.01,-59.03963 -3.3884,-18.96989 -3.3739,-19.27911 2.1002,-44.76707 3.0316,-14.11588 5.5121,-28.99496 5.5121,-33.06466 0,-10.41255 -4.5957,-20.20984 -14.541,-30.99903 -4.7084,-5.10798 -8.5608,-10.55414 -8.5608,-12.10259 0,-4.15368 12.8366,-16.66617 17.0979,-16.66617 4.0905,0 20.9764,19.68425 26.9787,31.44953 2.132,4.17903 4.5565,11.22341 5.3877,15.65416 1.6847,8.97974 3.7311,7.09695 5.9951,-5.51548 2.7853,-15.51703 -3.6354,-23.16826 -64.9101,-77.35044 -37.9419,-33.55011 -51.9727,-44.17124 -69.2338,-52.40911 -20.2315,-9.65545 -38.5937,-13.26883 -67.2766,-13.23888 -31.3658,0.0328 -55.2433,5.37268 -81.9184,18.32009 -17.6365,8.56034 -22.1871,12.30008 -67.3968,55.38753 -27.8023,26.49721 -49.9647,49.32913 -51.9562,53.52582 -3.6967,7.79008 -2.5696,20.5372 3.0089,34.03049 2.558,6.18721 2.6345,6.05896 4.2583,-7.13923 2.1174,-17.20905 9.6107,-32.41095 22.7106,-46.07366 12.3294,-12.85922 20.144,-14.37957 27.2801,-5.30753 2.394,3.04345 4.3528,6.78796 4.3528,8.32114 0,1.53317 -5.1813,8.59423 -11.5139,15.69122 -17.6946,19.83048 -19.1495,29.91098 -10.2839,71.25496 5.3824,25.10057 5.4313,26.02401 2.2057,41.71388 -7.7545,37.71966 -6.2666,55.9596 5.6231,68.9333 3.647,3.97958 22.6618,16.95011 42.255,28.82343 44.2857,26.8368 47.9965,30.87233 49.0801,53.37584 0.9092,18.881 2.5153,21.317 19.8178,30.0586 23.6544,11.9506 42.1301,14.6369 63.1012,9.1747 z m -48.9766,-36.1453 c -1.7326,-0.6334 -5.2767,-3.0862 -7.8756,-5.4506 -6.6027,-6.00697 -6.0663,-16.04814 1.6288,-30.49218 3.4949,-6.55992 8.3099,-17.41936 10.7001,-24.13211 2.4716,-6.94146 7.4601,-15.31921 11.5672,-19.42621 6.1449,-6.14483 8.668,-7.22121 16.9272,-7.22121 8.4971,0 10.6462,0.98849 17.2566,7.93736 5.0901,5.35075 9.4899,13.50795 13.5015,25.0316 3.2729,9.40186 8.2344,20.18953 11.0255,23.97262 9.128,12.37204 5.1585,24.98233 -9.2201,29.29013 -6.5825,1.9722 -9.8032,1.6605 -20.0476,-1.9401 -12.1596,-4.2737 -12.244,-4.2744 -22.6117,-0.188 -10.3451,4.0777 -16.8283,4.8206 -22.8519,2.6187 z m -84.1605,-95.07547 c -17.4399,-9.21955 -34.3926,-36.45167 -34.4615,-55.3576 -0.031,-8.54989 0.8955,-10.95964 5.8555,-15.22595 5.791,-4.98117 6.5871,-5.0677 46.2035,-5.02237 35.0044,0.0401 41.4637,0.56947 49.0672,4.02172 17.8261,8.09359 17.8384,21.84709 0.041,45.28521 -10.9193,14.37962 -19.0018,22.26699 -27.0895,26.43566 -10.3059,5.31201 -29.4336,5.24602 -39.6157,-0.13671 z m 183.9181,0.16297 c -9.6892,-4.49556 -18.0855,-12.95541 -30.1984,-30.42715 -14.586,-21.03891 -13.847,-33.88251 2.3735,-41.24515 7.8138,-3.54678 13.9709,-4.05621 49.5131,-4.09659 l 40.5896,-0.0462 6.4008,6.40067 c 5.6378,5.63774 6.2792,7.47924 5.3808,15.44955 -2.3101,20.49502 -18.5917,45.12782 -35.6478,53.93241 -10.0391,5.18232 -27.2806,5.19686 -38.4116,0.0323 z m 197.0822,36.22355 c 15.8757,-4.10622 28.6105,-2.33388 47.1831,6.56668 25.3091,12.12886 32.2451,11.64357 32.6953,-2.28765 0.2582,-7.99061 0.1915,-8.05986 -7.178,-7.46487 -12.2466,0.98872 -14.0226,-2.94052 -15.0285,-33.24804 -1.1011,-33.17809 -2.6429,-36.54814 -16.1274,-35.25247 -13.6647,1.31298 -19.2262,5.63704 -36.065,28.04004 -8.0686,10.73489 -18.1978,22.29966 -22.5094,25.69948 -9.2259,7.27502 -30.2638,18.04767 -79.2446,40.57798 l -35.7027,16.42261 -0.6307,12.86759 -0.6306,12.8675 60.4852,-30.80787 c 33.2669,-16.94433 66.0059,-32.23578 72.7533,-33.98098 z m -406.4684,46.22113 -0.6298,-11.85087 -45.1535,-20.93084 c -24.8344,-11.51197 -50.171,-24.6806 -56.3036,-29.26363 -6.2474,-4.66874 -17.495,-16.88563 -25.5795,-27.78384 -17.2509,-23.25495 -22.6315,-27.26492 -36.7483,-27.38723 -10.11535,-0.0876 -10.55983,0.16045 -13.0075,7.25971 -1.39386,4.04275 -2.58761,17.8359 -2.65282,30.65142 -0.13609,26.73932 -2.38862,31.17815 -15.17912,29.9111 -6.87055,-0.68063 -6.9866,-0.55279 -6.73047,7.41247 0.44975,13.98624 5.45315,14.36347 32.29191,2.43454 19.5764,-8.70111 30.2835,-10.50334 44.5335,-7.49598 6.5397,1.38015 34.0469,13.95678 66.775,30.53029 30.6098,15.50083 56.4102,28.22388 57.3341,28.27348 0.924,0.05 1.3965,-5.2427 1.0501,-11.76062 z"
           id="path10557" />
        <path
           style="fill:#a0a0a0;stroke-width:2.10015"
           d="M 926.51643,1391.7826 549.52164,1014.8034 924.92457,639.41467 c 206.47163,-206.46383 377.06433,-375.64929 379.09493,-375.9677 2.4922,-0.3908 125.6907,121.44002 379.0921,374.88342 l 375.4,375.46231 -377.4936,377.4882 c -207.6215,207.6185 -377.4966,377.4866 -377.5002,377.4846 0,0 -169.6543,-169.6443 -377.00137,-376.9829 z m 696.74157,-58.2628 c 173.5535,-173.5481 315.5517,-316.9619 315.5517,-318.6974 0,-1.7354 -142.7063,-145.85728 -317.125,-320.27069 L 1304.5595,377.4364 985.86974,696.1216 667.17993,1014.8068 984.28599,1331.9343 c 174.40831,174.4201 318.52671,317.1274 320.26321,317.1274 1.7364,0 145.1554,-141.9939 318.7088,-315.5419 z m -605.9908,-96.3528 c -14.4394,-7.1472 -21.45194,-19.0687 -24.65317,-41.911 -0.74216,-5.2955 -1.9743,-10.5797 -2.73811,-11.7428 -0.76383,-1.163 -9.20973,-6.1625 -18.76869,-11.11 -18.86889,-9.766 -24.3676,-15.1767 -28.10685,-27.6571 -7.60546,-25.3844 22.27254,-52.2189 58.14142,-52.2189 9.2814,0 19.7404,1.9839 33.2159,6.3004 10.8179,3.4652 22.6309,6.3004 26.2513,6.3004 3.7415,0 19.963,-6.2481 37.5857,-14.4771 59.2948,-27.688 80.357,-37.8735 80.357,-38.8603 0,-0.5459 -0.9148,-3.3985 -2.0328,-6.3391 -1.6477,-4.3337 -14.0811,-11.3762 -65.63,-37.1743 -74.2936,-37.18082 -73.6577,-37.02835 -100.803,-24.17083 -27.21567,12.89085 -43.53415,12.3271 -56.05806,-1.93663 -8.32083,-9.47677 -11.36017,-21.60267 -10.23941,-40.85188 1.0385,-17.83689 5.04393,-27.87593 15.20795,-38.11665 4.94764,-4.98495 7.95858,-10.87432 10.32836,-20.20216 4.00307,-15.75673 9.8517,-24.26687 20.02333,-29.13529 22.60423,-10.81901 55.01523,2.48511 74.18823,30.45294 13.1961,19.24939 25.0283,29.81794 44.1147,39.4036 10.1182,5.08156 18.3967,8.40479 18.3967,7.38494 0,-1.01982 -2.0301,-6.44338 -4.5112,-12.05235 -4.2186,-9.53661 -4.4251,-12.38232 -3.1832,-43.86972 l 1.328,-33.67158 -8.4874,-12.57574 c -19.385,-28.72262 -29.6821,-54.91238 -30.0582,-76.45011 -0.3972,-22.74826 5.0645,-29.77804 71.164,-91.5947 17.3263,-16.2037 35.8417,-32.96961 41.1453,-37.25757 12.0982,-9.7814 39.2697,-22.60595 63.8742,-30.14774 17.3561,-5.31999 21.7889,-5.80027 54.5927,-5.91496 31.7918,-0.11109 37.4182,0.41385 51.3634,4.79292 35.3849,11.11143 50.6131,21.51264 114.2945,78.06532 59.6996,53.01667 67.1595,64.14797 62.3811,93.08188 -3.13,18.95227 -10.3073,35.49842 -26.784,61.74599 -8.806,14.02814 -13.1383,22.92716 -12.3581,25.38526 2.8096,8.85226 4.8048,44.20478 3.0998,54.92418 -1.0062,6.32576 -4.2393,16.14609 -7.1846,21.823 -2.9454,5.67688 -5.0068,10.67 -4.5809,11.0958 0.4258,0.4258 12.0269,-4.77385 25.7803,-11.55477 26.1299,-12.88303 36.1261,-21.25945 50.6425,-42.43613 7.5981,-11.08407 20.662,-23.3936 29.8937,-28.16743 17.4969,-9.04788 40.2251,-7.93912 51.4965,2.51222 6.8694,6.36953 13.6216,20.32061 13.6865,28.2783 0.031,3.72878 3.5592,9.66767 10.3663,17.44645 12.4745,14.25509 15.976,26.1017 14.2928,48.35698 -1.2999,17.18697 -4.7728,25.36918 -14.0986,33.21619 -12.5458,10.55649 -26.5388,9.93021 -53.5677,-2.39755 -26.8584,-12.25 -24.9928,-12.73725 -105.2179,27.48072 -38.0025,19.0512 -68.983,35.4521 -68.8456,36.4465 0.1373,0.9944 26.5994,14.2998 58.8045,29.5675 40.4378,19.1707 60.8782,27.7803 66.0642,27.8267 4.1302,0.037 14.526,-2.4333 23.1017,-5.4895 33.3796,-11.8958 63.4815,-8.075 82.7775,10.5069 11.2344,10.8187 15.0664,21.9709 11.7637,34.2361 -3.4444,12.7913 -8.797,18.1674 -27.9664,28.0889 -9.5589,4.9475 -17.9326,9.8301 -18.6082,10.8504 -0.6755,1.0202 -2.3938,8.1805 -3.8183,15.9117 -4.9605,26.9209 -18.0013,40.4045 -40.7043,42.0865 -28.9867,2.1475 -48.2569,-14.9786 -58.0921,-51.6284 -4.6821,-17.4473 -11.0503,-21.9898 -73.388,-52.3486 -31.6371,-15.4073 -59.6121,-28.5379 -62.1668,-29.1791 -3.0354,-0.7618 -7.4824,0.7752 -12.8335,4.4358 -25.3542,17.3442 -67.4496,33.599 -81.432,31.4445 -17.7055,-2.7281 -57.4226,-17.642 -72.7504,-27.3179 -4.5565,-2.8763 -10.0524,-5.2297 -12.213,-5.2297 -2.1607,0 -27.9327,11.2378 -57.2711,24.9728 -62.6185,29.3154 -70.693,35.2219 -76.3946,55.8822 -1.9126,6.9304 -4.4772,15.2056 -5.6992,18.3893 -3.1123,8.1091 -17.9566,22.4646 -27.9532,27.0327 -11.6424,5.3202 -29.1594,5.0875 -40.5252,-0.5384 z m 37.2949,-30.7077 c 5.647,-5.6824 8.2255,-10.4147 9.2593,-16.9938 1.5129,-9.6275 7.3212,-22.4432 14.7253,-32.4906 7.9453,-10.7819 22.5174,-19.3893 71.6528,-42.3237 26.567,-12.4004 49.0755,-23.2702 50.0189,-24.1552 0.9433,-0.885 -0.5934,-4.293 -3.415,-7.5732 l -5.1301,-5.964 -23.8871,11.2394 c -13.138,6.1816 -39.0083,18.3614 -57.4897,27.0661 -41.9804,19.7725 -50.5871,20.9603 -79.6751,10.9951 -11.443,-3.9202 -22.9207,-6.4125 -29.4022,-6.3844 -12.3305,0.054 -27.10572,6.0567 -30.49538,12.3902 -1.98427,3.7076 -1.45873,5.2851 3.36889,10.1127 l 5.71989,5.7198 2.97761,-7.309 c 3.47898,-8.5396 5.8211,-10.3831 13.24703,-10.427 9.61176,-0.057 12.55196,6.1909 19.75196,41.9705 7.6639,38.0842 9.7744,42.0026 22.6243,42.0026 6.8253,0 9.7299,-1.4166 16.1486,-7.8755 z m 550.04,4.2002 c 3.3489,-2.8077 5.876,-10.8628 10.7066,-34.1271 8.4419,-40.6566 8.0297,-39.1552 11.7804,-42.9058 6.7868,-6.7868 21.8985,-1.6766 21.8985,7.4052 0,6.2349 3.8594,6.6306 9.5145,0.9756 6.8251,-6.825 4.6515,-11.629 -8.0418,-17.7736 -12.8514,-6.2212 -26.5569,-5.6464 -50.0233,2.0981 -32.2301,10.6367 -33.7992,10.2824 -105.8005,-23.8935 l -60.6636,-28.7945 -4.8513,4.5574 c -2.6681,2.5066 -4.8512,5.3785 -4.8512,6.382 0,1.0034 21.5004,12.2318 47.7787,24.9518 26.2782,12.7201 51.9461,25.2014 57.0397,27.7363 19.432,9.6706 32.8924,27.3553 39.0253,51.2727 5.4594,21.2911 24.0395,32.5525 36.488,22.1154 z m -274.8139,-98.1898 c 4.9245,-1.7375 18.0381,-7.5777 29.1412,-12.9783 16.342,-7.9487 23.2108,-12.8477 36.0582,-25.7177 21.8012,-21.8397 23.8708,-26.7296 24.7288,-58.4263 0.6182,-22.84046 0.3055,-25.72655 -2.7868,-25.72655 -1.9157,0 -6.2456,2.76247 -9.622,6.13885 -5.4732,5.4731 -6.1389,7.5598 -6.1389,19.2417 0,21.0384 -10.269,34.1933 -37.4478,47.9719 -12.0476,6.1076 -38.4969,12.7529 -50.759,12.7529 -21.2974,0 -56.3125,-12.1175 -72.4555,-25.0744 -13.2266,-10.6161 -17.8225,-19.8294 -17.8728,-35.8294 -0.023,-7.508 -0.7372,-14.6285 -1.5858,-15.82335 -2.3136,-3.2576 -13.3983,-11.47833 -15.4773,-11.47833 -0.9993,0 -1.808,12.52198 -1.7972,27.82668 0.019,26.8538 0.2329,28.1984 6.1165,38.4559 9.8128,17.1077 29.6383,33.8152 53.7184,45.2699 33.2367,15.8105 49.8221,19.1678 66.18,13.3965 z m 2.7481,-67.1854 c 14.8283,-3.8622 27.9237,-10.2838 35.5548,-17.435 5.0563,-4.7382 5.7812,-6.9978 5.8216,-18.1451 0.054,-14.89298 5.1427,-27.75275 13.621,-34.42169 3.1868,-2.50669 19.2915,-12.66874 35.7883,-22.58234 34.195,-20.54915 45.1619,-29.19836 50.03,-39.45708 4.4722,-9.42437 4.4766,-34.0362 0.01,-59.03963 -3.3884,-18.96989 -3.3739,-19.27911 2.1002,-44.76707 3.0316,-14.11588 5.5121,-28.99496 5.5121,-33.06466 0,-10.41255 -4.5957,-20.20984 -14.541,-30.99903 -4.7084,-5.10798 -8.5608,-10.55414 -8.5608,-12.10259 0,-4.15368 12.8366,-16.66617 17.0979,-16.66617 4.0905,0 20.9764,19.68425 26.9787,31.44953 2.132,4.17903 4.5565,11.22341 5.3877,15.65416 1.6847,8.97974 3.7311,7.09695 5.9951,-5.51548 2.7853,-15.51703 -3.6354,-23.16826 -64.9101,-77.35044 -37.9419,-33.55011 -51.9727,-44.17124 -69.2338,-52.40911 -20.2315,-9.65545 -38.5937,-13.26883 -67.2766,-13.23888 -31.3658,0.0328 -55.2433,5.37268 -81.9184,18.32009 -17.6365,8.56034 -22.1871,12.30008 -67.3968,55.38753 -27.8023,26.49721 -49.9647,49.32913 -51.9562,53.52582 -3.6967,7.79008 -2.5696,20.5372 3.0089,34.03049 2.558,6.18721 2.6345,6.05896 4.2583,-7.13923 2.1174,-17.20905 9.6107,-32.41095 22.7106,-46.07366 12.3294,-12.85922 20.144,-14.37957 27.2801,-5.30753 2.394,3.04345 4.3528,6.78796 4.3528,8.32114 0,1.53317 -5.1813,8.59423 -11.5139,15.69122 -17.6946,19.83048 -19.1495,29.91098 -10.2839,71.25496 5.3824,25.10057 5.4313,26.02401 2.2057,41.71388 -7.7545,37.71966 -6.2666,55.9596 5.6231,68.9333 3.647,3.97958 22.6618,16.95011 42.255,28.82343 44.2857,26.8368 47.9965,30.87233 49.0801,53.37584 0.9092,18.881 2.5153,21.317 19.8178,30.0586 23.6544,11.9506 42.1301,14.6369 63.1012,9.1747 z m -48.9766,-36.1453 c -1.7326,-0.6334 -5.2767,-3.0862 -7.8756,-5.4506 -6.6027,-6.00697 -6.0663,-16.04814 1.6288,-30.49218 3.4949,-6.55992 8.3099,-17.41936 10.7001,-24.13211 2.4716,-6.94146 7.4601,-15.31921 11.5672,-19.42621 6.1449,-6.14483 8.668,-7.22121 16.9272,-7.22121 8.4971,0 10.6462,0.98849 17.2566,7.93736 5.0901,5.35075 9.4899,13.50795 13.5015,25.0316 3.2729,9.40186 8.2344,20.18953 11.0255,23.97262 9.128,12.37204 5.1585,24.98233 -9.2201,29.29013 -6.5825,1.9722 -9.8032,1.6605 -20.0476,-1.9401 -12.1596,-4.2737 -12.244,-4.2744 -22.6117,-0.188 -10.3451,4.0777 -16.8283,4.8206 -22.8519,2.6187 z m -84.1605,-95.07547 c -17.4399,-9.21955 -34.3926,-36.45167 -34.4615,-55.3576 -0.031,-8.54989 0.8955,-10.95964 5.8555,-15.22595 5.791,-4.98117 6.5871,-5.0677 46.2035,-5.02237 35.0044,0.0401 41.4637,0.56947 49.0672,4.02172 17.8261,8.09359 17.8384,21.84709 0.041,45.28521 -10.9193,14.37962 -19.0018,22.26699 -27.0895,26.43566 -10.3059,5.31201 -29.4336,5.24602 -39.6157,-0.13671 z m 183.9181,0.16297 c -9.6892,-4.49556 -18.0855,-12.95541 -30.1984,-30.42715 -14.586,-21.03891 -13.847,-33.88251 2.3735,-41.24515 7.8138,-3.54678 13.9709,-4.05621 49.5131,-4.09659 l 40.5896,-0.0462 6.4008,6.40067 c 5.6378,5.63774 6.2792,7.47924 5.3808,15.44955 -2.3101,20.49502 -18.5917,45.12782 -35.6478,53.93241 -10.0391,5.18232 -27.2806,5.19686 -38.4116,0.0323 z m 197.0822,36.22355 c 15.8757,-4.10622 28.6105,-2.33388 47.1831,6.56668 25.3091,12.12886 32.2451,11.64357 32.6953,-2.28765 0.2582,-7.99061 0.1915,-8.05986 -7.178,-7.46487 -12.2466,0.98872 -14.0226,-2.94052 -15.0285,-33.24804 -1.1011,-33.17809 -2.6429,-36.54814 -16.1274,-35.25247 -13.6647,1.31298 -19.2262,5.63704 -36.065,28.04004 -8.0686,10.73489 -18.1978,22.29966 -22.5094,25.69948 -9.2259,7.27502 -30.2638,18.04767 -79.2446,40.57798 l -35.7027,16.42261 -0.6307,12.86759 -0.6306,12.8675 60.4852,-30.80787 c 33.2669,-16.94433 66.0059,-32.23578 72.7533,-33.98098 z m -406.4684,46.22113 -0.6298,-11.85087 -45.1535,-20.93084 c -24.8344,-11.51197 -50.171,-24.6806 -56.3036,-29.26363 -6.2474,-4.66874 -17.495,-16.88563 -25.5795,-27.78384 -17.2509,-23.25495 -22.6315,-27.26492 -36.7483,-27.38723 -10.11535,-0.0876 -10.55983,0.16045 -13.0075,7.25971 -1.39386,4.04275 -2.58761,17.8359 -2.65282,30.65142 -0.13609,26.73932 -2.38862,31.17815 -15.17912,29.9111 -6.87055,-0.68063 -6.9866,-0.55279 -6.73047,7.41247 0.44975,13.98624 5.45315,14.36347 32.29191,2.43454 19.5764,-8.70111 30.2835,-10.50334 44.5335,-7.49598 6.5397,1.38015 34.0469,13.95678 66.775,30.53029 30.6098,15.50083 56.4102,28.22388 57.3341,28.27348 0.924,0.05 1.3965,-5.2427 1.0501,-11.76062 z"
           id="path10555" />
        <path
           style="fill:#f05f55;stroke-width:2.10015"
           d="M 926.51643,1391.7826 549.52164,1014.8034 924.92457,639.41467 c 206.47163,-206.46383 377.06433,-375.64929 379.09493,-375.9677 2.4922,-0.3908 125.6907,121.44002 379.0921,374.88342 l 375.4,375.46231 -377.4936,377.4882 c -207.6215,207.6185 -377.4966,377.4866 -377.5002,377.4846 0,0 -169.6543,-169.6443 -377.00137,-376.9829 z m 696.74157,-58.2628 c 173.5535,-173.5481 315.5517,-316.9619 315.5517,-318.6974 0,-1.7354 -142.7063,-145.85728 -317.125,-320.27069 L 1304.5595,377.4364 985.86974,696.1216 667.17993,1014.8068 984.28599,1331.9343 c 174.40831,174.4201 318.52671,317.1274 320.26321,317.1274 1.7364,0 145.1554,-141.9939 318.7088,-315.5419 z m -602.2034,-97.3289 c -15.0627,-6.532 -21.28886,-15.53 -25.31402,-36.5839 -1.43261,-7.4932 -3.35505,-15.1048 -4.27211,-16.9146 -0.91705,-1.8099 -8.7219,-6.7772 -17.34411,-11.0384 -8.62221,-4.2613 -18.50886,-10.9733 -21.97032,-14.9157 -17.85536,-20.3358 -5.06744,-47.6511 27.48083,-58.6997 15.38121,-5.2212 32.17093,-4.3348 54.72283,2.8891 10.8179,3.4653 23.0082,6.3004 27.0897,6.3004 5.1345,0 23.8321,-7.7914 60.6874,-25.2891 29.2967,-13.909 54.4639,-26.4807 55.9271,-27.937 1.9799,-1.9706 2.1079,-4.2334 0.5001,-8.8452 -1.9067,-5.4695 -9.6252,-10.0002 -65.7238,-38.5788 -74.4401,-37.92253 -73.1022,-37.59668 -102.2994,-24.91662 -9.8182,4.264 -21.74077,8.37221 -26.4945,9.12939 -12.21058,1.94491 -25.86558,-4.39574 -32.47363,-15.07899 -4.43688,-7.17312 -5.03614,-10.64203 -5.03454,-29.14359 0.002,-23.64117 2.04633,-29.34428 15.98016,-44.58085 5.39374,-5.89803 8.11949,-10.86007 8.11949,-14.78095 0,-8.88827 8.54341,-24.00656 16.58682,-29.35175 13.4819,-8.9593 38.1354,-5.51625 57.0772,7.97129 3.3845,2.40999 12.68,13.17952 20.6566,23.93227 7.9766,10.75277 17.7273,22.0098 21.6682,25.01563 7.5883,5.78775 43.5372,23.13002 44.9721,21.69517 0.4651,-0.46518 -2.0107,-6.27586 -5.5019,-12.91263 -5.8988,-11.21373 -6.3368,-13.57367 -6.1943,-33.37993 0.084,-11.72219 0.9467,-26.51089 1.9165,-32.86378 1.6438,-10.76878 1.3238,-12.26157 -4.7282,-22.05137 -25.5768,-41.37363 -33.0531,-59.70504 -33.4326,-81.97396 -0.3374,-19.79841 3.4793,-25.61833 41.0974,-62.66828 56.0175,-55.17142 73.2705,-69.7467 94.7512,-80.04578 36.2264,-17.36898 64.818,-23.30994 103.4336,-21.49219 13.5719,0.63888 30.3466,2.68857 37.2771,4.55487 16.5931,4.4683 38.9049,15.28657 54.9552,26.64599 16.3744,11.58883 91.9116,78.47738 105.8629,93.7421 14.9979,16.40982 17.6043,22.17365 17.3924,38.4617 -0.2872,22.08318 -10.0431,46.66791 -30.6266,77.17877 l -10.3923,15.40449 2.2846,13.11929 c 1.2566,7.2156 2.2639,22.01992 2.2385,32.89847 -0.048,20.66453 -2.8126,30.24931 -12.7495,44.20417 -2.4551,3.44782 -3.8944,6.83817 -3.1984,7.53413 1.9303,1.93036 51.0847,-21.67076 60.2465,-28.92692 4.4372,-3.51433 14.2042,-14.75016 21.7044,-24.96849 7.5001,-10.21835 16.451,-20.5828 19.8909,-23.03214 19.0438,-13.56023 43.6638,-17.02338 57.1776,-8.04287 8.0435,5.34519 16.5869,20.46348 16.5869,29.35175 0,3.92088 2.7257,8.88292 8.1195,14.78095 13.5641,14.83225 15.8221,21.01489 15.8982,43.53078 0.085,25.03945 -3.9089,34.35517 -17.8389,41.61267 -12.035,6.27015 -21.6765,5.14173 -45.8584,-5.36717 -29.6269,-12.87517 -27.5036,-13.40969 -106.9458,26.92228 -37.3626,18.9685 -68.9919,35.7611 -70.2875,37.3167 -2.999,3.6011 -6.1973,1.8313 62.1622,34.3973 39.6638,18.8955 58.5398,26.8282 63.8377,26.8282 4.1372,0 16.5981,-2.9259 27.6909,-6.502 17.1396,-5.5255 22.5424,-6.3703 35.9732,-5.625 26.582,1.4753 51.2512,18.0204 52.5266,35.2285 1.521,20.523 -4.6431,29.4022 -28.6478,41.2658 -8.557,4.229 -16.3727,8.7238 -17.3682,9.9883 -0.9956,1.2646 -3.0071,8.9146 -4.4702,17.0001 -1.463,8.0855 -3.8604,17.0636 -5.3276,19.9512 -9.4458,18.5921 -36.5721,26.5062 -56.9839,16.6252 -11.8093,-5.7167 -25.3157,-21.2113 -28.0199,-32.1446 -8.4521,-34.1727 -9.9565,-35.4548 -81.5909,-69.5358 -31.5617,-15.016 -59.1843,-27.6035 -61.3835,-27.9723 -2.1992,-0.3689 -6.5991,1.1688 -9.7776,3.417 -7.9974,5.6568 -50.1947,26.5373 -60.1926,29.7851 -19.622,6.3743 -51.0829,-1.0495 -89.0431,-21.0114 l -19.5472,-10.2792 -57.089,26.6812 c -71.8539,33.5818 -72.7331,34.3275 -81.2569,68.9154 -2.6941,10.9321 -16.1941,26.4237 -28.0121,32.1446 -10.7181,5.1884 -26.5022,5.6269 -37.1012,1.0307 z m 30.7411,-24.144 c 8.4021,-5.1927 10.5266,-8.763 14.6604,-24.6382 8.0551,-30.9336 17.971,-39.2141 84.6932,-70.7244 28.9324,-13.6636 52.5744,-25.87 52.5379,-27.1252 -0.098,-3.363 -9.8124,-13.8329 -12.8351,-13.8329 -1.4311,0 -27.7022,11.9721 -58.3801,26.6048 -66.6042,31.7685 -69.1469,32.3226 -100.4378,21.887 -22.5664,-7.526 -37.3549,-8.2552 -50.0943,-2.4701 -7.90593,3.5902 -15.50444,11.1618 -15.50444,15.4496 0,3.17 11.05424,12.0332 15.00779,12.0332 2.86437,0 3.89366,-1.5544 3.89366,-5.8803 0,-3.2342 1.13408,-7.0145 2.52019,-8.4005 3.41545,-3.4154 13.2115,-3.1893 16.1681,0.3732 1.3207,1.5913 5.7088,18.8386 9.7512,38.3273 8.1035,39.0673 10.1474,42.7845 23.5243,42.7845 4.0672,0 10.59,-1.9746 14.495,-4.388 z m 554.7673,0.1296 c 2.5139,-2.3421 5.055,-6.3586 5.6468,-8.9255 0.5918,-2.567 3.853,-18.2038 7.2471,-34.7486 3.3941,-16.5447 7.2899,-31.4294 8.6573,-33.077 3.0273,-3.6476 12.7952,-3.9334 16.253,-0.4755 1.3862,1.386 2.5202,5.1663 2.5202,8.4005 0,3.2342 0.992,5.8803 2.2045,5.8803 4.2383,0 14.0994,-6.1752 15.44,-9.6688 2.0406,-5.3175 -4.3147,-13.305 -14.1329,-17.7627 -12.8621,-5.8397 -27.5704,-5.1312 -50.2089,2.4188 -31.5389,10.5183 -33.217,10.1335 -105.5281,-24.2019 -40.3042,-19.1375 -61.8152,-28.3003 -63.6706,-27.121 -4.8154,3.0607 -9.9327,13.0785 -7.7074,15.0882 1.1201,1.0116 26.5024,13.5477 56.4051,27.8581 35.4609,16.9704 57.5662,28.8335 63.5631,34.1121 11.0948,9.7659 18.4742,21.908 21.8973,36.0295 1.3999,5.7754 3.8708,13.1414 5.4908,16.3689 6.4515,12.8532 26.7213,18.3969 35.9227,9.8246 z m -264.1232,-102.6582 c 10.4745,-4.5158 24.355,-11.3674 30.8455,-15.2259 15.1703,-9.0186 33.8755,-27.2399 41.6961,-40.6176 5.7695,-9.8689 6.1834,-12.1237 6.88,-37.4812 0.4592,-16.7149 -0.082,-27.80332 -1.4214,-29.14305 -2.609,-2.60897 -16.1386,5.11738 -19.2979,11.02047 -1.1405,2.13098 -2.0736,9.65388 -2.0736,16.71758 0,7.1074 -1.359,15.4712 -3.043,18.7275 -9.3341,18.05 -44.0978,36.122 -75.4332,39.2142 -33.3009,3.2861 -83.9183,-18.747 -92.9997,-40.4816 -1.5606,-3.7349 -2.8374,-12.958 -2.8374,-20.4959 0,-13.65754 -0.03,-13.72697 -8.7158,-20.01865 -14.6857,-10.63812 -14.7783,-10.47261 -14.0122,25.05055 l 0.6763,31.364 8.5951,12.2137 c 15.6958,22.3036 40.5849,39.0883 75.4835,50.9045 25.1045,8.5002 32.4181,8.2704 55.6577,-1.7486 z m -8.7523,-62.0444 c 15.0151,-3.9963 33.3236,-13.4324 38.2744,-19.7262 2.7491,-3.4947 4.0085,-8.4598 4.0166,-15.8337 0.027,-24.81085 5.6138,-31.73663 44.1894,-54.78071 54.3368,-32.4593 58.7067,-37.59086 58.7067,-68.9391 0,-10.0075 -1.544,-25.85817 -3.4312,-35.2237 -3.4114,-16.93043 -3.398,-17.17921 2.3431,-43.30189 7.8064,-35.51992 6.9926,-44.7032 -5.3728,-60.63199 -5.1097,-6.58208 -10.2088,-13.23002 -11.3315,-14.7732 -1.466,-2.01501 -0.3194,-4.60298 4.0682,-9.18257 3.3602,-3.50721 7.2626,-6.37677 8.6721,-6.37677 4.0304,0 22.0689,21.11095 26.4704,30.979 2.1901,4.91019 4.5416,13.65198 5.2254,19.4262 1.4391,12.15064 3.617,13.33848 6.7345,3.67315 5.3413,-16.55969 5.2103,-24.017 -0.5957,-33.92403 -5.4276,-9.26136 -77.816,-75.5828 -103.9104,-95.20146 -50.0871,-37.65729 -117.9039,-41.96247 -180.6746,-11.46969 -11.8689,5.7657 -21.0366,12.78128 -38.8529,29.73221 -12.8252,12.20224 -33.9004,31.91938 -46.8338,43.81586 -12.9334,11.89646 -26.4631,26.06032 -30.066,31.47523 -5.7527,8.64576 -6.3823,10.98669 -5.167,19.21334 1.6391,11.09593 8.9968,31.58448 11.3424,31.58448 0.9054,0 2.1722,-6.95582 2.8152,-15.45737 1.4043,-18.56788 7.9746,-32.88168 21.953,-47.8254 10.2128,-10.9182 16.6044,-12.82077 21.9927,-6.54655 6.1204,7.12673 5.8262,8.66207 -3.7882,19.76754 -19.3278,22.32526 -21.2862,34.67237 -12.0772,76.14616 l 5.5587,25.0343 -3.8325,15.91823 c -2.1434,8.90287 -3.8953,24.24821 -3.9749,34.8194 -0.2309,30.63798 3.8364,35.38155 57.612,67.19255 39.0794,23.11744 44.1034,29.18656 44.1034,53.27818 0,15.2452 3.3403,19.576 22.225,28.8153 22.786,11.148 43.0361,13.7979 63.6055,8.3232 z m -49.0777,-40.4624 c -12.2009,-2.9723 -14.8208,-14.7344 -6.5164,-29.25613 2.7411,-4.7934 7.1273,-15.18904 9.7471,-23.10143 6.345,-19.16381 16.8198,-30.13712 28.768,-30.13712 13.2219,0 21.2942,9.47669 30.2534,35.51648 2.2199,6.4521 6.3688,15.25601 9.2199,19.56424 6.5145,9.84396 6.5692,16.39026 0.1867,22.38616 -6.1013,5.7318 -17.7929,6.2773 -29.3075,1.3673 -7.6237,-3.2509 -8.7147,-3.2047 -20.4849,0.8686 -12.6407,4.3745 -14.4314,4.6032 -21.8663,2.7919 z m -80.5514,-93.14223 c -21.5989,-8.6508 -43.0192,-45.9297 -36.0535,-62.74612 4.0615,-9.80502 10.0763,-10.93878 54.2027,-10.21683 36.5278,0.59763 40.564,1.03467 45.8166,4.96101 8.3885,6.27057 10.0043,9.83633 8.3802,18.49376 -2.1509,11.46463 -25.1906,40.87683 -36.7534,46.91867 -9.8266,5.13472 -26.2538,6.32986 -35.5926,2.58951 z m 181.3591,-0.80952 c -16.2986,-7.48159 -40.9532,-40.13951 -40.9532,-54.24728 0,-6.24672 7.6595,-13.57892 16.9762,-16.25087 10.1009,-2.89686 78.144,-2.63754 84.6409,0.32258 6.6287,3.02019 10.546,12.39919 8.8625,21.21889 -1.9798,10.37231 -10.4135,27.21836 -17.8886,35.73189 -12.86,14.64656 -35.7626,20.51207 -51.6378,13.22479 z m 127.7613,71.09438 65.4534,-32.76841 14.817,-0.0737 c 12.7848,-0.0636 17.6067,1.11815 35.1583,8.61692 11.1878,4.77983 22.1867,8.69063 24.442,8.69063 5.6874,0 10.6392,-7.87422 10.6392,-16.91831 0,-9.44825 -1.2109,-10.6985 -7.5601,-7.80566 -3.6816,1.67744 -6.4566,1.65171 -10.2912,-0.0956 -5.1263,-2.33564 -5.2507,-2.92714 -5.2622,-25.01362 -0.019,-34.54408 -3.754,-43.50643 -17.9145,-42.97408 -13.2802,0.49924 -23.1282,8.27789 -39.5441,31.23473 -16.3347,22.84336 -26.2897,29.591 -81.4369,55.19933 -28.1365,13.06565 -52.3386,24.6856 -53.7825,25.82222 -2.6102,2.05478 -3.9092,28.85392 -1.3985,28.85392 0.6746,0 30.6806,-14.7457 66.6801,-32.7684 z m -336.7273,13.17926 v -13.28876 l -48.5662,-22.80802 c -52.2668,-24.54596 -62.7239,-31.73916 -78.7775,-54.18947 -15.4582,-21.61748 -22.9226,-28.01502 -36.1737,-31.00357 -16.92101,-3.81627 -21.2662,4.44083 -21.28499,40.44775 -0.0147,26.6395 -1.95217,30.26082 -15.07359,28.16264 l -8.0399,-1.28562 v 7.95807 c 0,9.51905 4.89134,17.29314 10.8806,17.29314 2.38807,0 12.02148,-3.48142 21.40758,-7.7365 35.934,-16.29027 42.7735,-15.0102 113.673,21.27472 30.0323,15.36993 56.258,28.06213 58.2794,28.20483 3.1404,0.2218 3.6753,-1.6745 3.6753,-13.02921 z"
           id="path10553" />
        <path
           style="fill:#ee4034;stroke-width:2.10015"
           d="m 928.63184,1389.6949 -374.87496,-374.874 375.40221,-375.39674 375.40221,-375.39679 375.4022,375.39679 375.4022,375.39674 -374.875,374.874 c -206.1812,206.1807 -375.3494,374.874 -375.9294,374.874 -0.58,0 -169.7482,-168.6933 -375.92946,-374.874 z m 695.67626,-55.1251 c 210.2767,-210.2701 316.6018,-318.0066 316.6018,-320.8044 0,-4.968 -631.3971,-637.38253 -636.3572,-637.38253 -1.7194,0 -146.1746,143.04641 -321.01158,317.88092 -286.63162,286.62745 -317.66247,318.29761 -315.61698,322.11961 1.2477,2.3313 143.68733,146.1102 316.53251,319.5086 222.06885,222.7796 315.58205,315.2698 318.75685,315.2698 3.1704,0 97.6858,-93.19 321.0946,-316.592 z m -603.2535,-98.3789 c -15.0627,-6.532 -21.28886,-15.53 -25.31402,-36.5839 -1.43261,-7.4932 -3.35505,-15.1048 -4.27211,-16.9146 -0.91705,-1.8099 -8.7219,-6.7772 -17.34411,-11.0384 -8.62221,-4.2613 -18.50886,-10.9733 -21.97032,-14.9157 -17.85536,-20.3358 -5.06744,-47.6511 27.48083,-58.6997 15.38121,-5.2212 32.17093,-4.3348 54.72283,2.8891 10.8179,3.4653 23.0082,6.3004 27.0897,6.3004 5.1345,0 23.8321,-7.7914 60.6874,-25.2891 29.2967,-13.909 54.4639,-26.4807 55.9271,-27.937 1.9799,-1.9706 2.1079,-4.2334 0.5001,-8.8452 -1.9067,-5.4695 -9.6252,-10.0002 -65.7238,-38.5788 -74.4401,-37.92253 -73.1022,-37.59668 -102.2994,-24.91662 -9.8182,4.264 -21.74077,8.37221 -26.4945,9.12939 -12.21058,1.94491 -25.86558,-4.39574 -32.47363,-15.07899 -4.43688,-7.17312 -5.03614,-10.64203 -5.03454,-29.14359 0.002,-23.64117 2.04633,-29.34428 15.98016,-44.58085 5.39374,-5.89803 8.11949,-10.86007 8.11949,-14.78095 0,-8.88827 8.54341,-24.00656 16.58682,-29.35175 13.4819,-8.9593 38.1354,-5.51625 57.0772,7.97129 3.3845,2.40999 12.68,13.17952 20.6566,23.93227 7.9766,10.75277 17.7273,22.0098 21.6682,25.01563 7.5883,5.78775 43.5372,23.13002 44.9721,21.69517 0.4651,-0.46518 -2.0107,-6.27586 -5.5019,-12.91263 -5.8988,-11.21373 -6.3368,-13.57367 -6.1943,-33.37993 0.084,-11.72219 0.9467,-26.51089 1.9165,-32.86378 1.6438,-10.76878 1.3238,-12.26157 -4.7282,-22.05137 -25.5768,-41.37363 -33.0531,-59.70504 -33.4326,-81.97396 -0.3374,-19.79841 3.4793,-25.61833 41.0974,-62.66828 56.0175,-55.17142 73.2705,-69.7467 94.7512,-80.04578 36.2264,-17.36898 64.818,-23.30994 103.4336,-21.49219 13.5719,0.63888 30.3466,2.68857 37.2771,4.55487 16.5931,4.4683 38.9049,15.28657 54.9552,26.64599 16.3744,11.58883 91.9116,78.47738 105.8629,93.7421 14.9979,16.40982 17.6043,22.17365 17.3924,38.4617 -0.2872,22.08318 -10.0431,46.66791 -30.6266,77.17877 l -10.3923,15.40449 2.2846,13.11929 c 1.2566,7.2156 2.2639,22.01992 2.2385,32.89847 -0.048,20.66453 -2.8126,30.24931 -12.7495,44.20417 -2.4551,3.44782 -3.8944,6.83817 -3.1984,7.53413 1.9303,1.93036 51.0847,-21.67076 60.2465,-28.92692 4.4372,-3.51433 14.2042,-14.75016 21.7044,-24.96849 7.5001,-10.21835 16.451,-20.5828 19.8909,-23.03214 19.0438,-13.56023 43.6638,-17.02338 57.1776,-8.04287 8.0435,5.34519 16.5869,20.46348 16.5869,29.35175 0,3.92088 2.7257,8.88292 8.1195,14.78095 13.5641,14.83225 15.8221,21.01489 15.8982,43.53078 0.085,25.03945 -3.9089,34.35517 -17.8389,41.61267 -12.035,6.27015 -21.6765,5.14173 -45.8584,-5.36717 -29.6269,-12.87517 -27.5036,-13.40969 -106.9458,26.92228 -37.3626,18.9685 -68.9919,35.7611 -70.2875,37.3167 -2.999,3.6011 -6.1973,1.8313 62.1622,34.3973 39.6638,18.8955 58.5398,26.8282 63.8377,26.8282 4.1372,0 16.5981,-2.9259 27.6909,-6.502 17.1396,-5.5255 22.5424,-6.3703 35.9732,-5.625 26.582,1.4753 51.2512,18.0204 52.5266,35.2285 1.521,20.523 -4.6431,29.4022 -28.6478,41.2658 -8.557,4.229 -16.3727,8.7238 -17.3682,9.9883 -0.9956,1.2646 -3.0071,8.9146 -4.4702,17.0001 -1.463,8.0855 -3.8604,17.0636 -5.3276,19.9512 -9.4458,18.5921 -36.5721,26.5062 -56.9839,16.6252 -11.8093,-5.7167 -25.3157,-21.2113 -28.0199,-32.1446 -8.4521,-34.1727 -9.9565,-35.4548 -81.5909,-69.5358 -31.5617,-15.016 -59.1843,-27.6035 -61.3835,-27.9723 -2.1992,-0.3689 -6.5991,1.1688 -9.7776,3.417 -7.9974,5.6568 -50.1947,26.5373 -60.1926,29.7851 -19.622,6.3743 -51.0829,-1.0495 -89.0431,-21.0114 l -19.5472,-10.2792 -57.089,26.6812 c -71.8539,33.5818 -72.7331,34.3275 -81.2569,68.9154 -2.6941,10.9321 -16.1941,26.4237 -28.0121,32.1446 -10.7181,5.1884 -26.5022,5.6269 -37.1012,1.0307 z m 30.7411,-24.144 c 8.4021,-5.1927 10.5266,-8.763 14.6604,-24.6382 8.0551,-30.9336 17.971,-39.2141 84.6932,-70.7244 28.9324,-13.6636 52.5744,-25.87 52.5379,-27.1252 -0.098,-3.363 -9.8124,-13.8329 -12.8351,-13.8329 -1.4311,0 -27.7022,11.9721 -58.3801,26.6048 -66.6042,31.7685 -69.1469,32.3226 -100.4378,21.887 -22.5664,-7.526 -37.3549,-8.2552 -50.0943,-2.4701 -7.90593,3.5902 -15.50444,11.1618 -15.50444,15.4496 0,3.17 11.05424,12.0332 15.00779,12.0332 2.86437,0 3.89366,-1.5544 3.89366,-5.8803 0,-3.2342 1.13408,-7.0145 2.52019,-8.4005 3.41545,-3.4154 13.2115,-3.1893 16.1681,0.3732 1.3207,1.5913 5.7088,18.8386 9.7512,38.3273 8.1035,39.0673 10.1474,42.7845 23.5243,42.7845 4.0672,0 10.59,-1.9746 14.495,-4.388 z m 554.7673,0.1296 c 2.5139,-2.3421 5.055,-6.3586 5.6468,-8.9255 0.5918,-2.567 3.853,-18.2038 7.2471,-34.7486 3.3941,-16.5447 7.2899,-31.4294 8.6573,-33.077 3.0273,-3.6476 12.7952,-3.9334 16.253,-0.4755 1.3862,1.386 2.5202,5.1663 2.5202,8.4005 0,3.2342 0.992,5.8803 2.2045,5.8803 4.2383,0 14.0994,-6.1752 15.44,-9.6688 2.0406,-5.3175 -4.3147,-13.305 -14.1329,-17.7627 -12.8621,-5.8397 -27.5704,-5.1312 -50.2089,2.4188 -31.5389,10.5183 -33.217,10.1335 -105.5281,-24.2019 -40.3042,-19.1375 -61.8152,-28.3003 -63.6706,-27.121 -4.8154,3.0607 -9.9327,13.0785 -7.7074,15.0882 1.1201,1.0116 26.5024,13.5477 56.4051,27.8581 35.4609,16.9704 57.5662,28.8335 63.5631,34.1121 11.0948,9.7659 18.4742,21.908 21.8973,36.0295 1.3999,5.7754 3.8708,13.1414 5.4908,16.3689 6.4515,12.8532 26.7213,18.3969 35.9227,9.8246 z m -264.1232,-102.6582 c 10.4745,-4.5158 24.355,-11.3674 30.8455,-15.2259 15.1703,-9.0186 33.8755,-27.2399 41.6961,-40.6176 5.7695,-9.8689 6.1834,-12.1237 6.88,-37.4812 0.4592,-16.7149 -0.082,-27.80332 -1.4214,-29.14305 -2.609,-2.60897 -16.1386,5.11738 -19.2979,11.02047 -1.1405,2.13098 -2.0736,9.65388 -2.0736,16.71758 0,7.1074 -1.359,15.4712 -3.043,18.7275 -9.3341,18.05 -44.0978,36.122 -75.4332,39.2142 -33.3009,3.2861 -83.9183,-18.747 -92.9997,-40.4816 -1.5606,-3.7349 -2.8374,-12.958 -2.8374,-20.4959 0,-13.65754 -0.03,-13.72697 -8.7158,-20.01865 -14.6857,-10.63812 -14.7783,-10.47261 -14.0122,25.05055 l 0.6763,31.364 8.5951,12.2137 c 15.6958,22.3036 40.5849,39.0883 75.4835,50.9045 25.1045,8.5002 32.4181,8.2704 55.6577,-1.7486 z m -8.7523,-62.0444 c 15.0151,-3.9963 33.3236,-13.4324 38.2744,-19.7262 2.7491,-3.4947 4.0085,-8.4598 4.0166,-15.8337 0.027,-24.81085 5.6138,-31.73663 44.1894,-54.78071 54.3368,-32.4593 58.7067,-37.59086 58.7067,-68.9391 0,-10.0075 -1.544,-25.85817 -3.4312,-35.2237 -3.4114,-16.93043 -3.398,-17.17921 2.3431,-43.30189 7.8064,-35.51992 6.9926,-44.7032 -5.3728,-60.63199 -5.1097,-6.58208 -10.2088,-13.23002 -11.3315,-14.7732 -1.466,-2.01501 -0.3194,-4.60298 4.0682,-9.18257 3.3602,-3.50721 7.2626,-6.37677 8.6721,-6.37677 4.0304,0 22.0689,21.11095 26.4704,30.979 2.1901,4.91019 4.5416,13.65198 5.2254,19.4262 1.4391,12.15064 3.617,13.33848 6.7345,3.67315 5.3413,-16.55969 5.2103,-24.017 -0.5957,-33.92403 -5.4276,-9.26136 -77.816,-75.5828 -103.9104,-95.20146 -50.0871,-37.65729 -117.9039,-41.96247 -180.6746,-11.46969 -11.8689,5.7657 -21.0366,12.78128 -38.8529,29.73221 -12.8252,12.20224 -33.9004,31.91938 -46.8338,43.81586 -12.9334,11.89646 -26.4631,26.06032 -30.066,31.47523 -5.7527,8.64576 -6.3823,10.98669 -5.167,19.21334 1.6391,11.09593 8.9968,31.58448 11.3424,31.58448 0.9054,0 2.1722,-6.95582 2.8152,-15.45737 1.4043,-18.56788 7.9746,-32.88168 21.953,-47.8254 10.2128,-10.9182 16.6044,-12.82077 21.9927,-6.54655 6.1204,7.12673 5.8262,8.66207 -3.7882,19.76754 -19.3278,22.32526 -21.2862,34.67237 -12.0772,76.14616 l 5.5587,25.0343 -3.8325,15.91823 c -2.1434,8.90287 -3.8953,24.24821 -3.9749,34.8194 -0.2309,30.63798 3.8364,35.38155 57.612,67.19255 39.0794,23.11744 44.1034,29.18656 44.1034,53.27818 0,15.2452 3.3403,19.576 22.225,28.8153 22.786,11.148 43.0361,13.7979 63.6055,8.3232 z m -49.0777,-40.4624 c -12.2009,-2.9723 -14.8208,-14.7344 -6.5164,-29.25613 2.7411,-4.7934 7.1273,-15.18904 9.7471,-23.10143 6.345,-19.16381 16.8198,-30.13712 28.768,-30.13712 13.2219,0 21.2942,9.47669 30.2534,35.51648 2.2199,6.4521 6.3688,15.25601 9.2199,19.56424 6.5145,9.84396 6.5692,16.39026 0.1867,22.38616 -6.1013,5.7318 -17.7929,6.2773 -29.3075,1.3673 -7.6237,-3.2509 -8.7147,-3.2047 -20.4849,0.8686 -12.6407,4.3745 -14.4314,4.6032 -21.8663,2.7919 z m -80.5514,-93.14223 c -21.5989,-8.6508 -43.0192,-45.9297 -36.0535,-62.74612 4.0615,-9.80502 10.0763,-10.93878 54.2027,-10.21683 36.5278,0.59763 40.564,1.03467 45.8166,4.96101 8.3885,6.27057 10.0043,9.83633 8.3802,18.49376 -2.1509,11.46463 -25.1906,40.87683 -36.7534,46.91867 -9.8266,5.13472 -26.2538,6.32986 -35.5926,2.58951 z m 181.3591,-0.80952 c -16.2986,-7.48159 -40.9532,-40.13951 -40.9532,-54.24728 0,-6.24672 7.6595,-13.57892 16.9762,-16.25087 10.1009,-2.89686 78.144,-2.63754 84.6409,0.32258 6.6287,3.02019 10.546,12.39919 8.8625,21.21889 -1.9798,10.37231 -10.4135,27.21836 -17.8886,35.73189 -12.86,14.64656 -35.7626,20.51207 -51.6378,13.22479 z m 127.7613,71.09438 65.4534,-32.76841 14.817,-0.0737 c 12.7848,-0.0636 17.6067,1.11815 35.1583,8.61692 11.1878,4.77983 22.1867,8.69063 24.442,8.69063 5.6874,0 10.6392,-7.87422 10.6392,-16.91831 0,-9.44825 -1.2109,-10.6985 -7.5601,-7.80566 -3.6816,1.67744 -6.4566,1.65171 -10.2912,-0.0956 -5.1263,-2.33564 -5.2507,-2.92714 -5.2622,-25.01362 -0.019,-34.54408 -3.754,-43.50643 -17.9145,-42.97408 -13.2802,0.49924 -23.1282,8.27789 -39.5441,31.23473 -16.3347,22.84336 -26.2897,29.591 -81.4369,55.19933 -28.1365,13.06565 -52.3386,24.6856 -53.7825,25.82222 -2.6102,2.05478 -3.9092,28.85392 -1.3985,28.85392 0.6746,0 30.6806,-14.7457 66.6801,-32.7684 z m -336.7273,13.17926 v -13.28876 l -48.5662,-22.80802 c -52.2668,-24.54596 -62.7239,-31.73916 -78.7775,-54.18947 -15.4582,-21.61748 -22.9226,-28.01502 -36.1737,-31.00357 -16.92101,-3.81627 -21.2662,4.44083 -21.28499,40.44775 -0.0147,26.6395 -1.95217,30.26082 -15.07359,28.16264 l -8.0399,-1.28562 v 7.95807 c 0,9.51905 4.89134,17.29314 10.8806,17.29314 2.38807,0 12.02148,-3.48142 21.40758,-7.7365 35.934,-16.29027 42.7735,-15.0102 113.673,21.27472 30.0323,15.36993 56.258,28.06213 58.2794,28.20483 3.1404,0.2218 3.6753,-1.6745 3.6753,-13.02921 z"
           id="path10551" />
        <path
           style="fill:#5e5e5e;stroke-width:2.10015"
           d="m 1021.0546,1236.1909 c -15.0627,-6.532 -21.28886,-15.53 -25.31402,-36.5839 -1.43261,-7.4932 -3.35505,-15.1048 -4.27211,-16.9146 -0.91705,-1.8099 -8.7219,-6.7772 -17.34411,-11.0384 -8.62221,-4.2613 -18.50886,-10.9733 -21.97032,-14.9157 -17.85536,-20.3358 -5.06744,-47.6511 27.48083,-58.6997 15.38121,-5.2212 32.17093,-4.3348 54.72283,2.8891 10.8179,3.4653 23.0082,6.3004 27.0897,6.3004 5.1345,0 23.8321,-7.7914 60.6874,-25.2891 29.2967,-13.909 54.4639,-26.4807 55.9271,-27.937 1.9799,-1.9706 2.1079,-4.2334 0.5001,-8.8452 -1.9067,-5.4695 -9.6252,-10.0002 -65.7238,-38.5788 -74.4401,-37.92253 -73.1022,-37.59668 -102.2994,-24.91662 -9.8182,4.264 -21.74077,8.37221 -26.4945,9.12939 -12.21058,1.94491 -25.86558,-4.39574 -32.47363,-15.07899 -4.43688,-7.17312 -5.03614,-10.64203 -5.03454,-29.14359 0.002,-23.64117 2.04633,-29.34428 15.98016,-44.58085 5.39374,-5.89803 8.11949,-10.86007 8.11949,-14.78095 0,-8.88827 8.54341,-24.00656 16.58682,-29.35175 13.4819,-8.9593 38.1354,-5.51625 57.0772,7.97129 3.3845,2.40999 12.68,13.17952 20.6566,23.93227 7.9766,10.75277 17.7273,22.0098 21.6682,25.01563 7.5883,5.78775 43.5372,23.13002 44.9721,21.69517 0.4651,-0.46518 -2.0107,-6.27586 -5.5019,-12.91263 -5.8988,-11.21373 -6.3368,-13.57367 -6.1943,-33.37993 0.084,-11.72219 0.9467,-26.51089 1.9165,-32.86378 1.6438,-10.76878 1.3238,-12.26157 -4.7282,-22.05137 -25.5768,-41.37363 -33.0531,-59.70504 -33.4326,-81.97396 -0.3374,-19.79841 3.4793,-25.61833 41.0974,-62.66828 56.0175,-55.17142 73.2705,-69.7467 94.7512,-80.04578 36.2264,-17.36898 64.818,-23.30994 103.4336,-21.49219 13.5719,0.63888 30.3466,2.68857 37.2771,4.55487 16.5931,4.4683 38.9049,15.28657 54.9552,26.64599 16.3744,11.58883 91.9116,78.47738 105.8629,93.7421 14.9979,16.40982 17.6043,22.17365 17.3924,38.4617 -0.2872,22.08318 -10.0431,46.66791 -30.6266,77.17877 l -10.3923,15.40449 2.2846,13.11929 c 1.2566,7.2156 2.2639,22.01992 2.2385,32.89847 -0.048,20.66453 -2.8126,30.24931 -12.7495,44.20417 -2.4551,3.44782 -3.8944,6.83817 -3.1984,7.53413 1.9303,1.93036 51.0847,-21.67076 60.2465,-28.92692 4.4372,-3.51433 14.2042,-14.75016 21.7044,-24.96849 7.5001,-10.21835 16.451,-20.5828 19.8909,-23.03214 19.0438,-13.56023 43.6638,-17.02338 57.1776,-8.04287 8.0435,5.34519 16.5869,20.46348 16.5869,29.35175 0,3.92088 2.7257,8.88292 8.1195,14.78095 13.5641,14.83225 15.8221,21.01489 15.8982,43.53078 0.085,25.03945 -3.9089,34.35517 -17.8389,41.61267 -12.035,6.27015 -21.6765,5.14173 -45.8584,-5.36717 -29.6269,-12.87517 -27.5036,-13.40969 -106.9458,26.92228 -37.3626,18.9685 -68.9919,35.7611 -70.2875,37.3167 -2.999,3.6011 -6.1973,1.8313 62.1622,34.3973 39.6638,18.8955 58.5398,26.8282 63.8377,26.8282 4.1372,0 16.5981,-2.9259 27.6909,-6.502 17.1396,-5.5255 22.5424,-6.3703 35.9732,-5.625 26.582,1.4753 51.2512,18.0204 52.5266,35.2285 1.521,20.523 -4.6431,29.4022 -28.6478,41.2658 -8.557,4.229 -16.3727,8.7238 -17.3682,9.9883 -0.9956,1.2646 -3.0071,8.9146 -4.4702,17.0001 -1.463,8.0855 -3.8604,17.0636 -5.3276,19.9512 -9.4458,18.5921 -36.5721,26.5062 -56.9839,16.6252 -11.8093,-5.7167 -25.3157,-21.2113 -28.0199,-32.1446 -8.4521,-34.1727 -9.9565,-35.4548 -81.5909,-69.5358 -31.5617,-15.016 -59.1843,-27.6035 -61.3835,-27.9723 -2.1992,-0.3689 -6.5991,1.1688 -9.7776,3.417 -7.9974,5.6568 -50.1947,26.5373 -60.1926,29.7851 -19.622,6.3743 -51.0829,-1.0495 -89.0431,-21.0114 l -19.5472,-10.2792 -57.089,26.6812 c -71.8539,33.5818 -72.7331,34.3275 -81.2569,68.9154 -2.6941,10.9321 -16.1941,26.4237 -28.0121,32.1446 -10.7181,5.1884 -26.5022,5.6269 -37.1012,1.0307 z m 30.7411,-24.144 c 8.4021,-5.1927 10.5266,-8.763 14.6604,-24.6382 8.0551,-30.9336 17.971,-39.2141 84.6932,-70.7244 28.9324,-13.6636 52.5744,-25.87 52.5379,-27.1252 -0.098,-3.363 -9.8124,-13.8329 -12.8351,-13.8329 -1.4311,0 -27.7022,11.9721 -58.3801,26.6048 -66.6042,31.7685 -69.1469,32.3226 -100.4378,21.887 -22.5664,-7.526 -37.3549,-8.2552 -50.0943,-2.4701 -7.90593,3.5902 -15.50444,11.1618 -15.50444,15.4496 0,3.17 11.05424,12.0332 15.00779,12.0332 2.86437,0 3.89366,-1.5544 3.89366,-5.8803 0,-3.2342 1.13408,-7.0145 2.52019,-8.4005 3.41545,-3.4154 13.2115,-3.1893 16.1681,0.3732 1.3207,1.5913 5.7088,18.8386 9.7512,38.3273 8.1035,39.0673 10.1474,42.7845 23.5243,42.7845 4.0672,0 10.59,-1.9746 14.495,-4.388 z m 554.7673,0.1296 c 2.5139,-2.3421 5.055,-6.3586 5.6468,-8.9255 0.5918,-2.567 3.853,-18.2038 7.2471,-34.7486 3.3941,-16.5447 7.2899,-31.4294 8.6573,-33.077 3.0273,-3.6476 12.7952,-3.9334 16.253,-0.4755 1.3862,1.386 2.5202,5.1663 2.5202,8.4005 0,3.2342 0.992,5.8803 2.2045,5.8803 4.2383,0 14.0994,-6.1752 15.44,-9.6688 2.0406,-5.3175 -4.3147,-13.305 -14.1329,-17.7627 -12.8621,-5.8397 -27.5704,-5.1312 -50.2089,2.4188 -31.5389,10.5183 -33.217,10.1335 -105.5281,-24.2019 -40.3042,-19.1375 -61.8152,-28.3003 -63.6706,-27.121 -4.8154,3.0607 -9.9327,13.0785 -7.7074,15.0882 1.1201,1.0116 26.5024,13.5477 56.4051,27.8581 35.4609,16.9704 57.5662,28.8335 63.5631,34.1121 11.0948,9.7659 18.4742,21.908 21.8973,36.0295 1.3999,5.7754 3.8708,13.1414 5.4908,16.3689 6.4515,12.8532 26.7213,18.3969 35.9227,9.8246 z m -264.1232,-102.6582 c 10.4745,-4.5158 24.355,-11.3674 30.8455,-15.2259 15.1703,-9.0186 33.8755,-27.2399 41.6961,-40.6176 5.7695,-9.8689 6.1834,-12.1237 6.88,-37.4812 0.4592,-16.7149 -0.082,-27.80332 -1.4214,-29.14305 -2.609,-2.60897 -16.1386,5.11738 -19.2979,11.02047 -1.1405,2.13098 -2.0736,9.65388 -2.0736,16.71758 0,7.1074 -1.359,15.4712 -3.043,18.7275 -9.3341,18.05 -44.0978,36.122 -75.4332,39.2142 -33.3009,3.2861 -83.9183,-18.747 -92.9997,-40.4816 -1.5606,-3.7349 -2.8374,-12.958 -2.8374,-20.4959 0,-13.65754 -0.03,-13.72697 -8.7158,-20.01865 -14.6857,-10.63812 -14.7783,-10.47261 -14.0122,25.05055 l 0.6763,31.364 8.5951,12.2137 c 15.6958,22.3036 40.5849,39.0883 75.4835,50.9045 25.1045,8.5002 32.4181,8.2704 55.6577,-1.7486 z m -8.7523,-62.0444 c 15.0151,-3.9963 33.3236,-13.4324 38.2744,-19.7262 2.7491,-3.4947 4.0085,-8.4598 4.0166,-15.8337 0.027,-24.81085 5.6138,-31.73663 44.1894,-54.78071 54.3368,-32.4593 58.7067,-37.59086 58.7067,-68.9391 0,-10.0075 -1.544,-25.85817 -3.4312,-35.2237 -3.4114,-16.93043 -3.398,-17.17921 2.3431,-43.30189 7.8064,-35.51992 6.9926,-44.7032 -5.3728,-60.63199 -5.1097,-6.58208 -10.2088,-13.23002 -11.3315,-14.7732 -1.466,-2.01501 -0.3194,-4.60298 4.0682,-9.18257 3.3602,-3.50721 7.2626,-6.37677 8.6721,-6.37677 4.0304,0 22.0689,21.11095 26.4704,30.979 2.1901,4.91019 4.5416,13.65198 5.2254,19.4262 1.4391,12.15064 3.617,13.33848 6.7345,3.67315 5.3413,-16.55969 5.2103,-24.017 -0.5957,-33.92403 -5.4276,-9.26136 -77.816,-75.5828 -103.9104,-95.20146 -50.0871,-37.65729 -117.9039,-41.96247 -180.6746,-11.46969 -11.8689,5.7657 -21.0366,12.78128 -38.8529,29.73221 -12.8252,12.20224 -33.9004,31.91938 -46.8338,43.81586 -12.9334,11.89646 -26.4631,26.06032 -30.066,31.47523 -5.7527,8.64576 -6.3823,10.98669 -5.167,19.21334 1.6391,11.09593 8.9968,31.58448 11.3424,31.58448 0.9054,0 2.1722,-6.95582 2.8152,-15.45737 1.4043,-18.56788 7.9746,-32.88168 21.953,-47.8254 10.2128,-10.9182 16.6044,-12.82077 21.9927,-6.54655 6.1204,7.12673 5.8262,8.66207 -3.7882,19.76754 -19.3278,22.32526 -21.2862,34.67237 -12.0772,76.14616 l 5.5587,25.0343 -3.8325,15.91823 c -2.1434,8.90287 -3.8953,24.24821 -3.9749,34.8194 -0.2309,30.63798 3.8364,35.38155 57.612,67.19255 39.0794,23.11744 44.1034,29.18656 44.1034,53.27818 0,15.2452 3.3403,19.576 22.225,28.8153 22.786,11.148 43.0361,13.7979 63.6055,8.3232 z m -49.0777,-40.4624 c -12.2009,-2.9723 -14.8208,-14.7344 -6.5164,-29.25613 2.7411,-4.7934 7.1273,-15.18904 9.7471,-23.10143 6.345,-19.16381 16.8198,-30.13712 28.768,-30.13712 13.2219,0 21.2942,9.47669 30.2534,35.51648 2.2199,6.4521 6.3688,15.25601 9.2199,19.56424 6.5145,9.84396 6.5692,16.39026 0.1867,22.38616 -6.1013,5.7318 -17.7929,6.2773 -29.3075,1.3673 -7.6237,-3.2509 -8.7147,-3.2047 -20.4849,0.8686 -12.6407,4.3745 -14.4314,4.6032 -21.8663,2.7919 z m -80.5514,-93.14223 c -21.5989,-8.6508 -43.0192,-45.9297 -36.0535,-62.74612 4.0615,-9.80502 10.0763,-10.93878 54.2027,-10.21683 36.5278,0.59763 40.564,1.03467 45.8166,4.96101 8.3885,6.27057 10.0043,9.83633 8.3802,18.49376 -2.1509,11.46463 -25.1906,40.87683 -36.7534,46.91867 -9.8266,5.13472 -26.2538,6.32986 -35.5926,2.58951 z m 181.3591,-0.80952 c -16.2986,-7.48159 -40.9532,-40.13951 -40.9532,-54.24728 0,-6.24672 7.6595,-13.57892 16.9762,-16.25087 10.1009,-2.89686 78.144,-2.63754 84.6409,0.32258 6.6287,3.02019 10.546,12.39919 8.8625,21.21889 -1.9798,10.37231 -10.4135,27.21836 -17.8886,35.73189 -12.86,14.64656 -35.7626,20.51207 -51.6378,13.22479 z m 127.7613,71.09438 65.4534,-32.76841 14.817,-0.0737 c 12.7848,-0.0636 17.6067,1.11815 35.1583,8.61692 11.1878,4.77983 22.1867,8.69063 24.442,8.69063 5.6874,0 10.6392,-7.87422 10.6392,-16.91831 0,-9.44825 -1.2109,-10.6985 -7.5601,-7.80566 -3.6816,1.67744 -6.4566,1.65171 -10.2912,-0.0956 -5.1263,-2.33564 -5.2507,-2.92714 -5.2622,-25.01362 -0.019,-34.54408 -3.754,-43.50643 -17.9145,-42.97408 -13.2802,0.49924 -23.1282,8.27789 -39.5441,31.23473 -16.3347,22.84336 -26.2897,29.591 -81.4369,55.19933 -28.1365,13.06565 -52.3386,24.6856 -53.7825,25.82222 -2.6102,2.05478 -3.9092,28.85392 -1.3985,28.85392 0.6746,0 30.6806,-14.7457 66.6801,-32.7684 z m -336.7273,13.17926 v -13.28876 l -48.5662,-22.80802 c -52.2668,-24.54596 -62.7239,-31.73916 -78.7775,-54.18947 -15.4582,-21.61748 -22.9226,-28.01502 -36.1737,-31.00357 -16.92101,-3.81627 -21.2662,4.44083 -21.28499,40.44775 -0.0147,26.6395 -1.95217,30.26082 -15.07359,28.16264 l -8.0399,-1.28562 v 7.95807 c 0,9.51905 4.89134,17.29314 10.8806,17.29314 2.38807,0 12.02148,-3.48142 21.40758,-7.7365 35.934,-16.29027 42.7735,-15.0102 113.673,21.27472 30.0323,15.36993 56.258,28.06213 58.2794,28.20483 3.1404,0.2218 3.6753,-1.6745 3.6753,-13.02921 z"
           id="path10549" />
        <path
           style="fill:#070707;stroke-width:2.10015"
           d="m 1019.2929,1232.9299 c -11.5718,-5.7278 -18.0939,-15.958 -21.22745,-33.296 -1.35695,-7.508 -2.95801,-15.3315 -3.55794,-17.3856 -0.61075,-2.0912 -9.31539,-7.8653 -19.78024,-13.121 -19.08289,-9.5838 -23.71331,-14.0633 -27.2367,-26.3485 -4.69756,-16.3791 7.569,-33.0576 30.74605,-41.8045 15.80495,-5.9647 35.22228,-5.0198 57.66198,2.8058 25.8336,9.0092 26.5891,8.8371 87.5797,-19.9539 29.7128,-14.0262 55.3027,-26.68 56.8664,-28.1196 4.2115,-3.8775 1.0556,-14.8677 -5.6289,-19.602 -3.0882,-2.1872 -32.5494,-17.4901 -65.4694,-34.0065 -70.8861,-35.56427 -71.3539,-35.66921 -100.0361,-22.44148 -28.7696,13.26801 -43.74979,12.03202 -54.8089,-4.52221 -4.20933,-6.3009 -4.7663,-9.74171 -4.75937,-29.40182 0.008,-24.62504 2.23726,-30.78976 15.64133,-43.26714 5.16156,-4.80471 7.09814,-8.73324 8.15771,-16.5486 1.68809,-12.45123 8.13231,-23.43592 16.19461,-27.60503 3.29639,-1.70462 11.47452,-3.09005 18.17362,-3.07877 20.8983,0.0353 36.749,10.18212 54.0988,34.63162 13.7347,19.3551 24.7992,28.56637 48.2474,40.16629 25.5515,12.64052 30.4949,12.48112 21.8352,-0.70402 -2.8755,-4.37819 -6.3341,-11.17278 -7.6858,-15.09912 -2.8968,-8.41476 -3.0983,-35.13954 -0.4212,-55.8651 l 1.8989,-14.70091 -12.868,-19.87657 c -16.9067,-26.11497 -25.0156,-46.91139 -26.2821,-67.40397 -1.6045,-25.96043 0.6452,-28.9214 73.9317,-97.30502 43.3626,-40.46159 56.1111,-48.37574 98.8436,-61.3608 17.118,-5.20158 22.0722,-5.75341 52.5041,-5.84815 37.7705,-0.11761 49.4976,2.15793 76.045,14.75558 20.3439,9.65386 34.4622,20.59266 87.5467,67.8304 58.4569,52.01852 64.3364,60.63074 59.9854,87.86648 -2.9981,18.76729 -11.1517,37.48218 -26.9644,61.89153 l -13.1157,20.24611 2.4868,17.00707 c 1.3677,9.35387 2.0726,25.24085 1.5665,35.3044 -0.9732,19.34844 -3.6051,26.68923 -14.5749,40.65094 -3.307,4.20898 -6.0127,8.22547 -6.0127,8.92555 0,3.21345 8.2497,0.28123 35.1086,-12.47878 30.5758,-14.52582 37.1948,-19.53556 52.5867,-39.80165 22.7199,-29.91465 35.9883,-38.7953 58.018,-38.83188 20.6131,-0.0342 30.3126,9.08552 34.7127,32.6381 1.3421,7.18364 3.9392,11.84343 9.7248,17.44809 11.2799,10.92714 13.566,17.96018 13.5569,41.70652 -0.01,16.6571 -0.782,21.81342 -4.1,27.25505 -10.3093,16.90737 -26.9097,18.66045 -54.6966,5.77624 -30.0565,-13.93655 -28.3325,-14.35863 -110.8966,27.14965 -38.4689,19.3399 -70.4943,36.5989 -71.1676,38.3535 -0.6733,1.7545 0.086,4.4598 1.6882,6.0118 1.6019,1.5521 29.1282,15.1821 61.1696,30.2891 65.7067,30.9794 66.9373,31.2744 91.1292,21.8431 11.6709,-4.5499 18.0361,-5.6497 33.3276,-5.7581 21.9895,-0.1558 35.6701,4.6816 47.3662,16.7487 5.939,6.1274 7.0811,8.972 7.7431,19.2866 1.1188,17.4323 -2.9409,22.7864 -26.5062,34.9572 -13.6632,7.0567 -19.4116,11.1962 -20.1486,14.5091 -0.5671,2.5495 -2.476,11.1203 -4.242,19.0462 -3.918,17.5843 -8.8171,24.8378 -20.6415,30.5618 -24.951,12.0784 -57.1102,-3.9308 -64.6541,-32.1856 -8.857,-33.1729 -10.3319,-34.4046 -83.095,-69.3914 -32.5436,-15.6479 -60.813,-28.4508 -62.821,-28.4508 -2.008,0 -8.0299,2.81 -13.3821,6.2444 -5.3523,3.4345 -20.0836,11.1333 -32.7364,17.1086 -30.1201,14.2241 -42.784,15.5302 -68.4123,7.056 -17.879,-5.9118 -46.7478,-18.8095 -56.6498,-25.3092 -5.4002,-3.5448 -5.9855,-3.3246 -64.57,24.2927 -72.1168,33.9965 -73.5639,35.203 -82.1176,68.4649 -7.2717,28.2767 -39.9143,44.4001 -64.8759,32.0446 z m 25.6923,-14.3949 c 1.4303,0 6.4545,-3.2988 11.1649,-7.3307 6.7277,-5.7586 9.1229,-9.6996 11.1682,-18.3762 4.0119,-17.0198 10.411,-29.0655 20.8533,-39.2547 7.6538,-7.4682 19.916,-14.1868 62.0357,-33.9898 28.8729,-13.575 53.3825,-26.0755 54.4657,-27.779 2.5317,-3.9815 -7.8815,-18.1785 -13.3336,-18.1785 -2.0899,0 -28.7401,11.9046 -59.2227,26.4547 -66.1607,31.5802 -67.926,31.9746 -98.6933,22.0522 -13.094,-4.2228 -24.4643,-6.5043 -32.4145,-6.5043 -20.38664,0 -39.12965,12.0547 -35.67354,22.9438 1.84098,5.8003 11.11655,12.7584 17.00775,12.7584 4.07737,0 4.94317,-1.2415 5.49221,-7.8755 0.56181,-6.788 1.43118,-7.9655 6.29576,-8.5273 8.31402,-0.9603 10.87482,4.8344 17.45782,39.5042 3.1802,16.7485 7.1514,32.6539 8.825,35.3452 3.377,5.4306 14.8297,11.243 19.1739,9.731 1.5383,-0.5354 3.9672,-0.9735 5.3974,-0.9735 z m 556.2912,-0.7247 c 3.7169,-1.5537 7.9055,-4.2086 9.3079,-5.8998 1.4025,-1.6912 5.893,-18.9413 9.9791,-38.3335 4.086,-19.3923 7.956,-36.1111 8.5999,-37.1529 1.6893,-2.7333 10.1486,-2.3292 13.1038,0.6259 1.3861,1.3861 2.5202,5.1105 2.5202,8.2766 0,3.166 0.9173,6.3233 2.0385,7.0162 3.1182,1.9272 14.2883,-4.6358 18.2933,-10.7482 3.1672,-4.8337 3.2287,-6.055 0.5448,-10.8211 -1.6639,-2.9548 -7.2781,-7.5446 -12.476,-10.1995 -13.6615,-6.9777 -29.3068,-6.5293 -54.3869,1.559 -30.9286,9.9744 -32.2867,9.663 -101.025,-23.168 -31.7649,-15.1716 -59.7402,-28.0917 -62.1674,-28.7113 -4.9851,-1.2725 -15.5385,9.4097 -15.5385,15.7281 0,2.6797 14.1903,10.4249 54.0791,29.5171 60.3952,28.9072 69.1449,34.1762 77.9102,46.9174 6.3751,9.2668 12.9218,26.0288 12.9218,33.0847 0,5.8955 14.0122,20.5989 21.7749,22.8489 3.6175,1.0486 6.8439,1.9917 7.1697,2.0959 0.3259,0.1041 3.6337,-1.0818 7.3506,-2.6355 z m -245.5727,-112.282 c 31.9714,-15.7074 51.9033,-32.8291 62.1966,-53.4277 6.1032,-12.2134 6.3701,-13.8802 6.3701,-39.7797 0,-29.93869 -0.917,-31.89215 -12.2259,-26.04415 -11.0442,5.71108 -15.0762,12.91492 -15.0762,26.93635 0,7.1911 -1.4477,15.5761 -3.3994,19.689 -6.9544,14.6551 -34.4992,30.2028 -63.7002,35.9556 -15.591,3.0716 -18.2806,3.0547 -34.9447,-0.2195 -30.2322,-5.94 -57.6992,-21.0482 -64.5633,-35.513 -2.1409,-4.5115 -3.5053,-12.6271 -3.5053,-20.8493 0,-14.88039 -2.0449,-18.38445 -15.6272,-26.77865 -6.3411,-3.91895 -8.1346,-4.2435 -10.8761,-1.96824 -2.756,2.28721 -3.1591,7.29261 -2.5117,31.18489 0.9327,34.4145 3.2028,39.9165 25.6415,62.148 16.7774,16.6225 35.8493,27.6271 64.2781,37.089 26.5005,8.8201 34.9893,7.7678 67.9437,-8.4226 z m -21.0673,-56.0437 c 14.96,-3.8965 26.3956,-9.64 36.0216,-18.0916 6.6715,-5.8576 7.4101,-7.5809 7.4206,-17.3132 0.017,-15.69741 3.7311,-26.69178 11.4469,-33.88498 3.7315,-3.47872 20.7905,-14.75858 37.909,-25.06638 35.567,-21.41647 43.5764,-27.81473 49.9014,-39.86336 5.728,-10.91155 6.0007,-34.03688 0.7204,-61.10262 l -3.6874,-18.90117 5.4031,-23.9087 c 8.7688,-38.80181 7.1581,-50.40125 -9.5095,-68.4832 l -8.9325,-9.69042 6.8094,-6.71242 6.8094,-6.71241 9.3035,10.50065 c 12.5583,14.17413 17.5812,25.12931 19.131,41.72534 1.8388,19.69143 6.1324,18.21615 12.3796,-4.25365 4.7215,-16.98207 2.988,-25.07372 -8.0615,-37.62933 -10.6604,-12.1134 -81.4393,-75.38009 -99.1822,-88.65527 -45.2946,-33.8894 -103.9338,-40.77178 -163.5602,-19.19674 -9.9113,3.58626 -23.4734,10.04916 -30.138,14.36199 -17.1396,11.09146 -104.0241,94.53897 -108.7066,104.40639 -3.2515,6.85195 -3.4438,9.59873 -1.43,20.42736 2.4666,13.26276 10.3507,31.16286 14.237,32.32333 1.5116,0.45136 2.708,-5.4516 3.4209,-16.87879 1.2865,-20.62136 6.0673,-32.9431 18.5803,-47.88836 9.1745,-10.9577 16.7801,-14.52366 21.9051,-10.27035 5.1845,4.30262 3.5467,11.3474 -4.4151,18.99158 -18.6362,17.89288 -21.3637,34.94161 -12.298,76.87174 5.2017,24.05854 5.2654,25.26196 2.0844,39.34787 -8.5946,38.0575 -6.3157,58.92078 8.0436,73.63625 4.7619,4.88005 23.7792,17.91999 42.2606,28.97764 18.4814,11.05762 35.666,22.31295 38.188,25.01183 6.6885,7.15752 9.0656,15.03933 9.0656,30.05868 0,12.3644 0.4769,13.7287 6.5999,18.8807 21.867,18.3997 55.0888,26.0638 82.2797,18.9816 z m -49.8476,-45.3379 c -11.5156,-3.2862 -12.6089,-11.89854 -3.5448,-27.92104 3.3468,-5.91596 7.827,-16.36417 9.956,-23.21826 11.3305,-36.47624 38.9754,-35.16103 51.2221,2.43686 2.5484,7.82395 7.3582,18.56087 10.6885,23.85981 7.1586,11.39062 7.4958,15.17623 1.8545,20.81743 -5.041,5.041 -19.3574,5.5916 -27.302,1.0501 -6.6226,-3.78581 -12.1947,-3.88441 -18.9937,-0.3362 -7.7512,4.0451 -16.8758,5.3104 -23.8806,3.3113 z m -82.0853,-93.41734 c -10.7163,-5.54642 -21.4571,-17.66774 -27.4106,-30.93382 -7.4286,-16.55272 -7.8373,-27.82211 -1.2039,-33.19342 4.4421,-3.59691 8.6843,-3.98582 43.0232,-3.94425 32.9724,0.0399 39.2856,0.5865 46.9469,4.0644 12.1226,5.50322 13.6255,12.02896 6.0863,26.42837 -7.3837,14.10252 -24.4094,33.09984 -33.5532,37.43879 -9.1122,4.324 -25.6725,4.39236 -33.8887,0.13987 z m 181.3547,-0.94571 c -9.9272,-5.24484 -25.6849,-23.26289 -32.5505,-37.21968 -7.1226,-14.47907 -5.6975,-20.46031 6.1568,-25.8417 7.6702,-3.48202 13.9793,-4.02444 47.2749,-4.0644 l 38.4234,-0.0462 5.3995,5.39944 c 4.6566,4.65655 5.2119,6.57265 4.036,13.92655 -3.1536,19.72135 -19.2769,43.00461 -34.0561,49.17967 -9.7659,4.08038 -25.588,3.47195 -34.684,-1.33375 z m 128.3065,77.23678 62.7139,-32.00226 16.7924,-0.76258 c 15.6529,-0.71081 17.95,-0.23986 33.8537,6.94078 29.8761,13.48922 37.7245,12.13247 39.5472,-6.83657 0.5689,-5.92054 0.4529,-12.27993 -0.2578,-14.13195 -1.169,-3.04615 -1.8995,-3.00858 -7.6596,0.39394 -4.8539,2.86725 -7.229,3.21988 -9.9924,1.48356 -3.0228,-1.89938 -3.8113,-6.77605 -4.7471,-29.35934 -0.6612,-15.95446 -2.2237,-29.06439 -3.803,-31.90742 -3.3475,-6.02605 -11.4725,-9.25082 -18.8474,-7.48037 -13.7958,3.31192 -21.3951,9.45831 -36.6126,29.6129 -8.5113,11.2726 -19.9794,23.90362 -25.4848,28.06891 -5.5053,4.16532 -33.1542,18.28435 -61.4419,31.37561 -28.2877,13.09127 -52.3145,25.45089 -53.3929,27.46582 -2.1996,4.10995 -2.641,20.72444 -0.6859,25.81924 0.7011,1.8271 2.6314,3.322 4.2896,3.322 1.6581,0 31.236,-14.401 65.7286,-32.00227 z m -334.2331,25.28187 c 3.9627,-3.9627 3.1673,-23.58104 -1.1551,-28.49186 -2.0214,-2.29657 -23.962,-13.50572 -48.7569,-24.9092 -24.7949,-11.40345 -49.6235,-24.31572 -55.1747,-28.69389 -5.5513,-4.37818 -16.6778,-16.8757 -24.7256,-27.77224 -14.8602,-20.12026 -22.4679,-26.08992 -37.3408,-29.30079 -15.81175,-3.41357 -21.41101,7.887 -21.42955,43.24987 -0.0126,25.92075 -1.91684,29.61369 -13.08881,25.39681 -3.54194,-1.33692 -7.35338,-1.86617 -8.46989,-1.17615 -3.57483,2.20933 -0.54566,24.12308 3.77086,27.27936 5.93266,4.33799 10.35556,3.54464 32.15009,-5.76685 18.8546,-8.05547 21.1825,-8.55473 36.6194,-7.85371 l 16.4849,0.74859 58.1429,29.82609 c 31.9786,16.40437 58.6627,29.86167 59.298,29.90507 0.6353,0.043 2.2891,-1.0551 3.6752,-2.4411 z"
           id="path10547" />
      </g>
    </g>
  </g>
</svg>
