<?xml version="1.0" encoding="UTF-8" standalone="no"?>
<svg
   xmlns:dc="http://purl.org/dc/elements/1.1/"
   xmlns:cc="http://creativecommons.org/ns#"
   xmlns:rdf="http://www.w3.org/1999/02/22-rdf-syntax-ns#"
   xmlns:svg="http://www.w3.org/2000/svg"
   xmlns="http://www.w3.org/2000/svg"
   xmlns:sodipodi="http://sodipodi.sourceforge.net/DTD/sodipodi-0.dtd"
   xmlns:inkscape="http://www.inkscape.org/namespaces/inkscape"
   width="24"
   height="24"
   viewBox="0 0 24 24"
   version="1.1"
   id="svg5"
   inkscape:version="1.0.2 (e86c870879, 2021-01-15)"
   sodipodi:docname="trans.e1.3.svg">
  <metadata
     id="metadata19">
    <rdf:RDF>
      <cc:Work
         rdf:about="">
        <dc:format>image/svg+xml</dc:format>
        <dc:type
           rdf:resource="http://purl.org/dc/dcmitype/StillImage" />
      </cc:Work>
    </rdf:RDF>
  </metadata>
  <defs
     id="defs17" />
  <sodipodi:namedview
     pagecolor="#ffffff"
     bordercolor="#666666"
     borderopacity="1"
     objecttolerance="10"
     gridtolerance="10"
     guidetolerance="10"
     inkscape:pageopacity="0"
     inkscape:pageshadow="2"
     inkscape:window-width="1360"
     inkscape:window-height="687"
     id="namedview15"
     showgrid="false"
     inkscape:zoom="9.9849213"
     inkscape:cx="27.503082"
     inkscape:cy="15.121828"
     inkscape:window-x="0"
     inkscape:window-y="26"
     inkscape:window-maximized="1"
     inkscape:current-layer="g9127" />
  <g
     inkscape:label="Capa 1"
     inkscape:groupmode="layer"
     id="layer1"
     transform="translate(15.946791,28.864379)">
    <g
       id="g4409"
       transform="matrix(0.12812239,0,0,0.12708914,-207.56124,-4.2074214)" />
    <g
       id="g9127"
       transform="matrix(0.12598244,0,0,0.12598425,-174.2406,-23.711568)">
      <g
         id="g11021"
         transform="matrix(0.12640441,0,0,0.12664147,-448.45015,72.847799)">
        <g
           id="g12863"
           transform="matrix(0.1257128,0,0,0.1257128,12322.551,-856.78042)">
          <path
             style="fill:#facf9f;stroke-width:16.5989"
             d="M 12258.911,8649.9701 C 10632.648,7027.4829 9286.5681,5678.732 9267.6236,5652.7459 l -34.4443,-47.2476 2955.5517,-2951.266 c 1625.553,-1623.1964 2976.853,-2966.73678 3002.888,-2985.64546 l 47.337,-34.37942 L 18195.8,2584.184 c 1626.264,1622.4872 2972.343,2971.2381 2991.288,2997.2243 l 34.444,47.2476 -2955.552,2951.266 c -1625.553,1623.1961 -2976.853,2966.7371 -3002.888,2985.6451 l -47.337,34.38 z"
             id="path12877" />
          <path
             style="fill:#f7ab59;stroke-width:16.5989"
             d="M 12240.844,8597.8862 9254.367,5617.0079 12240.809,2636.199 c 1642.544,-1639.44507 2986.489,-2980.80915 2986.547,-2980.80915 0.133,0 5972.953,5961.55155 5972.953,5961.68725 0,0.1161 -5972.805,5961.6869 -5972.919,5961.6869 -0.03,0 -1343.984,-1341.395 -2986.546,-2980.8778 z"
             id="path12875" />
          <path
             style="fill:#f59227;stroke-width:16.5989"
             d="M 12253.34,8577.1916 9279.3585,5608.7854 12245.032,2648.6709 c 1631.121,-1628.0629 2973.151,-2960.1145 2982.289,-2960.1145 21.748,0 5939.759,5906.814 5939.759,5928.5207 0,16.295 -5915.149,5928.5209 -5931.452,5928.5209 -4.569,0 -1346.599,-1335.783 -2982.288,-2968.4064 z"
             id="path12873" />
          <path
             style="fill:#c9781f;stroke-width:16.5989"
             d="M 12556.537,8282.8191 C 11096.746,6825.7605 9902.3717,5622.4278 9902.3717,5608.7466 c 0,-27.0297 5314.4573,-5339.77558 5341.4953,-5339.77558 21.692,0 5341.702,5309.82178 5341.702,5331.47158 0,27.139 -5322.712,5331.5744 -5349.945,5331.5744 -13.707,0 -1219.296,-1192.1393 -2679.087,-2649.1979 z m 7729.969,-2682.2843 c 0,-21.6838 -5020.77,-5033.06484 -5042.495,-5033.06484 -21.725,0 -5042.576,5011.29944 -5042.576,5032.98284 0,9.121 1134.561,1149.0231 2521.247,2533.1158 l 2521.247,2516.5324 2521.289,-2516.4914 c 1386.708,-1384.0705 2521.288,-2523.954 2521.288,-2533.0748 z m -5173.109,4515.4392 c -5.608,-20.898 -10.299,-181.3077 -10.424,-356.4664 l -0.227,-318.4703 -112.149,-4.9035 -112.148,-4.9036 -5.22,-72.7319 c -2.87,-40.0027 1.13,-79.0697 8.892,-86.8157 7.76,-7.7461 54.227,-21.6774 103.259,-30.9585 104.465,-19.7741 127.724,-36.0708 159.367,-111.6609 23.24,-55.5143 24.398,-56.0096 119.496,-51.0698 l 96.03,4.9881 v 530.6648 530.6647 l -118.339,4.83 c -111.228,4.539 -118.952,2.546 -128.537,-33.167 z m -150.036,-1627.0116 c -71.535,-60.41 -70.539,-71.1392 17.365,-186.9601 21.421,-28.2234 38.947,-59.4093 38.947,-69.3022 0,-9.8929 -41.476,-30.0215 -92.168,-44.7304 -50.692,-14.7089 -96.245,-37.3483 -101.228,-50.3098 -11.941,-31.0585 40.262,-186.5673 65.617,-195.4709 10.881,-3.821 53.429,3.0863 94.55,15.3493 116.387,34.7085 116.302,34.77 116.302,-84.5525 0,-121.3871 17.743,-141.5412 124.61,-141.5412 108.544,0 124.609,19.3177 124.609,149.8329 0,63.5247 6.537,115.4995 14.526,115.4995 7.989,0 46.312,-11.1937 85.162,-24.8749 113.169,-39.8529 126.966,-34.7319 158.044,58.6582 15.289,45.9431 23.72,94.1379 18.737,107.0996 -4.983,12.9615 -50.536,35.6009 -101.228,50.3098 -50.692,14.7089 -92.168,33.8561 -92.168,42.5497 0,8.6935 26.168,53.7761 58.151,100.1837 31.984,46.4076 58.152,90.3755 58.152,97.7063 0,24.2605 -128.772,115.6157 -162.969,115.6157 -21.143,0 -56.457,-31.1101 -95.366,-84.0146 -33.983,-46.2079 -66.935,-77.9234 -73.224,-70.4789 -6.29,7.4446 -35.824,45.2511 -65.632,84.0145 -66.134,86.0035 -103.615,89.0322 -190.789,15.4163 z"
             id="path12871"
             sodipodi:nodetypes="sssssssssscsssscccssssscccsssssssssssssssssssssssss" />
          <path
             style="fill:#9d5d18;stroke-width:16.5989"
             d="M 12573.152,8266.2358 C 11113.361,6809.1772 9918.9863,5609.5528 9918.9863,5600.4036 c 0,-9.1492 1195.2417,-1209.5353 2656.0937,-2667.5247 2329.961,-2325.39625 2659.939,-2648.76039 2687.414,-2633.54711 44.666,24.73274 5306.46,5281.41411 5306.46,5301.30461 0,21.6155 -5303.366,5314.7966 -5325.023,5314.7966 -9.138,0 -1210.989,-1192.1386 -2670.779,-2649.1972 z M 20303.12,5600.5346 c 0,-21.6838 -5037.384,-5049.64792 -5059.109,-5049.64792 -27.192,0 -5059.191,5030.76772 -5059.191,5057.95302 0,13.7334 1136.464,1159.1986 2525.476,2545.4782 l 2525.476,2520.5081 2533.674,-2528.8539 C 19162.967,6755.1023 20303.12,5609.6554 20303.12,5600.5346 Z m -5154.684,4534.1564 c -26.191,-15.226 -29.075,-50.547 -29.075,-356.036 v -339.1331 l -78.92,-0.2256 c -137.47,-0.3946 -153.685,-10.1642 -153.685,-92.5998 0,-61.9214 5.399,-73.3876 37.383,-79.3884 153.333,-28.7684 169.94,-36.2449 206.836,-93.1178 59.639,-91.9297 69.459,-99.4996 129.078,-99.4996 108.88,0 108.527,-1.7522 108.527,538.9564 0,549.4069 2.271,539.3519 -121.643,538.4519 -38.184,-0.277 -82.509,-8.11 -98.501,-17.407 z m -166.443,-1649.3052 c -34.104,-23.1309 -62.008,-47.4836 -62.008,-54.1171 0,-6.6334 26.75,-51.7069 59.444,-100.1633 32.694,-48.4563 55.804,-97.5683 51.356,-109.1378 -4.448,-11.5697 -42.27,-30.5882 -84.05,-42.2637 -103.146,-28.8248 -116.697,-48.3873 -91.549,-132.1657 28.512,-94.984 46.61,-105.4454 131.003,-75.7257 127.05,44.7412 133.172,40.6342 133.172,-89.3442 0,-125.6022 7.099,-134.4404 107.995,-134.4404 100.766,0 107.995,8.9334 107.995,133.4617 0,62.3315 6.093,117.089 13.541,121.6834 7.448,4.5944 52.658,-3.0918 100.468,-17.0801 47.809,-13.9885 96.373,-21.8152 107.92,-17.3926 11.546,4.4226 30.35,39.2114 41.786,77.3086 25.636,85.4027 12.446,104.7614 -91.09,133.695 -41.78,11.6755 -79.555,30.5725 -83.946,41.9934 -4.391,11.4209 20.366,63.3826 55.016,115.4703 l 62.999,94.7049 -49.35,39.8467 c -80.532,65.025 -123.586,68.399 -164.073,12.8581 -19.144,-26.2624 -50.505,-65.9848 -69.69,-88.2721 l -34.882,-40.522 -64.198,85.8292 c -35.31,47.2061 -75.821,85.8294 -90.025,85.8294 -14.204,0 -53.729,-18.9252 -87.834,-42.056 z"
             id="path12869"
             sodipodi:nodetypes="ssssssssssscsssscsssssssssssssssssssssssssscssscsss" />
          <path
             style="fill:#55320c;stroke-width:16.5989"
             d="M 12581.459,8257.9442 C 11126.237,6805.4458 9935.6009,5609.5756 9935.6009,5600.4548 c 0,-9.1208 1191.4731,-1205.7918 2647.7191,-2659.2688 2325.161,-2320.74137 2651.542,-2640.56841 2679.106,-2625.30695 44.708,24.75354 5289.914,5264.84715 5289.914,5284.75785 0,21.6153 -5286.752,5298.2131 -5308.409,5298.2131 -9.138,0 -1207.25,-1188.4077 -2662.472,-2640.9058 z m 7738.276,-2657.4098 c 0,-21.6838 -5054,-5066.23099 -5075.724,-5066.23099 -27.192,0 -5075.805,5047.35099 -5075.805,5074.53589 0,13.7335 1140.202,1162.93 2533.783,2553.7703 l 2533.783,2528.8004 2541.981,-2537.1461 c 1398.09,-1395.4304 2541.982,-2544.6087 2541.982,-2553.7295 z M 15143.871,10115.29 c -4.222,-11.401 -9.595,-169.9782 -11.94,-352.3943 l -4.263,-331.6655 -107.995,-8.2916 -107.995,-8.2916 v -65.8741 c 0,-64.4418 1.519,-66.1329 69.839,-77.7741 97.442,-16.6033 132.054,-38.5652 179.831,-114.1057 34.615,-54.7302 50.567,-65.62 96.122,-65.62 30.041,0 63.592,8.955 74.558,19.8999 28.467,28.4142 28.467,976.532 0,1004.946 -26.802,26.752 -178.191,26.084 -188.157,-0.829 z m -147.026,-1633.2774 c -33.135,-23.5314 -60.245,-49.9207 -60.245,-58.643 0,-8.7224 26.168,-51.4396 58.151,-94.9271 31.983,-43.4875 58.151,-90.5281 58.151,-104.5345 0,-16.0788 -32.153,-35.8783 -87.227,-53.7122 -47.974,-15.5354 -94.089,-34.5518 -102.477,-42.2587 -16.566,-15.2211 14.537,-140.221 38.58,-155.0528 7.759,-4.7859 53.162,2.8745 100.896,17.0234 47.734,14.1487 96.904,21.8508 109.267,17.1154 15.113,-5.7882 24.095,-45.5575 27.41,-121.3648 l 4.932,-112.7555 h 83.073 83.073 l 8.307,118.9017 c 4.569,65.3958 13.509,124.0693 19.868,130.3854 6.358,6.3162 46.942,-0.5489 90.186,-15.2562 118.554,-40.319 135.011,-36.1371 157.902,40.1254 23.724,79.0331 18.605,85.4886 -97.656,123.1367 -55.544,17.9863 -87.227,37.5836 -87.227,53.9535 0,14.139 26.168,62.0627 58.151,106.4968 31.983,44.4342 58.151,87.2431 58.151,95.1307 0,7.8877 -29.665,33.9356 -65.922,57.8841 l -65.922,43.5431 -34.867,-37.1935 c -19.176,-20.4565 -49.934,-61.4465 -68.349,-91.0891 -18.416,-29.6426 -40.237,-53.8956 -48.491,-53.8956 -8.253,0 -43.157,36.7865 -77.564,81.7477 -34.407,44.9612 -70.961,85.4097 -81.231,89.8855 -10.271,4.4758 -45.785,-11.1151 -78.92,-34.6464 z"
             id="path12867"
             sodipodi:nodetypes="sscsssssssscsssscccssssssssssssssssscccssssssssscssssss" />
          <path
             style="fill:#070401;stroke-width:16.5989"
             d="M 12585.632,8245.5261 9943.9474,5608.7854 12585.632,2972.0448 C 14038.558,1521.8374 15234.811,335.30411 15243.97,335.30411 c 9.16,0 1205.389,1186.50989 2658.287,2636.68879 l 2641.632,2636.6886 -2641.581,2636.7927 c -1452.869,1450.2359 -2649.098,2636.7928 -2658.286,2636.7928 -9.188,0 -1205.464,-1186.5335 -2658.39,-2636.7409 z m 5212.815,-78.7501 c 1395.846,-1393.1913 2537.903,-2544.287 2537.903,-2557.9906 0,-27.1494 -5065.264,-5091.06527 -5092.42,-5091.06527 -9.138,0 -1164.227,1145.46547 -2566.864,2545.47877 l -2550.249,2545.4789 2550.195,2545.5864 c 1402.608,1400.0726 2557.696,2545.5868 2566.864,2545.5868 9.167,0 1158.724,-1139.884 2554.571,-2533.075 z m -2637.61,1932.847 c -4.415,-11.905 -9.947,-170.8945 -12.291,-353.3105 l -4.263,-331.6655 -107.995,-8.2917 c -107.723,-8.2707 -108.009,-8.4273 -113.202,-62.1872 -4.927,-51.0026 -2.251,-53.897 49.844,-53.9214 75.206,-0.033 161.224,-47.8182 193.998,-107.7656 36.121,-66.0699 51.258,-75.7685 110.271,-70.6534 l 49.844,4.3203 v 497.4983 497.4987 l -79.089,5.061 c -53.696,3.436 -81.666,-1.888 -87.117,-16.583 z m -166.182,-1642.6815 -43.485,-37.334 68.957,-96.1156 c 37.927,-52.8637 65.418,-105.3227 61.091,-116.5755 -4.326,-11.2529 -49.595,-33.5889 -100.598,-49.6357 -51.002,-16.0468 -96.963,-36.0089 -102.134,-44.3601 -5.171,-8.3512 1.57,-41.3943 14.981,-73.4291 l 24.382,-58.2451 94.944,32.6039 c 124.986,42.9207 139.797,30.3555 139.797,-118.6034 v -114.0525 h 74.766 74.765 l 0.255,111.9371 c 0.358,157.6803 7.427,164.9205 128.047,131.1401 53.997,-15.122 102.561,-27.4946 107.921,-27.4946 14.898,0 47.01,101.3997 37.153,117.3185 -4.771,7.705 -50.404,27.1384 -101.406,43.1852 -51.003,16.0468 -96.272,38.3828 -100.598,49.6357 -4.327,11.2528 23.165,63.7118 61.091,116.5755 l 68.957,96.1156 -43.485,37.334 c -23.917,20.5335 -53.582,37.3337 -65.922,37.3337 -12.341,0 -49.294,-37.3123 -82.119,-82.9163 -32.825,-45.6041 -70.273,-82.9164 -83.217,-82.9164 -12.944,0 -50.976,37.3123 -84.515,82.9164 -33.54,45.604 -71.143,82.9163 -83.562,82.9163 -12.419,0 -42.149,-16.8002 -66.066,-37.3337 z"
             id="path12865"
             sodipodi:nodetypes="scssscssssssscssssscssssscccssscssssscsscccssssssscsssssss" />
        </g>
      </g>
      <text
         xml:space="preserve"
         style="font-style:normal;font-weight:normal;font-size:42.3336px;line-height:1.25;font-family:sans-serif;letter-spacing:0px;word-spacing:0px;fill:#000000;fill-opacity:1;stroke:none;stroke-width:7.93756"
         x="1317.3529"
         y="43.920868"
         id="text23"><tspan
           sodipodi:role="line"
           id="tspan21"
           x="1317.3529"
           y="43.920868"
           style="font-size:42.3336px;stroke-width:7.93756">1.3</tspan></text>
    </g>
  </g>
</svg>
