<?xml version="1.0" encoding="UTF-8" standalone="no"?>
<!-- Created with Inkscape (http://www.inkscape.org/) -->

<svg
   width="24"
   height="24"
   viewBox="0 0 24 24"
   version="1.1"
   id="svg5"
   inkscape:version="1.1.1 (3bf5ae0d25, 2021-09-20)"
   sodipodi:docname="trans.e.1.1.svg"
   xmlns:inkscape="http://www.inkscape.org/namespaces/inkscape"
   xmlns:sodipodi="http://sodipodi.sourceforge.net/DTD/sodipodi-0.dtd"
   xmlns="http://www.w3.org/2000/svg"
   xmlns:svg="http://www.w3.org/2000/svg">
  <g
     inkscape:label="Capa 1"
     inkscape:groupmode="layer"
     id="layer1"
     transform="translate(15.946791,28.864379)">
    <g
       id="g4409"
       transform="matrix(0.12812239,0,0,0.12708914,-207.56124,-4.2074214)" />
    <g
       id="g9127"
       transform="matrix(0.12598244,0,0,0.12598425,-174.2406,-23.711568)">
      <g
         id="g11021"
         transform="matrix(0.12640441,0,0,0.12664147,-448.45015,72.847799)">
        <g
           id="g12146"
           transform="matrix(0.12630028,0,0,0.12612503,12392.977,-829.87426)">
          <path
             style="fill:#f7aa56;stroke-width:16.5989"
             d="M 11604.479,8302.399 C 9974.0168,6675.6334 8632.165,5330.5449 8622.5865,5313.3134 c -15.297,-27.5192 346.0727,-394.1365 2970.8675,-3014.0102 L 14581.736,-683.37706 17568.23,2297.4494 c 1642.572,1639.4543 2986.494,2988.2472 2986.494,2997.3171 0,19.8966 -5909.738,5923.2825 -5954.438,5948.0385 -27.49,15.224 -394.583,-345.08 -2995.807,-2940.406 z"
             id="path12160" />
          <path
             style="fill:#f59226;stroke-width:16.5989"
             d="M 11607.76,8255.0138 8633.7735,5286.6019 11599.447,2326.4873 c 1631.121,-1628.06294 2973.166,-2960.11449 2982.324,-2960.11449 9.157,0 1351.205,1332.05416 2982.329,2960.12029 l 2965.679,2960.1204 -2974.016,2968.4061 -2974.016,2968.4064 z"
             id="path12158" />
          <path
             style="fill:#ca781f;stroke-width:16.5989"
             d="M 11919.259,7952.344 C 10454.899,6490.7249 9256.7867,5287.3924 9256.7867,5278.2716 c 0,-21.7171 5319.9303,-5331.484174 5341.6883,-5331.484174 21.691,0 5341.509,5310.013574 5341.509,5331.664274 0,21.6161 -5319.98,5331.3813 -5341.637,5331.3813 -9.139,0 -1214.728,-1195.87 -2679.088,-2657.489 z m 5208.681,-149.2097 c 1382.139,-1379.5098 2512.981,-2515.6623 2512.981,-2524.7831 0,-21.6838 -5020.77,-5033.06483 -5042.495,-5033.06483 -9.138,0 -1151.194,1132.42123 -2537.903,2516.49153 L 9539.2351,5278.2694 12060.482,7794.8017 c 1386.686,1384.0929 2528.724,2516.5323 2537.862,2516.5323 9.138,0 1147.456,-1128.6898 2529.596,-2508.1997 z m -2786.102,1896.4443 c -10.658,-19.8771 -17.594,-160.4197 -17.594,-356.5182 V 9019.354 l -112.149,-4.9035 -112.148,-4.9035 -5.169,-71.7044 c -6.19,-85.8661 17.092,-119.0033 83.612,-119.0033 82.482,0 158.725,-46.2227 179.405,-108.7642 14.838,-44.8738 29.57,-58.0517 74.254,-66.4186 30.659,-5.7408 78.86,-5.3702 107.115,0.8241 l 51.371,11.2617 -4.382,533.4429 -4.382,533.4426 -111.17,4.8813 c -96.628,4.2427 -113.471,0.5887 -128.763,-27.9305 z M 14241.663,8255.467 c -54.503,-50.8176 -54.452,-53.8903 2.232,-135.6851 39.661,-57.2303 39.152,-59.2425 -18.191,-71.8131 -72.687,-15.9349 -92.572,-48.4125 -74.273,-121.3129 l 15.4,-61.3548 86.087,4.5526 86.087,4.5526 5.08,-79.1774 5.081,-79.1773 74.163,-5.2725 c 88.406,-6.2851 116.905,21.6715 116.905,114.6811 v 61.6114 l 56.689,-17.3655 c 75.031,-22.9844 105.051,-9.0462 122.77,57.0023 19.62,73.1333 10.663,91.1369 -56.319,113.2009 -64.757,21.3316 -69.3,40.5133 -23.452,99.0158 44.07,56.2349 41.645,72.9001 -17.89,122.9005 -67.448,56.6466 -85.74,54.3548 -140.752,-17.6345 l -46.284,-60.5666 -48.68,60.5666 c -26.774,33.3118 -58.379,60.5667 -70.234,60.5667 -11.854,0 -45.343,-22.1808 -74.419,-49.2908 z m -130.086,-982.1888 c -12.464,-12.441 -19.938,-74.2089 -19.938,-164.7902 v -144.8902 l -58.151,9.4188 c -56.949,9.2243 -58.151,8.2483 -58.151,-47.2179 0,-48.4328 13.498,-67.9644 93.184,-134.8361 101.003,-84.7613 123.326,-91.8949 163.156,-52.1397 21.248,21.2075 26.109,69.2679 26.109,258.131 0,128.2598 -7.694,246.4201 -17.199,264.1478 -19.493,36.3542 -97.418,43.7091 -129.01,12.1765 z m 265.834,0 c -10.966,-10.945 -19.938,-40.5324 -19.938,-65.7497 0,-54.2373 50.266,-87.835 109.29,-73.049 47.146,11.8106 67.794,74.1468 41.07,123.9875 -20.846,38.8783 -97.579,47.5923 -130.422,14.8112 z m 333.041,0.7479 c -13.362,-13.3375 -20.686,-72.1693 -20.686,-166.1661 v -145.5182 l -51.526,10.2856 c -51.879,10.3562 -80.57,-9.8808 -81.137,-57.2296 -0.344,-28.7247 164.955,-186.965 197.829,-189.3801 88.909,-6.5322 85.524,-18.336 80.613,281.0989 l -4.555,277.7698 -49.926,4.8934 c -27.459,2.6913 -59.234,-4.398 -70.612,-15.7541 z M 11985.129,5016.7445 c -20.226,-21.4889 -36.775,-46.5172 -36.775,-55.6184 0,-9.1011 220.188,-191.4508 489.307,-405.2215 269.119,-213.7705 489.678,-397.0881 490.131,-407.3724 3.032,-68.7765 -52.02,-45.7324 -446.594,186.9378 -223.235,131.636 -417.626,237.0808 -431.98,234.3216 -14.831,-2.8508 -26.098,-21.7267 -26.098,-43.7241 0,-33.0175 40.886,-60.8397 278.131,-189.2616 152.973,-82.8046 275.694,-152.9873 272.714,-155.9617 -2.98,-2.9742 -49.418,9.7022 -103.196,28.1697 -104.915,36.0278 -140.279,33.4526 -140.279,-10.2155 0,-22.9837 -11.367,-25.7006 -69.027,-16.4979 -87.686,13.9952 -108.587,26.9557 -74.331,46.0906 37.38,20.8792 34.191,91.4025 -5.081,112.3807 -55.5,29.6467 -105.672,18.9398 -160.7,-34.2942 l -53.194,-51.4609 -338.04,82.095 c -185.922,45.1523 -347.386,78.7049 -358.808,74.5616 -22.39,-8.1215 -28.821,-79.977 -8.291,-92.6407 6.862,-4.2332 322.747,-76.0777 701.967,-159.6545 764.208,-168.4248 820.668,-181.8273 810.159,-192.3164 -4.012,-4.0047 -46.585,0.1493 -94.606,9.2455 -194.874,36.8874 -1946.745,266.4603 -1961.921,257.0988 -30.388,-18.745 -17.083,-75.0237 21.024,-88.9289 20.561,-7.5026 186.914,-29.9433 369.675,-49.8679 428.074,-46.669 402.978,-40.3647 394.347,-99.0622 -5.8,-39.4425 3.205,-55.9142 50.078,-91.5986 31.433,-23.9295 64.891,-43.5082 74.351,-43.5082 9.461,0 60.529,33.5812 113.485,74.6248 52.955,41.0436 100.78,74.6247 106.276,74.6247 33.37,0 291.95,-36.3107 297.414,-41.764 3.649,-3.6425 -16.733,-26.249 -45.295,-50.2367 -28.561,-23.9875 -51.93,-53.6868 -51.93,-65.9984 0,-29.1828 -71.19,-37.2688 -440.237,-50.0031 -166.261,-5.737 -308.256,-17.9739 -319.832,-27.5629 -11.45,-9.4848 -20.818,-31.2563 -20.818,-48.381 0,-38.7701 56.655,-39.5486 512.349,-7.0401 225.269,16.0702 335.871,17.8434 370.1,5.9333 36.493,-12.6975 68.638,-10.671 127.314,8.0258 43.172,13.7565 209.334,34.3612 369.25,45.7879 200.587,14.3331 315.421,30.2678 370.29,51.383 43.744,16.8337 82.747,30.6067 86.672,30.6067 10.169,0 181.715,-152.2618 187.545,-166.4625 2.665,-6.4901 -26.159,-24.1821 -64.052,-39.3157 -75.742,-30.2485 -135.646,-22.3625 -120.928,15.9195 12.114,31.5072 -16.677,30.4175 -82.37,-3.1175 l -53.172,-27.1437 32.531,36.4059 c 39.448,44.148 19.318,89.8398 -42.909,97.3913 -60.258,7.3127 -781.683,-108.9044 -802.016,-129.1996 -25.728,-25.6796 9.354,-73.6296 58.105,-79.417 21.923,-2.6026 188.062,29.1129 369.197,70.4789 181.135,41.366 334.405,74.7929 340.6,74.2818 6.194,-0.5108 -95.312,-52.2239 -225.569,-114.9174 -227.967,-109.7221 -277.794,-148.2542 -240.213,-185.7637 12.254,-12.2315 70.536,10.9303 194.488,77.2918 246.264,131.8456 248.443,115.8484 8.416,-61.788 -78.192,-57.8671 -109.333,-128.4754 -56.663,-128.4754 15.797,0 68.332,29.8499 116.745,66.3331 48.413,36.4832 91.644,66.3331 96.069,66.3331 4.426,0 31.904,-44.6778 61.064,-99.2841 68.13,-127.5841 186.475,-237.3837 327.356,-303.7183 103.18,-48.5829 124.39,-52.4979 277.894,-51.2949 l 166.188,1.3018 114.284,-449.271 c 146.52,-576.0003 141.947,-547.7966 76.194,-470 -28.908,34.203 -62.47,62.1873 -74.582,62.1873 -12.113,0 -31.054,-27.3136 -42.092,-60.6969 -11.038,-33.3833 -39.156,-77.0832 -62.483,-97.1107 -42.013,-36.0699 -42.188,-37.2585 -18.513,-125.8649 18.684,-69.9242 31.767,-90.5719 59.933,-94.5854 19.817,-2.8238 47.987,-23.3456 62.598,-45.604 44.909,-68.4096 130.965,-49.4913 167.418,36.8048 l 19.896,47.1 19.498,-74.6248 c 41.655,-159.4171 62.17,-176.5614 139.048,-116.2029 l 42.091,33.0463 69.435,-194.7333 c 38.19,-107.1034 99.645,-282.4175 136.568,-389.5869 62.865,-182.46953 69.911,-194.8495 110.857,-194.79145 55.192,0.0779 151.721,57.76065 151.721,90.66296 0,13.68366 -128.21,381.32009 -284.91,816.96999 -156.701,435.6505 -287.861,807.0162 -291.466,825.2578 -3.606,18.2416 72.457,-121.9863 169.027,-311.6175 96.571,-189.6313 186.667,-349.0294 200.214,-354.2181 29.56,-11.3217 107.747,36.3532 106.721,65.0741 -0.401,11.1907 -145.228,266.6085 -321.841,567.5949 l -321.114,547.2481 40.628,41.4582 40.629,41.4581 27.839,-39.6605 c 15.312,-21.8132 81.673,-92.7067 147.469,-157.5411 65.796,-64.8343 385.849,-408.917 711.229,-764.6283 325.38,-355.7112 604.948,-656.207 621.263,-667.7685 24.885,-17.6351 36.773,-15.4382 73.811,13.6411 24.282,19.0641 44.149,47.8654 44.149,64.0031 0,16.3226 -276.444,309.4159 -623.048,660.5721 -342.677,347.1769 -623.048,635.6619 -623.048,641.0777 0,28.1909 55.912,1.7236 136.843,-64.7778 49.95,-41.0436 99.407,-74.6247 109.904,-74.6247 30.43,0 22.155,65.755 -16.038,127.4353 -19.318,31.1988 -31.808,60.0355 -27.754,64.0813 4.053,4.0458 230.341,-149.3274 502.862,-340.8294 272.52,-191.502 500.915,-348.1855 507.544,-348.1855 32.36,0 53.071,54.6106 44.605,117.6113 -4.992,37.1492 -11.574,69.79 -14.627,72.5351 -16.911,15.2072 -1581.77,983.8774 -1655.538,1024.8017 -48.517,26.9163 -84.413,52.7323 -79.767,57.3689 14.469,14.4415 99.963,-22.3093 144.959,-62.3127 55.416,-49.2667 975.035,-483.3824 1010.002,-476.7816 33.408,6.3067 44.702,100.5305 14.899,124.2922 -11.89,9.479 -184.077,79.2705 -382.639,155.0922 -198.562,75.8217 -358.234,140.6403 -354.826,144.0412 3.407,3.4009 569.672,-139.7854 1258.365,-318.1916 688.694,-178.4063 1268.661,-324.3751 1288.815,-324.3751 61.357,0 100.104,117.9863 45.602,138.8613 -59.727,22.8763 -2977.628,676.6162 -3054.72,684.3938 l -84.925,8.5676 41.404,-33.449 c 22.772,-18.3968 41.464,-46.7939 41.537,-63.1045 0.08,-18.6383 71.117,-81.2604 191.2,-168.5597 105.088,-76.3972 193.643,-145.8567 196.789,-154.3545 3.147,-8.4977 1.725,-25.8462 -3.16,-38.5519 -7.383,-19.2015 -22.373,-17.967 -88.794,7.3122 -69.163,26.3226 -79.913,36.6528 -79.913,76.7963 0,39.2125 -8.539,48.1363 -55.237,57.7265 -38.215,7.8482 -103.026,56.6266 -210.315,158.2889 -261.359,247.6541 -311.725,289.8914 -335.034,280.9636 -12.354,-4.7317 -22.462,-4.8781 -22.462,-0.3252 0,11.6785 112.757,110.2534 159.249,139.2191 45.419,28.2975 70.959,12.9177 40.127,-24.1633 -29.557,-35.5464 -8.281,-50.5478 40.334,-28.439 58.611,26.6546 125.812,-28.1833 125.812,-102.6669 0,-68.1515 10.031,-77.8623 60.606,-58.67 28.32,10.747 84.259,5.9063 185.206,-16.0269 79.547,-17.2834 842.39,-149.209 1695.205,-293.1677 1310.957,-221.295 1552.908,-258.063 1565.673,-237.9269 21.333,33.6498 19.243,127.4085 -3.149,141.2208 -16.537,10.2014 -2012.554,288.0058 -2073.854,288.6376 -40.543,0.4179 -0.1,24.4931 154.7,92.0942 80.973,35.3603 150.7,73.3327 154.948,84.3828 4.248,11.0501 -4.918,39.3503 -20.371,62.8891 l -28.095,42.798 55.908,0.985 c 30.75,0.5423 337.68,10.4327 682.067,21.9801 655.205,21.9692 678.089,25.2522 678.089,97.2822 0,31.886 -7.428,32.8367 -178.607,22.8623 -98.234,-5.724 -440.288,-21.5323 -760.119,-35.1298 -641.664,-27.28 -1122.694,-51.8639 -1481.814,-75.7307 -348.934,-23.19 -370.716,-22.1617 -370.716,17.5007 0,18.2416 1.87,33.7582 4.154,34.4816 2.285,0.723 273.311,39.9012 602.28,87.0622 l 598.126,85.7471 5.078,69.8453 c 6.243,85.8698 -19.276,137.4592 -67.967,137.4039 -20.239,-0.017 -106.496,-18.6793 -191.683,-41.4582 -85.186,-22.7791 -157.653,-41.4164 -161.037,-41.4164 -3.384,0 -8.452,31.7155 -11.262,70.4789 -4.808,66.323 -8.048,70.4336 -54.953,69.7101 -27.414,-0.4229 -87.227,-6.1026 -132.917,-12.6219 l -83.073,-11.853 65.647,37.4968 c 36.106,20.6233 86.573,57.4444 112.149,81.8252 51.323,48.9246 62.521,113.2126 19.719,113.2126 -14.731,0 -131.316,-63.8459 -259.078,-141.8797 -127.762,-78.0339 -228.364,-135.5307 -223.559,-127.7709 4.805,7.7598 136.652,106.7916 292.994,220.0706 290.953,210.8121 318.436,242.6394 247.713,286.8663 -20.997,13.1308 -49.115,-0.2902 -128.763,-61.4629 -88.546,-68.006 -101.9,-73.7888 -101.9,-44.1265 0,21.5814 -10.798,34.1359 -29.361,34.1359 -16.148,0 -173.708,-115.8682 -350.133,-257.4849 l -320.773,-257.4847 -50.986,42.8209 c -134.433,112.9049 -342.859,171.4622 -504.282,141.6779 -115.252,-21.2653 -230.038,-71.2048 -309.418,-134.6171 -33.732,-26.9465 -67.689,-48.9936 -75.46,-48.9936 -15.826,0 -153.965,136.5783 -153.965,152.2252 0,5.5066 18.193,14.5695 40.429,20.14 71.797,17.9859 74.226,135.3404 3.819,184.5621 -47.206,33.002 -191.145,32.0085 -228.326,-1.5754 -26.756,-24.1688 -48.415,-8.1914 -297.85,219.7283 -147.947,135.1859 -281.618,247.9684 -297.046,250.6281 -15.429,2.6594 -44.6,-12.7465 -64.826,-34.2354 z m 2329.564,-901.8483 c 9.92,-32.8474 0.643,-38.1411 -114.218,-65.1683 -68.758,-16.1793 -130.097,-24.3441 -136.309,-18.1443 -14.216,14.1888 -17.927,11.4088 110.395,82.6832 110.945,61.6228 121.695,61.6711 140.132,0.6302 z m -1622.045,-197.9364 c 99.163,-9.1688 120.31,-16.0917 116.107,-38.0108 -7.308,-38.1201 -345.348,-49.8483 -345.348,-11.9818 0,13.3488 -12.941,37.1872 -28.758,52.9743 -27.267,27.2162 -24.469,28.1732 53.998,18.4663 45.515,-5.6305 137.316,-15.2821 204.001,-21.448 z m 2166.462,-149.0513 c -5.794,-57.9157 12.465,-77.2483 99.314,-105.1547 33.537,-10.7759 69.966,-30.4047 80.954,-43.6193 29.18,-35.093 -13.627,-32.2402 -490.837,32.7112 -228.451,31.0936 -462.719,61.7029 -520.597,68.0206 l -105.232,11.4866 42.155,43.8145 42.156,43.8146 h 428.598 428.598 z m -1159.407,-324.4607 c -12.71,-20.5277 -106.502,-17.4448 -106.502,3.5008 0,9.7204 8.116,32.8093 18.035,51.3086 17.956,33.4886 18.208,33.4733 57.639,-3.5007 21.782,-20.4248 35.655,-43.5137 30.828,-51.3087 z m -2109.612,1304.0028 c -54.72,-66.653 -60.421,-82.2879 -52.231,-143.2396 5.057,-37.6307 20.535,-79.7381 34.395,-93.5719 22.523,-22.481 29.492,-22.3448 65.618,1.2802 22.23,14.5384 56.375,22.2685 75.877,17.1781 19.503,-5.0904 57.837,0 85.188,11.304 37.577,15.5357 49.729,31.3228 49.729,64.6075 0,57.1091 -43.052,117.761 -83.589,117.761 -18.596,0 -42.591,20.7118 -57.636,49.7498 -14.176,27.3624 -32.559,49.7498 -40.851,49.7498 -8.291,0 -42.716,-33.6689 -76.5,-74.8196 z M 15454.038,3013.242 c -186.917,-23.9348 -188.258,-24.6462 -176.997,-93.9072 5.696,-35.0345 30.161,-80.8191 58.074,-108.6787 58.969,-58.8584 75.427,-52.3617 199.758,78.852 72.685,76.7081 84.779,97.5514 68.185,117.5082 -11.094,13.3431 -24.864,23.314 -30.598,22.1574 -5.735,-1.1558 -59.025,-8.3258 -118.422,-15.9317 z m 834.431,-424.9129 -87.681,-59.8885 -46.145,44.1269 c -55.44,53.0141 -89.048,55.1177 -161.965,10.1372 -66.3,-40.8981 -77.106,-69.9985 -57.526,-154.9053 20.116,-87.2286 43.732,-106.5101 148.969,-121.6266 l 89.8,-12.8991 27.782,-82.8928 c 40.618,-121.1898 74.446,-112.5472 162.366,41.4817 69.165,121.1725 70.876,127.7854 66.458,256.8573 -5.442,159.0161 -16.626,165.2834 -142.058,79.6092 z m -1878.242,-120.6718 c -48.706,-44.4026 -53.202,-56.0061 -43.365,-111.9371 18.094,-102.8857 59.685,-161.1818 119.16,-167.0195 75.79,-7.4391 111.501,53.9343 105.969,182.1182 -2.044,47.3625 -74.884,146.3761 -107.682,146.3761 -10.859,0 -44.195,-22.2919 -74.082,-49.5377 z"
             id="path12156" />
          <path
             style="fill:#9f5e18;stroke-width:16.5989"
             d="M 11927.567,7944.0522 C 10467.776,6486.9936 9273.4013,5287.3922 9273.4013,5278.2714 c 0,-9.1208 1195.2117,-1209.523 2656.0257,-2667.5607 2332.471,-2328.03649 2659.85,-2648.860089 2687.414,-2633.598452 44.709,24.7541362 5306.528,5281.429852 5306.528,5301.340552 0,21.6155 -5303.366,5314.7972 -5325.023,5314.7972 -9.138,0 -1210.989,-1192.1392 -2670.779,-2649.1978 z m 5208.68,-132.6264 c 1386.709,-1384.0703 2521.288,-2523.9538 2521.288,-2533.0748 0,-21.6838 -5037.384,-5049.64791 -5059.109,-5049.64791 -9.138,0 -1154.933,1136.15251 -2546.21,2524.78321 l -2529.5956,2524.7831 2529.5546,2524.824 c 1391.255,1388.6532 2537.031,2524.8236 2546.169,2524.8236 9.138,0 1151.195,-1132.4207 2537.903,-2516.4912 z m -2787.493,1882.1813 c -4.222,-11.401 -9.595,-169.9786 -11.939,-352.3946 l -4.264,-331.6655 -107.995,-8.2916 -107.995,-8.2917 v -73.314 -73.314 l 91.381,-18.3353 c 115,-23.0748 127.404,-31.1496 162.491,-105.7815 25.922,-55.1381 35.677,-61.4211 102.772,-66.1931 118.106,-8.4001 116.873,-13.9854 116.873,529.4588 0,262.0141 -4.538,488.1932 -10.085,502.6203 -12.889,33.5258 -219.045,38.4311 -231.239,5.5022 z m -97.785,-1446.964 c -46.354,-42.8791 -46.015,-46.7539 11.353,-129.402 36.402,-52.4426 31.673,-62.041 -43.112,-87.502 -58.672,-19.9753 -75.053,-65.9931 -44.065,-123.7865 16.737,-31.2152 28.312,-34.3103 92.424,-24.7142 l 73.29,10.9698 0.254,-63.2035 c 0.369,-91.6303 16.303,-107.6455 101.08,-101.5914 l 73.119,5.2216 5.122,80.1937 5.123,80.1937 80.034,-10.9869 c 78.842,-10.8229 80.314,-10.1894 98.713,42.49 22.356,64.0103 5.697,91.2455 -65.34,106.8183 -67.078,14.7051 -70.037,26.8863 -23.229,95.6398 51.748,76.0112 51.203,85.2072 -7.534,126.9526 -57.141,40.6106 -81.391,34.4124 -126.118,-32.2349 -18.276,-27.2328 -38.456,-49.5356 -44.845,-49.5618 -6.388,-0.033 -31.575,26.0709 -55.969,57.9937 -52.77,69.0547 -70.999,71.3645 -130.3,16.51 z m -131.638,-981.1039 c -6.093,-6.0804 -11.077,-80.7051 -11.077,-165.8327 0,-158.9263 -5.684,-170.658 -66.853,-137.9831 -24.963,13.3344 -35.151,9.873 -49.454,-16.803 -22.036,-41.0975 -12.475,-57.5322 84.936,-145.9912 140.754,-127.8191 164.288,-99.497 164.288,197.7102 0,125.1212 -4.538,239.297 -10.085,253.7241 -10.019,26.0588 -89.974,36.9162 -111.755,15.1757 z m 265.833,0 c -6.092,-6.0804 -11.076,-32.0569 -11.076,-57.7253 0,-36.3587 9.488,-49.0469 42.943,-57.4278 28.454,-7.128 51.603,-2.1132 68.612,14.8638 17.009,16.977 22.034,40.0826 14.892,68.4831 -8.397,33.3918 -21.109,42.8618 -57.536,42.8618 -25.717,0 -51.743,-4.975 -57.835,-11.0556 z m 332.293,0 c -6.092,-6.0804 -11.077,-80.7051 -11.077,-165.8327 0,-158.3902 -8.069,-175.3963 -65.901,-138.8886 -29.469,18.603 -67.11,-7.8445 -66.806,-46.9398 0.253,-32.5556 169.671,-184.5314 205.709,-184.5314 46.387,0 59.915,61.7832 59.915,273.6241 0,115.2093 -7.739,223.9057 -17.199,241.5476 -16.539,30.8443 -81.687,43.9316 -104.641,21.0208 z M 11992.065,5007.0845 c -15.343,-16.9226 -23.558,-41.1757 -18.254,-53.8957 5.304,-12.72 226.031,-194.7642 490.504,-404.5427 264.473,-209.7784 480.872,-389.5869 480.888,-399.5741 0.02,-9.9875 -13.599,-30.4685 -30.255,-45.5133 -28.549,-25.7877 -53.304,-13.5882 -432.235,213.0123 -221.074,132.2017 -413.052,240.3668 -426.619,240.3668 -40.159,0 -28.174,-45.0687 21.023,-79.0533 25.13,-17.3589 127.933,-74.8816 228.451,-127.8282 283.496,-149.3269 392.716,-210.9602 385.899,-217.7641 -3.444,-3.4379 -76.727,15.9445 -162.851,43.0717 -86.124,27.1274 -162.197,49.4543 -169.05,49.6155 -6.854,0.1658 -12.461,-15.5858 -12.461,-34.9932 0,-31.5444 -6.607,-34.1975 -62.305,-25.0203 -34.267,5.6461 -92.211,18.9233 -128.763,29.5048 l -66.459,19.2391 53.998,14.547 c 70.007,18.86 75.7,81.3219 10.13,111.1412 -38.338,17.4347 -49.275,15.1568 -86.75,-18.0673 -23.585,-20.9093 -51.812,-49.1729 -62.727,-62.8078 -17.354,-21.6805 -60.71,-14.6803 -345.574,55.7956 -179.151,44.3224 -338.373,81.5968 -353.825,82.8321 -44.478,3.5558 -45.634,-52.996 -1.475,-72.2181 39.291,-17.1035 842.215,-195.5462 1273.297,-282.9792 130.82,-26.5331 245.142,-52.7375 254.049,-58.2317 8.907,-5.4943 12.71,-22.4209 8.451,-37.6148 -4.258,-15.1938 -12.633,-51.8781 -18.61,-81.5207 -10.302,-51.0893 -8.313,-53.8957 38.207,-53.8957 26.991,0 80.861,11.1937 119.711,24.8749 110.671,38.9732 144.41,31.919 237.946,-49.7498 47.008,-41.0436 90.79,-74.6247 97.293,-74.6247 6.503,0 69.009,48.506 138.901,107.7912 69.893,59.2853 132.996,107.7913 140.23,107.7913 7.234,0 50.97,-24.253 97.19,-53.8956 71.416,-45.8014 84.805,-62.6126 89.143,-111.9371 7.833,-89.0353 54.966,-84.2636 157.494,15.9445 47.019,45.9552 93.809,83.5551 103.978,83.5551 10.168,0 26.947,18.5322 37.287,41.1826 22.253,48.7472 -26.431,38.7951 649.748,132.8242 290.419,40.3856 535.277,77.8957 544.129,83.3557 17.851,11.0121 21.745,106.6396 6.008,147.5714 -13.579,35.3202 -53.356,32.7875 -239.135,-15.2269 -198.354,-51.2647 -205.953,-51.5465 -181.932,-6.7471 25.012,46.6468 6.445,114.5384 -31.323,114.5384 -16.423,0 -72.804,-7.9235 -125.289,-17.6076 -153.08,-28.245 -163.626,-12.8844 -39.18,57.0663 104.489,58.733 145.12,98.4531 145.12,141.8671 0,9.7205 -8.394,17.6735 -18.653,17.6735 -14.769,0 -327.696,-185.8498 -695.776,-413.2257 -36.327,-22.4407 -39.051,-22.5053 -21.72,-0.5158 10.899,13.8287 195.721,151.7556 410.714,306.5044 379.667,273.2769 433.449,324.5272 367.195,349.9036 -14.683,5.6237 -68.44,-24.8497 -132.561,-75.1451 -59.323,-46.5327 -111.902,-84.6051 -116.842,-84.6051 -4.939,0 -4.289,18.6562 1.446,41.4582 7.438,29.5809 3.694,41.4582 -13.068,41.4582 -12.92,0 -157.655,-109.164 -321.632,-242.5868 -163.977,-133.4229 -307.309,-249.8582 -318.515,-258.7453 -14.209,-11.2687 -40.173,-0.5075 -85.8,35.5612 -35.983,28.4459 -109.057,71.9923 -162.386,96.7697 -82.057,38.1253 -118.669,44.9614 -238.185,44.4737 -156.533,-0.6385 -275.349,-42.2521 -398.415,-139.5388 -34.798,-27.5084 -69.669,-49.6764 -77.492,-49.2625 -17.557,0.9287 -197.341,163.0304 -187.48,169.0395 3.91,2.3827 29.539,16.0217 56.954,30.3091 41.657,21.7103 49.38,35.2051 47.024,82.1651 -1.607,32.0012 -15.489,65.4351 -32.251,77.6688 -41.156,30.0368 -179.947,27.7478 -205.842,-3.3948 -11.375,-13.6812 -27.866,-24.8749 -36.644,-24.8749 -8.779,0 -137.839,111.9371 -286.799,248.7491 -148.96,136.812 -281.758,248.7491 -295.107,248.7491 -13.348,0 -36.823,-13.8457 -52.167,-30.7682 z m 2315.564,-589.2943 c 0,-13.7297 -315.355,-258.851 -333.019,-258.851 -39.788,0 -1.429,35.6666 158.566,147.4352 173.759,121.3843 174.453,121.8276 174.453,111.4158 z m 20.17,-283.6556 28.478,-57.1551 -61.707,-16.3004 c -33.938,-8.9651 -97.176,-25.6414 -140.529,-37.0583 -61.518,-16.2012 -83.22,-16.3683 -98.857,-0.7612 -13.411,13.3857 -14.519,25.502 -3.351,36.6481 17.62,17.5872 224.987,131.867 239.182,131.8135 4.569,-0.017 21.122,-25.751 36.784,-57.1865 z m -2723.62,611.1819 c -28.261,-35.6151 -52.988,-75.7796 -54.948,-89.2544 -7.898,-54.2828 1.747,-98.127 27.166,-123.4981 23.344,-23.3003 31.376,-23.7459 62.393,-3.4611 19.58,12.805 58.27,19.9606 85.979,15.9015 33.443,-4.8992 63.481,3.2084 89.35,24.1168 33.343,26.9483 36.168,36.7251 19.56,67.6982 -10.676,19.9107 -39.708,48.8581 -64.516,64.3277 -24.809,15.4694 -60.517,46.3058 -79.353,68.5252 l -34.247,40.3989 z m -885.306,-552.8949 c 0,-41.8331 -3.299,-41.1676 456.902,-92.1885 210.175,-23.3014 389.612,-45.2414 398.75,-48.7554 9.138,-3.5141 0.309,-11.3582 -19.619,-17.4311 -58.817,-17.9241 -60.091,-56.1895 -3.625,-108.8371 28.424,-26.5024 61.205,-48.186 72.846,-48.186 11.641,0 65.056,34.0441 118.699,75.6536 79.587,61.7335 106.704,74.1091 147.377,67.2594 27.414,-4.6168 107.787,-13.419 178.607,-19.5605 70.82,-6.1414 128.48,-15.8864 128.133,-21.6554 -0.347,-5.769 -30.253,-30.9399 -66.459,-55.9355 -36.839,-25.4333 -65.827,-59.0498 -65.827,-76.3372 0,-26.506 -18.044,-32.4131 -127.117,-41.6157 -69.914,-5.8988 -195.147,-11.5973 -278.295,-12.6633 -255.715,-3.2787 -366.037,-18.6716 -372.381,-51.9574 -4.846,-25.4278 8.505,-28.8811 107.836,-27.8934 62.352,0.6202 244.207,9.9481 404.123,20.7291 188.88,12.7336 312.987,14.1213 354.206,3.9602 45.676,-11.2598 78.256,-9.5518 116.302,6.0975 29.069,11.9566 112.665,31.0748 185.769,42.4849 125.883,19.6482 136.201,27.4961 41.536,31.5941 -30.389,1.3151 -43.03,12.3413 -47.104,41.0839 -3.609,25.4587 -22.614,45.7077 -53.998,57.5314 -26.636,10.035 -48.429,28.663 -48.429,41.3955 0,18.2121 20.377,21.1539 95.534,13.792 171.557,-16.8049 2.874,17.1814 -353.061,71.1349 -348.69,52.8556 -1307.199,183.1507 -1347.335,183.1507 -12.854,0 -23.37,-14.7829 -23.37,-32.8507 z M 16201.696,3950.21 c -223.882,-11.9146 -530.422,-25.4353 -681.2,-30.0463 -279.334,-8.542 -675.962,-35.9911 -855.652,-59.2163 -98.471,-12.7275 -97.824,-12.9105 53.042,-14.9877 l 152.73,-2.1027 5.109,-69.1901 c 4.785,-64.8066 9.435,-70.6235 73.398,-91.8171 61.622,-20.418 155.444,-95.2908 138.074,-110.1882 -3.843,-3.2966 -163.996,14.9511 -355.895,40.5505 -402.527,53.6975 -643.092,74.0503 -564.897,47.7929 118.277,-39.717 3055.502,-537.5673 3091.101,-523.932 29.649,11.3557 32.187,102.6302 3.371,121.2448 -11.422,7.3789 -486.422,76.9674 -1055.555,154.6413 -569.132,77.6739 -1035.218,148.2199 -1035.745,156.7689 -0.527,8.5488 65.13,44.3891 145.905,79.645 182.406,79.6149 205.073,98.8588 166.521,141.3778 -40.686,44.8729 -34.342,69.7251 17.725,69.4341 214.776,-1.2007 1300.028,41.2477 1329.169,51.9887 20.561,7.5784 37.383,25.1573 37.383,39.0642 0,30.6353 -71.699,30.5245 -664.584,-1.0282 z m -3480.762,-217.6497 c -161.763,-22.1586 -544.19,-86.3816 -550.222,-92.402 -19.765,-19.7281 18.707,-61.6337 56.584,-61.6337 56.331,0 545.971,113.509 609.94,141.3971 l 49.844,21.7301 -58.151,-1.1327 c -31.983,-0.6219 -80.581,-4.2043 -107.995,-7.9595 z m 603.965,-45.8184 c -102.773,-52.9781 -120.702,-56.813 -257.527,-55.082 l -147.063,1.8603 -83.073,-81.3934 c -45.69,-44.7665 -118.587,-105.4928 -161.992,-134.9474 -43.406,-29.4547 -78.92,-64.9014 -78.92,-78.7705 0,-39.6404 27.942,-30.2755 122.679,41.1164 48.413,36.4832 95.132,66.3331 103.821,66.3331 8.688,0 35.845,-40.8004 60.349,-90.6673 124.709,-253.7979 366.837,-389.8726 652.555,-366.7333 l 135.955,11.0105 19.967,-104.3246 c 10.981,-57.3786 64.35,-276.732 118.598,-487.4521 54.247,-210.7201 98.312,-397.282 97.922,-414.5818 -0.541,-24.0832 -15.68,-14.4392 -64.594,41.1529 -68.786,78.1757 -92.248,78.8319 -108.924,3.0465 -5.851,-26.5871 -29.568,-60.7205 -52.705,-75.8519 -36.57,-23.9162 -40.659,-35.4532 -31.292,-88.2816 18.538,-104.5446 26.417,-118.8113 65.608,-118.8113 24.401,0 44.618,-15.0451 57.172,-42.5463 15.121,-33.1234 29.51,-41.387 64.972,-37.3123 35.263,4.0518 53.498,21.7657 80.744,78.4339 l 35.195,73.2002 17.868,-56.6169 c 9.828,-31.1393 26.054,-88.3323 36.058,-127.0957 19.094,-73.9812 40.266,-85.1752 91.027,-48.1275 24.717,18.0396 28.542,35.3553 19.826,89.7583 -5.94,37.0737 -15.745,81.1186 -21.79,97.8773 -6.044,16.7587 -5.86,25.917 0.411,20.3516 6.27,-5.5653 85.078,-218.2458 175.129,-472.6233 178.423,-504.01045 176.7,-501.29033 282.849,-446.50169 28.033,14.46889 50.969,38.2842 50.969,52.92292 0,14.63872 -142.243,422.45457 -316.096,906.25747 -173.852,483.803 -313.618,887.0576 -310.591,896.1217 3.027,9.064 100.778,-171.338 217.225,-400.8935 122.55,-241.5881 221.373,-417.3735 234.639,-417.3735 23.788,0 75.36,43.6726 74.835,63.3718 -0.166,6.1891 -144.909,257.5146 -321.654,558.501 -176.745,300.9864 -318.347,554.7105 -314.672,563.8313 3.676,9.1208 26.288,30.9187 50.251,48.4396 l 43.569,31.8563 34.645,-46.2564 c 19.054,-25.4409 63.657,-73.3574 99.116,-106.481 35.46,-33.1236 356.338,-377.3798 713.063,-765.0138 356.724,-387.6341 657.331,-710.0756 668.014,-716.5368 25.248,-15.27 91.303,31.0436 91.303,64.0161 0,14.0319 -279.769,310.2422 -621.708,658.2447 -341.94,348.0027 -624.18,640.1945 -627.202,649.3153 -3.021,9.1208 10.083,18.805 29.121,21.5205 21.116,3.0117 66.353,-21.2402 115.998,-62.1873 126.323,-104.1909 156.673,-88.0212 79.974,42.6087 -50.741,86.4188 -43.649,106.0217 21.83,60.3434 25.656,-17.8977 251.318,-176.4082 501.471,-352.2458 250.154,-175.8378 466.975,-320.5861 481.824,-321.6628 41.071,-2.9782 46.706,123.9442 7.026,158.2439 -16.429,14.2007 -356.287,227.8892 -755.24,474.8632 -902.54,558.7217 -1076.891,652.1542 -721.218,386.4928 127.103,-94.9363 154.487,-122.9502 147.236,-150.6234 -12.99,-49.5817 -25.651,-52.1648 -106.445,-21.7179 -100.013,37.6896 -118.156,54.1241 -107.32,97.2166 9.55,37.9773 -14.3,56.8551 -71.83,56.8551 -15.818,0 -50.721,23.0693 -77.56,51.2652 -67.927,71.3603 -142.822,124.1548 -130.44,91.9489 7.245,-18.845 -8.732,-27.4352 -67.346,-36.2082 -42.265,-6.326 -80.478,-7.8756 -84.919,-3.4434 -4.44,4.4322 1.201,42.6734 12.539,84.9805 l 20.612,76.9219 -81.758,82.85 c -44.968,45.5677 -85.778,82.6988 -90.691,82.5137 -4.912,-0.1857 -58.64,-25.9604 -119.395,-57.2789 z m 517.521,-359.5367 c 0,-7.7071 -14.953,-14.013 -33.229,-14.013 -24.885,0 -33.229,11.0555 -33.229,44.0284 0,42.9779 0.792,43.3122 33.229,14.013 18.276,-16.5084 33.229,-36.3212 33.229,-44.0284 z m -1186.867,226.6108 c -179.931,-80.9876 -201.736,-95.6371 -184.289,-123.8141 11.484,-18.5454 191.509,69.9236 324.139,159.29 86.153,58.0504 44.417,47.4632 -139.85,-35.4759 z m 1369.628,-7.4202 c 0,-19.4996 2724.542,-730.7019 2799.243,-730.7019 30.428,0 44.033,11.1752 51.953,42.6724 5.902,23.4697 3.81,49.5797 -4.648,58.0221 -8.458,8.4424 -444.917,112.685 -969.908,231.6501 -1704.195,386.1777 -1876.64,422.783 -1876.64,398.3573 z m 49.844,-73.7263 c 0,-20.7335 878.002,-441.393 921.277,-441.393 30.411,0 45.592,45.9221 26.78,81.0073 -8.518,15.8855 -96.237,59.5108 -195.163,97.0601 -714.26,271.1136 -752.894,284.6259 -752.894,263.3256 z m 1354.091,-476.454 c -54.828,-7.9384 -109.033,-17.9879 -120.456,-22.3322 -35.502,-13.5028 -22.887,-82.2837 25.757,-140.4426 55.073,-65.8436 71.646,-60.9508 184.176,54.3726 47.388,48.5648 69.353,83.7976 62.826,100.7755 -10.971,28.536 -8.68,28.4213 -152.303,7.6267 z m 864.267,-421.9503 c -45.521,-31.3887 -88.868,-57.0702 -96.327,-57.0702 -7.459,0 -30.884,18.6562 -52.057,41.4582 -46.874,50.4828 -80.147,51.99 -153.179,6.9391 -59.946,-36.9791 -65.062,-56.478 -39.2,-149.404 19.065,-68.5032 68.63,-97.9926 164.703,-97.9926 61.505,0 64.62,-2.8198 94.752,-85.7738 17.136,-47.1756 39.998,-88.6731 50.803,-92.2166 10.806,-3.5437 50.118,48.1138 87.361,114.7945 64.222,114.9855 67.493,127.5824 63.426,244.2811 -2.358,67.674 -11.763,125.0711 -20.901,127.5489 -9.138,2.4781 -53.86,-21.1761 -99.381,-52.5646 z M 14418.54,2453.899 c -37.465,-39.0314 -43.05,-56.0746 -33.965,-103.6455 19.905,-104.2208 51.654,-148.1407 107.09,-148.1407 41.872,0 54.378,9.8256 74.898,58.8441 27.915,66.6848 12.592,154.4 -36.415,208.4497 -38.312,42.2552 -58.911,39.3933 -111.608,-15.5076 z"
             id="path12154" />
          <path
             style="fill:#744511;stroke-width:16.5989"
             d="M 11935.874,7935.7606 C 10480.652,6483.2622 9290.0159,5287.392 9290.0159,5278.2712 c 0,-21.6834 5286.6831,-5298.317225 5308.4081,-5298.317225 21.725,0 5308.331,5276.711225 5308.331,5298.395225 0,21.6834 -5286.684,5298.3168 -5308.409,5298.3168 -9.138,0 -1207.25,-1188.4073 -2662.472,-2640.9054 z m 5192.983,-99.4803 c 1382.764,-1379.5211 2521.934,-2522.2859 2531.488,-2539.4772 15.236,-27.4137 -291.83,-340.0177 -2497.372,-2542.4114 C 15779.864,1373.2568 14634.105,235.41768 14616.842,225.86032 c -27.561,-15.25873 -339.968,290.61634 -2562.804,2509.22448 -1392.28,1389.6306 -2531.4175,2534.0638 -2531.4175,2543.1846 0,21.613 5053.9625,5066.2316 5075.6145,5066.2316 9.078,0 1147.858,-1128.6995 2530.622,-2508.2207 z m -2763.488,1857.3268 c -4.222,-11.401 -9.595,-169.9786 -11.94,-352.3946 l -4.263,-331.6655 -99.113,-5.0799 c -117.746,-6.035 -145.195,-24.4687 -138.494,-93.0073 4.404,-45.0376 12.958,-52.8105 71.461,-64.9302 101.863,-21.1024 145.829,-47.9283 190.2,-116.0509 38.339,-58.8609 45.002,-62.1563 116.302,-57.5176 l 75.634,4.9204 4.402,504.6581 c 3.425,392.6949 -0.261,507.6124 -16.615,517.9734 -34.177,21.6531 -178.973,16.3221 -187.574,-6.9059 z m -109.896,-1454.1023 c -42.185,-34.509 -42.763,-31.8349 31.568,-146.0056 23.248,-35.7091 21.194,-38.41 -53.534,-70.3818 -67.67,-28.9522 -76.258,-38.0808 -66.469,-70.657 19.513,-64.9407 46.321,-82.296 97.259,-62.966 82.924,31.4683 93.176,24.2792 93.176,-65.3356 0,-73.5571 4.404,-83.7036 40.223,-92.6765 78.874,-19.7588 100.606,-4.2236 106.204,75.9204 6.693,95.812 19.867,107.3532 94.485,82.7733 67.782,-22.3278 83.57,-13.7676 100.457,54.4671 10.493,42.3989 5.833,48.3691 -56.975,72.9944 -77.493,30.3827 -83.519,52.4753 -32.937,120.7621 41.061,55.4324 32.788,92.3635 -26.756,119.4423 -38.415,17.47 -46.844,13.6124 -97.131,-44.4509 l -55.066,-63.5811 -46.531,60.8906 c -53.041,69.4098 -72.878,73.8747 -127.973,28.8043 z m -130.859,-1124.5969 c -0.295,-168.4173 -11.832,-199.0224 -64.434,-170.9238 -41.495,22.1655 -68.232,10.7786 -68.22,-29.0543 0.01,-37.7201 159.225,-172.7559 195.495,-165.8067 25.569,4.8989 29.308,33.8198 33.381,258.2026 l 4.586,252.6858 h -50.277 -50.276 z m 266.089,94.2523 c 0,-45.6907 4.636,-50.3187 45.69,-45.604 35.887,4.1215 46.818,15.032 50.947,50.8513 4.724,40.976 0.08,45.604 -45.69,45.604 -45.777,0 -50.947,-5.1605 -50.947,-50.8513 z m 328.752,-109.7933 c -5.117,-174.6407 1.615,-163.6418 -91.986,-150.2918 -18.253,2.6034 -30.772,-8.1939 -33.648,-29.0207 -5.67,-41.0632 149.197,-179.0947 191.76,-170.9134 25.788,4.9571 28.794,31.4787 28.794,254.057 v 248.5219 l -45.076,5.1881 -45.076,5.1882 z M 11998.662,4996.9521 c -11.121,-13.3746 -17.644,-31.3381 -14.496,-39.919 5.302,-14.45 637.332,-523.8064 873.838,-704.2313 57.113,-43.5697 103.842,-85.2378 103.842,-92.5955 0,-7.3577 -14.727,-32.0638 -32.726,-54.9026 -30.129,-38.2312 -38.365,-40.2685 -103.841,-25.684 -39.114,8.7124 -150.168,41.3172 -246.787,72.455 -216.982,69.9274 -235.651,71.052 -221.134,13.3218 9.282,-36.9102 6.267,-41.945 -20.452,-34.1535 -17.235,5.0263 -64.982,17.4653 -106.103,27.642 -150.543,37.2566 -188.077,52.8382 -163.981,68.0743 12.516,7.9135 42.517,14.5027 66.669,14.6424 52.81,0.3051 72.373,39.3597 37.268,74.3987 -39.032,38.9582 -71.81,30.682 -130.116,-32.8528 l -53.417,-58.2078 -345.873,83.9521 c -318.199,77.2348 -416.734,87.5083 -354.134,36.9229 32.688,-26.4147 872.393,-210.1096 1226.82,-268.3808 221.159,-36.3606 325.668,-61.4853 337.895,-81.2321 4.175,-6.743 -0.827,-43.7402 -11.116,-82.2161 -26.869,-100.4754 -7.836,-111.4908 122.296,-70.7794 58.7,18.3642 119.561,33.4854 135.248,33.6032 15.686,0.1161 66.403,-33.3672 112.703,-74.4108 46.3,-41.0436 93.278,-74.3765 104.396,-74.0732 11.117,0.3035 76.288,48.7424 144.823,107.6422 68.535,58.8996 128.348,107.1452 132.917,107.2122 4.569,0.066 49.429,-28.3199 99.688,-63.0823 73.9,-51.1138 93.071,-74.1072 100.219,-120.2014 5.487,-35.3817 17.145,-55.2148 30.74,-52.2975 28.959,6.2141 151.489,104.9125 151.489,122.0244 0,7.3602 22.43,24.959 49.844,39.1087 27.414,14.1497 49.844,36.2883 49.844,49.1969 0,12.9088 5.702,26.9878 12.671,31.2868 6.969,4.2991 270.518,43.2506 585.665,86.5588 315.147,43.3084 582.911,86.3932 595.032,95.7443 22.85,17.6281 13.797,121.2702 -13.01,148.9565 -7.32,7.5596 -104.16,-10.2487 -215.201,-39.5738 -193.824,-51.1881 -246.257,-54.2827 -203.931,-12.036 27.721,27.6687 24.455,95.111 -5.155,106.452 -13.648,5.2275 -88.451,0.05 -166.228,-11.4944 -77.776,-11.5494 -145.678,-16.741 -150.892,-11.5368 -5.214,5.2042 41.551,37.463 103.923,71.6864 62.372,34.2232 126.487,73.3725 142.479,86.9983 30.89,26.3205 39.402,69.3836 13.714,69.3836 -25.263,0 -682.453,-409.5024 -682.453,-425.2436 0,-3.5642 37.85,12.6635 84.111,36.0617 46.262,23.398 102.442,49.4979 124.846,57.9998 37.179,14.1086 39.884,12.0751 30.99,-23.2954 -11.819,-47.0001 34.153,-99.9757 73.72,-84.9504 18.227,6.9217 21.51,4.7652 10.156,-6.6711 -9.228,-9.2945 -90.558,-36.4993 -180.733,-60.4554 -181.384,-48.186 -197.362,-44.4485 -215.947,50.5143 -9.078,46.3888 -2.385,54.6834 99.076,122.774 205.901,138.1801 746.369,532.915 751.896,549.1536 3.045,8.9436 -6.507,20.8732 -21.225,26.5106 -29.923,11.4607 -123.246,-56.091 -569.377,-412.1412 -157.303,-125.5405 -290.301,-228.2555 -295.552,-228.2555 -5.251,0 -41.033,30.2605 -79.517,67.2453 -38.484,36.9851 -118.411,91.088 -177.616,120.2288 -98.253,48.3603 -121.448,52.9822 -265.833,52.9709 -179.241,-0.014 -265.772,-29.5142 -393.86,-134.2742 -39.694,-32.4653 -78.538,-56.5755 -86.319,-53.5786 -29.269,11.2731 -201.37,177.8752 -201.37,194.9356 0,9.7926 17.196,17.8046 38.214,17.8046 78.363,0 105.802,88.4217 45.97,148.1404 -39.935,39.8597 -169.15,36.1306 -216.052,-6.2353 -29.752,-26.8742 -42.902,-17.2549 -302.678,221.419 -149.367,137.2328 -283.744,249.6811 -298.616,249.8856 -14.873,0.204 -36.14,-10.5713 -47.261,-23.9459 z m -396.834,-273.5328 c -59.393,-81.8352 -58.399,-77.5217 -33.985,-147.4237 17.881,-51.1946 52.888,-68.3495 73.045,-35.7952 5.596,9.0363 40.044,15.2611 76.552,13.8333 89.932,-3.5171 129.977,34.4697 98.407,93.3479 -12.289,22.9201 -37.97,46.3999 -57.067,52.1775 -19.098,5.7776 -50.474,29.7003 -69.725,53.1616 l -35.002,42.6569 z m 2735.709,-197.9856 c -121.615,-99.4143 -236.039,-197.8373 -254.276,-218.7178 l -33.158,-37.9643 58.151,39.339 c 217.991,147.4701 451.046,321.9325 465.123,348.1855 48.173,89.8435 4.462,65.5926 -235.84,-130.8424 z m -2289.495,-6.8209 c 0,-11.9578 128.971,-87.6469 286.602,-168.1977 157.631,-80.5509 279.126,-138.5141 269.987,-128.8071 -28.879,30.6779 -512.372,318.7465 -534.981,318.7465 -11.885,0 -21.608,-9.7838 -21.608,-21.7417 z m -1312.555,-332.5087 c 0,-14.9407 5.608,-27.2352 12.461,-27.321 6.854,-0.083 210.591,-22.473 452.749,-49.7491 242.158,-27.2762 442.156,-49.5933 444.441,-49.5938 2.284,-3e-4 4.153,-7.4631 4.153,-16.5839 0,-9.1208 -18.08,-16.5833 -40.177,-16.5833 -56.556,0 -92.74,-16.3984 -92.74,-42.0288 0,-27.2775 78.788,-90.6374 112.708,-90.6374 13.834,0 66.76,34.1891 117.614,75.9759 86.642,71.1934 97.206,75.4115 167.828,67.0094 66.977,-7.9683 69.488,-7.1771 22.558,7.1072 -54.002,16.4367 -889.473,137.6523 -1090.325,158.1914 -96.638,9.8823 -111.27,7.8064 -111.27,-15.7866 z m 1470.394,-229.6921 c -90.856,-45.2236 -124.61,-77.9583 -124.61,-120.846 0,-35.0644 -7.827,-36.6917 -226.924,-47.1796 -124.808,-5.9745 -283.686,-10.9644 -353.061,-11.0889 -149.679,-0.2688 -200.902,-11.6111 -200.902,-44.486 0,-19.6964 19.536,-22.5104 103.842,-14.9579 259.919,23.2852 630.679,43.4838 751.811,40.9579 156.41,-3.2618 283.147,18.2834 280.787,47.7331 -0.914,11.401 -2.783,35.8388 -4.154,54.3061 -1.405,18.9256 -20.176,40.2875 -43.018,48.956 -22.29,8.4584 -48.721,30.6613 -58.736,49.3393 -21.861,40.77 -38.359,40.4092 -125.035,-2.734 z m 4245.034,-6.6639 c -170.012,-13.4964 -882.617,-46.2275 -1055.028,-48.4593 -109.657,-1.4195 -268.534,-8.5642 -353.061,-15.8776 -153.645,-13.2937 -153.685,-13.3088 -153.685,-59.2358 0,-25.2665 -4.513,-57.6768 -10.028,-72.0232 -7.431,-19.326 10.864,-34.9915 70.612,-60.4639 44.352,-18.9089 100.905,-53.6691 125.672,-77.2449 l 45.032,-42.865 183.419,80.0284 c 100.881,44.0157 183.181,88.0377 182.891,97.8269 -0.291,9.7891 -11.506,32.2842 -24.922,49.9888 -13.417,17.7047 -24.394,40.5813 -24.394,50.837 0,13.1769 199.764,24.538 680.993,38.7299 374.545,11.0458 692.3,24.4143 706.121,29.7078 13.821,5.2936 25.128,16.2886 25.128,24.4337 0,13.3445 -252.05,16.263 -398.75,4.6172 z m -3147.198,-282.51 c -110.629,-56.6508 -119.67,-58.4706 -236.299,-47.5621 l -121.269,11.3423 -87.686,-81.5727 c -48.227,-44.865 -123.199,-105.5406 -166.605,-134.8348 -43.405,-29.2942 -78.919,-60.3661 -78.919,-69.0487 0,-27.7417 22.951,-16.9997 107.995,50.5464 45.69,36.2894 91.392,66.06 101.56,66.1569 10.168,0.099 41.879,-47.2478 70.468,-105.2105 62.904,-127.5363 183.449,-244.9111 314.48,-306.2091 85.749,-40.1151 113.599,-44.447 285.911,-44.4734 l 190.907,-0.033 30.227,-140.9284 c 16.625,-77.5108 70.902,-305.217 120.617,-506.014 49.714,-200.7967 90.054,-379.8961 89.645,-397.9985 -0.585,-25.865 -16.265,-15.6304 -73.217,47.7916 -72.062,80.249 -108.799,88.797 -108.799,25.3157 0,-18.1388 -19.921,-51.4066 -44.269,-73.9286 -41.255,-38.1619 -43.234,-46.2912 -29.075,-119.437 13.241,-68.4063 20.959,-79.152 60.089,-83.6586 26.836,-3.0908 49.008,-18.1007 55.117,-37.3124 6.962,-21.8926 25.316,-32.1416 57.56,-32.1416 40.926,0 50.529,9.5499 70.877,70.479 12.946,38.7634 30.391,70.4789 38.768,70.4789 8.376,0 29.376,-54.103 46.667,-120.2288 23.796,-91.0103 38.444,-120.2287 60.27,-120.2287 74.933,0 71.239,35.0693 -41.134,390.5426 -59.798,189.1622 -108.203,352.1773 -107.567,362.2556 1.882,29.7904 72.691,-160.2196 307.976,-826.4288 122.212,-346.0437 228.771,-635.72501 236.797,-643.73627 15.59,-15.56054 124.295,22.897 141.006,49.88494 5.386,8.69904 -46.391,171.76923 -115.06,362.37823 -430.561,1195.1287 -556.271,1554.0176 -550.31,1571.0759 3.697,10.5773 112.774,-192.0672 242.393,-450.3214 209.934,-418.2734 239.671,-468.9826 272.289,-464.3316 20.139,2.8717 38.858,16.9758 41.599,31.3423 4.113,21.5661 -329.342,609.5661 -567.705,1001.0663 -32.992,54.1884 -59.572,110.1569 -59.067,124.3746 1.271,35.7598 90.271,102.6889 120.934,90.9447 13.812,-5.2901 37.207,-35.0589 51.99,-66.153 14.783,-31.0942 41.512,-64.3519 59.398,-73.9062 17.887,-9.5543 336.208,-347.3321 707.382,-750.6171 371.174,-403.2813 686.163,-733.2419 699.977,-733.2419 13.814,0 35.473,15.57 48.133,34.6002 21.757,32.7058 -12.014,70.068 -616.868,682.4787 -351.937,356.3331 -639.885,652.3213 -639.885,657.7515 0,5.4302 25.46,9.873 56.579,9.873 40.328,0 76.571,-16.6713 126.182,-58.0414 64.16,-53.5038 99.687,-71.0652 99.687,-49.2769 0,4.8204 -23.064,54.3679 -51.253,110.1053 -32.178,63.6236 -42.635,98.04 -28.097,92.4718 12.735,-4.8779 252.335,-170.0936 532.444,-367.146 280.109,-197.0525 517.05,-358.2772 526.536,-358.2772 29.712,0 19.993,125.182 -11.828,152.3452 -41.245,35.207 -1271.265,793.7235 -1391.474,858.0802 -99.44,53.2369 -99.545,53.2532 -42.385,6.533 140.963,-115.217 139.429,-113.264 127.208,-161.8649 -9.775,-38.8724 -17.972,-44.5095 -52.36,-36.0084 -22.424,5.5433 -61.331,14.7843 -86.461,20.5355 -61.628,14.1046 -103.491,53.0584 -99.125,92.2385 2.674,24.0055 -13.322,38.1451 -62.643,55.3732 -42.483,14.8393 -71.976,17.4064 -82.243,7.1586 -33.839,-33.775 -74.773,-16.346 -89.056,37.9179 -13.803,52.442 -16.617,53.8957 -104.316,53.8957 -98.812,0 -96.676,-3.611 -71.946,121.6209 9.764,49.4434 3.306,63.029 -61.09,128.5204 -39.605,40.2779 -79.797,72.8656 -89.317,72.417 -9.52,-0.4494 -69.073,-27.3228 -132.34,-59.7204 z m -832.002,17.5907 c -229.501,-35.5298 -279.339,-47.2427 -286.01,-67.2176 -13.217,-39.575 54.317,-36.2363 265.521,13.1266 332.617,77.7394 342.544,103.9498 20.489,54.091 z m 2076.826,-84.253 c 129.394,-31.1833 2620.2,-453.2164 2674.849,-453.2164 35.005,0 41.641,7.7716 41.641,48.7711 0,26.8241 -6.973,53.0725 -15.495,58.3295 -8.522,5.2571 -481.416,73.0613 -1050.874,150.6763 -1623.719,221.3061 -1886.692,252.4527 -1650.121,195.4395 z m -2007.683,-115.221 c -25.938,-14.0298 -43.455,-29.2062 -38.927,-33.7255 8.864,-8.8468 111.008,39.6417 111.008,52.6964 0,13.5626 -23.246,7.4446 -72.081,-18.9709 z m 1834.153,-21.1409 c 31.468,-19.9618 429.83,-126.7654 1584.75,-424.8827 832.734,-214.9519 880.724,-225.4375 901.567,-196.9871 25.241,34.4534 21.534,56.5354 -12.651,75.3837 -22.922,12.6377 -2127.27,488.8534 -2333.365,528.0423 -54.828,10.4256 -114.641,22.5293 -132.917,26.8971 -27.153,6.4892 -28.503,4.9435 -7.384,-8.4533 z m -124.666,-74.7199 c 60.182,-42.0738 710.148,-341.6342 741.254,-341.6342 19.654,0 30.459,12.0887 30.459,34.0791 0,40.5848 -47.008,62.7743 -467.534,220.6932 -292.406,109.8067 -367.792,131.3339 -304.179,86.8619 z m 1149.771,-406.7912 c -107.751,-14.9996 -124.571,-35.0926 -85.339,-101.9407 57.571,-98.0974 78.926,-99.0098 172.156,-7.3551 125.125,123.0115 113.833,137.2278 -86.817,109.2958 z m 887.76,-425.0446 -87.83,-59.0365 -57.905,50.7448 c -31.847,27.9097 -60.955,50.7449 -64.684,50.7449 -3.728,0 -34.208,-16.153 -67.732,-35.8955 -58.667,-34.549 -60.636,-38.7107 -52.481,-110.9287 10.209,-90.3961 42.849,-118.5082 137.598,-118.5082 77.647,0 96.983,-16.2775 129.006,-108.6006 12.144,-35.0114 29.983,-66.2863 39.643,-69.5 9.659,-3.2137 44.566,42.3537 77.571,101.2608 54.235,96.7977 60.009,119.2112 60.009,232.9295 0,69.2043 -5.707,125.8259 -12.683,125.8259 -6.975,0 -52.206,-26.5664 -100.512,-59.0364 z M 14425.307,2448.581 c -32.015,-29.7693 -36.424,-46.04 -27.526,-101.5765 15.944,-99.5227 36.944,-128.3085 93.605,-128.3085 38.856,0 53.491,9.9293 67.217,45.6041 22.06,57.3345 8.351,147.9301 -28.541,188.6186 -36.368,40.1103 -57.916,39.218 -104.755,-4.3377 z"
             id="path12152" />
          <path
             style="fill:#57330d;stroke-width:16.5989"
             d="M 11938.354,7938.1837 C 10481.768,6484.4524 9290.0159,5287.5093 9290.0159,5278.3102 c 0,-9.1991 1192.5371,-1206.9259 2650.0831,-2661.6154 L 14590.182,-28.195063 17240.161,2616.7464 c 1457.488,1454.7178 2649.979,2656.0879 2649.979,2669.7112 0,24.692 -5166.027,5195.0244 -5256.065,5260.4454 l -47.384,34.429 z m 5206.2,-118.4663 C 18535.832,6431.0868 19674.15,5287.4718 19674.15,5278.351 c 0,-27.1407 -5056.89,-5066.23118 -5084.126,-5066.23118 -27.068,0 -5084.0181,5039.21758 -5084.0181,5066.19038 0,26.9465 5056.9361,5066.1908 5083.9771,5066.1908 13.737,0 1163.294,-1136.1529 2554.571,-2524.7836 z m -2779.185,1857.3064 c -4.222,-11.401 -9.595,-169.9786 -11.94,-352.3946 l -4.263,-331.6655 -113.105,-4.9252 -113.105,-4.9252 5.11,-61.0383 c 4.825,-57.6298 9.01,-61.6977 74.949,-72.8488 97.609,-16.5068 132.032,-38.4407 180.434,-114.969 38.293,-60.5454 47.672,-66.1112 103.599,-61.4744 l 61.493,5.0987 4.394,509.9357 4.394,509.9357 h -92.142 c -58.543,0 -94.941,-7.5587 -99.818,-20.7291 z m -91.135,-1435.6277 -41.37,-33.6657 40.823,-75.1912 c 44.601,-82.1507 41.477,-91.9387 -37.475,-117.4107 -55.195,-17.8073 -74.975,-63.0394 -46.643,-106.662 12.015,-18.4995 28.836,-19.6739 83.486,-5.8285 59.928,15.1825 70.466,13.5589 84.736,-13.0546 8.963,-16.7164 16.297,-57.4534 16.297,-90.5262 0,-59.3463 0.816,-60.0655 62.305,-54.986 61.717,5.0983 62.383,5.9287 70.612,88.0633 7.752,77.3766 11.082,82.4927 49.844,76.5736 110.93,-16.9393 124.368,-12.7112 129.601,40.7796 4.569,46.7055 -0.7,52.7222 -62.305,71.1447 -37.013,11.0684 -67.296,27.6832 -67.296,36.9219 0,9.2385 18.919,44.3856 42.043,78.1047 l 42.043,61.3075 -45.436,39.4303 -45.437,39.43 -50.604,-60.16 c -27.832,-33.0879 -57.289,-60.1596 -65.458,-60.1591 -8.17,3e-4 -38.151,26.9002 -66.625,59.7774 l -51.77,59.7767 z m -140.84,-1000.9505 c -4.367,-12.0408 -9.941,-89.0545 -12.387,-171.1417 -4.687,-157.339 -1.166,-151.9041 -83.365,-128.7104 -59.309,16.7348 -28.435,-54.2419 54.663,-125.6703 124.178,-106.7372 134.307,-90.7484 128.539,202.8813 -4.489,228.5024 -5.462,234.0383 -42.052,239.2244 -20.602,2.9198 -41.031,-4.5427 -45.398,-16.5833 z m 263.317,-5.309 c -13.162,-34.2348 4.684,-74.6247 32.972,-74.6247 33.26,0 66.191,44.7334 54.78,74.4136 -12.456,32.3983 -75.319,32.5497 -87.752,0.2106 z m 337.36,13.8194 c -6.092,-6.0805 -11.076,-79.4615 -11.076,-163.0689 0,-83.6073 -4.484,-156.489 -9.965,-161.9595 -5.481,-5.4703 -28.113,-1.6928 -50.295,8.3946 -30.097,13.6873 -45.341,13.3383 -60.083,-1.3764 -15.263,-15.2336 0.85,-38.5249 70.864,-102.4326 49.84,-45.4937 98.184,-80.2073 107.431,-77.1412 10.081,3.3423 18.65,106.2953 21.4,257.1069 4.299,235.7775 2.651,251.5326 -26.307,251.5326 -16.991,0 -35.877,-4.975 -41.969,-11.0555 z M 12018.136,5001.3695 c -10.966,-10.9449 -19.938,-28.3751 -19.938,-38.7339 0,-19.0954 813.556,-674.0573 851.597,-685.5869 11.368,-3.4456 -4.987,20.6956 -36.345,53.6473 -31.359,32.9518 -53.788,62.4892 -49.844,65.6389 3.944,3.1497 33.288,12.8542 65.209,21.5655 66.895,18.2562 81.268,56.1391 43.265,114.0301 -21.825,33.2457 -39.478,39.5914 -108.655,39.0565 -49.959,-0.3864 -90.249,-9.8409 -101.961,-23.9272 -10.651,-12.8088 -27.795,-23.2697 -38.099,-23.2465 -10.303,0.017 -141.41,111.9602 -291.348,248.7492 -149.939,136.7888 -277.414,248.707 -283.279,248.707 -5.866,0 -19.637,-8.955 -30.602,-19.9 z m 2544.209,-418.5892 c -144.662,-113.643 -289.191,-229.8777 -321.174,-258.2994 l -58.151,-51.6758 83.073,53.6424 c 163.973,105.8812 589.819,416.4349 589.819,430.1328 0,45.6569 -57.664,11.5183 -293.567,-173.8 z m -2958.744,134.705 c -38.893,-57.023 -47.478,-118.953 -22.048,-159.0481 12.296,-19.3866 23.421,-19.8215 65.201,-2.5485 27.706,11.4549 58.728,15.6744 68.937,9.3769 10.209,-6.2977 37.3,-6.7562 60.202,-1.0183 63.766,15.9742 48.945,92.0563 -24.667,126.6173 -30.748,14.4361 -62.894,38.7143 -71.438,53.9519 -21.944,39.1385 -33.736,34.9084 -76.187,-27.3306 z m 2803.716,-145.6234 c -195.72,-162.3022 -228.733,-200.6636 -91.38,-106.1869 155.431,106.9122 257.526,189.5535 257.526,208.4559 0,29.9125 -26.184,13.7952 -166.146,-102.269 z m -2350.099,-46.6876 c -5.947,-9.6038 54.742,-49.6947 139.686,-92.2754 82.61,-41.4113 150.201,-72.0275 150.201,-68.0359 0,3.9916 -46.729,35.285 -103.841,69.5411 -57.113,34.2561 -119.972,72.5142 -139.686,85.0182 -23.429,14.8597 -39.487,16.852 -46.36,5.752 z m 2460.511,-144.1469 c -125.771,-78.5091 -225.135,-146.276 -220.81,-150.5931 4.326,-4.3169 22.966,0.2173 41.424,10.0777 61.01,32.5898 75.881,18.6459 30.517,-28.6145 -39.061,-40.6947 -41.873,-50.3634 -22.382,-76.9682 17.754,-24.2342 34.668,-28.1095 83.101,-19.0405 97.723,18.2983 71.322,-17.9822 -34.723,-47.7164 -222.254,-62.3184 -294.68,-88.1583 -251.977,-89.899 23.613,-0.9635 281.555,31.7879 573.205,72.7791 291.649,40.9911 535.879,74.5722 542.732,74.6248 6.854,0.05 12.461,30.1794 12.461,66.9488 0,45.809 -8.316,70.0386 -26.417,76.9716 -14.529,5.5649 -113.324,-12.7792 -219.544,-40.7648 -106.22,-27.9856 -198.977,-47.2743 -206.127,-42.864 -7.149,4.4105 -1.865,29.5103 11.744,55.7774 25.741,49.683 18.632,99.6109 -14.182,99.6061 -10.445,0 -77.592,-11.1954 -149.215,-24.8749 -239.3,-45.7047 -245.424,-31.1277 -35.854,85.3473 129.957,72.2276 185.293,121.9464 135.724,121.9464 -11.552,0 -123.907,-64.2346 -249.677,-142.7438 z m -1172.995,-8.0373 c -111.743,-21.8632 -232.641,-88.3815 -320.713,-176.4571 -145.694,-145.7009 -161.863,-166.2557 -161.863,-205.7719 0,-21.6324 -7.067,-63.9266 -15.704,-93.9871 -12.147,-42.2721 -10.466,-56.6617 7.419,-63.5119 19.633,-7.5199 150.069,22.7443 230.043,53.3752 13.269,5.082 64.393,-24.1061 116.684,-66.6175 51.188,-41.6144 103.002,-75.6625 115.142,-75.6625 12.141,0 75.367,44.7749 140.503,99.4997 65.136,54.7248 127.55,99.4996 138.699,99.4996 31.649,0 180.225,-100.2024 198.154,-133.6386 8.851,-16.5075 16.093,-45.4292 16.093,-64.2705 0,-53.2993 30.087,-41.2074 121.074,48.6596 46.173,45.604 89.964,82.9164 97.314,82.9164 7.35,0 24.585,21.6599 38.301,48.133 21.617,41.7245 21.744,49.3563 0.952,57.3199 -13.192,5.0527 -35.734,37.4959 -50.093,72.0958 -54.882,132.2481 -272.979,285.5399 -454.881,319.7175 -100.966,18.9708 -113.917,18.8932 -217.123,-1.3001 z M 11283.77,4359.056 c 0,-20.2923 4.71,-21.5239 382.136,-99.917 178.192,-37.0112 342.661,-71.5724 365.487,-76.8028 22.827,-5.2302 36.484,-4.5005 30.35,1.6218 -13.776,13.7506 -708.61,190.5637 -748.869,190.5637 -16.008,0 -29.104,-6.9596 -29.104,-15.4657 z m 775.866,-63.8257 c -42.495,-46.8673 -34.972,-55.7702 42.403,-50.1825 57.833,4.1765 70.613,11.1019 70.613,38.2659 0,45.5856 -75.29,53.5244 -113.016,11.9166 z m -1315.102,-101.9306 c -5.241,-8.4642 3.663,-19.2623 19.788,-23.996 52.508,-15.4148 705.758,-78.6826 715.191,-69.267 5.044,5.034 -1.422,9.1951 -14.367,9.247 -12.946,0.05 -173.069,22.3048 -355.83,49.4508 -385.236,57.2203 -352.665,54.134 -364.782,34.5652 z m 1619.186,-8.8465 c 0,-14.6092 28.047,-31.447 70.612,-42.391 38.836,-9.9853 93.042,-24.5276 120.456,-32.3163 27.414,-7.7885 72.273,-18.5864 99.687,-23.995 l 49.844,-9.8337 -48.188,26.7636 c -39.248,21.7983 -267.244,106.0082 -287.014,106.0082 -2.969,0 -5.397,-10.9062 -5.397,-24.2358 z m -655.98,-141.1162 c -5.484,-8.8563 -47.4,-21.0583 -93.147,-27.1155 -94.732,-12.5429 -102.743,-39.1365 -28.45,-94.4464 l 44.848,-33.3881 54.84,42.9963 c 30.162,23.6479 77.27,61.8662 104.684,84.9298 l 49.844,41.9336 -61.324,0.597 c -33.728,0.3283 -65.811,-6.6497 -71.295,-15.5062 z m 513.166,-94.3283 c -92.615,-31.7024 -139.223,-77.3683 -127.82,-125.2372 18.66,-78.3335 102.45,-101.8923 193.613,-54.4371 26.175,13.625 69.165,24.7727 95.534,24.7727 39.882,0 47.945,6.8736 47.945,40.8748 0,25.6326 -13.94,48.0489 -37.383,60.1137 -20.56,10.5815 -52.336,32.2817 -70.612,48.2225 -29.995,26.1628 -39.852,26.7167 -101.277,5.6906 z m 4163.55,-8.6215 c -432.723,-21.5294 -462.107,-42.2994 -49.844,-35.2322 388.781,6.6647 498.439,15.2928 498.439,39.2177 0,17.1927 -27.918,16.9446 -448.595,-3.9855 z m -1156.352,-46.731 c -55.729,-4.5876 -111.89,-17.107 -124.804,-27.8209 -17.746,-14.7228 -40.656,-14.9042 -93.811,-0.743 -82.249,21.9122 -96.48,12.409 -112.61,-75.2006 -11.109,-60.3381 -9.485,-63.0715 52.705,-88.6927 35.291,-14.5397 87.967,-44.3583 117.056,-66.2636 29.088,-21.9052 59.92,-39.8276 68.514,-39.8276 19.31,0 322.283,132.187 340.129,148.3983 7.115,6.4638 -0.957,29.8214 -17.94,51.9058 -16.983,22.0845 -35.275,52.2255 -40.649,66.9805 -12.325,33.8418 -60.42,41.8147 -188.59,31.2638 z m 688.028,5.2057 c 11.993,-4.7905 26.324,-4.2014 31.845,1.3084 5.52,5.5104 -4.293,9.4299 -21.807,8.7098 -19.355,-0.796 -23.292,-4.7252 -10.038,-10.0189 z m -4462.063,-133.6758 c -83.573,-3.4064 -137.07,-12.5735 -137.07,-23.4877 0,-18.7481 299.491,-6.0024 448.594,19.0913 65.323,10.9935 59.027,12.4187 -49.843,11.2831 -68.536,-0.7148 -186.292,-3.8138 -261.681,-6.8867 z M 13306.5,3660.6264 c -116.778,-56.5075 -138.064,-61.5228 -226.969,-53.4763 -127.646,11.5526 -174.342,-1.4742 -216.349,-60.3563 l -34.411,-48.2348 58.964,-115.8454 c 71.49,-140.4557 201.947,-269.1638 335.747,-331.2463 82.377,-38.2223 115.084,-43.9626 236.802,-41.56 77.673,1.5339 159.721,5.103 182.327,7.9326 38.047,4.7624 45.624,-7.186 101.904,-160.6878 120.459,-328.5483 445.587,-1234.8278 574.104,-1600.286 l 131.212,-373.12366 48.138,3.52335 c 118,8.63672 128.063,-32.22037 -254.093,1031.64581 -193.387,538.3594 -351.612,997.4325 -351.612,1020.1626 0,22.73 -12.522,67.5358 -27.826,99.5686 -26.513,55.4946 -26.319,59.9028 4.115,93.4685 17.567,19.3749 52.518,45.8482 77.669,58.83 25.249,13.0318 45.73,37.54 45.73,54.7215 0,39.7212 -85.916,71.9347 -138.567,51.9547 -41.398,-15.7098 -93.881,4.9557 -94.292,37.1278 -0.628,49.0994 -31.684,67.6276 -106.846,63.7441 -41.967,-2.1683 -83.21,0.3184 -91.653,5.527 -8.849,5.4584 -4.034,39.945 11.365,81.4165 l 26.716,71.9472 -63.88,76.2772 c -35.135,41.9524 -71.88,79.2129 -81.657,82.8008 -9.777,3.588 -75.764,-21.5364 -146.638,-55.8317 z m -982.935,-5.5722 c -63.207,-10.1685 -118.035,-27.8163 -121.841,-39.2173 -10.235,-30.6595 50.435,-25.2482 220.147,19.6358 119.301,31.552 136.096,39.3977 83.073,38.8083 -36.552,-0.4063 -118.173,-9.0582 -181.379,-19.2268 z m 2548.961,-102.1258 c 198.983,-45.8622 2360.47,-406.7897 2376.59,-396.8455 8.753,5.3995 15.915,27.8907 15.915,49.9807 0,28.0404 -11.284,42.7666 -37.383,48.787 -63.376,14.6194 -2240.364,305.1944 -2355.122,314.3515 l -107.995,8.6175 z m -2228.477,-185.8406 c -21.093,-26.8443 -20.311,-27.1962 10.426,-4.6926 18.276,13.3806 36.345,26.4399 40.152,29.0208 3.808,2.5808 -0.884,4.6925 -10.426,4.6925 -9.542,0 -27.611,-13.0593 -40.152,-29.0207 z m 2048.947,20.2686 c 23.514,-23.4695 2097.619,-559.2602 2136.403,-551.8834 26.165,4.9766 52.968,79.7206 28.587,79.7206 -5.833,0 -405.971,89.4404 -889.195,198.7565 -865.756,195.8533 -1255.69,282.1584 -1274.816,282.1584 -5.361,0 -5.802,-3.9385 -0.979,-8.7521 z m -44.767,-182.4384 c 173.623,-85.2757 325.023,-155.4994 336.446,-156.0526 31.467,-1.524 24.845,61.9859 -8.307,79.6694 -57.367,30.5992 -602.254,234.3755 -622.812,232.9187 -11.553,-0.8192 121.05,-71.2598 294.673,-156.5355 z m -417.328,44.6329 c 27.279,-30.5458 28.611,-41.4119 10.446,-85.185 -22.031,-53.0869 -35.071,-58.922 -80.188,-35.8837 -15.39,7.859 -48.544,19.195 -73.673,25.1908 -37.915,9.0464 -45.69,5.4181 -45.69,-21.3196 0,-17.7217 22.227,-49.5794 49.394,-70.7948 27.167,-21.2155 350.005,-365.3458 717.416,-764.7338 389.449,-423.3443 678.157,-724.1635 692.328,-721.3724 13.37,2.6331 32.513,17.7914 42.54,33.6848 15.678,24.848 -72.239,119.3077 -627.423,674.1179 -374.302,374.05 -640.911,652.884 -634.365,663.4545 22.706,36.6701 104.372,18.1318 182.532,-41.435 43.061,-32.8179 82.041,-55.9286 86.621,-51.3569 15.174,15.145 -62.994,151.4398 -124.515,217.1076 -33.299,35.5431 -49.329,58.4764 -35.621,50.9629 51.886,-28.4413 271.964,-179.5899 696.45,-478.3192 241.408,-169.8895 448.883,-308.89 461.055,-308.89 23.733,0 30.394,77.7578 9.417,109.9282 -12.674,19.4376 -1197.379,757.8367 -1299.839,810.1598 l -58.152,29.696 z m 1127.603,-280.0206 c -38.462,-4.764 -53.998,-15.2851 -53.998,-36.5677 0,-36.5529 61.298,-117.2687 89.057,-117.2687 11.103,0 57.008,37.3124 102.011,82.9164 l 81.824,82.9164 -82.448,-2.654 c -45.347,-1.4593 -106.748,-5.6637 -136.446,-9.3424 z m -1368.329,-171.7014 c 30.412,-84.4733 416.331,-842.0076 434.737,-853.3617 10.353,-6.3862 29.363,-1.0912 42.244,11.7657 20.152,20.1135 8.788,48.7449 -81.408,205.1072 -237.982,412.5592 -351.596,603.8266 -380.444,640.468 l -30.517,38.7607 z m -205.407,-189.4259 c 5.094,-27.3624 44.024,-189.473 86.511,-360.2458 42.488,-170.7725 71.354,-316.2908 64.149,-323.3738 -7.206,-7.0829 -45.999,24.4344 -86.208,70.0384 -59.953,67.9981 -76.064,78.4409 -89.543,58.0415 -9.039,-13.6812 -16.55,-31.9291 -16.69,-40.5507 -0.133,-8.6219 -19.478,-35.7028 -42.973,-60.1803 -39.614,-41.2707 -41.379,-49.4695 -24.281,-112.8445 13.551,-50.2317 26.97,-68.3402 50.642,-68.3402 17.713,0 44.699,-19.0306 59.968,-42.2901 42.281,-64.4067 91.244,-47.9982 122.129,40.9277 13.995,40.2942 33.879,76.0681 44.187,79.4975 11.218,3.7322 30.389,-42.3228 47.755,-114.7203 32.835,-136.8931 41.249,-151.2041 80.14,-136.3085 41.37,15.845 35.3,52.6103 -54.081,327.5875 -44.98,138.3781 -112.287,347.4367 -149.57,464.5748 -69.4,218.0371 -110.014,314.2169 -92.135,218.1868 z m 2502.637,-58.0415 c -83.631,-60.4681 -102.11,-61.475 -152.168,-8.2916 -47.515,50.482 -71.825,51.711 -134.983,6.8235 -43.37,-30.8245 -47.552,-41.3149 -38.013,-95.3538 14.801,-83.8469 38.88,-103.6223 141.471,-116.1846 86.834,-10.6328 89.342,-12.464 116.088,-84.7599 15.035,-40.6408 35.202,-76.5091 44.814,-79.7074 9.613,-3.1982 44.249,41.9642 76.968,100.3609 51.624,92.1383 59.489,120.7643 59.489,216.5193 0,128.8285 -11.105,134.7482 -113.666,60.5936 z M 14433.97,2445.8053 c -34.891,-34.8249 -40.953,-52.9137 -32.716,-97.6153 13.857,-75.1922 50.543,-129.494 87.485,-129.494 83.012,0 103.49,154.6406 30.169,227.8231 l -42.112,42.0321 z"
             id="path12150" />
          <path
             style="fill:#0c0701;stroke-width:16.5989"
             d="M 11944.181,7927.4688 C 10493.528,6479.531 9306.6305,5287.392 9306.6305,5278.2712 c 0,-9.1209 1188.7755,-1203.0991 2641.7235,-2653.2849 L 14590.078,-11.715334 17240.109,2633.2779 19890.14,5278.2712 17244.282,7919.1773 c -1455.222,1452.4982 -2649.614,2640.9057 -2654.204,2640.9057 -4.591,0 -1195.244,-1184.6763 -2645.897,-2632.6142 z m 5208.681,-99.4597 c 1395.846,-1393.1913 2537.903,-2540.5557 2537.903,-2549.6989 0,-27.1402 -5073.545,-5082.77366 -5100.782,-5082.77366 -27.041,0 -5100.5917,5055.82666 -5100.5917,5082.77366 0,26.947 5073.5507,5082.7738 5100.5917,5082.7738 13.737,0 1167.032,-1139.8838 2562.879,-2533.0749 z m -2778.774,1514.6534 c 0,-388.5753 5.549,-374.5737 -148.439,-374.5737 -81.705,0 -84.166,-1.3993 -84.166,-47.8669 0,-43.9051 6.092,-48.7786 73.597,-58.8824 84.315,-12.6201 148.415,-56.8676 185.179,-127.8272 22.279,-43.0025 33.275,-48.5877 86.895,-44.1397 l 61.387,5.0922 v 489.2066 489.2066 l -87.226,5.0124 -87.227,5.0125 z m -96.604,-1115.0711 -37.796,-30.6249 42.278,-57.1174 c 57.434,-77.5926 53.482,-98.699 -24.18,-129.1482 -108.498,-42.5386 -79.312,-129.0011 30.632,-90.7467 65.168,22.6745 82.487,7.0895 88.679,-79.8005 5.022,-70.4818 8.109,-74.6228 59.296,-79.5488 l 53.997,-5.1966 v 82.1929 c 0,87.3453 17.551,107.2072 74.766,84.612 61.219,-24.1764 103.688,-17.102 113.105,18.8409 7.36,28.0924 -4.309,39.9828 -64.521,65.7437 -40.428,17.2971 -73.506,39.5725 -73.506,49.5015 0,9.9287 18.662,45.4633 41.47,78.9657 l 41.47,60.9133 -34.179,33.5606 -34.179,33.5607 -50.439,-62.1872 c -27.742,-34.203 -59.06,-62.1876 -69.596,-62.188 -10.536,-5e-4 -41.734,26.8401 -69.329,59.6454 -49.77,59.1688 -50.475,59.4011 -87.968,29.0216 z m -136.001,-1138.3876 c 0,-171.5303 -13.608,-202.2363 -76.874,-173.4649 -21.762,9.8971 -44.717,12.8559 -51.01,6.575 -13.693,-13.6675 143.804,-157.9922 173.575,-159.0575 15.694,-0.5622 20.768,58.0076 20.768,239.7144 0,229.4019 -1.527,240.4575 -33.229,240.4575 -30.848,0 -33.23,-11.0556 -33.23,-154.2245 z m 265.834,121.0579 c 0,-22.111 11.077,-33.1665 33.229,-33.1665 22.153,0 33.23,11.0555 33.23,33.1665 0,22.111 -11.077,33.1666 -33.23,33.1666 -22.152,0 -33.229,-11.0556 -33.229,-33.1666 z m 332.292,-130.4716 c 0,-91.3385 -6.916,-170.3364 -15.369,-175.551 -8.453,-5.2144 -34.653,-0.7114 -58.222,10.0068 -23.568,10.7183 -47.704,14.6444 -53.634,8.7248 -16.616,-16.5842 148.182,-162.3431 172.86,-152.8906 16.804,6.4359 20.712,60.3467 17.141,236.4904 -4.093,201.9578 -7.963,228.7935 -33.7,233.7219 -26.127,5.0031 -29.076,-11.2748 -29.076,-160.5023 z M 12016.29,4981.5882 c -15.606,-18.7691 48.269,-76.5655 340.821,-308.3879 315.891,-250.3161 364.333,-283.2195 395.154,-268.3995 19.32,9.2898 55.688,21.3445 80.817,26.7883 48.33,10.4694 57.243,39.6501 28.492,93.2723 -21.891,40.8255 -166.478,46.0634 -198.791,7.2015 -11.376,-13.6812 -29.392,-24.875 -40.037,-24.875 -10.644,0 -142.159,111.9371 -292.256,248.7492 -150.096,136.812 -277.873,248.7491 -283.948,248.7491 -6.076,0 -19.689,-10.3941 -30.252,-23.098 z m 2704.669,-293.2505 c -153.628,-122.0551 -156.952,-132.0568 -10.425,-31.3733 70.82,48.6627 128.763,94.5703 128.763,102.0169 0,21.9302 -7.31,17.5663 -118.338,-70.6436 z m -3090.867,39.4852 c -43.87,-50.5093 -59,-89.3583 -51.023,-131.0078 7.9,-41.2494 58.562,-55.5412 79.131,-22.3231 6.284,10.1495 31.514,13.0283 59.812,6.8247 96.518,-21.1588 121.449,72.3528 26.831,100.6386 -20.57,6.1495 -48.956,25.7191 -63.079,43.4879 -24.696,31.071 -26.673,31.162 -51.672,2.3797 z m 3055.366,-260.0005 c -89.602,-54.9876 -98.654,-70.0393 -17.588,-29.2429 38.217,19.2324 74.172,42.5371 79.9,51.7882 14.342,23.1622 9.044,21.2452 -62.312,-22.5453 z m -1375.879,-114.9228 c -136.117,-38.5198 -275.69,-139.728 -375.099,-271.9948 -36.556,-48.6398 -95.364,-219.5769 -80.608,-234.305 4.518,-4.5101 52.978,4.2215 107.688,19.4035 142.278,39.4824 161.042,36.095 262.683,-47.4242 78.711,-64.6771 94.988,-71.9884 117.984,-52.9959 14.672,12.1176 72.551,60.8051 128.621,108.1943 56.069,47.3894 112.143,86.1501 124.609,86.135 46.62,-0.05 205.309,-125.5287 210.987,-166.8237 9.88,-71.8509 31.639,-70.5169 108.982,6.6807 41.741,41.6617 90.988,83.8122 109.438,93.668 34.917,18.6518 45.435,73.7945 17.376,91.103 -8.893,5.4861 -28.526,35.9653 -43.629,67.7314 -40.917,86.0634 -166.373,200.9278 -280.942,257.2235 -120.564,59.2418 -288.869,77.1426 -408.09,43.4042 z m -1224.985,-48.0276 c -32.319,-32.258 -23.189,-46.4332 29.906,-46.4332 53.723,0 69.86,38.5349 23.563,56.2672 -33.461,12.8161 -30.17,13.4214 -53.469,-9.834 z m 2519.336,-11.3201 c -111.424,-20.7556 -158.131,-38.2743 -206.525,-77.4636 -80.828,-65.4544 -66.315,-98.0304 36.798,-82.5968 64.874,9.71 72.802,7.3688 72.802,-21.4997 0,-26.3691 -22.411,-38.0444 -120.456,-62.7546 -66.251,-16.6971 -105.503,-32.5537 -87.227,-35.237 39.312,-5.7718 926.435,118.8167 950.138,133.4383 28.042,17.298 4.851,111.0003 -27.472,111.0003 -15.896,0 -116.698,-22.9154 -224.005,-50.9232 -107.306,-28.0079 -199.664,-46.3695 -205.241,-40.8037 -5.576,5.566 3.452,35.3086 20.063,66.095 53.313,98.8099 30.729,105.3779 -208.875,60.745 z m -2888.18,-277.5692 c -13.707,-2.3019 -62.215,-9.1141 -107.795,-15.1385 l -82.873,-10.9534 46.417,-39.8503 c 25.529,-21.9178 51.889,-39.8504 58.578,-39.8504 18.521,0 128.392,95.2883 118.902,103.1211 -4.569,3.7713 -19.522,4.9735 -33.229,2.6715 z m 446.898,-111.2076 c -58.326,-39.86 -71.246,-102.3413 -26.968,-130.4181 32.179,-20.4053 116.176,-14.4486 161.581,11.4585 22.845,13.0348 58.359,23.9642 78.92,24.2872 52.338,0.8225 50.44,62.7866 -2.54,82.8917 -21.958,8.3324 -44.829,23.0726 -50.825,32.7561 -18.672,30.1562 -101.156,19.3543 -160.168,-20.9754 z m 3036.86,-26.712 c -44.043,-6.1118 -86.625,-21.6861 -94.627,-34.6098 -12.028,-19.4243 -24.272,-19.9885 -70.634,-3.2553 -80.451,29.0365 -106.658,25.2459 -118.019,-17.0701 -19.916,-74.1754 -11.334,-90.5193 62.259,-118.5718 40.002,-15.2481 86.02,-42.3805 102.262,-60.2944 39.508,-43.5728 50.728,-42.107 210.492,27.4988 182.533,79.5261 188.943,85.2071 146.736,130.0502 -18.581,19.7408 -33.783,43.9409 -33.783,53.7783 0,37.4543 -54.006,43.384 -204.686,22.4741 z m -1872.141,-224.9138 c -99.456,-51.9703 -120.056,-56.4959 -260.549,-57.2368 -148.628,-0.7844 -153.428,-2.0298 -186.523,-48.4209 l -33.97,-47.6162 50.178,-103.3909 c 133.99,-276.0852 406.658,-421.7613 691.413,-369.3956 47.352,8.7079 93.968,10.9758 103.591,5.0398 9.623,-5.9361 31.869,-51.4653 49.435,-101.1764 17.567,-49.7108 185.594,-526.0092 373.395,-1058.4407 187.801,-532.4314 345.154,-971.748 349.674,-976.25895 15.156,-15.12748 94.158,13.08559 103.311,36.89453 4.978,12.94781 -151.246,469.80202 -347.165,1015.23142 -195.919,545.4295 -365.445,1029.0023 -376.726,1074.6063 l -20.51,82.9163 76.208,67.2305 c 41.915,36.9765 76.208,76.1545 76.208,87.0622 0,13.3283 -34.992,19.8317 -106.706,19.8317 h -106.707 l -19.318,58.4252 -19.319,58.4252 -83.367,-11.0381 c -102.869,-13.6204 -117.342,3.8654 -82.725,99.948 l 25.514,70.8191 -64.731,77.2929 c -35.602,42.5111 -68.755,76.9309 -73.673,76.4882 -4.919,-0.4426 -57.541,-26.199 -116.938,-57.2368 z m -1083.065,-36.2031 c 11.994,-4.7904 26.324,-4.2014 31.845,1.3084 5.521,5.5105 -4.292,9.4299 -21.807,8.7099 -19.355,-0.796 -23.292,-4.7253 -10.038,-10.019 z m 3085.126,-130.7328 c 19.762,-8.0599 1872.096,-322.2707 1899.85,-322.2707 25.885,0 24.467,65.3807 -1.63,75.1425 -27.23,10.1856 -1852.073,256.9182 -1887.569,255.2137 -14.996,-0.7197 -19.789,-4.3585 -10.651,-8.0855 z m -558.145,-324.4167 c 119.739,-57.3934 212.296,-92.643 220.848,-84.1078 8.551,8.5351 5.722,21.5261 -6.752,30.9973 -27.214,20.6641 -381.521,155.2409 -403.689,153.3338 -9.094,-0.7827 76.223,-45.8828 189.593,-100.2233 z m 558.145,66.8408 c 148.363,-45.7517 1453.804,-379.777 1484.249,-379.777 60.399,0 41.328,47.0602 -26.316,64.9389 -34.268,9.0571 -378.79,87.7008 -765.604,174.7637 -640.004,144.0496 -829.632,182.416 -692.329,140.0744 z m -1085.293,-89.6994 c -22.051,-48.3052 -29.336,-49.4246 -108.041,-16.6017 -98.977,41.2773 -92.158,-2.8057 15.269,-98.7059 84.957,-75.8417 100.283,-83.768 121.337,-62.7535 33.732,33.6687 120.652,16.3856 192.437,-38.2637 32.165,-24.4876 58.482,-39.6085 58.482,-33.6022 0,37.3077 -74.423,142.7118 -135.637,192.1011 -133.566,107.7643 -122.991,103.5132 -143.847,57.8259 z m 221.333,-37.1225 c 29.56,-31.8895 1056.722,-750.4534 1072.747,-750.4534 8.531,0 15.511,20.9525 15.511,46.5611 0,43.1223 -35.892,68.733 -485.978,346.7702 -518.137,320.0756 -628.718,385.6445 -602.28,357.1221 z m 884.729,-148.3035 c -39.481,-10.2978 -36.536,-44.4271 8.307,-96.2756 l 37.383,-43.2234 74.071,75.4651 74.072,75.4652 -82.379,-1.9237 c -45.309,-1.058 -95.463,-5.3365 -111.454,-9.5076 z m -885.333,-253.9011 c 145.117,-181.5941 1017.272,-1111.3039 1038.653,-1107.1943 13.698,2.6331 26.998,15.8954 29.557,29.4718 2.638,14.0025 -237.522,265.0911 -554.97,580.2243 -307.792,305.5468 -538.75,529.421 -513.24,497.4982 z m 1819.905,-165.8327 c -90.807,-60.2514 -100.139,-60.7689 -149.532,-8.2917 -45.849,48.7121 -69.246,51.2656 -126.522,13.8079 -36.587,-23.9275 -40.841,-35.6492 -31.599,-87.0622 13.657,-75.9714 47.225,-100.8701 135.992,-100.8701 76.83,0 108.312,-28.9374 130.8,-120.2287 6.179,-25.0822 16.174,-45.604 22.212,-45.604 6.038,0 35.134,43.856 64.657,97.4577 44.021,79.9216 53.679,115.7288 53.679,198.9993 0,55.8479 -5.607,101.5096 -12.461,101.4706 -6.853,-0.033 -46.105,-22.3945 -87.226,-49.6788 z m -2159.9,28.3902 c 0,-27.6369 300.495,-608.8048 314.784,-608.8048 44.141,0 22.385,54.4374 -117.425,293.8231 -163.948,280.715 -197.359,334.0392 -197.359,314.9817 z m 317.416,-121.9075 c -32.094,-22.437 -36.193,-35.7232 -26.664,-86.4214 15.905,-84.6195 37.594,-118.5603 75.765,-118.5603 68.309,0 81.216,148.0386 17.894,205.2358 -26.526,23.9608 -32.39,23.9386 -66.995,-0.2537 z m -576.754,-117.9195 c 4.804,-15.9614 28.231,-111.1079 52.059,-211.4367 23.828,-100.3288 53.805,-219.7284 66.615,-265.3324 12.81,-45.604 31.972,-118.6645 42.582,-162.3564 18.633,-76.7292 50.678,-97.2538 61.875,-39.6306 5.707,29.3683 -207.99,707.7768 -222.947,707.7768 -4.906,0 -4.988,-13.0593 -0.185,-29.0207 z m -105.714,-309.7019 c -9.643,-25.317 -33.034,-58.5587 -51.979,-73.8702 -28.418,-22.9684 -32.416,-38.6349 -22.848,-89.5389 8.463,-45.0269 19.973,-61.6996 42.594,-61.6996 17.048,0 43.244,-18.6562 58.213,-41.4582 43.114,-65.6756 82.782,-53.0194 113.213,36.1207 14.566,42.6684 26.148,85.5777 25.739,95.3538 -0.411,9.7762 -33.742,54.5283 -74.071,99.4491 l -73.327,81.6743 z"
             id="path12148" />
        </g>
      </g>
    </g>
  </g>
</svg>
