<?xml version="1.0" encoding="UTF-8" standalone="no"?>
<!-- Created with Inkscape (http://www.inkscape.org/) -->

<svg
   width="24"
   height="24"
   viewBox="0 0 24 24"
   version="1.1"
   id="svg5"
   inkscape:version="1.1.1 (3bf5ae0d25, 2021-09-20)"
   sodipodi:docname="trans.e.1.2.svg"
   xmlns:inkscape="http://www.inkscape.org/namespaces/inkscape"
   xmlns:sodipodi="http://sodipodi.sourceforge.net/DTD/sodipodi-0.dtd"
   xmlns="http://www.w3.org/2000/svg"
   xmlns:svg="http://www.w3.org/2000/svg">
  <g
     inkscape:label="Capa 1"
     inkscape:groupmode="layer"
     id="layer1"
     transform="translate(15.946791,28.864379)">
    <g
       id="g4409"
       transform="matrix(0.12812239,0,0,0.12708914,-207.56124,-4.2074214)" />
    <g
       id="g9127"
       transform="matrix(0.12598244,0,0,0.12598425,-174.2406,-23.711568)">
      <g
         id="g11021"
         transform="matrix(0.12640441,0,0,0.12664147,-448.45015,72.847799)">
        <g
           id="g12385"
           transform="matrix(0.12612503,0,0,0.12630028,12209.843,-801.20434)">
          <path
             style="fill:#f7aa56;stroke-width:16.5989"
             d="M 12977.429,8114.6281 9990.9697,5133.7672 12979.287,2151.1215 c 2624.825,-2619.84336 2992.135,-2980.53133 3019.706,-2965.26319 17.264,9.56037 1364.894,1348.88108 2994.734,2976.26819 2600.231,2596.3172 2961.216,2962.7174 2945.963,2990.1554 -24.802,44.6158 -5939.345,5943.2071 -5959.279,5943.2071 -9.087,0 -1360.429,-1341.3875 -3002.982,-2980.8609 z"
             id="path12399" />
          <path
             style="fill:#f59226;stroke-width:16.5989"
             d="M 13002.351,8106.3363 C 11373.505,6480.544 10040.814,5142.8877 10040.814,5133.7669 c 0,-9.1208 1334.568,-1348.6193 2965.708,-2976.663 l 2965.709,-2960.07973 2974.016,2968.37133 2974.016,2968.3715 -2969.845,2964.2776 c -1633.415,1630.3528 -2973.599,2964.2774 -2978.187,2964.2774 -4.588,0 -1341.034,-1330.1933 -2969.88,-2955.9857 z"
             id="path12397" />
          <path
             style="fill:#ca781f;stroke-width:16.5989"
             d="m 13309.719,7799.5437 c -1459.79,-1457.0586 -2654.165,-2660.3913 -2654.165,-2674.0725 0,-32.5234 5300.745,-5323.1923 5333.33,-5323.1923 32.585,0 5333.253,5290.746 5333.253,5323.27 0,32.5234 -5300.745,5323.1921 -5333.33,5323.1921 -13.707,0 -1219.297,-1192.1387 -2679.088,-2649.1973 z M 18530.888,7637.8148 21047.859,5125.3873 18518.352,2600.6519 15988.846,75.916546 13459.339,2600.6519 10929.832,5125.3873 13446.803,7637.8148 c 1384.334,1381.835 2528.253,2512.4272 2542.043,2512.4272 13.789,0 1157.708,-1130.5922 2542.042,-2512.4272 z m -2799.7,1912.0151 c -4.376,-11.8032 -9.876,-170.7099 -12.22,-353.1259 l -4.264,-331.6655 -110.989,-4.8772 c -106.757,-4.6912 -111.383,-6.6649 -121.308,-51.7671 -22.317,-101.4202 16.059,-149.781 119.367,-150.4203 66.506,-0.4113 120.781,-37.7979 149.635,-103.0738 l 28.461,-64.3863 100.334,4.8463 100.334,4.8463 v 530.6648 530.6648 l -120.696,4.8772 c -87.197,3.5234 -122.905,-1.0796 -128.654,-16.5833 z m -95.403,-1444.6956 c -56.097,-45.8438 -56.317,-54.2424 -3.456,-131.8886 l 42.235,-62.0365 -43.316,-16.4379 c -23.824,-9.0407 -50.043,-16.4377 -58.265,-16.4377 -32.223,0 -45.579,-58.4361 -26.532,-116.0829 20.19,-61.1072 54.692,-71.8898 139.178,-43.4954 34.503,11.596 37.383,7.6117 37.383,-51.7171 0,-95.693 27.88,-123.6799 116.904,-117.3509 l 74.164,5.2725 8.307,82.9164 c 6.271,62.5957 14.415,81.5192 33.229,77.2152 109.771,-25.1109 125.958,-22.7352 146.126,21.4465 37.788,82.779 26.284,119.1097 -46.979,148.3685 -58.533,23.376 -64.82,30.8212 -49.754,58.9184 9.484,17.6887 24.681,36.7485 33.77,42.3552 31.929,19.6964 16.671,88.6314 -27.252,123.1159 -58.443,45.8842 -78.51,43.4755 -128.127,-15.3797 -23.067,-27.3624 -48.494,-49.7498 -56.503,-49.7498 -8.01,0 -31.146,22.3874 -51.414,49.7498 -43.71,59.0089 -77.862,61.7515 -139.698,11.2181 z m -133.511,-983.3142 c -6.527,-6.5148 -11.867,-78.6961 -11.867,-160.4034 v -148.5585 l -49.516,9.8847 c -38.787,7.7427 -53.388,2.6659 -67.379,-23.4284 -26.26,-48.9747 -9.2,-81.9154 83.729,-161.6639 62.408,-53.5568 94.838,-70.2464 128.89,-66.3331 l 45.5,5.2291 v 273.624 273.624 l -58.745,4.9351 c -32.309,2.7143 -64.085,-0.3947 -70.612,-6.9096 z m 260.902,-12.1988 c -5.177,-13.4658 -6.986,-45.6354 -4.02,-71.4881 4.92,-42.8863 11.215,-47.0048 71.851,-47.0048 h 66.458 v 66.3331 c 0,64.7068 -1.53,66.4595 -62.438,71.4879 -43.329,3.5772 -65.319,-2.3383 -71.851,-19.3281 z m 167.597,6.0081 c -25.56,-41.2776 16.96,-124.826 117.855,-231.5783 58.5,-61.8961 106.364,-124.2497 106.364,-138.5637 0,-46.4707 -34.012,-48.5671 -74.825,-4.6122 -45.636,49.1494 -42.134,48.1973 -98.547,26.7895 -59.236,-22.4792 -56.636,-88.4701 5.948,-150.9355 41.584,-41.506 61.354,-48.4743 137.527,-48.4743 101.775,0 148.903,25.9442 179.039,98.5629 31.725,76.4448 8.175,159.0802 -69.218,242.883 l -67.542,73.136 56.114,0.2537 c 80.076,0.3615 100.986,18.9925 94.729,84.4014 l -5.387,56.3027 -185.605,4.6767 c -117.408,2.9584 -189.591,-1.7602 -196.452,-12.8419 z M 13374.619,4863.0177 c -15.124,-16.6796 -27.497,-41.3975 -27.497,-54.9288 0,-17.9797 856.646,-722.3895 966.795,-794.9841 20.047,-13.2125 -1.853,-65.0072 -27.487,-65.0072 -11.432,0 -197.55,104.4746 -413.597,232.1658 -216.046,127.6912 -407.761,232.1658 -426.032,232.1658 -24.15,0 -33.221,-11.059 -33.221,-40.5046 0,-35.4156 35.487,-59.5563 282.449,-192.1424 155.346,-83.4008 282.448,-154.3215 282.448,-157.6015 0,-3.28 -42.292,8.5593 -93.981,26.3097 -119.364,40.9897 -156.117,40.7932 -167.039,-0.8939 -10.075,-38.4567 -10.018,-38.447 -92.358,-15.6236 -56.016,15.5265 -59.96,20.0159 -37.383,42.5502 50.114,50.0202 26.683,105.0917 -55.42,130.2539 -31.328,9.6008 -51.454,-0.033 -100.999,-48.3152 l -61.875,-60.3056 -345.151,83.4362 c -189.833,45.8899 -351.859,79.2984 -360.057,74.2412 -8.198,-5.0567 -14.906,-27.1107 -14.906,-49.0084 0,-49.8503 -43.681,-37.6682 805.228,-224.5674 374.34,-82.416 683.995,-153.2177 688.122,-157.3369 12.388,-12.3652 -52.758,-8.5063 -148.668,8.8063 -132.058,23.8372 -1808.926,249.0366 -1854.364,249.0366 -29.848,0 -38.6,-9.1782 -38.6,-40.4795 0,-22.2637 6.942,-44.7622 15.428,-49.9967 14.798,-9.1281 691.671,-91.4996 754.318,-91.7961 24.612,-0.1161 28.456,-8.9581 20.201,-46.4711 -7.784,-35.3718 -1.219,-54.4902 27.755,-80.8442 85.767,-78.0074 101.069,-77.6996 212.635,4.2757 l 102.956,75.6484 127.013,-11.7532 c 69.858,-6.4643 141.202,-16.928 158.544,-23.2526 28.373,-10.3478 26.293,-15.2211 -20.768,-48.6686 -28.764,-20.4432 -52.298,-51.5862 -52.298,-69.2066 0,-19.3162 -11.546,-32.1835 -29.076,-32.4052 -149.763,-1.8947 -701.761,-33.7604 -722.515,-41.7095 -33.886,-12.9789 -51.851,-58.1265 -31.294,-78.6446 9.864,-9.8462 159.909,-5.9689 403.449,10.4255 213.258,14.356 434.831,21.5891 492.383,16.0737 64.687,-6.1992 118.608,-2.9143 141.224,8.6032 20.121,10.2472 174.901,29.5077 343.955,42.801 194.374,15.2843 330.723,33.9625 370.894,50.8085 78.471,32.9063 98.898,26.147 198.879,-65.8086 l 79.643,-73.2495 -49.742,-25.6739 c -68.979,-35.6029 -158.172,-34.8736 -144.311,1.1791 10.735,27.9204 -21.155,27.2455 -98.149,-2.0774 l -33.229,-12.6552 33.229,26.1348 c 45.579,35.8474 15.13,84.2984 -57.471,91.4489 -44.358,4.3689 -625.842,-76.3771 -760.799,-105.646 -49.342,-10.7012 -49.272,-69.1128 0.116,-91.5704 29.074,-13.2217 112.703,-0.1161 372.415,58.397 184.208,41.4962 344.904,75.4448 357.105,75.4411 12.2,0 -86.229,-50.6702 -218.73,-112.5926 -193.195,-90.2867 -241.964,-119.8468 -246.221,-149.243 -8.102,-55.9387 33.661,-46.6445 207.865,46.2595 85.512,45.604 158.796,82.9164 162.853,82.9164 4.057,0 3.256,-10.7186 -1.781,-23.8191 -5.036,-13.1004 -57.883,-55.5053 -117.437,-94.2331 -99.263,-64.55 -145.602,-119.8206 -126.958,-151.426 14.819,-25.1199 51.258,-10.9188 138.293,53.8956 48.991,36.4832 94.763,66.3331 101.714,66.3331 6.952,0 36.498,-44.6778 65.658,-99.284 65.61,-122.8655 185.845,-237.2593 310.829,-295.7286 84.627,-39.5896 114.565,-44.4441 274.089,-44.4441 h 179.085 l 14.997,-58.0415 c 140.283,-542.9223 232.284,-918.5876 226.402,-924.4595 -4.055,-4.0473 -24.73,19.5865 -45.945,52.5194 -48.345,75.0514 -94.721,73.4456 -120.788,-4.182 -10.204,-30.3875 -36.246,-68.5713 -57.872,-84.853 -34.486,-25.9639 -37.929,-38.2838 -28.006,-100.2221 14.967,-93.4587 37.692,-132.7979 76.708,-132.7979 17.633,0 40.289,-15.3463 50.346,-34.103 14.203,-26.489 31.578,-32.9682 77.821,-29.0208 57.806,4.9347 72.964,18.7045 96.866,87.9987 6.292,18.2416 13.765,25.7041 16.606,16.5833 2.841,-9.1208 17.235,-59.8462 31.987,-112.723 14.753,-52.8769 37.461,-100.2141 50.462,-105.1939 13.002,-4.9798 45.387,6.4023 71.967,25.2935 l 48.328,34.3475 70.655,-202.7777 c 195.822,-562.0007 201.494,-575.90145 235.01,-575.90145 45.632,0 163.756,63.04572 163.754,87.39924 0,11.21563 -131.153,385.11991 -291.449,830.89831 -160.296,445.7784 -288.065,813.8825 -283.931,818.0091 4.134,4.1264 82.907,-141.8565 175.05,-324.4066 92.142,-182.5502 175.381,-336.7515 184.975,-342.6694 25.896,-15.9746 99.054,37.9361 99.054,72.994 0,16.7091 -143.027,275.3762 -317.839,574.8156 l -317.84,544.4352 37.232,30.0915 c 51.53,41.6476 62.937,38.4883 102.464,-28.3785 19.01,-32.1584 48.732,-66.0384 66.049,-75.2889 17.317,-9.2503 334.753,-346.7345 705.413,-749.9646 370.66,-403.2301 685.275,-735.6868 699.145,-738.7924 28.615,-6.4074 105.326,58.9592 105.326,89.7495 0,11.1541 -284.895,308.3523 -633.1,660.4404 -437.891,442.7744 -622.801,640.1602 -599.698,640.1602 18.371,0 65.108,-26.4396 103.86,-58.7544 38.751,-32.315 84.429,-66.2179 101.506,-75.3398 48.564,-25.9421 54.995,20.6075 13.941,100.9268 -19.551,38.2515 -32.246,72.8435 -28.21,76.8714 4.035,4.0279 226.431,-146.9925 494.212,-335.601 267.781,-188.6086 498.644,-343.7424 513.028,-344.7419 20.312,-1.4113 27.239,18.5613 31.014,89.4097 l 4.859,91.2269 -800.798,497.4793 c -440.439,273.6136 -835.146,515.7296 -877.127,538.0354 -57.869,30.7481 -68.775,42.1713 -45.096,47.2347 17.178,3.6732 50.822,-8.9892 74.766,-28.1384 101.24,-80.9693 1034.519,-524.6788 1072.771,-510.0282 40.713,15.5939 32.895,105.236 -11.593,132.9024 -20.56,12.7865 -192.353,81.9865 -381.76,153.7777 -189.408,71.7911 -338.18,132.6476 -330.605,135.2367 7.576,2.589 580.713,-142.0422 1273.639,-321.4029 915.2,-236.8957 1266.999,-321.6431 1285.944,-309.7804 34.903,21.8548 62.151,99.7565 41.778,119.443 -14.41,13.9249 -2843.809,659.5333 -3044.09,694.5965 -92.708,16.2302 -127.904,0.7844 -69.41,-30.4623 19.641,-10.4921 31.091,-28.81 26.108,-41.77 -9.786,-25.4555 53.656,-80.2946 267.978,-231.6378 86.183,-60.858 137.07,-108.0275 137.07,-127.0549 0,-36.1314 -19.795,-37.3411 -107.995,-6.5994 -51.712,18.0244 -66.65,31.8595 -67.322,62.3536 -1.269,57.6249 -20.647,79.8158 -69.696,79.8158 -32.191,0 -83.857,38.1593 -196.466,145.1037 -231.224,219.5946 -303.865,277.9397 -343.702,276.0618 -28.912,-1.3632 -17.871,14.5163 54.643,78.5876 94.718,83.6908 168.456,111.2647 129.028,48.2492 -25.855,-41.3232 -9.229,-58.4089 34.241,-35.188 55.253,29.5149 118.616,-8.7776 118.929,-71.8736 0.379,-76.225 20.402,-98.0834 78.235,-85.405 27.176,5.9575 101.007,-0.7877 164.068,-14.9895 63.061,-14.2017 821.193,-145.1555 1684.738,-291.0086 1453.472,-245.492 1571.624,-263.1019 1590.849,-237.1093 41.071,55.5264 8.338,154.5301 -51.03,154.3438 -37.826,-0.116 -1997.005,266.6462 -2021.391,275.2356 -14.312,5.041 38.009,36.4834 124.61,74.8843 188.785,83.7127 203.061,96.7875 166.493,152.4922 l -27.605,42.0508 88.269,8.9648 c 48.547,4.9307 352.998,16.6297 676.557,25.9979 510.197,14.7721 592.352,20.7029 618.895,44.6785 16.833,15.2051 30.605,37.6825 30.605,49.9502 0,28.9509 -27.701,28.6877 -830.73,-7.8915 -360.953,-16.4418 -689.922,-30.0733 -731.043,-30.292 -41.122,-0.2189 -335.492,-16.8791 -654.157,-37.0227 -318.665,-20.1437 -581.343,-34.4287 -583.729,-31.7444 -2.385,2.6844 1.582,20.4721 8.818,39.5281 12.118,31.9168 58.124,40.9081 583.728,114.0817 313.816,43.6888 584.571,86.6819 601.679,95.5404 26.193,13.5627 29.441,28.2199 20.571,92.8139 -16.753,121.9932 -24.795,124.3633 -238.591,70.3103 l -186.914,-47.2567 v 65.0551 c 0,81.1568 -20.155,90.028 -154.629,68.0591 -56.594,-9.2455 -105.343,-14.6062 -108.332,-11.9126 -2.989,2.6937 38.122,30.3005 91.357,61.3489 101.233,59.0409 146.672,127.2867 109.472,164.4167 -13.941,13.9145 -73.485,-14.5993 -231.688,-110.9474 -117.109,-71.3211 -231.617,-140.274 -254.462,-153.2285 -39.98,-22.6707 -40.291,-22.5037 -8.308,4.4581 18.276,15.4063 151.664,114.3606 296.418,219.8985 144.754,105.5378 267.084,202.0206 271.846,214.4063 10.589,27.5427 -23.779,71.8471 -55.734,71.8471 -12.857,0 -62.009,-30.4804 -109.228,-67.7341 -83.647,-65.9945 -86.198,-66.8017 -99.306,-31.4333 -8.875,23.9456 -22.333,32.8999 -39.542,26.3086 -14.349,-5.4957 -152.842,-112.6159 -307.764,-238.045 -369.263,-298.9669 -345.008,-285.465 -415.883,-231.5086 -31.494,23.9766 -101.806,64.2511 -156.248,89.4989 -84.357,39.1203 -119.86,45.7919 -240.211,45.1394 -164.34,-0.8922 -267.277,-34.8538 -399.693,-131.8722 l -85.037,-62.3059 -77.467,78.9566 c -47.874,48.795 -69.617,81.9151 -56.92,86.7015 11.3,4.2596 36.623,20.7386 56.273,36.6199 32.555,26.3122 33.931,34.3028 15.506,90.0273 -11.121,33.6338 -36.444,69.8393 -56.273,80.4566 -48.392,25.9115 -178.386,17.7456 -212.833,-13.37 -25.257,-22.8139 -51.916,-2.8206 -299.302,224.4691 -167.373,153.7772 -284.93,249.6565 -306.382,249.8855 -19.145,0.204 -47.182,-13.2754 -62.305,-29.955 z m 2329.01,-890.6044 c 14.874,-32.584 14.541,-43.5575 -1.487,-48.8774 -255.127,-84.6855 -319.638,-70.6229 -141.123,30.7628 57.113,32.4367 108.249,59.236 113.635,59.5539 5.387,0.3184 18.426,-18.3297 28.975,-41.4393 z M 14035.04,3766.1429 c 156.222,-16.4019 193.135,-31.9911 153.497,-64.825 -15.833,-13.1159 -76.549,-18.2178 -179.121,-15.0513 -140.014,4.3224 -155.781,8.0294 -161.434,37.9567 -3.446,18.2416 -14.747,38.6492 -25.112,45.3502 -25.227,16.3081 33.157,15.364 212.17,-3.4306 z m 2219.639,-156.8055 c 0,-56.1939 5.181,-61.9435 89.254,-99.0544 92.311,-40.7474 132.216,-76.267 85.682,-76.267 -14.52,0 -247.434,29.8499 -517.585,66.3331 -270.152,36.4832 -512.917,66.3331 -539.477,66.3331 -56.773,0 -59.744,10.6148 -15.95,56.9727 30.788,32.5893 53.156,34.5023 465.21,39.7873 l 432.866,5.5519 z m -1181.161,-281.4941 37.498,-39.8397 -52.404,-11.4882 c -63.707,-13.9658 -73.769,-5.7607 -60.015,48.9371 13.203,52.5046 27.329,52.9553 74.921,2.3908 z M 12994.47,4607.2827 c -74.569,-98.2184 -81.274,-120.0523 -58.198,-189.5352 18.701,-56.313 26.55,-62.8863 70.568,-59.1025 27.239,2.3416 81.016,6.7882 119.504,9.8815 38.487,3.0931 81.478,15.1505 95.534,26.7939 53.307,44.1577 13.693,153.2482 -62.588,172.3575 -21.492,5.3839 -47.674,28.624 -58.183,51.6446 -25.691,56.2795 -57.494,52.6889 -106.637,-12.0398 z M 16802.962,2850.796 c -132.477,-18.7624 -157.955,-39.1954 -132.493,-106.2596 23.51,-61.9248 80.73,-123.1008 115.141,-123.1008 35.647,0 216.727,183.9888 216.727,220.2093 0,32.3142 -27.057,33.5561 -199.375,9.1511 z m 873.64,-420.2633 -81.699,-56.409 -55.36,48.5149 c -57.6,50.478 -75.614,50.643 -155.07,1.4212 -62.115,-38.48 -68.283,-52.8373 -57.693,-134.289 12.384,-95.2438 54.677,-132.6662 149.934,-132.6662 79.231,0 87.007,-7.1448 124.842,-114.711 41.237,-117.2376 63.156,-110.6458 154.803,46.5554 64.24,110.1903 94.151,261.8678 70.324,356.6198 -14.47,57.5445 -50.135,53.9714 -150.081,-15.0354 z m -1878.448,-123.787 c -46.713,-48.6657 -47.089,-50.6395 -26.867,-140.8306 26.544,-118.391 57.199,-141.1806 169.853,-126.276 25.041,3.313 51.287,106.7883 42.906,169.1577 -9.701,72.1876 -66.453,147.3064 -111.29,147.3064 -14.974,0 -48.545,-22.2108 -74.602,-49.3575 z"
             id="path12395" />
          <path
             style="fill:#9f5e18;stroke-width:16.5989"
             d="M 13318.027,7791.252 C 11862.805,6338.7537 10672.169,5139.1524 10672.169,5125.4712 c 0,-13.6812 1196.252,-1218.8532 2658.338,-2678.16 l 2658.339,-2653.28507 2658.338,2653.28507 c 1462.086,1459.3068 2658.338,2664.4963 2658.338,2678.1989 0,32.5491 -5284.105,5306.6479 -5316.716,5306.6479 -13.707,0 -1215.557,-1188.4078 -2670.779,-2640.906 z M 18539.196,7646.161 21064.583,5125.4965 18526.714,2592.4149 15988.846,59.333222 13450.977,2592.4149 10913.108,5125.4965 13438.495,7646.161 c 1388.963,1386.3654 2536.621,2520.665 2550.351,2520.665 13.729,0 1161.387,-1134.2996 2550.35,-2520.665 z m -2770.494,1905.7551 c -26.191,-15.2261 -29.076,-50.547 -29.076,-356.0362 v -339.1331 h -92.472 c -121.647,0 -156.747,-19.8118 -156.747,-88.4747 0,-68.8304 25.535,-93.9413 95.528,-93.9413 79.2,0 144.902,-39.2275 176.295,-105.2565 28.534,-60.019 54.885,-77.1595 118.621,-77.1595 95.545,0 91.38,-24.5658 91.38,538.9564 0,575.6942 7.639,539.4546 -113.508,538.4522 -33.52,-0.277 -74.03,-8.1106 -90.021,-17.4073 z m -123.05,-1464.312 -45.983,-39.4786 45.057,-67.9571 c 24.781,-37.3764 45.056,-71.5487 45.056,-75.9387 0,-4.3897 -29.515,-16.8078 -65.59,-27.5957 -76.559,-22.8945 -92.371,-51.07 -62.792,-111.889 22.262,-45.7722 65.369,-54.7724 140.843,-29.4065 34.62,11.6354 37.383,7.6789 37.383,-53.5303 0,-101.9485 11.805,-118.5568 84.266,-118.5568 74.495,0 98.495,30.4728 98.495,125.0586 0,51.2271 4.621,59.1217 29.076,49.6787 78.55,-30.3314 117.431,-28.9484 135.538,4.8214 35.869,66.8945 22.435,103.344 -48.312,131.0815 -36.552,14.331 -66.458,30.937 -66.458,36.9023 0,5.9653 18.393,35.7297 40.874,66.1432 46.982,63.5609 36.176,105.3173 -35.715,138.0117 -39.196,17.8252 -46.958,14.249 -96.242,-44.342 l -53.606,-63.7311 -45.93,60.1036 c -53.973,70.6292 -74.151,73.6901 -135.96,20.6248 z m -130.535,-992.8302 c -4.112,-11.401 -9.485,-84.1601 -11.94,-161.6869 -4.686,-147.9993 -1.668,-143.5407 -81.78,-120.8369 -32.061,9.086 -56.646,-48.4308 -35.844,-83.8566 18.162,-30.9306 169.649,-160.1386 187.751,-160.1386 7.929,0 26.166,11.7267 40.526,26.0595 21.127,21.0871 26.109,68.2916 26.109,247.3928 0,121.7333 -4.539,233.1374 -10.085,247.5645 -12.09,31.4449 -103.794,35.8425 -114.737,5.5022 z m 269.578,10.4349 c -25.128,-25.0802 -11.944,-103.5206 19.049,-113.3389 55.692,-17.6425 87.66,7.0912 82.155,63.5627 -4.042,41.4527 -13.456,52.7573 -47.207,56.6859 -23.187,2.699 -47.486,-0.4096 -53.997,-6.9097 z m 161.639,-11.1375 c -15.807,-41.1134 22.856,-107.3946 124.606,-213.6145 102.679,-107.191 125.408,-166.5108 71.684,-187.0877 -20.019,-7.6674 -40.034,2.7328 -64.714,33.6269 -28.435,35.5939 -44.571,42.5136 -79.013,33.8855 -86.345,-21.6306 -38.742,-145.4153 67.145,-174.5969 78.889,-21.7412 145.594,-6.719 196.709,44.2989 73.398,73.2599 50.623,191.5796 -56.432,293.1686 -28.23,26.7886 -51.327,54.3439 -51.327,61.2337 0,6.8901 31.775,14.822 70.612,17.6266 66.246,4.7841 70.612,8.1754 70.612,54.8491 v 49.7499 l -170.597,4.7292 c -132.013,3.6596 -172.562,-0.3814 -179.285,-17.8693 z M 13389.528,4844.5539 c -16.061,-17.7138 -26.565,-39.6531 -23.343,-48.7542 3.222,-9.1009 218.941,-185.5725 479.375,-392.1589 260.434,-206.5865 479.817,-381.6016 487.517,-388.9223 20.182,-19.1883 -18.57,-83.2042 -50.368,-83.2042 -14.791,0 -200.554,104.4746 -412.808,232.1658 -212.254,127.6912 -398.019,232.1659 -412.811,232.1659 -45.592,0 -29.768,-48.4913 27.102,-83.0519 29.699,-18.0481 176.334,-97.8801 325.855,-177.4045 149.521,-79.5245 263.553,-147.3527 253.403,-150.7296 -10.15,-3.3768 -78.539,13.833 -151.978,38.2439 -138.057,45.8905 -182.214,45.4703 -182.214,-1.7341 0,-29.2916 -27.434,-27.4367 -173.051,11.6998 l -66.866,17.9711 53.5,22.4526 c 58.582,24.5852 67.749,57.213 27.391,97.4939 -39.845,39.7699 -74.739,31.6596 -140.799,-32.7241 l -60.313,-58.7837 -344.933,86.132 c -285.625,71.3225 -347.404,82.1425 -359.305,62.9294 -8.916,-14.3935 -6.379,-31.1835 6.682,-44.2241 19.344,-19.3146 885.237,-217.6676 1315.22,-301.2821 236.493,-45.9883 264.089,-57.3457 241.536,-99.4075 -9.481,-17.6816 -17.238,-55.0264 -17.238,-82.9885 0,-62.7542 33.34,-66.1319 174.453,-17.6734 53.121,18.2416 102.278,33.1665 109.24,33.1665 6.961,0 52.072,-33.5811 100.247,-74.6247 48.174,-41.0436 99.252,-74.5266 113.505,-74.4067 14.253,0.1161 78.251,44.7966 142.217,99.2816 112.526,95.8463 161.146,117.8242 182.908,82.6794 5.728,-9.2512 39.814,-31.7903 75.746,-50.0868 57.299,-29.1765 65.331,-40.4256 65.331,-91.4916 0,-61.6619 29.237,-86.9302 72.567,-62.7174 13.607,7.6037 79.481,66.0624 146.387,129.908 l 121.646,116.0829 581.512,82.9164 581.511,82.9164 -1.058,78.9977 c -0.582,43.4487 -9.014,86.9384 -18.738,96.6434 -12.495,12.4719 -73.481,2.6808 -208,-33.3938 -104.677,-28.0716 -194.392,-51.0393 -199.366,-51.0393 -4.974,0 -5.251,33.5811 -0.616,74.6247 8.296,73.4623 7.665,74.6248 -40.526,74.6248 -26.924,0 -91.919,-7.9277 -144.432,-17.6169 -52.513,-9.6893 -103.824,-14.8404 -114.024,-11.447 -10.199,3.3936 32.967,34.4311 95.926,68.9722 114.366,62.745 155.794,99.3036 156.789,138.3619 1.104,43.2574 -58.215,15.0095 -372.701,-177.4852 -526.182,-322.0732 -523.717,-313.6816 24.323,82.7889 228.451,165.2691 415.365,311.3214 415.365,324.5607 0,13.2393 -11.416,28.444 -25.369,33.7883 -24.277,9.2982 -82.471,-25.5832 -205.783,-123.3471 l -56.699,-44.9518 8.872,46.4779 c 7.232,37.8857 3.421,45.55 -20.615,41.4582 -16.218,-2.7609 -165.148,-115.0912 -330.956,-249.623 -165.807,-134.5318 -308.567,-244.6033 -317.244,-244.6033 -8.677,0 -53.38,26.9642 -99.339,59.9205 -100.582,72.1246 -253.502,122.4955 -371.881,122.4955 -148.391,0 -257.47,-43.7934 -437.824,-175.7791 -36.426,-26.6572 -40.115,-25.0852 -124.609,53.1047 -47.89,44.3163 -89.223,85.2944 -91.852,91.0624 -2.629,5.768 17.683,19.774 45.137,31.1246 27.455,11.3508 54.319,34.4781 59.698,51.3942 10.947,34.4251 -17.163,96.6629 -56.843,125.8543 -35.66,26.2341 -164.763,13.5583 -201.697,-19.8032 -28.42,-25.6713 -45.425,-13.199 -304.05,223.0072 -150.671,137.6097 -284.649,250.1993 -297.728,250.1993 -13.08,0 -36.923,-14.4931 -52.984,-32.207 z m 2308.562,-591.3324 c -157.452,-132.4591 -326.963,-257.9294 -336.119,-248.7909 -14.681,14.6533 -2.538,25.0016 194.895,166.0863 177.668,126.9612 230.857,158.1101 141.224,82.7046 z m 22.681,-272.9098 c 12.367,-27.8861 18.604,-54.5759 13.86,-59.3106 -10.226,-10.2068 -243.29,-71.7084 -273.3,-72.119 -11.422,-0.1492 -20.702,12.7751 -20.621,28.7365 0.1,18.596 40.379,51.1875 112.148,90.7288 61.601,33.9395 119.523,61.9238 128.715,62.1873 9.192,0.2636 26.831,-22.3367 39.198,-50.223 z m -2738.514,588.092 c -52.227,-72.5886 -53.876,-79.3349 -34.866,-142.666 18.271,-60.8661 23.709,-65.5484 64.465,-55.4973 24.48,6.0375 75.085,13.0875 112.454,15.6667 85.556,5.9052 106.51,18.903 106.51,66.0683 0,37.9906 -61.902,109.7033 -94.694,109.7033 -9.783,0 -30.034,18.6562 -45.003,41.4582 -14.969,22.802 -33.252,41.4582 -40.631,41.4582 -7.378,0 -38.084,-34.2861 -68.235,-76.1914 z m -864.617,-536.6384 c 0,-23.6972 14.523,-34.7988 53.998,-41.2786 48.205,-7.9128 769.664,-91.1581 804.292,-92.803 7.688,-0.3648 -6.583,-11.7971 -31.713,-25.4044 -71.481,-38.7063 -54.466,-76.8414 64.84,-145.3167 10.531,-6.0448 64.644,23.1449 120.25,64.8658 l 101.102,75.8564 177.415,-17.8221 c 97.578,-9.8022 180.599,-21.0001 184.49,-24.8845 3.892,-3.8843 -23.516,-27.2692 -60.907,-51.9665 -47.75,-31.5401 -67.983,-56.5866 -67.983,-84.1587 0,-36.9506 -6.094,-39.3347 -103.841,-40.623 -57.113,-0.7529 -225.412,-6.6917 -373.997,-13.1975 -219.114,-9.5941 -275.39,-17.0532 -297.859,-39.4803 -25.862,-25.8128 -25.793,-28.3831 1.033,-38.6577 15.805,-6.0536 204.078,0.9386 418.383,15.5378 242.35,16.5098 404.487,20.9124 428.905,11.6461 24.06,-9.1304 64.236,-8.3795 103.774,1.9398 35.483,9.2609 118.72,24.4981 184.97,33.8604 118.034,16.6799 165.539,46.3033 74.255,46.3033 -36.077,0 -50.324,10.9013 -65.015,49.7498 -12.626,33.3856 -30.219,49.7498 -53.487,49.7498 -19.743,0 -34.672,10.7103 -34.672,24.8749 0,17.9019 19.794,25.424 70.612,26.8336 45.052,1.2504 -13.587,16.1997 -161.992,41.3003 -264.007,44.6528 -1435.45,205.4902 -1496.668,205.4902 -28.798,0 -40.185,-9.1852 -40.185,-32.4152 z m 5374.828,-243.0129 c -228.451,-12.1441 -520.037,-24.8998 -647.97,-28.346 -320.33,-8.6288 -772.579,-46.7061 -772.579,-65.0474 0,-8.3215 28.037,-13.8364 62.304,-12.2552 131.423,6.0642 139.812,3.242 136.563,-45.9426 -5.07,-76.7387 -1.808,-81.6733 72.77,-110.1015 39.745,-15.1499 90.212,-47.0604 112.149,-70.9124 l 39.886,-43.3673 -99.687,10.5198 c -54.829,5.7859 -241.192,29.2202 -414.142,52.0761 -292.545,38.6611 -457.015,51.5035 -439.822,34.343 15.374,-15.3455 488.123,-99.7554 1766.447,-315.4015 989.368,-166.9007 1333.479,-219.3363 1349.937,-205.7029 28.037,23.2244 28.603,87.6958 0.971,110.5849 -11.615,9.6213 -465.817,77.5973 -1009.338,151.0579 -1115.721,150.7972 -1096.306,147.8958 -1095.963,163.781 0.133,6.4274 67.238,40.5745 149.109,75.8826 209.879,90.5132 214.201,94.3922 169.035,151.7033 -20.027,25.4124 -33.754,48.8585 -30.504,52.1027 3.251,3.244 313.528,16.0287 689.505,28.4103 672.437,22.1443 733.908,28.7396 733.908,78.7413 0,19.1441 -261.57,15.0386 -772.58,-12.1261 z M 15985.73,3688.0202 c 11.994,-4.7904 26.324,-4.2013 31.845,1.3085 5.521,5.5104 -4.292,9.4299 -21.807,8.7098 -19.355,-0.796 -23.292,-4.7252 -10.038,-10.0189 z m -2139.979,-152.025 c -224.076,-35.9384 -274.942,-49.1133 -279.399,-72.3659 -10.129,-52.8519 68.798,-48.8266 358.354,18.2759 467.171,108.2638 427.646,135.3416 -78.955,54.09 z m 863.769,-11.5633 c -105.505,-55.9052 -111.298,-56.9966 -251.304,-47.3481 l -143.309,9.8762 -54.457,-67.6372 c -29.952,-37.2005 -101.91,-98.4956 -159.908,-136.2111 -67.851,-44.1231 -105.45,-79.7053 -105.45,-99.7926 0,-43.1462 9.95,-40.1545 106.485,32.0173 46.521,34.7797 93.598,68.597 104.616,75.1496 13.212,7.8576 34.68,-18.9907 63.057,-78.861 122.626,-258.7224 417.457,-424.0268 673.305,-377.5056 56.106,10.2015 98.1,10.6383 109.613,1.1393 10.265,-8.4688 27.677,-61.9092 38.695,-118.7565 11.017,-56.8473 64.776,-277.3007 119.466,-489.8965 54.689,-212.5957 96.644,-394.8924 93.234,-405.1035 -3.41,-10.2112 -31.306,12.6157 -61.99,50.7264 -66.15,82.1592 -97.256,87.4949 -110.974,19.0358 -5.538,-27.641 -28.828,-64.9834 -51.754,-82.9831 -39.114,-30.7092 -40.772,-38.0896 -26.897,-119.7221 13.225,-77.8115 19.526,-87.5414 59.683,-92.1663 26.351,-3.0351 49.007,-18.0972 54.847,-36.4642 23.844,-74.9831 130.841,-51.3386 149.403,33.0153 16.765,76.1846 38.172,74.9682 58.383,-3.3174 48.267,-186.9584 59.624,-201.6565 120.297,-155.6858 35.615,26.9846 36.667,67.3511 4.153,159.3313 -13.707,38.7766 -24.572,78.8929 -24.144,89.1472 1.169,28.0439 51.012,-104.6305 210.134,-559.339 79.363,-226.78851 154.715,-416.16642 167.544,-421.08026 28.796,-11.02906 134.595,37.60499 145.927,67.07986 4.569,11.88223 -131.119,409.27 -301.527,883.084 -311.859,867.1127 -341.601,952.6884 -331.105,952.6884 3.153,0 100.804,-184.6962 217.002,-410.436 116.198,-225.7399 219.234,-415.5122 228.97,-421.7164 26.922,-17.1565 77.643,16.7271 77.643,51.8685 0,24.4911 -305.151,560.622 -598.259,1051.1022 l -37.963,63.5276 44.149,44.066 c 49.884,49.7895 81.395,41.1728 126.328,-34.5439 14.002,-23.5942 50.925,-63.7559 82.053,-89.2481 31.127,-25.4921 348.454,-363.7249 705.17,-751.6283 356.716,-387.9035 658.904,-707.7987 671.53,-710.8783 24.868,-6.0659 86.942,42.3817 86.942,67.8561 0,8.612 -282.241,302.8203 -627.202,653.7961 -344.961,350.9757 -629.694,645.0031 -632.74,653.3941 -14.534,40.0383 84.84,8.2021 159.432,-51.0767 75.489,-59.9918 120.248,-81.3908 120.248,-57.4902 0,4.8637 -18.692,45.6592 -41.537,90.6568 -47.562,93.6827 -50.156,106.3495 -19.364,94.5557 12.195,-4.6709 245.242,-165.7719 517.882,-358.0021 518.199,-365.3667 539.895,-376.0976 539.895,-267.025 0,25.2351 -13.084,61.1301 -29.075,79.7665 -15.992,18.6365 -335.615,223.3387 -710.275,454.894 -824.714,509.7078 -920.559,566.7191 -932.577,554.7241 -5.152,-5.1423 62.385,-62.475 150.081,-127.4063 158.17,-117.1108 172.952,-135.78 143.849,-181.6849 -12.956,-20.4372 -25.251,-20.601 -86.972,-1.1591 -96.57,30.4203 -113.419,45.5159 -113.419,101.6163 0,41.3118 -6.304,47.7194 -46.948,47.7194 -29.15,0 -62.216,16.3418 -87.226,43.1085 -22.154,23.7096 -69.357,66.2026 -104.896,94.4288 -50.615,40.2001 -60.632,43.89 -46.229,17.0289 17.155,-31.9951 13.139,-34.8816 -59.975,-43.1071 -43.098,-4.8486 -83.089,-5.8991 -88.868,-2.3344 -5.778,3.5648 1.572,40.0048 16.333,80.978 l 26.84,74.4969 -82.186,83.2826 c -45.202,45.8057 -89.943,82.9209 -99.425,82.4783 -9.481,-0.4428 -65.837,-26.5556 -125.234,-58.029 z m 511.504,-335.9281 c 22.242,-33.4352 21.487,-36.4034 -9.261,-36.4034 -30.978,0 -53.648,29.1877 -53.648,69.0713 0,26.1739 36.309,7.3194 62.909,-32.6679 z m -1167.781,211.1179 c -154.566,-69.0246 -206.668,-104.8125 -184.625,-126.814 12.891,-12.867 256.957,108.8485 328.658,163.9016 60.244,46.2563 18.566,35.5246 -144.033,-37.0876 z m 1370.706,-14.0068 c 57.486,-32.8145 2765.754,-735.1528 2805.409,-727.5303 26.741,5.14 66.191,87.6843 49.75,104.0942 -10.254,10.2349 -2154.993,498.2374 -2556.096,581.6007 -286.345,59.5124 -344.212,67.6073 -299.063,41.8354 z m 81.492,-93.4552 c 70.368,-51.8739 870.877,-423.4794 893.55,-414.7958 12.009,4.5997 21.834,27.6344 21.834,51.188 0,33.7939 -13.139,48.3256 -62.304,68.9089 -189.581,79.3688 -799.07,307.3627 -842.326,315.0922 l -50.71,9.0614 z m 1292.106,-455.2578 c -53.237,-6.7928 -103.982,-19.5241 -112.766,-28.2917 -33.739,-33.6757 46.966,-170.5913 100.555,-170.5913 31.131,0 200.386,165.0221 200.386,195.375 0,22.0078 -37.684,22.7103 -188.175,3.508 z m 879.207,-422.6261 c -63.869,-44.2755 -88.182,-52.9874 -112.149,-40.1851 -16.83,8.9903 -30.6,23.2833 -30.6,31.7623 0,8.479 -15.564,23.73 -34.586,33.8909 -28.451,15.1979 -46.132,10.8476 -99.688,-24.5266 -70.195,-46.3659 -79.313,-79.8084 -46.99,-172.3555 18.769,-53.7399 86.34,-85.4576 182.5,-85.6654 36.479,-0.083 46.377,-11.6729 67.259,-78.7898 35.127,-112.8956 65.978,-109.5028 141.443,15.5548 58.839,97.504 63.158,113.578 63.662,236.9229 0.648,158.3728 -11.511,166.121 -130.851,83.3915 z m -1869.798,-115.2891 c -32.48,-34.5078 -36.518,-51.4028 -27.165,-113.6559 12.124,-80.6964 60.204,-144.3098 109.072,-144.3098 80.015,0 111.793,162.3265 49.007,250.335 -41.954,58.8087 -80.623,61.0627 -130.914,7.6307 z"
             id="path12393" />
          <path
             style="fill:#744511;stroke-width:16.5989"
             d="M 13313.886,7770.484 10663.991,5125.3935 13326.419,2467.9884 15988.846,-189.41653 18651.325,2468.0403 21313.803,5125.497 18663.805,7770.5359 c -1457.499,1454.7712 -2661.254,2645.0391 -2675.011,2645.0391 -13.757,0 -1217.466,-1190.2911 -2674.908,-2645.091 z m 5221.129,-103.5667 c 1386.708,-1384.0703 2521.288,-2527.7035 2521.288,-2541.4072 0,-13.7036 -1140.178,-1162.9246 -2533.729,-2553.8243 L 15988.846,42.77716 13455.117,2571.6858 c -1393.551,1390.8997 -2533.729,2540.1023 -2533.729,2553.7835 0,32.5237 5034.832,5057.9397 5067.417,5057.9397 13.707,0 1159.501,-1132.4213 2546.21,-2516.4917 z m -2767.698,1875.2715 c -6.092,-6.0804 -11.191,-157.1955 -11.33,-335.8113 -0.133,-178.6156 -5.942,-333.6843 -12.892,-344.5971 -7.058,-11.081 -60.129,-22.0638 -120.202,-24.8749 l -107.564,-5.0336 v -66.3331 c 0,-58.4384 4.943,-66.8959 41.537,-71.0628 101.663,-11.5763 176.846,-53.6742 214.14,-119.9063 34.431,-61.1464 42.566,-66.0716 109.13,-66.0716 50.259,0 74.963,7.9014 82.01,26.2312 5.547,14.4272 10.085,237.6911 10.085,496.1419 0,258.4509 -4.538,481.7148 -10.085,496.1419 -7.416,19.2895 -33.064,26.2313 -96.919,26.2313 -47.758,0 -91.818,-4.975 -97.91,-11.0556 z M 15652.4,8087.4147 c -37.398,-28.335 -36.273,-57.9963 4.153,-109.5814 49.881,-63.6488 41.71,-91.714 -33.229,-114.1236 -69.278,-20.717 -80.383,-44.5031 -48.522,-103.9239 15.678,-29.2393 28.229,-32.0381 99.688,-22.2286 l 81.751,11.2226 v -85.4261 -85.4261 l 70.612,5.0994 70.612,5.0993 5.122,80.1938 5.123,80.1937 81.932,-11.2473 c 78.219,-10.7376 82.708,-9.208 99.076,33.7606 20.99,55.104 1.208,84.1404 -67.601,99.2248 -69.108,15.1502 -72.482,31.43 -22.222,107.2345 43.064,64.9515 43.544,68.225 14.66,100.0805 -42.163,46.5017 -84.249,40.9297 -127.024,-16.8172 -20.268,-27.3624 -46.151,-49.7499 -57.517,-49.7499 -11.367,0 -36.638,22.3875 -56.158,49.7499 -38.232,53.5898 -74.364,61.5883 -120.456,26.665 z m -125.441,-991.8116 c -12.681,-12.6572 -19.937,-76.6774 -19.937,-175.8987 0,-142.0659 -2.597,-154.9315 -29.076,-144.0514 -75.142,30.8762 -87.241,29.3917 -86.478,-10.6105 0.922,-48.3538 151.256,-185.3454 194.34,-177.0918 26.06,4.9923 29.706,32.2562 33.823,252.8736 3.484,186.7064 -0.586,250.5718 -16.615,260.7244 -29.889,18.9319 -52.937,17.1302 -76.057,-5.9456 z m 263.173,-4.1792 c -30.217,-36.3409 -5.488,-92.0038 40.875,-92.0038 25.012,0 43.223,12.3457 50.097,33.9624 11.625,36.5593 -16.169,82.1205 -50.097,82.1205 -11.47,0 -29.863,-10.8357 -40.875,-24.0791 z m 173.208,6.5532 c -23.035,-37.2007 14.326,-105.6464 117.543,-215.3384 109.444,-116.3098 122.634,-143.2336 87.4,-178.4009 -30.541,-30.4839 -76.535,-23.7149 -96.897,14.2605 -21.755,40.5716 -104.306,39.0242 -112.106,-2.1013 -8.205,-43.2648 59.81,-112.9139 121.557,-124.4756 126.646,-23.7142 207.072,34.0261 207.072,148.6644 0,63.1382 -10.112,84.0562 -75.975,157.1732 -41.785,46.3882 -71.25,91.9702 -65.477,101.2933 5.772,9.3231 40.195,16.9511 76.495,16.9511 72.157,0 100.133,32.3193 64.781,74.8358 -24.678,29.6794 -306.594,35.8827 -324.393,7.1379 z M 13406.948,4855.1592 c -16.616,-12.1268 -27.528,-34.063 -24.25,-48.7473 4.768,-21.3586 362.046,-313.2423 926.602,-757.0015 l 56.681,-44.5533 -30.471,-46.4171 c -28.288,-43.0908 -35.922,-45.6149 -106.525,-35.2243 -41.83,6.156 -155.269,36.6603 -252.087,67.7871 -207.634,66.754 -238.398,69.94 -226.211,23.4279 6.122,-23.3664 0.558,-33.0827 -18.831,-32.8824 -35.666,0.3682 -268.615,60.7036 -280.615,72.6811 -10.891,10.8708 21.01,22.9865 78.642,29.8669 61.778,7.3758 67.219,74.5991 7.254,89.621 -37.156,9.308 -54.164,1.2454 -100.268,-47.5295 -49.747,-52.6296 -61.189,-57.3653 -110.017,-45.5318 -669.256,162.1947 -706.545,168.5535 -643.326,109.7064 25.245,-23.4985 942.735,-226.0166 1211.878,-267.4983 86.811,-13.3799 198.96,-34.0246 249.219,-45.8771 l 91.381,-21.5502 -5.092,-94.6274 c -4.873,-90.5555 -3.355,-94.6275 35.294,-94.6275 22.212,0 72.172,11.1937 111.022,24.8749 109.07,38.4095 140.813,31.62 232.605,-49.7498 46.3,-41.0436 90.104,-74.6248 97.342,-74.6248 7.237,0 69.888,48.5061 139.224,107.7913 69.335,59.2852 134.494,107.7913 144.797,107.7913 19.882,0 100.647,-52.7159 162.765,-106.2379 22.334,-19.2434 37.383,-51.0732 37.383,-79.0687 0,-30.3168 8.681,-46.8592 24.591,-46.8592 29.392,0 247.235,192.9547 254.922,225.7975 2.955,12.6234 7.798,22.9516 10.763,22.9516 70.968,0 1180.383,169.428 1187.794,181.3981 16.796,27.1248 -1.144,135.4048 -23.877,144.1115 -11.315,4.334 -109.274,-14.4938 -217.686,-41.8398 -108.411,-27.3458 -199.072,-47.7634 -201.468,-45.3725 -2.395,2.391 4.621,28.0813 15.591,57.0898 16.437,43.4664 15.656,56.8867 -4.443,76.3069 -20.929,20.222 -42.063,20.3542 -148.998,0.932 -221.696,-40.266 -230.975,-28.2639 -53.267,68.9017 115.306,63.0458 152.955,96.1146 152.955,134.3482 0,17.7838 -7.556,18.3836 -37.383,2.9674 -80.13,-41.4155 -627.694,-383.8061 -636.474,-397.9861 -15.437,-24.9302 10.998,-17.1458 82.578,24.3169 85.778,49.6864 151.574,71.3475 134.894,44.4091 -6.574,-10.6162 -7.368,-37.5344 -1.765,-59.8182 7.646,-30.4032 21.513,-40.6414 55.562,-41.0198 69.011,-0.7662 19.671,-22.82 -161.863,-72.3457 -175.235,-47.8076 -194.846,-42.9245 -203.36,50.6365 -4.628,50.8649 7.485,61.183 410.597,349.7507 382.982,274.1584 471.509,352.377 398.814,352.377 -28.613,0 -157.812,-96.5881 -554.091,-414.2348 -131.092,-105.08 -252.196,-201.0344 -269.12,-213.2315 -27.337,-19.7026 -38.745,-14.5127 -102.25,46.5162 -113.323,108.9052 -261.565,173.5087 -414.146,180.4834 -168.638,7.7086 -282.666,-26.5345 -412.34,-123.8281 l -102.084,-76.5933 -97.092,89.0074 c -53.401,48.954 -97.937,96.7921 -98.969,106.3069 -1.032,9.515 22.422,24.4399 52.121,33.1665 61.629,18.1093 79.786,76.8746 40.374,130.6718 -29.593,40.3943 -182.229,52.0706 -212.038,16.2202 -10.626,-12.7785 -29.385,-23.2338 -41.688,-23.2338 -12.302,0 -142.644,110.0715 -289.647,244.6033 -147.004,134.5318 -272.773,246.5696 -279.486,248.9727 -6.714,2.403 -25.801,-5.5526 -42.417,-17.6795 z m -416.717,-293.0152 c -36.814,-53.0222 -43.647,-76.9654 -35.037,-122.7734 12.293,-65.4069 43.189,-84.059 86.672,-52.3239 16.805,12.2653 52.622,18.6078 80.534,14.2611 28.416,-4.425 63.442,1.9907 80.573,14.7583 26.006,19.3832 27.448,28.8415 10.17,66.6908 -11.073,24.2574 -40.953,51.3486 -66.399,60.2026 -25.447,8.854 -54.586,31.6129 -64.753,50.5752 -25.937,48.3726 -39.633,43.6876 -91.76,-31.3907 z m 2732.781,-200.569 c -372.894,-304.2898 -372.307,-318.6203 2.227,-54.3122 137.098,96.7501 246.923,186.0296 251.817,204.7077 4.995,19.0653 0.523,33.0211 -10.534,32.8805 -10.567,-0.1343 -120.147,-82.6086 -243.51,-183.276 z m -2282.595,20.7793 c -5.191,-8.3832 3.469,-26.6276 19.245,-40.5429 38.662,-34.1017 518.615,-283.3581 527.857,-274.1342 6.043,6.0317 -482.842,308.7899 -524.637,324.8984 -7.165,2.7616 -17.275,-1.8379 -22.465,-10.2213 z m -1314.763,-335.2312 c -6.47,-10.4495 -5.313,-24.8578 2.572,-32.0188 7.885,-7.1609 201.251,-33.1404 429.702,-57.7322 228.451,-24.592 432.493,-48.1515 453.427,-52.3546 52.355,-10.5116 29.345,-39.8363 -31.257,-39.8363 -71.841,0 -82.54,-45.4772 -22.063,-93.7773 26.668,-21.2984 55.273,-38.7612 63.567,-38.8065 8.294,-0.05 55.739,31.2263 105.433,69.4927 59.702,45.973 113.766,72.8668 159.373,79.2787 51.186,7.1961 -76.949,30.0699 -495.876,88.5203 -310.693,43.3494 -584.745,82.7357 -609.005,87.5251 -24.495,4.8358 -49.34,0.2603 -55.873,-10.2911 z m 1454.138,-261.5526 c -73.743,-37.058 -92.949,-55.3536 -99.81,-95.076 l -8.494,-49.1875 -373.707,-13.7285 c -286.124,-10.511 -379.409,-19.2555 -398.036,-37.3124 -21.102,-20.4561 -8.982,-23.5524 91.381,-23.3461 63.639,0.1327 246.046,10.8571 405.348,23.836 184.512,15.0332 300.201,17.9564 318.739,8.0538 42.399,-22.6484 132.959,-17.9752 180.816,9.3306 22.845,13.0348 62.097,23.9642 87.226,24.2872 39.735,0.5108 45.691,7.1846 45.691,51.2002 0,40.938 -9.21,53.8169 -48.18,67.3762 -26.498,9.2201 -51.966,31.2194 -56.595,48.8872 -11.189,42.7062 -35.746,40.2705 -144.379,-14.3207 z m 4502.495,19.4812 c -101.636,-8.3969 -1183.515,-58.8815 -1363.731,-63.6371 -95.216,-2.5126 -230.258,-10.2037 -300.092,-17.0916 l -126.97,-12.5233 -10.458,-65.2733 c -13.063,-81.539 -7.068,-90.9273 73.436,-115.0015 35.843,-10.7185 81.692,-37.0428 101.887,-58.4985 20.194,-21.4556 50.032,-39.0104 66.305,-39.0104 31.532,0 328.56,125.5759 352.953,149.2193 8.182,7.9308 -1.001,35.7914 -21.07,63.9214 -19.565,27.4248 -29.631,53.5282 -22.37,58.0075 7.262,4.4793 312.067,16.6217 677.347,26.9831 631.854,17.9232 753.898,29.0776 730.558,66.7713 -9.83,15.876 -30.257,16.6698 -157.795,6.1331 z m -3389.381,-296.7013 c -104.22,-54.7397 -112.694,-56.3787 -242.392,-46.8812 l -134.396,9.8413 -56.672,-68.8692 c -31.169,-37.878 -99.662,-95.3157 -152.206,-127.6391 -52.543,-32.3236 -95.534,-69.8639 -95.534,-83.423 0,-29.2317 16.199,-21.2633 110.792,54.5009 38.09,30.5084 79.211,55.4422 91.38,55.4084 12.169,-0.033 46.979,-48.036 77.355,-106.6716 66.709,-128.7719 186.587,-244.8003 314.976,-304.8629 86.198,-40.3246 112.294,-44.313 281.533,-43.0288 l 186.528,1.4162 15.751,-51.1652 c 8.662,-28.1408 27.896,-114.5963 42.742,-192.1231 14.846,-77.5268 64.006,-283.9512 109.245,-458.7209 45.239,-174.7696 81.918,-331.4815 81.508,-348.2487 -0.545,-22.302 -20.199,-8.8212 -73.216,50.2193 -68.418,76.19 -108.8,88.9016 -108.8,34.2482 0,-13.2259 -21.59,-46.5966 -47.978,-74.1574 -42.973,-44.8814 -46.481,-56.5458 -33.626,-111.7862 7.894,-33.9217 14.531,-67.2727 14.749,-74.1133 0.218,-6.8406 18.584,-12.4374 40.814,-12.4374 25.809,0 44.224,-11.9733 50.951,-33.1281 10.963,-34.478 76.906,-60.6819 106.605,-42.3617 9.405,5.802 26.029,40.2931 36.942,76.6469 23.362,77.8312 48.72,76.9859 68.554,-2.2851 39.592,-158.2365 48.47,-181.2889 69.813,-181.2889 12.702,0 34.194,11.0778 47.759,24.6172 21.808,21.7674 21.221,35.6856 -5.069,120.2288 -16.354,52.5864 -67.998,218.1616 -114.766,367.9448 -46.768,149.7835 -82.292,275.0691 -78.943,278.4127 6.596,6.5835 193.91,-509.8929 401.224,-1106.2857 71.336,-205.21803 137.803,-381.82838 147.704,-392.46744 26.266,-28.22235 142.613,21.34988 142.613,60.76314 0,16.26923 -149.763,446.2075 -332.806,955.4182 -183.043,509.2108 -330.353,937.253 -327.355,951.205 2.999,13.9518 111.783,-185.4478 241.744,-443.1104 135.13,-267.9106 245.955,-468.4775 258.862,-468.4775 42.922,0 64.22,43.7651 41.85,86.0022 -34.649,65.4253 -424.477,731.9525 -521.417,891.5208 -50.557,83.2182 -91.922,165.4268 -91.922,182.6857 0,33.624 72.991,100.1202 109.898,100.1202 12.289,0 37.474,-29.6004 55.965,-65.7786 18.492,-36.1782 48.338,-73.6397 66.324,-83.2475 17.987,-9.6081 325.487,-336.3407 683.335,-726.0729 357.848,-389.7321 665.667,-721.856 684.043,-738.053 31.328,-27.6148 35.332,-27.7128 64.268,-1.5754 16.972,15.3305 30.858,37.144 30.858,48.4744 0,11.3302 -285.248,309.0293 -633.884,661.5534 -453.524,458.5814 -628.783,646.0441 -615.957,658.8459 27.182,27.131 92.233,3.8231 169.758,-60.8253 116.551,-97.1918 125.274,-81.8934 40.043,70.2265 -75.965,135.5819 -98.783,147.7321 458.529,-244.1667 554.471,-389.9018 567.566,-398.6043 584.287,-388.2904 25.353,15.6397 14.574,116.8756 -15.237,143.0984 -26.047,22.9123 -1247.452,780.7248 -1406.029,872.3614 -96.716,55.8887 -89.528,32.8405 14.115,-45.2633 96.107,-72.4243 105.937,-92.2615 70.019,-141.2901 -20.681,-28.2292 -26,-28.337 -103.434,-2.097 -100.806,34.1599 -126.566,54.651 -120.443,95.8072 5.934,39.8938 -113.158,88.5582 -147.369,60.2191 -34.214,-28.3417 -84.036,-0.7728 -94.69,52.3976 -9.545,47.6381 -12.955,49.2592 -103.603,49.2592 -103.781,0 -97.216,-12.5659 -63.529,121.6104 12.172,48.4812 -100.273,191.2249 -150.939,191.61 -18.276,0.1326 -81.827,-25.2726 -141.224,-56.4701 z m -863.96,15.5082 c -77.674,-12.5754 -165.523,-27.079 -195.222,-32.2301 -65.453,-11.3524 -74.665,-57.6125 -11.472,-57.6125 49.813,0 378.788,72.8053 439.298,97.2208 38.036,15.3473 35.935,16.7062 -24.922,16.1231 -36.552,-0.3499 -130.009,-10.9257 -207.682,-23.5013 z m 2043.597,-61.2512 c 4.569,-5.0625 90.55,-24.5835 191.068,-43.38 289.525,-54.1401 2538.877,-432.8873 2571.112,-432.9254 46.414,-0.05 39.487,95.9959 -8.307,115.1864 -37.985,15.2516 -2432.843,341.1014 -2645.878,360.004 -63.966,5.6758 -112.564,6.1776 -107.995,1.1144 z M 13923.011,3324.263 c -25.938,-14.0298 -43.455,-29.2062 -38.927,-33.7255 8.864,-8.8468 111.008,39.6417 111.008,52.6964 0,13.5626 -23.246,7.4446 -72.081,-18.9709 z m 1834.614,-13.037 c 24.162,-23.4086 2387.633,-640.0406 2453.194,-640.0406 45.111,0 79.617,55.1429 49.726,79.4664 -26.426,21.5044 -2432.668,567.2813 -2501.051,567.2813 -4.835,0 -5.676,-3.0181 -1.869,-6.7071 z m -150.916,-52.5608 c 0,-12.5133 701.842,-351.5288 755.656,-365.0099 49.641,-12.4356 76.395,32.6761 39.964,67.3872 -19.476,18.5568 -758.05,307.1408 -786.067,307.1408 -5.254,0 -9.553,-4.2831 -9.553,-9.5181 z m 1166.272,-433.8336 c -82.962,-7.4149 -98.675,-31.95 -63.697,-99.4617 52.506,-101.344 69.758,-101.7102 169.297,-3.5931 49.79,49.0784 90.527,95.0852 90.527,102.2374 0,12.8927 -58.306,13.1356 -196.127,0.8176 z m 917.669,-418.5172 c -81.005,-61.1759 -101.181,-61.7908 -160.678,-4.8971 l -47.387,45.3142 -61.517,-32.8767 c -54.043,-28.8821 -62.132,-41.3295 -66.581,-102.4465 -6.89,-94.6492 35.956,-137.7211 137.001,-137.7211 79.033,0 87.163,-6.8181 125.59,-105.3279 13.707,-35.1388 32.398,-64.3228 41.536,-64.8535 9.138,-0.5307 44.652,46.838 78.92,105.2635 56.49,96.3148 62.304,117.455 62.304,226.5308 0,139.135 -10.202,145.7702 -109.188,71.0143 z m -1873.683,-113.7043 c -33.891,-37.379 -35.133,-101.7476 -3.423,-177.497 26.924,-64.3158 87.101,-78.7636 127.199,-30.5393 52.604,63.264 4.115,238.3628 -66.008,238.3628 -16.649,0 -42.645,-13.6468 -57.768,-30.3265 z"
             id="path12391" />
          <path
             style="fill:#57330d;stroke-width:16.5989"
             d="M 13334.641,7774.6688 C 11879.42,6322.1704 10688.784,5126.3002 10688.784,5117.1794 c 0,-27.0796 5272.927,-5281.73395 5300.101,-5281.73395 13.707,0 1212.65,1185.50545 2664.318,2634.45685 2099.897,2095.9672 2637.352,2640.8554 2629.397,2665.7614 -11.596,36.2999 -5260.847,5279.9113 -5285.591,5279.9113 -9.08,0 -1207.146,-1188.4081 -2662.368,-2640.9062 z m 5200.374,-107.7515 c 1395.846,-1393.1913 2537.903,-2540.5375 2537.903,-2549.6583 0,-27.079 -5056.858,-5066.230981 -5084.032,-5066.230981 -27.174,0 -5084.113,5039.071281 -5084.113,5066.149781 0,16.2738 5067.754,5082.8142 5084.032,5082.8142 4.569,0 1150.363,-1139.8836 2546.21,-2533.0747 z m -2778.774,1530.7654 c 0,-253.0067 -5.267,-342.3645 -20.768,-352.3294 -11.423,-7.3431 -65.628,-17.1114 -120.456,-21.7078 -88.488,-7.4179 -100.298,-12.6514 -105.117,-46.582 -7.937,-55.8806 21.34,-80.8222 106.057,-90.3531 80.567,-9.0639 129.516,-42.9921 167.333,-115.9859 20.457,-39.4845 33.679,-45.6432 97.987,-45.6432 h 74.339 v 505.7899 505.7899 h -99.687 -99.688 z m -101.439,-1118.4307 -38.662,-31.2474 46.712,-67.2785 c 25.692,-37.0031 42.157,-74.6345 36.59,-83.6255 -5.567,-8.9911 -36.186,-24.933 -68.042,-35.4265 -42.668,-14.0552 -57.853,-28.5655 -57.665,-55.1054 0.471,-66.8765 23.262,-84.1082 83.513,-63.1443 89.583,31.1699 96.823,26.34 102.278,-68.2359 l 5.022,-87.0622 62.305,-5.1469 62.305,-5.1468 0.254,71.4799 c 0.374,104.8545 15.576,121.2418 89.795,96.7934 70.974,-23.3793 109.326,-3.3802 109.326,57.0087 0,28.5686 -14.869,41.249 -66.458,56.6765 -70.795,21.1705 -88.196,62.8081 -42.18,100.9259 40.843,33.8327 47.614,83.1355 16.18,117.8043 -41.207,45.4473 -63.904,40.0401 -108.929,-25.95 -21.739,-31.8605 -47.001,-57.979 -56.139,-58.041 -9.139,-0.066 -37.494,26.0057 -63.014,57.9282 -53.644,67.1046 -61.124,68.8753 -113.191,26.7935 z m -134.718,-1142.0192 -4.755,-161.6869 -62.305,4.8635 c -86.667,6.7653 -80.931,-25.4538 19.596,-110.0589 132.079,-111.1611 134.089,-108.4654 134.089,179.8201 v 248.7491 h -40.935 c -40.379,0 -40.999,-2.1944 -45.69,-161.6869 z m 269.386,120.2287 c 0,-33.1665 8.307,-41.4581 41.537,-41.4581 33.229,0 41.536,8.2916 41.536,41.4581 0,33.1666 -8.307,41.4582 -41.536,41.4582 -33.23,0 -41.537,-8.2916 -41.537,-41.4582 z m 174.666,25.2177 c -16.028,-25.8838 21.933,-83.9719 126.622,-193.7609 98.153,-102.9337 119.782,-159.0864 77.525,-201.2638 -30.52,-30.4626 -57.915,-24.0716 -102.49,23.9105 -45.22,48.675 -93.562,44.0662 -93.562,-8.9199 0,-96.563 197.07,-138.1988 276.915,-58.5048 65.509,65.3864 47.583,154.2417 -51.344,254.4893 -41.822,42.38 -76.04,85.7178 -76.04,96.3057 0,11.201 33.001,21.3644 78.92,24.3053 67.347,4.3133 79.698,10.5256 84.228,42.3668 5.187,36.4502 1.659,37.3123 -152.704,37.3123 -86.908,0 -162.539,-7.3082 -168.07,-16.2405 z M 13400.289,4840.2777 c -10.966,-10.9449 -19.938,-25.1623 -19.938,-31.5943 0,-13.7505 765.985,-625.8902 839.038,-670.5201 l 49.844,-30.4509 -57.959,61.8737 c -48.103,51.3519 -53.754,64.5277 -33.229,77.4797 13.601,8.5833 36.898,15.7205 51.771,15.8601 64.922,0.6102 73.927,104.5497 12.349,142.5357 -33.202,20.4807 -165.818,7.522 -192.168,-18.7777 -13.227,-13.2025 -29.123,-23.9856 -35.324,-23.9624 -6.2,0.017 -133.951,111.9602 -283.889,248.7492 -149.938,136.7888 -281.152,248.707 -291.586,248.707 -10.435,0 -27.944,-8.955 -38.909,-19.9 z m 2713.166,-290.5854 c -216.838,-169.8225 -515.942,-408.083 -531.668,-423.5159 -43.568,-42.7592 79.846,38.0503 326.717,213.9274 303.387,216.1412 349.036,253.2891 336.375,273.7353 -14.56,23.5151 -27.651,17.1254 -131.424,-64.1468 z m -3122.208,-0.451 c -61.036,-93.3332 -23.615,-213.1362 48.036,-153.7837 13.865,11.4859 43.779,15.5757 70.723,9.6689 111.448,-24.4317 136.757,87.9878 29.847,132.5733 -29.994,12.5088 -58.945,34.2149 -64.336,48.2359 -15.693,40.8191 -40.699,29.9304 -84.27,-36.6944 z m 2813.931,-132.6662 c -225.128,-183.7482 -232.393,-195.1523 -43.555,-68.3704 98.91,66.4057 187.023,134.141 195.806,150.5226 29.143,54.3503 -12.612,31.82 -152.251,-82.1522 z m -2358.368,-50.5835 c 0,-9.2508 74.765,-55.1518 166.146,-102.0021 91.38,-46.8504 166.146,-81.6245 166.146,-77.2757 0,9.2176 -263.871,169.891 -304.675,185.5196 -15.19,5.8177 -27.617,3.0088 -27.617,-6.2418 z m 2532.383,-99.3273 c -213.566,-132.46 -327.621,-211.2894 -281.103,-194.2847 18.276,6.6809 48.182,16.1372 66.458,21.0141 31.344,8.3638 31.108,6.5496 -4.153,-31.971 -44.245,-48.3336 -44.999,-53.6048 -12.339,-86.2034 17.477,-17.4439 43.833,-22.16 87.227,-15.608 112.975,17.0584 36.028,-26.3669 -121.831,-68.7556 -81.554,-21.8988 -166.971,-47.355 -189.816,-56.569 l -41.536,-16.7531 49.844,0.2388 c 27.414,0.1327 292.832,35.1053 589.818,77.7194 l 539.975,77.4802 5.178,44.7839 c 2.848,24.6312 -2.525,59.1499 -11.939,76.7085 -16.67,31.0893 -22.547,30.5865 -224.63,-19.2179 -197.829,-48.7553 -255.334,-50.783 -211.942,-7.4729 10.813,10.7929 19.661,40.5184 19.661,66.0566 0,55.163 -5.053,55.7147 -198.708,21.6987 -81.614,-14.3354 -146.729,-18.5294 -155.273,-10.0012 -8.545,8.5285 45.724,47.5717 129.408,93.1019 129.467,70.4394 176.682,111.0449 154.668,133.0172 -4.153,4.1453 -89.188,-43.0968 -188.967,-104.9825 z m -3296.656,-59.7517 c 0,-14.6572 2.461,-26.6492 5.468,-26.6492 3.008,0 164.754,-33.8703 359.437,-75.2673 194.683,-41.397 362.314,-72.1157 372.514,-68.2638 24.556,9.2731 23.055,9.695 -363.59,102.1885 -182.761,43.7201 -341.638,82.9 -353.06,87.066 -11.423,4.1662 -20.769,-4.4173 -20.769,-19.0742 z m 1985.447,-9.7057 c -118.11,-39.2238 -285.416,-159.995 -319.796,-230.8472 -13.435,-27.6877 -38.565,-54.8201 -55.845,-60.2941 -20.553,-6.5111 -31.417,-25.3744 -31.417,-54.5489 0,-24.5278 -7.405,-70.3645 -16.454,-101.8591 -9.05,-31.4948 -10.169,-63.5362 -2.488,-71.2029 7.681,-7.6668 70.646,2.7045 139.923,23.0476 l 125.956,36.9871 91.018,-77.612 c 50.059,-42.6865 99.821,-77.6119 110.581,-77.6119 10.76,0 76.534,48.7122 146.164,108.2495 69.63,59.5371 135.531,104.829 146.445,100.6484 10.915,-4.1805 57.967,-34.9367 104.559,-68.3468 67.789,-48.6096 84.714,-70.179 84.714,-107.9615 0,-25.9685 7.228,-51.6744 16.063,-57.1244 8.835,-5.4497 61.106,31.4222 116.158,81.9378 55.052,50.5155 106.826,91.8465 115.053,91.8465 8.227,0 19.62,18.5426 25.319,41.2056 7.319,29.1043 0.528,51.0203 -23.121,74.6247 -18.415,18.3806 -33.482,45.571 -33.482,60.4232 0,43.0454 -181.239,202.3358 -292.316,256.9157 -136.741,67.1903 -304.097,78.9915 -447.034,31.5227 z m -1200.406,-44.7109 c -20.561,-14.3153 -37.383,-37.2878 -37.383,-51.0498 0,-19.5482 13.316,-22.8651 60.871,-15.1627 82.325,13.3344 106.432,39.4911 64.717,70.2214 -39.076,28.7861 -41.245,28.6874 -88.205,-4.0089 z m -1333.323,-120.7307 c 0,-19.9671 48.577,-27.9673 357.214,-58.8301 137.071,-13.7068 282.864,-29.3319 323.985,-34.7224 41.121,-5.3906 70.299,-5.2669 64.841,0.2752 -9.846,9.9948 -661.112,109.1092 -716.942,109.1092 -16.004,0 -29.098,-7.1243 -29.098,-15.8319 z m 1628.232,-5.5637 c 0,-15.9206 54.729,-38.3098 167.742,-68.6219 92.258,-24.7452 171.158,-41.5817 175.333,-37.4143 4.175,4.1672 -54.486,29.8555 -130.359,57.0849 -208.393,74.7887 -212.716,75.7837 -212.716,48.9513 z m -654.023,-136.2477 c -26.174,-13.6249 -65.917,-24.7727 -88.319,-24.7727 -22.401,0 -55.894,-8.1005 -74.428,-18.001 -33.515,-17.9026 -33.493,-18.2197 3.988,-58.0415 52.788,-56.0834 89.754,-50.3156 184.392,28.7705 60.507,50.5638 76.539,72.4842 60.457,82.6625 -28.985,18.3448 -30.907,18.1078 -86.09,-10.6178 z m 517.64,-90.9136 c -188.199,-56.6244 -194.225,-217.7883 -7.224,-193.1972 131.595,17.3052 193.807,30.9144 202.031,44.1961 13.774,22.2438 -22.774,99.0591 -47.13,99.0591 -12.517,0 -36.291,14.9249 -52.83,33.1665 -33.035,36.4343 -30.814,36.0414 -94.847,16.7755 z m 4123.891,-18.3484 c -402.28,-23.8892 -396.832,-28.1568 30.251,-23.6934 284.918,2.9777 426.75,10.4405 439.456,23.1231 21.742,21.7002 -111.175,21.8616 -469.707,0.5705 z m -1171.331,-51.3596 c -45.69,-8.4339 -127.932,-16.7648 -182.76,-18.5134 l -99.688,-3.1788 v -73.2429 c 0,-66.719 4.439,-74.6882 49.844,-89.4714 27.414,-8.9258 78.135,-38.3599 112.713,-65.4092 l 62.87,-49.1806 167.519,72.319 c 92.135,39.7754 171.292,81.9249 175.904,93.6657 4.611,11.7406 -3.737,34.7156 -18.553,51.0556 -14.815,16.3398 -26.937,38.1868 -26.937,48.5487 0,49.688 -87.203,61.7805 -240.912,33.4073 z m 719.621,8.4378 c 11.993,-4.7905 26.324,-4.2014 31.845,1.3084 5.52,5.5104 -4.293,9.4299 -21.807,8.7098 -19.355,-0.796 -23.292,-4.7252 -10.038,-10.0189 z m -4507.753,-133.5256 c -36.552,-3.6367 -73.935,-14.3261 -83.073,-23.7542 -16.724,-17.2554 166.812,-8.6392 407.058,19.1094 97.263,11.234 89.834,12.4129 -74.766,11.8652 -100.518,-0.335 -212.667,-3.5837 -249.219,-7.2204 z m 1918.988,-95.7642 c -99.825,-52.3117 -118.385,-56.3734 -245.349,-53.6927 -134.313,2.8359 -138.543,1.7125 -191.068,-50.74 l -53.714,-53.64 63.659,-123.4933 c 80.789,-156.7262 219.012,-289.0942 355.286,-340.2364 81.265,-30.4983 122.921,-35.1975 269.719,-30.4268 l 173.611,5.642 52.427,-149.2495 c 28.835,-82.0872 76.804,-212.6805 106.598,-290.2073 29.794,-77.5268 176.592,-487.5088 326.218,-911.0712 149.626,-423.5624 279.53,-777.58207 288.675,-786.71039 17.555,-17.52177 133.378,27.38798 133.137,51.62327 -0.07,6.98818 -157.077,448.53082 -348.907,981.20582 -191.829,532.6752 -349.045,991.6173 -349.369,1019.8714 -0.324,28.2542 -11.274,70.0275 -24.333,92.8295 -37.884,66.145 -29.657,90.483 49.844,147.4688 116.417,83.447 97.304,125.9849 -55.008,122.4255 -86.72,-2.0265 -89.563,-0.6186 -113.333,56.1637 -24.233,57.8889 -24.87,58.1755 -104.836,47.1982 -96.881,-13.2995 -110.682,1.8477 -76.369,83.8157 13.937,33.293 20.311,69.0683 14.164,79.5004 -31.562,53.5664 -127.915,159.8228 -144.29,159.1206 -10.322,-0.4428 -67.365,-26.2714 -126.762,-57.3973 z m -996.877,-10.227 c -124.716,-20.2017 -142.826,-27.8129 -120.116,-50.4808 13.4,-13.3747 61.261,-8.4274 177.232,18.3206 87.381,20.1538 158.874,39.8375 158.874,43.7413 0,10.9785 -114.677,4.8296 -215.99,-11.5811 z m 2458.963,-79.8564 c 32.097,-17.3207 122.288,-33.4075 1399.781,-249.669 609.44,-103.1695 1073.74,-174.4915 1082.057,-166.2165 18.974,18.8786 -1.446,99.8391 -25.181,99.8391 -10.058,0 -538.883,70.1052 -1175.167,155.7891 -1366.037,183.9547 -1313.146,177.3404 -1281.49,160.2573 z m -2117.385,-192.1991 c -17.738,-13.3912 -24.261,-24.3476 -14.495,-24.3476 9.765,0 27.063,11.1937 38.439,24.8749 25.872,31.1155 17.733,30.9363 -23.944,-0.5273 z m 2124.514,-23.7237 c 54.181,-17.6833 534.791,-145.1719 1068.024,-283.3077 995.199,-257.8102 1018.289,-262.0963 1018.289,-189.0265 0,27.6319 98.828,3.0598 -1055.028,262.3171 -1035.444,232.6512 -1208.802,267.955 -1031.285,210.0171 z m -446.996,0.723 c 9.369,-9.4104 158.861,-84.1226 332.205,-166.0276 206.434,-97.5402 320.803,-143.2949 331.499,-132.6198 33.249,33.1868 -19.488,69.236 -207.328,141.7237 -294.61,113.6896 -475.131,175.7613 -456.376,156.9237 z m -111.265,-104.545 c 37.041,-40.852 37.552,-44.8549 12.034,-94.1089 -30.116,-58.1278 -34.653,-59.4344 -92.257,-26.567 -99.635,56.8489 -140.975,-6.5077 -50.575,-77.5093 27.012,-21.2155 349.894,-365.337 717.516,-764.7143 387.517,-420.9895 678.577,-724.1367 692.611,-721.3724 13.314,2.6224 32.447,17.8288 42.519,33.792 15.785,25.0176 -70.545,117.7358 -625.421,671.7014 -354.053,353.4725 -643.733,651.9701 -643.733,663.3278 0,44.8377 115.896,22.4793 194.669,-37.5553 42.006,-32.013 79.848,-54.7375 84.095,-50.4989 12.048,12.0249 -78.008,160.4943 -135.552,223.4763 l -51.832,56.7302 63.144,-35.936 c 34.729,-19.7648 291.176,-196.7857 569.881,-393.3801 278.706,-196.5943 517.579,-361.5965 530.829,-366.6715 18.52,-7.0933 24.091,5.804 24.091,55.7706 v 64.9976 l -344.753,213.3059 c -434.012,268.5318 -891.913,549.5191 -967.801,593.8837 l -58.152,33.9952 z m 1240.639,-272.6434 c -135.925,-16.4714 -157.839,-23.9461 -157.839,-53.8386 0,-36.8356 61.202,-117.568 89.127,-117.568 26.08,0 160.092,135.8721 160.092,162.3146 0,11.0558 -9.346,18.9834 -20.768,17.6168 -11.423,-1.3665 -43.198,-5.2029 -70.612,-8.5248 z m -1486.48,-159.092 c -0.291,-6.9081 96.695,-206.5293 215.523,-443.6026 208.588,-416.1506 249.457,-476.1912 276.415,-406.0736 5.664,14.733 -82.72,182.9874 -215.603,410.436 -220.611,377.6101 -275.272,464.495 -276.335,439.2402 z m -199.398,-196.4811 c -0.278,-14.644 36.877,-173.5626 82.567,-353.1521 45.691,-179.5896 83.074,-329.917 83.074,-334.0608 0,-4.1437 -10.315,-7.5341 -22.921,-7.5341 -12.606,0 -51.547,34.8686 -86.534,77.486 l -63.614,77.4862 -22.714,-56.7571 c -12.492,-31.2164 -38.353,-68.9244 -57.469,-83.7958 -30.717,-23.8965 -32.983,-35.46 -19.497,-99.4996 11.968,-56.8296 23.328,-73.6051 52.66,-77.7648 20.57,-2.9172 45.364,-20.155 55.096,-38.3062 12.049,-22.4702 31.248,-31.362 60.16,-27.8626 33.376,4.0399 48.349,21.109 69.967,79.7644 15.128,41.0436 34.397,74.6247 42.82,74.6247 8.424,0 29.609,-57.8341 47.079,-128.5203 25.864,-104.6533 37.684,-128.5204 63.652,-128.5204 17.539,0 35.814,10.2088 40.611,22.6864 8.106,21.0838 -278.548,950.3339 -310.168,1005.4766 -12.378,21.5853 -14.331,21.3538 -14.769,-1.7505 z m 2512.525,-73.1188 c -47.293,-31.7883 -92.454,-57.7969 -100.36,-57.7969 -7.906,0 -31.933,18.6562 -53.395,41.4582 -45.608,48.4555 -66.613,50.8059 -135.641,15.1777 -47.737,-24.6396 -50.234,-30.5423 -39.982,-94.5312 14.234,-88.8495 34.81,-111.3542 101.81,-111.3542 95.72,0 134.746,-24.9128 160.681,-102.5738 13.143,-39.3528 30.381,-71.5505 38.307,-71.5505 7.926,0 40.675,44.1836 72.775,98.1857 46.351,77.9791 59.758,120.0545 65.142,204.4471 3.728,58.4436 0,113.0278 -8.287,121.298 -9.01,8.9935 -49.622,-8.1916 -101.05,-42.7601 z m -1863.783,-114.4812 c -30.558,-32.4657 -35.48,-50.6212 -25.853,-95.3538 19.167,-89.0538 38.389,-113.2943 89.841,-113.2943 52.686,0 67.651,23.6498 67.651,106.9112 0,50.3694 -52.482,141.8379 -81.383,141.8379 -6.881,0 -29.497,-18.0454 -50.256,-40.101 z"
             id="path12389" />
          <path
             style="fill:#0c0701;stroke-width:16.5989"
             d="M 13342.949,7766.377 C 11892.296,6318.4392 10705.398,5126.3002 10705.398,5117.1793 c 0,-27.0797 5256.313,-5265.15058 5283.487,-5265.15058 27.173,0 5283.408,5238.14888 5283.408,5265.22888 0,16.2731 -5267.208,5281.7334 -5283.487,5281.7334 -4.569,0 -1195.205,-1184.6761 -2645.857,-2632.614 z m 5200.373,-91.1682 c 1400.416,-1397.7517 2546.21,-2548.8474 2546.21,-2557.9904 0,-27.0788 -5073.512,-5082.773655 -5100.686,-5082.773655 -27.148,0 -5100.687,5055.680955 -5100.687,5082.733255 0,16.2736 5084.368,5099.397 5100.646,5099.397 4.569,0 1154.102,-1143.6146 2554.517,-2541.3662 z m -2762.202,1841.684 c -4.425,-11.9293 -9.964,-170.9394 -12.309,-353.3554 l -4.263,-331.6655 -116.302,-8.2916 c -116.045,-8.2732 -116.302,-8.4009 -116.302,-57.5824 0,-45.4737 5.788,-50.2772 74.74,-62.0261 86.796,-14.7892 145.649,-53.9706 183.527,-122.1833 21.559,-38.8241 38.137,-48.4155 83.684,-48.4155 h 56.799 v 497.4982 497.4983 l -70.764,5.1066 c -46.982,3.3906 -73.468,-2.1827 -78.81,-16.5833 z m -116.524,-1445.9937 c -30.552,-22.2978 -30.094,-25.1931 14.651,-92.6799 25.404,-38.3145 42.683,-78.7804 38.398,-89.9238 -4.284,-11.1435 -38.474,-29.4368 -75.977,-40.6519 -74.244,-22.202 -79.351,-30.6489 -46.033,-76.129 19.521,-26.6457 29.361,-27.8684 82.749,-10.2822 33.326,10.978 68.215,15.2576 77.532,9.5104 9.317,-5.7471 16.94,-47.7942 16.94,-93.4378 v -82.9884 l 53.997,5.1966 c 51.723,4.9776 54.347,8.6886 62.305,88.1129 8.095,80.7997 9.579,82.7744 58.151,77.3547 115.351,-12.871 116.302,-12.634 116.302,28.957 0,30.0746 -13.081,44.4535 -52.805,58.0415 -78.74,26.9342 -82.308,37.6574 -38.912,116.9469 33.397,61.0205 36.286,76.8631 18.02,98.8298 -32.629,39.2417 -55.109,31.9577 -98.744,-31.9944 -21.739,-31.8605 -48.888,-57.9282 -60.333,-57.9282 -11.445,0 -40.768,26.1186 -65.162,58.0414 -49.76,65.1149 -56.601,67.4857 -101.079,35.0244 z m -124.345,-1126.9482 c 0,-77.4496 -4.538,-152.6216 -10.085,-167.0487 -11.598,-30.1666 -57.892,-34.6658 -84.405,-8.2031 -13.006,12.9823 -21.527,12.4329 -30.44,-1.9626 -12.646,-20.4221 131.469,-157.0234 165.66,-157.0234 11.321,0 17.421,81.209 17.421,231.9387 0,207.7095 -3.037,232.5227 -29.076,237.5277 -25.847,4.9685 -29.075,-10.0432 -29.075,-135.2286 z m 268.769,112.6347 c 7.515,-36.0207 37.001,-38.2248 43.746,-3.2699 3.502,18.1521 -4.647,29.0208 -21.759,29.0208 -15.962,0 -25.121,-10.7268 -21.987,-25.7509 z m 163.211,16.369 c 0,-27.2708 48.039,-92.6904 135.142,-184.0363 106.067,-111.2342 123.174,-168.1412 63.158,-210.0987 -41.477,-28.997 -93.64,-18.1585 -116.338,24.173 -21.437,39.9797 -65.347,40.3149 -65.347,0.4991 0,-91.17 187.834,-132.102 250.687,-54.6288 57.844,71.3001 42.262,142.4613 -53.272,243.2841 -102.398,108.0661 -100.151,140.44 9.746,140.44 55.845,0 75.287,6.4235 75.287,24.8749 0,20.2684 -27.691,24.8749 -149.532,24.8749 -82.242,0 -149.531,-4.2218 -149.531,-9.3818 z M 13404.288,4825.4198 c -6.19,-9.9961 -1.024,-27.6062 11.48,-39.1336 78.115,-72.0148 697.691,-556.273 711.715,-556.273 9.427,0 17.14,7.4625 17.14,16.5833 0,9.1208 15.445,16.5833 34.322,16.5833 138.786,0 123.671,133.3584 -15.686,138.396 -48.871,1.7666 -79.034,-6.4466 -97.171,-26.4589 -14.466,-15.9614 -34.489,-29.0018 -44.496,-28.9786 -10.006,0.017 -140.87,111.9601 -290.808,248.7491 -149.938,136.7888 -282.206,248.707 -293.929,248.707 -11.722,0 -26.378,-8.1786 -32.567,-18.1746 z m 2704.773,-297.6605 c -56.98,-46.0181 -103.601,-86.8118 -103.601,-90.6527 0,-10.2695 213.653,140.5478 224.949,158.7915 22.571,36.4511 -24.73,9.891 -121.348,-68.1388 z m -3110.108,10.2373 c -24.045,-38.8328 -31.801,-70.3651 -24.475,-99.4996 11.021,-43.8279 46.25,-56.7901 66.308,-24.3972 6.413,10.3565 31.917,14.1389 58.95,8.7426 60.892,-12.1556 97.854,2.1203 97.854,37.7943 0,36.5558 -32.134,67.8755 -69.64,67.8755 -16.371,0 -39.104,14.9249 -50.518,33.1665 -28.214,45.0929 -37.657,42.2433 -78.479,-23.6821 z m 3077.119,-226.9749 c -74.445,-47.586 -67.721,-55.5044 12.461,-14.6754 62.494,31.8217 82.454,50.1084 53.998,49.4704 -6.854,-0.1492 -36.76,-15.8113 -66.459,-34.795 z m -1402.055,-122.6103 c -174.549,-55.8286 -367.668,-250.2481 -409.762,-412.5234 -11.557,-44.5506 -16.943,-85.0629 -11.969,-90.0271 4.973,-4.9642 51.942,4.0318 104.375,19.991 52.433,15.9592 107.762,32.514 122.954,36.7883 16.333,4.5956 65.464,-22.9938 120.221,-67.51 50.93,-41.4048 100.952,-75.2814 111.16,-75.2814 10.208,0 70.552,44.7748 134.098,99.4996 63.546,54.7248 128.789,99.4997 144.983,99.4997 16.195,0 69.975,-28.2012 119.51,-62.6692 73.756,-51.3213 91.021,-72.5233 95.346,-117.0895 2.905,-29.9314 11.589,-52.1019 19.299,-49.2679 7.71,2.8337 63.299,51.8063 123.531,108.8279 l 109.514,103.6753 -45.74,85.0864 c -61.277,113.9888 -173.646,222.2478 -294.959,284.1697 -81.858,41.7829 -123.46,51.8305 -232.604,56.1773 -85.719,3.414 -160.274,-3.4561 -209.957,-19.3467 z m -1198.132,-47.5784 c -43.393,-33.2325 -35.395,-46.1955 24.922,-40.3909 34.365,3.3072 53.997,14.158 53.997,29.8443 0,32.6669 -42.602,38.3599 -78.919,10.5466 z m 2511.913,-7.9387 c -155.825,-29.8521 -262.042,-91.6331 -242.944,-141.3081 8.148,-21.1928 25.456,-24.3461 87.239,-15.8937 68.443,9.3634 76.42,7.1812 71.224,-19.4846 -4.246,-21.7866 -39.131,-38.9431 -127.096,-62.5053 -66.684,-17.862 -117.868,-35.8453 -113.743,-39.9627 4.125,-4.1175 223.81,22.891 488.188,60.019 264.378,37.1278 485.655,67.5052 491.726,67.5052 16.21,0 13.48,112.6192 -2.976,122.7705 -7.708,4.7546 -98.431,-13.4612 -201.608,-40.4796 -103.176,-27.0183 -201.542,-49.1243 -218.59,-49.1243 -32.652,0 -42.705,40.5699 -14.383,58.0414 9.139,5.637 16.615,28.4649 16.615,50.7286 0,48.8598 -24.01,49.8558 -233.652,9.6936 z m -2948.047,-279.3727 c -101.399,-9.2831 -115.899,-16.8938 -90.464,-47.4835 45.134,-54.2804 74.406,-56.8251 137.581,-11.96 61.141,43.4203 78.808,73.5096 40.11,68.3154 -11.422,-1.5339 -50.674,-5.5257 -87.227,-8.8719 z m 510.9,-104.2416 c -59.03,-35.9232 -69.426,-81.9131 -27.889,-123.3718 32.615,-32.5538 48.352,-32.4853 158.898,0.6916 49.024,14.713 98.48,29.4036 109.903,32.6461 35.245,10.0047 22.94,56.6827 -19.155,72.6568 -21.957,8.3325 -44.828,23.0727 -50.824,32.7561 -17.702,28.588 -112.736,20.0378 -170.933,-15.3786 z m 3019.706,-28.827 c -22.845,-4.1498 -54.088,-18.7338 -69.428,-32.4089 -23.41,-20.8687 -37.089,-21.5441 -85.134,-4.2037 -74.763,26.9838 -105.369,13.4175 -114.827,-50.8974 -7.272,-49.4566 -2.878,-54.5934 76.841,-89.8435 46.504,-20.5631 94.814,-49.788 107.356,-64.9439 12.541,-15.156 30.042,-27.5563 38.89,-27.5563 32.101,0 328.75,137.8115 328.75,152.7245 0,8.4266 -19.578,40.942 -43.508,72.2562 -39.194,51.2884 -51.14,56.7109 -120.456,54.6767 -42.321,-1.2421 -95.639,-5.6538 -118.484,-9.8037 z m -1868.743,-231.3279 c -110.458,-56.5561 -121.532,-58.8675 -235.829,-49.2242 -112.01,9.4505 -123.279,7.3035 -170.701,-32.5239 -27.925,-23.4532 -50.773,-49.5984 -50.773,-58.1003 0,-52.581 116.234,-241.1514 193.746,-314.3207 131.98,-124.5854 247.458,-171.7313 412.687,-168.4863 73.105,1.4361 155.347,4.7246 182.761,7.3086 44.457,4.1903 53.649,-3.3667 85.055,-69.9267 19.366,-41.0436 190.69,-518.6419 380.719,-1061.3296 190.029,-542.6876 351.336,-993.37898 358.461,-1001.53631 14.306,-16.3791 114.491,18.85938 114.491,40.27039 0,7.21792 -157.134,450.44852 -349.187,984.95712 -318.962,887.7137 -398.471,1123.3738 -398.471,1181.0499 0,11.1982 33.645,44.4765 74.766,73.9518 41.121,29.4753 74.766,63.5202 74.766,75.6552 0,21.8155 -11.335,24.0814 -141.224,28.2319 -58.643,1.8737 -69.348,8.681 -91.027,57.8799 -23.777,53.9617 -27.014,55.4671 -100.595,46.769 -110.57,-13.0706 -127.108,2.5143 -92.987,87.6283 15.229,37.9903 22.422,77.9094 15.984,88.7093 -32.406,54.3606 -112.926,143.9125 -128.753,143.1949 -9.893,-0.4494 -70.143,-27.5198 -133.889,-60.1583 z m -1075.159,-33.2707 c 11.994,-4.7904 26.324,-4.2014 31.845,1.3084 5.521,5.5105 -4.292,9.4299 -21.807,8.7099 -19.355,-0.796 -23.292,-4.7253 -10.038,-10.019 z m 3040.474,-116.0829 c 11.994,-4.7904 26.324,-4.2014 31.845,1.3084 5.521,5.5104 -4.292,9.4299 -21.806,8.7099 -19.356,-0.796 -23.293,-4.7253 -10.039,-10.019 z m 77.881,-14.296 c 14.945,-5.7771 1875.485,-322.6246 1894.463,-322.6246 4.351,0 7.911,18.6562 7.911,41.4582 0,22.802 -3.859,41.4582 -8.574,41.4582 -4.716,0 -420.537,55.9685 -924.046,124.3745 -824.186,111.9728 -1021.884,135.4852 -969.754,115.3337 z m -789.194,-215.1484 c 0,-12.4252 419.92,-207.9581 428.408,-199.4855 20.434,20.3949 -17.642,57.3542 -82.365,79.9493 -39.546,13.8056 -133.583,48.0978 -208.972,76.2049 -75.389,28.107 -137.071,47.6061 -137.071,43.3313 z m 694.699,-19.3048 c 11.993,-4.7904 26.324,-4.2013 31.845,1.3085 5.52,5.5104 -4.293,9.4299 -21.807,8.7098 -19.355,-0.796 -23.292,-4.7252 -10.038,-10.0189 z m 77.881,-20.316 c 18.276,-7.1273 360.471,-97.555 760.433,-200.9508 559.125,-144.5415 731.739,-183.4652 746.827,-168.4061 12.318,12.2952 13.747,25.1328 3.839,34.4874 -15.363,14.5042 -1485.954,350.9746 -1524.826,348.8793 -10.727,-0.5788 -4.549,-6.8826 13.727,-14.0098 z m -1088.902,-85.64 c -19.187,-35.7844 -48.164,-37.1271 -144.733,-6.7066 -67.347,21.215 -42.123,-31.4321 55.267,-115.3534 68.56,-59.0794 97.503,-74.9926 111.318,-61.2042 34.512,34.4468 120.856,20.4274 192.29,-31.221 37.923,-27.4196 68.951,-45.7786 68.951,-40.7975 0,36.0678 -77.67,143.4707 -144.228,199.441 -111.573,93.8239 -117.27,96.1149 -138.865,55.8417 z m 266.478,-70.2857 c 13.707,-14.0243 248.756,-182.8656 522.332,-375.2025 309.963,-217.9204 503.286,-343.8375 513.005,-334.1368 48.828,48.7358 -8.625,94.6985 -488.898,391.1194 -266.001,164.1744 -503.376,308.6734 -527.5,321.1087 -39.402,20.3115 -41.327,20.018 -18.939,-2.8888 z m 893.734,-109.6839 c -95.448,-13.3088 -99.714,-17.1098 -74.636,-66.5058 40.033,-78.8506 71.091,-80.9597 144.117,-9.7866 98.136,95.6469 94.89,99.2113 -69.481,76.2924 z m -967.477,-233.9527 c 304.571,-349.8598 1049.979,-1143.7165 1070.255,-1139.8191 13.698,2.6331 26.998,15.8954 29.556,29.4718 2.641,14.019 -248.093,275.4683 -580.299,605.0992 -321.722,319.228 -555.502,546.5897 -519.512,505.2481 z m -168.38,-460.3524 c 139.741,-279.5542 192.28,-355.8722 192.28,-279.3083 0,21.2576 -306.433,552.9415 -335.813,582.6614 -9.017,9.1208 55.573,-127.3881 143.533,-303.3531 z m 1748.619,281.1078 c -41.72,-24.43 -46.046,-34.6803 -38.694,-91.6998 10.683,-82.8585 19.258,-90.0402 125.829,-105.3852 92.034,-13.2518 101.208,-21.1481 138.953,-119.608 l 21.86,-57.0228 56.434,90.1893 c 46.095,73.6654 57.706,110.6974 63.379,202.1263 8.076,130.1765 0.636,134.592 -104.8,62.1873 -39.845,-27.3624 -79.045,-49.7499 -87.112,-49.7499 -8.066,0 -36.155,22.3875 -62.42,49.7499 -54.322,56.5929 -50.654,55.9717 -113.429,19.2129 z m -1580.322,-117.6766 c -22.634,-24.9625 -26.58,-47.2083 -17.693,-99.7159 13.324,-78.713 54.632,-110.4798 100.312,-77.1411 38.186,27.87 36.598,134.9217 -2.644,178.202 -35.005,38.6071 -43.886,38.4577 -79.975,-1.3449 z m -572.549,-88.4438 c -1.95,-15.6294 141.798,-596.1461 166.222,-671.277 18.39,-56.567 65.25,-74.7393 64.145,-24.8749 -0.695,31.3044 -227.72,717.3624 -230.367,696.1519 z m -101.282,-319.6361 c 0,-14.0958 -18.692,-44.285 -41.537,-67.087 -42.468,-42.3883 -48.711,-69.5799 -31.064,-135.3044 6.579,-24.5048 22.695,-37.3124 46.95,-37.3124 23.543,0 43.988,-15.4573 56.396,-42.6389 30.048,-65.8232 72.33,-44.5402 107.939,54.3313 l 30.942,85.9115 -72.352,83.8561 c -75.873,87.9368 -97.274,100.7509 -97.274,58.2438 z"
             id="path12387" />
        </g>
      </g>
    </g>
  </g>
</svg>
