<?xml version="1.0" encoding="UTF-8" standalone="no"?>
<svg
   xmlns:dc="http://purl.org/dc/elements/1.1/"
   xmlns:cc="http://creativecommons.org/ns#"
   xmlns:rdf="http://www.w3.org/1999/02/22-rdf-syntax-ns#"
   xmlns:svg="http://www.w3.org/2000/svg"
   xmlns="http://www.w3.org/2000/svg"
   xmlns:sodipodi="http://sodipodi.sourceforge.net/DTD/sodipodi-0.dtd"
   xmlns:inkscape="http://www.inkscape.org/namespaces/inkscape"
   width="24"
   height="24"
   viewBox="0 0 49.823231 50.736157"
   version="1.1"
   id="svg8"
   inkscape:version="1.0.2 (e86c870879, 2021-01-15)"
   sodipodi:docname="jaune5-1.gif.svg">
  <defs
     id="defs2" />
  <sodipodi:namedview
     id="base"
     pagecolor="#ffffff"
     bordercolor="#666666"
     borderopacity="1.0"
     inkscape:pageopacity="0.0"
     inkscape:pageshadow="2"
     inkscape:zoom="0.35"
     inkscape:cx="106.8071"
     inkscape:cy="141.57502"
     inkscape:document-units="mm"
     inkscape:current-layer="layer1"
     inkscape:document-rotation="0"
     showgrid="false"
     inkscape:window-width="1360"
     inkscape:window-height="687"
     inkscape:window-x="0"
     inkscape:window-y="26"
     inkscape:window-maximized="1" />
  <metadata
     id="metadata5">
    <rdf:RDF>
      <cc:Work
         rdf:about="">
        <dc:format>image/svg+xml</dc:format>
        <dc:type
           rdf:resource="http://purl.org/dc/dcmitype/StillImage" />
        <dc:title></dc:title>
      </cc:Work>
    </rdf:RDF>
  </metadata>
  <g
     inkscape:label="Layer 1"
     inkscape:groupmode="layer"
     id="layer1"
     transform="translate(-77.573954,-110.70827)">
    <g
       id="g172"
       transform="matrix(0.26219534,0,0,0.26662913,101.42596,112.31451)">
      <path
         style="fill:#f7aa56;stroke-width:0.264583"
         d="M -43.477325,137.3423 C -69.44201,111.38753 -90.810646,89.926874 -90.96318,89.651948 c -0.2436,-0.439063 5.511115,-6.288381 47.310273,-48.088022 L 3.9347007,-6.0242337 51.493832,41.534348 c 26.157521,26.157217 47.559131,47.676979 47.559131,47.821687 0,0.317447 -94.1110253,94.504975 -94.822863,94.899945 -0.437769,0.2429 -6.2836215,-5.50569 -47.707425,-46.91368 z"
         id="path186" />
      <path
         style="fill:#f59226;stroke-width:0.264583"
         d="M -43.425075,136.58628 -90.785031,89.22577 -43.557459,41.997644 c 25.975163,-25.97547 47.3468822,-47.2281269 47.49271,-47.2281269 0.1458278,0 21.517587,21.2526989 47.492803,47.2282189 L 98.655717,89.225956 51.295299,136.58637 3.9348806,183.94679 Z"
         id="path184" />
      <path
         style="fill:#ca781f;stroke-width:0.264583"
         d="M -38.464539,131.75724 C -61.784084,108.43735 -80.86371,89.238383 -80.86371,89.092862 c 0,-0.346493 84.71848,-85.0629279 85.064981,-85.0629279 0.3454162,0 85.062108,84.7203699 85.062108,85.0658019 0,0.344881 -84.7192662,85.061284 -85.0641611,85.061284 -0.1455209,0 -19.3442119,-19.0799 -42.6637569,-42.39978 z m 82.946862,-2.38062 c 22.010204,-22.00985 40.018556,-40.136967 40.018556,-40.282488 0,-0.345961 -79.9544352,-80.3016977 -80.3003911,-80.3016977 -0.1455235,0 -18.3324689,18.0675897 -40.4154339,40.1501967 l -40.150849,40.150197 40.150196,40.150852 c 22.08261,22.08296 40.269259,40.15084 40.4147798,40.15084 0.1455209,0 18.2729352,-18.00805 40.2831422,-40.0179 z M 0.11438178,159.63407 c -0.16972757,-0.31714 -0.28017259,-2.55947 -0.28017259,-5.68819 v -5.16468 l -1.78593759,-0.0782 -1.7859375,-0.0782 -0.082315,-1.14403 c -0.098571,-1.36998 0.2721928,-1.89868 1.3314972,-1.89868 1.3135028,0 2.52766521,-0.73747 2.85698151,-1.73531 0.2362888,-0.71596 0.47089749,-0.92621 1.18247319,-1.0597 0.4882383,-0.0916 1.2558343,-0.0857 1.7057741,0.0131 l 0.8180706,0.17968 -0.069784,8.51099 -0.069781,8.51098 -1.7703483,0.0779 c -1.53876646,0.0677 -1.80699841,0.009 -2.05052092,-0.44562 z M -1.4808679,136.59351 c -0.8679498,-0.81078 -0.8671455,-0.85981 0.035544,-2.16483 0.6315922,-0.9131 0.62347478,-0.9452 -0.2896844,-1.14577 -1.1575309,-0.25423 -1.4741869,-0.77241 -1.1827907,-1.93552 l 0.2452503,-0.97891 1.3709094,0.0726 1.37090688,0.0726 0.08090958,-1.26326 0.0809069,-1.26326 1.18103134,-0.0841 c 1.4078426,-0.10028 1.8616771,0.34576 1.8616771,1.82972 v 0.983 l 0.9027531,-0.27707 c 1.1948584,-0.36671 1.6729155,-0.14433 1.9550857,0.90946 0.3124359,1.16683 0.169799,1.45408 -0.8968608,1.80611 -1.03124,0.34034 -1.103593,0.64638 -0.3734779,1.57978 0.7018126,0.89721 0.6631834,1.1631 -0.2848848,1.96085 -1.0740893,0.90379 -1.3653877,0.86722 -2.2414496,-0.28135 l -0.7370551,-0.96633 -0.77521862,0.96633 c -0.42637076,0.53148 -0.92967178,0.96633 -1.11844935,0.96633 -0.18877757,0 -0.72207433,-0.35389 -1.18510313,-0.78643 z m -2.0715897,-15.67066 c -0.1984931,-0.19849 -0.3175,-1.18398 -0.3175,-2.62919 v -2.3117 l -0.9260417,0.15027 c -0.9069044,0.14717 -0.9260417,0.1316 -0.9260417,-0.75335 0,-0.77274 0.2149528,-1.08436 1.4839236,-2.15129 1.6084524,-1.35235 1.9639307,-1.46617 2.598219,-0.83188 0.3383624,0.33836 0.4157742,1.10516 0.4157742,4.11844 0,2.04636 -0.1225179,3.93159 -0.2738914,4.21443 -0.3104197,0.58003 -1.5513447,0.69737 -2.054442,0.19427 z m 4.23333349,0 c -0.17462501,-0.17462 -0.31750001,-0.64668 -0.31750001,-1.04902 0,-0.86535 0.80047312,-1.40139 1.74040542,-1.16548 0.7507896,0.18843 1.0796112,1.18299 0.6540341,1.97819 -0.3319727,0.6203 -1.5539217,0.75933 -2.07693951,0.23631 z m 5.30359431,0.0119 C 5.771679,120.72195 5.6550427,119.7833 5.6550427,118.2836 v -2.32172 l -0.8205311,0.1641 c -0.8261562,0.16523 -1.283052,-0.15764 -1.2920848,-0.91309 -0.00548,-0.45829 2.6268707,-2.98299 3.15037,-3.02152 1.4158543,-0.10422 1.3619481,-0.29255 1.2837478,4.48488 l -0.072544,4.43177 -0.7950517,0.0781 c -0.4372796,0.0429 -0.9432952,-0.0702 -1.1244792,-0.25136 z M -37.415585,84.920243 c -0.322093,-0.342853 -0.585624,-0.742175 -0.585624,-0.887384 0,-0.145206 3.506436,-3.054564 7.79208,-6.465239 4.285644,-3.410673 7.797988,-6.335475 7.805209,-6.499559 0.04829,-1.097317 -0.828403,-0.729652 -7.111895,2.982561 -3.55496,2.100231 -6.650585,3.782584 -6.879167,3.738563 -0.236185,-0.04548 -0.415602,-0.346647 -0.415602,-0.697611 0,-0.526789 0.651105,-0.970688 4.42917,-3.019637 2.436043,-1.321134 4.390346,-2.440887 4.342893,-2.488343 -0.04745,-0.04745 -0.786975,0.154797 -1.643378,0.449442 -1.670741,0.574818 -2.233893,0.533731 -2.233893,-0.162986 0,-0.366702 -0.181025,-0.410048 -1.099243,-0.26322 -1.396376,0.223289 -1.729224,0.430072 -1.183693,0.735367 0.595257,0.333123 0.544478,1.458312 -0.08092,1.793015 -0.883828,0.473009 -1.682806,0.30218 -2.559101,-0.547158 l -0.847108,-0.82105 -5.383197,1.309812 c -2.960759,0.720397 -5.532025,1.255723 -5.713926,1.189617 -0.356545,-0.129577 -0.458954,-1.27602 -0.132032,-1.478066 0.10928,-0.06754 5.139671,-1.213808 11.178646,-2.54726 12.169812,-2.687191 13.068917,-2.901024 12.901565,-3.068376 -0.0639,-0.06389 -0.741857,0.0024 -1.50658,0.14751 -3.103311,0.588532 -31.001402,4.251328 -31.243072,4.101968 -0.483913,-0.299074 -0.272032,-1.196991 0.334806,-1.418846 0.327422,-0.119703 2.976563,-0.47774 5.886979,-0.795634 6.816969,-0.744596 6.417313,-0.644012 6.279862,-1.580521 -0.09236,-0.629298 0.05105,-0.892101 0.797489,-1.461439 0.500554,-0.381791 1.033362,-0.694166 1.184018,-0.694166 0.150657,0 0.963901,0.535781 1.80721,1.190625 0.843309,0.654844 1.604899,1.190625 1.692423,1.190625 0.531416,0 4.649233,-0.579332 4.736238,-0.666337 0.05812,-0.05812 -0.266472,-0.418799 -0.721307,-0.801518 -0.454835,-0.382718 -0.826974,-0.856565 -0.826974,-1.052994 0,-0.465606 -1.133679,-0.594617 -7.010659,-0.797791 -2.647667,-0.09153 -4.908889,-0.286771 -5.09323,-0.439761 -0.18234,-0.151328 -0.331528,-0.498689 -0.331528,-0.771911 0,-0.61857 0.902208,-0.630992 8.159025,-0.112324 3.587341,0.256397 5.348648,0.284689 5.893745,0.09467 0.581139,-0.202586 1.093039,-0.170254 2.027434,0.128051 0.687504,0.219482 3.333599,0.548227 5.880214,0.730538 3.194298,0.228682 5.022993,0.482918 5.896774,0.819806 0.696611,0.268579 1.317715,0.488326 1.380231,0.488326 0.161938,0 2.893761,-2.429312 2.986603,-2.655882 0.04243,-0.103548 -0.416576,-0.385821 -1.020022,-0.627275 -1.206164,-0.48261 -2.160114,-0.35679 -1.925735,0.253993 0.1929,0.502692 -0.265578,0.485306 -1.31172,-0.04974 l -0.846756,-0.433073 0.518043,0.58085 c 0.628211,0.704374 0.307631,1.433378 -0.683313,1.553861 -0.959585,0.116674 -12.448088,-1.73755 -12.771895,-2.061358 -0.409713,-0.409713 0.148965,-1.174747 0.925309,-1.267084 0.349125,-0.04152 2.99484,0.464492 5.87937,1.124479 2.884527,0.659987 5.325308,1.193308 5.423958,1.185153 0.09865,-0.0081 -1.517806,-0.833223 -3.592121,-1.833488 -3.630322,-1.750597 -4.423794,-2.36537 -3.825335,-2.963828 0.195151,-0.195152 1.123272,0.174392 3.09717,1.233178 3.921697,2.103575 3.956394,1.848342 0.134022,-0.985817 -1.245187,-0.923261 -1.741099,-2.049804 -0.90234,-2.049804 0.25156,0 1.08817,0.47625 1.859132,1.058334 0.770964,0.582083 1.459412,1.058333 1.529881,1.058333 0.07047,0 0.508061,-0.712827 0.972423,-1.58406 1.084956,-2.035583 2.969573,-3.787418 5.213065,-4.845776 1.64311,-0.775131 1.980872,-0.837594 4.425384,-0.818401 l 2.646503,0.02077 1.8199308,-7.168042 c 2.3332944,-9.189987 2.2604811,-8.740002 1.213374,-7.49877 -0.4603565,0.545703 -0.9948228,0.992187 -1.1877041,0.992187 -0.1928812,0 -0.4945142,-0.435785 -0.6702981,-0.968409 -0.1757812,-0.532625 -0.6235436,-1.22985 -0.9950266,-1.549385 -0.669046,-0.575489 -0.67183,-0.594452 -0.294807,-2.008153 0.29753,-1.115629 0.505876,-1.445059 0.954411,-1.509093 0.3155868,-0.04505 0.7641746,-0.372475 0.9968651,-0.727604 0.7151556,-1.091465 2.0855756,-0.789626 2.6660794,0.587213 l 0.3168332,0.751473 0.310515,-1.190626 c 0.6633369,-2.543474 0.9900259,-2.817008 2.2142901,-1.853998 l 0.6702901,0.527248 1.1057414,-3.106936 C -1.1514246,25.933257 -0.17276523,23.136151 0.41521834,21.426281 1.4163329,18.51501 1.5285321,18.31749 2.1805978,18.318416 c 0.8789114,0.0012 2.4161116,0.921561 2.4161116,1.446512 0,0.21832 -2.0417077,6.083898 -4.53712547,13.034619 -2.49542043,6.950729 -4.58410223,12.875805 -4.64151683,13.166847 -0.057415,0.291042 1.1538612,-1.94627 2.6917228,-4.971804 1.53786158,-3.025535 2.9726203,-5.568704 3.188351,-5.65149 0.4707361,-0.180636 1.7158309,0.580009 1.6994955,1.038246 -0.00638,0.178547 -2.31272033,4.253694 -5.1252307,9.055881 l -5.1136578,8.731251 0.6470015,0.661458 0.6470042,0.661458 0.4433305,-0.632777 c 0.2438348,-0.348025 1.3006097,-1.479119 2.3483942,-2.513542 1.0477818,-1.03442 6.1445433,-6.524202 11.3261382,-12.199515 5.1815925,-5.675312 9.6336435,-10.469671 9.8934485,-10.654133 0.396293,-0.281366 0.585597,-0.246314 1.175425,0.217641 0.386678,0.304165 0.703053,0.763685 0.703053,1.021159 0,0.260424 -4.402296,4.936678 -9.921875,10.539315 -5.4570316,5.53915 -9.92187547,10.141879 -9.92187547,10.228287 0,0.449781 0.8903891,0.0275 2.17920097,-1.033518 0.7954328,-0.654844 1.5830154,-1.190625 1.7501871,-1.190625 0.4845897,0 0.352806,1.04911 -0.2554023,2.033209 -0.307639,0.497771 -0.5065316,0.957855 -0.4419838,1.022406 0.06455,0.06455 3.6681279,-2.382494 8.0079485,-5.437876 4.33982,-3.055382 7.976947,-5.55524 8.082502,-5.55524 0.515324,0 0.845154,0.871302 0.710332,1.876468 -0.0795,0.592709 -0.184319,1.113488 -0.232933,1.157285 -0.269309,0.242628 -25.1892739,15.697597 -26.3640028,16.350539 -0.7726283,0.429445 -1.3442527,0.841335 -1.2702779,0.91531 0.2304151,0.230412 1.5918948,-0.355942 2.3084394,-0.994188 0.8824781,-0.786043 15.5271823,-7.712284 16.0840213,-7.60697 0.532006,0.100621 0.711862,1.603947 0.237252,1.983061 -0.189333,0.151235 -2.9313691,1.264748 -6.0934152,2.47447 -3.1620461,1.209723 -5.70477936,2.243892 -5.65051861,2.298153 0.0542608,0.05426 9.07187491,-2.230253 20.03913981,-5.076693 10.967268,-2.846443 20.203079,-5.175351 20.524024,-5.175351 0.977106,0 1.594138,1.882452 0.726205,2.21551 -0.951141,0.364987 -47.4179339,10.795297 -48.6456139,10.919386 l -1.3523966,0.136694 0.659347,-0.533672 c 0.3626379,-0.293518 0.6602942,-0.746588 0.6614584,-1.006822 0.00132,-0.29737 1.1325172,-1.296495 3.0448198,-2.689341 1.6734896,-1.218904 3.0837056,-2.327119 3.1338124,-2.4627 0.050107,-0.13558 0.027459,-0.412371 -0.050334,-0.61509 -0.1175597,-0.306356 -0.3562721,-0.28666 -1.4140181,0.116666 -1.1014049,0.419973 -1.272585,0.58479 -1.272585,1.225272 0,0.625628 -0.1359826,0.768006 -0.8796417,0.921017 -0.6085682,0.125217 -1.6406628,0.903468 -3.3492018,2.525472 -4.1620845,3.95128 -4.9641445,4.625168 -5.3353365,4.482727 -0.196734,-0.07549 -0.357696,-0.07783 -0.357696,-0.0052 0,0.186327 1.795622,1.759074 2.535992,2.221216 0.723289,0.451483 1.130012,0.2061 0.639008,-0.385521 -0.470683,-0.567137 -0.131868,-0.806482 0.642314,-0.45374 0.9333679,0.42527 2.0035202,-0.449659 2.0035202,-1.638032 0,-1.087345 0.1597475,-1.24228 0.9651418,-0.93607 0.4509903,0.171466 1.3418,0.09423 2.9493582,-0.255706 1.2667641,-0.275754 13.4148252,-2.380605 26.9956918,-4.677442 20.876642,-3.530725 24.72964,-4.117351 24.93293,-3.796083 0.339717,0.536876 0.306424,2.03278 -0.05015,2.253154 -0.263356,0.162761 -32.04939,4.595083 -33.025578,4.605163 -0.645637,0.0067 -0.0016,0.390785 2.463556,1.469348 1.289471,0.564168 2.399848,1.170011 2.467502,1.346314 0.06765,0.176302 -0.07833,0.627827 -0.324403,1.003385 l -0.447411,0.682834 0.890326,0.01572 c 0.48968,0.0087 5.377458,0.166452 10.861731,0.350689 10.433976,0.350515 10.798387,0.402895 10.798387,1.55212 0,0.508736 -0.118277,0.523904 -2.844271,0.364765 C 36.171424,68.398984 30.724314,68.146765 25.631085,67.92982 15.412752,67.494572 7.7524796,67.102341 2.0335873,66.72155 c -5.5566761,-0.369994 -5.9035449,-0.353587 -5.9035449,0.27922 0,0.291041 0.029766,0.538607 0.066146,0.550148 0.03638,0.01154 4.35239601,0.636616 9.5911462,1.389062 l 9.5250004,1.368081 0.08086,1.11437 c 0.09942,1.370039 -0.306964,2.193139 -1.08236,2.192255 -0.322302,-2.64e-4 -1.695924,-0.298024 -3.052493,-0.661458 -1.3565684,-0.363437 -2.5105831,-0.660791 -2.5644761,-0.660791 -0.05389,0 -0.1345962,0.506015 -0.1793425,1.124479 -0.076562,1.058172 -0.1281642,1.123757 -0.8751094,1.112213 -0.4365625,-0.0067 -1.3890626,-0.09737 -2.1166667,-0.20138 l -1.322913,-0.189113 1.0454085,0.598254 c 0.5749767,0.329041 1.3786486,0.916517 1.7859376,1.305507 0.8173112,0.780585 0.9956297,1.80629 0.3140207,1.80629 -0.2345796,0 -2.0911662,-1.018651 -4.1257486,-2.263667 -2.0345797,-1.245018 -3.63663188,-2.162371 -3.56011702,-2.038564 0.0765175,0.123806 2.17615302,1.703842 4.66586112,3.51119 4.6333358,3.363471 5.070999,3.87127 3.9447603,4.576903 -0.3343751,0.2095 -0.782148,-0.0046 -2.0505209,-0.980631 -1.4100731,-1.085024 -1.6227266,-1.177287 -1.6227266,-0.704029 0,0.344326 -0.1719633,0.544631 -0.4675664,0.544631 -0.2571618,0 -2.7662639,-1.848657 -5.5757818,-4.108127 l -5.1082153,-4.108125 -0.8119375,0.683199 c -2.1408179,1.801379 -5.4599494,2.735652 -8.0305624,2.260447 -1.835359,-0.339283 -3.663302,-1.13606 -4.927402,-2.147792 -0.53717,-0.429927 -1.077928,-0.781685 -1.201681,-0.781685 -0.252021,0 -2.451855,2.179084 -2.451855,2.428726 0,0.08786 0.289722,0.232455 0.643824,0.321332 1.143355,0.286961 1.182029,2.159333 0.06082,2.944656 -0.751745,0.526542 -3.043936,0.510691 -3.636029,-0.02513 -0.426096,-0.385609 -0.770996,-0.130691 -4.743186,3.505729 -2.356024,2.156868 -4.4847,3.956294 -4.73039,3.998727 -0.245689,0.04243 -0.710239,-0.203366 -1.032335,-0.546219 z M -0.31789448,70.531404 c 0.15798536,-0.524073 0.0102394,-0.608534 -1.81888352,-1.039749 -1.0949596,-0.258138 -2.0717696,-0.388406 -2.1706893,-0.289488 -0.2263775,0.22638 -0.2854855,0.182025 1.7580134,1.319196 1.76677115,0.983181 1.93796451,0.983951 2.23155942,0.01005 z M -26.148526,67.373364 c 1.57915,-0.146288 1.915904,-0.256741 1.84898,-0.606457 -0.116388,-0.6082 -5.499579,-0.795322 -5.499579,-0.191167 0,0.212977 -0.206084,0.593315 -0.457965,0.845196 -0.434229,0.434229 -0.389665,0.449498 0.859896,0.294627 0.724823,-0.08983 2.186723,-0.243824 3.248668,-0.342199 z M 8.3518032,64.995276 c -0.092263,-0.924037 0.1985036,-1.232485 1.5815548,-1.677726 0.534061,-0.171929 1.114187,-0.485103 1.289166,-0.695939 0.46468,-0.559903 -0.217005,-0.514387 -7.8164397,0.521901 -3.63802095,0.496094 -7.3686911,0.984459 -8.2903777,1.085258 l -1.6757968,0.183266 0.671322,0.699053 0.6713194,0.699056 H 1.6078595 8.4331678 Z M -10.111436,59.81856 c -0.202415,-0.327518 -1.696022,-0.278329 -1.696022,0.05585 0,0.155088 0.129241,0.523468 0.287203,0.818621 0.285951,0.534305 0.289951,0.534061 0.917887,-0.05585 0.346877,-0.325874 0.567796,-0.694253 0.490932,-0.818621 z m -33.59502,20.805143 c -0.871408,-1.063437 -0.962195,-1.312889 -0.831761,-2.285362 0.08053,-0.600393 0.327004,-1.27221 0.54772,-1.492925 0.358677,-0.35868 0.469662,-0.356508 1.044953,0.02043 0.35401,0.231957 0.897758,0.35529 1.208331,0.274074 0.310571,-0.08122 0.921039,-5.9e-5 1.35659,0.180353 0.598406,0.247869 0.791914,0.49975 0.791914,1.030801 0,0.911166 -0.685586,1.878856 -1.331124,1.878856 -0.29614,0 -0.678254,0.330454 -0.917834,0.79375 -0.225756,0.436563 -0.518499,0.79375 -0.650539,0.79375 -0.132041,0 -0.680255,-0.537181 -1.21825,-1.193734 z M 17.825876,52.954699 c -2.976599,-0.381876 -2.997956,-0.393227 -2.818632,-1.498275 0.09071,-0.558969 0.480316,-1.289455 0.924811,-1.733949 0.939075,-0.939075 1.201169,-0.835422 3.181107,1.25807 1.15748,1.223864 1.350081,1.556416 1.085823,1.874824 -0.176678,0.212886 -0.395954,0.37197 -0.487275,0.353518 -0.09132,-0.01844 -0.939948,-0.132837 -1.885834,-0.254188 z m 13.28809,-6.779414 -1.396285,-0.955511 -0.734859,0.704038 c -0.882857,0.84583 -1.418053,0.879393 -2.579244,0.161737 -1.055806,-0.652523 -1.227899,-1.116814 -0.916082,-2.471489 0.320339,-1.391716 0.696423,-1.69935 2.372294,-1.940531 l 1.430036,-0.205803 0.442425,-1.322541 c 0.646832,-1.933562 1.185529,-1.795672 2.58563,0.661834 1.10144,1.933286 1.128689,2.038794 1.058334,4.098115 -0.08667,2.537074 -0.264777,2.637068 -2.262249,1.270151 z M 1.2034677,44.249986 C 0.42782838,43.541551 0.35624271,43.356419 0.51288398,42.464049 0.80102583,40.822526 1.4633573,39.89242 2.4104757,39.799282 c 1.2069393,-0.11869 1.7756321,0.860512 1.6875337,2.905664 -0.032549,0.755661 -1.1925088,2.335406 -1.7148122,2.335406 -0.1729158,0 -0.7037944,-0.355663 -1.1797295,-0.790366 z"
         id="path182" />
      <path
         style="fill:#9f5e18;stroke-width:0.264583"
         d="m -38.332248,131.62494 c -23.246784,-23.24712 -42.266879,-42.38656 -42.266879,-42.53208 0,-0.145521 19.033433,-19.297736 42.296513,-42.56048 C -1.1586398,9.3889509 4.0547898,4.2702647 4.4937415,4.5137615 5.2057141,4.9087096 88.998796,88.778082 88.998796,89.095754 c 0,0.344871 -84.4546964,84.796686 -84.7995808,84.796686 -0.1455208,0 -19.2846812,-19.02038 -42.5314632,-42.2675 z m 82.946862,-2.11603 C 66.697582,107.4263 84.765462,89.239653 84.765462,89.09413 c 0,-0.345962 -80.2190208,-80.5662791 -80.5649768,-80.5662791 -0.1455235,0 -18.3919982,18.1271211 -40.5477252,40.2824881 l -40.283138,40.282489 40.28249,40.283142 c 22.155367,22.15572 40.4015506,40.28314 40.5470715,40.28314 0.1455208,0 18.3324635,-18.06759 40.4154305,-40.1502 z M 0.22452518,159.53879 c -0.0672359,-0.1819 -0.15279423,-2.71198 -0.19013488,-5.62239 l -0.06788944,-5.29167 -1.71979176,-0.13229 -1.7197917,-0.13229 v -1.16971 -1.16972 l 1.4552084,-0.29253 c 1.83135329,-0.36816 2.02888063,-0.49699 2.58762773,-1.68773 0.41280293,-0.87972 0.56815307,-0.97996 1.63661727,-1.0561 1.880804,-0.13402 1.8611719,-0.22313 1.8611719,8.44743 0,4.18039 -0.072268,7.78904 -0.1605995,8.01922 -0.2052584,0.5349 -3.48822972,0.61316 -3.68241802,0.0878 z M -1.3326721,136.45273 c -0.7381876,-0.68413 -0.7327742,-0.74595 0.180795,-2.06459 0.57968628,-0.83671 0.50437792,-0.98985 -0.6865487,-1.39608 -0.9343444,-0.3187 -1.1952103,-1.05291 -0.701728,-1.97499 0.2665386,-0.49803 0.4508633,-0.54742 1.4718216,-0.39431 l 1.16712473,0.17502 0.0040481,-1.0084 c 0.005874,-1.46195 0.25962769,-1.71747 1.60967217,-1.62088 l 1.1644048,0.0833 0.081571,1.27948 0.081568,1.27948 1.274535,-0.1753 c 1.25553,-0.17267 1.2789694,-0.16257 1.5719663,0.67792 0.3560181,1.02128 0.09072,1.45581 -1.0405136,1.70427 -1.068205,0.23462 -1.115322,0.42897 -0.3699246,1.52592 0.8240819,1.21275 0.815393,1.35947 -0.1199753,2.02551 -0.9099445,0.64793 -1.2961224,0.54904 -2.008394,-0.51431 -0.2910416,-0.43449 -0.6124046,-0.79033 -0.7141395,-0.79075 -0.1017349,-5.3e-4 -0.5028195,0.41596 -0.89129929,0.92528 -0.84034845,1.10176 -1.13063871,1.13861 -2.07498421,0.26342 z m -2.0963124,-15.65335 c -0.097015,-0.097 -0.1763898,-1.28764 -0.1763898,-2.64583 0,-2.53564 -0.090517,-2.72282 -1.0646172,-2.2015 -0.3975259,0.21275 -0.5597631,0.15752 -0.7875429,-0.26809 -0.3509222,-0.6557 -0.1986571,-0.91791 1.3525818,-2.32926 2.2414654,-2.03933 2.6162451,-1.58746 2.6162451,3.15443 0,1.99629 -0.072268,3.81794 -0.1605995,4.04813 -0.1595437,0.41576 -1.432814,0.58899 -1.7796775,0.24212 z m 4.23333349,0 c -0.0970148,-0.097 -0.17638977,-0.51146 -0.17638977,-0.921 0,-0.58009 0.15109296,-0.78253 0.68385268,-0.91625 0.4531254,-0.11372 0.8217721,-0.0337 1.0926366,0.23715 0.2708646,0.27087 0.3508746,0.63951 0.2371487,1.09264 -0.1337151,0.53276 -0.3361531,0.68385 -0.9162495,0.68385 -0.4095353,0 -0.82398658,-0.0794 -0.92099871,-0.17639 z m 5.29166681,0 c -0.097015,-0.097 -0.1763897,-1.28764 -0.1763897,-2.64583 0,-2.52709 -0.1285002,-2.79842 -1.0494593,-2.21595 -0.4692862,0.29681 -1.068705,-0.12515 -1.0638684,-0.74891 0.00403,-0.51942 2.7019595,-2.94417 3.2758698,-2.94417 0.7386876,0 0.9541246,0.98574 0.9541246,4.36563 0,1.83814 -0.1232508,3.57237 -0.2738914,3.85385 -0.2633715,0.49211 -1.3008504,0.70092 -1.6663856,0.33538 z M -37.305122,84.766118 c -0.244345,-0.269997 -0.375155,-0.65695 -0.29069,-0.859896 0.08446,-0.202946 3.599474,-3.107431 7.811136,-6.45441 4.211661,-3.34698 7.657769,-6.215793 7.658018,-6.375139 2.46e-4,-0.159348 -0.216564,-0.486119 -0.481804,-0.726157 -0.454636,-0.411437 -0.848847,-0.216796 -6.883228,3.398576 -3.520535,2.109256 -6.57774,3.835011 -6.793788,3.835011 -0.63953,0 -0.448662,-0.719063 0.33479,-1.261282 0.400182,-0.276958 2.037292,-1.194723 3.638021,-2.039477 4.514594,-2.382486 6.253893,-3.365833 6.145337,-3.474389 -0.05485,-0.05485 -1.221864,0.254391 -2.593364,0.687202 -1.371502,0.432813 -2.582936,0.789035 -2.692077,0.791607 -0.109141,0.0026 -0.198438,-0.248669 -0.198438,-0.558311 0,-0.503285 -0.105206,-0.545615 -0.992187,-0.399195 -0.545703,0.09008 -1.468438,0.301919 -2.050521,0.470744 l -1.058333,0.306956 0.859895,0.232096 c 1.114841,0.300908 1.205498,1.297477 0.161312,1.77324 -0.610511,0.278167 -0.784678,0.241824 -1.381469,-0.288261 -0.375587,-0.333605 -0.825093,-0.784545 -0.998898,-1.002088 -0.276365,-0.345909 -0.966806,-0.234223 -5.50318,0.890209 -2.852941,0.707157 -5.388496,1.301864 -5.634567,1.321572 -0.70831,0.05673 -0.72671,-0.845542 -0.0235,-1.152228 0.625706,-0.272884 13.412047,-3.119906 20.276924,-4.514885 2.083274,-0.423331 3.903822,-0.841417 4.045659,-0.929076 0.141836,-0.08766 0.202401,-0.357722 0.134583,-0.600139 -0.06781,-0.242414 -0.201181,-0.827706 -0.296367,-1.300649 -0.164055,-0.815121 -0.132371,-0.859896 0.608441,-0.859896 0.429829,0 1.287695,0.178594 1.90637,0.396875 1.762401,0.62181 2.299685,0.509262 3.789223,-0.79375 0.748585,-0.654844 1.4458,-1.190625 1.549366,-1.190625 0.103565,0 1.098952,0.773906 2.211967,1.719792 1.113014,0.945885 2.117918,1.719791 2.233117,1.719791 0.1152,0 0.811679,-0.386953 1.547728,-0.859896 1.1372879,-0.730752 1.3504892,-0.998974 1.4195851,-1.785937 0.1247246,-1.420543 0.8753052,-1.344412 2.5080411,0.254392 0.7487735,0.733208 1.4938931,1.333108 1.6558207,1.333108 0.1619277,0 0.429133,0.295677 0.5937912,0.657061 0.354367,0.777753 -0.4209018,0.618969 10.3470634,2.119188 4.6248535,0.644345 8.5241505,1.242812 8.6651045,1.329926 0.284282,0.175696 0.346281,1.701416 0.09568,2.354477 -0.216247,0.563528 -0.849675,0.523118 -3.808151,-0.242943 -3.1587415,-0.81792 -3.2797593,-0.822415 -2.8972274,-0.107649 0.3983038,0.744241 0.1026425,1.82744 -0.4988031,1.82744 -0.2615432,0 -1.1593857,-0.126418 -1.9952071,-0.280926 -2.4377545,-0.450644 -2.6056961,-0.205568 -0.6239272,0.910484 1.663962,0.937075 2.3109979,1.570802 2.3109979,2.263465 0,0.155088 -0.1336728,0.281977 -0.2970477,0.281977 -0.2351828,0 -5.2184699,-2.965201 -11.080036,-6.592946 -0.5785035,-0.358036 -0.621882,-0.359068 -0.3458872,-0.0082 0.1735614,0.220633 3.1167945,2.421234 6.5405135,4.890225 6.0460839,4.360087 6.9025614,5.177777 5.8474691,5.582653 C 7.9383176,81.545532 7.0822555,81.059334 6.0611517,80.256879 5.1164357,79.514458 4.27913,78.90702 4.200472,78.90702 c -0.078655,0 -0.068305,0.297656 0.023019,0.661458 0.118454,0.471959 0.058838,0.661459 -0.2080948,0.661459 -0.2057585,0 -2.5106207,-1.741694 -5.1219128,-3.870431 -2.6112921,-2.12874 -4.8938102,-3.986446 -5.0722664,-4.128239 -0.2262743,-0.179789 -0.6397466,-0.0081 -1.3663348,0.567373 -0.573032,0.45385 -1.7367092,1.148625 -2.5859562,1.543944 -1.306734,0.608283 -1.889773,0.717352 -3.793037,0.709571 -2.492743,-0.01019 -4.384853,-0.674124 -6.344656,-2.226318 -0.554143,-0.438891 -1.109464,-0.792578 -1.234043,-0.785974 -0.279585,0.01482 -3.142599,2.601121 -2.985559,2.696996 0.06227,0.03802 0.470403,0.255624 0.906966,0.483576 0.663384,0.346384 0.786376,0.561692 0.748847,1.310931 -0.02558,0.510574 -0.246658,1.044006 -0.51359,1.239192 -0.655389,0.479232 -2.865597,0.442711 -3.277966,-0.05416 -0.181157,-0.218281 -0.443759,-0.396875 -0.58356,-0.396875 -0.1398,0 -2.195036,1.785938 -4.567187,3.96875 -2.372154,2.182813 -4.486926,3.96875 -4.699498,3.96875 -0.212568,0 -0.586409,-0.220906 -0.830752,-0.490902 z m 36.87474785,-9.402091 c 0,-0.219054 -5.02195585,-4.129924 -5.30324505,-4.129924 -0.6336136,0 -0.022754,0.569055 2.52512,2.352305 2.7670734,1.936665 2.77812505,1.943738 2.77812505,1.777619 z m 0.32120153,-4.525677 0.4534932,-0.9119 -0.98265989,-0.260069 C -1.1788037,69.523344 -2.1858502,69.257277 -2.8762249,69.075122 c -0.9796648,-0.258488 -1.3252636,-0.261155 -1.5742709,-0.01214 -0.2135664,0.213567 -0.2312114,0.406879 -0.053377,0.584714 0.2806012,0.280601 3.58286059,2.103916 3.8089153,2.103061 0.0727604,-2.64e-4 0.33636216,-0.410853 0.58578488,-0.912399 z M -43.482111,80.589654 c -0.450051,-0.568233 -0.843814,-1.209051 -0.875033,-1.424038 -0.125764,-0.866074 0.02782,-1.565601 0.432613,-1.970392 0.371752,-0.371753 0.499649,-0.378862 0.993589,-0.05522 0.311804,0.204301 0.927942,0.318468 1.369198,0.253706 0.532575,-0.07817 1.010912,0.05119 1.422882,0.384778 0.530971,0.429956 0.575955,0.585944 0.311483,1.080114 -0.170013,0.317672 -0.632349,0.779524 -1.027409,1.026338 -0.395062,0.246811 -0.963715,0.738801 -1.263674,1.093308 l -0.545377,0.644557 z M -57.580376,71.76831 c 0,-0.66744 -0.05253,-0.656823 7.276042,-1.470853 3.346979,-0.371769 6.204479,-0.721818 6.35,-0.777883 0.145521,-0.05607 0.0049,-0.181218 -0.312428,-0.278112 -0.936644,-0.285974 -0.956942,-0.896493 -0.05774,-1.736476 0.452651,-0.422841 0.97468,-0.7688 1.160063,-0.7688 0.18538,0 1.035992,0.543169 1.890247,1.20704 1.267407,0.984949 1.699236,1.182399 2.346939,1.073113 0.436562,-0.07366 1.716484,-0.214098 2.84427,-0.312084 1.127787,-0.09799 2.046002,-0.253465 2.04048,-0.345509 -0.0055,-0.09204 -0.481771,-0.493641 -1.058333,-0.892442 -0.586658,-0.405783 -1.048292,-0.942128 -1.048292,-1.217946 0,-0.422899 -0.287341,-0.517147 -2.024296,-0.663972 -1.113361,-0.09411 -3.107658,-0.185033 -4.431771,-0.202041 -4.072194,-0.05231 -5.829046,-0.297902 -5.930072,-0.828971 -0.07717,-0.405696 0.135435,-0.460793 1.71726,-0.445035 0.992933,0.0099 3.88893,0.158721 6.435545,0.330729 3.007874,0.203163 4.984245,0.225304 5.640639,0.06319 0.727382,-0.17965 1.246204,-0.152398 1.852084,0.09728 0.462909,0.190765 1.794152,0.495792 2.958319,0.677839 2.004661,0.313484 2.168967,0.438695 0.661459,0.504079 -0.483945,0.02098 -0.685255,0.196903 -0.750134,0.655487 -0.05746,0.406188 -0.360116,0.729257 -0.859896,0.917903 -0.424172,0.160107 -0.771221,0.457313 -0.771221,0.660458 0,0.290571 0.324507,0.337508 1.521355,0.220049 2.731997,-0.268119 0.04577,0.274126 -5.622396,1.134946 -5.552811,0.843301 -20.816799,2.922138 -21.455966,2.922138 -0.204689,0 -0.37216,-0.235858 -0.37216,-0.524127 z M 29.732127,67.903864 C 26.166866,67.713769 21.285304,67.498049 18.88421,67.424481 14.435892,67.288194 8.1196868,66.850248 5.2581677,66.479694 3.6900457,66.276629 3.7003566,66.273711 6.10285,66.240569 l 2.4321824,-0.03355 0.081359,-1.103916 c 0.076205,-1.033979 0.1502542,-1.126787 1.1688472,-1.464927 0.9813214,-0.325765 2.4753994,-1.520348 2.1987994,-1.758034 -0.06121,-0.0526 -2.6115997,0.238543 -5.6675373,0.646977 -6.41013739,0.856735 -10.2410687,1.18146 -8.9958337,0.762527 1.88353181,-0.633677 48.658052,-8.576795 49.224969,-8.359246 0.472147,0.181179 0.512556,1.637448 0.05368,1.93444 -0.181901,0.117729 -7.746146,1.228003 -16.809435,2.467277 -9.063286,1.239274 -16.485574,2.364822 -16.493969,2.50122 -0.0084,0.136395 1.037177,0.708221 2.323497,1.270722 2.904778,1.270244 3.265733,1.577277 2.651805,2.255661 -0.647915,0.715938 -0.546884,1.112451 0.282268,1.107807 3.420255,-0.01915 20.702604,0.658101 21.166667,0.829472 0.327422,0.120912 0.595313,0.401381 0.595313,0.623263 0,0.488781 -1.141783,0.487013 -10.583334,-0.0164 z M -25.698083,64.4313 c -2.576037,-0.353536 -8.666079,-1.378204 -8.76213,-1.474258 -0.314759,-0.314759 0.297894,-0.983356 0.901078,-0.983356 0.897057,0 8.694442,1.811018 9.713135,2.255967 l 0.79375,0.3467 -0.926042,-0.01807 c -0.509323,-0.0099 -1.283229,-0.06708 -1.719791,-0.126992 z m 9.617982,-0.731025 c -1.63663,-0.845256 -1.922145,-0.906441 -4.101041,-0.878824 l -2.341941,0.02968 -1.322917,-1.298618 c -0.727604,-0.714242 -1.888464,-1.68312 -2.579688,-2.153062 -0.691224,-0.469945 -1.25677,-1.035492 -1.25677,-1.256771 0,-0.632455 0.444971,-0.483039 1.953625,0.656005 0.770961,0.582083 1.514956,1.058333 1.65332,1.058333 0.138364,0 0.570831,-0.650962 0.961038,-1.44658 1.985966,-4.049302 5.841786,-6.220352 10.391781,-5.851168 l 2.165041,0.17567 0.317963,-1.66448 c 0.174881,-0.915467 1.0247679,-4.415214 1.8886404,-7.777216 0.8638699,-3.362005 1.5655979,-6.338568 1.5593934,-6.614584 -0.00863,-0.384243 -0.2496979,-0.230375 -1.0286498,0.656588 -1.0953909,1.24728 -1.4690143,1.25775 -1.7345872,0.04861 -0.093168,-0.424193 -0.4708578,-0.968785 -0.8393088,-1.210204 -0.582366,-0.381579 -0.647488,-0.56565 -0.498311,-1.408517 0.295214,-1.667992 0.420672,-1.895616 1.0447895,-1.895616 0.3885804,0 0.7105307,-0.24004 0.9104498,-0.678817 0.2407921,-0.528479 0.4699345,-0.660324 1.0346558,-0.595313 0.5615491,0.06465 0.8519478,0.347269 1.2858328,1.2514 l 0.5604642,1.167897 0.2845488,-0.903314 c 0.1565011,-0.496821 0.4148984,-1.409327 0.574212,-2.02779 0.3040592,-1.180357 0.6412151,-1.358956 1.4495781,-0.767866 0.3936153,0.287819 0.4545224,0.564089 0.3157246,1.432079 -0.094586,0.591505 -0.2507324,1.294233 -0.3469931,1.561615 -0.096261,0.267383 -0.093321,0.413502 0.00654,0.324708 0.099851,-0.08879 1.3548546,-3.482076 2.788891,-7.540626 2.8413288,-8.041401 2.8138888,-7.998002 4.5042959,-7.123859 0.4464103,0.230849 0.8116571,0.610818 0.8116571,0.844376 0,0.233559 -2.2651827,6.740192 -5.03373517,14.459186 -2.76855513,7.718994 -4.99429633,14.152854 -4.94609193,14.29747 0.048205,0.144613 1.6048673,-2.73367 3.4592526,-6.396189 1.95158261,-3.854497 3.5253138,-6.659123 3.7365624,-6.659123 0.3788198,0 1.2000971,0.696788 1.191731,1.011087 -0.00265,0.09874 -2.30764037,4.108601 -5.1222515,8.910788 -2.8146111,4.802188 -5.0695888,8.850313 -5.0110604,8.995834 0.058526,0.145521 0.4186291,0.493302 0.8002297,0.772845 l 0.6938143,0.508262 0.5517118,-0.738013 c 0.3034401,-0.405905 1.013722,-1.170405 1.5784063,-1.698887 C -3.2046157,52.74879 1.9052824,47.256241 7.5860323,41.071605 13.26678,34.886969 18.053862,29.742469 18.223989,29.639382 c 0.402072,-0.243631 1.453976,0.495295 1.453976,1.021366 0,0.223877 -4.455242,4.949862 -9.9005397,10.502183 -5.4452971,5.552324 -9.93990666,10.214195 -9.98802114,10.359716 -0.0481145,0.145521 0.16057033,0.30003 0.46374316,0.343355 0.33625897,0.04805 1.05664528,-0.338883 1.84723358,-0.992187 2.0116695,-1.662348 2.4949733,-1.404364 1.273564,0.679815 -0.8080296,1.378797 -0.6950949,1.691558 0.3476387,0.962768 0.4085616,-0.285554 4.0021696,-2.814563 7.9858004,-5.620022 3.983627,-2.805462 7.43644,-5.114896 7.672917,-5.132076 0.654047,-0.04752 0.743781,1.977509 0.111876,2.524755 -0.26162,0.226571 -5.673767,3.635933 -12.0269958,7.576362 -14.3727069,8.914311 -17.1491916,10.40501 -11.4851977,6.166427 2.0240731,-1.514692 2.4601567,-1.96165 2.3446979,-2.40317 -0.2068698,-0.791067 -0.408485,-0.832282 -1.6951088,-0.346507 -1.5926859,0.601332 -1.881603,0.863542 -1.7090417,1.551075 0.1520772,0.605923 -0.2277242,0.907114 -1.1438732,0.907114 -0.2519124,0 -0.8077226,0.368067 -1.2351306,0.817927 -1.0817199,1.138542 -2.2744034,1.98087 -2.0772253,1.46703 0.1153795,-0.30067 -0.1390544,-0.437724 -1.0724668,-0.577696 -0.673053,-0.100931 -1.281592,-0.125654 -1.352307,-0.05494 -0.07072,0.07071 0.01913,0.680847 0.199673,1.355849 l 0.328247,1.227275 -1.301982,1.321859 c -0.716093,0.727024 -1.365991,1.319445 -1.444223,1.316492 -0.07823,-0.003 -0.933834,-0.414194 -1.901339,-0.913876 z m 8.2413933,-5.736347 c 0,-0.122965 -0.2381251,-0.223575 -0.5291667,-0.223575 -0.396293,0 -0.5291667,0.176389 -0.5291667,0.702466 0,0.685705 0.012621,0.691039 0.5291667,0.223575 0.2910416,-0.26339 0.5291667,-0.579498 0.5291667,-0.702466 z m -18.9005433,3.615537 c -2.865358,-1.292143 -3.212592,-1.525873 -2.93475,-1.975432 0.182869,-0.295889 3.049717,1.115618 5.161815,2.541444 1.37197,0.926185 0.707329,0.757267 -2.227065,-0.566012 z m 21.81096,-0.118388 c 0,-0.311113 43.387612,-11.658225 44.577208,-11.658225 0.484547,0 0.701212,0.178298 0.827339,0.680832 0.09398,0.374454 0.06067,0.791035 -0.07402,0.925732 -0.134697,0.134696 -7.085185,1.79787 -15.445527,3.695938 -27.1388527,6.1614 -29.884995,6.745431 -29.884995,6.355723 z m 0.7937501,-1.17629 c 0,-0.3308 13.9819464,-7.042351 14.6710909,-7.042351 0.484288,0 0.726046,0.732679 0.426461,1.292458 -0.135642,0.253449 -1.5325412,0.949483 -3.1079049,1.548577 -11.3744088,4.325572 -11.989647,4.541158 -11.989647,4.201316 z M 17.429001,52.683043 c -0.873125,-0.126656 -1.736328,-0.286993 -1.918229,-0.356306 -0.565361,-0.215435 -0.364477,-1.312823 0.410181,-2.240738 0.877015,-1.050523 1.140931,-0.97246 2.932946,0.867505 0.754647,0.774843 1.104437,1.336977 1.000493,1.607857 -0.174712,0.455287 -0.138229,0.453456 -2.425391,0.121682 z M 31.19223,45.950897 c -0.724911,-0.5008 -1.415206,-0.910545 -1.533988,-0.910545 -0.118779,0 -0.491823,0.297656 -0.828985,0.661459 -0.746461,0.805444 -1.276326,0.829492 -2.439339,0.110712 -0.95463,-0.589995 -1.036103,-0.901097 -0.624253,-2.383716 0.303607,-1.092957 1.092915,-1.563455 2.622852,-1.563455 0.979445,0 1.029052,-0.04499 1.508903,-1.368507 0.272891,-0.752679 0.636953,-1.414764 0.809027,-1.4713 0.172075,-0.05654 0.79811,0.767649 1.39119,1.831528 1.02272,1.834573 1.074809,2.035556 1.010055,3.897463 -0.03755,1.079728 -0.187336,1.995488 -0.332857,2.035022 -0.14552,0.03954 -0.857692,-0.337863 -1.582605,-0.838661 z M 1.3358414,44.030475 c -0.59662224,-0.62274 -0.68556193,-0.89466 -0.54087982,-1.653646 0.31697882,-1.662825 0.82257902,-2.36356 1.70537722,-2.36356 0.6667977,0 0.8659575,0.156765 1.1927311,0.938847 0.444545,1.063945 0.2005277,2.463427 -0.5798899,3.325781 -0.6101213,0.674174 -0.9381411,0.628513 -1.7773386,-0.247422 z"
         id="path180" />
      <path
         style="fill:#744511;stroke-width:0.264583"
         d="M -38.199959,131.49265 C -61.37398,108.31828 -80.334544,89.238378 -80.334544,89.092857 c 0,-0.345956 84.1890362,-84.5337562 84.5350001,-84.5337562 0.345956,0 84.5337559,84.1890362 84.5337559,84.5350002 0,0.345955 -84.1890355,84.533759 -84.5349994,84.533759 -0.1455209,0 -19.2251466,-18.96085 -42.3991716,-42.13521 z m 82.696892,-1.58719 C 66.517083,107.89543 84.65806,89.662814 84.810211,89.388529 85.052837,88.951149 80.162889,83.963605 45.040218,48.824786 23.01457,26.789012 4.7686594,8.634981 4.493752,8.482495 4.0548506,8.2390445 -0.92014173,13.119229 -36.318229,48.516747 c -22.171681,22.171322 -40.312148,40.43056 -40.312148,40.576081 0,0.344831 80.4830092,80.830862 80.8278248,80.830862 0.1445657,0 18.2793332,-18.0082 40.2994852,-40.01823 z M 0.48910853,159.53879 c -0.0672359,-0.1819 -0.15279424,-2.71198 -0.19013489,-5.62239 l -0.0678894,-5.29167 -1.57834814,-0.0811 c -1.8750731,-0.0963 -2.3121859,-0.39039 -2.2054768,-1.48391 0.070123,-0.71857 0.2063512,-0.84259 1.1379915,-1.03595 1.62214462,-0.33669 2.3222877,-0.76469 3.02888927,-1.85158 0.61053393,-0.93911 0.71664773,-0.99169 1.85208333,-0.91768 l 1.2044443,0.0785 0.070096,8.05174 c 0.054546,6.26538 -0.00415,8.09887 -0.2645833,8.26418 -0.5442532,0.34547 -2.85009175,0.26041 -2.98707183,-0.11019 z M -1.2609595,136.33884 c -0.6717797,-0.55059 -0.6809872,-0.50792 0.50271632,-2.3295 0.37022882,-0.56973 0.33751309,-0.61282 -0.85251132,-1.12293 -1.0776321,-0.46192 -1.2143847,-0.60757 -1.0585027,-1.12732 0.3107478,-1.03612 0.7376504,-1.31302 1.5488259,-1.00461 1.32054338,0.50207 1.48380718,0.38737 1.48380718,-1.04242 0,-1.17359 0.0701252,-1.33547 0.64053242,-1.47864 1.2560486,-0.31524 1.6021289,-0.0674 1.691275,1.2113 0.1065768,1.52867 0.3163702,1.7128 1.504651,1.32064 1.0794048,-0.35624 1.3308252,-0.21966 1.5997503,0.86901 0.1671003,0.67647 0.092893,0.77172 -0.9073198,1.16461 -1.2340537,0.48475 -1.3300075,0.83724 -0.5245021,1.92674 0.6538754,0.88442 0.5221315,1.47365 -0.4260876,1.90568 -0.6117485,0.27873 -0.7459822,0.21719 -1.546786,-0.7092 l -0.8769033,-1.01443 -0.74100001,0.9715 c -0.8446691,1.10742 -1.16056573,1.17866 -2.03794529,0.45957 z m -2.0838822,-17.94276 c -0.00471,-2.68706 -0.1884336,-3.17536 -1.0261018,-2.72706 -0.6607969,0.35365 -1.0865697,0.17197 -1.0863845,-0.46355 1.746e-4,-0.60182 2.5356186,-2.75629 3.113204,-2.64542 0.4071805,0.0782 0.4667224,0.53959 0.5315797,4.11958 l 0.073036,4.03156 h -0.8006398 -0.8006424 l -0.00405,-2.31511 z m 4.23738426,1.50378 c 0,-0.72898 0.0738399,-0.80282 0.72760424,-0.7276 0.571492,0.0658 0.7455667,0.23983 0.8113236,0.81132 0.075224,0.65377 0.00132,0.72761 -0.7276042,0.72761 -0.72898795,0 -0.81132364,-0.0823 -0.81132364,-0.81133 z m 5.23530264,-1.75173 c -0.081486,-2.78636 0.025717,-2.61088 -1.464863,-2.39788 -0.2906713,0.0415 -0.4900269,-0.13073 -0.5358263,-0.46302 -0.0903,-0.65516 2.3759214,-2.85743 3.0537204,-2.72689 0.4106731,0.0791 0.4585415,0.50223 0.4585415,4.05343 v 3.96513 l -0.7178225,0.0828 -0.7178226,0.0828 z M -37.200077,84.604457 c -0.177096,-0.213389 -0.280972,-0.499994 -0.230833,-0.6369 0.08443,-0.230547 10.149335,-8.357243 13.915639,-11.235891 0.909505,-0.695148 1.653646,-1.359956 1.653646,-1.477346 0,-0.11739 -0.234513,-0.511572 -0.521142,-0.875961 -0.479806,-0.609974 -0.610965,-0.642478 -1.653646,-0.409784 -0.622876,0.139004 -2.391389,0.659209 -3.930025,1.156007 -3.455374,1.115679 -3.752668,1.133623 -3.521491,0.212547 0.147804,-0.588896 0.09979,-0.669226 -0.325689,-0.544914 -0.274476,0.0802 -1.03483,0.278656 -1.689674,0.441023 -2.397358,0.594423 -2.995073,0.843026 -2.611342,1.086115 0.19931,0.126259 0.677068,0.231388 1.06168,0.233616 0.840986,0.0049 1.152522,0.627978 0.593479,1.187019 -0.62157,0.621572 -1.143553,0.489527 -2.072058,-0.524161 l -0.850649,-0.928695 -5.507934,1.339442 c -5.067234,1.232268 -6.636378,1.39618 -5.639494,0.589098 0.520549,-0.421442 13.892626,-3.352263 19.536787,-4.28197 3.52189,-0.580128 5.186167,-0.980987 5.380884,-1.296045 0.06649,-0.107582 -0.01318,-0.697868 -0.177025,-1.311744 -0.427884,-1.603068 -0.124788,-1.778817 1.947532,-1.129273 0.934781,0.292997 1.903984,0.534255 2.153788,0.536133 0.249804,0.0019 1.05745,-0.532368 1.794769,-1.187212 0.73732,-0.654844 1.485435,-1.186664 1.662478,-1.181825 0.177043,0.0048 1.214866,0.777677 2.306272,1.717413 1.091407,0.939734 2.043907,1.709484 2.116667,1.710553 0.07276,0.0011 0.787136,-0.45184 1.5875,-1.006467 1.1768431,-0.815512 1.4821352,-1.182368 1.5959669,-1.917793 0.087376,-0.56451 0.2730262,-0.880943 0.4895321,-0.834398 0.4611529,0.09914 2.412418,1.67386 2.412418,1.946878 0,0.11743 0.3571875,0.398217 0.79375,0.623973 0.4365625,0.225755 0.7937501,0.578974 0.7937501,0.784928 0,0.205957 0.090802,0.430586 0.2017844,0.499177 0.1109822,0.06859 4.30793544,0.690054 9.3265629,1.381029 5.0186276,0.690978 9.2827056,1.37839 9.4757266,1.527586 0.363877,0.281252 0.219718,1.934845 -0.207187,2.376574 -0.116562,0.120613 -1.658718,-0.163515 -3.427008,-0.631393 -3.0866026,-0.816698 -3.9215905,-0.866072 -3.2475513,-0.192032 0.4414494,0.441449 0.3894429,1.51748 -0.08209,1.698424 -0.2173499,0.0834 -1.4085597,7.94e-4 -2.6471352,-0.183391 -1.2385754,-0.184269 -2.3198905,-0.267099 -2.4029221,-0.184068 -0.083032,0.08303 0.6616939,0.597715 1.6549477,1.143744 0.9932511,0.546026 2.014273,1.170646 2.2689344,1.388044 0.4919187,0.419938 0.6274647,1.107003 0.2183898,1.107003 -0.4022937,0 -10.8678693,-6.533542 -10.8678693,-6.784689 0,-0.05687 0.60275,0.202043 1.3394452,0.575357 0.7366953,0.373311 1.63135477,0.789731 1.98813218,0.925378 0.59205815,0.225099 0.63513761,0.192656 0.49350085,-0.371674 -0.18820871,-0.749879 0.5438881,-1.595096 1.17397477,-1.35537 0.2902638,0.110434 0.3425429,0.07603 0.1617319,-0.106437 -0.1469443,-0.148291 -1.44210357,-0.58234 -2.8781297,-0.964554 -2.8884854,-0.7688 -3.1429273,-0.709168 -3.4388902,0.805947 -0.1445736,0.740124 -0.037981,0.872464 1.5777634,1.958838 3.27892049,2.20464 11.8857187,8.502568 11.9737456,8.761653 0.04848,0.142693 -0.1036241,0.333029 -0.3380079,0.422971 C 7.7067992,81.369794 6.2206505,80.292019 -0.88387794,74.611298 -3.3888763,72.60832 -5.5068369,70.96952 -5.5904531,70.96952 c -0.083619,0 -0.6534494,0.482801 -1.2662906,1.072888 -0.6128412,0.59009 -1.885659,1.453293 -2.8284833,1.918229 -1.564653,0.771581 -1.934035,0.845323 -4.233333,0.845143 -2.85436,-2.25e-4 -4.232347,-0.470895 -6.272102,-2.142324 -0.632124,-0.517977 -1.250704,-0.902652 -1.374619,-0.854837 -0.466093,0.179862 -3.206761,2.837969 -3.206761,3.110164 0,0.156239 0.273844,0.28407 0.608542,0.28407 1.247915,0 1.684872,1.410753 0.73207,2.363555 -0.635955,0.635955 -2.693672,0.576458 -3.440578,-0.09948 -0.473789,-0.428773 -0.683191,-0.275299 -4.820068,3.532703 -2.378618,2.189525 -4.518539,3.98362 -4.755383,3.986882 -0.236842,0.0033 -0.575519,-0.168664 -0.752618,-0.382053 z m -6.319467,-4.36417 c -0.94582,-1.305666 -0.929984,-1.236845 -0.541197,-2.352119 0.284736,-0.816801 0.842216,-1.090504 1.163222,-0.571106 0.0891,0.144171 0.63768,0.243488 1.219059,0.220708 1.43214,-0.05612 2.069857,0.549957 1.567109,1.48935 -0.195707,0.365686 -0.60466,0.740301 -0.908783,0.832482 -0.304123,0.09218 -0.803778,0.473864 -1.110348,0.848186 l -0.557397,0.680582 z M 0.04589968,77.081461 C -1.8907869,75.495324 -3.7129644,73.925 -4.0033817,73.591856 l -0.5280343,-0.605714 0.9260417,0.627648 c 3.47144726,2.35286 7.1827869,5.136377 7.4069551,5.555239 0.7671542,1.433438 0.071059,1.04652 -3.75568112,-2.087568 z M -36.413709,76.972635 c 0,-0.190785 2.053828,-1.398391 4.564063,-2.683565 2.510234,-1.285177 4.445,-2.20997 4.299479,-2.055096 -0.459904,0.489461 -8.159393,5.085546 -8.519446,5.085546 -0.189251,0 -0.344096,-0.156099 -0.344096,-0.346885 z m -20.902084,-5.305121 c 0,-0.238376 0.0893,-0.434533 0.198438,-0.435901 0.10914,-0.0013 3.353594,-0.358552 7.209896,-0.793739 3.856302,-0.435187 7.041224,-0.791252 7.077604,-0.79126 0.03638,-6e-6 0.06615,-0.119073 0.06615,-0.264594 0,-0.145521 -0.28792,-0.264584 -0.639818,-0.264584 -0.900626,0 -1.476849,-0.261633 -1.476849,-0.670562 0,-0.435208 1.254676,-1.446104 1.794836,-1.446104 0.220305,0 1.063149,0.545481 1.872983,1.212183 1.379741,1.135877 1.547976,1.203177 2.672617,1.069123 1.066588,-0.127132 1.106575,-0.114509 0.359225,0.113395 -0.859968,0.262245 -14.164623,2.196219 -17.363131,2.523916 -1.538949,0.157671 -1.771947,0.12455 -1.771947,-0.251873 z m 23.415626,-3.664698 c -1.446848,-0.721535 -1.984375,-1.243812 -1.984375,-1.928077 0,-0.559446 -0.124651,-0.58541 -3.613708,-0.752743 -1.98754,-0.09532 -4.517618,-0.174934 -5.622396,-0.176921 -2.383605,-0.0043 -3.199313,-0.185254 -3.199313,-0.709766 0,-0.314254 0.311097,-0.359151 1.653646,-0.238652 4.139147,0.371512 10.043401,0.693777 11.972396,0.653476 2.490785,-0.05204 4.509048,0.291708 4.471458,0.761574 -0.01455,0.181901 -0.04432,0.571802 -0.06614,0.866444 -0.02238,0.301956 -0.321294,0.642782 -0.68506,0.781085 -0.354954,0.134953 -0.775861,0.489196 -0.935349,0.787201 -0.348126,0.650479 -0.61086,0.644721 -1.991154,-0.04362 z M 33.700877,67.896495 C 30.993483,67.681162 19.645443,67.158943 16.899835,67.123335 15.153585,67.100687 12.623507,66.986694 11.277439,66.87001 8.8306725,66.657912 8.8300428,66.657671 8.8300428,65.924913 c 0,-0.403122 -0.071863,-0.920224 -0.1596998,-1.149117 -0.1183217,-0.308343 0.173019,-0.558284 1.1244792,-0.964692 0.7062998,-0.301689 1.6068838,-0.856282 2.0013008,-1.23243 l 0.717118,-0.683902 2.920903,1.276839 c 1.606494,0.702262 2.917113,1.404625 2.912485,1.560812 -0.0046,0.156183 -0.183224,0.515088 -0.396875,0.797562 -0.213653,0.282475 -0.388461,0.647467 -0.388461,0.811096 0,0.210236 3.181178,0.391499 10.844626,0.617929 5.964542,0.176234 11.024698,0.389525 11.244792,0.473983 0.220091,0.08446 0.400166,0.259882 0.400166,0.389834 0,0.212911 -4.013838,0.259475 -6.35,0.07367 z m -50.11829,-4.507399 c -1.761744,-0.903854 -1.905719,-0.932889 -3.763007,-0.758846 l -1.931175,0.180964 -1.396368,-1.301477 c -0.768003,-0.715815 -1.961917,-1.683883 -2.653141,-2.151267 -0.691224,-0.467384 -1.256771,-0.963131 -1.256771,-1.101661 0,-0.442614 0.365487,-0.271227 1.719792,0.80646 0.727604,0.578991 1.455401,1.053976 1.617324,1.055521 0.161925,0.0016 0.666903,-0.753829 1.122172,-1.678614 1.001739,-2.034821 2.921391,-3.907515 5.008015,-4.885516 1.365541,-0.64003 1.809033,-0.709144 4.553056,-0.709565 l 3.040149,-5.29e-4 0.4813543,-2.24849 c 0.2647447,-1.236671 1.1290988,-4.869686 1.9207877,-8.073367 0.791689,-3.203678 1.4340973,-6.061178 1.427578,-6.35 -0.00931,-0.41267 -0.2590059,-0.24938 -1.1659527,0.762508 -1.1475773,1.280359 -1.7326081,1.416741 -1.7326081,0.403908 0,-0.289401 -0.3172328,-0.820185 -0.7049612,-1.179518 -0.656976,-0.608867 -0.688491,-0.738568 -0.463021,-1.905598 0.210865,-1.091412 0.333775,-1.262856 0.9569055,-1.334759 0.4273524,-0.04931 0.7804389,-0.288793 0.8777262,-0.595313 0.1108604,-0.349292 0.4031456,-0.512813 0.9166305,-0.512813 0.6517243,0 0.8046614,0.152366 1.1286993,1.124479 0.2061554,0.618464 0.4839679,1.12448 0.6173602,1.12448 0.133395,0 0.4678151,-0.863204 0.7431564,-1.91823 0.3789574,-1.452054 0.6122115,-1.918229 0.959792,-1.918229 1.1932814,0 1.1344593,0.559525 -0.6550475,6.231041 -0.9522752,3.018052 -1.7231123,5.61893 -1.7129735,5.779728 0.029967,0.4753 1.1575786,-2.556277 4.9044307,-13.185532 1.94619565,-5.521069 3.6431168,-10.142886 3.770937,-10.270704 0.2482638,-0.248266 1.9793586,0.365318 2.2454765,0.795906 0.085778,0.138792 -0.7387564,2.740549 -1.8322979,5.781683 -6.8565714,19.068077 -8.8584699,24.794089 -8.7635374,25.06625 0.058867,0.168759 1.7958859,-3.064399 3.8600408,-7.1848 3.34314549,-6.673483 3.8166888,-7.482539 4.3361215,-7.408334 0.3207147,0.04582 0.6188181,0.270846 0.6624558,0.500062 0.065503,0.344083 -5.2446768,9.725523 -9.0405509,15.971844 -0.525391,0.864566 -0.9486715,1.757534 -0.9406202,1.984375 0.020241,0.570542 1.4375421,1.638385 1.9258439,1.451007 0.2199429,-0.0844 0.592508,-0.559359 0.8279236,-1.05546 0.2354157,-0.496102 0.6610721,-1.026724 0.945904,-1.179161 C -3.5749816,53.349092 1.4942051,47.959905 7.4050499,41.525561 13.315892,35.091275 18.332019,29.82681 18.551996,29.82681 c 0.21998,0 0.564904,0.248417 0.766504,0.55204 0.346471,0.521816 -0.19131,1.117923 -9.8234587,10.888832 -5.6044996,5.685235 -10.1899988,10.407677 -10.1899988,10.494315 0,0.08664 0.40545281,0.157522 0.90100947,0.157522 0.64220992,0 1.21937463,-0.265988 2.00940733,-0.926042 1.0217441,-0.853643 1.5875,-1.133832 1.5875,-0.786204 0,0.07691 -0.3672893,0.867432 -0.8161972,1.756712 -0.5124213,1.015103 -0.6789527,1.564211 -0.4474422,1.475372 0.2028137,-0.07783 4.018378,-2.713815 8.4790331,-5.857753 4.460659,-3.143938 8.233882,-5.716252 8.384946,-5.716252 0.473162,0 0.318386,1.997258 -0.18836,2.430643 -0.656807,0.561721 -20.2445547,12.663723 -22.1588549,13.690523 -1.5835419,0.849387 -1.5852246,0.849646 -0.6749627,0.104233 2.2448045,-1.838267 2.2203622,-1.807107 2.0257453,-2.582527 -0.1556596,-0.620201 -0.2861918,-0.710141 -0.8338132,-0.574508 -0.3570923,0.08844 -0.976683,0.235881 -1.3768653,0.327642 -0.9814163,0.225036 -1.6480632,0.846537 -1.5785492,1.471649 0.04259,0.383003 -0.2121402,0.608597 -0.9975718,0.88347 -0.6765237,0.236757 -1.1461856,0.277715 -1.3096875,0.114213 -0.5388743,-0.538874 -1.1907468,-0.260797 -1.4181985,0.604975 -0.2198132,0.836703 -0.264623,0.859896 -1.6612102,0.859896 -1.573546,0 -1.539529,-0.05761 -1.145712,1.940441 0.155485,0.788861 0.05265,1.005618 -0.972849,2.050521 -0.63069,0.642628 -1.270749,1.162558 -1.422353,1.155401 -0.151601,-0.0072 -1.099963,-0.43593 -2.10747,-0.952828 z m -13.249421,0.280657 c -3.654729,-0.566873 -4.448394,-0.753751 -4.554627,-1.072447 -0.210471,-0.631412 0.864984,-0.578143 4.228357,0.209434 5.296826,1.240319 5.454925,1.658501 0.32627,0.863013 z M 3.4060843,62.325511 c 2.0605539,-0.497526 41.7259887,-7.230992 42.5962597,-7.230992 0.55745,0 0.663117,0.123995 0.663117,0.778135 0,0.427974 -0.111038,0.846762 -0.246751,0.930637 -0.135715,0.08388 -7.666418,1.16568 -16.734896,2.404015 C 3.8265258,62.738208 -0.36124646,63.235145 3.4060843,62.325511 Z M -28.565746,60.487178 c -0.413046,-0.223843 -0.692002,-0.465979 -0.6199,-0.538084 0.141152,-0.14115 1.767771,0.632476 1.767771,0.840762 0,0.216389 -0.370181,0.118776 -1.147871,-0.302678 z M 0.64266211,60.149879 C 1.1437856,59.831392 7.4875946,58.127359 25.879386,53.370947 c 13.261065,-3.429522 14.025296,-3.596818 14.357213,-3.142896 0.40195,0.549698 0.342932,0.902012 -0.20147,1.202735 C 39.67011,51.632417 6.1589285,59.230359 2.8769176,59.855612 2.0037926,60.02195 1.0512926,60.215062 0.76025089,60.28475 0.32784762,60.388284 0.30634494,60.36362 0.64266211,60.149879 Z M -1.3426152,58.957735 c 0.95838438,-0.67128 11.3089138,-5.450716 11.8042772,-5.450716 0.312989,0 0.485048,0.192873 0.485048,0.543727 0,0.647523 -0.748591,1.001554 -7.4453492,3.521123 -4.6564949,1.751946 -5.8569942,2.09541 -4.843976,1.385866 z M 16.967182,52.46745 c -1.7159,-0.239316 -1.983764,-0.559895 -1.359003,-1.626447 0.916815,-1.565127 1.256887,-1.579684 2.741546,-0.117348 1.992588,1.962627 1.812756,2.189446 -1.382543,1.743795 z m 14.137339,-6.781514 -1.398665,-0.941917 -0.922112,0.809625 c -0.507164,0.445294 -0.970696,0.809625 -1.030076,0.809625 -0.05938,0 -0.544761,-0.257717 -1.078627,-0.572707 -0.934252,-0.551222 -0.965605,-0.617622 -0.835734,-1.769848 0.162563,-1.442254 0.682352,-1.890779 2.1912,-1.890779 1.236509,0 1.544431,-0.259704 2.054394,-1.732703 0.193392,-0.558602 0.477475,-1.057587 0.631296,-1.108861 0.153821,-0.05127 0.709705,0.675746 1.235303,1.615599 0.863674,1.544392 0.955627,1.901994 0.955627,3.716351 0,1.104143 -0.09089,2.007531 -0.20197,2.007531 -0.111082,0 -0.831368,-0.423862 -1.600636,-0.941916 z M 1.4436035,43.945628 C 0.93378581,43.470664 0.86357333,43.211068 1.005263,42.324992 c 0.2539101,-1.587868 0.5883302,-2.04714 1.4906361,-2.04714 0.6187705,0 0.8518287,0.158419 1.0704116,0.727604 0.3512952,0.914763 0.1329902,2.3602 -0.4545066,3.009379 -0.5791491,0.639953 -0.9222899,0.625716 -1.6682006,-0.06921 z"
         id="path178" />
      <path
         style="fill:#57330d;stroke-width:0.264583"
         d="m -38.160467,131.53131 c -23.195741,-23.19404 -42.174077,-42.291062 -42.174077,-42.437831 0,-0.14677 18.990843,-19.256299 42.201869,-42.465624 L 4.0691963,4.4290843 46.269411,46.628678 c 23.210122,23.209777 42.200218,42.377433 42.200218,42.594791 0,0.393956 -82.2676105,82.885731 -83.7014485,83.929521 l -0.7545705,0.5493 z m 82.907373,-1.89011 c 22.155728,-22.15537 40.28314,-40.40155 40.28314,-40.54707 0,-0.433025 -80.5296318,-80.8308624 -80.9633632,-80.8308624 -0.4310486,0 -80.9616428,80.3998634 -80.9616428,80.8302114 0,0.429927 80.5303693,80.830211 80.9609919,80.830211 0.2187549,0 18.5251491,-18.12712 40.6808741,-40.28249 z M 0.48910853,159.27421 c -0.0672359,-0.1819 -0.15279424,-2.71198 -0.19013489,-5.6224 l -0.0678894,-5.29166 -1.80116704,-0.0786 -1.8011696,-0.0786 0.081378,-0.97385 c 0.076832,-0.91947 0.1434809,-0.98438 1.1935407,-1.16229 1.55440077,-0.26336 2.10258041,-0.61332 2.87336196,-1.83431 0.60980374,-0.96599 0.75917424,-1.05479 1.64978294,-0.98081 l 0.9792732,0.0813 0.069969,8.13594 0.069969,8.13594 H 2.0786882 c -0.9322832,0 -1.51191123,-0.1206 -1.58957967,-0.33073 z m -1.45129256,-22.9052 -0.65881517,-0.53713 0.65009451,-1.19966 c 0.71026869,-1.3107 0.66051908,-1.46687 -0.59677831,-1.87327 -0.8789565,-0.28411 -1.1939456,-1.00578 -0.7427754,-1.70177 0.1913334,-0.29516 0.4592161,-0.3139 1.3294916,-0.093 0.95433624,0.24224 1.12215617,0.21634 1.34940151,-0.20828 0.14274007,-0.26671 0.25952451,-0.91666 0.25952451,-1.44433 0,-0.94686 0.012991,-0.95833 0.99218758,-0.87729 0.9828345,0.0813 0.9934337,0.0946 1.1244792,1.40503 0.1234519,1.23453 0.176485,1.31616 0.79375,1.22172 1.7665383,-0.27026 1.9805254,-0.2028 2.0638638,0.65063 0.072766,0.74518 -0.011139,0.84118 -0.9921875,1.13511 -0.5894229,0.17659 -1.0716763,0.44168 -1.0716763,0.58908 0,0.1474 0.3012863,0.70816 0.6695255,1.24615 l 0.6695281,0.97815 -0.723564,0.6291 -0.7235613,0.6291 -0.80586,-0.95984 c -0.4432221,-0.52792 -0.9123046,-0.95984 -1.0424028,-0.95983 -0.130101,0 -0.60753896,0.42919 -1.0609766,0.95374 l -0.82443376,0.95372 z M -3.2050253,120.39902 c -0.069548,-0.19211 -0.1583134,-1.42085 -0.1972548,-2.73054 -0.074639,-2.51032 -0.018574,-2.4236 -1.3275734,-2.05355 -0.9444725,0.267 -0.4528238,-0.86542 0.8705004,-2.00505 1.977488,-1.70298 2.1388044,-1.44788 2.046949,3.23694 -0.071485,3.64571 -0.086982,3.73404 -0.6696736,3.81678 -0.3280728,0.0466 -0.6533992,-0.0725 -0.7229476,-0.26458 z m 4.19324913,-0.0847 c -0.20960292,-0.54621 0.0745914,-1.19062 0.52507627,-1.19062 0.5296588,0 1.0540709,0.71371 0.8723551,1.18726 -0.1983582,0.5169 -1.199441,0.51932 -1.39743137,0.003 z m 5.37237537,0.22049 c -0.097015,-0.097 -0.1763898,-1.2678 -0.1763898,-2.60174 0,-1.33394 -0.071411,-2.49675 -0.1586891,-2.58403 -0.087278,-0.0873 -0.4476962,-0.027 -0.8009282,0.13393 -0.4792901,0.21838 -0.7220506,0.21281 -0.9568154,-0.022 -0.2430489,-0.24305 0.013547,-0.61466 1.1284903,-1.63429 0.7936865,-0.72585 1.5635553,-1.2797 1.710817,-1.23078 0.160536,0.0533 0.2969975,1.69592 0.3407887,4.1021 0.068461,3.76179 0.042222,4.01316 -0.4189254,4.01316 -0.2705788,0 -0.571336,-0.0794 -0.6683481,-0.17639 z M -36.889959,84.674937 c -0.174625,-0.174625 -0.3175,-0.452721 -0.3175,-0.617993 0,-0.304665 12.955662,-10.754471 13.56145,-10.938423 0.181046,-0.05497 -0.0794,0.330195 -0.578782,0.855933 -0.499374,0.52574 -0.856562,0.997005 -0.79375,1.047258 0.06282,0.05025 0.530109,0.205086 1.038432,0.344074 1.065289,0.291275 1.294183,0.895689 0.688991,1.819331 -0.347552,0.530429 -0.62868,0.631674 -1.730307,0.623139 -0.795589,-0.0062 -1.437182,-0.157009 -1.623705,-0.381754 -0.169604,-0.204362 -0.442622,-0.371264 -0.606703,-0.370893 -0.164084,2.64e-4 -2.251927,1.786305 -4.639652,3.96875 -2.387727,2.182442 -4.417742,3.968078 -4.511146,3.968078 -0.0934,0 -0.312703,-0.142875 -0.487328,-0.3175 z m 40.5158697,-6.67852 c -2.3037165,-1.813155 -4.60529529,-3.66766 -5.1146182,-4.121124 l -0.9260417,-0.824479 1.3229167,0.855856 c 2.6112233,1.689317 9.3927087,6.644148 9.3927087,6.862697 0,0.728448 -0.9182789,0.183771 -4.6749655,-2.77295 z m -47.1172237,2.149194 c -0.619363,-0.909791 -0.756081,-1.897874 -0.351115,-2.537584 0.19581,-0.309311 0.372983,-0.316249 1.038312,-0.04066 0.441222,0.182761 0.935233,0.250081 1.097809,0.149606 0.162573,-0.100478 0.593987,-0.107794 0.958694,-0.01625 1.015468,0.254866 0.779433,1.468742 -0.392814,2.020158 -0.489643,0.230325 -1.001575,0.61768 -1.137626,0.860793 -0.349459,0.624448 -0.537239,0.556958 -1.21326,-0.436055 z M 1.1571259,77.822215 c -3.1167971,-2.589503 -3.6425109,-3.201554 -1.45520838,-1.694193 2.47520628,1.705766 4.10104178,3.024293 4.10104178,3.325879 0,0.477247 -0.416978,0.220099 -2.6458334,-1.631686 z M -36.267582,77.077323 c -0.0947,-0.153228 0.87176,-0.792872 2.224461,-1.47224 1.31555,-0.660709 2.391912,-1.149186 2.391912,-1.0855 0,0.06369 -0.74414,0.562967 -1.653645,1.109517 -0.909506,0.546549 -1.910512,1.156951 -2.224458,1.35645 -0.373097,0.237085 -0.628817,0.268872 -0.73827,0.09177 z m 39.1829833,-2.29984 c -2.00286153,-1.252599 -3.5852075,-2.333808 -3.51633117,-2.402687 0.068879,-0.06888 0.36572827,0.0035 0.65966713,0.160787 0.97156594,0.519965 1.20838384,0.297493 0.4859761,-0.456538 -0.62204867,-0.649277 -0.66682411,-0.80354 -0.35643874,-1.228016 0.28272582,-0.386652 0.5520796,-0.448482 1.32337178,-0.303787 1.5562104,0.291947 1.1357769,-0.286903 -0.552958,-0.761307 -3.5393393,-0.99428 -4.6927057,-1.406551 -4.012663,-1.434325 0.3760311,-0.01537 4.4836875,0.507172 9.1281253,1.16118 4.6444373,0.654005 8.5337313,1.189786 8.6428713,1.190625 0.109141,7.94e-4 0.198438,0.481507 0.198438,1.068157 0,0.730875 -0.132424,1.117455 -0.42068,1.228069 -0.231375,0.08879 -1.804657,-0.20389 -3.496183,-0.650396 -1.6915263,-0.446505 -3.1686607,-0.754253 -3.2825162,-0.683887 -0.1138581,0.07037 -0.0297,0.470831 0.1870181,0.889918 0.4099137,0.792684 0.2967091,1.589276 -0.225843,1.589199 -0.1663304,-2.7e-5 -1.2356307,-0.17862 -2.3762177,-0.396875 -3.8107913,-0.72921 -3.9083088,-0.496636 -0.5709603,1.361702 2.0695338,1.152379 2.9507472,1.945635 2.1613707,1.945635 -0.1839648,0 -1.9731885,-1.024853 -3.9760473,-2.277454 z M -15.764222,74.64925 c -1.779482,-0.348824 -3.704749,-1.410113 -5.107271,-2.815344 -2.320147,-2.324632 -2.577632,-2.652581 -2.577632,-3.283056 0,-0.345141 -0.11254,-1.019937 -0.250089,-1.499548 -0.193429,-0.674444 -0.166659,-0.904028 0.118155,-1.013322 0.312655,-0.119978 2.389812,0.362881 3.663376,0.851593 0.211293,0.08108 1.025432,-0.384609 1.858155,-1.062871 0.815152,-0.66395 1.640277,-1.207182 1.833613,-1.207182 0.193334,0 1.200195,0.714375 2.237468,1.5875 1.037272,0.873125 2.031206,1.5875 2.208744,1.5875 0.50401,0 2.8700439,-1.598713 3.1555505,-2.132182 0.1409515,-0.263374 0.2562781,-0.724816 0.2562781,-1.025425 0,-0.850381 0.479126,-0.657458 1.928077,0.776357 0.7352877,0.727604 1.4326474,1.322916 1.5496937,1.322916 0.1170438,0 0.3915119,0.345581 0.6099308,0.767953 0.344252,0.665708 0.3462681,0.787472 0.015161,0.91453 -0.2100818,0.08062 -0.5690526,0.598242 -0.7977108,1.150276 -0.873985,2.109997 -4.3471282,4.555742 -7.2438633,5.10104 -1.607863,0.302675 -1.814092,0.301437 -3.457631,-0.02074 z m -32.820321,-0.222316 c 0,-0.323761 0.07502,-0.343411 6.085417,-1.59416 2.837657,-0.590508 5.456788,-1.141926 5.820292,-1.225376 0.363503,-0.08345 0.580995,-0.0718 0.483314,0.02588 -0.219385,0.219387 -11.284424,3.040412 -11.925549,3.040412 -0.25491,0 -0.463474,-0.111041 -0.463474,-0.246753 z m 12.355466,-1.018329 c -0.676714,-0.74776 -0.556914,-0.889804 0.675264,-0.800653 0.92097,0.06664 1.124479,0.177128 1.124479,0.610526 0,0.727311 -1.198972,0.853972 -1.799743,0.190127 z m -20.94265,-1.626285 c -0.08346,-0.135046 0.05834,-0.307327 0.315113,-0.382852 0.836176,-0.245941 11.239011,-1.255369 11.389239,-1.105144 0.08031,0.08032 -0.02265,0.146706 -0.228798,0.147535 -0.206156,7.93e-4 -2.756078,0.355869 -5.666495,0.788979 -6.134777,0.91294 -5.616099,0.863698 -5.809059,0.551482 z m 25.785102,-0.141145 c 0,-0.233087 0.446646,-0.501732 1.124479,-0.676341 0.618464,-0.159314 1.481667,-0.391335 1.918229,-0.515601 0.436563,-0.124265 1.150938,-0.296543 1.5875,-0.382837 l 0.79375,-0.156895 -0.767379,0.427008 c -0.625014,0.34779 -4.255791,1.691344 -4.570629,1.691344 -0.04727,0 -0.08595,-0.174006 -0.08595,-0.386678 z M -41.832926,69.38969 c -0.08733,-0.141301 -0.754832,-0.335981 -1.483339,-0.432623 -1.508585,-0.20012 -1.636151,-0.624417 -0.453054,-1.506876 l 0.714185,-0.532702 0.873315,0.685999 c 0.480325,0.377298 1.230506,0.987065 1.667068,1.35504 l 0.79375,0.669044 -0.976571,0.0095 c -0.537115,0.0052 -1.048026,-0.106096 -1.135354,-0.247399 z m 8.17203,-1.504992 c -1.474867,-0.505807 -2.217082,-1.234398 -2.035493,-1.998139 0.297154,-1.249797 1.63149,-1.625674 3.083237,-0.868535 0.416817,0.217385 1.101426,0.395246 1.521355,0.395246 0.635111,0 0.763505,0.109667 0.763505,0.65215 0,0.408964 -0.221991,0.766612 -0.595312,0.959104 -0.327422,0.168825 -0.833438,0.515048 -1.12448,0.769382 -0.477665,0.417422 -0.634629,0.426259 -1.612812,0.09079 z m 66.30344,-0.137555 c -6.89101,-0.343498 -7.358942,-0.67488 -0.79375,-0.562123 6.191221,0.106334 7.9375,0.243994 7.9375,0.625711 0,0.274306 -0.444585,0.270348 -7.14375,-0.06359 z M 14.227937,67.001558 c -0.88746,-0.07319 -1.78182,-0.272939 -1.98747,-0.443878 -0.282594,-0.2349 -0.647431,-0.237794 -1.493915,-0.01185 C 9.4367563,66.895434 9.210138,66.743812 8.9532699,65.346016 8.7763615,64.383332 8.8022272,64.33972 9.7925759,63.930939 10.354588,63.69896 11.193428,63.22321 11.656661,62.873714 c 0.463232,-0.349493 0.954214,-0.635442 1.091067,-0.635442 0.307515,0 5.132277,2.109021 5.416466,2.36767 0.113313,0.103129 -0.01524,0.475794 -0.285692,0.828148 -0.270446,0.352354 -0.561737,0.83325 -0.647314,1.068663 -0.196278,0.53994 -0.96217,0.667147 -3.003251,0.498808 z m 10.956664,0.08306 c 0.190994,-0.07643 0.4192,-0.06703 0.507119,0.02088 0.08792,0.08792 -0.06835,0.150453 -0.347266,0.138965 -0.308226,-0.0127 -0.370919,-0.07539 -0.159853,-0.159851 z m -71.057164,-2.132774 c -1.330884,-0.05435 -2.182813,-0.200607 -2.182813,-0.374743 0,-0.299122 4.769324,-0.09577 7.14375,0.304599 1.040239,0.1754 0.939983,0.198139 -0.79375,0.18002 -1.091406,-0.0114 -2.96664,-0.06085 -4.167187,-0.109876 z m 29.49946,-1.668232 c -1.859645,-0.901568 -2.198624,-0.981586 -3.614415,-0.853205 -2.032725,0.184319 -2.776349,-0.02352 -3.445295,-0.962975 l -0.547987,-0.769578 0.93898,-1.848294 c 1.138457,-2.240947 3.21595,-4.294463 5.346684,-5.284978 1.311828,-0.609831 1.832679,-0.701416 3.771011,-0.663083 1.236928,0.02447 2.543509,0.08142 2.903512,0.126563 0.605882,0.07598 0.726551,-0.114652 1.6227897,-2.563746 1.9182716,-5.241933 7.0958554,-19.701469 9.14245251,-25.532293 l 2.08952579,-5.953125 0.7665826,0.05621 c 1.8791132,0.137798 2.0393661,-0.51407 -4.046371,16.459734 -3.0796284,8.589434 -5.5993243,15.913868 -5.5993243,16.276522 0,0.362654 -0.1994033,1.077524 -0.4431189,1.588601 -0.4222221,0.885407 -0.4191318,0.955738 0.065521,1.491273 0.2797519,0.309124 0.8363427,0.731502 1.2368689,0.938623 0.4020741,0.20792 0.7282286,0.598945 0.7282286,0.873072 0,0.633746 -1.3681816,1.147707 -2.2066356,0.828929 -0.6592491,-0.250647 -1.4950335,0.07907 -1.5015819,0.592368 -0.010001,0.783373 -0.5045578,1.078987 -1.7014954,1.017027 -0.668303,-0.03459 -1.3251,0.0051 -1.459548,0.08818 -0.140909,0.08709 -0.06425,0.637315 0.180986,1.298985 l 0.425445,1.147905 -1.017278,1.216991 c -0.559504,0.669343 -1.144664,1.263827 -1.300356,1.321072 -0.155694,0.05725 -1.206524,-0.343609 -2.335181,-0.890785 z m -15.652978,-0.0889 c -1.006544,-0.162237 -1.879669,-0.443804 -1.940277,-0.625705 -0.162988,-0.489167 0.803164,-0.402831 3.505774,0.313285 1.899844,0.503407 2.167293,0.628584 1.322917,0.61918 -0.582083,-0.0065 -1.88187,-0.144523 -2.888414,-0.30676 z m 40.5915405,-1.6294 c 3.1687485,-0.731723 37.5898525,-6.490261 37.8465645,-6.331603 0.139391,0.08615 0.253437,0.444992 0.253437,0.797433 0,0.447381 -0.179692,0.682334 -0.595313,0.778388 -1.009237,0.233251 -35.677206,4.869326 -37.5046885,5.015426 L 6.8456678,61.962439 Z M -26.922459,58.600249 c -0.335891,-0.428297 -0.32344,-0.433912 0.166042,-0.07487 0.291042,0.213485 0.578776,0.421844 0.639411,0.463021 0.06063,0.04118 -0.01408,0.07487 -0.166042,0.07487 -0.151956,0 -0.43969,-0.208359 -0.639411,-0.463021 z M 5.7064883,58.92363 c 0.3744516,-0.374451 33.4040337,-8.922901 34.0216477,-8.805206 0.416676,0.0794 0.843499,1.271928 0.455242,1.271928 -0.09289,0 -6.464975,1.427007 -14.160191,3.171127 -13.786935,3.124806 -19.996529,4.50179 -20.3011174,4.50179 -0.08537,0 -0.092382,-0.06284 -0.015584,-0.139639 z M 4.9935844,56.012856 c 2.7648959,-1.360559 5.1759116,-2.480966 5.3578126,-2.489792 0.50111,-0.02432 0.395653,0.988975 -0.132292,1.271111 -0.9135556,0.488206 -9.59073039,3.739422 -9.91810994,3.716179 -0.18397274,-0.01307 1.92769334,-1.136939 4.69258934,-2.497498 z m -6.6458335,0.71211 c 0.4344035,-0.487351 0.4556204,-0.66072 0.1663382,-1.359111 -0.3508348,-0.846992 -0.5584851,-0.940091 -1.2769612,-0.572519 -0.2450941,0.125389 -0.773049,0.306253 -1.1732313,0.401915 -0.6037792,0.144333 -0.7276042,0.08644 -0.7276042,-0.340151 0,-0.282747 0.3539701,-0.79103 0.7865983,-1.129519 0.4326282,-0.33849 5.5737233,-5.82903 11.4246532,-12.201197 6.2018811,-6.754387 10.7994741,-11.553908 11.0251451,-11.509376 0.212903,0.04201 0.51775,0.283858 0.67744,0.537435 0.249663,0.396446 -1.150388,1.903534 -9.9915511,10.755437 -5.9606632,5.967905 -10.2063342,10.416654 -10.10210159,10.585305 0.36159018,0.585065 1.66210198,0.28929 2.90677609,-0.661088 0.6857418,-0.523605 1.3064835,-0.892331 1.3794211,-0.819391 0.2416387,0.241636 -1.0031598,2.416197 -1.9828695,3.463915 -0.53027533,0.567084 -0.7855427,0.932982 -0.56726144,0.813104 0.82628054,-0.453776 4.33096474,-2.865326 11.09078844,-7.631501 3.844362,-2.710559 7.148346,-4.928289 7.342188,-4.928289 0.377933,0 0.484002,1.240613 0.149953,1.753886 -0.201835,0.310124 -19.0679451,12.091158 -20.6995962,12.925963 l -0.9260417,0.473795 z m 17.9567711,-4.46768 c -0.612489,-0.07601 -0.859896,-0.243872 -0.859896,-0.583433 0,-0.583194 0.976152,-1.871001 1.418212,-1.871001 0.176811,0 0.907833,0.595313 1.624497,1.322917 l 1.303025,1.322917 -1.312971,-0.04234 c -0.722135,-0.02328 -1.699924,-0.09036 -2.172867,-0.149056 z M -5.4857601,49.517819 c 0.4843118,-1.347758 6.6299717,-13.434089 6.9230824,-13.615241 0.1648619,-0.101892 0.4675876,-0.01741 0.6727243,0.187719 0.3209105,0.320908 0.1399408,0.777716 -1.29641073,3.272451 -3.78978857,6.582313 -5.59906767,9.633951 -6.05846637,10.218558 l -0.4859709,0.618421 z m -3.2710518,-3.022258 c 0.081126,-0.436563 0.7010797,-3.023011 1.3776775,-5.747661 0.6765978,-2.724647 1.1362955,-5.046366 1.021551,-5.159375 -0.1147472,-0.113006 -0.7325228,0.389848 -1.3728357,1.117452 -0.9547437,1.084897 -1.2112969,1.251511 -1.4259454,0.926042 -0.1439572,-0.218282 -0.2635647,-0.509424 -0.2657925,-0.646981 -0.00212,-0.137559 -0.3101764,-0.569632 -0.684329,-0.960165 -0.630854,-0.658468 -0.65895,-0.789278 -0.386678,-1.800415 0.215805,-0.801439 0.429498,-1.090356 0.8064713,-1.090356 0.2820775,0 0.7118165,-0.303631 0.9549712,-0.674733 0.6733064,-1.027596 1.4530388,-0.765802 1.9448754,0.652995 0.2228612,0.642887 0.5395093,1.213654 0.7036594,1.26837 0.1786414,0.05955 0.4839415,-0.675254 0.7604813,-1.830343 0.5229014,-2.184106 0.6568917,-2.412436 1.2762125,-2.17478 0.6588019,0.252805 0.5621443,0.839388 -0.8612267,5.226604 -0.7162906,2.207799 -1.788131,5.543293 -2.3818666,7.412212 -1.1051646,3.478744 -1.7519386,5.013278 -1.4672257,3.481134 z M 31.097033,45.569519 c -1.331809,-0.964758 -1.626087,-0.980824 -2.423239,-0.132292 -0.756664,0.805432 -1.143794,0.82504 -2.149563,0.108868 -0.690666,-0.491799 -0.757264,-0.659172 -0.605356,-1.521354 0.235704,-1.337762 0.619162,-1.653275 2.252885,-1.853705 1.382818,-0.169646 1.422754,-0.198861 1.848675,-1.352331 0.23943,-0.648417 0.560576,-1.220689 0.713658,-1.271717 0.153086,-0.05103 0.704644,0.669531 1.225685,1.60124 0.822101,1.470052 0.947349,1.926775 0.947349,3.45453 0,2.055437 -0.176837,2.149885 -1.810094,0.966761 z M 1.5815626,43.901342 c -0.5556224,-0.555625 -0.65216623,-0.84423 -0.5209832,-1.557435 0.2206652,-1.199679 0.8048732,-2.066055 1.3931663,-2.066055 1.321943,0 1.6480499,2.467264 0.4804357,3.634878 l -0.6706156,0.670615 z"
         id="path176" />
      <path
         style="fill:#0c0701;stroke-width:0.264583"
         d="M -38.067667,131.36036 C -61.168928,108.25875 -80.06996,89.238378 -80.06996,89.092857 c 0,-0.145523 18.930938,-19.195244 42.068751,-42.332713 L 4.0675427,4.6920156 46.268586,46.892436 88.469629,89.092857 46.335044,131.22807 c -23.174024,23.17436 -42.1943996,42.1352 -42.2675013,42.1352 -0.073104,0 -19.0339487,-18.90131 -42.1352097,-42.00291 z M 44.8792,129.77349 c 22.228486,-22.22813 40.415429,-40.534133 40.415429,-40.680011 0,-0.433017 -80.7948603,-81.0947947 -81.2285918,-81.0947947 -0.4306279,0 -81.2255812,80.6648597 -81.2255812,81.0947947 0,0.429934 80.7949533,81.094791 81.2255812,81.094791 0.2187549,0 18.5846778,-18.18665 40.8131628,-40.41478 z M 0.62795922,153.93953 c 0,-6.19965 0.0883602,-5.97626 -2.36385642,-5.97626 -1.3011282,0 -1.3403104,-0.0223 -1.3403104,-0.76371 0,-0.70049 0.097004,-0.77825 1.1720037,-0.93946 1.34269695,-0.20135 2.36347007,-0.90731 2.9489269,-2.03946 0.3547956,-0.68609 0.5298943,-0.7752 1.3837761,-0.70424 l 0.9775852,0.0812 v 7.80521 7.8052 l -1.3890625,0.08 -1.38906258,0.08 z m -1.53839074,-17.79077 -0.60189008,-0.48861 0.67326408,-0.9113 c 0.91461434,-1.23798 0.85168584,-1.57473 -0.38506668,-2.06054 -1.727798,-0.6787 -1.2630097,-2.05819 0.48782027,-1.44785 1.03776995,0.36177 1.31356898,0.11311 1.41217655,-1.2732 0.0799862,-1.12453 0.12914048,-1.1906 0.94427418,-1.26919 l 0.8598958,-0.0829 v 1.31137 c 0,1.39358 0.27949,1.71048 1.1906251,1.34997 0.9748917,-0.38573 1.6511985,-0.27286 1.8011616,0.30061 0.1172105,0.44821 -0.068617,0.63792 -1.027475,1.04893 -0.643808,0.27597 -1.1705617,0.63137 -1.1705617,0.78978 0,0.15842 0.2971801,0.72536 0.6603974,1.25989 l 0.6603974,0.97186 -0.5442956,0.53545 -0.5442929,0.53546 -0.8032247,-0.99219 c -0.4417748,-0.5457 -0.9405039,-0.99219 -1.1082894,-0.9922 -0.1677882,0 -0.66460688,0.42823 -1.10404542,0.95164 -0.79258322,0.94403 -0.8037989,0.94773 -1.4008709,0.46303 z M -3.0762076,117.98598 c 0,-2.73674 -0.2167043,-3.22665 -1.2242006,-2.7676 -0.3465645,0.1579 -0.7121102,0.20511 -0.8123185,0.1049 -0.2180643,-0.21806 2.2900323,-2.52074 2.7641233,-2.53774 0.2499228,-0.009 0.3307292,0.92551 0.3307292,3.82461 0,3.66007 -0.024315,3.83645 -0.5291667,3.83645 -0.4912334,0 -0.5291667,-0.17638 -0.5291667,-2.46062 z m 4.2333335,1.93146 c 0,-0.35278 0.1763898,-0.52917 0.5291667,-0.52917 0.3527769,0 0.5291667,0.17639 0.5291667,0.52917 0,0.35278 -0.1763898,0.52916 -0.5291667,0.52916 -0.3527769,0 -0.5291667,-0.17638 -0.5291667,-0.52916 z m 5.2916669,-2.08165 c 0,-1.45729 -0.1101408,-2.71769 -0.2447555,-2.80089 -0.1346174,-0.0832 -0.5518388,-0.0113 -0.9271609,0.15966 -0.3753221,0.171 -0.759677,0.23364 -0.8541227,0.1392 -0.2645992,-0.2646 2.3597607,-2.59016 2.7527648,-2.43935 0.267597,0.10269 0.3298217,0.96283 0.2729627,3.77317 -0.065191,3.2222 -0.1268095,3.65036 -0.5366676,3.72899 -0.4160626,0.0798 -0.4630208,-0.17989 -0.4630208,-2.56078 z M -36.919346,84.359329 c -0.248528,-0.299458 0.768662,-1.22159 5.42748,-4.920277 5.030476,-3.99375 5.801905,-4.518718 6.292723,-4.282268 0.307666,0.148217 0.886815,0.340548 1.286997,0.427403 0.769633,0.167036 0.91158,0.63261 0.453713,1.488143 -0.348602,0.651365 -2.651109,0.734934 -3.165692,0.114898 -0.181158,-0.218281 -0.468061,-0.396875 -0.637567,-0.396875 -0.169502,0 -2.263849,1.785938 -4.6541,3.96875 -2.390251,2.182813 -4.425066,3.968751 -4.521809,3.968751 -0.09674,0 -0.313528,-0.165836 -0.481745,-0.368525 z M 6.1517874,79.680567 C 3.7052963,77.733199 3.6523691,77.573623 5.9857719,79.180012 c 1.1277865,0.776404 2.0505209,1.508853 2.0505209,1.627661 0,0.349893 -0.1164114,0.280268 -1.8845054,-1.127106 z m -49.2212354,0.62998 c -0.698614,-0.805868 -0.93956,-1.425696 -0.81253,-2.090208 0.125809,-0.658127 0.932582,-0.88615 1.260133,-0.356161 0.100082,0.161933 0.501857,0.207865 0.952495,0.108887 1.53702,-0.337585 1.934038,1.154377 0.427276,1.605671 -0.327576,0.09812 -0.779608,0.410345 -1.004517,0.693844 -0.393277,0.495731 -0.42476,0.497184 -0.822857,0.03797 z M 5.5864468,76.162283 C 4.1595621,75.284964 4.0154012,75.044818 5.3063616,75.695716 c 0.6085893,0.306851 1.1811635,0.678673 1.2723866,0.826273 0.2283936,0.369549 0.144018,0.338963 -0.9923014,-0.359706 z M -16.324068,74.32871 c -2.16763,-0.614577 -4.390286,-2.229337 -5.973347,-4.339633 -0.582152,-0.776039 -1.51865,-3.503311 -1.283666,-3.738295 0.07196,-0.07196 0.843661,0.06735 1.7149,0.309578 2.265751,0.629936 2.564551,0.57589 4.183168,-0.756645 1.253451,-1.031912 1.512658,-1.148561 1.878865,-0.845539 0.233648,0.193333 1.155356,0.970134 2.048243,1.726221 0.892884,0.756089 1.785853,1.37451 1.984375,1.374269 0.742413,-7.93e-4 3.2694906,-2.00279 3.3599147,-2.661644 0.1573291,-1.146369 0.5038328,-1.125086 1.7355079,0.10659 0.6647048,0.664704 1.448951,1.337209 1.7427682,1.494456 0.556051,0.297588 0.7235375,1.17738 0.2767118,1.453534 -0.1416262,0.08753 -0.454279,0.57382 -0.6947826,1.080643 -0.6515921,1.373127 -2.6494424,3.205768 -4.4739218,4.103957 -1.9199572,0.945193 -4.6001752,1.230797 -6.4987362,0.692508 z m -19.507557,-0.766273 c -0.514671,-0.514671 -0.369282,-0.740834 0.47625,-0.740834 0.855522,0 1.112504,0.614818 0.375234,0.897734 -0.532857,0.204478 -0.480449,0.214135 -0.851484,-0.1569 z M 4.2881258,73.381827 C 2.5137294,73.050674 1.7699406,72.771166 0.99928342,72.145908 -0.28788015,71.101595 -0.05676395,70.58185 1.5852826,70.828089 c 1.0330948,0.154922 1.1593434,0.117568 1.1593434,-0.343024 0,-0.420714 -0.3568833,-0.606991 -1.91822928,-1.001239 -1.05502607,-0.266398 -1.68010422,-0.519388 -1.38906254,-0.5622 0.62602535,-0.09209 14.75323382,1.8957 15.13069882,2.128986 0.446558,0.275987 0.07725,1.770991 -0.437484,1.770991 -0.253148,0 -1.858396,-0.365612 -3.567221,-0.812472 -1.7088218,-0.44686 -3.1796088,-0.739817 -3.2684109,-0.651015 -0.088802,0.08881 0.05497,0.563343 0.3194923,1.054534 0.8490003,1.576496 0.4893548,1.681287 -3.3262836,0.969177 z m -45.9935018,-4.42857 c -0.218281,-0.03673 -0.99075,-0.145415 -1.7166,-0.241533 l -1.319729,-0.17476 0.739169,-0.635804 c 0.406543,-0.349695 0.826323,-0.635807 0.932847,-0.635807 0.29495,0 2.044605,1.520309 1.89348,1.64528 -0.07276,0.06017 -0.310885,0.07935 -0.529167,0.04262 z m 7.116731,-1.774298 c -0.928817,-0.635961 -1.134562,-1.632839 -0.42945,-2.0808 0.512448,-0.325562 1.850067,-0.230524 2.573136,0.182819 0.363802,0.207968 0.929349,0.382344 1.256771,0.387498 0.833483,0.01312 0.803249,1.00175 -0.04044,1.322523 -0.349665,0.132942 -0.71388,0.36812 -0.809366,0.522618 -0.29736,0.481137 -1.610884,0.308795 -2.550647,-0.334658 z M 13.77255,66.752773 C 13.071187,66.655261 12.393081,66.406775 12.265647,66.20058 12.07411,65.890668 11.879122,65.881667 11.140813,66.148642 9.8596583,66.611914 9.4423204,66.551436 9.2613904,65.87629 8.944237,64.692836 9.0808996,64.43207 10.25285,63.984498 c 0.637022,-0.243281 1.369851,-0.676174 1.628506,-0.961988 0.629144,-0.695195 0.80782,-0.671808 3.352016,0.43874 2.906803,1.268826 3.008879,1.359464 2.336734,2.074929 -0.295888,0.31496 -0.53798,0.701069 -0.53798,0.858023 0,0.597577 -0.860028,0.692184 -3.259576,0.358571 z m -29.813341,-3.588462 c -1.583817,-0.829178 -1.911872,-0.901382 -4.149173,-0.913204 -2.366867,-0.01252 -2.443297,-0.03238 -2.970339,-0.772546 l -0.540959,-0.759709 0.799068,-1.649585 c 2.133761,-4.404891 6.475926,-6.729129 11.010572,-5.893644 0.754073,0.138933 1.496423,0.175117 1.649664,0.08041 0.153241,-0.09471 0.5075,-0.821121 0.7872387,-1.614252 0.2797413,-0.793129 2.9555388,-8.392388 5.9462196,-16.887244 2.99068075,-8.494853 5.4964861,-15.504074 5.5684581,-15.576046 0.2413555,-0.241356 1.4994387,0.208779 1.6452083,0.588646 0.079272,0.20658 -2.4085578,7.495612 -5.5285139,16.197845 -3.1199536,8.702236 -5.8196191,16.417558 -5.9992606,17.145162 l -0.3266176,1.322917 1.2135935,1.07265 c 0.667475,0.589955 1.2135909,1.215033 1.2135909,1.389062 0,0.212651 -0.5572469,0.316413 -1.6992733,0.316413 h -1.6992733 l -0.3076416,0.932164 -0.3076417,0.932164 -1.3276081,-0.176112 c -1.638154,-0.21731 -1.868627,0.06167 -1.317371,1.594655 l 0.406313,1.129906 -1.030822,1.233196 c -0.566952,0.678257 -1.094907,1.227418 -1.173231,1.220356 -0.07832,-0.0071 -0.916316,-0.418002 -1.862201,-0.913204 z m -17.247527,-0.577614 c 0.190995,-0.07643 0.419198,-0.06703 0.507119,0.02087 0.08792,0.08792 -0.06835,0.150453 -0.347266,0.138965 -0.308226,-0.0127 -0.370919,-0.07539 -0.159853,-0.159851 z m 49.129819,-2.085819 c 0.314698,-0.128596 29.812632,-5.141775 30.254598,-5.141775 0.412215,0 0.389636,1.043138 -0.02596,1.198885 -0.433631,0.16251 -29.493769,4.099086 -30.059038,4.071893 -0.238805,-0.01148 -0.31513,-0.06954 -0.169609,-0.129003 z M 6.9531865,55.324863 C 8.859999,54.409161 10.33395,53.84676 10.470129,53.982938 c 0.136176,0.136176 0.09112,0.343446 -0.107519,0.494557 -0.4333768,0.329692 -6.0756246,2.476841 -6.4286475,2.446414 -0.1448118,-0.01249 1.2138396,-0.732052 3.019224,-1.599046 z m 8.8883145,1.066435 c 2.362632,-0.729962 23.151434,-6.059279 23.636265,-6.059279 0.96184,0 0.658143,0.750837 -0.419076,1.03609 -0.545703,0.144505 -6.032122,1.399252 -12.192043,2.788325 -10.191893,2.298287 -13.21167,2.910416 -11.025146,2.234864 z M -1.4415085,54.960159 c -0.351155,-0.770703 -0.4671695,-0.788562 -1.7205246,-0.264878 -1.5761865,0.658572 -1.4675936,-0.04476 0.2431494,-1.574837 1.3529205,-1.21004 1.5969801,-1.336503 1.93226276,-1.00122 0.53717827,0.537178 1.9213619,0.261429 3.06451014,-0.610492 0.5122254,-0.390694 0.9313201,-0.631946 0.9313201,-0.536117 0,0.595238 -1.1851693,2.276943 -2.15999755,3.064941 -2.12700135,1.719361 -1.95859675,1.651535 -2.29072025,0.922603 z M 2.0831676,54.367875 C 2.5538931,53.859084 18.911181,42.394519 19.166383,42.394519 c 0.135847,0 0.246994,0.334293 0.246994,0.742873 0,0.688009 -0.571567,1.096624 -7.739063,5.53266 -8.2512011,5.106752 -10.0121699,6.152894 -9.5911464,5.697823 z M 16.172231,52.001717 c -0.628711,-0.164298 -0.581814,-0.708826 0.132291,-1.53606 l 0.595313,-0.689623 1.179568,1.204034 1.179568,1.204034 -1.31186,-0.03069 c -0.721524,-0.01688 -1.520219,-0.08514 -1.77488,-0.151694 z M 2.07355,47.950769 c 2.3109503,-2.897304 16.19979,-17.730666 16.540261,-17.665097 0.218138,0.04201 0.429948,0.253608 0.470691,0.470217 0.04202,0.223406 -3.782465,4.229484 -8.837753,9.25738 -4.9015069,4.874948 -8.5794456,8.446823 -8.173199,7.9375 z m 28.981494,-2.645833 c -1.446078,-0.961301 -1.594681,-0.969558 -2.38125,-0.132292 -0.730137,0.777192 -1.102726,0.817933 -2.014824,0.220303 -0.582639,-0.38176 -0.650388,-0.568778 -0.503213,-1.389063 0.217479,-1.212112 0.752041,-1.609365 2.165633,-1.609365 1.223507,0 1.724848,-0.461693 2.082961,-1.918229 0.09839,-0.400183 0.257564,-0.727605 0.353719,-0.727605 0.09616,0 0.559498,0.699715 1.029653,1.554922 0.701008,1.275136 0.854821,1.846432 0.854821,3.175 0,0.891043 -0.0893,1.619568 -0.198438,1.618946 -0.10914,-5.29e-4 -0.734219,-0.357301 -1.389062,-0.792617 z m -34.3958349,0.452961 c 0,-0.440941 4.7853019,-9.713378 5.0128621,-9.713378 0.7029292,0 0.3564758,0.868539 -1.86996391,4.687898 -2.61082639,4.478761 -3.14289819,5.329539 -3.14289819,5.02548 z m 5.0547721,-1.945013 c -0.511085,-0.357979 -0.576363,-0.569958 -0.4246165,-1.378839 0.2532777,-1.35009 0.598678,-1.89161 1.2065344,-1.89161 1.0877974,0 1.2933389,2.361931 0.2849589,3.274502 -0.4224258,0.382292 -0.5157973,0.381937 -1.0668768,-0.004 z M -7.470675,41.931498 c 0.076507,-0.254662 0.4495695,-1.772708 0.829027,-3.373438 0.3794575,-1.600729 0.8568267,-3.505729 1.0608257,-4.233333 0.2039964,-0.727604 0.5091457,-1.893271 0.6781086,-2.590369 0.2967223,-1.224201 0.8070348,-1.551668 0.9853481,-0.632299 0.090879,0.468567 -3.3121893,11.29246 -3.5503857,11.29246 -0.078118,0 -0.079433,-0.20836 -0.00294,-0.463021 z m -1.6834617,-4.941242 c -0.1535722,-0.403929 -0.5260632,-0.934294 -0.8277517,-1.178587 -0.4525536,-0.366456 -0.5162176,-0.616413 -0.3638526,-1.428578 0.134771,-0.718396 0.318061,-0.984406 0.6782967,-0.984406 0.2714916,0 0.6886522,-0.297656 0.9270259,-0.661458 0.6865726,-1.047843 1.3182839,-0.845915 1.8028815,0.576299 0.2319602,0.680768 0.4164092,1.365377 0.4098899,1.521355 -0.00654,0.155977 -0.5373238,0.869989 -1.1795602,1.586693 l -1.1677042,1.303099 z"
         id="path174" />
    </g>
  </g>
</svg>
