<?xml version="1.0" encoding="UTF-8" standalone="no"?>
<!-- Created with Inkscape (http://www.inkscape.org/) -->

<svg
   width="24"
   height="24"
   viewBox="0 0 24 24"
   version="1.1"
   id="svg5"
   inkscape:version="1.1.1 (3bf5ae0d25, 2021-09-20)"
   sodipodi:docname="trans.e.1.6.svg"
   xmlns:inkscape="http://www.inkscape.org/namespaces/inkscape"
   xmlns:sodipodi="http://sodipodi.sourceforge.net/DTD/sodipodi-0.dtd"
   xmlns="http://www.w3.org/2000/svg"
   xmlns:svg="http://www.w3.org/2000/svg">
  <g
     inkscape:label="Capa 1"
     inkscape:groupmode="layer"
     id="layer1"
     transform="translate(15.946791,28.864379)">
    <g
       id="g4409"
       transform="matrix(0.12812239,0,0,0.12708914,-207.56124,-4.2074214)" />
    <g
       id="g9127"
       transform="matrix(0.12598244,0,0,0.12598425,-174.2406,-23.711568)">
      <g
         id="g11021"
         transform="matrix(0.12640441,0,0,0.12664147,-448.45015,72.847799)">
        <g
           id="g13341"
           transform="matrix(0.12588624,0,0,0.12607217,12592.424,-845.35319)">
          <path
             style="fill:#facfa1;stroke-width:16.5989"
             d="M 10014.921,8639.3789 C 8394.5547,7022.7169 7053.2809,5678.7164 7034.3121,5652.7112 L 6999.8233,5605.429 9980.3279,2630.4094 C 11619.605,994.14868 12972.041,-344.61015 12985.741,-344.61015 c 13.7,0 1366.136,1338.75883 3005.413,2975.01955 l 2980.505,2975.0196 -34.489,47.2822 c -65.411,89.6747 -5926.781,5926.0528 -5951.429,5926.0528 -13.585,0 -1350.455,-1322.723 -2970.82,-2939.3851 z"
             id="path13355" />
          <path
             style="fill:#f7ae5e;stroke-width:16.5989"
             d="M 9995.0249,8591.0741 7012.6159,5608.9226 9999.1785,2628.0277 12985.741,-352.86723 l 2990.63,2984.95483 2990.63,2984.955 -2986.459,2980.8608 c -1642.552,1639.4736 -2990.205,2979.6146 -2994.784,2978.0916 -4.578,-1.524 -1350.408,-1344.738 -2990.7331,-2984.9209 z"
             id="path13353" />
          <path
             style="fill:#f59227;stroke-width:16.5989"
             d="M 10015.862,8589.6116 C 8387.0161,6963.8194 7054.3243,5626.1631 7054.3243,5617.0423 c 0,-9.1208 1334.5688,-1348.6193 2965.7087,-2976.663 l 2965.708,-2960.07974 2971.948,2966.30724 c 1634.571,1631.4689 2976.616,2965.3782 2982.322,2964.2429 5.707,-1.1359 8.507,3.5326 6.222,10.3732 -2.284,6.8406 -8.365,11.0363 -13.512,9.3238 -5.148,-1.7126 -1343.447,1328.4733 -2973.998,2955.9687 -1630.552,1627.4956 -2968.394,2959.0826 -2972.982,2959.0826 -4.588,0 -1341.034,-1330.194 -2969.879,-2955.9864 z"
             id="path13351" />
          <path
             style="fill:#ca781f;stroke-width:16.5989"
             d="M 10289.473,8274.2203 C 8829.3707,6821.9123 7634.9878,5622.4225 7635.2887,5608.6873 7636.1044,5571.4552 12948.074,310.4292 12984.85,310.4292 c 33.668,0 5350.796,5271.6439 5350.796,5305.0234 0,36.0422 -5313.288,5291.3754 -5353.907,5295.5084 -29.786,3.031 -585.542,-541.263 -2692.266,-2636.7407 z m 5224.709,-143.8199 c 1382.752,-1372.1541 2516.226,-2503.1045 2518.831,-2513.2233 6.789,-26.3626 -5028.594,-5019.52666 -5055.758,-5013.3696 -20.644,4.67895 -5018.6017,4955.0814 -5045.9243,4997.912 -12.308,19.2936 5033.1113,5036.4485 5056.3403,5028.0145 6.83,-2.479 1143.76,-1127.1794 2526.511,-2499.3336 z m -2615.668,2020.8736 c -26.191,-15.226 -29.075,-50.547 -29.075,-356.0357 v -339.1331 h -98.501 c -124.809,0 -158.081,-27.519 -145.597,-120.4223 4.785,-35.6031 12.449,-68.4753 17.031,-73.0493 4.583,-4.574 40.725,-12.4335 80.317,-17.4654 97.669,-12.4136 123.675,-28.2567 172.123,-104.8583 39.955,-63.1745 44.833,-65.6201 130.896,-65.6201 66.19,0 92.013,6.8091 99.48,26.2313 5.546,14.4271 10.085,252.9638 10.085,530.0812 0,481.1697 -1.448,504.6227 -32.137,521.0167 -40.885,21.84 -166.56,21.382 -204.622,-0.744 z m -166.343,-1651.3557 c -34.159,-24.2586 -62.108,-56.0738 -62.108,-70.7003 0,-14.6264 26.789,-66.2966 59.53,-114.8227 32.741,-48.526 57.04,-90.3296 53.997,-92.8967 -3.042,-2.5671 -44.696,-17.438 -92.563,-33.0462 -47.867,-15.6081 -91.468,-35.5444 -96.891,-44.3025 -17.398,-28.0969 11.958,-149.8573 43.79,-181.6288 29.998,-29.9419 33.219,-29.9194 122.852,0.8607 l 92.046,31.6088 v -105.7135 c 0,-125.0648 23.64,-157.9383 113.336,-157.6061 128.778,0.4776 135.883,7.4525 135.883,133.3952 0,62.2436 6.273,117.0399 13.941,121.7694 7.667,4.7296 51.635,-3.4322 97.706,-18.1376 46.072,-14.7052 95.481,-22.2501 109.799,-16.7662 27.699,10.6092 66.546,128.2423 57.623,174.4888 -3.193,16.5501 -41.929,40.4597 -96.511,59.5714 -50.148,17.559 -93.667,33.7813 -96.709,36.0497 -3.043,2.2684 21.256,43.8276 53.997,92.3536 32.741,48.5261 59.53,100.3965 59.53,115.2677 0,31.4828 -117.97,114.3621 -162.783,114.3621 -17.994,0 -54.988,-34.9569 -89.896,-84.9464 l -59.318,-84.9463 -63.538,84.9463 c -73.461,98.2121 -103.892,104.6279 -193.713,40.8396 z m 1119.268,-2701.7937 c -224.394,-60.2292 -394.943,-209.6144 -508.072,-445.0242 -98.81,-205.6151 -128.267,-346.5795 -137.691,-658.9107 -16.516,-547.3493 75.985,-907.5511 294.285,-1145.9552 173.649,-189.6416 353.479,-265.3842 632.188,-266.2725 426.116,-1.3582 716.615,188.306 804.525,525.2662 41.232,158.0436 38.411,159.8131 -254.793,159.8131 -260.996,0 -268.228,-2.0536 -292.038,-82.9164 -47.102,-159.9646 -280.486,-213.2555 -437.322,-99.8579 -97.97,70.8347 -185.893,283.7006 -185.893,450.0522 v 50.0627 l 51.368,-36.5082 c 86.032,-61.1447 235.836,-98.4367 394.553,-98.2196 244.314,0.335 419.519,68.3344 574.419,222.9426 246.429,245.9644 295.988,643.1494 124.696,999.3691 -112.098,233.1188 -279.531,371.3966 -517.516,427.4006 -132.328,31.1401 -424.556,30.4714 -542.709,-1.2421 z m 402.476,-444.1251 c 118.653,-49.483 184.387,-179.8181 185.139,-367.0869 0.809,-201.4355 -82.158,-340.302 -233.001,-389.991 -139.725,-46.0262 -322.244,22.186 -395.82,147.9283 -40.454,69.1363 -55.743,277.0773 -27.926,379.8145 22.155,81.8247 118.788,197.0485 192.003,228.9436 65.6,28.5771 211.53,28.7814 279.605,0.3913 z m -2760.166,384.1355 c -14.968,-14.9392 -19.938,-223.6009 -19.938,-837.0544 v -817.1545 l -278.294,-4.5468 -278.295,-4.5468 -4.703,-176.9788 c -5.386,-202.7135 -18.682,-186.8352 170.849,-204.0299 274.792,-24.9296 406.98,-109.9663 467.464,-300.7199 l 30.974,-97.6853 h 215.99 215.99 l 4.262,1217.825 c 3.372,963.2882 -0.1,1220.59 -16.614,1231.0542 -34.878,22.1012 -484.84,16.6392 -507.685,-6.1628 z m 880.574,0 c -27.871,-27.8186 -27.871,-512.7962 0,-540.6148 27.871,-27.8186 513.765,-27.8186 541.637,0 27.871,27.8186 27.871,512.7962 0,540.6148 -27.872,27.8186 -513.766,27.8186 -541.637,0 z"
             id="path13349" />
          <path
             style="fill:#9d5e18;stroke-width:16.5989"
             d="M 10304.331,8267.0718 C 8628.9614,6605.3024 7652.8092,5625.4525 7655.8856,5608.5932 c 5.6541,-30.9856 5288.5874,-5279.02929 5321.8604,-5286.71323 22.486,-5.19307 5341.286,5262.29343 5341.286,5289.75643 0,8.1728 -783.172,792.1922 -1740.381,1742.2652 -957.209,950.0733 -2151.683,2136.3528 -2654.385,2636.177 -502.702,499.8244 -925.842,908.7714 -940.31,908.7714 -14.469,0 -1220.3,-1184.3001 -2679.625,-2631.7782 z m 5223.266,-129.337 c 1389.044,-1377.2409 2525.55,-2512.5407 2525.568,-2522.8883 0.06,-32.5532 -5035.652,-5022.50163 -5068.561,-5022.50163 -18.277,0 -1041.828,1002.56193 -2556.5,2504.07443 -1389.3111,1377.241 -2526.1133,2508.4513 -2526.2272,2513.8006 -0.435,20.4172 5067.9202,5042.4191 5083.6372,5037.1441 9.102,-3.055 1153.04,-1132.3882 2542.083,-2509.6292 z m -2620.421,2001.4162 c -14.801,-9.385 -21.652,-106.186 -24.921,-352.1402 l -4.509,-339.1973 -99.113,-5.0799 c -116.974,-5.9956 -141.799,-22.3006 -141.799,-93.1335 0,-64.2244 25.648,-92.4942 83.917,-92.4942 87.037,0 148.601,-34.319 183.282,-102.1701 33.083,-64.7255 34.215,-65.2958 119.858,-60.357 l 86.46,4.9859 4.398,512.9521 c 3.424,399.3312 -0.256,515.9012 -16.615,526.2652 -26.933,17.064 -164.209,17.33 -190.958,0.37 z m -166.283,-1650.0522 c -29.579,-19.955 -53.877,-47.4108 -53.997,-61.0131 -0.117,-13.6022 27.099,-64.3195 60.486,-112.7052 35.01,-50.7357 54.35,-93.8055 45.691,-101.7507 -8.258,-7.5772 -54.267,-26.4874 -102.241,-42.0228 -94.801,-30.6988 -106.369,-56.0853 -69.573,-152.6839 24.882,-65.3225 43.635,-71.8888 130.312,-45.6299 117.758,35.6753 117.868,35.6002 117.868,-80.9908 0,-59.1471 8.65,-113.1084 19.937,-124.3746 10.966,-10.945 55.562,-19.8999 99.103,-19.8999 97.338,0 113.564,23.5391 113.564,164.7425 0,55.3245 6.537,100.5899 14.526,100.5899 7.989,0 46.312,-11.1937 85.162,-24.8749 103.603,-36.4844 127.131,-32.1338 147.906,27.3494 36.059,103.2425 26.487,124.8557 -68.987,155.7722 -47.974,15.5354 -93.983,34.4456 -102.241,42.0228 -8.659,7.9452 10.681,51.015 45.691,101.7507 33.387,48.3857 60.611,99.103 60.498,112.7052 -0.229,27.6739 -101.822,99.3561 -140.813,99.3561 -13.85,0 -52.039,-37.3124 -84.864,-82.9164 -32.826,-45.604 -64.862,-82.9164 -71.192,-82.9164 -6.33,0 -39.419,37.3124 -73.53,82.9164 -68.551,91.6488 -93.873,98.1615 -173.306,44.5734 z M 13974.31,5807.0821 c -277.11,-37.9609 -484.275,-188.4643 -614.388,-446.3473 -100.905,-199.9936 -127.795,-331.96 -137.226,-673.4534 -12.091,-437.8499 23.205,-660.1062 145.558,-916.5763 158.14,-331.4833 472.329,-508.4676 847.248,-477.2594 230.387,19.1773 383.524,80.0402 518.532,206.0862 97.295,90.8362 150.065,176.6805 186.448,303.3061 43.199,150.3446 45.161,149.1912 -244.779,143.8957 l -250.068,-4.5674 -15.866,-49.7498 c -24.578,-77.0681 -106.079,-152.2477 -187.133,-172.6189 -186.875,-46.967 -357.049,63.6167 -422.279,274.4076 -37.349,120.6947 -63.194,304.5015 -42.815,304.5015 6.745,0 32.109,-14.0712 56.365,-31.2695 182.866,-129.6594 510.929,-145.1175 746.693,-35.1838 124.404,58.0077 279.997,200.5341 340.953,312.3198 210.905,386.7697 54.038,967.5583 -315.355,1167.5856 -152.521,82.5905 -410.157,122.558 -611.888,94.9233 z m 279.088,-436.2839 c 69.014,-28.7814 151.712,-122.9834 179.258,-204.193 31.652,-93.3174 28.104,-282.0658 -7.03,-373.8873 -61.815,-161.5568 -222.354,-249.2828 -392.393,-214.4229 -176.429,36.1697 -269.463,156.1998 -280.397,361.7598 -10.652,200.2669 74.361,366.2607 219.989,429.5444 66.755,29.0088 212.397,29.6312 280.573,1.199 z m -2755.015,350.3696 c -4.376,-11.6459 -9.826,-386.8356 -12.111,-833.7548 l -4.153,-812.5805 -274.142,-8.2916 -274.141,-8.2916 v -165.8328 -165.8327 l 157.839,-19.4288 c 224.026,-27.576 275.522,-46.7032 364.297,-135.3106 56.069,-55.9632 83.876,-100.594 99.937,-160.3987 12.24,-45.5734 33.848,-92.1886 48.019,-103.5896 29,-23.3314 345.926,-29.1488 380.892,-6.9915 16.513,10.4637 19.986,266.1083 16.615,1222.7626 l -4.263,1209.5328 -245.416,4.5911 c -187.24,3.5029 -247.302,-0.4279 -253.373,-16.5833 z m 880.102,-0.7512 c -4.627,-12.0343 -6.334,-133.4899 -3.795,-269.9011 l 4.618,-248.0203 h 265.833 265.834 v 265.3324 265.3324 l -262.039,4.5687 c -204.94,3.5732 -263.872,-0.199 -270.451,-17.3118 z"
             id="path13347" />
          <path
             style="fill:#55320c;stroke-width:16.5989"
             d="M 10321.109,8267.0782 C 8650.3655,6610.0045 7669.4311,5625.448 7672.4994,5608.6879 c 5.6663,-30.9523 5272.0116,-5262.56139 5305.2156,-5270.22278 22.376,-5.16304 5324.702,5245.67008 5324.702,5272.99188 0,8.0499 -775.695,784.6423 -1723.766,1725.761 -948.071,941.1188 -2142.673,2127.4891 -2654.671,2636.3785 -511.997,508.8895 -935.063,925.2535 -940.146,925.2535 -5.083,0 -1203.309,-1184.2973 -2662.725,-2631.7718 z m 5215.06,-121.0385 c 1393.504,-1381.794 2533.643,-2520.841 2533.643,-2531.2153 0,-25.1543 -5046.76,-5037.42771 -5079.563,-5044.85305 -15.748,-3.56455 -278.584,245.43967 -683.782,647.79745 -362.011,359.4732 -1506.735,1495.2053 -2543.8317,2523.849 L 7877.0058,5611.8791 10418.912,8138.7084 c 1398.049,1389.7562 2551.291,2525.2216 2562.76,2523.2566 11.469,-1.965 1160.993,-1134.1312 2554.497,-2515.9253 z m -2621.678,1979.6693 c -6.503,-6.49 -11.938,-157.9407 -12.077,-336.5565 -0.133,-178.6156 -5.942,-333.6843 -12.892,-344.5971 -7.058,-11.0809 -60.129,-22.0637 -120.202,-24.8749 l -107.564,-5.0335 v -66.1282 -66.1283 l 79.961,-11.4162 c 99.213,-14.165 149.648,-46.0972 177.032,-112.0835 19.57,-47.1571 27.356,-51.0344 102.477,-51.0344 h 81.297 l -4.393,509.9357 -4.394,509.9359 -83.711,4.891 c -46.041,2.689 -89.032,-0.42 -95.534,-6.91 z m -141.144,-1631.5907 c -30.006,-18.2596 -58.938,-44.5969 -64.293,-58.527 -5.539,-14.4074 16.446,-64.6883 50.991,-116.6192 33.401,-50.2105 56.638,-97.8997 51.637,-105.9759 -5.001,-8.0762 -48.257,-27.5486 -96.124,-43.2722 -104.107,-34.1971 -113.719,-46.0888 -91.459,-113.1437 29.2,-87.9624 46.432,-97.1848 127.95,-68.478 126.945,44.7045 131.898,41.2819 137.43,-94.9708 l 4.882,-120.2287 h 91.38 91.38 l 4.853,128.5204 c 2.669,70.6862 8.995,128.5203 14.057,128.5203 5.063,0 50.007,-11.8391 99.877,-26.3092 49.869,-14.47 99.983,-22.7426 111.364,-18.3834 25.028,9.5858 60.597,117.7197 46.052,140.001 -5.703,8.7361 -49.533,28.7486 -97.4,44.4721 -47.867,15.7236 -91.521,35.8386 -97.008,44.7 -5.487,8.8614 18.405,57.2418 53.092,107.512 69.872,101.2593 67.815,117.8804 -21.54,174.0554 l -52.8,33.1938 -69.652,-92.0798 c -38.309,-50.6438 -75.333,-92.0796 -82.275,-92.0796 -6.942,0 -43.669,41.0436 -81.615,91.208 -37.946,50.1644 -70.62,91.1801 -72.608,91.146 -1.989,-0.033 -28.166,-15.0018 -58.171,-33.2615 z m 1148.639,-2709.9297 c -314.405,-59.3653 -529.687,-282.8255 -640.286,-664.6098 -35.464,-122.4175 -38.406,-163.4119 -38.089,-530.6647 0.309,-358.0764 4.123,-412.9695 38.029,-547.2481 141.09,-558.7676 550.27,-827.2373 1087.597,-713.5903 286.26,60.5454 534.155,301.6619 548.205,533.2152 l 3.901,64.2922 -235.477,4.5934 -235.477,4.5932 -46.219,-84.7586 c -57.769,-105.9416 -133.096,-148.3022 -263.713,-148.3022 -200.565,0 -326.745,130.3062 -383.084,395.6109 -23.32,109.8139 -31.575,234.5535 -15.523,234.5535 4.648,0 39.516,-22.4611 77.484,-49.9133 188.503,-136.293 528.12,-145.9834 773.492,-22.0706 99.857,50.4278 249.824,198.9486 299.99,297.0967 69.789,136.5396 91.242,249.9617 82.645,436.9449 -11.568,251.6083 -95.166,449.5762 -255.751,605.6439 -166.955,162.2582 -503.559,240.157 -797.724,184.6137 z m 332.161,-397.1195 c 230.086,-95.9544 292.911,-515.9142 107.255,-716.9476 -112.758,-122.0972 -275.392,-149.5251 -428.628,-72.2876 -118.533,59.7455 -184.068,170.713 -195.424,330.9051 -9.211,129.918 11.642,214.6312 78.881,320.4559 86.002,135.356 289.97,199.5734 437.916,137.8742 z M 11507.04,4904.5797 c 0,-794.023 -1.028,-820.8383 -32.136,-837.4554 -18.074,-9.6544 -141.676,-17.1667 -282.449,-17.1667 h -250.311 v -155.3713 -155.3714 l 62.304,-10.2788 c 34.268,-5.6534 87.983,-10.3611 119.366,-10.4614 102.768,-0.3283 245.789,-51.1804 318.385,-113.2024 66.926,-57.1781 147.418,-196.4453 147.752,-255.6421 0.223,-39.3846 48.353,-48.1704 232.767,-42.49 l 157.839,4.8617 4.262,1206.4332 4.262,1206.4333 h -241.02 -241.021 z m 880.575,563.2479 v -257.0407 h 257.526 257.527 v 257.0407 257.0408 h -257.527 -257.526 z"
             id="path13345" />
          <path
             style="fill:#070401;stroke-width:16.5989"
             d="M 10327.403,8249.3126 C 8879.0242,6810.9319 7691.8393,5626.0518 7689.2145,5616.2458 7683.7161,5595.7041 12967.974,348.51744 12987.091,355.53606 c 17.552,6.44376 5252.211,5198.07704 5278.227,5234.84194 18.888,26.6929 -250.524,299.2621 -2621.8,2652.5278 -1453.568,1442.5276 -2651.817,2622.5222 -2662.775,2622.2112 -10.958,-0.312 -1204.961,-1177.4238 -2653.34,-2615.8044 z m 5219.033,-88.7879 c 1396.995,-1387.5083 2539.991,-2535.0649 2539.991,-2550.1255 0,-25.3152 -5062.324,-5060.5688 -5100.568,-5073.29257 -23.821,-7.92543 -5119.7948,5056.32167 -5113.8961,5082.05797 7.4451,32.483 5085.9481,5063.3994 5111.6691,5063.7724 12.547,0.182 1165.809,-1134.9038 2562.804,-2522.4123 z m -2627.153,1620.9848 c 0,-254.9632 -5.24,-342.267 -21.343,-355.6061 -11.739,-9.724 -65.944,-19.9658 -120.456,-22.7598 -97.918,-5.0187 -99.113,-5.6797 -99.113,-54.8297 0,-46.0354 5.297,-50.4555 70.95,-59.2012 81.779,-10.894 152.198,-57.2021 183.329,-120.5604 18.009,-36.652 32.762,-44.1126 87.227,-44.1126 h 65.552 v 497.4982 497.4981 h -83.073 -83.073 z M 12757.29,8466.5079 c -20.561,-14.3154 -37.383,-32.695 -37.383,-40.8437 0,-8.1485 27.063,-55.498 60.139,-105.221 33.077,-49.723 55.941,-101.3276 50.808,-114.6772 -5.132,-13.3493 -51.606,-37.5725 -103.275,-53.8291 -93.722,-29.4874 -93.922,-29.6925 -84.64,-86.7816 5.117,-31.4732 15.182,-62.7897 22.367,-69.5919 7.186,-6.8023 55.388,0.8673 107.116,17.0453 51.728,16.1773 101.816,24.6237 111.305,18.7698 9.49,-5.8539 19.503,-62.6745 22.251,-126.2681 l 4.997,-115.6243 h 74.766 74.766 l 4.852,128.5203 c 5.53,146.457 7.399,147.7678 144.309,101.2059 76.363,-25.9702 81.414,-25.8143 102.647,3.1696 47.34,64.6182 28.858,98.9514 -70.011,130.0583 -50.79,15.9798 -96.544,39.9765 -101.676,53.3258 -5.133,13.3496 17.731,64.9542 50.808,114.6772 33.076,49.723 60.139,94.9208 60.139,100.4398 0,18.0893 -74.192,72.2768 -99.688,72.8085 -13.707,0.2852 -50.391,-36.7784 -81.52,-82.3647 -31.128,-45.5864 -68.511,-82.7167 -83.073,-82.5117 -14.561,0.2056 -52.643,37.3497 -84.626,82.5438 -61.905,87.4757 -85.883,96.5718 -145.378,55.149 z m 1216.84,-2691.93 c -345.023,-47.2081 -571.944,-273.8738 -680.642,-679.874 -37.488,-140.0252 -53.633,-648.5768 -26.945,-848.7494 44.14,-331.0671 138.924,-548.7963 307.378,-706.079 178.406,-166.5758 380.887,-234.3608 640.161,-214.3083 344.733,26.6621 582.527,189.712 665.999,456.6591 18.125,57.9657 32.955,112.0686 32.955,120.2287 0,8.16 -104.092,14.8364 -231.316,14.8364 h -231.316 l -18.287,-55.306 c -36.805,-111.3083 -147.786,-182.3875 -284.776,-182.3875 -235.09,0 -361.35,148.8249 -422.32,497.7969 -28.094,160.7999 -17.689,195.7067 46.175,154.904 195.142,-124.6759 354.7,-162.1491 564.482,-132.5726 458.673,64.6666 717.663,484.9752 601.619,976.3507 -49.987,211.6628 -208.515,431.7835 -370.29,514.1598 -144.315,73.485 -403.131,110.3035 -592.877,84.3412 z m 301.172,-379.9343 c 134.145,-60.8027 210.877,-208.6008 211.681,-407.731 0.438,-108.562 -7.336,-149.7821 -42.786,-226.8699 -98.414,-214.0082 -351.341,-288.7651 -550.489,-162.707 -44.319,28.0531 -93.358,79.3662 -121.471,127.1035 -43.294,73.5175 -47.146,93.6043 -47.146,245.8902 0,138.4773 5.927,176.7749 35.927,232.1658 45.3,83.6383 129.758,165.0023 204.985,197.4746 80.8,34.8782 226.12,32.3757 309.299,-5.3262 z m -2751.647,-506.6472 c 0,-794.0229 -1.028,-820.8383 -32.137,-837.4554 -18.073,-9.6544 -141.675,-17.1666 -282.448,-17.1666 h -250.312 v -139.638 -139.6378 l 112.149,-11.2433 c 317.521,-31.8323 444.175,-111.4549 516.878,-324.9413 l 30.421,-89.3288 h 172.868 172.868 l 4.264,1189.8499 4.264,1189.85 h -224.408 -224.407 z m 880.575,579.8312 v -240.4575 h 240.911 240.912 v 240.4575 240.4575 h -240.912 -240.911 z"
             id="path13343" />
        </g>
      </g>
    </g>
  </g>
</svg>
