<?xml version="1.0" encoding="UTF-8" standalone="no"?>
<svg viewBox="0 0 496.95319 499.99673" xmlns="http://www.w3.org/2000/svg" xmlns:xlink="http://www.w3.org/1999/xlink">
<defs>
<linearGradient id="linearGradient4098-04-9-8">
<stop offset="0" stop-color="#ffb142"/>
<stop offset="1" stop-color="#c87600"/>
</linearGradient>
<linearGradient gradientUnits="userSpaceOnUse" id="linearGradient11549" x1="609.6772" x2="613.4178" y1="134.1983" y2="146.6672">
<stop offset="0" stop-color="#a9a9a9"/>
<stop offset=".263" stop-color="#9c9c9c"/>
<stop offset=".489" stop-color="#97989c"/>
<stop offset=".778" stop-color="#9e9fa1"/>
<stop offset="1" stop-color="#acacac"/>
</linearGradient>
<linearGradient gradientUnits="userSpaceOnUse" id="linearGradient11535" x2="0" xlink:href="#linearGradient4098-04-9-8" y1="133.85" y2="139.3382"/>
<linearGradient gradientUnits="userSpaceOnUse" id="linearGradient11547" x1="612.2259" x2="615.5351" xlink:href="#linearGradient4098-04-9-8"/>
</defs>
<g transform="matrix(3.37266,0,0,3.37266,-1821.17678,3.05647)">
<path d="m611.7198,133.256a5.5544,8.9743 0 0,1 -11.1088,0 5.5544,8.9743 0 1,1 11.1088,0z" fill="url(#linearGradient11535)" stroke="#000" stroke-linecap="round" stroke-linejoin="round" stroke-width="1.9489"/>
<path d="m598.2723,133.256a5.5544,8.9743 0 0,1 -11.1088,0 5.5544,8.9743 0 1,1 11.1088,0z" fill="url(#linearGradient11535)" stroke="#000" stroke-linecap="round" stroke-linejoin="round" stroke-width="1.9489"/>
<path d="m604.8986,133.256a5.5544,8.9743 0 0,1 -11.1088,0 5.5544,8.9743 0 1,1 11.1088,0z" fill="url(#linearGradient11535)" stroke="#000" stroke-linecap="round" stroke-linejoin="round" stroke-width="1.9489"/>
<path d="m641.733,133.256a5.5544,8.9743 0 0,1 -11.1088,0 5.5544,8.9743 0 1,1 11.1088,0z" fill="url(#linearGradient11535)" stroke="#000" stroke-linecap="round" stroke-linejoin="round" stroke-width="1.9489"/>
<path d="m628.2856,133.256a5.5544,8.9743 0 0,1 -11.1089,0 5.5544,8.9743 0 1,1 11.1089,0z" fill="url(#linearGradient11535)" stroke="#000" stroke-linecap="round" stroke-linejoin="round" stroke-width="1.9489"/>
<path d="m634.9118,133.256a5.5544,8.9743 0 0,1 -11.1088,0 5.5544,8.9743 0 1,1 11.1088,0z" fill="url(#linearGradient11535)" stroke="#000" stroke-linecap="round" stroke-linejoin="round" stroke-width="1.9489"/>
<path d="m592.718,124.2802c-2.2632,0-4.202,2.1946-5.0671,5.3351 7.3946,1.9779 15.5188,3.1315 24.0568,3.2888-.1163-4.7884-2.5503-8.624-5.5422-8.624-1.2867,0-2.4686.7123-3.4106,1.9002-.942-1.1879-2.124-1.9002-3.4106-1.9002-1.2418,0-2.3879.6646-3.3132,1.7784-.9253-1.1138-2.0713-1.7784-3.3131-1.7784zm30.0132,0c-2.9843,0-5.4143,3.8162-5.5422,8.5874 8.5287-.2745 16.6108-1.5527 23.9472-3.642-.9149-2.9295-2.7897-4.9454-4.9575-4.9454-1.2867,0-2.4686.7123-3.4106,1.9002-.942-1.1879-2.124-1.9002-3.4106-1.9002-1.2418,0-2.3879.6646-3.3132,1.7784-.9253-1.1138-2.0713-1.7784-3.3131-1.7784z" fill-opacity=".314"/>
<path d="m678.2394,64.6198a64.5339,64.5339 0 0,1 -129.0678,0 64.5339,64.5339 0 1,1 129.0678,0z" fill="#784421" stroke="#000" stroke-linecap="round" stroke-width="1.9489"/>
<path d="m645.6038,96.886c-10.3292-1.9191-.876,8.4314-2.4598,12.174-6.2611-3.0787-3.8755,7.1135-6.7067,9.9448-5.3649-.2869-6.2023,5.123-9.9449,6.7068-4.5221-2.5089-7.8565,2.4598-12.1739,2.4598s-6.8723-4.7738-12.174-2.4598c-3.7425-1.5838-4.5799-6.7988-9.9448-6.7068-2.8314-2.8313-2.3946-13.6081-6.7068-9.9448-1.5838-3.7425 5.7256-14.8726-2.4598-12.174 0-4.3174 8.6716-12.3292 2.4598-12.1739 1.5838-3.7425 9.5273-6.5288 6.7068-9.9448 5.6626-5.6626 13.484-9.1666 22.1187-9.1666s16.456,3.504 22.1187,9.1666c-4.1848,2.0518 5.1229,6.2023 6.7067,9.9448-6.9913-.3502 2.4598,7.8565 2.4598,12.1739z" fill="#fff" stroke="#000" stroke-linecap="round" stroke-linejoin="round" stroke-width="1.9489"/>
<path d="m670.7232,34.3868c.772,3.9884 1.1815,8.1018 1.1815,12.3147 0,1.4538-.0513,2.8942-.1462,4.3241-1.4315-.0713-2.9539.007-4.5799.2436-13.7264,2.9228-7.8632,20.1377-11.4377,38.1499-11.8269,13.3807-29.1204,21.8156-48.3695,21.8156-11.8389,0-22.9315-3.199-32.4737-8.7701-9.2297-21.6105 3.148-45.0839-13.1186-49.1369-17.973-3.2451-24.9345,13.4304-13.3135,38.4179 6.4162,13.796 17.0424,20.5726 24.8608,23.2042 11.0555,8.8872 25.0988,14.2027 40.3789,14.2027 17.9103,0 34.1283-7.3042 45.8238-19.0993 6.8031-3.3979 14.368-9.5866 19.6231-19.9397 9.8273-19.3608 7.9456-33.9416-2.1316-37.9794-1.2355-6.2895-3.3778-12.2555-6.2974-17.7473z" fill-opacity=".314" fill-rule="evenodd"/>
<path d="m561.7251,50.1904c18.7529,6.7432-5.5207,36.6951 14.7412,62.8296 3.7452,4.8307-22.5559.8149-31.8541-25.9537-9.0423-26.0319-.4414-41.9168 17.1128-36.876z" fill="#784421" fill-rule="evenodd" stroke="#000" stroke-width="1.9489"/>
<path d="m665.5796,50.1904c-18.7529,6.7432 5.5207,36.6951-14.7412,62.8296-3.7452,4.8307 22.5559.8149 31.8541-25.9537 9.0423-26.0319.4413-41.9168-17.1129-36.876z" fill="#784421" fill-rule="evenodd" stroke="#000" stroke-width="1.9487"/>
<path d="m658.6901,46.6639c5.2187-1.7965 10.6103,2.956 11.6409,5.5271-5.2668-1.3456-7.6864-1.7251-9.0501-.5382 .5873,1.3141 6.7855,2.6279 8.7067,11.2535-4.8445-3.3586-8.6935-7.2404-10.2406-5.6453 1.1232,1.9621 2.4165,5.6508 1.5449,9.3083-2.7836-3.6735-5.6279-7.5534-8.2406-7.6584" fill="#784421" fill-rule="evenodd" stroke="#000" stroke-linecap="round" stroke-linejoin="round" stroke-width="1.9489"/>
<path d="m595.7946,14.8056c-12.1746,0-22.0629,11.4328-22.0629,25.5197s9.8883,25.5197 22.0629,25.5197c7.1547,0 13.5038-3.9527 17.5342-10.0679 4.0303,6.1196 10.3932,10.0679 17.5509,10.0679 12.1747,0 22.063-11.4329 22.063-25.5197s-9.8883-25.5197-22.063-25.5197c-7.1569,0-13.5205,3.9495-17.5509,10.0679-4.0305-6.1138-10.3804-10.0679-17.5342-10.0679z" fill="#fff" stroke="#000" stroke-linecap="round" stroke-width="1.9489"/>
<path d="m613.9972,58.0359c-3.6202,0-7.5554,4.0254-7.398,6.5677s6.4536,13.1354 7.8703,13.1354 6.9257-10.3812 6.7684-13.3473-4.8795-6.5677-7.2406-6.3559z" fill-opacity=".314" fill-rule="evenodd"/>
<path d="m613.1704,53.9008c-3.6203,0-7.5554,3.6274-7.398,5.9184s6.4536,11.8367 7.8702,11.8367 6.9258-9.3548 6.7684-12.0276-4.8796-5.9184-7.2406-5.7275z" fill="url(#linearGradient11547)" fill-rule="evenodd" stroke="#000" stroke-width="1.9489"/>
<path d="m568.51,46.6639c-5.2187-1.7965-10.6103,2.956-11.6409,5.5271 5.2668-1.3456 7.6864-1.7251 9.0501-.5382-.5873,1.3141-6.7854,2.6279-8.7067,11.2535 4.8445-3.3586 8.6935-7.2404 10.2405-5.6453-1.1232,1.9621-2.4165,5.6508-1.5449,9.3083 2.7836-3.6735 5.628-7.5534 8.2406-7.6584" fill="#784421" fill-rule="evenodd" stroke="#000" stroke-linecap="round" stroke-linejoin="round" stroke-width="1.9489"/>
<path d="m618.7244,19.1005c5.1747-12.5353 13.9019-14.2322 13.9019-14.2322s-4.8541,6.5387-.4577,4.7198c6.8077-2.8165 28.4529,6.0098 28.4529,6.0098s-28.678-6.6754-41.8971,3.5026z" fill="#fff" fill-rule="evenodd" stroke="#000" stroke-linejoin="round" stroke-width="1.9489"/>
<path d="m606.859,17.9312c-5.1747-12.5353-13.9018-14.2322-13.9018-14.2322s4.8541,6.5387.4576,4.7198c-6.8076-2.8165-28.4528,6.0098-28.4528,6.0098s28.678-6.6754 41.897,3.5026z" fill="#fff" fill-rule="evenodd" stroke="#000" stroke-linejoin="round" stroke-width="1.9489"/>
<g transform="matrix(.38978,0,0,.38978,467.48417,-131.82563)">
<path d="m370.595,457.689a16.3871,16.3871 0 1,1 -32.7742,0 16.3871,16.3871 0 1,1 32.7742,0z" stroke="#000" stroke-linecap="round" stroke-width="5"/>
<path d="m352.5426,451.9498a4.25,4.25 0 0,1 -8.5,0 4.25,4.25 0 1,1 8.5,0z" fill="#fff"/>
</g>
<g transform="matrix(.38978,0,0,.38978,467.48417,-131.82563)">
<path d="m404.6506,443.9571a16.3871,16.3871 0 1,1 -17.8855,27.4638 16.3871,16.3871 0 1,1 17.8855-27.4638z" stroke="#000" stroke-linecap="round" stroke-width="5"/>
<path d="m394.0426,451.9498a4.25,4.25 0 0,1 -8.5,0 4.25,4.25 0 1,1 8.5,0z" fill="#fff"/>
</g>
<path d="m671.722,49.2594-.4873.0122c6.3192,5.0923 8.9936,16.8764 5.7615,33.2654-4.2966,21.7868-20.8832,31.1857-26.3956,31.6819 1.79,2.5439 23.7654-3.1673 32.0961-27.1507 7.912-22.7779 2.3078-37.7894-10.9747-37.8089z" fill-opacity=".314" fill-rule="evenodd"/>
<path d="m541.5835,61.8055c-1.3454,6.4337-.5061,15.0739 3.033,25.2627 9.2982,26.7686 35.5977,30.7877 31.8525,25.957-1.6016-2.0658-2.9313-4.1607-4.0196-6.2608-7.3869-1.7702-21.0668-9.5014-27.2482-27.2969-2.2917-6.5977-3.4511-12.5434-3.6177-17.662zm27.7841,2.4727c-.3441,3.3272-.7235,6.8648-.8892,10.5728 .3872-3.8162.8105-7.3829.8892-10.5728z" fill-opacity=".314" fill-rule="evenodd"/>
<path d="m562.9193,139.9992v2.3659c0,2.2219 1.8223,4.0116 4.0926,4.0116l7.2331,8e-005v-1.1313h78.7353v1.1313h6.8374c2.2702,0 4.0987-1.7897 4.0987-4.0117v-2.3659h-100.9971z" fill="url(#linearGradient11549)" stroke="#000" stroke-width="1.9487"/>
<path d="m562.6589,75.1586h102.239c2.5011,0 4.5146,1.7714 4.5146,3.9717l-3.3438,60.0877c0,2.2003-1.6582,3.9718-4.1592,3.9718h-95.1239c-2.5011,0-5.3687-1.7715-5.3687-3.9718l-3.2726-60.0877c0-2.2003 2.0135-3.9717 4.5146-3.9717z" fill="#999" stroke="#000" stroke-width="1.9487"/>
<g transform="translate(-.4081,.688)">
<path d="m616.5679,100.868c-1.6979.1421-2.6271,1.1441-2.7207,2.8074-.0319.2411.0529.1695.1968.1577 1.8971-.3634 2.7739-1.3948 2.7467-2.83-.008-.1669-.0404-.1458-.2229-.135z" fill="#fff"/>
<g fill="#fff" transform="matrix(.30131,0,0,.25109,420.64808,-24.6951)">
<path d="m644.5994,515.9843c6.6465-2.7664 8.4769,11.0201 10.3737,15.537 .4276,1.0853.4953,1.5146-.031,2.1544-8.6365,10.7108.4174,15.7418 5.2981,16.5639 1.2156.2265 1.3109.8645 1.0276,1.7981-.1121.4608-.3781.8481-.6155,1.2512-2.717,4.4892-6.4132,8.3035-12.1299,7.147-1.5348-.5505-2.9122-1.2534-4.5347-1.6044-1.6707-.2593-3.521-.096-4.9524.4186-1.0096.3978-1.9211.9011-2.9658,1.2349-2.8678.8024-5.5041-.1732-7.2158-1.3409-1.2107-.899-1.8216-1.7977-2.4748-2.8966-2.9469-4.073-3.9701-9.4689-2.4012-13.6815 .4463-1.0461.8196-2.1106 1.3371-3.0915 3.9256-7.44 7.1943-14.2437 10.1555-21.4836 .647-1.6471 2.1307-2.0459 3.6677-2.0514 1.8075-.0679 2.8668,1.7804 5.4612.0446v5e-005 3e-005 5e-005h-2e-005z" fill="#fff"/>
</g>
</g>
</g>
</svg>
