<?xml version="1.0" encoding="UTF-8" standalone="no"?>
<!DOCTYPE svg PUBLIC "-//W3C//DTD SVG 20010904//EN" "http://www.w3.org/TR/2001/REC-SVG-20010904/DTD/svg10.dtd">
<svg viewBox="0 0 437.5 437.5" xmlns="http://www.w3.org/2000/svg" xmlns:xlink="http://www.w3.org/1999/xlink">
<defs>
<linearGradient>
<stop offset="0" stop-color="#0c6700"/>
<stop offset="1" stop-color="#a7daaf"/>
</linearGradient>
<linearGradient>
<stop offset="0" stop-opacity=".7294"/>
<stop offset="1" stop-opacity="0"/>
</linearGradient>
<linearGradient x2="1" y2="1">
<stop offset="0" stop-color="#f0ff00"/>
<stop offset="1" stop-color="#176f00"/>
</linearGradient>
<linearGradient x1=".51104" x2=".88013" xlink:href="#linearGradient842" y1=".60527" y2=".80702"/>
<radialGradient cx=".5" cy=".5" r=".5" xlink:href="#linearGradient48"/>
<radialGradient cx=".56782" cy=".63158" fx=".54574" fy=".81579" r=".30972" xlink:href="#linearGradient842"/>
<radialGradient cx=".41445" cy=".47657" fx=".3346" fy=".60938" r=".45242" xlink:href="#linearGradient842"/>
<radialGradient cx=".74737" cy=".14833" fx=".57895" fy=".26563" r=".70696" xlink:href="#linearGradient48"/>
</defs>
<path d="m101.5127,420.188-19.50251-380.30427 326.87741,1.01742c-.0154,20.06069 5.6974,359.95185 5.8924,376.58535-103.0647-20.4945-303.9224,2.5683-313.2673,2.7015z" fill="#040565" fill-opacity=".3977" fill-rule="evenodd"/>
<path d="m54.37216,394.6536c-5.84601-126.1134-7.76383-324.90171-17.53832-378.34012 106.34026,15.39791 257.75586-13.08934 324.91326-.94677-20.0244,58.67298 3.7332,359.95189 3.9282,376.58539-103.0647-20.4945-310.87037,12.0374-311.30314,2.7015z" fill="#ffffeb" fill-rule="evenodd" stroke="#99be99" stroke-width="15.89208"/>
<path d="m75.97822,367.155c-15.26627-68.1131-14.04851-323.14201-13.57956-332.14642 100.65874,18.2771 242.64434-3.34053 260.57204-2.98164l-.5074,24.58771c-.0154,20.06069-73.6498,143.70385-73.4548,160.33725-103.0647-20.4945-163.68534,150.0699-173.03028,150.2031z" fill="#b2d385" fill-opacity=".4327" fill-rule="evenodd"/>
<path d="m349.3183,261.8751c8.0709-4.5849 19.8036-20.3542 4.9422-25.4428-62.4925-11.7295-251.607,70.3867-266.88999,81.4168-22.04497,12.4267-40.46896,34.7771-27.18326,40.7083 9.98346,7.2704 34.52306,14.5183 58.07325-16.5378 13.6586-15.6075 51.4627-72.1296 55.6022-89.0495 12.5774-31.4548 43.2009-157.22359 46.9529-175.55461 2.3977-13.22514 5.0694-42.85985-8.6493-53.4297-6.8483-3.90049-13.2187,2.41627-17.2984,10.17708-15.468,44.47251 23.0105,103.15313 29.6545,111.94793 12.7289,20.9062 61.4389,87.4124 80.3141,109.4037 13.7657,12.6509 34.3412,16.1719 44.4818,6.3606z" fill="none" stroke="#f00" stroke-width="16.7105"/>
</svg>
