<?xml version="1.0" encoding="UTF-8" standalone="no"?>
<!-- Created with Inkscape (http://www.inkscape.org/) -->

<svg
   width="24"
   height="24"
   viewBox="0 0 24 24"
   version="1.1"
   id="svg5"
   inkscape:version="1.1.1 (3bf5ae0d25, 2021-09-20)"
   sodipodi:docname="acid_red.svg"
   xmlns:inkscape="http://www.inkscape.org/namespaces/inkscape"
   xmlns:sodipodi="http://sodipodi.sourceforge.net/DTD/sodipodi-0.dtd"
   xmlns="http://www.w3.org/2000/svg"
   xmlns:svg="http://www.w3.org/2000/svg">
  <sodipodi:namedview
     id="namedview7"
     pagecolor="#ffffff"
     bordercolor="#666666"
     borderopacity="1.0"
     inkscape:pageshadow="2"
     inkscape:pageopacity="0.0"
     inkscape:pagecheckerboard="0"
     inkscape:document-units="mm"
     showgrid="false"
     inkscape:zoom="0.65512531"
     inkscape:cx="-337.34004"
     inkscape:cy="335.05041"
     inkscape:window-width="1366"
     inkscape:window-height="705"
     inkscape:window-x="-8"
     inkscape:window-y="-8"
     inkscape:window-maximized="1"
     inkscape:current-layer="g6430" />
  <defs
     id="defs2" />
  <g
     inkscape:label="Capa 1"
     inkscape:groupmode="layer"
     id="layer1"
     transform="translate(15.946791,28.864379)">
    <g
       id="g4409"
       transform="matrix(0.12812239,0,0,0.12708914,-207.56124,-4.2074214)">
      <g
         id="g6430"
         transform="matrix(0.12615862,0,0,1,-1025.138,-413.11695)">
        <g
           id="g7399"
           transform="matrix(0.12598341,0,0,0.12598425,18341.582,153.89667)">
          <path
             style="fill:#f6a49f;stroke-width:5.83764"
             d="m 15972.371,1647.2493 c -1613.826,-205.2533 -2934.229,-374.5821 -2934.229,-376.2861 0,-4.0509 5860.967,-749.47394 5892.818,-749.47394 31.851,0 5892.818,745.42304 5892.818,749.47394 0,4.0509 -5860.967,749.474 -5892.818,749.474 -13.398,0 -1344.763,-167.9346 -2958.589,-373.1879 z m 5418.002,-61.4003 c 1348.198,-171.4668 2451.269,-313.1685 2451.269,-314.8927 0,-1.7242 -1104.931,-143.6531 -2455.402,-315.39756 l -2455.402,-312.26267 -2467.543,313.83271 -2467.543,313.83272 2463.491,313.3226 c 1354.921,172.3274 2467.175,313.3226 2471.676,313.3226 4.502,0 1111.256,-140.291 2459.454,-311.7577 z m -1062.317,-196.1166 c -90.132,-1.0718 -151.603,-3.0172 -189.524,-5.9979 -54.203,-4.2606 -94.484,-11.9617 -94.484,-18.0638 0,-1.6681 -28.062,-3.9057 -64.732,-5.1615 -83.567,-2.862 -159.269,-11.0327 -172.339,-18.6011 -8.532,-4.9406 -22.597,-6.3652 -81.454,-8.2501 -72.391,-2.3184 -143.371,-10.5651 -164.782,-19.1452 -32.668,-13.0906 51.648,-27.8384 183.501,-32.0964 68.42,-2.2095 79.504,-3.3414 88.697,-9.0582 21.464,-13.3476 104.343,-19.05 276.874,-19.05 h 118.11 l -8.447,-5.6198 c -20.114,-13.382 61.346,-21.4445 216.666,-21.4445 45.174,0 114.269,-1.0931 153.543,-2.4291 66.323,-2.2561 75.375,-2.052 127.095,2.8652 30.627,2.9118 84.037,6.4502 118.688,7.8631 90.95,3.7085 251.016,1.877 337.602,-3.863 94.254,-6.2483 131.031,-5.1989 333.658,9.5205 161.136,11.7055 163.89,11.8149 352.46,14.014 l 190.055,2.2164 v 9.3685 9.3684 l -98.214,0.6471 c -54.017,0.356 -155.691,-0.3333 -225.942,-1.5317 -110.399,-1.8833 -148.573,-3.7609 -281.365,-13.8395 -109.896,-8.3408 -163.241,-11.2729 -187.373,-10.2987 -50.602,2.0426 -40.75,4.6143 23.554,6.1486 60.642,1.4469 77.812,6.3731 28.645,8.2185 -15.755,0.5913 -96.781,3.0746 -180.058,5.5184 -83.277,2.4438 -151.413,5.258 -151.413,6.2537 0,4.973 44.183,12.9758 92.688,16.7885 29.881,2.3487 100.435,5.8476 156.787,7.7753 94.529,3.2337 102.83,3.9867 107.271,9.7311 2.647,3.4244 -5.629,8.0412 -18.393,10.2596 -21.68,3.7682 -29.53,3.8545 -119.395,1.3125 -200.992,-5.6855 -351.409,-20.9576 -378.568,-38.4366 l -13.28,-8.5468 -367.793,-0.5878 c -370.586,-0.5923 -441.453,0.01 -441.453,3.7503 0,1.2585 111.808,2.0422 291.367,2.0422 317.224,0 330.653,0.465 330.653,11.4503 0,3.5496 -8.84,7.578 -19.643,8.952 -14.265,1.8143 -135.583,2.4983 -443.162,2.4983 -394.537,0 -423.142,0.2493 -418.01,3.6432 5.048,3.3381 40.343,3.69 421.369,4.2003 273.295,0.366 423.331,1.3455 437.653,2.8572 27.141,2.8648 28.549,14.6716 2.15,18.0291 -13.806,1.756 -106.216,2.4982 -311.01,2.4982 -183.332,0 -291.367,0.772 -291.367,2.0819 0,1.3237 128.865,2.0819 353.858,2.0819 h 353.858 l 65.519,8.3329 c 104.436,13.2827 82.257,14.5677 -251.433,14.5677 -164.524,0 -276.268,0.8039 -276.268,1.9875 0,3.9827 132.475,5.081 613.835,5.0887 535.824,0.01 571.2,-0.601 821.815,-14.1619 117.463,-6.356 328.166,-10.5044 360.451,-7.0967 26.798,2.8287 27.068,15.1301 0.391,17.8091 -11.254,1.1301 -62.148,2.5736 -113.098,3.2078 -50.951,0.6342 -157.758,4.4774 -237.35,8.5404 -79.592,4.063 -177.86,8.4631 -218.373,9.778 -87.694,2.8463 -943.032,4.3572 -1140.089,2.0139 z m 340.39,-139.6469 c -37.251,-3.9472 -117.791,-4.1841 -198.806,-0.5849 -44.032,1.9562 33.318,4.509 139.136,4.5921 l 98.214,0.077 z m -5606.959,109.197 c -19.57,-6.4864 -11.064,-72.7737 9.677,-75.4117 14.58,-1.8543 182.289,-2.5152 650.666,-2.564 l 631.022,-0.066 -49.107,-5.4435 c -74.248,-8.2306 -106.171,-15.4581 -106.29,-24.0655 -0.1,-6.7981 -8.319,-8.4402 -65.117,-13.0004 -88.471,-7.1031 -121.394,-15.694 -108.29,-28.2573 9.336,-8.9509 5.27,-10.7011 -43.97,-18.9268 -29.842,-4.9851 -59.618,-10.1782 -66.169,-11.5402 -12.41,-2.5802 64.574,-13.1377 95.798,-13.1377 22.3,0 128.089,14.0586 156.659,20.8187 12.098,2.8626 25.973,10.8258 30.833,17.6959 l 8.837,12.4913 22.586,-11.4503 c 25.612,-12.9847 37.306,-14.4966 112.467,-14.5413 67.913,-0.04 79.859,3.6328 56.798,17.4637 -17.607,10.5596 -17.429,10.6392 37.809,16.8554 68.99,7.7637 93.184,15.872 80.213,26.8816 -8.249,7.001 -2.55,9.9111 32.133,16.4097 54.951,10.2962 53.248,14.9736 -7.104,19.5078 -27.095,2.0356 -46.907,4.6003 -44.026,5.6994 9.904,3.779 118.032,7.1733 233.547,7.3314 146.218,0.2001 263.297,-4.1911 358.712,-13.4542 l 74.761,-7.258 592.965,0.5464 592.966,0.5464 v 39.5556 39.5555 l -1639.205,0.5305 c -1484.164,0.4803 -1640.147,0.218 -1649.171,-2.7726 z m 1843.901,-80.5123 c -50.629,-8.1323 -52.636,-11.2734 -11.708,-18.3289 32.295,-5.5672 40.291,-9.4387 40.377,-19.5492 0.115,-13.0484 18.426,-18.4255 95.28,-27.9739 24.174,-3.0035 34.217,-6.0056 27.483,-8.2154 -5.837,-1.9153 -14.681,-7.8056 -19.653,-13.0897 -10.593,-11.2578 4.805,-13.2627 86.827,-11.3057 66.463,1.5858 84.1,5.9112 99.244,24.3386 13.643,16.6023 38.076,15.4085 38.151,-1.8641 0.07,-14.9458 25.28,-22.744 111.069,-34.3509 51.555,-6.9752 69.324,-7.1151 115.182,-0.9067 46.531,6.2994 45.039,8.4342 -13.13,18.7827 -43.049,7.6589 -48.489,10.273 -46.727,22.457 2.23,15.424 -14.274,19.8378 -102.404,27.3866 -43.744,3.747 -57.782,6.5935 -64.698,13.119 -17.854,16.8488 -132.56,31.968 -221.093,29.1419 -20.986,-0.6699 -42.726,-0.2777 -48.31,0.8716 -14.193,2.9206 -66.457,2.6086 -85.89,-0.5129 z m -231.429,-38.2662 c -48.264,-4.2996 -83.818,-15.008 -83.548,-25.164 0.114,-4.3306 19.048,-15.3686 42.074,-24.5289 72.767,-28.948 76.326,-34.3025 30.462,-45.8245 -51.254,-12.8762 -50.366,-16.3296 9.099,-35.3685 27.009,-8.6473 49.107,-18.7447 49.107,-22.4387 0,-3.6939 -25.556,-25.3526 -56.792,-48.1303 -31.236,-22.7777 -52.899,-42.21523 -48.141,-43.19446 16.293,-3.35296 44.04,-1.77348 115.014,6.54706 39.068,4.5801 86.776,8.3275 106.017,8.3275 19.242,0 343.074,-6.9914 719.627,-15.53653 941.497,-21.36532 935.824,-21.27326 1049.707,-17.03565 51.168,1.90398 116.669,5.99129 145.557,9.0829 60.849,6.5119 112.623,19.70298 112.623,28.69398 0,14.2941 -99.995,31.1892 -223.581,37.776 -28.834,1.5368 -419.233,10.7716 -867.553,20.5218 -448.321,9.7501 -832.506,18.6826 -853.746,19.8499 -30.388,1.67 -36.14,3.1081 -26.99,6.7475 75.997,30.2288 72.636,39.901 -17.63,50.7284 -30.744,3.6878 -55.889,8.4074 -55.877,10.4881 0.01,2.0807 18.427,13.4454 40.922,25.2549 46.969,24.6572 51.041,35.5745 16.442,44.0842 -48.024,11.8113 -130.792,15.5333 -202.793,9.1193 z m 1094.806,-196.4138 c 400.63,-4.668 756.463,-9.4533 790.74,-10.6341 34.277,-1.1807 76.631,-3.9668 94.121,-6.1912 34.188,-4.3482 41.889,-14.4119 15.777,-20.6173 -18.874,-4.4852 -98.774,-8.40963 -171.217,-8.40963 -58.367,0 -1646.388,34.73693 -1658.512,36.27893 -4.335,0.5513 -2.712,5.387 3.606,10.7459 l 11.488,9.7435 92.79,-1.2145 c 51.034,-0.6679 420.578,-5.0336 821.207,-9.7016 z m 3236.656,170.8557 c -65.179,-9.8519 -67.924,-19.7547 -11.89,-42.9065 58.666,-24.2397 59.128,-25.393 12.682,-31.6809 -49.563,-6.7099 -61.948,-30.0257 -21.265,-40.0316 18.538,-4.5595 22.227,-7.4913 11.192,-8.8948 -9.053,-1.1514 -412.969,-10.4033 -897.592,-20.5598 -937.791,-19.6537 -996.524,-21.514 -1085.303,-34.374 -134.306,-19.4548 -85.127,-49.29351 101.165,-61.38098 133.831,-8.68359 198.5,-7.92467 1085.143,12.73479 450.146,10.48872 842.52,19.08379 871.942,19.10009 38.879,0.022 71.781,-2.0714 120.417,-7.65989 105.298,-12.09909 109.897,-9.27624 58.501,35.90949 -53.412,46.958 -54.448,54.0845 -9.457,65.0626 44.489,10.8558 37.18,28.3526 -15.641,37.4392 -44.901,7.7241 -44.513,9.346 7.747,32.3577 50.877,22.4028 45.084,34.6806 -21.081,44.6815 -57.897,8.751 -149.412,8.841 -206.56,0.2032 z m 62.36,-172.4682 c 19.758,-11.9298 20.514,-13.0304 9.544,-13.8927 -8.831,-0.6941 -1097.957,-25.0374 -1648.838,-36.85349 -178.607,-3.831 -317.469,4.73385 -317.469,19.58109 0,10.968 55.586,16.1272 199.374,18.5053 157.348,2.6023 1551.84,17.8177 1662.281,18.1373 80.83,0.2338 86.156,-0.073 95.108,-5.4775 z m -541.244,169.8697 c -71.845,-8.0228 -122.337,-20.0858 -122.476,-29.2603 -0.08,-5.3773 -10.332,-7.5892 -47.702,-10.293 -77.168,-5.5833 -107.465,-13.4182 -107.589,-27.8229 -0.08,-10.4158 -8.368,-14.3429 -45.125,-21.4074 -55.409,-10.6495 -56.174,-13.5778 -4.668,-17.87 54.146,-4.5123 78.575,-4.2401 118.642,1.322 63.122,8.7623 102.914,21.6763 102.914,33.399 0,10.5123 3.868,11.5801 64.324,17.7592 35.378,3.616 69.022,8.457 74.763,10.7578 14.743,5.9075 40.972,5.2003 40.972,-1.1047 0,-3.4907 -23.026,-8.0739 -67.747,-13.4845 l -67.747,-8.1966 8.34,-13.2137 c 11.65,-18.4601 30.803,-22.2732 111.875,-22.2732 80.27,0 93.738,3.3004 66.441,16.2811 -19.571,9.3065 -19.215,9.4637 38.438,16.973 65.275,8.502 93.717,18.2815 79.487,27.3308 -7.036,4.4742 1.77,8.2487 33.448,14.3369 50.518,9.7089 53.153,12.8443 14.353,17.0821 -51.505,5.6257 -65.185,5.8408 -106.785,1.6791 l -41.064,-4.1083 -11.469,7.7752 c -10.518,7.1311 -31.093,10.7938 -61.093,10.8755 -6.439,0.017 -38.178,-2.9241 -70.532,-6.5371 z m 84.799,-26.2205 c -15.742,-6.4925 -19.829,-6.999 -24.277,-3.0082 -4.388,3.9362 20.137,10.8152 38.558,10.8152 2.557,0 -3.87,-3.5131 -14.281,-7.807 z m 922.285,16.2701 c 0,-1.0705 -7.616,-4.4942 -16.925,-7.6083 l -16.926,-5.6619 -45.353,5.5264 c -57.69,7.0295 -72.236,6.938 -123.269,-0.7756 -38.312,-5.7909 -43.116,-12.4349 -8.992,-12.4349 28.591,0 64.145,-12.5609 64.145,-22.6617 0,-13.1721 17.954,-19.0865 80.579,-26.5444 l 50.077,-5.9635 -27.219,-10.8059 c -22.418,-8.9004 -23.482,-11.3785 -6.032,-14.0527 49.623,-7.6045 146.293,-1.6017 179.024,11.1166 36.486,14.1778 10.363,27.5264 -67.431,34.4566 -28.686,2.5554 -37.117,5.4309 -38.522,13.1381 -0.988,5.4266 -6.981,13.1456 -13.316,17.1532 l -11.519,7.2865 41.762,-5.8412 c 28.423,-3.9756 41.762,-8.2193 41.762,-13.2865 0,-9.2799 47.123,-19.2231 115.294,-24.3272 49.914,-3.7373 51.649,-4.3114 41.739,-13.8123 -12.48,-11.9661 4.731,-18.3037 82.481,-30.3714 67.877,-10.5353 112.939,-11.6494 168.259,-4.1602 41.801,5.6592 34.373,9.1286 -37.969,17.7348 -38.283,4.5543 -42.425,6.5566 -42.425,20.5064 0,16.3123 -8.635,18.2808 -137.116,31.2596 -14.615,1.4764 -26.574,5.1622 -26.574,8.1906 0,8.2944 -62.113,22.9378 -121.895,28.7371 -52.621,5.1047 -123.639,6.9438 -123.639,3.2018 z"
             id="path7413" />
          <path
             style="fill:#f3847d;stroke-width:5.83764"
             d="m 15980.402,1646.2134 -2942.339,-374.2237 2946.403,-374.73625 2946.403,-374.73625 2942.413,374.22877 2942.414,374.22883 -2946.364,374.7312 c -1620.5,206.1021 -2946.415,374.7312 -2946.477,374.7312 -0.07,0 -1324.166,-168.4007 -2942.453,-374.2238 z m 5430.459,-60.8884 2471.676,-314.3635 -2475.789,-314.88144 -2475.788,-314.88144 -2474.786,314.75394 -2474.786,314.75394 2462.509,314.3422 c 1354.38,172.8882 2469.885,314.4092 2478.899,314.491 9.014,0.082 1128.643,-141.3147 2488.065,-314.2147 z m -1055.803,-195.6922 c -76.525,-0.7807 -157.551,-2.4065 -180.059,-3.6131 -55.873,-2.9951 -113.694,-11.2757 -128.758,-18.4399 -9.402,-4.4709 -25.281,-6.2721 -64.223,-7.2851 -79.5,-2.0679 -135.571,-7.7452 -164.955,-16.7022 -21.808,-6.6478 -38.519,-8.5584 -90.704,-10.3709 -115.712,-4.0189 -190.832,-17.7392 -166.004,-30.3203 17.698,-8.9685 106.68,-18.7178 186.491,-20.4327 43.475,-0.9342 73.591,-2.8225 78.895,-4.9468 45.249,-18.1215 107.023,-23.093 287.875,-23.1678 l 110.49,-0.046 v -9.3204 c 0,-11.8897 40.802,-15.6699 183.566,-17.0072 56.59,-0.53 134.242,-1.9729 172.56,-3.2063 63.198,-2.0342 75.362,-1.7544 130.952,3.0126 33.705,2.8904 89.946,6.4091 124.981,7.8194 92.526,3.7247 271.553,1.628 347.48,-4.0696 82.602,-6.1985 127.545,-4.8339 317.334,9.635 l 155.409,11.848 196.428,2.2168 196.427,2.2168 v 9.3573 9.3573 l -90.029,0.6509 c -49.516,0.358 -148.54,-0.349 -220.054,-1.5711 -111.282,-1.9016 -153.288,-3.9118 -291.42,-13.9462 -150.075,-10.9019 -164.493,-11.5357 -205.539,-9.036 l -44.143,2.6882 54.716,1.5357 c 57.336,1.6092 97.202,5.2146 80.768,7.3047 -5.309,0.6753 -84.692,3.433 -176.406,6.1282 -91.714,2.6952 -171.067,5.449 -176.34,6.1196 -5.272,0.6706 2.505,4.4441 17.284,8.3855 30.869,8.2332 93.385,12.9791 232.716,17.6665 86.514,2.9105 98.821,3.9689 103.315,8.8844 2.806,3.0691 -3.274,7.5706 -13.511,10.0033 -16.156,3.8395 -27.63,4.2324 -86.946,2.9772 -226.966,-4.803 -385.121,-20.4628 -419.583,-41.5453 l -10.21,-6.2456 h -399.003 c -304.653,0 -400.617,0.6153 -405.825,2.6023 -5.279,2.0144 56.597,2.6024 273.892,2.6024 162.199,0 294.079,0.9098 312.374,2.1551 21.855,1.4876 31.662,4.3667 31.662,9.2952 0,4.9284 -9.807,7.8076 -31.662,9.2952 -19.417,1.3216 -190.807,2.1551 -443.162,2.1551 -383.086,0 -411.12,0.2515 -406.001,3.6432 5.015,3.3232 42.152,3.7348 422.701,4.6843 229.46,0.5725 426.409,1.7988 437.663,2.7252 33.354,2.7455 25.409,15.5283 -11.201,18.0202 -18.39,1.2518 -152.594,2.1551 -320.16,2.1551 -188.165,0 -284.981,0.7241 -278.382,2.0819 6.219,1.2799 141.227,2.0819 350.477,2.0819 326.03,0 342.638,0.1971 394.445,4.6842 66.394,5.7504 90.137,10.3384 76.643,14.8106 -8.957,2.9687 -46.057,3.4058 -289.061,3.4058 -253.161,0 -325.532,1.4368 -252.328,5.0095 14.551,0.7102 215.31,1.8919 446.13,2.626 528.27,1.68 679.452,-0.3518 910.587,-12.238 140.518,-7.2262 182.227,-8.454 294.641,-8.6737 l 130.952,-0.256 5.209,6.9021 c 7.275,9.6391 -20.006,12.8634 -109.519,12.9437 -73.125,0.066 -138.042,2.5123 -329.467,12.4176 -150.041,7.7639 -348.384,10.4166 -752.971,10.0704 -202.566,-0.1732 -430.913,-0.9538 -507.437,-1.7344 z m 343.747,-137.0723 c 0,-3.6019 -77.287,-6.0242 -159.97,-5.0138 -82.184,1.0044 -108.317,3.165 -65.103,5.3828 34.885,1.7903 225.073,1.4785 225.073,-0.369 z m -5637.318,106.722 c -17.1,-5.6679 -11.062,-69.5956 6.979,-73.883 16.304,-3.8745 40.857,-4.0269 648.813,-4.0269 h 631.869 l -75.901,-10.3202 c -64.31,-8.7443 -75.9,-11.6014 -75.9,-18.7107 0,-7.5149 -6.784,-8.9353 -65.009,-13.6101 -86.872,-6.9747 -121.191,-15.6767 -107.528,-27.2649 11.558,-9.8021 -11.402,-17.7297 -71.321,-24.6264 -44.607,-5.1343 -43.552,-9.8255 3.471,-15.4441 51.454,-6.1478 63.838,-5.8007 131.158,3.6765 89.056,12.5371 114.058,20.0653 105.27,31.6972 -9.719,12.8634 9.922,12.9564 37.11,0.1757 28.601,-13.445 43.731,-15.4144 112.769,-14.6783 48.181,0.5136 59.708,1.5414 64.365,5.7389 3.12,2.8122 -3.19,8.8754 -14.023,13.4737 -19.415,8.2421 -18.858,8.4499 39.322,14.6646 67.789,7.2412 92.753,15.9743 80.062,28.0082 -7.309,6.9301 -1.254,9.6948 34.163,15.6005 23.675,3.9478 43.046,8.4823 43.046,10.0766 0,3.2465 -60.709,10.9169 -97.879,12.3669 -17.618,0.6873 -11.565,1.9993 22.206,4.8136 32.523,2.7104 86.788,4.1383 181.219,4.7687 165.198,1.1027 279.361,-2.6755 393.96,-13.038 l 81.486,-7.3684 h 575.054 c 469.135,0 578.508,0.5295 593.811,2.8747 12.946,1.9839 17.372,14.4031 14.282,40.0761 l -4.478,37.2012 -1639.205,0.5305 c -1484.164,0.4803 -1640.147,0.218 -1649.171,-2.7726 z m 1833.423,-83.0414 c -35.323,-6.8564 -33.323,-12.1675 6.302,-16.7282 26.683,-3.0713 32.737,-6.4121 32.737,-18.0651 0,-13.7745 2.381,-14.6254 65.159,-23.2874 l 65.158,-8.9904 -19.453,-11.7953 c -16.723,-10.1404 -15.869,-12.251 6.088,-15.0437 19.548,-2.4861 38.389,-2.8249 80.293,-1.4439 48.318,1.5924 57.22,3.0155 75.758,12.1099 11.554,5.6679 21.149,13.3501 21.323,17.0715 0.173,3.7213 7.681,6.766 16.684,6.766 9.251,0 16.369,-5.9442 16.369,-13.669 0,-15.0427 10.403,-18.5677 93.289,-31.6117 64.461,-10.1443 83.579,-10.7234 133.023,-4.0295 46.422,6.2846 45.07,8.1265 -13.516,18.4125 -43.35,7.6111 -49.106,10.3181 -49.106,23.0908 0,15.1786 -10.352,17.4639 -137.116,30.2691 -14.77,1.492 -26.574,5.6995 -26.574,9.4722 0,13.9896 -136.797,32.3541 -220.986,29.6667 -21.401,-0.6831 -43.48,-0.3018 -49.064,0.8475 -18.414,3.7894 -69.479,2.1775 -96.368,-3.042 z m -220.951,-35.7371 c -89.299,-7.9551 -105.27,-25.3051 -44.286,-48.1094 21.709,-8.1179 47.812,-19.8696 58.006,-26.115 16.905,-10.3565 15.368,-12.0378 -17.478,-19.1181 -49.011,-10.5647 -47.065,-22.1961 6.513,-38.9394 24.442,-7.638 44.439,-16.8626 44.439,-20.4993 0,-5.7922 -84.158,-74.2156 -106.918,-86.9282 -15.186,-8.4821 36.164,-7.86947 114.992,1.3719 44.16,5.177 88.915,8.5627 113.191,8.5627 22.083,0 348.194,-6.9882 724.691,-15.52933 925.955,-21.00603 904.254,-20.62334 1010.446,-17.81951 245.176,6.47347 357.835,35.65034 227.739,58.98094 -94.674,16.9783 -122.904,18.0104 -1035.214,37.8473 -453.925,9.8699 -838.8,18.863 -855.277,19.9846 -35.941,2.4463 -36.852,4.0924 -7.255,13.1015 61.117,18.6038 44.625,37.4606 -39.697,45.3896 -58.844,5.5331 -59.264,7.4629 -7.541,34.6162 46.969,24.6572 51.041,35.5745 16.442,44.0842 -48.024,11.8113 -130.792,15.5333 -202.793,9.1193 z m 1111.175,-196.4427 c 391.627,-4.6013 740.094,-9.3529 774.371,-10.559 88.887,-3.1278 125.921,-8.6099 125.921,-18.64 0,-7.1955 -7.4,-8.9319 -53.199,-12.4834 -31.644,-2.45387 -82.328,-4.12852 -125.09,-4.13315 -39.54,-0.004 -393.109,7.04985 -785.709,15.67595 -968.605,21.2817 -885.737,18.8877 -885.469,25.5808 0.131,3.0677 4.917,7.8078 10.653,10.5335 10.018,4.7611 14.677,4.9056 118.451,3.6737 59.412,-0.7053 428.444,-5.0471 820.071,-9.6484 z m 3228.533,172.2528 c -19.027,-2.5763 -41.807,-8.7683 -50.623,-13.7599 -13.675,-7.7428 -9.041,-12.0233 31.553,-29.1462 26.171,-11.0388 47.667,-21.6684 47.77,-23.6214 0.1,-1.9529 -18.229,-7.0021 -40.736,-11.2203 -49.365,-9.2518 -56.775,-28.379 -14.976,-38.6592 17.849,-4.3898 20.669,-7.0526 9.039,-8.5318 -9.3,-1.1827 -421.5,-10.7541 -916.001,-21.2696 -798.083,-16.9712 -907.64,-19.7563 -975.172,-24.7898 -136.196,-10.1514 -194.925,-26.8147 -156.317,-44.3524 45.421,-20.63328 224.767,-33.82841 423.586,-31.16495 50.138,0.67168 454.316,9.64594 898.172,19.9428 555.591,12.88895 818.224,18.17045 843,16.95275 19.794,-0.9728 53.847,-4.2103 75.673,-7.19431 50.03,-6.84026 99.632,-7.21177 98.98,-0.74135 -0.26,2.57636 -21.597,22.82786 -47.416,45.00356 -48.058,41.277 -47.819,43.2909 7.075,59.5511 36.615,10.8459 25.617,26.2061 -24.998,34.9133 -41.476,7.135 -40.381,8.7775 26.322,39.475 26.223,12.0679 27.568,15.3048 9.951,23.9415 -24.795,12.1555 -83.108,19.3554 -156.764,19.3554 -34.345,0 -65.921,-1.6786 -88.118,-4.6842 z m 63.952,-177.4796 c 6.028,-4.5801 6.07,-8.9907 0.1,-9.8012 -5.975,-0.8105 -402.295,-10.1217 -880.709,-20.6915 -803.241,-17.74632 -875.14,-19.01608 -938.994,-16.58291 -94.957,3.61838 -146.992,10.66891 -146.992,19.91661 0,9.8951 42.823,14.8677 149.948,17.4119 128.998,3.0637 1575.727,18.6928 1699.519,18.36 l 106.175,-0.2854 10.959,-8.3275 z m -523.342,175.8298 c -69.813,-5.3998 -136.135,-18.8915 -145.652,-29.6297 -6.289,-7.0962 -17.576,-9.6779 -53.91,-12.33 -75.069,-5.4796 -101.038,-12.566 -104.176,-28.4282 -2.386,-12.0596 -9.871,-15.4962 -47.371,-21.7493 -54.087,-9.0188 -55.091,-11.1219 -7.707,-16.1493 53.346,-5.6601 87.059,-4.9461 133.704,2.8319 61.955,10.3308 91.298,20.8979 91.999,33.131 0.578,10.0898 4.966,11.3401 53.199,15.1605 28.913,2.29 63.618,7.1882 77.122,10.8848 30.911,8.4612 49.107,8.6399 49.107,0.4821 0,-4.7115 -17.323,-8.4248 -67.78,-14.5296 -67.29,-8.1411 -67.716,-8.2876 -58.853,-20.2148 4.91,-6.6079 16.814,-14.5907 26.453,-17.7395 15.116,-4.9383 26.65,-5.7251 83.919,-5.7251 81.291,0 91.791,2.6462 65.598,16.5327 l -19.495,10.3355 58.342,6.5149 c 65.3,7.292 94.135,17.3603 80.446,28.089 -7.228,5.6648 -0.1,8.6851 33.875,14.3499 50.837,8.477 53.511,11.8466 13.094,16.4986 -37.607,4.3286 -81.976,4.3983 -118.569,0.1863 -26.298,-3.0269 -29.1,-2.6679 -39.341,5.0416 -13.398,10.0858 -37.631,11.5902 -104.004,6.4566 z m 77.374,-23.2111 c -10.559,-2.5095 -24.918,-6.9595 -31.907,-9.8889 l -12.707,-5.3263 -1.408,5.862 c -1.583,6.5961 24.113,13.9158 48.852,13.9158 10.052,0 8.959,-1.7609 -2.83,-4.5626 z m 902.546,8.8632 c -9.32,-2.2148 -16.945,-5.4937 -16.945,-7.2865 0,-4.1648 -22.754,-4.1754 -49.848,-0.023 -45.622,6.9913 -81.779,7.8179 -123.57,2.8246 -48.977,-5.852 -49.618,-9.6111 -2.721,-15.9601 29.29,-3.9654 38.581,-8.2924 46.23,-21.5313 8.977,-15.5395 13.282,-17.0518 69.299,-24.3479 l 59.727,-7.7794 -23.818,-10.0653 c -31.547,-13.3318 -11.233,-18.9977 61.481,-17.148 68.921,1.7531 82.905,3.6396 108.407,14.6245 30.136,12.981 12.61,22.934 -56.266,31.9538 -48.981,6.4145 -56.211,8.7177 -56.406,17.9681 -0.131,5.8357 -4.751,12.9525 -10.285,15.8151 l -10.061,5.2047 37.058,-4.504 c 24.069,-2.9251 41.747,-8.3986 50.431,-15.614 11.631,-9.664 23.357,-12.2419 90.092,-19.8058 72.508,-8.2182 76.161,-9.1404 66.537,-16.795 -13.982,-11.1214 8.345,-19.5239 81.429,-30.6439 70.736,-10.7626 113.259,-11.8837 168.271,-4.4361 41.801,5.6592 34.373,9.1286 -37.969,17.7348 -37.314,4.439 -42.433,6.6965 -42.486,18.7368 -0.07,15.8515 -34.819,25.1027 -113.798,30.2971 -39.572,2.6027 -49.831,4.6311 -49.831,9.8532 0,9.2498 -59.192,23.7239 -121.895,29.8066 -63.831,6.1921 -100.326,6.5246 -123.063,1.1212 z"
             id="path7411" />
          <path
             style="fill:#a1a1a1;stroke-width:5.83764"
             d="m 15984.466,1645.1898 -2938.309,-374.2207 2938.389,-373.69545 2938.388,-373.69541 2942.215,374.20361 2942.216,374.20365 -2942.295,373.7125 -2942.294,373.7126 z m 5422.276,-57.259 c 1357.2,-172.6118 2467.638,-315.2449 2467.638,-316.9624 0,-4.0864 -4911.291,-628.73056 -4943.42,-628.73056 -13.527,0 -1136.845,141.46321 -2496.263,314.36269 l -2471.669,314.36267 2479.853,315.4036 c 1363.92,173.472 2483.537,315.4037 2488.038,315.4037 4.502,0 1118.622,-141.2279 2475.823,-313.8397 z m -1051.684,-198.298 c -76.525,-0.7807 -157.551,-2.4065 -180.059,-3.6131 -55.873,-2.9951 -113.694,-11.2757 -128.758,-18.4399 -9.402,-4.4709 -25.281,-6.2721 -64.223,-7.2851 -79.5,-2.0679 -135.571,-7.7452 -164.955,-16.7022 -21.808,-6.6478 -38.519,-8.5584 -90.704,-10.3709 -115.712,-4.0189 -190.832,-17.7392 -166.004,-30.3203 17.698,-8.9685 106.68,-18.7178 186.491,-20.4327 43.475,-0.9342 73.591,-2.8225 78.895,-4.9468 45.249,-18.1215 107.023,-23.093 287.875,-23.1678 l 110.49,-0.046 v -9.3204 c 0,-11.8897 40.802,-15.6699 183.566,-17.0072 56.59,-0.53 134.242,-1.9729 172.56,-3.2063 63.198,-2.0342 75.362,-1.7544 130.952,3.0126 33.705,2.8904 89.946,6.4091 124.981,7.8194 92.526,3.7247 271.553,1.628 347.48,-4.0696 82.602,-6.1985 127.545,-4.8339 317.334,9.635 l 155.409,11.848 196.428,2.2168 196.427,2.2168 v 9.3573 9.3573 l -90.029,0.6509 c -49.516,0.358 -148.54,-0.349 -220.054,-1.5711 -111.282,-1.9016 -153.288,-3.9118 -291.42,-13.9462 -150.075,-10.9019 -164.493,-11.5357 -205.539,-9.036 l -44.143,2.6882 54.716,1.5357 c 57.336,1.6092 97.202,5.2146 80.768,7.3047 -5.309,0.6753 -84.692,3.433 -176.406,6.1282 -91.714,2.6952 -171.067,5.449 -176.34,6.1196 -5.272,0.6706 2.505,4.4441 17.284,8.3855 30.869,8.2332 93.385,12.9791 232.716,17.6665 86.514,2.9105 98.821,3.9689 103.315,8.8844 2.806,3.0691 -3.274,7.5706 -13.511,10.0033 -16.156,3.8395 -27.63,4.2324 -86.946,2.9772 -226.966,-4.803 -385.121,-20.4628 -419.583,-41.5453 l -10.21,-6.2456 h -399.003 c -304.653,0 -400.617,0.6153 -405.825,2.6023 -5.279,2.0144 56.597,2.6024 273.892,2.6024 162.199,0 294.079,0.9098 312.374,2.1551 21.855,1.4876 31.662,4.3667 31.662,9.2952 0,4.9284 -9.807,7.8076 -31.662,9.2952 -19.417,1.3216 -190.807,2.1551 -443.162,2.1551 -383.086,0 -411.12,0.2515 -406.001,3.6432 5.015,3.3232 42.152,3.7348 422.701,4.6843 229.46,0.5725 426.409,1.7988 437.663,2.7252 33.354,2.7455 25.409,15.5283 -11.201,18.0202 -18.39,1.2518 -152.594,2.1551 -320.16,2.1551 -188.165,0 -284.981,0.7241 -278.382,2.0819 6.219,1.2799 141.227,2.0819 350.477,2.0819 326.03,0 342.638,0.1971 394.445,4.6842 66.394,5.7504 90.137,10.3384 76.643,14.8106 -8.957,2.9687 -46.057,3.4058 -289.061,3.4058 -253.161,0 -325.532,1.4368 -252.328,5.0095 14.551,0.7102 215.31,1.8919 446.13,2.626 528.27,1.68 679.452,-0.3518 910.587,-12.238 140.518,-7.2262 182.227,-8.454 294.641,-8.6737 l 130.952,-0.256 5.209,6.9021 c 7.275,9.6391 -20.006,12.8634 -109.519,12.9437 -73.125,0.066 -138.042,2.5123 -329.467,12.4176 -150.041,7.7639 -348.384,10.4166 -752.971,10.0704 -202.566,-0.1732 -430.913,-0.9538 -507.437,-1.7344 z m 343.747,-137.0723 c 0,-3.6019 -77.287,-6.0242 -159.97,-5.0138 -82.184,1.0044 -108.317,3.165 -65.103,5.3828 34.885,1.7903 225.073,1.4785 225.073,-0.369 z m -5637.318,106.722 c -17.1,-5.6679 -11.062,-69.5956 6.979,-73.883 16.304,-3.8745 40.857,-4.0269 648.813,-4.0269 h 631.869 l -75.901,-10.3202 c -64.31,-8.7443 -75.9,-11.6014 -75.9,-18.7107 0,-7.5149 -6.784,-8.9353 -65.009,-13.6101 -86.872,-6.9747 -121.191,-15.6767 -107.528,-27.2649 11.558,-9.8021 -11.402,-17.7297 -71.321,-24.6264 -44.607,-5.1343 -43.552,-9.8255 3.471,-15.4441 51.454,-6.1478 63.838,-5.8007 131.158,3.6765 89.056,12.5371 114.058,20.0653 105.27,31.6972 -9.719,12.8634 9.922,12.9564 37.11,0.1757 28.601,-13.445 43.731,-15.4144 112.769,-14.6783 48.181,0.5136 59.708,1.5414 64.365,5.7389 3.12,2.8122 -3.19,8.8754 -14.023,13.4737 -19.415,8.2421 -18.858,8.4499 39.322,14.6646 67.789,7.2412 92.753,15.9743 80.062,28.0082 -7.309,6.9301 -1.254,9.6948 34.163,15.6005 23.675,3.9478 43.046,8.4823 43.046,10.0766 0,3.2465 -60.709,10.9169 -97.879,12.3669 -17.618,0.6873 -11.565,1.9993 22.206,4.8136 32.523,2.7104 86.788,4.1383 181.219,4.7687 165.198,1.1027 279.361,-2.6755 393.96,-13.038 l 81.486,-7.3684 h 575.054 c 469.135,0 578.508,0.5295 593.811,2.8747 12.946,1.9839 17.372,14.4031 14.282,40.0761 l -4.478,37.2012 -1639.205,0.5305 c -1484.164,0.4803 -1640.147,0.218 -1649.171,-2.7726 z m 1833.423,-83.0414 c -35.323,-6.8564 -33.323,-12.1675 6.302,-16.7282 26.683,-3.0713 32.737,-6.4121 32.737,-18.0651 0,-13.7745 2.381,-14.6254 65.159,-23.2874 l 65.158,-8.9904 -19.453,-11.7953 c -16.723,-10.1404 -15.869,-12.251 6.088,-15.0437 19.548,-2.4861 38.389,-2.8249 80.293,-1.4439 48.318,1.5924 57.22,3.0155 75.758,12.1099 11.554,5.6679 21.149,13.3501 21.323,17.0715 0.173,3.7213 7.681,6.766 16.684,6.766 9.251,0 16.369,-5.9442 16.369,-13.669 0,-15.0427 10.403,-18.5677 93.289,-31.6117 64.461,-10.1443 83.579,-10.7234 133.023,-4.0295 46.422,6.2846 45.07,8.1265 -13.516,18.4125 -43.35,7.6111 -49.106,10.3181 -49.106,23.0908 0,15.1786 -10.352,17.4639 -137.116,30.2691 -14.77,1.492 -26.574,5.6995 -26.574,9.4722 0,13.9896 -136.797,32.3541 -220.986,29.6667 -21.401,-0.6831 -43.48,-0.3018 -49.064,0.8475 -18.414,3.7894 -69.479,2.1775 -96.368,-3.042 z m -220.951,-35.7371 c -89.299,-7.9551 -105.27,-25.3051 -44.286,-48.1094 21.709,-8.1179 47.812,-19.8696 58.006,-26.115 16.905,-10.3565 15.368,-12.0378 -17.478,-19.1181 -49.011,-10.5647 -47.065,-22.1961 6.513,-38.9394 24.442,-7.638 44.439,-16.8626 44.439,-20.4993 0,-5.7922 -84.158,-74.2156 -106.918,-86.9282 -15.186,-8.4821 36.164,-7.86947 114.992,1.3719 44.16,5.177 88.915,8.5627 113.191,8.5627 22.083,0 348.194,-6.9882 724.691,-15.52933 925.955,-21.00603 904.254,-20.62334 1010.446,-17.81951 245.176,6.47347 357.835,35.65034 227.739,58.98094 -94.674,16.9783 -122.904,18.0104 -1035.214,37.8473 -453.925,9.8699 -838.8,18.863 -855.277,19.9846 -35.941,2.4463 -36.852,4.0924 -7.255,13.1015 61.117,18.6038 44.625,37.4606 -39.697,45.3896 -58.844,5.5331 -59.264,7.4629 -7.541,34.6162 46.969,24.6572 51.041,35.5745 16.442,44.0842 -48.024,11.8113 -130.792,15.5333 -202.793,9.1193 z m 1111.175,-196.4427 c 391.627,-4.6013 740.094,-9.3529 774.371,-10.559 88.887,-3.1278 125.921,-8.6099 125.921,-18.64 0,-7.1955 -7.4,-8.9319 -53.199,-12.4834 -31.644,-2.45387 -82.328,-4.12852 -125.09,-4.13315 -39.54,-0.004 -393.109,7.04985 -785.709,15.67595 -968.605,21.2817 -885.737,18.8877 -885.469,25.5808 0.131,3.0677 4.917,7.8078 10.653,10.5335 10.018,4.7611 14.677,4.9056 118.451,3.6737 59.412,-0.7053 428.444,-5.0471 820.071,-9.6484 z m 3228.533,172.2528 c -19.027,-2.5763 -41.807,-8.7683 -50.623,-13.7599 -13.675,-7.7428 -9.041,-12.0233 31.553,-29.1462 26.171,-11.0388 47.667,-21.6684 47.77,-23.6214 0.1,-1.9529 -18.229,-7.0021 -40.736,-11.2203 -49.365,-9.2518 -56.775,-28.379 -14.976,-38.6592 17.849,-4.3898 20.669,-7.0526 9.039,-8.5318 -9.3,-1.1827 -421.5,-10.7541 -916.001,-21.2696 -798.083,-16.9712 -907.64,-19.7563 -975.172,-24.7898 -136.196,-10.1514 -194.925,-26.8147 -156.317,-44.3524 45.421,-20.63328 224.767,-33.82841 423.586,-31.16495 50.138,0.67168 454.316,9.64594 898.172,19.9428 555.591,12.88895 818.224,18.17045 843,16.95275 19.794,-0.9728 53.847,-4.2103 75.673,-7.19431 50.03,-6.84026 99.632,-7.21177 98.98,-0.74135 -0.26,2.57636 -21.597,22.82786 -47.416,45.00356 -48.058,41.277 -47.819,43.2909 7.075,59.5511 36.615,10.8459 25.617,26.2061 -24.998,34.9133 -41.476,7.135 -40.381,8.7775 26.322,39.475 26.223,12.0679 27.568,15.3048 9.951,23.9415 -24.795,12.1555 -83.108,19.3554 -156.764,19.3554 -34.345,0 -65.921,-1.6786 -88.118,-4.6842 z m 63.952,-177.4796 c 6.028,-4.5801 6.07,-8.9907 0.1,-9.8012 -5.975,-0.8105 -402.295,-10.1217 -880.709,-20.6915 -803.241,-17.74632 -875.14,-19.01608 -938.994,-16.58291 -94.957,3.61838 -146.992,10.66891 -146.992,19.91661 0,9.8951 42.823,14.8677 149.948,17.4119 128.998,3.0637 1575.727,18.6928 1699.519,18.36 l 106.175,-0.2854 10.959,-8.3275 z m -523.342,175.8298 c -69.813,-5.3998 -136.135,-18.8915 -145.652,-29.6297 -6.289,-7.0962 -17.576,-9.6779 -53.91,-12.33 -75.069,-5.4796 -101.038,-12.566 -104.176,-28.4282 -2.386,-12.0596 -9.871,-15.4962 -47.371,-21.7493 -54.087,-9.0188 -55.091,-11.1219 -7.707,-16.1493 53.346,-5.6601 87.059,-4.9461 133.704,2.8319 61.955,10.3308 91.298,20.8979 91.999,33.131 0.578,10.0898 4.966,11.3401 53.199,15.1605 28.913,2.29 63.618,7.1882 77.122,10.8848 30.911,8.4612 49.107,8.6399 49.107,0.4821 0,-4.7115 -17.323,-8.4248 -67.78,-14.5296 -67.29,-8.1411 -67.716,-8.2876 -58.853,-20.2148 4.91,-6.6079 16.814,-14.5907 26.453,-17.7395 15.116,-4.9383 26.65,-5.7251 83.919,-5.7251 81.291,0 91.791,2.6462 65.598,16.5327 l -19.495,10.3355 58.342,6.5149 c 65.3,7.292 94.135,17.3603 80.446,28.089 -7.228,5.6648 -0.1,8.6851 33.875,14.3499 50.837,8.477 53.511,11.8466 13.094,16.4986 -37.607,4.3286 -81.976,4.3983 -118.569,0.1863 -26.298,-3.0269 -29.1,-2.6679 -39.341,5.0416 -13.398,10.0858 -37.631,11.5902 -104.004,6.4566 z m 77.374,-23.2111 c -10.559,-2.5095 -24.918,-6.9595 -31.907,-9.8889 l -12.707,-5.3263 -1.408,5.862 c -1.583,6.5961 24.113,13.9158 48.852,13.9158 10.052,0 8.959,-1.7609 -2.83,-4.5626 z m 902.546,8.8632 c -9.32,-2.2148 -16.945,-5.4937 -16.945,-7.2865 0,-4.1648 -22.754,-4.1754 -49.848,-0.023 -45.622,6.9913 -81.779,7.8179 -123.57,2.8246 -48.977,-5.852 -49.618,-9.6111 -2.721,-15.9601 29.29,-3.9654 38.581,-8.2924 46.23,-21.5313 8.977,-15.5395 13.282,-17.0518 69.299,-24.3479 l 59.727,-7.7794 -23.818,-10.0653 c -31.547,-13.3318 -11.233,-18.9977 61.481,-17.148 68.921,1.7531 82.905,3.6396 108.407,14.6245 30.136,12.981 12.61,22.934 -56.266,31.9538 -48.981,6.4145 -56.211,8.7177 -56.406,17.9681 -0.131,5.8357 -4.751,12.9525 -10.285,15.8151 l -10.061,5.2047 37.058,-4.504 c 24.069,-2.9251 41.747,-8.3986 50.431,-15.614 11.631,-9.664 23.357,-12.2419 90.092,-19.8058 72.508,-8.2182 76.161,-9.1404 66.537,-16.795 -13.982,-11.1214 8.345,-19.5239 81.429,-30.6439 70.736,-10.7626 113.259,-11.8837 168.271,-4.4361 41.801,5.6592 34.373,9.1286 -37.969,17.7348 -37.314,4.439 -42.433,6.6965 -42.486,18.7368 -0.07,15.8515 -34.819,25.1027 -113.798,30.2971 -39.572,2.6027 -49.831,4.6311 -49.831,9.8532 0,9.2498 -59.192,23.7239 -121.895,29.8066 -63.831,6.1921 -100.326,6.5246 -123.063,1.1212 z"
             id="path7409" />
          <path
             style="fill:#f05e54;stroke-width:5.83764"
             d="m 15984.466,1645.1898 -2938.309,-374.2207 2938.389,-373.69545 2938.388,-373.69541 2942.215,374.20361 2942.216,374.20365 -2942.295,373.7125 -2942.294,373.7126 z m 5422.276,-57.259 c 1357.2,-172.6118 2467.638,-315.2449 2467.638,-316.9624 0,-4.0864 -4911.291,-628.73056 -4943.42,-628.73056 -13.527,0 -1136.845,141.46321 -2496.263,314.36269 l -2471.669,314.36267 2479.853,315.4036 c 1363.92,173.472 2483.537,315.4037 2488.038,315.4037 4.502,0 1118.622,-141.2279 2475.823,-313.8397 z m -1043.5,-200.2282 c -201.636,-2.0996 -302.825,-9.6004 -302.825,-22.4475 0,-3.8429 -13.509,-5.144 -73.274,-7.0581 -84.728,-2.7134 -154.023,-10.5775 -167.234,-18.9789 -6.6,-4.1968 -21.349,-6.1702 -52.129,-6.9748 -81.07,-2.119 -147.633,-7.6979 -173.016,-14.5009 -31.749,-8.5095 -31.875,-12.0874 -0.692,-19.7565 28.408,-6.9868 67.883,-10.0861 171.134,-13.4361 63.529,-2.0612 74.695,-3.2597 83.942,-9.0101 21.97,-13.6623 101.12,-19.1496 276.219,-19.1496 h 115.108 v -9.0457 c 0,-12.7389 33.06,-15.8712 182.221,-17.2643 66.332,-0.6195 143.624,-2.0136 171.759,-3.0979 44.08,-1.6988 62.821,-1.0491 135.506,4.6975 71.646,5.6645 103.953,6.8133 214.507,7.6272 116.017,0.8542 139.706,0.3641 218.058,-4.5114 48.346,-3.0084 98.217,-5.4541 110.824,-5.4349 12.607,0.019 85.533,4.3902 162.058,9.7137 246.997,17.1822 244.771,17.0839 425.592,18.8038 l 171.874,1.6348 v 7.2866 c 0,7.1132 -1.697,7.302 -71.335,7.9377 -144.967,1.3232 -345.048,-3.2799 -434.239,-9.9904 -207.259,-15.5936 -248.294,-17.5733 -303.731,-14.6527 -60.904,3.2085 -57.507,6.9295 7.649,8.3779 80.52,1.7898 48.278,5.0402 -95.247,9.6019 -163.811,5.2065 -175.263,5.9685 -175.263,11.662 0,7.8683 116.058,19.3984 237.256,23.5709 118.178,4.0685 137.469,6.683 108.656,14.7259 -16.494,4.6041 -25.192,5.0126 -79.904,3.7518 -195.226,-4.4986 -346.539,-18.2088 -381.525,-34.5692 -10.545,-4.931 -21.784,-10.1366 -24.974,-11.5679 -4.439,-1.9913 -99.126,-2.5948 -403.262,-2.5704 -218.603,0.017 -407.741,0.8598 -420.307,1.8717 -12.565,1.012 -18.321,3.3397 -12.79,5.1728 8.661,2.8707 47.73,3.3329 281.733,3.3329 155.971,0 285.162,0.9179 303.339,2.1552 35.615,2.4242 42.756,11.2589 11.201,13.8565 -11.254,0.9263 -208.203,2.1527 -437.663,2.7252 -391.81,0.9776 -417.562,1.2792 -423.111,4.9552 -3.25,2.1529 4.023,4.7148 16.163,5.6933 12.139,0.9784 197.499,1.7933 411.91,1.8109 236.921,0.019 402.258,0.8772 421.5,2.1869 17.966,1.2229 31.662,4.3432 31.662,7.2133 0,2.8702 -13.696,5.9905 -31.662,7.2134 -18.378,1.2509 -152.294,2.1551 -319.194,2.1551 -243.028,0 -287.533,0.4772 -287.533,3.0831 0,4.564 41.593,5.1543 404.854,5.7459 l 331.194,0.5394 52.637,6.6994 c 28.95,3.6846 46.9,7.432 39.889,8.3274 -7.012,0.8955 -138.624,2.0966 -292.473,2.6691 -202.469,0.7535 -281.589,1.7561 -286.476,3.6305 -15.765,6.0465 86.939,7.3407 601.56,7.58 554.042,0.2577 624.606,-0.6797 799.093,-10.6146 128.974,-7.3436 241.557,-10.9515 342.64,-10.9805 l 85.937,-0.025 v 7.2469 c 0,7.9306 -2.489,8.0993 -151.667,10.2793 -42.903,0.6269 -138.662,4.3204 -212.796,8.2077 -74.134,3.8874 -171.619,8.199 -216.634,9.5815 -96.544,2.9651 -876.181,4.6092 -1096.719,2.3129 z m 401.039,-133.0385 c 0,-0.9493 -34.988,-3.7285 -77.752,-6.176 -64.796,-3.7084 -94.12,-4.2014 -175.966,-2.9582 -178.323,2.7086 -89.849,10.7821 118.674,10.8295 74.274,0.017 135.044,-0.746 135.044,-1.6953 z m -5686.425,102.5366 c -17.019,-5.6409 -11.033,-65.4387 6.979,-69.7194 16.306,-3.875 40.889,-4.0269 651.695,-4.0269 h 634.751 l 48.077,6.5082 c 77.145,10.4431 159.989,14.2127 313.5,14.2648 160.017,0.054 262.611,-3.8157 363.636,-13.7174 l 72.516,-7.1073 582.242,0.5463 582.242,0.5464 v 37.4737 37.4737 l -1622.836,0.5305 c -1469.236,0.4803 -1623.779,0.2179 -1632.802,-2.7726 z m 1373.21,-71.6644 c -16.295,-2.29 -38.698,-4.1637 -49.783,-4.1637 -11.086,0 -57.824,-4.4978 -103.862,-9.995 -73.114,-8.7304 -83.737,-11.0352 -83.955,-18.2164 -0.3,-9.8108 -8.182,-11.5062 -77.238,-16.6142 -73.926,-5.4682 -106.39,-15.0491 -93.352,-27.5502 9.723,-9.3221 6.413,-10.6175 -48.498,-18.9765 -70.366,-10.7118 -72.794,-13.5722 -15.572,-18.3408 l 43.362,-3.6135 63.039,9.2907 c 74.908,11.0401 102.566,20.4674 91.323,31.1278 -9.164,8.6903 9.664,14.791 35.355,11.4554 8.745,-1.1354 26.042,-7.2171 38.436,-13.5147 20.956,-10.6474 26.21,-11.4961 74.923,-12.1038 66.959,-0.8352 77.916,2.6134 51.983,16.362 l -19.903,10.5522 67.332,7.3301 c 66.41,7.2298 67.332,7.5208 67.332,21.2577 0,11.4257 7.351,15.3036 40.922,21.587 48.891,9.1508 49.799,10.3771 10.988,14.8442 -38.948,4.483 -56.806,4.3448 -92.832,-0.7183 z m 460.867,-10.0528 c -35.332,-4.9654 -34.168,-7.9238 5.648,-14.3616 25.54,-4.1296 32.737,-8.4457 32.737,-19.6322 0,-13.8322 2.311,-14.6577 65.399,-23.3624 l 65.398,-9.0236 -18.721,-11.856 c -22.292,-14.1176 -8.402,-17.3015 62.458,-14.3175 37.695,1.5874 50.416,3.8872 67.509,12.205 11.584,5.637 17.022,13.7622 12.083,18.0561 -6.48,5.6342 -3.002,7.807 12.495,7.807 42.481,0 60.758,-5.1973 60.758,-17.2772 0,-14.3336 28.55,-23.0912 106.671,-32.7213 55.009,-6.7811 57.058,-6.8529 89.397,-3.1306 44.584,5.1316 40.836,9.1013 -16.675,17.6586 -43.451,6.4654 -48.441,8.6778 -48.441,21.4761 0,16.9737 -13.434,20.7198 -98.918,27.5831 -52.626,4.2252 -64.772,6.4052 -64.772,11.6257 0,8.696 -42.679,19.5288 -101.916,25.8683 -38.792,4.1514 -59.993,4.9684 -102.569,3.9526 -31.835,-0.7596 -58.154,-0.3576 -64.694,0.9883 -15.713,3.2336 -32.825,2.8213 -63.847,-1.5384 z m 209.281,-37.035 c 11.914,-6.0371 4.033,-8.17 -22.486,-6.0855 -21.063,1.6556 -23.516,11.5359 -2.864,11.5359 8.027,0 19.435,-2.4527 25.35,-5.4504 z m -419.267,1.9641 c -42.332,-1.4239 -79.853,-10.2775 -89.29,-21.0691 -6.417,-7.3385 3.829,-14.8546 40.848,-29.9647 74.36,-30.3509 77.072,-33.6106 35.136,-42.2405 -48.961,-10.0756 -47.151,-22.1265 5.704,-37.9779 54.524,-16.3519 53.99,-22.4037 -5.93,-67.2031 -26.801,-20.038 -48.814,-38.6497 -48.918,-41.3592 -0.181,-4.74914 2.154,-4.65735 64.875,2.5495 35.784,4.1117 84.999,8.1123 109.365,8.8901 27.96,0.8925 328.276,-4.9785 814.114,-15.91544 468.877,-10.55513 809.91,-17.25226 872.388,-17.13176 243.781,0.47017 404.155,24.8948 319.774,48.701 -38.095,10.7476 -104.245,19.1133 -185.098,23.4089 -32.283,1.7151 -426.306,11.174 -875.607,21.0198 -491.087,10.7614 -832.304,19.1842 -855.505,21.1176 -41.323,3.4436 -41.42,2.9631 4.745,23.6207 37.948,16.9809 5.521,33.3169 -72.376,36.4613 -44.812,1.8089 -43.074,9.4992 7.898,34.9468 60.912,30.4104 49.189,44.4911 -42.034,50.4908 -47.766,3.1416 -53.22,3.2318 -100.089,1.6552 z m 1091.372,-194.1975 c 387.125,-4.6068 727.587,-8.8919 756.581,-9.5225 28.995,-0.6307 75.032,-3.5347 102.306,-6.4535 66.473,-7.1138 70.68,-20.4278 8.792,-27.8224 -73.948,-8.83559 -149.939,-8.046 -982.262,10.2064 -423.137,9.2792 -789.597,17.4078 -814.355,18.0635 -48.61,1.2874 -56.278,5.6693 -34.337,19.622 l 10.678,6.79 124.366,-1.2538 c 68.401,-0.6895 441.105,-5.0229 828.231,-9.6297 z m 3252.982,171.3079 c -59.598,-3.0497 -89.774,-24.7711 -51.977,-37.4147 9.485,-3.1731 31.216,-12.1808 48.29,-20.0172 30.77,-14.122 30.756,-14.2845 -1.531,-18.391 -67.928,-8.6394 -85.067,-26.8455 -38.59,-40.993 23.997,-7.3044 23.608,-7.9225 -6.974,-11.072 -22.371,-2.3039 -302.364,-8.9732 -905.246,-21.5623 -480.071,-10.0246 -902.321,-19.8454 -938.332,-21.8238 -82.201,-4.5161 -164.434,-16.2642 -190.096,-27.1578 -49.255,-20.90892 95.357,-43.5787 300.534,-47.11268 74.61,-1.28509 254.922,2.41587 1237.241,25.39478 318.086,7.4408 592.955,12.9388 610.818,12.2177 17.864,-0.7211 58.024,-4.1636 89.245,-7.65 31.221,-3.48648 60.683,-5.8408 65.471,-5.23186 4.788,0.60895 -13.793,20.92876 -41.29,45.15506 l -49.995,44.0478 40.74,12.3108 c 51.402,15.5326 51.361,23.8489 -0.182,36.1779 -50.766,12.1433 -50.785,14.8964 -0.244,35.5917 45.888,18.7898 48.021,21.7593 23.643,32.9247 -29.013,13.2883 -104.611,19.0535 -191.525,14.6059 z m 26.17,-168.7996 c 21.718,-5.3824 37.651,-20.9289 22.657,-22.1075 -7.134,-0.5608 -401.532,-9.618 -876.439,-20.1272 -952.786,-21.08402 -966.806,-21.21378 -1068.238,-9.88698 -52.017,5.80868 -56.941,7.30208 -52.508,15.92468 4.173,8.1178 12.823,10.1928 58.916,14.1315 63.793,5.4514 7.341,4.5865 1050.878,16.0991 454.648,5.0158 831.897,9.2298 838.332,9.3646 6.436,0.1347 18.317,-1.3944 26.402,-3.3982 z m -544.829,161.1042 c -54.074,-6.8774 -107.109,-20.8069 -107.109,-28.1322 0,-4.752 -12.645,-7.1527 -55.365,-10.5107 -68.416,-5.3777 -91.727,-12.2278 -96.935,-28.4843 -3.809,-11.8913 -11.951,-14.4976 -84.361,-27.0068 -10.766,-1.8599 -6.123,-4.0521 14.814,-6.9945 40.303,-5.6642 59.928,-5.4109 111.518,1.4395 61.38,8.1502 93.96,19.4377 93.96,32.5528 0,10.6005 3.569,11.6279 54.226,15.6098 64.818,5.0949 93.647,11.3434 100.106,21.6968 2.631,4.2174 23.722,11.1862 46.867,15.4862 77.721,14.4388 14.608,26.0862 -77.721,14.3434 z m 168.042,-11.2094 c -63.133,-8.6089 -78.723,-13.7265 -78.723,-25.841 0,-10.2566 -4.683,-11.5656 -67.506,-18.8692 -65.783,-7.6478 -67.301,-8.1271 -59.471,-18.7824 12.407,-16.8847 35.225,-22.3847 92.868,-22.3847 65.026,0 73.306,2.4594 48.959,14.5419 l -20.593,10.219 68.347,8.436 c 66.242,8.1761 68.347,8.848 68.347,21.8107 0,11.229 6.565,14.3671 40.923,19.5602 48.855,7.3845 50.221,9.0734 10.987,13.5891 -40.768,4.6924 -55.351,4.3732 -104.138,-2.2796 z m 844.023,-1.8837 c -6.222,-3.1528 -2.739,-6.9534 8.109,-8.8479 62.821,-10.9718 83.91,-16.5085 84.019,-22.0579 0.164,-8.3325 52.439,-18.8135 114.044,-22.8652 48.162,-3.1676 49.934,-3.7744 47.789,-16.3572 -2.499,-14.656 20.449,-21.9794 98.41,-31.4061 46.197,-5.586 53.776,-5.8586 91.491,-3.2915 53.2,3.6212 51.071,7.7034 -8.652,16.5899 -42.76,6.3624 -48.509,8.8043 -49.021,20.8187 -0.673,15.7709 -18.574,20.8318 -97.634,27.6016 -44.783,3.8348 -59.297,6.7064 -66.477,13.1534 -12.04,10.8101 -51.317,20.0016 -114.249,26.7365 -64.638,6.9175 -94.071,6.8972 -107.829,-0.074 z m -185.53,-3.1963 c -42.621,-5.8184 -41.97,-7.069 7.57,-14.557 32.508,-4.9136 40.923,-8.4791 40.923,-17.3405 0,-14.0378 21.484,-21.3205 84.622,-28.6858 38.553,-4.4973 47.141,-6.8484 38.022,-10.4094 -22.089,-8.6266 -27.54,-19.7238 -10.351,-21.0749 9.434,-0.7416 35.55,-0.761 58.036,-0.043 31.157,0.9945 47.302,3.7632 67.867,11.6378 35.344,13.5339 21.459,22.1007 -50.124,30.9248 -51.584,6.359 -57.121,8.1489 -57.121,18.467 0,13.2282 -46.486,27.3338 -106.587,32.3423 -37.005,3.0838 -41.615,3.004 -72.857,-1.2611 z"
             id="path7407" />
          <path
             style="fill:#ee4034;stroke-width:5.83764"
             d="m 16000.914,1642.5766 -2921.827,-371.6148 2925.937,-372.13322 2925.936,-372.13318 2925.936,372.13318 2925.937,372.13322 -2921.827,371.6148 c -1607.005,204.3882 -2925.526,371.6149 -2930.046,371.6149 -4.52,0 -1323.041,-167.2267 -2930.046,-371.6149 z m 5410.061,-53.07 c 1359.374,-172.8902 2474.179,-315.8964 2477.345,-317.7918 7.985,-4.7799 -4920.032,-631.55883 -4965.598,-631.55883 -38.723,0 -4967.919,625.89893 -4967.919,630.81583 0,3.3943 4941.509,632.8805 4968.154,632.8805 9.036,0 1128.644,-141.4555 2488.018,-314.3457 z m -1047.733,-201.804 c -201.636,-2.0996 -302.825,-9.6004 -302.825,-22.4475 0,-3.8429 -13.509,-5.144 -73.274,-7.0581 -84.728,-2.7134 -154.023,-10.5775 -167.234,-18.9789 -6.6,-4.1968 -21.349,-6.1702 -52.129,-6.9748 -81.07,-2.119 -147.633,-7.6979 -173.016,-14.5009 -31.749,-8.5095 -31.875,-12.0874 -0.692,-19.7565 28.408,-6.9868 67.883,-10.0861 171.134,-13.4361 63.529,-2.0612 74.695,-3.2597 83.942,-9.0101 21.97,-13.6623 101.12,-19.1496 276.219,-19.1496 h 115.108 v -9.0457 c 0,-12.7389 33.06,-15.8712 182.221,-17.2643 66.332,-0.6195 143.624,-2.0136 171.759,-3.0979 44.08,-1.6988 62.821,-1.0491 135.506,4.6975 71.646,5.6645 103.953,6.8133 214.507,7.6272 116.017,0.8542 139.706,0.3641 218.058,-4.5114 48.346,-3.0084 98.217,-5.4541 110.824,-5.4349 12.607,0.019 85.533,4.3902 162.058,9.7137 246.997,17.1822 244.771,17.0839 425.592,18.8038 l 171.874,1.6348 v 7.2866 c 0,7.1132 -1.697,7.302 -71.335,7.9377 -144.967,1.3232 -345.048,-3.2799 -434.239,-9.9904 -207.259,-15.5936 -248.294,-17.5733 -303.731,-14.6527 -60.904,3.2085 -57.507,6.9295 7.649,8.3779 80.52,1.7898 48.278,5.0402 -95.247,9.6019 -163.811,5.2065 -175.263,5.9685 -175.263,11.662 0,7.8683 116.058,19.3984 237.256,23.5709 118.178,4.0685 137.469,6.683 108.656,14.7259 -16.494,4.6041 -25.192,5.0126 -79.904,3.7518 -195.226,-4.4986 -346.539,-18.2088 -381.525,-34.5692 -10.545,-4.931 -21.784,-10.1366 -24.974,-11.5679 -4.439,-1.9913 -99.126,-2.5948 -403.262,-2.5704 -218.603,0.017 -407.741,0.8598 -420.307,1.8717 -12.565,1.012 -18.321,3.3397 -12.79,5.1728 8.661,2.8707 47.73,3.3329 281.733,3.3329 155.971,0 285.162,0.9179 303.339,2.1552 35.615,2.4242 42.756,11.2589 11.201,13.8565 -11.254,0.9263 -208.203,2.1527 -437.663,2.7252 -391.81,0.9776 -417.562,1.2792 -423.111,4.9552 -3.25,2.1529 4.023,4.7148 16.163,5.6933 12.139,0.9784 197.499,1.7933 411.91,1.8109 236.921,0.019 402.258,0.8772 421.5,2.1869 17.966,1.2229 31.662,4.3432 31.662,7.2133 0,2.8702 -13.696,5.9905 -31.662,7.2134 -18.378,1.2509 -152.294,2.1551 -319.194,2.1551 -243.028,0 -287.533,0.4772 -287.533,3.0831 0,4.564 41.593,5.1543 404.854,5.7459 l 331.194,0.5394 52.637,6.6994 c 28.95,3.6846 46.9,7.432 39.889,8.3274 -7.012,0.8955 -138.624,2.0966 -292.473,2.6691 -202.469,0.7535 -281.589,1.7561 -286.476,3.6305 -15.765,6.0465 86.939,7.3407 601.56,7.58 554.042,0.2577 624.606,-0.6797 799.093,-10.6146 128.974,-7.3436 241.557,-10.9515 342.64,-10.9805 l 85.937,-0.025 v 7.2469 c 0,7.9306 -2.489,8.0993 -151.667,10.2793 -42.903,0.6269 -138.662,4.3204 -212.796,8.2077 -74.134,3.8874 -171.619,8.199 -216.634,9.5815 -96.544,2.9651 -876.181,4.6092 -1096.719,2.3129 z m 401.039,-133.0385 c 0,-0.9493 -34.988,-3.7285 -77.752,-6.176 -64.796,-3.7084 -94.12,-4.2014 -175.966,-2.9582 -178.323,2.7086 -89.849,10.7821 118.674,10.8295 74.274,0.017 135.044,-0.746 135.044,-1.6953 z m -5686.425,102.5366 c -17.019,-5.6409 -11.033,-65.4387 6.979,-69.7194 16.306,-3.875 40.889,-4.0269 651.695,-4.0269 h 634.751 l 48.077,6.5082 c 77.145,10.4431 159.989,14.2127 313.5,14.2648 160.017,0.054 262.611,-3.8157 363.636,-13.7174 l 72.516,-7.1073 582.242,0.5463 582.242,0.5464 v 37.4737 37.4737 l -1622.836,0.5305 c -1469.236,0.4803 -1623.779,0.2179 -1632.802,-2.7726 z m 1373.21,-71.6644 c -16.295,-2.29 -38.698,-4.1637 -49.783,-4.1637 -11.086,0 -57.824,-4.4978 -103.862,-9.995 -73.114,-8.7304 -83.737,-11.0352 -83.955,-18.2164 -0.3,-9.8108 -8.182,-11.5062 -77.238,-16.6142 -73.926,-5.4682 -106.39,-15.0491 -93.352,-27.5502 9.723,-9.3221 6.413,-10.6175 -48.498,-18.9765 -70.366,-10.7118 -72.794,-13.5722 -15.572,-18.3408 l 43.362,-3.6135 63.039,9.2907 c 74.908,11.0401 102.566,20.4674 91.323,31.1278 -9.164,8.6903 9.664,14.791 35.355,11.4554 8.745,-1.1354 26.042,-7.2171 38.436,-13.5147 20.956,-10.6474 26.21,-11.4961 74.923,-12.1038 66.959,-0.8352 77.916,2.6134 51.983,16.362 l -19.903,10.5522 67.332,7.3301 c 66.41,7.2298 67.332,7.5208 67.332,21.2577 0,11.4257 7.351,15.3036 40.922,21.587 48.891,9.1508 49.799,10.3771 10.988,14.8442 -38.948,4.483 -56.806,4.3448 -92.832,-0.7183 z m 460.867,-10.0528 c -35.332,-4.9654 -34.168,-7.9238 5.648,-14.3616 25.54,-4.1296 32.737,-8.4457 32.737,-19.6322 0,-13.8322 2.311,-14.6577 65.399,-23.3624 l 65.398,-9.0236 -18.721,-11.856 c -22.292,-14.1176 -8.402,-17.3015 62.458,-14.3175 37.695,1.5874 50.416,3.8872 67.509,12.205 11.584,5.637 17.022,13.7622 12.083,18.0561 -6.48,5.6342 -3.002,7.807 12.495,7.807 42.481,0 60.758,-5.1973 60.758,-17.2772 0,-14.3336 28.55,-23.0912 106.671,-32.7213 55.009,-6.7811 57.058,-6.8529 89.397,-3.1306 44.584,5.1316 40.836,9.1013 -16.675,17.6586 -43.451,6.4654 -48.441,8.6778 -48.441,21.4761 0,16.9737 -13.434,20.7198 -98.918,27.5831 -52.626,4.2252 -64.772,6.4052 -64.772,11.6257 0,8.696 -42.679,19.5288 -101.916,25.8683 -38.792,4.1514 -59.993,4.9684 -102.569,3.9526 -31.835,-0.7596 -58.154,-0.3576 -64.694,0.9883 -15.713,3.2336 -32.825,2.8213 -63.847,-1.5384 z m 209.281,-37.035 c 11.914,-6.0371 4.033,-8.17 -22.486,-6.0855 -21.063,1.6556 -23.516,11.5359 -2.864,11.5359 8.027,0 19.435,-2.4527 25.35,-5.4504 z m -419.267,1.9641 c -42.332,-1.4239 -79.853,-10.2775 -89.29,-21.0691 -6.417,-7.3385 3.829,-14.8546 40.848,-29.9647 74.36,-30.3509 77.072,-33.6106 35.136,-42.2405 -48.961,-10.0756 -47.151,-22.1265 5.704,-37.9779 54.524,-16.3519 53.99,-22.4037 -5.93,-67.2031 -26.801,-20.038 -48.814,-38.6497 -48.918,-41.3592 -0.181,-4.74914 2.154,-4.65735 64.875,2.5495 35.784,4.1117 84.999,8.1123 109.365,8.8901 27.96,0.8925 328.276,-4.9785 814.114,-15.91544 468.877,-10.55513 809.91,-17.25226 872.388,-17.13176 243.781,0.47017 404.155,24.8948 319.774,48.701 -38.095,10.7476 -104.245,19.1133 -185.098,23.4089 -32.283,1.7151 -426.306,11.174 -875.607,21.0198 -491.087,10.7614 -832.304,19.1842 -855.505,21.1176 -41.323,3.4436 -41.42,2.9631 4.745,23.6207 37.948,16.9809 5.521,33.3169 -72.376,36.4613 -44.812,1.8089 -43.074,9.4992 7.898,34.9468 60.912,30.4104 49.189,44.4911 -42.034,50.4908 -47.766,3.1416 -53.22,3.2318 -100.089,1.6552 z m 1091.372,-194.1975 c 387.125,-4.6068 727.587,-8.8919 756.581,-9.5225 28.995,-0.6307 75.032,-3.5347 102.306,-6.4535 66.473,-7.1138 70.68,-20.4278 8.792,-27.8224 -73.948,-8.83559 -149.939,-8.046 -982.262,10.2064 -423.137,9.2792 -789.597,17.4078 -814.355,18.0635 -48.61,1.2874 -56.278,5.6693 -34.337,19.622 l 10.678,6.79 124.366,-1.2538 c 68.401,-0.6895 441.105,-5.0229 828.231,-9.6297 z m 3252.982,171.3079 c -59.598,-3.0497 -89.774,-24.7711 -51.977,-37.4147 9.485,-3.1731 31.216,-12.1808 48.29,-20.0172 30.77,-14.122 30.756,-14.2845 -1.531,-18.391 -67.928,-8.6394 -85.067,-26.8455 -38.59,-40.993 23.997,-7.3044 23.608,-7.9225 -6.974,-11.072 -22.371,-2.3039 -302.364,-8.9732 -905.246,-21.5623 -480.071,-10.0246 -902.321,-19.8454 -938.332,-21.8238 -82.201,-4.5161 -164.434,-16.2642 -190.096,-27.1578 -49.255,-20.90892 95.357,-43.5787 300.534,-47.11268 74.61,-1.28509 254.922,2.41587 1237.241,25.39478 318.086,7.4408 592.955,12.9388 610.818,12.2177 17.864,-0.7211 58.024,-4.1636 89.245,-7.65 31.221,-3.48648 60.683,-5.8408 65.471,-5.23186 4.788,0.60895 -13.793,20.92876 -41.29,45.15506 l -49.995,44.0478 40.74,12.3108 c 51.402,15.5326 51.361,23.8489 -0.182,36.1779 -50.766,12.1433 -50.785,14.8964 -0.244,35.5917 45.888,18.7898 48.021,21.7593 23.643,32.9247 -29.013,13.2883 -104.611,19.0535 -191.525,14.6059 z m 26.17,-168.7996 c 21.718,-5.3824 37.651,-20.9289 22.657,-22.1075 -7.134,-0.5608 -401.532,-9.618 -876.439,-20.1272 -952.786,-21.08402 -966.806,-21.21378 -1068.238,-9.88698 -52.017,5.80868 -56.941,7.30208 -52.508,15.92468 4.173,8.1178 12.823,10.1928 58.916,14.1315 63.793,5.4514 7.341,4.5865 1050.878,16.0991 454.648,5.0158 831.897,9.2298 838.332,9.3646 6.436,0.1347 18.317,-1.3944 26.402,-3.3982 z m -544.829,161.1042 c -54.074,-6.8774 -107.109,-20.8069 -107.109,-28.1322 0,-4.752 -12.645,-7.1527 -55.365,-10.5107 -68.416,-5.3777 -91.727,-12.2278 -96.935,-28.4843 -3.809,-11.8913 -11.951,-14.4976 -84.361,-27.0068 -10.766,-1.8599 -6.123,-4.0521 14.814,-6.9945 40.303,-5.6642 59.928,-5.4109 111.518,1.4395 61.38,8.1502 93.96,19.4377 93.96,32.5528 0,10.6005 3.569,11.6279 54.226,15.6098 64.818,5.0949 93.647,11.3434 100.106,21.6968 2.631,4.2174 23.722,11.1862 46.867,15.4862 77.721,14.4388 14.608,26.0862 -77.721,14.3434 z m 168.042,-11.2094 c -63.133,-8.6089 -78.723,-13.7265 -78.723,-25.841 0,-10.2566 -4.683,-11.5656 -67.506,-18.8692 -65.783,-7.6478 -67.301,-8.1271 -59.471,-18.7824 12.407,-16.8847 35.225,-22.3847 92.868,-22.3847 65.026,0 73.306,2.4594 48.959,14.5419 l -20.593,10.219 68.347,8.436 c 66.242,8.1761 68.347,8.848 68.347,21.8107 0,11.229 6.565,14.3671 40.923,19.5602 48.855,7.3845 50.221,9.0734 10.987,13.5891 -40.768,4.6924 -55.351,4.3732 -104.138,-2.2796 z m 844.023,-1.8837 c -6.222,-3.1528 -2.739,-6.9534 8.109,-8.8479 62.821,-10.9718 83.91,-16.5085 84.019,-22.0579 0.164,-8.3325 52.439,-18.8135 114.044,-22.8652 48.162,-3.1676 49.934,-3.7744 47.789,-16.3572 -2.499,-14.656 20.449,-21.9794 98.41,-31.4061 46.197,-5.586 53.776,-5.8586 91.491,-3.2915 53.2,3.6212 51.071,7.7034 -8.652,16.5899 -42.76,6.3624 -48.509,8.8043 -49.021,20.8187 -0.673,15.7709 -18.574,20.8318 -97.634,27.6016 -44.783,3.8348 -59.297,6.7064 -66.477,13.1534 -12.04,10.8101 -51.317,20.0016 -114.249,26.7365 -64.638,6.9175 -94.071,6.8972 -107.829,-0.074 z m -185.53,-3.1963 c -42.621,-5.8184 -41.97,-7.069 7.57,-14.557 32.508,-4.9136 40.923,-8.4791 40.923,-17.3405 0,-14.0378 21.484,-21.3205 84.622,-28.6858 38.553,-4.4973 47.141,-6.8484 38.022,-10.4094 -22.089,-8.6266 -27.54,-19.7238 -10.351,-21.0749 9.434,-0.7416 35.55,-0.761 58.036,-0.043 31.157,0.9945 47.302,3.7632 67.867,11.6378 35.344,13.5339 21.459,22.1007 -50.124,30.9248 -51.584,6.359 -57.121,8.1489 -57.121,18.467 0,13.2282 -46.486,27.3338 -106.587,32.3423 -37.005,3.0838 -41.615,3.004 -72.857,-1.2611 z"
             id="path7405" />
          <path
             style="fill:#5f5f5f;stroke-width:5.83764"
             d="m 20363.242,1387.7026 c -201.636,-2.0996 -302.825,-9.6004 -302.825,-22.4475 0,-3.8429 -13.509,-5.144 -73.274,-7.0581 -84.728,-2.7134 -154.023,-10.5775 -167.234,-18.9789 -6.6,-4.1968 -21.349,-6.1702 -52.129,-6.9748 -81.07,-2.119 -147.633,-7.6979 -173.016,-14.5009 -31.749,-8.5095 -31.875,-12.0874 -0.692,-19.7565 28.408,-6.9868 67.883,-10.0861 171.134,-13.4361 63.529,-2.0612 74.695,-3.2597 83.942,-9.0101 21.97,-13.6623 101.12,-19.1496 276.219,-19.1496 h 115.108 v -9.0457 c 0,-12.7389 33.06,-15.8712 182.221,-17.2643 66.332,-0.6195 143.624,-2.0136 171.759,-3.0979 44.08,-1.6988 62.821,-1.0491 135.506,4.6975 71.646,5.6645 103.953,6.8133 214.507,7.6272 116.017,0.8542 139.706,0.3641 218.058,-4.5114 48.346,-3.0084 98.217,-5.4541 110.824,-5.4349 12.607,0.019 85.533,4.3902 162.058,9.7137 246.997,17.1822 244.771,17.0839 425.592,18.8038 l 171.874,1.6348 v 7.2866 c 0,7.1132 -1.697,7.302 -71.335,7.9377 -144.967,1.3232 -345.048,-3.2799 -434.239,-9.9904 -207.259,-15.5936 -248.294,-17.5733 -303.731,-14.6527 -60.904,3.2085 -57.507,6.9295 7.649,8.3779 80.52,1.7898 48.278,5.0402 -95.247,9.6019 -163.811,5.2065 -175.263,5.9685 -175.263,11.662 0,7.8683 116.058,19.3984 237.256,23.5709 118.178,4.0685 137.469,6.683 108.656,14.7259 -16.494,4.6041 -25.192,5.0126 -79.904,3.7518 -195.226,-4.4986 -346.539,-18.2088 -381.525,-34.5692 -10.545,-4.931 -21.784,-10.1366 -24.974,-11.5679 -4.439,-1.9913 -99.126,-2.5948 -403.262,-2.5704 -218.603,0.017 -407.741,0.8598 -420.307,1.8717 -12.565,1.012 -18.321,3.3397 -12.79,5.1728 8.661,2.8707 47.73,3.3329 281.733,3.3329 155.971,0 285.162,0.9179 303.339,2.1552 35.615,2.4242 42.756,11.2589 11.201,13.8565 -11.254,0.9263 -208.203,2.1527 -437.663,2.7252 -391.81,0.9776 -417.562,1.2792 -423.111,4.9552 -3.25,2.1529 4.023,4.7148 16.163,5.6933 12.139,0.9784 197.499,1.7933 411.91,1.8109 236.921,0.019 402.258,0.8772 421.5,2.1869 17.966,1.2229 31.662,4.3432 31.662,7.2133 0,2.8702 -13.696,5.9905 -31.662,7.2134 -18.378,1.2509 -152.294,2.1551 -319.194,2.1551 -243.028,0 -287.533,0.4772 -287.533,3.0831 0,4.564 41.593,5.1543 404.854,5.7459 l 331.194,0.5394 52.637,6.6994 c 28.95,3.6846 46.9,7.432 39.889,8.3274 -7.012,0.8955 -138.624,2.0966 -292.473,2.6691 -202.469,0.7535 -281.589,1.7561 -286.476,3.6305 -15.765,6.0465 86.939,7.3407 601.56,7.58 554.042,0.2577 624.606,-0.6797 799.093,-10.6146 128.974,-7.3436 241.557,-10.9515 342.64,-10.9805 l 85.937,-0.025 v 7.2469 c 0,7.9306 -2.489,8.0993 -151.667,10.2793 -42.903,0.6269 -138.662,4.3204 -212.796,8.2077 -74.134,3.8874 -171.619,8.199 -216.634,9.5815 -96.544,2.9651 -876.181,4.6092 -1096.719,2.3129 z m 401.039,-133.0385 c 0,-0.9493 -34.988,-3.7285 -77.752,-6.176 -64.796,-3.7084 -94.12,-4.2014 -175.966,-2.9582 -178.323,2.7086 -89.849,10.7821 118.674,10.8295 74.274,0.017 135.044,-0.746 135.044,-1.6953 z m -5686.425,102.5366 c -17.019,-5.6409 -11.033,-65.4387 6.979,-69.7194 16.306,-3.875 40.889,-4.0269 651.695,-4.0269 h 634.751 l 48.077,6.5082 c 77.145,10.4431 159.989,14.2127 313.5,14.2648 160.017,0.054 262.611,-3.8157 363.636,-13.7174 l 72.516,-7.1073 582.242,0.5463 582.242,0.5464 v 37.4737 37.4737 l -1622.836,0.5305 c -1469.236,0.4803 -1623.779,0.2179 -1632.802,-2.7726 z m 1373.21,-71.6644 c -16.295,-2.29 -38.698,-4.1637 -49.783,-4.1637 -11.086,0 -57.824,-4.4978 -103.862,-9.995 -73.114,-8.7304 -83.737,-11.0352 -83.955,-18.2164 -0.3,-9.8108 -8.182,-11.5062 -77.238,-16.6142 -73.926,-5.4682 -106.39,-15.0491 -93.352,-27.5502 9.723,-9.3221 6.413,-10.6175 -48.498,-18.9765 -70.366,-10.7118 -72.794,-13.5722 -15.572,-18.3408 l 43.362,-3.6135 63.039,9.2907 c 74.908,11.0401 102.566,20.4674 91.323,31.1278 -9.164,8.6903 9.664,14.791 35.355,11.4554 8.745,-1.1354 26.042,-7.2171 38.436,-13.5147 20.956,-10.6474 26.21,-11.4961 74.923,-12.1038 66.959,-0.8352 77.916,2.6134 51.983,16.362 l -19.903,10.5522 67.332,7.3301 c 66.41,7.2298 67.332,7.5208 67.332,21.2577 0,11.4257 7.351,15.3036 40.922,21.587 48.891,9.1508 49.799,10.3771 10.988,14.8442 -38.948,4.483 -56.806,4.3448 -92.832,-0.7183 z m 460.867,-10.0528 c -35.332,-4.9654 -34.168,-7.9238 5.648,-14.3616 25.54,-4.1296 32.737,-8.4457 32.737,-19.6322 0,-13.8322 2.311,-14.6577 65.399,-23.3624 l 65.398,-9.0236 -18.721,-11.856 c -22.292,-14.1176 -8.402,-17.3015 62.458,-14.3175 37.695,1.5874 50.416,3.8872 67.509,12.205 11.584,5.637 17.022,13.7622 12.083,18.0561 -6.48,5.6342 -3.002,7.807 12.495,7.807 42.481,0 60.758,-5.1973 60.758,-17.2772 0,-14.3336 28.55,-23.0912 106.671,-32.7213 55.009,-6.7811 57.058,-6.8529 89.397,-3.1306 44.584,5.1316 40.836,9.1013 -16.675,17.6586 -43.451,6.4654 -48.441,8.6778 -48.441,21.4761 0,16.9737 -13.434,20.7198 -98.918,27.5831 -52.626,4.2252 -64.772,6.4052 -64.772,11.6257 0,8.696 -42.679,19.5288 -101.916,25.8683 -38.792,4.1514 -59.993,4.9684 -102.569,3.9526 -31.835,-0.7596 -58.154,-0.3576 -64.694,0.9883 -15.713,3.2336 -32.825,2.8213 -63.847,-1.5384 z m 209.281,-37.035 c 11.914,-6.0371 4.033,-8.17 -22.486,-6.0855 -21.063,1.6556 -23.516,11.5359 -2.864,11.5359 8.027,0 19.435,-2.4527 25.35,-5.4504 z m -419.267,1.9641 c -42.332,-1.4239 -79.853,-10.2775 -89.29,-21.0691 -6.417,-7.3385 3.829,-14.8546 40.848,-29.9647 74.36,-30.3509 77.072,-33.6106 35.136,-42.2405 -48.961,-10.0756 -47.151,-22.1265 5.704,-37.9779 54.524,-16.3519 53.99,-22.4037 -5.93,-67.2031 -26.801,-20.038 -48.814,-38.6497 -48.918,-41.3592 -0.181,-4.74914 2.154,-4.65735 64.875,2.5495 35.784,4.1117 84.999,8.1123 109.365,8.8901 27.96,0.8925 328.276,-4.9785 814.114,-15.91544 468.877,-10.55513 809.91,-17.25226 872.388,-17.13176 243.781,0.47017 404.155,24.8948 319.774,48.701 -38.095,10.7476 -104.245,19.1133 -185.098,23.4089 -32.283,1.7151 -426.306,11.174 -875.607,21.0198 -491.087,10.7614 -832.304,19.1842 -855.505,21.1176 -41.323,3.4436 -41.42,2.9631 4.745,23.6207 37.948,16.9809 5.521,33.3169 -72.376,36.4613 -44.812,1.8089 -43.074,9.4992 7.898,34.9468 60.912,30.4104 49.189,44.4911 -42.034,50.4908 -47.766,3.1416 -53.22,3.2318 -100.089,1.6552 z m 1091.372,-194.1975 c 387.125,-4.6068 727.587,-8.8919 756.581,-9.5225 28.995,-0.6307 75.032,-3.5347 102.306,-6.4535 66.473,-7.1138 70.68,-20.4278 8.792,-27.8224 -73.948,-8.83559 -149.939,-8.046 -982.262,10.2064 -423.137,9.2792 -789.597,17.4078 -814.355,18.0635 -48.61,1.2874 -56.278,5.6693 -34.337,19.622 l 10.678,6.79 124.366,-1.2538 c 68.401,-0.6895 441.105,-5.0229 828.231,-9.6297 z m 3252.982,171.3079 c -59.598,-3.0497 -89.774,-24.7711 -51.977,-37.4147 9.485,-3.1731 31.216,-12.1808 48.29,-20.0172 30.77,-14.122 30.756,-14.2845 -1.531,-18.391 -67.928,-8.6394 -85.067,-26.8455 -38.59,-40.993 23.997,-7.3044 23.608,-7.9225 -6.974,-11.072 -22.371,-2.3039 -302.364,-8.9732 -905.246,-21.5623 -480.071,-10.0246 -902.321,-19.8454 -938.332,-21.8238 -82.201,-4.5161 -164.434,-16.2642 -190.096,-27.1578 -49.255,-20.90892 95.357,-43.5787 300.534,-47.11268 74.61,-1.28509 254.922,2.41587 1237.241,25.39478 318.086,7.4408 592.955,12.9388 610.818,12.2177 17.864,-0.7211 58.024,-4.1636 89.245,-7.65 31.221,-3.48648 60.683,-5.8408 65.471,-5.23186 4.788,0.60895 -13.793,20.92876 -41.29,45.15506 l -49.995,44.0478 40.74,12.3108 c 51.402,15.5326 51.361,23.8489 -0.182,36.1779 -50.766,12.1433 -50.785,14.8964 -0.244,35.5917 45.888,18.7898 48.021,21.7593 23.643,32.9247 -29.013,13.2883 -104.611,19.0535 -191.525,14.6059 z m 26.17,-168.7996 c 21.718,-5.3824 37.651,-20.9289 22.657,-22.1075 -7.134,-0.5608 -401.532,-9.618 -876.439,-20.1272 -952.786,-21.08402 -966.806,-21.21378 -1068.238,-9.88698 -52.017,5.80868 -56.941,7.30208 -52.508,15.92468 4.173,8.1178 12.823,10.1928 58.916,14.1315 63.793,5.4514 7.341,4.5865 1050.878,16.0991 454.648,5.0158 831.897,9.2298 838.332,9.3646 6.436,0.1347 18.317,-1.3944 26.402,-3.3982 z m -544.829,161.1042 c -54.074,-6.8774 -107.109,-20.8069 -107.109,-28.1322 0,-4.752 -12.645,-7.1527 -55.365,-10.5107 -68.416,-5.3777 -91.727,-12.2278 -96.935,-28.4843 -3.809,-11.8913 -11.951,-14.4976 -84.361,-27.0068 -10.766,-1.8599 -6.123,-4.0521 14.814,-6.9945 40.303,-5.6642 59.928,-5.4109 111.518,1.4395 61.38,8.1502 93.96,19.4377 93.96,32.5528 0,10.6005 3.569,11.6279 54.226,15.6098 64.818,5.0949 93.647,11.3434 100.106,21.6968 2.631,4.2174 23.722,11.1862 46.867,15.4862 77.721,14.4388 14.608,26.0862 -77.721,14.3434 z m 168.042,-11.2094 c -63.133,-8.6089 -78.723,-13.7265 -78.723,-25.841 0,-10.2566 -4.683,-11.5656 -67.506,-18.8692 -65.783,-7.6478 -67.301,-8.1271 -59.471,-18.7824 12.407,-16.8847 35.225,-22.3847 92.868,-22.3847 65.026,0 73.306,2.4594 48.959,14.5419 l -20.593,10.219 68.347,8.436 c 66.242,8.1761 68.347,8.848 68.347,21.8107 0,11.229 6.565,14.3671 40.923,19.5602 48.855,7.3845 50.221,9.0734 10.987,13.5891 -40.768,4.6924 -55.351,4.3732 -104.138,-2.2796 z m 844.023,-1.8837 c -6.222,-3.1528 -2.739,-6.9534 8.109,-8.8479 62.821,-10.9718 83.91,-16.5085 84.019,-22.0579 0.164,-8.3325 52.439,-18.8135 114.044,-22.8652 48.162,-3.1676 49.934,-3.7744 47.789,-16.3572 -2.499,-14.656 20.449,-21.9794 98.41,-31.4061 46.197,-5.586 53.776,-5.8586 91.491,-3.2915 53.2,3.6212 51.071,7.7034 -8.652,16.5899 -42.76,6.3624 -48.509,8.8043 -49.021,20.8187 -0.673,15.7709 -18.574,20.8318 -97.634,27.6016 -44.783,3.8348 -59.297,6.7064 -66.477,13.1534 -12.04,10.8101 -51.317,20.0016 -114.249,26.7365 -64.638,6.9175 -94.071,6.8972 -107.829,-0.074 z m -185.53,-3.1963 c -42.621,-5.8184 -41.97,-7.069 7.57,-14.557 32.508,-4.9136 40.923,-8.4791 40.923,-17.3405 0,-14.0378 21.484,-21.3205 84.622,-28.6858 38.553,-4.4973 47.141,-6.8484 38.022,-10.4094 -22.089,-8.6266 -27.54,-19.7238 -10.351,-21.0749 9.434,-0.7416 35.55,-0.761 58.036,-0.043 31.157,0.9945 47.302,3.7632 67.867,11.6378 35.344,13.5339 21.459,22.1007 -50.124,30.9248 -51.584,6.359 -57.121,8.1489 -57.121,18.467 0,13.2282 -46.486,27.3338 -106.587,32.3423 -37.005,3.0838 -41.615,3.004 -72.857,-1.2611 z"
             id="path7403" />
          <path
             style="fill:#080808;stroke-width:5.83764"
             d="m 20404.164,1385.6948 c -212.688,-1.5826 -280.717,-5.0137 -311.667,-15.7189 -31.907,-11.0362 -42.053,-12.4908 -97.108,-13.9229 -76.975,-2.0023 -136.913,-8.4292 -154.812,-16.5999 -18.292,-8.3503 -34.857,-10.1228 -95.004,-10.1656 -25.983,-0.019 -67.023,-2.5622 -97.842,-6.0644 -43.93,-4.9923 -53.085,-7.5422 -53.085,-14.7862 0,-7.244 9.155,-9.7939 53.085,-14.7862 33.977,-3.8611 71.056,-6.0325 103.01,-6.0325 72.317,0 113.249,-3.462 113.249,-9.5786 0,-13.4842 56.525,-17.8088 253.718,-19.4113 l 147.321,-1.1973 -5.32,-9.732 c -6.499,-11.8885 8.191,-13.2094 169.009,-15.197 63.02,-0.7789 137.736,-2.3202 166.034,-3.4252 43.42,-1.6955 60.792,-1.2029 111.295,3.156 90.208,7.7858 163.438,10.1007 292.857,9.2574 81.085,-0.5283 139.294,-2.2261 188.506,-5.498 86.369,-5.7425 92.765,-5.5364 313.503,10.1013 169.455,12.0046 174.353,12.2018 343.748,13.8397 171.628,1.6595 171.851,1.6688 177.023,7.3867 4.852,5.3631 1.228,5.7241 -57.291,5.7081 -34.359,-0.01 -127.598,-0.9661 -207.197,-2.1259 -132.022,-1.9237 -158.104,-3.1102 -297.111,-13.5151 -83.811,-6.2734 -163.263,-11.4063 -176.561,-11.4063 -46.155,0 -142.757,6.3182 -142.757,9.3369 0,1.6694 23.939,3.8619 53.199,4.8723 l 53.199,1.8369 -73.66,2.5098 c -221.181,7.5364 -220.903,7.5216 -226.067,12.0722 -13.253,11.6804 101.918,24.7499 263.175,29.865 89.453,2.8376 102.039,4.4529 78.422,10.0654 -15.69,3.7285 -23.273,3.8349 -103.063,1.4457 -210.379,-6.2993 -305.705,-17.6483 -346.872,-41.2965 l -9.967,-5.7252 h -401.803 c -245.67,0 -414.107,0.8374 -433.465,2.1551 -35.705,2.4304 -42.169,9.2255 -11.201,11.7747 11.254,0.9263 149.367,2.1527 306.918,2.7252 272.816,0.9914 286.456,1.2392 286.456,5.2047 0,4.0271 -13.963,4.2019 -425.592,5.3279 -234.076,0.6403 -427.175,1.3429 -429.109,1.5614 -30.983,3.4999 -33.394,8.8941 -5.905,13.2156 30.719,4.8292 35.135,4.8878 445.816,5.9185 401.15,1.0067 414.79,1.1778 414.79,5.2046 0,3.9732 -13.64,4.2114 -297.959,5.2047 -313.016,1.0936 -358.832,2.5014 -322.143,9.8989 27.737,5.5926 75.488,6.3279 425.23,6.5486 296.646,0.1871 331.594,0.5812 356.025,4.0147 14.9,2.094 27.09,4.4361 27.09,5.2047 0,0.7686 -101.283,1.4027 -225.073,1.4091 -257.025,0.013 -347.84,2.2234 -347.84,8.4652 0,7.2898 72.151,8.5884 540.175,9.7221 546.096,1.3229 672.774,-0.3875 902.973,-12.1915 111.404,-5.7126 198.776,-8.7343 276.519,-9.5632 l 113.654,-1.2119 v 5.4123 c 0,4.5813 -8.796,5.5866 -57.291,6.5476 -31.51,0.6244 -83.298,1.6515 -115.085,2.2825 -31.787,0.631 -116.11,4.3218 -187.385,8.2018 -71.274,3.88 -172.331,8.1632 -224.57,9.5183 -110.168,2.8578 -761.074,4.2272 -1036.194,2.18 z m 417.2,-129.2618 c 5.449,-1.1214 -36.47,-4.8194 -93.155,-8.2178 -94.889,-5.6887 -112.137,-6.0636 -217.447,-4.7271 -130.523,1.6565 -160.242,6.0399 -78.951,11.6447 52.955,3.651 372.939,4.7191 389.553,1.3002 z m -5717.03,66.0565 4.479,-35.9122 626.856,-0.5454 626.857,-0.5452 44.27,6.1598 c 144.198,20.0641 497.471,20.6359 698.389,1.1304 l 75.136,-7.2944 568.402,0.5474 568.402,0.5474 4.478,35.9122 4.479,35.9123 h -1613.113 -1613.114 z m 1359.822,-37.7121 c -7.2,-1.5624 -35.742,-4.3123 -63.427,-6.1108 -27.685,-1.7986 -77.406,-7.0808 -110.491,-11.7383 -47.896,-6.7429 -60.153,-10.1435 -60.153,-16.6898 0,-7.4167 -7.304,-8.8606 -74.614,-14.7506 -88.554,-7.7489 -107.259,-12.9659 -94.73,-26.4206 8.591,-9.2262 4.457,-10.8502 -51.248,-20.1319 -55.667,-9.2752 -58.454,-10.3683 -34.276,-13.4433 32.395,-4.1203 60.624,-2.2039 131.364,8.918 43.463,6.8335 49.847,9.4771 49.871,20.651 0.01,7.0479 6.226,14.0373 13.803,15.532 29.061,5.7329 65.513,1.3835 92.568,-11.0451 18.671,-8.577 36.299,-12.7155 56.257,-13.207 49.883,-1.2283 60.362,2.4257 40.589,14.1522 l -18.609,11.0355 67.28,7.8218 c 65.536,7.6191 67.279,8.1711 67.279,21.3039 0,11.0172 7.629,14.912 41.728,21.3026 39.533,7.4092 40.261,8.0266 13.832,11.7408 -33.127,4.6556 -49.342,4.9167 -67.023,1.0796 z m -80.831,-33.592 c 12.607,-4.1785 -5.375,-9.7353 -28.397,-8.7754 -28.977,1.2082 -33.392,11.8982 -4.914,11.8982 13.139,0 28.129,-1.4052 33.311,-3.1228 z m 532.531,21.1687 c -14.286,-3.9876 -10.247,-6.1938 22.607,-12.3513 32.904,-6.1667 38.632,-9.3066 32.29,-17.701 -7.733,-10.235 26.825,-23.3854 61.453,-23.3854 8.564,0 27.459,-2.3075 41.988,-5.1277 22.218,-4.3127 23.56,-6.8221 8.441,-15.788 -21.026,-12.4697 -15.902,-14.2521 37.257,-12.9597 33.206,0.8073 42.618,2.8841 59.834,13.202 24.341,14.5879 5.914,22.5137 -67.88,29.1967 -37.248,3.3733 -46.893,5.8347 -46.694,11.9167 0.275,8.4019 23.15,14.7344 43.874,12.1454 7.241,-0.9047 20.679,-6.4906 29.861,-12.4132 14.979,-9.6616 23.811,-11.2675 85.937,-15.6262 l 69.242,-4.858 v -14.0095 c 0,-11.9868 7.084,-15.4301 49.061,-23.8486 54.691,-10.9681 86.891,-13.5047 123.021,-9.6909 33.302,3.515 31.479,4.5093 -24.761,13.5101 -44.258,7.083 -49.107,9.334 -49.107,22.7943 0,12.1527 -6.218,15.7841 -33.376,19.4915 -18.356,2.506 -39.065,4.5563 -46.02,4.5563 -32.822,0 -84.294,8.999 -84.294,14.7372 0,14.7198 -130.013,33.0466 -189.725,26.7438 -18.742,-1.9783 -29.868,-1.7884 -53.312,0.9101 -39.264,4.5193 -49.059,4.3163 -69.697,-1.4446 z m -216.698,-34.9768 c -36.289,-2.6829 -76.218,-14.1149 -76.218,-21.822 0,-3.0672 21.423,-14.1052 47.607,-24.5288 70.509,-28.0694 77.182,-36.4984 35.742,-45.1439 -45.861,-9.5677 -43.616,-22.1073 6.68,-37.3054 52.899,-15.9849 51.888,-24.3466 -8.185,-67.6609 -26.996,-19.4655 -49.089,-36.6718 -49.095,-38.2364 0,-1.624 28.104,0.386 65.511,4.6842 50.776,5.8343 79.328,7.5271 126.86,7.5212 33.735,0 245.487,-4.2476 470.56,-9.4298 1125.86,-25.92236 1217.187,-27.27893 1342.253,-19.93769 250.36,14.69599 201.395,55.83419 -78.053,65.57649 -47.1,1.6421 -439.206,10.6128 -871.346,19.9351 -447.473,9.653 -801.564,18.267 -822.539,20.0101 -43.108,3.5823 -46.061,7.9738 -12.277,18.2575 13.505,4.1107 24.554,13.1677 24.554,20.1267 0,10.6579 -6.335,13.4583 -40.179,17.7627 -22.098,2.8106 -47.879,5.1101 -57.291,5.1101 -28.852,0 -19.132,14.5439 25.044,37.4737 51.241,26.597 46.89,38.2327 -16.906,45.212 -48.136,5.266 -68.14,5.6911 -112.722,2.3951 z m 754.67,-184.9243 c 276.749,-3.3875 635.769,-7.6681 797.821,-9.5124 342.87,-3.9021 412.636,-6.7261 456.481,-18.4775 60.977,-16.3433 -32.697,-30.3747 -202.762,-30.37176 -91.438,0.002 -1649.153,33.51926 -1683.59,36.22616 -22.942,1.8033 -24.641,15.6537 -2.816,22.9545 20.419,6.8308 8.675,6.846 634.866,-0.819 z m 3573.544,158.8961 c -47.786,-7.7265 -43.383,-19.1001 17.156,-44.313 l 51.081,-21.2741 -45.944,-6.0991 c -58.267,-7.7351 -75.355,-26.586 -33.443,-36.8941 37.109,-9.1269 33.036,-12.3806 -19.854,-15.8591 -25.402,-1.6707 -428.182,-11.0763 -895.066,-20.9014 -466.884,-9.825 -878.349,-18.9867 -914.367,-20.3591 -90.344,-3.4426 -182.73,-15.1573 -205.867,-26.1043 -33.514,-15.8567 28.163,-32.30711 151.79,-40.48506 113.951,-7.53787 222.962,-6.09561 1120.241,14.82121 481.273,11.21915 838.031,18.60095 859.369,17.78145 20.066,-0.7706 56.663,-3.8038 81.327,-6.7406 24.664,-2.9367 47.945,-4.93932 51.735,-4.4503 3.791,0.4891 -15.218,20.0201 -42.241,43.4023 l -49.133,42.5132 38.32,10.4161 c 53.956,14.6665 51.111,29.5603 -7.71,40.3554 l -44.353,8.1402 50.498,22.4045 c 55.473,24.6118 54.67,34.4465 -3.583,43.8653 -44.222,7.1502 -114.976,7.0532 -159.956,-0.2195 z m 52.542,-159.8678 c 33.524,-4.2638 50.274,-22.171 23.879,-25.5281 -21.498,-2.7342 -1676.107,-40.20647 -1775.34,-40.20647 -174.908,0 -302.104,17.94457 -241.787,34.11077 48.065,12.8823 71.315,13.4655 890.13,22.3253 633.048,6.8498 970.596,10.6638 1060.496,11.9827 10.61,0.1557 29.79,-1.0522 42.622,-2.6842 z m -547.92,155.4643 c -58.334,-7.9546 -80.125,-13.97 -87.268,-24.0905 -3.902,-5.5289 -16.654,-9.4576 -34.993,-10.7808 -15.87,-1.145 -49.396,-4.5861 -74.503,-7.6469 -40.647,-4.9553 -45.648,-7.0261 -45.648,-18.9004 0,-11.4531 -7.222,-14.7221 -51.167,-23.1601 -49.259,-9.4584 -50.022,-9.935 -20.461,-12.7819 43.078,-4.1488 48.667,-3.9287 93.322,3.6764 53.572,9.1235 76.972,19.2779 72.717,31.5554 -2.801,8.0799 2.853,10.6919 27.04,12.4912 84.635,6.2962 111.808,11.0036 125.059,21.665 7.421,5.9709 28.653,13.5638 47.181,16.8732 37.9,6.7694 45.189,16.8246 12.197,16.8246 -11.82,0 -40.384,-2.5763 -63.476,-5.7252 z m 156.018,-12.2206 c -36.199,-6.0363 -46.543,-10.2841 -51.962,-21.3392 -6.317,-12.8873 -10.974,-14.2993 -70.219,-21.29 -51.566,-6.0846 -63.453,-8.9246 -63.453,-15.1604 0,-11.0411 40.077,-22.1126 80.044,-22.1126 45.904,0 49.597,1.7035 29.91,13.7951 l -17.376,10.6723 68.294,8.2627 c 65.145,7.8818 68.293,8.831 68.293,20.593 0,9.8176 8.59,13.9379 42.149,20.2192 33.693,6.3063 38.217,8.4916 22.55,10.8927 -31.076,4.7622 -59.668,3.5648 -108.23,-4.5328 z m 868.717,0.2588 c -7.833,-3.9697 1.75,-6.9345 40.611,-12.5637 33.235,-4.8142 50.864,-9.5788 50.864,-13.7469 0,-9.3802 41.769,-18.8656 106.578,-24.2029 56.074,-4.6179 57.111,-4.9621 57.111,-18.9579 0,-13.1525 4.542,-15.0111 58.744,-24.0395 60.323,-10.0479 95.301,-11.4019 127.347,-4.9299 14.396,2.9076 7.192,4.962 -38.355,10.9387 -54.162,7.1072 -55.943,7.8591 -52.124,21.9971 4.258,15.7586 7.198,15.0832 -130.081,29.8841 -17.054,1.8386 -31.168,5.9193 -31.366,9.0681 -0.521,8.3032 -53.944,22.0011 -106.19,27.228 -57.879,5.7904 -70.583,5.6872 -83.139,-0.6752 z m -201.792,-3.9621 c -14.878,-2.2801 -9.984,-4.6027 22.549,-10.6999 22.854,-4.2832 41.846,-9.2964 42.203,-11.1404 4.341,-22.3674 11.164,-25.4846 73.583,-33.6146 60.667,-7.9017 61.759,-8.3127 43.112,-16.2285 -19.14,-8.125 -25.414,-17.0067 -12.013,-17.0067 46.032,0 87.693,4.9194 105.431,12.4493 27.144,11.5226 10.274,19.9513 -57.079,28.5175 -49.356,6.2773 -55.471,8.2947 -55.471,18.3004 0,12.9107 -20.244,20.9744 -69.419,27.6509 -39.745,5.3963 -65.981,5.8967 -92.896,1.772 z"
             id="path7401" />
        </g>
      </g>
    </g>
  </g>
</svg>
