<?xml version="1.0" encoding="UTF-8" standalone="no"?>
<!-- Created with Inkscape (http://www.inkscape.org/) -->

<svg
   width="24"
   height="24"
   viewBox="0 0 24 24"
   version="1.1"
   id="svg5"
   inkscape:version="1.1.1 (3bf5ae0d25, 2021-09-20)"
   sodipodi:docname="Gas inflamable sga.svg"
   xmlns:inkscape="http://www.inkscape.org/namespaces/inkscape"
   xmlns:sodipodi="http://sodipodi.sourceforge.net/DTD/sodipodi-0.dtd"
   xmlns="http://www.w3.org/2000/svg"
   xmlns:svg="http://www.w3.org/2000/svg">
  <g
     inkscape:label="Capa 1"
     inkscape:groupmode="layer"
     id="layer1"
     transform="translate(15.946791,28.864379)">
    <g
       id="g4409"
       transform="matrix(0.12812239,0,0,0.12708914,-207.56124,-4.2074214)" />
    <g
       id="g8377"
       transform="matrix(0.12593574,0,0,0.12593482,-1.2835278,-30.645189)">
      <path
         style="fill:#f6a59f;stroke-width:0.264583"
         d="m -68.506595,156.67063 c -25.803899,-25.79356 -47.163155,-47.23662 -47.465015,-47.65122 l -0.54883,-0.75383 47.066378,-47.086948 c 25.886508,-25.897823 47.406039,-47.334096 47.82118,-47.636162 l 0.754801,-0.549212 47.465512,47.465512 c 26.10603,26.106031 47.465509,47.64237 47.465509,47.85854 0,0.51518 -94.733168,95.25072 -95.248344,95.25072 -0.217254,0 -21.507291,-21.10383 -47.311191,-46.8974 z M 18.754145,148.1387 58.572397,108.31979 18.887312,68.631405 C -2.9394844,46.802798 -20.917229,28.943026 -21.063234,28.943026 c -0.346532,0 -79.508826,79.160104 -79.508826,79.506634 0,0.26008 79.115354,79.50795 79.375,79.50795 0.07312,0 18.0511662,-17.91851 39.951205,-39.81891 z m -66.885788,1.666 c -0.434007,-0.43401 -0.434007,-5.54558 0,-5.97959 0.460772,-0.46077 57.1125611,-0.46077 57.573333,0 0.4340066,0.43401 0.4340066,5.54558 0,5.97959 -0.4607719,0.46077 -57.112561,0.46077 -57.573333,0 z m 35.577639,-11.50056 c -0.361746,-0.36174 -0.130484,-0.60716 1.74184,-1.84841 1.0550259,-0.69943 3.2279165,-2.51688 4.8286457,-4.03879 2.5764146,-2.44954 3.0967256,-3.10299 4.5338629,-5.69394 0.89289734,-1.60977 1.51971113,-2.96595 1.39292015,-3.01375 -0.12679098,-0.0478 -0.60037133,0.17644 -1.05240405,0.49832 -1.3550318,0.96486 -3.7599752,1.57296 -6.2208674,1.57296 -2.5311418,0 -2.7356863,-0.21531 -1.3982568,-1.47185 2.7774186,-2.60945 4.9937035,-7.68836 4.9937035,-11.44375 0,-0.99708 -0.07461,-1.88748 -0.1657985,-1.97867 -0.091189,-0.0912 -0.4228968,0.21639 -0.7371345,0.68351 -0.314235,0.46711 -1.5030926,1.46151 -2.6419042,2.20977 -1.1388117,0.74825 -2.7453198,2.02818 -3.5700148,2.84427 -0.824699,0.81609 -1.644827,1.4838 -1.822508,1.4838 -0.242848,0 -0.323057,-1.22973 -0.323057,-4.95301 0,-4.64439 -0.05165,-5.16659 -0.828963,-8.38058 -0.750544,-3.10332 -0.977501,-3.65471 -2.39916,-5.828756 -1.471583,-2.250387 -3.768201,-4.914736 -4.23641,-4.914736 -0.11461,0 -0.208383,1.330158 -0.208383,2.955906 0,2.935563 -0.01103,2.987493 -1.604762,7.544496 -0.882621,2.52372 -1.670994,4.99672 -1.751944,5.49555 -0.08095,0.49883 0.06271,2.40908 0.319241,4.24499 0.323025,2.31178 0.381789,3.42265 0.191146,3.61329 -0.190646,0.19065 -1.157928,-0.21906 -3.14625,-1.33263 -2.443126,-1.36829 -3.018153,-1.82128 -3.858586,-3.03967 -0.543189,-0.78747 -1.127474,-1.77234 -1.298413,-2.18862 -0.268836,-0.65466 -0.324414,-0.6854 -0.411618,-0.22769 -0.05545,0.29105 -0.286277,1.3272 -0.51295,2.30257 -0.379934,1.63483 -0.376883,1.88292 0.03906,3.175 0.638196,1.98249 2.046309,4.49296 3.719558,6.63144 0.789992,1.00965 1.436351,1.93558 1.436351,2.05764 0,0.47421 -0.58578,0.51602 -3.091011,0.22064 -2.933422,-0.34587 -4.887275,-0.93947 -6.338755,-1.92578 -0.545158,-0.37044 -1.035465,-0.62926 -1.089575,-0.57515 -0.05411,0.0541 0.399428,1.27134 1.007856,2.70497 0.921237,2.17069 1.525122,3.10396 3.611086,5.58075 2.375839,2.82096 2.622963,3.03077 4.797938,4.07353 1.405636,0.67392 3.309168,1.31483 4.918552,1.65606 2.897473,0.61434 3.687704,1.2248 1.563769,1.20802 -0.70335,-0.006 -3.541006,-0.17287 -6.305902,-0.37182 l -5.027083,-0.36172 -3.9883,-1.69366 c -3.038152,-1.29017 -4.687006,-2.18737 -6.921167,-3.76606 l -2.932866,-2.07242 -1.849914,-3.33658 c -1.793034,-3.23401 -1.927077,-3.60911 -4.359637,-12.20013 -2.536516,-8.95817 -3.356896,-12.81268 -2.83754,-13.33204 0.32685,-0.32685 2.900243,2.12806 4.399719,4.19715 0.543282,0.74966 1.711029,1.90724 2.594994,2.5724 1.444556,1.08699 1.830734,1.24111 3.815865,1.52294 1.214761,0.17245 2.274713,0.2475 2.355448,0.16676 0.08074,-0.0807 -0.344302,-1.24981 -0.944536,-2.59794 -2.661639,-5.9781 -2.879976,-6.94839 -3.230729,-14.357401 -0.137782,-2.910416 -0.328184,-6.333463 -0.423116,-7.606771 -0.141986,-1.904439 -0.105963,-2.315104 0.203065,-2.315104 0.642998,0 3.529226,3.175617 5.629362,6.19379 1.104683,1.587577 2.424904,3.169447 2.933827,3.51527 1.04022,0.706848 1.090197,0.614374 0.528442,-0.97781 -0.763768,-2.164752 -0.461648,-8.869519 0.688213,-15.273025 0.280228,-1.560569 0.280884,-2.282767 0.0036,-3.933135 -0.214723,-1.277895 -0.247145,-2.114106 -0.08813,-2.27312 0.159012,-0.159012 0.815706,-0.10423 1.78512,0.148918 2.323066,0.606637 3.817472,2.198418 4.846437,5.162227 0.434885,1.25263 0.92084,3.141179 1.079899,4.196774 0.290513,1.927963 2.014228,5.970609 2.479622,5.815478 0.371632,-0.123878 1.920952,-3.897794 2.415032,-5.882659 0.744347,-2.990252 1.20455,-8.109127 1.207384,-13.429782 0.0024,-4.347334 0.08307,-5.299324 0.650835,-7.672917 0.921264,-3.851397 1.835031,-6.39857 2.330064,-6.495161 0.497274,-0.09703 0.51104,-0.05461 1.400186,4.314526 0.672256,3.303373 0.802754,3.633423 3.295287,8.334375 4.489085,8.466474 7.0824754,16.924212 6.370471,20.775796 -0.157226,0.850517 -0.285866,1.823779 -0.285866,2.162808 0,0.608938 0.01204,0.611433 0.9921872,0.205644 0.5457031,-0.225925 1.4378596,-0.853537 1.9825679,-1.394698 0.8519265,-0.846373 1.1164517,-1.427504 1.8921518,-4.156842 0.5733759,-2.017443 1.0112375,-4.329147 1.2023619,-6.347915 0.5532729,-5.843929 0.69732,-5.903773 3.0251083,-1.256771 l 1.68983286,3.373437 0.46330129,4.101042 c 0.64825295,5.738162 0.43103795,9.779487 -0.66900954,12.447133 -0.43637994,1.058233 -0.74774425,1.969738 -0.69191717,2.025563 0.0558244,0.05583 0.80409786,-0.31028 1.66282686,-0.813568 2.1970153,-1.287634 4.0037835,-3.327707 5.4670722,-6.17302 1.3514414,-2.627831 1.569376,-2.892007 1.9716353,-2.389966 0.4061407,0.506889 1.6521401,5.060414 2.1892761,8.000734 l 0.483338,2.645833 -0.810146,3.439587 c -0.8709209,3.69762 -1.6556168,5.50588 -3.7121596,8.55433 -0.7197249,1.06685 -1.2414673,2.00687 -1.1594253,2.0889 0.082039,0.082 1.1195209,-0.12713 2.305513,-0.46482 1.4822779,-0.42206 2.6299689,-0.96265 3.6714479,-1.72935 1.318827,-0.97086 1.538306,-1.26048 1.694244,-2.23566 0.227975,-1.42568 0.656587,-2.25307 0.992926,-1.91673 0.160202,0.1602 0.10524,2.2733 -0.150421,5.78309 -0.388216,5.32956 -0.449467,5.68131 -1.684576,9.67407 -1.149027,3.71449 -1.496766,4.48603 -3.3590812,7.45294 -1.9924553,3.17424 -2.1741976,3.37662 -4.44618,4.95107 -3.76040651,2.60589 -7.5104519,4.33064 -10.5379732,4.84671 -2.5684586,0.4378 -6.3437456,0.58362 -6.6697626,0.2576 z"
         id="path8391" />
      <path
         style="fill:#f3847c;stroke-width:0.264583"
         d="m -68.888481,156.0089 -47.558579,-47.55913 47.625,-47.624452 47.625,-47.62445 47.625,47.62445 47.625,47.624452 -47.558579,47.55913 c -26.15721633,26.15752 -47.618356,47.55913 -47.691421,47.55913 -0.07306,0 -21.534205,-21.40161 -47.691421,-47.55913 z m 87.843143,-7.54243 c 21.863844,-21.86564 39.752445,-39.8737 39.752445,-40.0179 0,-0.43045 -79.472333,-79.770128 -79.903508,-79.770128 -0.431612,0 -79.904829,79.338598 -79.904829,79.769468 0,0.43247 79.470999,79.77429 79.90417,79.77429 0.219604,0 18.2878783,-17.89008 40.151722,-39.75573 z m -67.086305,1.33823 c -0.434007,-0.43401 -0.434007,-5.54558 0,-5.97959 0.460772,-0.46077 57.1125611,-0.46077 57.573333,0 0.4340066,0.43401 0.4340066,5.54558 0,5.97959 -0.4607719,0.46077 -57.112561,0.46077 -57.573333,0 z m 35.577639,-11.50056 c -0.361957,-0.36196 -0.130201,-0.60722 1.74184,-1.84336 1.0550259,-0.69665 3.2279165,-2.5104 4.8286457,-4.03055 2.5851405,-2.45502 3.0918573,-3.09195 4.5338629,-5.699 0.89289734,-1.61429 1.51971113,-2.97418 1.39292015,-3.02198 -0.12679098,-0.0478 -0.60037133,0.17644 -1.05240405,0.49832 -1.3194506,0.93953 -3.7650314,1.57296 -6.0729627,1.57296 -1.2205361,0 -2.1513826,-0.11958 -2.2566471,-0.2899 -0.098544,-0.15945 0.3508507,-0.84406 0.9986486,-1.52136 2.016207,-2.10802 2.8328302,-3.49859 3.7859203,-6.44679 0.7159916,-2.21478 0.9196202,-3.28515 0.9196202,-4.83393 0,-1.0941 -0.089297,-1.98852 -0.1984375,-1.9876 -0.1091406,7.9e-4 -0.3943615,0.34609 -0.6338226,0.76704 -0.2394611,0.42095 -1.3705549,1.38772 -2.5135417,2.14837 -1.1429867,0.76065 -2.8103036,2.0968 -3.7051512,2.96921 -0.905348,0.88266 -1.756169,1.50638 -1.918229,1.40622 -0.194749,-0.12036 -0.293267,-1.81835 -0.297365,-5.12531 -0.0058,-4.71908 -0.04629,-5.10341 -0.884018,-8.40073 -0.76472,-3.00997 -1.058196,-3.72621 -2.276655,-5.556247 -1.341665,-2.015083 -3.864906,-4.878975 -4.298638,-4.878975 -0.114112,0 -0.207475,1.318257 -0.207475,2.929461 0,2.901085 -0.01551,2.973875 -1.599891,7.514471 -0.87994,2.52175 -1.668314,5.00666 -1.751944,5.522 -0.08363,0.51535 0.05784,2.4391 0.31437,4.27501 0.323025,2.31178 0.381789,3.42265 0.191146,3.61329 -0.190646,0.19065 -1.157928,-0.21805 -3.14625,-1.32934 -2.947723,-1.64753 -3.978474,-2.69246 -5.092637,-5.1627 -0.316579,-0.7019 -0.38776,-0.74637 -0.474615,-0.29657 -0.0562,0.29105 -0.287642,1.3272 -0.514315,2.30257 -0.379934,1.63483 -0.376883,1.88292 0.03906,3.175 0.638196,1.98249 2.046309,4.49296 3.719558,6.63144 0.789992,1.00965 1.436351,1.93558 1.436351,2.05764 0,0.47231 -0.587515,0.52209 -2.962764,0.25104 -2.806002,-0.32022 -5.23543,-1.08083 -6.513468,-2.03927 -0.482499,-0.36185 -0.944047,-0.59113 -1.025655,-0.50951 -0.08161,0.0816 0.359942,1.31402 0.981226,2.73869 0.911723,2.09068 1.609728,3.16528 3.618706,5.57111 2.436786,2.91814 2.541731,3.00538 4.99345,4.15108 1.483937,0.69344 3.363561,1.33234 4.613061,1.56801 1.15979,0.21874 2.318771,0.51564 2.575515,0.65977 1.002628,0.56286 -0.5357,0.6159 -6.348738,0.21891 l -5.884458,-0.40187 -4.021278,-1.70672 c -3.137093,-1.33145 -4.662143,-2.16579 -6.935946,-3.79459 l -2.914671,-2.08788 -1.835875,-3.30729 c -1.766644,-3.18258 -1.927566,-3.63 -4.267504,-11.86533 -2.518077,-8.86228 -3.43108,-13.12061 -2.922217,-13.62947 0.335489,-0.33549 2.884291,2.08685 4.407786,4.18908 0.543282,0.74966 1.711029,1.90724 2.594994,2.5724 1.444556,1.08699 1.830734,1.24111 3.815865,1.52294 1.214761,0.17245 2.27443,0.24778 2.354824,0.16739 0.08039,-0.0804 -0.338672,-1.24947 -0.931252,-2.59795 -2.709989,-6.16686 -2.879923,-6.92821 -3.234245,-14.490312 -0.132958,-2.837657 -0.324345,-6.201172 -0.425307,-7.47448 -0.154866,-1.953154 -0.122158,-2.315104 0.209203,-2.315104 0.643716,0 3.672988,3.367008 5.832073,6.482292 1.177962,1.699649 2.355366,3.097919 2.830219,3.361132 0.958067,0.531058 1.018656,0.330652 0.416248,-1.376757 -0.754047,-2.137196 -0.459336,-8.531358 0.69175,-15.008442 0.276559,-1.556171 0.276564,-2.287416 3.5e-5,-3.933135 -0.214723,-1.277895 -0.247145,-2.114106 -0.08813,-2.27312 0.159012,-0.159012 0.815706,-0.10423 1.78512,0.148918 2.315266,0.604599 3.813247,2.19637 4.858068,5.162227 0.44128,1.25263 0.876445,2.991885 0.967036,3.86501 0.172064,1.658411 2.112172,6.303471 2.569152,6.151142 0.368506,-0.122835 1.812091,-3.560016 2.361181,-5.621975 0.785331,-2.949102 1.264846,-8.061027 1.270418,-13.543479 0.0057,-5.59004 0.180983,-6.739494 1.757749,-11.525793 0.576043,-1.748586 1.074589,-2.844271 1.294167,-2.844271 0.428485,0 0.435195,0.02212 1.323843,4.365625 0.674838,3.298447 0.810194,3.640434 3.29869,8.334375 1.966325,3.708991 3.009821,6.080594 4.307385,9.789584 2.066385,5.906614 2.4875938,8.284229 2.01477,11.372911 -0.178321,1.164858 -0.262469,2.179675 -0.186997,2.255147 0.28906,0.289058 1.9821289,-0.668795 2.9545441,-1.671534 0.8612426,-0.8881 1.1476276,-1.506678 1.8772902,-4.054851 0.5439542,-1.899645 0.9789531,-4.22474 1.1813064,-6.314173 0.5811996,-6.001332 0.699942,-6.055791 3.0286457,-1.389062 l 1.68334798,3.373437 0.47130229,4.101042 c 0.65760333,5.722173 0.44191503,9.765152 -0.66404596,12.447133 -0.43637994,1.058233 -0.74774425,1.969738 -0.69191717,2.025563 0.0558244,0.05583 0.80409786,-0.31028 1.66282686,-0.813568 2.2433016,-1.314762 4.0756734,-3.382507 5.4860693,-6.190771 1.2950507,-2.578603 1.5439681,-2.880641 1.954993,-2.372215 0.416687,0.515433 1.8594993,5.909001 2.2658233,8.470171 0.365098,2.301319 0.360965,2.351966 -0.475134,5.820833 -0.9017528,3.74125 -1.5732997,5.28032 -3.6431536,8.34948 -0.7194947,1.06685 -1.2396364,2.00828 -1.1558694,2.09205 0.283046,0.28304 4.2495682,-1.02558 5.476984,-1.80695 1.610989,-1.02555 1.984888,-1.49044 2.211056,-2.74915 0.104109,-0.5794 0.312161,-1.28305 0.462339,-1.56366 0.615397,-1.14988 0.709212,0.43278 0.337034,5.68568 -0.369007,5.20808 -0.427882,5.54444 -1.672387,9.55454 -1.154681,3.72067 -1.505246,4.49822 -3.3437985,7.4165 -1.9378083,3.07582 -2.1839687,3.35157 -4.3557586,4.87933 -3.7396473,2.63068 -7.6173145,4.43399 -10.6324665,4.94463 -2.5724697,0.43567 -6.3450414,0.57981 -6.6700044,0.25485 z"
         id="path8389" />
      <path
         style="fill:#a4a4a4;stroke-width:0.264583"
         d="M -68.954352,155.74439 -116.31477,108.45071 -68.755914,60.957697 -21.19706,13.464689 26.361794,60.957787 73.920648,108.45089 26.558679,155.74488 c -26.04908421,26.01169 -47.539865,47.29381 -47.757292,47.29359 -0.217427,-2.2e-4 -21.707509,-21.28256 -47.755739,-47.29408 z M 19.018734,148.40328 59.101579,108.31977 19.151896,68.366817 C -2.8204299,46.392691 -20.976773,28.413859 -21.195533,28.413859 c -0.519481,0 -79.905697,79.384051 -79.905697,79.903511 0,0.34678 79.558537,80.16941 79.90417,80.16941 0.07312,0 18.1702287,-18.03757 40.215794,-40.0835 z m -67.150377,1.40142 c -0.434007,-0.43401 -0.434007,-5.54558 0,-5.97959 0.460772,-0.46077 57.1125611,-0.46077 57.573333,0 0.4340066,0.43401 0.4340066,5.54558 0,5.97959 -0.4607719,0.46077 -57.112561,0.46077 -57.573333,0 z m 35.577639,-11.50056 c -0.361957,-0.36196 -0.130201,-0.60722 1.74184,-1.84336 1.0550259,-0.69665 3.2279165,-2.5104 4.8286457,-4.03055 2.5851405,-2.45502 3.0918573,-3.09195 4.5338629,-5.699 0.89289734,-1.61429 1.51971113,-2.97418 1.39292015,-3.02198 -0.12679098,-0.0478 -0.60037133,0.17644 -1.05240405,0.49832 -1.3194506,0.93953 -3.7650314,1.57296 -6.0729627,1.57296 -1.2205361,0 -2.1513826,-0.11958 -2.2566471,-0.2899 -0.098544,-0.15945 0.3508507,-0.84406 0.9986486,-1.52136 2.016207,-2.10802 2.8328302,-3.49859 3.7859203,-6.44679 0.7159916,-2.21478 0.9196202,-3.28515 0.9196202,-4.83393 0,-1.0941 -0.089297,-1.98852 -0.1984375,-1.9876 -0.1091406,7.9e-4 -0.3943615,0.34609 -0.6338226,0.76704 -0.2394611,0.42095 -1.3705549,1.38772 -2.5135417,2.14837 -1.1429867,0.76065 -2.8103036,2.0968 -3.7051512,2.96921 -0.905348,0.88266 -1.756169,1.50638 -1.918229,1.40622 -0.194749,-0.12036 -0.293267,-1.81835 -0.297365,-5.12531 -0.0058,-4.71908 -0.04629,-5.10341 -0.884018,-8.40073 -0.76472,-3.00997 -1.058196,-3.72621 -2.276655,-5.556247 -1.341665,-2.015083 -3.864906,-4.878975 -4.298638,-4.878975 -0.114112,0 -0.207475,1.318257 -0.207475,2.929461 0,2.901085 -0.01551,2.973875 -1.599891,7.514471 -0.87994,2.52175 -1.668314,5.00666 -1.751944,5.522 -0.08363,0.51535 0.05784,2.4391 0.31437,4.27501 0.323025,2.31178 0.381789,3.42265 0.191146,3.61329 -0.190646,0.19065 -1.157928,-0.21805 -3.14625,-1.32934 -2.947723,-1.64753 -3.978474,-2.69246 -5.092637,-5.1627 -0.316579,-0.7019 -0.38776,-0.74637 -0.474615,-0.29657 -0.0562,0.29105 -0.287642,1.3272 -0.514315,2.30257 -0.379934,1.63483 -0.376883,1.88292 0.03906,3.175 0.638196,1.98249 2.046309,4.49296 3.719558,6.63144 0.789992,1.00965 1.436351,1.93558 1.436351,2.05764 0,0.47231 -0.587515,0.52209 -2.962764,0.25104 -2.806002,-0.32022 -5.23543,-1.08083 -6.513468,-2.03927 -0.482499,-0.36185 -0.944047,-0.59113 -1.025655,-0.50951 -0.08161,0.0816 0.359942,1.31402 0.981226,2.73869 0.911723,2.09068 1.609728,3.16528 3.618706,5.57111 2.436786,2.91814 2.541731,3.00538 4.99345,4.15108 1.483937,0.69344 3.363561,1.33234 4.613061,1.56801 1.15979,0.21874 2.318771,0.51564 2.575515,0.65977 1.002628,0.56286 -0.5357,0.6159 -6.348738,0.21891 l -5.884458,-0.40187 -4.021278,-1.70672 c -3.137093,-1.33145 -4.662143,-2.16579 -6.935946,-3.79459 l -2.914671,-2.08788 -1.835875,-3.30729 c -1.766644,-3.18258 -1.927566,-3.63 -4.267504,-11.86533 -2.518077,-8.86228 -3.43108,-13.12061 -2.922217,-13.62947 0.335489,-0.33549 2.884291,2.08685 4.407786,4.18908 0.543282,0.74966 1.711029,1.90724 2.594994,2.5724 1.444556,1.08699 1.830734,1.24111 3.815865,1.52294 1.214761,0.17245 2.27443,0.24778 2.354824,0.16739 0.08039,-0.0804 -0.338672,-1.24947 -0.931252,-2.59795 -2.709989,-6.16686 -2.879923,-6.92821 -3.234245,-14.490312 -0.132958,-2.837657 -0.324345,-6.201172 -0.425307,-7.47448 -0.154866,-1.953154 -0.122158,-2.315104 0.209203,-2.315104 0.643716,0 3.672988,3.367008 5.832073,6.482292 1.177962,1.699649 2.355366,3.097919 2.830219,3.361132 0.958067,0.531058 1.018656,0.330652 0.416248,-1.376757 -0.754047,-2.137196 -0.459336,-8.531358 0.69175,-15.008442 0.276559,-1.556171 0.276564,-2.287416 3.5e-5,-3.933135 -0.214723,-1.277895 -0.247145,-2.114106 -0.08813,-2.27312 0.159012,-0.159012 0.815706,-0.10423 1.78512,0.148918 2.315266,0.604599 3.813247,2.19637 4.858068,5.162227 0.44128,1.25263 0.876445,2.991885 0.967036,3.86501 0.172064,1.658411 2.112172,6.303471 2.569152,6.151142 0.368506,-0.122835 1.812091,-3.560016 2.361181,-5.621975 0.785331,-2.949102 1.264846,-8.061027 1.270418,-13.543479 0.0057,-5.59004 0.180983,-6.739494 1.757749,-11.525793 0.576043,-1.748586 1.074589,-2.844271 1.294167,-2.844271 0.428485,0 0.435195,0.02212 1.323843,4.365625 0.674838,3.298447 0.810194,3.640434 3.29869,8.334375 1.966325,3.708991 3.009821,6.080594 4.307385,9.789584 2.066385,5.906614 2.4875938,8.284229 2.01477,11.372911 -0.178321,1.164858 -0.262469,2.179675 -0.186997,2.255147 0.28906,0.289058 1.9821289,-0.668795 2.9545441,-1.671534 0.8612426,-0.8881 1.1476276,-1.506678 1.8772902,-4.054851 0.5439542,-1.899645 0.9789531,-4.22474 1.1813064,-6.314173 0.5811996,-6.001332 0.699942,-6.055791 3.0286457,-1.389062 l 1.68334798,3.373437 0.47130229,4.101042 c 0.65760333,5.722173 0.44191503,9.765152 -0.66404596,12.447133 -0.43637994,1.058233 -0.74774425,1.969738 -0.69191717,2.025563 0.0558244,0.05583 0.80409786,-0.31028 1.66282686,-0.813568 2.2433016,-1.314762 4.0756734,-3.382507 5.4860693,-6.190771 1.2950507,-2.578603 1.5439681,-2.880641 1.954993,-2.372215 0.416687,0.515433 1.8594993,5.909001 2.2658233,8.470171 0.365098,2.301319 0.360965,2.351966 -0.475134,5.820833 -0.9017528,3.74125 -1.5732997,5.28032 -3.6431536,8.34948 -0.7194947,1.06685 -1.2396364,2.00828 -1.1558694,2.09205 0.283046,0.28304 4.2495682,-1.02558 5.476984,-1.80695 1.610989,-1.02555 1.984888,-1.49044 2.211056,-2.74915 0.104109,-0.5794 0.312161,-1.28305 0.462339,-1.56366 0.615397,-1.14988 0.709212,0.43278 0.337034,5.68568 -0.369007,5.20808 -0.427882,5.54444 -1.672387,9.55454 -1.154681,3.72067 -1.505246,4.49822 -3.3437985,7.4165 -1.9378083,3.07582 -2.1839687,3.35157 -4.3557586,4.87933 -3.7396473,2.63068 -7.6173145,4.43399 -10.6324665,4.94463 -2.5724697,0.43567 -6.3450414,0.57981 -6.6700044,0.25485 z"
         id="path8387" />
      <path
         style="fill:#f05f55;stroke-width:0.264583"
         d="M -68.954352,155.74439 -116.31477,108.45071 -68.755914,60.957697 -21.19706,13.464689 26.361794,60.957787 73.920648,108.45089 26.558679,155.74488 c -26.04908421,26.01169 -47.539865,47.29381 -47.757292,47.29359 -0.217427,-2.2e-4 -21.707509,-21.28256 -47.755739,-47.29408 z M 19.018734,148.40328 59.101579,108.31977 19.151896,68.366817 C -2.8204299,46.392691 -20.976773,28.413859 -21.195533,28.413859 c -0.519481,0 -79.905697,79.384051 -79.905697,79.903511 0,0.34678 79.558537,80.16941 79.90417,80.16941 0.07312,0 18.1702287,-18.03757 40.215794,-40.0835 z m -66.885794,1.13683 c -0.430731,-0.43073 -0.430731,-5.01968 0,-5.45041 0.460745,-0.46075 56.5834212,-0.46075 57.0441667,0 0.430731,0.43073 0.430731,5.01968 0,5.45041 -0.4607455,0.46075 -56.5834217,0.46075 -57.0441667,0 z m 35.811574,-11.56699 c -0.08254,-0.13355 0.714105,-0.81698 1.770322,-1.51872 1.0562162,-0.70175 3.2300832,-2.5473 4.8308123,-4.10122 2.6937177,-2.61496 3.0356387,-3.06451 4.59224066,-6.03782 0.9250045,-1.76688 1.61737146,-3.27695 1.53859706,-3.35573 -0.0787744,-0.0788 -0.8355965,0.28311 -1.68182392,0.8042 -2.027092,1.24822 -3.7628619,1.74576 -6.1026596,1.74925 -1.055026,0.002 -1.9182292,-0.0517 -1.9182292,-0.11829 0,-0.0666 0.8352129,-1.16214 1.8560283,-2.43445 1.6519578,-2.05894 1.957414,-2.6269 2.778125,-5.16562 0.7870666,-2.43463 0.9220967,-3.21883 0.9220967,-5.35514 0,-1.37655 -0.1148238,-2.57379 -0.2551641,-2.66052 -0.1403403,-0.0867 -0.5448988,0.41225 -0.8990224,1.10886 -0.5310479,1.04466 -1.0542165,1.53033 -2.9859817,2.77199 -1.288169,0.82799 -2.8729281,2.04838 -3.5216911,2.71198 -0.648761,0.66361 -1.273839,1.20656 -1.389063,1.20656 -0.115221,0 -0.209494,-2.13554 -0.209494,-4.74565 0,-4.3619 -0.06486,-5.01978 -0.802069,-8.13594 -0.746778,-3.15657 -0.919033,-3.56644 -2.498706,-5.945499 -1.462299,-2.202283 -3.899522,-4.923218 -4.663086,-5.205902 -0.132881,-0.0492 -0.238223,1.311381 -0.238223,3.076853 v 3.165049 l -1.719791,4.948739 c -1.901796,5.47245 -1.954634,5.8781 -1.301102,9.98878 0.23028,1.44845 0.340281,2.71196 0.244446,2.80779 -0.317699,0.3177 -5.185111,-2.43752 -5.99557,-3.39381 -0.431651,-0.50932 -1.162867,-1.72971 -1.624922,-2.71198 -0.462058,-0.98226 -0.931143,-1.78593 -1.042416,-1.78593 -0.111271,0 -0.202311,0.42298 -0.202311,0.93995 0,0.51698 -0.188204,1.76743 -0.41823,2.77878 -0.404069,1.77655 -0.398454,1.89927 0.16577,3.6241 0.657156,2.00892 1.801098,4.03282 3.558918,6.29654 1.40018,1.80316 1.516224,2.33874 0.463854,2.14084 -0.400182,-0.0752 -1.441979,-0.21029 -2.315104,-0.30008 -2.147533,-0.22084 -4.630478,-1.05868 -5.932487,-2.00185 -1.062297,-0.76952 -1.605577,-0.96509 -1.610858,-0.57985 -0.0016,0.10914 0.554712,1.47696 1.236017,3.03959 1.027872,2.35751 1.659983,3.34837 3.713337,5.82083 2.360904,2.84279 2.586749,3.03598 4.915546,4.20481 1.342519,0.67382 3.15532,1.38808 4.028445,1.58725 l 1.5875,0.36211 -1.39914,0.0806 c -0.769528,0.0443 -3.033705,-0.0332 -5.031502,-0.17224 l -3.632362,-0.25283 -4.138162,-1.72322 c -3.377804,-1.40658 -4.660811,-2.10412 -6.982595,-3.79624 l -2.844435,-2.07303 -1.703327,-3.04271 c -1.60523,-2.86747 -1.848239,-3.54557 -4.219451,-11.77396 -2.440387,-8.46843 -3.431884,-12.95585 -2.931006,-13.26541 0.242864,-0.1501 2.551657,2.2633 4.079756,4.26459 0.45721,0.59879 1.528815,1.61601 2.381342,2.26049 1.261735,0.95383 1.894541,1.23249 3.402132,1.49816 1.018646,0.17951 2.247059,0.3311 2.729809,0.33688 0.79025,0.009 0.859325,-0.0488 0.6931,-0.58481 -0.101544,-0.32743 -0.522909,-1.26984 -0.936365,-2.09425 -2.355289,-4.69636 -3.412586,-9.296239 -3.412586,-14.846801 0,-1.441574 -0.134969,-4.04269 -0.299931,-5.780259 -0.164963,-1.737567 -0.221382,-3.237765 -0.125373,-3.333772 0.332171,-0.332171 3.384994,2.981762 5.358963,5.817323 1.816825,2.609826 3.405497,4.164317 4.255884,4.164317 0.421182,0 0.432472,0.100235 -0.193709,-1.719792 -0.901817,-2.621172 -0.57041,-10.257364 0.67896,-15.644554 0.334383,-1.441823 0.332341,-1.874639 -0.01667,-3.533743 -0.218736,-1.039871 -0.397708,-1.94242 -0.397708,-2.005669 0,-0.206597 1.433965,-0.117943 2.390505,0.147794 2.232385,0.620183 4.135782,3.982953 4.883095,8.627076 0.298452,1.854705 0.679098,3.055424 1.462667,4.613865 0.582572,1.158679 1.183729,2.106689 1.335905,2.106689 0.38169,0 2.002274,-3.631078 2.641787,-5.919184 0.820608,-2.936039 1.308958,-8.00811 1.308958,-13.595017 0,-4.085628 0.102364,-5.556708 0.515625,-7.409956 0.641543,-2.876973 1.909617,-6.545636 2.2625,-6.545636 0.145521,0 0.633087,1.726407 1.083482,3.836459 0.797242,3.734996 0.885907,3.961617 3.352522,8.568934 1.942811,3.628919 2.935007,5.880883 4.254918,9.657292 2.078125,5.945743 2.4502135,8.138993 1.9251,11.347368 -0.202488,1.237176 -0.256492,2.252141 -0.124179,2.333916 0.53259,0.329158 2.1033288,-0.532331 3.3230632,-1.822572 1.2036531,-1.273228 1.3650278,-1.608264 2.1291391,-4.420354 0.4547235,-1.67349 0.9595697,-4.411927 1.1218757,-6.085417 0.3510121,-3.619135 0.4632431,-4.233333 0.773557,-4.233333 0.129032,0 0.9552517,1.458515 1.8360443,3.241146 l 1.60143824,3.241146 0.43927448,4.207885 c 0.58721098,5.624976 0.37153058,9.279944 -0.70797473,11.99744 -1.11281899,2.801358 -1.06440819,2.911356 0.82431731,1.873022 2.3349876,-1.283666 4.6344787,-3.738232 6.0676578,-6.476855 0.6621622,-1.265309 1.3229934,-2.303163 1.4685143,-2.306341 0.591566,-0.01291 2.5196453,7.895074 2.5073873,10.284016 -0.0084,1.637133 -1.4002516,6.686367 -2.3703517,8.598957 -0.4797716,0.94589 -1.4510147,2.57762 -2.15832,3.62607 -1.1892307,1.76283 -1.511345,2.45935 -1.1373564,2.45935 0.081756,0 1.2426156,-0.31377 2.5796875,-0.69725 2.9091966,-0.8344 5.1137926,-2.26203 5.7848526,-3.74611 l 0.443397,-0.9806 0.01855,1.19062 c 0.01021,0.65485 -0.107151,2.85751 -0.260779,4.8948 -0.243027,3.22279 -0.445098,4.24023 -1.554937,7.82919 -1.14649,3.70748 -1.482953,4.45166 -3.324019,7.35195 -1.953805,3.07789 -2.1599419,3.30444 -4.4632589,4.90542 -3.85752181,2.68126 -6.9341921,4.0953 -10.1867679,4.68184 -2.9495644,0.53191 -5.9900612,0.65693 -6.2375492,0.25648 z"
         id="path8385" />
      <path
         style="fill:#ee4034;stroke-width:0.264583"
         d="M -68.557569,155.54606 -115.78523,108.31784 -68.491146,61.023756 -21.19706,13.729668 26.097026,61.023756 73.391111,108.31784 26.163449,155.54606 c -25.97521448,25.97552 -47.287442,47.22822 -47.360509,47.22822 -0.07307,0 -21.385295,-21.2527 -47.360509,-47.22822 z m 87.525304,-6.54834 C 40.842374,127.13321 58.864293,109.01966 59.016442,108.74537 59.259072,108.30798 54.37017,103.32336 19.24764,68.197973 -2.7773504,46.17119 -20.976781,28.149276 -21.195539,28.149276 c -0.627433,0 -80.170271,79.673454 -80.170271,80.301914 0,0.62519 79.544579,80.30017 80.168742,80.30017 0.216003,0 18.2901644,-17.88914 40.164803,-39.75364 z m -66.834795,0.54239 c -0.430731,-0.43073 -0.430731,-5.01968 0,-5.45041 0.460745,-0.46075 56.5834212,-0.46075 57.0441667,0 0.430731,0.43073 0.430731,5.01968 0,5.45041 -0.4607455,0.46075 -56.5834217,0.46075 -57.0441667,0 z m 35.811574,-11.56699 c -0.08254,-0.13355 0.714105,-0.81698 1.770322,-1.51872 1.0562162,-0.70175 3.2300832,-2.5473 4.8308123,-4.10122 2.6937177,-2.61496 3.0356387,-3.06451 4.59224066,-6.03782 0.9250045,-1.76688 1.61737146,-3.27695 1.53859706,-3.35573 -0.0787744,-0.0788 -0.8355965,0.28311 -1.68182392,0.8042 -2.027092,1.24822 -3.7628619,1.74576 -6.1026596,1.74925 -1.055026,0.002 -1.9182292,-0.0517 -1.9182292,-0.11829 0,-0.0666 0.8352129,-1.16214 1.8560283,-2.43445 1.6519578,-2.05894 1.957414,-2.6269 2.778125,-5.16562 0.7870666,-2.43463 0.9220967,-3.21883 0.9220967,-5.35514 0,-1.37655 -0.1148238,-2.57379 -0.2551641,-2.66052 -0.1403403,-0.0867 -0.5448988,0.41225 -0.8990224,1.10886 -0.5310479,1.04466 -1.0542165,1.53033 -2.9859817,2.77199 -1.288169,0.82799 -2.8729281,2.04838 -3.5216911,2.71198 -0.648761,0.66361 -1.273839,1.20656 -1.389063,1.20656 -0.115221,0 -0.209494,-2.13554 -0.209494,-4.74565 0,-4.3619 -0.06486,-5.01978 -0.802069,-8.13594 -0.746778,-3.15657 -0.919033,-3.56644 -2.498706,-5.945499 -1.462299,-2.202283 -3.899522,-4.923218 -4.663086,-5.205902 -0.132881,-0.0492 -0.238223,1.311381 -0.238223,3.076853 v 3.165049 l -1.719791,4.948739 c -1.901796,5.47245 -1.954634,5.8781 -1.301102,9.98878 0.23028,1.44845 0.340281,2.71196 0.244446,2.80779 -0.317699,0.3177 -5.185111,-2.43752 -5.99557,-3.39381 -0.431651,-0.50932 -1.162867,-1.72971 -1.624922,-2.71198 -0.462058,-0.98226 -0.931143,-1.78593 -1.042416,-1.78593 -0.111271,0 -0.202311,0.42298 -0.202311,0.93995 0,0.51698 -0.188204,1.76743 -0.41823,2.77878 -0.404069,1.77655 -0.398454,1.89927 0.16577,3.6241 0.657156,2.00892 1.801098,4.03282 3.558918,6.29654 1.40018,1.80316 1.516224,2.33874 0.463854,2.14084 -0.400182,-0.0752 -1.441979,-0.21029 -2.315104,-0.30008 -2.147533,-0.22084 -4.630478,-1.05868 -5.932487,-2.00185 -1.062297,-0.76952 -1.605577,-0.96509 -1.610858,-0.57985 -0.0016,0.10914 0.554712,1.47696 1.236017,3.03959 1.027872,2.35751 1.659983,3.34837 3.713337,5.82083 2.360904,2.84279 2.586749,3.03598 4.915546,4.20481 1.342519,0.67382 3.15532,1.38808 4.028445,1.58725 l 1.5875,0.36211 -1.39914,0.0806 c -0.769528,0.0443 -3.033705,-0.0332 -5.031502,-0.17224 l -3.632362,-0.25283 -4.138162,-1.72322 c -3.377804,-1.40658 -4.660811,-2.10412 -6.982595,-3.79624 l -2.844435,-2.07303 -1.703327,-3.04271 c -1.60523,-2.86747 -1.848239,-3.54557 -4.219451,-11.77396 -2.440387,-8.46843 -3.431884,-12.95585 -2.931006,-13.26541 0.242864,-0.1501 2.551657,2.2633 4.079756,4.26459 0.45721,0.59879 1.528815,1.61601 2.381342,2.26049 1.261735,0.95383 1.894541,1.23249 3.402132,1.49816 1.018646,0.17951 2.247059,0.3311 2.729809,0.33688 0.79025,0.009 0.859325,-0.0488 0.6931,-0.58481 -0.101544,-0.32743 -0.522909,-1.26984 -0.936365,-2.09425 -2.355289,-4.69636 -3.412586,-9.296239 -3.412586,-14.846801 0,-1.441574 -0.134969,-4.04269 -0.299931,-5.780259 -0.164963,-1.737567 -0.221382,-3.237765 -0.125373,-3.333772 0.332171,-0.332171 3.384994,2.981762 5.358963,5.817323 1.816825,2.609826 3.405497,4.164317 4.255884,4.164317 0.421182,0 0.432472,0.100235 -0.193709,-1.719792 -0.901817,-2.621172 -0.57041,-10.257364 0.67896,-15.644554 0.334383,-1.441823 0.332341,-1.874639 -0.01667,-3.533743 -0.218736,-1.039871 -0.397708,-1.94242 -0.397708,-2.005669 0,-0.206597 1.433965,-0.117943 2.390505,0.147794 2.232385,0.620183 4.135782,3.982953 4.883095,8.627076 0.298452,1.854705 0.679098,3.055424 1.462667,4.613865 0.582572,1.158679 1.183729,2.106689 1.335905,2.106689 0.38169,0 2.002274,-3.631078 2.641787,-5.919184 0.820608,-2.936039 1.308958,-8.00811 1.308958,-13.595017 0,-4.085628 0.102364,-5.556708 0.515625,-7.409956 0.641543,-2.876973 1.909617,-6.545636 2.2625,-6.545636 0.145521,0 0.633087,1.726407 1.083482,3.836459 0.797242,3.734996 0.885907,3.961617 3.352522,8.568934 1.942811,3.628919 2.935007,5.880883 4.254918,9.657292 2.078125,5.945743 2.4502135,8.138993 1.9251,11.347368 -0.202488,1.237176 -0.256492,2.252141 -0.124179,2.333916 0.53259,0.329158 2.1033288,-0.532331 3.3230632,-1.822572 1.2036531,-1.273228 1.3650278,-1.608264 2.1291391,-4.420354 0.4547235,-1.67349 0.9595697,-4.411927 1.1218757,-6.085417 0.3510121,-3.619135 0.4632431,-4.233333 0.773557,-4.233333 0.129032,0 0.9552517,1.458515 1.8360443,3.241146 l 1.60143824,3.241146 0.43927448,4.207885 c 0.58721098,5.624976 0.37153058,9.279944 -0.70797473,11.99744 -1.11281899,2.801358 -1.06440819,2.911356 0.82431731,1.873022 2.3349876,-1.283666 4.6344787,-3.738232 6.0676578,-6.476855 0.6621622,-1.265309 1.3229934,-2.303163 1.4685143,-2.306341 0.591566,-0.01291 2.5196453,7.895074 2.5073873,10.284016 -0.0084,1.637133 -1.4002516,6.686367 -2.3703517,8.598957 -0.4797716,0.94589 -1.4510147,2.57762 -2.15832,3.62607 -1.1892307,1.76283 -1.511345,2.45935 -1.1373564,2.45935 0.081756,0 1.2426156,-0.31377 2.5796875,-0.69725 2.9091966,-0.8344 5.1137926,-2.26203 5.7848526,-3.74611 l 0.443397,-0.9806 0.01855,1.19062 c 0.01021,0.65485 -0.107151,2.85751 -0.260779,4.8948 -0.243027,3.22279 -0.445098,4.24023 -1.554937,7.82919 -1.14649,3.70748 -1.482953,4.45166 -3.324019,7.35195 -1.953805,3.07789 -2.1599419,3.30444 -4.4632589,4.90542 -3.85752181,2.68126 -6.9341921,4.0953 -10.1867679,4.68184 -2.9495644,0.53191 -5.9900612,0.65693 -6.2375492,0.25648 z"
         id="path8383" />
      <path
         style="fill:#616161;stroke-width:0.264583"
         d="m -47.86706,149.54011 c -0.430731,-0.43073 -0.430731,-5.01968 0,-5.45041 0.460745,-0.46075 56.5834212,-0.46075 57.0441667,0 0.430731,0.43073 0.430731,5.01968 0,5.45041 -0.4607455,0.46075 -56.5834217,0.46075 -57.0441667,0 z m 35.811574,-11.56699 c -0.08254,-0.13355 0.714105,-0.81698 1.770322,-1.51872 1.0562162,-0.70175 3.2300832,-2.5473 4.8308123,-4.10122 2.6937177,-2.61496 3.0356387,-3.06451 4.59224066,-6.03782 0.9250045,-1.76688 1.61737146,-3.27695 1.53859706,-3.35573 -0.0787744,-0.0788 -0.8355965,0.28311 -1.68182392,0.8042 -2.027092,1.24822 -3.7628619,1.74576 -6.1026596,1.74925 -1.055026,0.002 -1.9182292,-0.0517 -1.9182292,-0.11829 0,-0.0666 0.8352129,-1.16214 1.8560283,-2.43445 1.6519578,-2.05894 1.957414,-2.6269 2.778125,-5.16562 0.7870666,-2.43463 0.9220967,-3.21883 0.9220967,-5.35514 0,-1.37655 -0.1148238,-2.57379 -0.2551641,-2.66052 -0.1403403,-0.0867 -0.5448988,0.41225 -0.8990224,1.10886 -0.5310479,1.04466 -1.0542165,1.53033 -2.9859817,2.77199 -1.288169,0.82799 -2.8729281,2.04838 -3.5216911,2.71198 -0.648761,0.66361 -1.273839,1.20656 -1.389063,1.20656 -0.115221,0 -0.209494,-2.13554 -0.209494,-4.74565 0,-4.3619 -0.06486,-5.01978 -0.802069,-8.13594 -0.746778,-3.15657 -0.919033,-3.56644 -2.498706,-5.945499 -1.462299,-2.202283 -3.899522,-4.923218 -4.663086,-5.205902 -0.132881,-0.0492 -0.238223,1.311381 -0.238223,3.076853 v 3.165049 l -1.719791,4.948739 c -1.901796,5.47245 -1.954634,5.8781 -1.301102,9.98878 0.23028,1.44845 0.340281,2.71196 0.244446,2.80779 -0.317699,0.3177 -5.185111,-2.43752 -5.99557,-3.39381 -0.431651,-0.50932 -1.162867,-1.72971 -1.624922,-2.71198 -0.462058,-0.98226 -0.931143,-1.78593 -1.042416,-1.78593 -0.111271,0 -0.202311,0.42298 -0.202311,0.93995 0,0.51698 -0.188204,1.76743 -0.41823,2.77878 -0.404069,1.77655 -0.398454,1.89927 0.16577,3.6241 0.657156,2.00892 1.801098,4.03282 3.558918,6.29654 1.40018,1.80316 1.516224,2.33874 0.463854,2.14084 -0.400182,-0.0752 -1.441979,-0.21029 -2.315104,-0.30008 -2.147533,-0.22084 -4.630478,-1.05868 -5.932487,-2.00185 -1.062297,-0.76952 -1.605577,-0.96509 -1.610858,-0.57985 -0.0016,0.10914 0.554712,1.47696 1.236017,3.03959 1.027872,2.35751 1.659983,3.34837 3.713337,5.82083 2.360904,2.84279 2.586749,3.03598 4.915546,4.20481 1.342519,0.67382 3.15532,1.38808 4.028445,1.58725 l 1.5875,0.36211 -1.39914,0.0806 c -0.769528,0.0443 -3.033705,-0.0332 -5.031502,-0.17224 l -3.632362,-0.25283 -4.138162,-1.72322 c -3.377804,-1.40658 -4.660811,-2.10412 -6.982595,-3.79624 l -2.844435,-2.07303 -1.703327,-3.04271 c -1.60523,-2.86747 -1.848239,-3.54557 -4.219451,-11.77396 -2.440387,-8.46843 -3.431884,-12.95585 -2.931006,-13.26541 0.242864,-0.1501 2.551657,2.2633 4.079756,4.26459 0.45721,0.59879 1.528815,1.61601 2.381342,2.26049 1.261735,0.95383 1.894541,1.23249 3.402132,1.49816 1.018646,0.17951 2.247059,0.3311 2.729809,0.33688 0.79025,0.009 0.859325,-0.0488 0.6931,-0.58481 -0.101544,-0.32743 -0.522909,-1.26984 -0.936365,-2.09425 -2.355289,-4.69636 -3.412586,-9.296239 -3.412586,-14.846801 0,-1.441574 -0.134969,-4.04269 -0.299931,-5.780259 -0.164963,-1.737567 -0.221382,-3.237765 -0.125373,-3.333772 0.332171,-0.332171 3.384994,2.981762 5.358963,5.817323 1.816825,2.609826 3.405497,4.164317 4.255884,4.164317 0.421182,0 0.432472,0.100235 -0.193709,-1.719792 -0.901817,-2.621172 -0.57041,-10.257364 0.67896,-15.644554 0.334383,-1.441823 0.332341,-1.874639 -0.01667,-3.533743 -0.218736,-1.039871 -0.397708,-1.94242 -0.397708,-2.005669 0,-0.206597 1.433965,-0.117943 2.390505,0.147794 2.232385,0.620183 4.135782,3.982953 4.883095,8.627076 0.298452,1.854705 0.679098,3.055424 1.462667,4.613865 0.582572,1.158679 1.183729,2.106689 1.335905,2.106689 0.38169,0 2.002274,-3.631078 2.641787,-5.919184 0.820608,-2.936039 1.308958,-8.00811 1.308958,-13.595017 0,-4.085628 0.102364,-5.556708 0.515625,-7.409956 0.641543,-2.876973 1.909617,-6.545636 2.2625,-6.545636 0.145521,0 0.633087,1.726407 1.083482,3.836459 0.797242,3.734996 0.885907,3.961617 3.352522,8.568934 1.942811,3.628919 2.935007,5.880883 4.254918,9.657292 2.078125,5.945743 2.4502135,8.138993 1.9251,11.347368 -0.202488,1.237176 -0.256492,2.252141 -0.124179,2.333916 0.53259,0.329158 2.1033288,-0.532331 3.3230632,-1.822572 1.2036531,-1.273228 1.3650278,-1.608264 2.1291391,-4.420354 0.4547235,-1.67349 0.9595697,-4.411927 1.1218757,-6.085417 0.3510121,-3.619135 0.4632431,-4.233333 0.773557,-4.233333 0.129032,0 0.9552517,1.458515 1.8360443,3.241146 l 1.60143824,3.241146 0.43927448,4.207885 c 0.58721098,5.624976 0.37153058,9.279944 -0.70797473,11.99744 -1.11281899,2.801358 -1.06440819,2.911356 0.82431731,1.873022 2.3349876,-1.283666 4.6344787,-3.738232 6.0676578,-6.476855 0.6621622,-1.265309 1.3229934,-2.303163 1.4685143,-2.306341 0.591566,-0.01291 2.5196453,7.895074 2.5073873,10.284016 -0.0084,1.637133 -1.4002516,6.686367 -2.3703517,8.598957 -0.4797716,0.94589 -1.4510147,2.57762 -2.15832,3.62607 -1.1892307,1.76283 -1.511345,2.45935 -1.1373564,2.45935 0.081756,0 1.2426156,-0.31377 2.5796875,-0.69725 2.9091966,-0.8344 5.1137926,-2.26203 5.7848526,-3.74611 l 0.443397,-0.9806 0.01855,1.19062 c 0.01021,0.65485 -0.107151,2.85751 -0.260779,4.8948 -0.243027,3.22279 -0.445098,4.24023 -1.554937,7.82919 -1.14649,3.70748 -1.482953,4.45166 -3.324019,7.35195 -1.953805,3.07789 -2.1599419,3.30444 -4.4632589,4.90542 -3.85752181,2.68126 -6.9341921,4.0953 -10.1867679,4.68184 -2.9495644,0.53191 -5.9900612,0.65693 -6.2375492,0.25648 z"
         id="path8381" />
      <path
         style="fill:#020202;stroke-width:0.264583"
         d="m -47.541903,149.24257 c -0.07448,-0.19409 -0.100714,-1.41502 -0.0583,-2.71319 l 0.0771,-2.36031 h 28.178125 28.1781253 v 2.64583 2.64584 l -28.1198213,0.0674 c -23.239645,0.0557 -28.143322,0.006 -28.25523,-0.28552 z m 36.147333,-11.48964 c 0.0071,-0.10915 0.766958,-0.73422 1.6885758,-1.38907 0.9216179,-0.65484 2.9472599,-2.41653 4.5014277,-3.91485 2.6140146,-2.5201 2.9651854,-2.98314 4.68646935,-6.17944 1.10204515,-2.04641 1.76366485,-3.55225 1.62269225,-3.69322 -0.14097266,-0.14097 -0.93498195,0.18234 -1.94739156,0.79295 -2.10468364,1.2694 -4.09523144,1.88206 -6.11478544,1.88206 -1.5892833,0 -1.8569675,-0.20108 -1.1016086,-0.8275 1.4281362,-1.18436 3.0134851,-3.83704 3.9211912,-6.56113 0.9004961,-2.70246 0.9466924,-3.01209 0.8754851,-5.86812 -0.088011,-3.53012 -0.4031853,-3.85823 -1.4983937,-1.55991 -0.5961962,1.25113 -0.9845013,1.64557 -2.7688936,2.81262 -1.1414972,0.74658 -2.6338665,1.90744 -3.3163805,2.57969 -0.682511,0.67225 -1.326136,1.22227 -1.430279,1.22227 -0.104143,0 -0.189349,-2.07079 -0.189349,-4.60175 0,-4.21017 -0.06832,-4.8876 -0.802852,-7.96118 -0.735631,-3.07816 -0.937757,-3.56238 -2.414055,-5.783153 -1.820572,-2.738665 -4.337061,-5.466419 -5.043041,-5.466419 -0.425693,0 -0.471302,0.305646 -0.471302,3.158424 v 3.158424 l -1.719792,4.958164 c -1.916993,5.52669 -2.029417,6.40836 -1.326475,10.4027 0.215924,1.22695 0.348456,2.27496 0.294513,2.32891 -0.05394,0.0539 -1.232559,-0.53322 -2.619147,-1.30479 -2.73834,-1.52377 -3.740558,-2.63143 -4.831655,-5.33994 -0.704942,-1.74993 -1.439111,-1.98229 -1.439111,-0.45548 0,0.58862 -0.198347,1.97288 -0.440769,3.07614 -0.415494,1.8909 -0.414105,2.09237 0.02424,3.51325 0.598503,1.94007 1.69699,3.92718 3.523102,6.37312 l 1.459867,1.95538 -2.217071,-0.19126 c -2.730156,-0.23554 -4.996576,-0.97042 -6.649452,-2.15608 -1.200092,-0.86086 -2.049913,-1.14675 -2.049913,-0.6896 0,0.1168 0.625078,1.65787 1.389063,3.42461 1.234646,2.85516 1.676193,3.55126 3.971978,6.26176 2.499614,2.95116 2.659613,3.08515 4.960937,4.15439 1.307912,0.60768 2.378022,1.21077 2.378022,1.3402 0,0.12943 -0.565547,0.17588 -1.25677,0.10322 -0.691224,-0.0727 -2.216397,-0.19672 -3.389268,-0.27569 -1.849903,-0.12456 -2.667204,-0.36792 -6.167448,-1.83641 -4.103005,-1.72137 -4.574138,-1.98896 -7.83463,-4.44977 -1.638149,-1.23636 -2.035014,-1.72538 -3.508608,-4.32335 -1.575509,-2.77765 -1.796955,-3.40092 -4.277249,-12.03854 -1.438643,-5.01008 -2.69984,-9.88315 -2.80266,-10.82903 l -0.186941,-1.71979 0.983194,0.92604 c 0.540756,0.50932 1.554856,1.67437 2.253552,2.589 0.698696,0.91463 2.024766,2.24296 2.946821,2.95184 1.521597,1.16983 1.871998,1.31639 3.793132,1.5866 1.164167,0.16374 2.387172,0.35639 2.71779,0.4281 1.001882,0.21729 0.983369,-0.55465 -0.06848,-2.85573 -2.760387,-6.03875 -3.575346,-9.596302 -3.575346,-15.60748 0,-1.579337 -0.126937,-4.009893 -0.282081,-5.401236 -0.155143,-1.391343 -0.212177,-2.599616 -0.126743,-2.68505 0.310505,-0.310504 2.596391,2.263222 4.766458,5.366663 1.600978,2.289577 2.547652,3.379364 3.391189,3.903853 1.953982,1.214938 2.172025,0.902663 1.24701,-1.785937 -0.887476,-2.579489 -0.562684,-9.769629 0.687221,-15.213542 0.327565,-1.426687 0.340476,-2.02442 0.07577,-3.507193 -0.175501,-0.98307 -0.252543,-1.853949 -0.171202,-1.935289 0.427728,-0.427729 2.255097,0.317672 3.396769,1.38557 1.461902,1.367438 2.421152,3.687016 2.996914,7.246898 0.271756,1.680236 0.681135,2.891089 1.587794,4.696354 0.671896,1.337826 1.324919,2.43241 1.45116,2.43241 0.377894,0 0.712126,-0.553852 1.676514,-2.778125 1.85189,-4.271225 2.851144,-10.907586 2.851144,-18.935373 0,-5.058021 0.288698,-6.699012 1.993466,-11.331144 0.225124,-0.611695 0.337921,-0.274206 1.0555,3.158099 0.649012,3.104319 0.835634,3.570248 3.210317,8.015068 1.828546,3.422589 2.994165,6.039535 4.242548,9.525 2.133513,5.956726 2.555328,8.400278 2.023449,11.72178 -0.198392,1.238925 -0.292743,2.362563 -0.209672,2.496977 0.452441,0.732062 2.6256592,-0.21421 4.1787978,-1.819545 0.8625893,-0.89158 1.1503078,-1.515507 1.90255,-4.125752 0.5650018,-1.960525 1.0000958,-4.249391 1.200269,-6.314173 0.1726988,-1.78137 0.4091993,-3.343285 0.5255578,-3.47092 0.1163558,-0.127638 0.8325352,1.003456 1.5915058,2.513541 1.22495993,2.437242 1.41931491,3.057626 1.73047285,5.523733 0.19279129,1.527969 0.35440144,4.749285 0.35913219,7.15848 l 0.008599,4.380357 -0.92604167,2.296544 c -0.50932292,1.2631 -0.92604167,2.417331 -0.92604167,2.564958 0,0.980078 3.8042982,-1.200796 5.8312394,-3.342852 0.8324215,-0.879697 1.9563979,-2.499286 2.603238,-3.751119 0.6260783,-1.211655 1.1909716,-2.150362 1.2553156,-2.086018 0.3110336,0.311034 1.6754609,5.706827 1.9656269,7.773316 0.313933,2.235753 0.296058,2.4735 -0.4143906,5.511547 -0.8181182,3.49845 -1.714672,5.50368 -3.9409503,8.81433 -0.8135858,1.20986 -1.4792457,2.31118 -1.4792457,2.44739 0,0.81487 5.4684163,-0.84186 7.3585866,-2.22937 1.722575,-1.26449 1.969103,-1.24224 1.794137,0.16192 -0.07706,0.61846 -0.215474,2.29785 -0.307573,3.73196 -0.131347,2.04528 -0.439023,3.48438 -1.426977,6.67444 -1.120331,3.61751 -1.485321,4.42584 -3.3027174,7.31439 -1.975194,3.13936 -2.1239031,3.30233 -4.4683866,4.89673 -3.79278348,2.57934 -6.9623278,4.00639 -10.2090828,4.59651 -2.8246785,0.51341 -5.3230672,0.65607 -5.3000802,0.30264 z"
         id="path8379" />
    </g>
  </g>
</svg>
