<?xml version="1.0" encoding="UTF-8" standalone="no"?>
<!-- Created with Inkscape (http://www.inkscape.org/) -->

<svg
   width="24"
   height="24"
   viewBox="0 0 24 24"
   version="1.1"
   id="svg5"
   inkscape:version="1.1.1 (3bf5ae0d25, 2021-09-20)"
   sodipodi:docname="Jaunes5-1.svg"
   xmlns:inkscape="http://www.inkscape.org/namespaces/inkscape"
   xmlns:sodipodi="http://sodipodi.sourceforge.net/DTD/sodipodi-0.dtd"
   xmlns="http://www.w3.org/2000/svg"
   xmlns:svg="http://www.w3.org/2000/svg">
  <g
     inkscape:label="Capa 1"
     inkscape:groupmode="layer"
     id="layer1"
     transform="translate(15.946791,28.864379)">
    <g
       id="g4409"
       transform="matrix(0.12812239,0,0,0.12708914,-207.56124,-4.2074214)" />
    <g
       id="g8877"
       transform="matrix(0.12558638,0,0,0.12558702,-0.76089414,-30.416228)">
      <path
         style="fill:#fef9a1;stroke-width:0.264583"
         d="m -73.360727,155.83052 -47.596043,-47.59822 0.54892,-0.75438 c 0.3019,-0.41491 21.797565,-21.993787 47.768145,-47.953055 l 47.219232,-47.198673 0.753832,0.548836 c 0.414608,0.30186 21.917192,21.720647 47.78352,47.597304 31.016559,31.028945 47.029688,47.227758 47.029688,47.575048 0,0.7302 -94.652804,95.38136 -95.383014,95.38136 -0.349584,0 -16.625306,-16.0978 -48.12428,-47.59822 z"
         id="path8891" />
      <path
         style="fill:#fef556;stroke-width:0.264583"
         d="m -72.993107,155.67136 -47.756833,-47.75738 47.69096,-47.690965 47.690963,-47.690962 47.757385,47.757383 47.757381,47.757384 -47.691511,47.69096 -47.691511,47.69096 z"
         id="path8889" />
      <path
         style="fill:#fdf000;stroke-width:0.264583"
         d="m -72.794857,155.60503 c -26.011696,-26.012 -47.293993,-47.41361 -47.293993,-47.55913 0,-0.34596 94.507711,-94.852572 94.853678,-94.852572 0.145521,0 21.5765221,21.312188 47.624447,47.360417 l 47.359864,47.360415 -47.492156,47.49271 c -26.120685,26.12099 -47.551935,47.49271 -47.625,47.49271 -0.07306,0 -21.415142,-21.28255 -47.42684,-47.29455 z"
         id="path8887" />
      <path
         style="fill:#a69e00;stroke-width:0.264583"
         d="m -67.664782,150.15094 c -36.760228,-36.76297 -41.863638,-41.96188 -41.620588,-42.39948 0.15236,-0.27432 19.023198,-19.237596 41.935199,-42.140623 36.728233,-36.713848 41.732147,-41.622873 42.283189,-41.481384 0.901314,0.231426 83.836465,83.247277 83.836465,83.918047 0,0.73071 -83.276551,84.00416 -84.00729,84.00416 -0.35083,0 -14.659957,-14.13164 -42.426975,-41.90072 z m 82.446958,-2.08593 c 21.864685,-21.86432 39.753974,-39.87238 39.753974,-40.0179 0,-0.14552 -17.948524,-18.213404 -39.885609,-40.150852 l -39.88561,-39.886265 -40.018557,40.017903 -40.018554,40.017904 39.885606,39.88626 c 21.937086,21.93745 40.004672,39.88627 40.150193,39.88627 0.145521,0 18.153872,-17.88899 40.018557,-39.75332 z m -50.763935,20.07371 c -2.296898,-0.82082 -3.50576,-2.42963 -3.35798,-4.46897 l 0.0811,-1.11913 2.161696,-0.0765 c 2.053754,-0.0727 2.170917,-0.0463 2.3464,0.52916 0.281646,0.92356 0.928962,1.53171 1.630354,1.53171 0.905997,0 1.931342,-1.12373 1.931342,-2.11666 0,-0.99529 -1.02602,-2.11667 -1.936668,-2.11667 -0.35079,0 -0.94053,0.23813 -1.310529,0.52917 -0.50011,0.39338 -1.073356,0.52916 -2.23407,0.52916 -2.589723,0 -2.556306,0.0954 -1.834221,-5.23778 0.340783,-2.51699 0.735853,-4.69258 0.877932,-4.83466 0.155117,-0.15512 2.2591,-0.2295 5.266172,-0.18617 l 5.007842,0.0722 0.0792,1.82839 c 0.05561,1.28383 -0.02318,1.89335 -0.264583,2.04647 -0.189082,0.11994 -1.730034,0.2199 -3.424333,0.22213 -2.395939,0.003 -3.112185,0.0865 -3.222916,0.37505 -0.210793,0.54932 0.0099,0.64715 1.122961,0.49786 2.391545,-0.32077 5.425336,1.33395 6.406851,3.49449 1.456229,3.20551 -0.444839,7.58275 -3.719328,8.56381 -1.333545,0.39954 -4.409588,0.36497 -5.607222,-0.063 z m 10.679888,-0.0748 c -0.227343,-0.0917 -0.330729,-0.82073 -0.330729,-2.33205 0,-2.54354 -0.02368,-2.5198 2.513542,-2.5198 2.536489,0 2.513541,-0.0229 2.513541,2.51354 0,1.75505 -0.08348,2.22438 -0.418515,2.35294 -0.493966,0.18955 -3.79984,0.17825 -4.277839,-0.0146 z m 10.570104,-0.14227 c -0.225517,-0.22552 -0.3175,-1.83187 -0.3175,-5.54466 v -5.22716 l -1.918229,-0.0777 -1.918229,-0.0777 -0.08072,-1.41054 c -0.09669,-1.6896 0.222448,-2.16134 1.46219,-2.16134 1.358424,0 2.518688,-0.66486 3.116443,-1.7858 0.498327,-0.93449 0.61137,-0.99702 1.939708,-1.07304 0.812551,-0.0465 1.569685,0.0514 1.785937,0.23084 0.507034,0.4208 0.561806,16.62326 0.0579,17.12717 -0.182803,0.1828 -1.058333,0.3175 -2.06375,0.3175 -1.005416,0 -1.880946,-0.1347 -2.06375,-0.3175 z M -39.867183,97.807078 c -0.449869,-0.449868 -0.424395,-4.291491 0.03096,-4.669404 0.204711,-0.169897 1.86718,-0.319696 4.029961,-0.363127 l 3.6815,-0.07393 -1.392118,-0.892604 c -2.956944,-1.895946 -5.491348,-5.694889 -6.254224,-9.37477 -0.211143,-1.018489 -0.652351,-2.167823 -1.015688,-2.645833 -1.731867,-2.278467 -2.264735,-4.538916 -2.56935,-10.899293 -0.125449,-2.619375 -0.314277,-5.744766 -0.419616,-6.945313 -0.233762,-2.664137 -0.07049,-2.734678 2.296517,-0.992187 0.889543,0.654843 1.724147,1.190625 1.854674,1.190625 0.130529,0 0.179771,-0.803672 0.109426,-1.785938 -0.300818,-4.200546 -0.3908,-8.797396 -0.172206,-8.797396 0.309004,0 1.94478,1.820183 2.807903,3.124449 0.37604,0.568232 0.951193,1.155025 1.278123,1.303983 l 0.594418,0.270836 -0.0071,-3.474115 c -0.0064,-3.129872 0.05353,-3.588059 0.604499,-4.624099 0.422402,-0.794271 0.587028,-1.489921 0.532225,-2.248958 -0.06265,-0.86769 0.0105,-1.098971 0.347631,-1.098971 0.556522,0 2.539468,2.404999 2.741549,3.325067 0.180014,0.819652 1.461733,2.892642 1.788496,2.892642 0.691602,0 2.044046,-6.014014 2.044046,-9.089409 0,-0.997929 0.166164,-2.486448 0.36925,-3.307817 0.203089,-0.82137 0.443482,-1.820821 0.534207,-2.221003 0.250357,-1.104287 0.886595,-0.89519 1.207606,0.396874 0.317796,1.27913 1.102405,3.638011 2.486149,7.47448 0.818383,2.268982 0.954644,2.973353 0.956673,4.945321 0.0024,2.399443 0.179581,2.802279 1.031584,2.346302 0.841626,-0.450424 1.625364,-1.998816 1.977525,-3.906901 0.227946,-1.23507 0.450966,-1.797222 0.712999,-1.797222 0.213498,0 0.995807,1.164365 1.777669,2.645833 l 1.396371,2.645833 -0.09324,2.844271 c -0.05128,1.564349 -0.05491,2.844271 -0.0081,2.844271 0.271997,0 2.203358,-1.969923 2.203358,-2.24735 0,-0.183528 0.162795,-0.468799 0.36177,-0.633933 0.519618,-0.431242 0.827217,0.03908 1.377481,2.106205 l 0.462778,1.738463 -0.705895,2.49487 c -0.388245,1.372179 -0.705107,2.584167 -0.704141,2.693307 0.0051,0.58074 1.044929,0.04059 2.1711865,-1.127879 1.2434597,-1.290066 1.2854411,-1.309952 1.5359989,-0.727604 0.7610343,1.768795 1.5862379,6.47001 1.5862379,9.036852 0,2.369696 -0.1100481,3.029461 -0.8932121,5.355005 -0.4912678,1.458778 -1.3754947,3.416938 -1.964952,4.351465 -0.5894546,0.934527 -1.2178902,2.294453 -1.3965242,3.022057 -0.81739,3.329366 -2.903503,6.471574 -5.640837,8.496523 l -1.747964,1.293061 3.621198,0.07393 c 2.118953,0.04326 3.765757,0.1939 3.96966,0.363127 0.455359,0.377913 0.4808331,4.219536 0.03096,4.669404 -0.458105,0.458105 -29.069395,0.458105 -29.5275,0 z m 18.839569,-9.96909 c 5.674267,-2.793434 7.037556,-10.033264 2.768817,-14.703946 -1.750299,-1.915105 -3.639826,-2.834315 -6.158474,-2.995951 -7.244104,-0.4649 -12.209298,6.603235 -9.251482,13.16982 2.175082,4.828855 7.880835,6.873566 12.641139,4.530077 z m 9.417931,-17.377328 v -1.999332 l -0.823254,0.477978 c -0.452787,0.26289 -0.87689,0.612852 -0.942448,0.777698 -0.09946,0.250081 1.431321,2.742991 1.684342,2.742991 0.04475,0 0.08136,-0.8997 0.08136,-1.999335 z m -24.785402,-1.57254 c -0.231498,-0.145521 -0.76717,-0.547288 -1.190385,-0.892818 -0.423214,-0.34553 -0.829029,-0.568685 -0.901813,-0.495904 -0.07278,0.07278 0.06931,0.93507 0.315759,1.91619 l 0.44809,1.783858 0.874625,-1.023372 c 0.760376,-0.88969 0.819645,-1.057934 0.453724,-1.287954 z m 4.214047,-2.635594 c 1.110367,-0.565288 1.146559,-0.664038 0.617996,-1.686166 -0.205806,-0.397986 -0.457182,-1.165979 -0.558612,-1.706655 -0.101431,-0.540674 -0.261557,-0.983044 -0.355833,-0.983044 -0.261967,0 -1.393442,4.4898 -1.207355,4.790895 0.08978,0.145267 0.24162,0.224965 0.337426,0.177107 0.09581,-0.04786 0.620675,-0.31432 1.166378,-0.592137 z m 15.268578,0.320489 c -0.216313,-1.287901 -1.027901,-4.028455 -1.211069,-4.089511 -0.244044,-0.08135 -1.728118,2.215947 -1.716146,2.656533 0.0066,0.242944 2.080504,1.406994 2.607596,1.463604 0.181901,0.01953 0.325728,0.0057 0.319619,-0.03063 z m -6.172001,-2.146979 c 0.01902,-0.01971 -0.199576,-1.047864 -0.485783,-2.284791 -0.286211,-1.236927 -0.565849,-2.492595 -0.621422,-2.79037 -0.05557,-0.297778 -0.516625,-1.012153 -1.024559,-1.5875 l -0.923515,-1.046089 -0.01101,0.998062 c -0.0068,0.619754 -0.412165,1.795909 -1.069348,3.10298 -0.599228,1.191805 -1.058333,2.485797 -1.058333,2.982918 v 0.877998 l 2.579687,-0.108688 c 1.418829,-0.05978 2.595256,-0.124812 2.614285,-0.14452 z"
         id="path8885" />
      <path
         style="fill:#857e00;stroke-width:0.264583"
         d="m -67.25267,150.31364 c -22.820466,-22.81039 -41.61626,-41.69788 -41.76844,-41.97219 -0.24271,-0.4375 4.85291,-5.62874 41.48862,-42.267187 22.970918,-22.972639 41.944557,-41.768435 42.163643,-41.768435 0.433689,0 83.873747,83.308252 83.873747,83.741252 0,0.43055 -83.440013,83.74 -83.871239,83.74 -0.217014,0 -19.065862,-18.66305 -41.886331,-41.47344 z m 82.167138,-2.11634 c 21.937445,-21.93708 39.886265,-40.00496 39.886265,-40.15085 0,-0.14588 -18.03782,-18.302763 -40.084049,-40.34863 l -40.084047,-40.083392 -40.150193,40.150194 -40.150194,40.150188 40.083392,40.08405 c 22.045867,22.04623 40.202456,40.08405 40.347977,40.08405 0.145521,0 18.2134032,-17.94852 40.150849,-39.88561 z m -49.420838,20.03052 c -2.453384,-0.33461 -4.140894,-1.68175 -4.583804,-3.65926 -0.394718,-1.76234 -0.264575,-1.88565 1.99027,-1.88565 1.953882,0 1.972088,0.006 2.24848,0.79934 0.521467,1.49588 1.954633,1.74306 3.153759,0.54393 0.527844,-0.52784 0.773398,-1.03834 0.773398,-1.60785 0,-1.02697 -1.247177,-2.38125 -2.192925,-2.38125 -0.355369,0 -0.948856,0.23812 -1.318855,0.52916 -0.796716,0.6267 -3.641309,0.75865 -4.112609,0.19077 -0.199943,-0.24092 -0.131784,-1.47951 0.236604,-4.29948 0.284601,-2.17859 0.577265,-4.22897 0.650369,-4.55639 0.132093,-0.59164 0.163732,-0.59531 5.126649,-0.59531 5.517425,0 5.314934,-0.067 5.314934,1.75882 0,1.86504 -0.158758,1.94534 -3.845766,1.94534 h -3.297984 v 0.76125 c 0,0.74571 0.02432,0.75851 1.190564,0.62706 1.522804,-0.17164 3.309012,0.33083 4.663181,1.31178 3.531973,2.55855 2.350143,8.95837 -1.884995,10.20757 -1.414515,0.41722 -2.64546,0.51009 -4.11127,0.31017 z m 9.25364,-0.59902 c -0.07771,-0.2025 -0.105669,-1.18981 -0.06214,-2.19401 l 0.07915,-1.82584 h 2.116667 2.116666 v 2.11667 2.11667 l -2.054526,0.0773 c -1.565029,0.0589 -2.088187,-0.0104 -2.195812,-0.29083 z m 10.598325,0.0267 c -0.06966,-0.18832 -0.157231,-2.66412 -0.194609,-5.50178 l -0.06796,-5.15937 -1.852083,-0.13229 -1.852084,-0.13229 v -1.45521 -1.45521 l 1.341673,-0.16377 c 1.796302,-0.21925 2.391244,-0.58039 3.03502,-1.8423 l 0.541962,-1.06234 1.509424,0.079 1.509421,0.079 v 8.46667 8.46667 l -1.922055,0.0778 c -1.388612,0.0562 -1.957207,-0.0172 -2.048708,-0.26458 z M -39.6026,97.542495 c -0.444085,-0.444085 -0.418817,-3.766953 0.03149,-4.140674 0.208717,-0.173217 1.936835,-0.319172 4.29948,-0.363125 l 3.950493,-0.07349 -1.910776,-1.272135 c -1.050925,-0.699672 -2.394275,-1.830766 -2.985219,-2.513542 -1.425718,-1.647261 -2.828907,-4.525102 -3.28938,-6.74628 -0.22538,-1.087159 -0.650062,-2.16355 -1.071731,-2.716387 -1.828353,-2.397096 -2.673956,-6.660433 -2.869383,-14.46676 -0.07195,-2.874037 -0.05183,-5.224238 0.04471,-5.222666 0.09654,0.0016 0.940829,0.53735 1.876198,1.190625 0.935368,0.653272 1.856806,1.18777 2.047636,1.18777 0.269299,0 0.319048,-0.518229 0.222248,-2.315104 -0.390319,-7.245554 -0.397677,-8.047408 -0.07285,-7.939135 0.177892,0.0593 0.947269,0.925917 1.709727,1.925822 1.195464,1.567765 2.180849,2.463546 2.748092,2.498207 0.08439,0.0052 0.14392,-1.627733 0.132291,-3.628644 -0.01913,-3.289562 0.03587,-3.744717 0.574167,-4.751959 0.341043,-0.638151 0.600377,-1.598732 0.607169,-2.248959 l 0.01185,-1.13502 1.112623,1.241499 c 0.611945,0.682826 1.316075,1.81392 1.564736,2.513542 0.24866,0.699625 0.80382,1.688761 1.233688,2.198084 l 0.781582,0.926042 0.5265,-1.218644 c 0.755422,-1.748502 1.631979,-6.322558 1.662245,-8.673926 0.02812,-2.184828 0.718166,-5.35552 1.199509,-5.511648 0.178668,-0.05795 0.489612,0.681033 0.77116,1.832722 0.259477,1.061406 0.816766,2.763267 1.23842,3.781913 1.335447,3.226204 2.056659,6.112822 2.056659,8.231682 0,2.3022 0.339016,2.510954 1.712589,1.054542 0.785321,-0.832681 1.726997,-3.272724 1.726997,-4.474935 0,-1.152583 0.824047,-0.18719 2.105932,2.467147 1.503884,3.114021 1.54785,3.447653 0.914916,6.942918 -0.09882,0.545703 -0.07479,0.991743 0.05339,0.991198 0.613299,-0.0026 2.006483,-1.151869 2.402144,-1.981576 0.243353,-0.510318 0.579482,-0.927851 0.746953,-0.927851 0.285224,0 1.185,2.700139 1.185,3.556068 0,0.213982 -0.309539,1.468165 -0.687864,2.787074 -0.774901,2.701435 -0.72305,3.381449 0.220917,2.897401 0.329581,-0.168999 1.0455458,-0.733906 1.5910319,-1.255344 0.632169,-0.604301 1.0836963,-0.856168 1.2452483,-0.694616 0.139401,0.139401 0.5561436,1.502844 0.9260946,3.029873 0.5023617,2.073582 0.6727242,3.483272 0.6729809,5.568704 2.646e-4,2.471997 -0.1021133,3.096517 -0.8928709,5.444609 -0.4912677,1.458778 -1.3775848,3.419271 -1.9695927,4.356651 -0.5920101,0.937379 -1.1985171,2.24932 -1.3477931,2.915422 -0.818896,3.654076 -3.199619,6.955375 -6.637319,9.203828 l -1.455208,0.951788 3.950494,0.07349 c 2.362644,0.04395 4.090762,0.189908 4.299479,0.363125 0.450302,0.373721 0.47557,3.696589 0.03148,4.140674 -0.458001,0.458001 -28.540331,0.458001 -28.998333,0 z m 18.445689,-9.351114 c 1.881023,-0.844153 4.001556,-2.94428 4.863923,-4.817123 0.472397,-1.025924 0.579104,-1.743308 0.580525,-3.902805 0.0016,-2.319277 -0.08582,-2.832634 -0.707636,-4.15934 -0.876306,-1.86967 -2.663743,-3.643971 -4.657016,-4.622792 -1.335493,-0.655809 -1.80734,-0.742868 -4.026318,-0.742868 -2.175277,0 -2.717774,0.09572 -4.031136,0.711245 -3.939384,1.846257 -6.295644,6.300885 -5.492406,10.383671 0.739761,3.760131 3.169642,6.518156 6.75205,7.663881 1.906151,0.609624 4.688832,0.396774 6.718014,-0.513869 z m 9.811811,-17.58347 c 0,-1.510405 -0.103217,-2.38125 -0.282236,-2.38125 -0.353089,0 -2.099014,1.315919 -2.099014,1.582045 0,0.326906 1.949852,3.180455 2.173229,3.180455 0.114411,0 0.208021,-1.071562 0.208021,-2.38125 z m -25.164494,-0.467042 c 0.570372,-0.780902 0.781558,-1.266505 0.580011,-1.333688 -0.174323,-0.05811 -0.857549,-0.518298 -1.518274,-1.022641 -0.660728,-0.504346 -1.268701,-0.849617 -1.35105,-0.767268 -0.249867,0.24987 0.796272,4.385596 1.1049,4.368012 0.158097,-0.009 0.691081,-0.568995 1.184413,-1.244415 z m 4.361378,-3.656619 c 1.34285,-0.750535 1.393518,-0.863256 0.857967,-1.908749 -0.20129,-0.392956 -0.517893,-1.399074 -0.703561,-2.235819 -0.185669,-0.836745 -0.4323,-1.521354 -0.548072,-1.521354 -0.115768,0 -0.287242,0.446484 -0.38105,0.992187 -0.09381,0.545704 -0.398854,1.755326 -0.677878,2.688051 -0.476668,1.5934 -0.470533,2.669762 0.01521,2.669762 0.117388,0 0.764207,-0.307835 1.437381,-0.684078 z m 14.96531,-1.967473 c -0.294188,-1.231709 -0.640453,-2.345042 -0.769483,-2.474071 -0.216186,-0.216186 -2.00148,2.246871 -2.181262,3.009347 -0.08703,0.369112 3.005024,2.129703 3.292819,1.874901 0.106045,-0.09389 -0.04789,-1.178465 -0.342074,-2.410177 z m -5.578467,0.129895 c 0.05121,-0.04944 -0.09135,-0.663157 -0.316786,-1.363808 -0.225438,-0.700652 -0.490913,-1.869224 -0.589941,-2.596828 -0.09903,-0.727604 -0.298186,-1.561041 -0.442566,-1.852083 -0.32574,-0.656611 -1.814743,-2.248958 -2.103004,-2.248958 -0.116975,0 -0.21268,0.478893 -0.21268,1.064207 0,0.714364 -0.347911,1.756166 -1.058333,3.169126 -0.916787,1.823397 -1.338797,3.598884 -0.948563,3.990798 0.126852,0.127397 5.532022,-0.02742 5.671873,-0.162454 z"
         id="path8883" />
      <path
         style="fill:#5f5a00;stroke-width:0.264583"
         d="m -67.238644,150.04874 c -22.955737,-22.95608 -41.737706,-41.85739 -41.737706,-42.00291 0,-0.3465 83.395577,-83.740002 83.742083,-83.740002 0.145978,0 19.0598053,18.795796 42.030724,41.768435 36.635711,36.638447 41.731327,41.829687 41.488622,42.267187 -0.394563,0.71124 -83.205773,83.44563 -83.523109,83.44563 -0.144597,0 -19.044875,-18.78225 -42.000614,-41.73834 z m 82.285406,-1.71915 c 22.010203,-22.00984 40.018555,-40.13696 40.018555,-40.28248 0,-0.34596 -79.954433,-80.301699 -80.300388,-80.301699 -0.345962,0 -80.301699,79.954429 -80.301699,80.300389 0,0.34596 79.954436,80.30169 80.300391,80.30169 0.145521,0 18.2729351,-18.00805 40.283141,-40.0179 z M -35.7643,167.83355 c -2.200138,-0.80748 -3.480943,-2.41865 -3.312078,-4.16637 l 0.08232,-0.85198 h 1.84427 c 1.621054,0 1.878486,0.0686 2.126996,0.5671 0.522081,1.04719 0.983509,1.41728 1.767067,1.41728 1.12331,0 1.794201,-0.44518 2.225117,-1.47651 0.327647,-0.78417 0.327647,-1.02532 0,-1.80949 -0.207915,-0.49761 -0.618405,-1.03339 -0.912199,-1.19062 -0.753414,-0.40322 -1.964108,-0.35487 -2.568911,0.10258 -0.330485,0.24996 -1.150313,0.39146 -2.299528,0.39687 -1.783284,0.008 -1.785937,0.007 -1.785937,-0.7353 0,-1.29684 1.049932,-8.34955 1.27676,-8.57638 0.119623,-0.11962 2.351836,-0.18489 4.960472,-0.14505 l 4.742976,0.0724 0.07877,1.65365 0.07877,1.65364 h -3.266998 c -3.456186,0 -3.902001,0.14053 -3.902001,1.23002 0,0.56125 0.101362,0.59327 1.785937,0.56418 2.181029,-0.0377 3.795136,0.60421 5.01595,1.99466 2.708944,3.08535 1.023212,8.40836 -2.982233,9.41694 -1.53189,0.38573 -3.72586,0.33364 -4.955521,-0.11766 z m 10.510276,-0.47271 c -0.07842,-0.20435 -0.106381,-1.0726 -0.06214,-1.92943 l 0.08044,-1.55787 h 2.116667 2.116666 v 1.85208 1.85208 l -2.054526,0.0773 c -1.573509,0.0592 -2.087907,-0.01 -2.197106,-0.29421 z m 10.656219,0.18326 c -0.102783,-0.10279 -0.186878,-2.54829 -0.186878,-5.43445 v -5.24757 h -1.687396 c -1.975959,0 -2.353445,-0.2981 -2.232282,-1.76284 0.08258,-0.99831 0.09534,-1.00869 1.665621,-1.35562 1.696154,-0.37474 2.349362,-0.81381 2.956017,-1.98695 0.360567,-0.69726 0.472284,-0.73637 1.891142,-0.66208 l 1.507939,0.0789 v 8.20208 8.20208 l -1.863643,0.0766 c -1.025003,0.0422 -1.947738,-0.007 -2.05052,-0.11024 z M -39.655517,95.485462 v -2.109946 l 4.101643,-0.07287 c 2.460654,-0.04371 4.124121,-0.178718 4.157829,-0.337447 0.0309,-0.145521 -0.475382,-0.554699 -1.12508,-0.909286 -3.166031,-1.72793 -6.167355,-5.970031 -6.960767,-9.838417 -0.205708,-1.002967 -0.645588,-2.134031 -1.028983,-2.645833 -1.110705,-1.48271 -1.443754,-2.355295 -2.007497,-5.259589 -0.354674,-1.827213 -0.590912,-4.40826 -0.690181,-7.540625 -0.08301,-2.619375 -0.22402,-5.149453 -0.313352,-5.622396 -0.102658,-0.543491 -0.05632,-0.859896 0.125934,-0.859896 0.158597,0 1.087236,0.535782 2.063647,1.190625 2.234943,1.498899 2.573451,1.52435 2.345711,0.176369 -0.212386,-1.257115 -0.63781,-9.130906 -0.501586,-9.283488 0.180234,-0.201883 1.416603,1.117713 2.219467,2.36887 0.753084,1.17358 1.673329,1.843458 2.532447,1.843458 0.31773,0 0.356174,-0.196935 0.19368,-0.992188 -0.111504,-0.545703 -0.199708,-2.06375 -0.196006,-3.373437 0.0058,-2.037623 0.114379,-2.618809 0.752713,-4.027472 0.413425,-0.912341 0.683427,-1.885431 0.60566,-2.182812 -0.08172,-0.31251 -0.01254,-0.533176 0.165637,-0.52841 0.414505,0.01109 1.917566,2.079646 2.112727,2.907598 0.222108,0.942277 1.745533,3.169637 2.167906,3.169637 0.821503,0 2.233647,-5.732044 2.25388,-9.148744 0.0117,-1.975037 0.758531,-5.66672 1.163135,-5.749492 0.136366,-0.0279 0.564615,1.020841 0.951664,2.330528 0.387045,1.309688 0.953195,2.940603 1.258109,3.624255 1.107583,2.483331 1.64333,4.82098 1.64333,7.170428 0,1.249029 0.115565,2.342385 0.256813,2.429681 0.440147,0.272027 1.783035,-0.602194 2.360636,-1.536771 0.30353,-0.491122 0.709726,-1.587997 0.902658,-2.437503 0.192934,-0.849506 0.466182,-1.583021 0.607218,-1.630032 0.141039,-0.04701 0.834221,1.088835 1.540407,2.524104 1.281248,2.604042 1.283658,2.614017 1.136333,4.699376 -0.0812,1.149387 -0.230474,2.357686 -0.331711,2.685108 -0.150783,0.487656 -0.08294,0.595312 0.375192,0.595312 0.656371,0 2.677454,-1.737516 2.677454,-2.301795 0,-0.895356 0.68661,-0.0578 1.12023,1.366509 0.453356,1.48912 0.451818,1.59199 -0.04912,3.286781 -0.916882,3.102049 -1.064218,4.017759 -0.670738,4.168751 0.468318,0.179711 1.391373,-0.315999 2.4444118,-1.31273 0.5222742,-0.494347 0.949788,-0.715825 1.0878423,-0.563562 0.125087,0.137961 0.4820417,1.288327 0.793234,2.556367 0.4290325,1.748218 0.5658036,3.12729 0.5658036,5.705054 0,3.047939 -0.078846,3.632785 -0.7623704,5.654916 -0.4193038,1.240465 -1.256337,3.037533 -1.8600764,3.993486 -0.6037399,0.955955 -1.2748369,2.43391 -1.4913289,3.284347 -0.915091,3.594748 -3.063772,6.601735 -6.213698,8.695801 -1.01623,0.67559 -1.780161,1.337614 -1.697619,1.471168 0.08254,0.133554 1.988516,0.242824 4.2355,0.242824 h 4.085426 v 2.116667 2.116666 H -25.103436 -39.65552 Z m 18.847673,-7.360285 c 2.121692,-1.045159 3.915958,-2.960526 4.760556,-5.081849 0.873876,-2.194867 0.823627,-5.440278 -0.115602,-7.466031 -1.899587,-4.097084 -6.320869,-6.537299 -10.461897,-5.774179 -8.790877,1.620004 -11.242961,12.687829 -3.926285,17.721834 1.790671,1.232013 3.201445,1.611312 5.718895,1.537573 1.939517,-0.05681 2.503506,-0.188177 4.024333,-0.937348 z M -11.3451,70.740203 c 0,-1.764625 -0.09366,-2.513542 -0.314357,-2.513542 -0.513471,0 -2.063128,1.161347 -2.065086,1.54762 -0.0024,0.469505 1.859645,3.479464 2.152468,3.479464 0.124835,0 0.226975,-1.131094 0.226975,-2.513542 z m -25.323736,-0.24883 c 1.016277,-1.215795 1.255574,-2.000128 0.610227,-2.000128 -0.204513,0 -0.889122,-0.433369 -1.521355,-0.963041 l -1.149511,-0.963039 -0.08681,0.730446 c -0.097,0.816205 0.704315,4.370634 0.985321,4.370634 0.09903,0 0.621986,-0.528693 1.162125,-1.174872 z m 5.843881,-4.669753 c 0.12805,-0.111292 -0.0079,-0.712875 -0.304089,-1.34552 -0.294626,-0.629327 -0.678701,-1.769676 -0.853498,-2.534108 -0.371197,-1.623348 -0.71936,-1.976704 -0.922287,-0.936048 -0.0792,0.406135 -0.338804,1.512332 -0.576905,2.458217 -0.6534,2.595698 -0.707991,3.144076 -0.355312,3.569028 0.279995,0.337373 0.486571,0.296032 1.551741,-0.310549 0.67581,-0.384852 1.332969,-0.79031 1.46035,-0.90102 z m 14.186125,0.883687 c -0.0035,-0.793152 -0.980356,-4.593981 -1.249945,-4.863571 -0.258712,-0.258712 -2.452158,2.7978 -2.452158,3.417025 0,0.292016 2.699573,1.788147 3.373437,1.869594 0.181901,0.02199 0.329801,-0.168386 0.328666,-0.423048 z m -6.253589,-2.502789 c -0.02088,-0.333335 -0.27396,-1.706835 -0.562425,-3.05222 -0.42977,-2.004444 -0.700836,-2.661378 -1.501124,-3.638021 -0.537154,-0.655526 -1.080439,-1.191866 -1.207301,-1.191866 -0.12686,0 -0.304742,0.565547 -0.395291,1.256771 -0.09055,0.691224 -0.633624,2.27071 -1.206836,3.509968 -1.728811,3.737615 -1.618689,3.939196 2.084491,3.815696 2.755307,-0.09189 2.825475,-0.109511 2.788486,-0.700328 z"
         id="path8881" />
      <path
         style="fill:#070700;stroke-width:0.264583"
         d="m -67.106352,149.91645 c -22.882979,-22.88332 -41.605418,-41.72511 -41.605418,-41.87063 0,-0.14552 18.752347,-19.016641 41.671878,-41.935825 L -25.368017,24.438749 16.43615,66.242286 58.240317,108.04583 16.502611,149.78416 c -22.9557398,22.95609 -41.797523,41.73833 -41.870628,41.73833 -0.07311,0 -18.855359,-18.72271 -41.738335,-41.60604 z m 82.285406,-1.45457 C 37.26202,126.37928 55.3299,108.19263 55.3299,108.0471 c 0,-0.4309 -80.263923,-80.566272 -80.695522,-80.566272 -0.48097,0 -80.110478,79.566102 -80.335298,80.271322 -0.12665,0.3973 8.058746,8.71754 40.020373,40.67969 22.098772,22.09913 40.298648,40.18024 40.444171,40.18024 0.145521,0 18.3324634,-18.06759 40.41543,-40.1502 z m -50.663668,19.24925 c -2.043703,-0.61537 -3.377153,-2.17253 -3.377153,-3.94373 v -0.81991 h 1.733556 c 1.690986,0 1.740397,0.0196 2.012204,0.79934 0.714451,2.04947 3.815119,1.61526 4.409842,-0.61754 0.632248,-2.37369 -1.920584,-4.23838 -3.959307,-2.89203 -0.510728,0.33728 -1.097505,0.43691 -2.182813,0.37064 -1.360247,-0.0831 -1.484315,-0.14311 -1.484315,-0.7185 0,-0.59357 0.630571,-5.60033 0.93943,-7.45909 l 0.142883,-0.8599 h 4.750509 4.750511 v 1.45521 1.45521 h -3.1561 c -3.486317,0 -4.088549,0.23787 -3.935868,1.55462 0.07793,0.67208 0.13988,0.69535 1.932593,0.72602 3.209663,0.0549 5.309463,1.41439 5.969265,3.86471 0.580631,2.1563 -0.374176,5.03906 -2.067682,6.24275 -1.40993,1.00213 -4.578297,1.41407 -6.477555,0.8422 z m 10.381181,-1.98551 v -1.71979 h 1.984375 1.984375 v 1.71979 1.71979 h -1.984375 -1.984375 z m 10.714087,1.40178 c -0.06984,-0.1889 -0.157596,-2.60563 -0.195013,-5.37053 l -0.06803,-5.02708 -1.852083,-0.1323 -1.852083,-0.13229 -0.07944,-1.08528 -0.07944,-1.08528 1.462426,-0.2937 c 1.797365,-0.36096 2.643923,-0.89183 3.07262,-1.92679 0.311769,-0.75268 0.397997,-0.78935 1.680403,-0.71471 l 1.351772,0.0787 v 7.9375 7.9375 l -1.65707,0.0789 c -1.175464,0.0559 -1.693976,-0.021 -1.784051,-0.26458 z M -39.390933,95.478745 v -1.852084 l 4.034896,-0.004 c 3.874092,-0.0039 4.9462,-0.171389 4.607258,-0.719807 -0.08629,-0.139618 -0.948947,-0.717066 -1.917018,-1.283213 -3.245249,-1.897893 -5.749493,-5.491742 -6.551511,-9.40209 -0.205709,-1.002967 -0.645589,-2.134032 -1.028984,-2.645834 -1.127921,-1.505693 -1.502518,-2.474595 -2.053092,-5.310341 -0.346922,-1.786834 -0.5305,-3.822276 -0.532339,-5.902372 -0.0016,-1.74625 -0.118319,-4.179758 -0.259498,-5.407795 -0.141182,-1.228037 -0.212818,-2.276671 -0.159192,-2.330294 0.05363,-0.05363 0.906574,0.445116 1.895441,1.108316 0.988867,0.663196 2.029483,1.205814 2.312482,1.205814 0.44787,0 0.492916,-0.128566 0.347622,-0.992187 -0.09181,-0.545703 -0.2312,-2.420938 -0.309763,-4.167188 -0.07856,-1.74625 -0.190132,-3.561953 -0.247936,-4.034896 -0.0578,-0.472942 0.0024,-0.859895 0.133734,-0.859895 0.131357,0 0.748951,0.726022 1.372428,1.613379 0.667679,0.950269 1.530752,1.817018 2.099889,2.108835 1.370121,0.702511 1.59733,0.33756 1.254295,-2.014683 -0.352722,-2.418655 -0.07258,-4.965484 0.717727,-6.525083 0.348459,-0.68765 0.6384,-1.46259 0.644313,-1.722091 0.01659,-0.727578 1.434399,1.052428 1.793817,2.252059 0.368218,1.229003 1.814081,3.22925 2.334239,3.22925 0.930013,0 2.472169,-5.817925 2.479908,-9.355688 0.0056,-2.554443 0.820211,-6.029098 1.14962,-4.903535 0.238522,0.815018 1.490323,4.489246 2.379152,6.983182 0.830442,2.330114 0.944279,2.954649 0.953986,5.233823 0.01236,2.897987 0.186706,3.169174 1.575774,2.450859 1.085326,-0.561244 2.050457,-2.072275 2.415704,-3.782078 0.1632,-0.763985 0.381434,-1.389063 0.48496,-1.389063 0.103529,0 0.705244,1.054786 1.337146,2.343968 1.13424,2.31403 1.146921,2.370632 0.992823,4.431771 -0.08585,1.148291 -0.235064,2.415225 -0.331581,2.815407 -0.153996,0.638487 -0.0988,0.72739 0.450667,0.725861 0.768808,-0.0021 1.958745,-0.761828 2.75246,-1.757241 l 0.594649,-0.74576 0.428204,1.441918 c 0.4147,1.396445 0.407977,1.513126 -0.213169,3.69977 -0.909357,3.201249 -0.989214,3.658587 -0.67296,3.854042 0.499083,0.308451 1.562214,-0.132228 2.6162052,-1.084448 0.5661872,-0.511516 1.0897023,-0.832511 1.163365,-0.713321 0.073663,0.119186 0.3813228,1.185637 0.6836886,2.369888 0.4168881,1.632789 0.5497565,2.977825 0.5497565,5.565201 0,3.0617 -0.078272,3.643575 -0.7623704,5.667402 -0.4193037,1.240464 -1.2563369,3.037533 -1.8600764,3.993486 -0.6037395,0.955955 -1.2748365,2.43391 -1.4913295,3.284347 -0.927161,3.642158 -3.482514,7.086089 -6.535695,8.808368 -2.827623,1.59504 -2.41877,1.856605 2.910409,1.861957 l 4.034896,0.004 v 1.852084 1.852083 h -14.2875 -14.2875 z m 18.599819,-7.097766 c 6.275814,-3.089574 7.574389,-11.080549 2.607752,-16.047185 -4.891678,-4.891678 -12.986226,-3.382484 -16.002053,2.983513 -0.74993,1.582994 -0.839893,2.027962 -0.839893,4.154146 0,2.029936 0.104616,2.604455 0.709099,3.894156 0.776692,1.657122 2.784022,3.970306 4.045072,4.661416 1.969992,1.079643 3.153034,1.35695 5.465844,1.281202 1.948064,-0.0638 2.536254,-0.199667 4.014179,-0.927248 z m 9.654186,-17.507011 c 0.04173,-1.503521 -0.03685,-2.846398 -0.17462,-2.984172 -0.42367,-0.423669 -2.679385,1.305341 -2.679385,2.053752 0,0.348223 0.123589,0.709514 0.274642,0.802873 0.151054,0.09336 0.641583,0.81992 1.090065,1.614585 0.448482,0.794668 0.949971,1.400252 1.11442,1.345742 0.18977,-0.0629 0.326718,-1.097753 0.374878,-2.83278 z M -36.37408,70.499244 c 0.93323,-1.205468 1.143296,-1.645086 0.916607,-1.918229 -0.161748,-0.194895 -0.457759,-0.354354 -0.657802,-0.354354 -0.200044,0 -0.839444,-0.429789 -1.420887,-0.955087 -1.277884,-1.154494 -1.920756,-1.071769 -1.689544,0.217413 0.179363,1.000101 0.857067,3.874765 1.036762,4.397698 0.187613,0.545986 0.507245,0.301633 1.814864,-1.387441 z m 5.682649,-4.541266 c 0.308793,-0.281244 0.282287,-0.509479 -0.171796,-1.47933 -0.295304,-0.630727 -0.683705,-1.801622 -0.863111,-2.601987 -0.659138,-2.940571 -1.121666,-3.009458 -1.56392,-0.232928 -0.153437,0.963295 -0.457766,2.258187 -0.676283,2.877534 -0.50831,1.440699 -0.502954,2.239036 0.01852,2.760504 0.378042,0.378042 0.528291,0.351898 1.653646,-0.287711 0.680804,-0.386942 1.40213,-0.853178 1.602951,-1.036082 z m 13.948474,-1.096068 c -0.56116,-2.699927 -0.840333,-3.514415 -1.204606,-3.514415 -0.352621,0 -2.660404,3.45486 -2.649162,3.965924 0.01079,0.490741 3.724082,2.373431 4.080166,2.068703 0.158153,-0.135345 0.07356,-1.077008 -0.226398,-2.520212 z m -5.881434,-0.529569 c -0.07416,-1.581938 -1.107514,-5.612659 -1.62274,-6.329693 -0.798388,-1.111104 -2.101307,-2.288159 -2.252236,-2.034662 -0.07209,0.121074 -0.217667,0.861822 -0.323511,1.646111 -0.105847,0.784286 -0.668938,2.419009 -1.251318,3.632716 -0.847868,1.767004 -1.025282,2.385769 -0.890326,3.105155 l 0.168543,0.898411 3.103043,-0.09107 3.103044,-0.09108 z"
         id="path8879" />
    </g>
  </g>
</svg>
