<?xml version="1.0" encoding="UTF-8" standalone="no"?>
<!-- Created with Inkscape (http://www.inkscape.org/) -->

<svg
   width="24mm"
   height="24mm"
   viewBox="0 0 24 24"
   version="1.1"
   id="svg5"
   inkscape:version="1.1.1 (3bf5ae0d25, 2021-09-20)"
   sodipodi:docname="blan- red.svg"
   xmlns:inkscape="http://www.inkscape.org/namespaces/inkscape"
   xmlns:sodipodi="http://sodipodi.sourceforge.net/DTD/sodipodi-0.dtd"
   xmlns="http://www.w3.org/2000/svg"
   xmlns:svg="http://www.w3.org/2000/svg">
  <sodipodi:namedview
     id="namedview7"
     pagecolor="#ffffff"
     bordercolor="#666666"
     borderopacity="1.0"
     inkscape:pageshadow="2"
     inkscape:pageopacity="0.0"
     inkscape:pagecheckerboard="0"
     inkscape:document-units="mm"
     showgrid="false"
     inkscape:zoom="0.65512531"
     inkscape:cx="-225.91098"
     inkscape:cy="296.88977"
     inkscape:window-width="1366"
     inkscape:window-height="705"
     inkscape:window-x="-8"
     inkscape:window-y="-8"
     inkscape:window-maximized="1"
     inkscape:current-layer="g4409" />
  <defs
     id="defs2" />
  <g
     inkscape:label="Capa 1"
     inkscape:groupmode="layer"
     id="layer1"
     transform="translate(15.946791,28.864379)">
    <g
       id="g4409"
       transform="matrix(0.12812239,0,0,0.12708914,-207.56124,-4.2074214)">
      <g
         id="g5227"
         transform="matrix(0.12812238,0,0,0.12708915,1376.1496,-199.66646)">
        <path
           style="fill:#a3a3a3;stroke-width:2.07346"
           d="M 1275.0472,1170.0566 C 1074.5749,967.96404 910.55208,801.44492 910.55208,800.01409 c 0,-1.9991 10.15782,-2.60149 43.86733,-2.60149 h 43.86732 L 1318.3993,474.72243 c 176.0619,-177.4796 321.4984,-322.69018 323.1921,-322.69018 1.6937,0 147.1302,145.21058 323.1921,322.69018 L 2284.896,797.4126 h 42.8348 c 23.5592,0 42.8348,0.70363 42.8348,1.56361 0,0.85998 -164.4802,167.3791 -365.5116,370.04249 l -365.5117,368.4789 z m 971.6134,-374.18856 c 0,-3.05136 -602.0225,-608.44396 -605.0569,-608.44396 -3.0471,0 -605.0816,605.36052 -605.0816,608.42445 0,0.86023 272.2812,1.56407 605.0693,1.56407 332.7881,0 605.0692,-0.69505 605.0692,-1.54456 z m -753.5891,-82.56948 c -1.525,-1.85256 -2.1841,-9.27745 -1.8016,-20.29826 l 0.603,-17.37722 h 148.686 148.6859 l 0.603,17.37722 c 0.3825,11.02081 -0.2766,18.4457 -1.8016,20.29826 -2.022,2.45607 -25.4984,2.92103 -147.4873,2.92103 -121.989,0 -145.4654,-0.46496 -147.4874,-2.92103 z m 188.8919,-61.44916 c -1.7222,-2.80926 3.3056,-7.14193 17.898,-15.42343 14.7858,-8.39128 33.4948,-26.99232 41.5654,-41.32568 7.1783,-12.74855 7.0396,-15.12039 -0.6497,-11.11174 -6.5771,3.42878 -34.7669,6.63644 -40.1207,4.56527 -4.115,-1.5919 -2.1571,-7.08273 3.1284,-8.77396 6.3693,-2.03795 19.6456,-21.77158 23.2742,-34.5942 3.3074,-11.68749 4.478,-26.74392 2.0793,-26.74392 -0.6884,0 -4.6379,2.70317 -8.7766,6.00704 -10.2769,8.20384 -32.3096,21.0573 -36.0952,21.0573 -4.5108,0 -4.7443,-2.17889 -2.8422,-26.5279 1.3906,-17.8013 1.0558,-25.1292 -1.7293,-37.84966 -3.5397,-16.16718 -13.3251,-35.08101 -22.7853,-44.04059 l -4.9929,-4.72875 v 5.17706 c 0,7.27818 -10.509,37.74623 -18.5557,53.7972 -6.4737,12.91335 -6.7059,14.1999 -5.447,30.18714 0.7232,9.18443 1.8786,18.79545 2.5677,21.35786 0.8926,3.31953 0.1968,5.06747 -2.4206,6.07999 -5.2229,2.02047 -24.132,-8.47743 -32.9068,-18.26908 -3.9844,-4.44613 -7.7115,-8.08386 -8.2823,-8.08386 -1.7142,0 -1.0758,17.10172 0.9715,26.0234 1.051,4.58012 4.0867,10.20117 6.7459,12.49123 7.0927,6.10813 16.0256,18.96167 16.0256,23.05917 0,3.14923 -1.8434,3.42836 -16.0043,2.42328 -8.8025,-0.62475 -20.1499,-2.59081 -25.2167,-4.36902 -5.0667,-1.77821 -9.6617,-2.78001 -10.211,-2.22621 -2.1165,2.13367 10.8712,24.97862 20.6337,36.29405 11.8559,13.74173 26.3211,22.42894 45.1181,27.09588 7.308,1.81443 13.7063,4.56629 14.2184,6.11525 0.7644,2.31169 -4.0245,2.60681 -26.7282,1.64715 -25.6924,-1.08599 -29.2512,-1.76099 -50.042,-9.4919 -21.3362,-7.93372 -45.2893,-22.1201 -54.7032,-32.39834 -10.7083,-11.6914 -18.7568,-32.22724 -31.1102,-79.37739 -6.8999,-26.33568 -13.1431,-52.33306 -13.8736,-57.77195 -1.2013,-8.94318 -0.9339,-9.88889 2.7959,-9.88889 3.8775,0 10.9657,6.31321 30.5111,27.17528 4.5431,4.84922 11.2506,10.08698 14.9055,11.63947 7.2823,3.09331 19.9206,3.83827 18.8241,1.10958 -0.3786,-0.94222 -5.2324,-10.67842 -10.7863,-21.636 l -10.098,-19.92287 -0.391,-47.0658 c -0.2151,-25.88617 0.1472,-47.05144 0.8051,-47.03391 2.8819,0.0768 6.3049,4.05853 16.0803,18.70498 11.2654,16.87873 28.7506,36.85648 30.614,34.97795 0.6337,-0.63885 0.057,-5.54532 -1.281,-10.90329 -3.0095,-12.04879 -1.5281,-42.00595 3.182,-64.3471 3.3407,-15.84605 3.3166,-16.70794 -0.811,-29.02998 -2.3397,-6.9845 -4.254,-13.45402 -4.254,-14.3767 0,-3.66712 9.9316,-1.27484 21.6834,5.22302 14.6272,8.0877 19.8104,16.67752 24.7293,40.9824 3.1857,15.74074 8.8101,31.22808 11.3408,31.22808 1.96,0 7.9535,-13.24399 10.6406,-23.51304 1.2601,-4.81578 2.9431,-32.64546 3.7399,-61.84371 1.3509,-49.50601 1.8001,-54.07096 6.6585,-67.66085 7.7306,-21.62409 11.1051,-20.35058 19.3081,7.28656 3.5684,12.02281 15.8115,42.50643 27.2067,67.74137 21.9655,48.64306 26.353,63.67422 23.3762,80.08512 -3.618,19.94612 4.7821,14.56654 16.3091,-10.44465 7.097,-15.39903 9.1189,-22.55236 10.6834,-37.79701 2.0615,-20.08767 3.0502,-23.38451 6.3892,-21.30411 3.9764,2.47753 14.4115,28.90561 18.5356,46.94357 3.5527,15.53897 3.8368,20.53954 2.0722,36.4734 -1.1247,10.15602 -4.0085,23.48743 -6.4083,29.62537 -2.3999,6.13792 -3.9935,11.5327 -3.5415,11.98838 0.452,0.45568 3.2253,-0.0926 6.1629,-1.21867 3.4113,-1.30752 10.6508,-10.02554 20.0368,-24.12887 8.0826,-12.14494 15.7978,-21.72725 17.1449,-21.29404 3.054,0.98213 8.309,16.50211 12.4889,36.88407 2.9987,14.62228 2.946,16.65696 -0.8795,33.9712 -3.9498,17.87625 -10.5495,33.84697 -18.9431,45.84045 -5.1931,7.42031 -3.7749,8.75656 6.5024,6.1267 11.1724,-2.85891 20.0393,-10.38831 23.2922,-19.77874 5.041,-14.55283 6.8582,-8.79872 6.24,19.75915 -0.5092,23.52364 -1.4713,30.30536 -6.7116,47.30948 -3.3644,10.91724 -10.5312,27.74619 -15.9262,37.39769 -7.8512,14.04568 -12.2821,19.38883 -22.1996,26.77021 -16.038,11.93689 -36.3799,22.21249 -52.1039,26.32013 -13.7032,3.57972 -36.7964,4.38855 -38.6568,1.35393 z M 923.30255,780.10298 c -2.46957,-2.65012 -4.49014,-6.2014 -4.49014,-7.89173 0,-3.21254 63.998,-68.48289 67.14792,-68.48289 2.62604,0 13.39031,10.79263 13.39031,13.4256 0,3.55417 -64.74396,67.76741 -68.32751,67.76741 -1.77674,0 -5.251,-2.16827 -7.72058,-4.81839 z M 2298.135,729.53404 c -18.0887,-18.10756 -32.8886,-34.4371 -32.8886,-36.28791 0,-4.09102 8.4141,-12.41836 12.5478,-12.41836 3.4024,0 67.9904,64.44709 67.9904,67.84209 0,2.23516 -6.9719,9.31796 -12.0269,12.21829 -1.8575,1.06569 -13.2797,-8.98785 -35.6227,-31.35411 z M 1026.5567,676.00938 c -2.4696,-2.65012 -4.4901,-6.17461 -4.4901,-7.83221 0,-1.65761 14.2654,-17.37279 31.7009,-34.92264 34.4144,-34.64002 37.0718,-36.08513 45.4574,-24.72048 l 4.2623,5.77647 -32.942,33.25863 c -18.1182,18.29224 -34.4173,33.25862 -36.2202,33.25862 -1.803,0 -5.2987,-2.16827 -7.7683,-4.81839 z m 1166.9031,-51.93705 c -17.3071,-17.47513 -31.4675,-33.22618 -31.4675,-35.00233 0,-1.77615 2.7836,-5.91791 6.1858,-9.20391 l 6.1858,-5.97456 33.0507,33.08515 c 18.178,18.19684 33.0508,34.59945 33.0508,36.45025 0,4.09138 -8.4143,12.41837 -12.5486,12.41837 -1.6442,0 -17.1499,-14.29784 -34.457,-31.77297 z M 1132.1831,572.04995 c -2.3006,-2.57632 -4.8831,-5.92455 -5.7389,-7.44053 -1.8867,-3.34205 61.9632,-69.06827 67.0965,-69.06827 4.058,0 12.3182,8.48255 12.3182,12.64981 0,3.43007 -63.9273,68.5432 -67.295,68.5432 -1.2088,0 -4.0802,-2.10789 -6.3808,-4.68421 z m 956.7147,-53.45423 c -22.1859,-22.52465 -32.1584,-34.03978 -31.1013,-35.9123 2.9017,-5.14001 9.9111,-12.12474 12.1675,-12.12474 3.5434,0 67.2473,65.25339 67.2473,68.88303 0,4.0323 -8.4779,12.30999 -12.6077,12.30999 -1.6767,0 -17.7443,-14.9202 -35.7058,-33.15598 z M 1235.13,465.7403 c -2.4695,-2.65012 -4.4901,-6.2014 -4.4901,-7.89174 0,-4.97769 65.3139,-69.18477 68.5113,-67.35027 5.0986,2.92528 12.0269,9.99162 12.0269,12.26639 0,3.57225 -64.7271,67.794 -68.3275,67.794 -1.7767,0 -5.251,-2.16827 -7.7206,-4.81838 z m 751.1775,-50.56895 c -18.0887,-18.10756 -32.8886,-34.4371 -32.8886,-36.2879 0,-4.09103 8.4141,-12.41837 12.5478,-12.41837 3.4024,0 67.9904,64.4471 67.9904,67.84209 0,2.23516 -6.9719,9.31796 -12.0269,12.2183 -1.8575,1.06569 -13.2797,-8.98786 -35.6227,-31.35412 z m -644.9072,-53.02112 c -2.9926,-2.37316 -5.4412,-6.36607 -5.4412,-8.87314 0,-5.34417 61.0559,-68.00502 66.2632,-68.00502 3.9713,0 12.21,8.53542 12.21,12.64981 0,2.8144 -63.6198,68.5432 -66.3439,68.5432 -0.6858,0 -3.6954,-1.94168 -6.6881,-4.31485 z m 540.232,-52.44059 c -17.3071,-17.47513 -31.4675,-33.23814 -31.4675,-35.02891 0,-4.03173 8.4781,-12.30925 12.6076,-12.30925 1.6767,0 17.8168,14.99376 35.8669,33.31946 l 32.8183,33.31947 -5.9264,6.2361 c -3.2595,3.42987 -7.39,6.2361 -9.1789,6.2361 -1.7889,0 -17.4129,-14.29784 -34.72,-31.77297 z m -438.935,-53.17723 c -3.052,-3.21149 -5.5491,-6.65435 -5.5491,-7.6508 0,-2.34883 59.7219,-63.2004 64.7439,-65.96854 3.0423,-1.67694 5.0474,-0.92616 9.8092,3.67298 3.2918,3.17943 5.9851,6.78753 5.9851,8.01802 0,2.88975 -64.4001,67.76741 -67.2686,67.76741 -1.1943,0 -4.6686,-2.62758 -7.7205,-5.83907 z m 334.373,-52.29937 c -22.1859,-22.52466 -32.1584,-34.03977 -31.1013,-35.91229 2.9017,-5.14003 9.9111,-12.12475 12.1675,-12.12475 3.5434,0 67.2473,65.25339 67.2473,68.88302 0,4.03231 -8.4779,12.30999 -12.6077,12.30999 -1.6767,0 -17.7443,-14.92019 -35.7058,-33.15597 z m -230.1128,-52.85543 c -2.4695,-2.65012 -4.4901,-6.17461 -4.4901,-7.83221 0,-1.6576 14.2655,-17.37279 31.701,-34.92264 34.4144,-34.640019 37.0717,-36.08513 45.4574,-24.720486 l 4.2623,5.776477 -32.9421,33.258629 c -18.1181,18.29224 -34.4172,33.25862 -36.2202,33.25862 -1.803,0 -5.2987,-2.16828 -7.7683,-4.81839 z m 126.9902,-51.18597 c -18.0603,-18.207074 -32.4456,-34.287036 -31.9674,-35.73325 0.4782,-1.446213 3.8352,-4.935188 7.46,-7.753276 l 6.5905,-5.123797 33.0494,32.911382 c 18.1772,18.101261 33.0494,33.969551 33.0494,35.262861 0,2.75877 -10.7211,13.53985 -13.4645,13.53985 -1.0344,0 -16.6572,-14.8967 -34.7174,-33.10377 z"
           id="path5241" />
        <path
           style="fill:#f0635a;stroke-width:2.07346"
           d="M 1274.0067,1166.9449 909.52393,799.49447 h 44.39958 44.39959 L 1318.4059,476.8043 c 176.0456,-177.4796 321.0092,-322.69017 322.1414,-322.69017 1.1322,0 146.1092,145.21057 322.1711,322.69017 l 320.1126,322.69017 h 44.3698 44.3697 l -364.4653,367.45043 c -200.456,202.0977 -365.3992,367.4504 -366.5406,367.4504 -1.1414,0 -166.0924,-165.3527 -366.5579,-367.4504 z m 974.1291,-369.12065 c 1.6624,-1.06502 -100.1301,-105.07683 -302.0184,-308.60302 l -304.526,-306.99654 -304.526,306.99654 c -201.8884,203.52619 -303.6808,307.538 -302.0184,308.60302 1.3792,0.88355 274.3242,1.60646 606.5444,1.60646 332.2202,0 605.1652,-0.72291 606.5444,-1.60646 z m -752.7419,-85.46058 c -1.9113,-1.22229 -2.5005,-6.41098 -2.0651,-18.18451 l 0.6092,-16.4742 h 146.6209 146.6208 l 0.6163,15.56828 c 0.5089,12.8571 -0.01,16.02941 -2.9761,18.21638 -2.8252,2.08268 -33.8225,2.64129 -145.172,2.61623 -77.8689,-0.0167 -142.7832,-0.80153 -144.254,-1.74218 z m 191.6293,-63.51486 c 0,-1.55803 5.3434,-5.70491 11.8742,-9.21534 19.747,-10.6143 36.7272,-27.75566 46.0887,-46.52626 4.4912,-9.00518 7.5196,-16.37305 6.7297,-16.37305 -0.7898,0 -5.2181,1.84573 -9.8406,4.10162 -9.1628,4.47168 -38.3313,8.21703 -38.3313,4.9219 0,-1.09107 4.5135,-6.70452 10.03,-12.47433 11.9512,-12.49991 18.8811,-30.48458 18.8811,-49.00023 0,-6.64785 -0.5361,-12.08699 -1.1914,-12.08699 -0.6552,0 -4.0254,2.85705 -7.4892,6.34902 -6.1416,6.19153 -35.8525,24.87906 -39.5547,24.87906 -1.0763,0 -1.25,-10.28685 -0.4131,-24.462 1.8694,-31.66342 -1.877,-50.06854 -13.8785,-68.18131 -10.5352,-15.8999 -15.8957,-21.85966 -19.6619,-21.85966 -2.1858,0 -2.6805,1.58962 -1.8295,5.87894 1.5239,7.68159 -8.7096,40.62759 -17.3468,55.84655 l -6.5786,11.59176 1.4232,22.67473 c 0.7827,12.4711 0.9523,22.67473 0.3769,22.67473 -0.5755,0 -3.6456,-1.14126 -6.8225,-2.53614 -12.1844,-5.34982 -22.001,-13.29479 -28.9122,-23.39982 l -7.179,-10.4968 0.9094,21.45309 c 0.8962,21.14039 1.0146,21.56519 8.1221,29.14621 9.551,10.1872 16.8897,21.1442 15.2613,22.7858 -2.5598,2.58058 -35.938,-3.02551 -44.3588,-7.45036 -10.4874,-5.51076 -10.751,-3.77887 -2.3117,15.18366 10.0194,22.51311 36.7444,47.277 56.3262,52.19301 3.1342,0.78682 6.2891,2.39396 7.0109,3.57143 0.889,1.45015 -5.5082,1.65334 -19.8287,0.62981 -27.7502,-1.98338 -57.2514,-12.63411 -80.247,-28.97133 -23.1898,-16.47515 -28.3588,-26.70626 -44.8455,-88.76354 -14.6233,-55.04338 -16.9636,-66.6199 -13.4681,-66.6199 1.2851,0 11.0523,8.84394 21.7049,19.65318 15.9239,16.15808 20.774,19.88182 27.2724,20.93868 4.3472,0.707 9.938,1.70335 12.4239,2.21411 7.4124,1.52291 7.4513,-2.53028 0.1458,-15.20195 -16.1094,-27.94214 -18.0685,-38.54924 -16.0566,-86.93738 0.3333,-8.0152 -0.088,-18.6665 -0.9362,-23.66953 -2.1682,-12.78917 1.5662,-10.7746 14.7124,7.93678 15.9007,22.63208 30.9873,36.91162 34.8662,33.00113 0.4406,-0.44423 -0.5587,-5.36286 -2.2207,-10.9303 -4.1629,-13.94482 -3.7864,-31.13792 1.3169,-60.13492 4.0627,-23.08424 4.1284,-25.20843 1.0325,-33.38076 -4.7654,-12.5795 -4.4105,-16.48776 1.3402,-14.75824 6.9174,2.08039 20.7051,10.40417 24.5182,14.80192 3.717,4.28684 9.1405,20.2233 11.2324,33.00525 1.6411,10.02788 11.0497,32.26902 13.6505,32.26902 1.9732,0 8.0569,-13.18689 12.1738,-26.38738 1.4682,-4.70782 3.0635,-29.66711 3.9023,-61.05125 1.2797,-47.88538 1.888,-54.46484 6.2072,-67.14038 2.6337,-7.72895 5.8784,-14.05263 7.2104,-14.05263 1.3321,0 4.5865,7.72895 7.2321,17.17544 2.6456,9.4465 15.1108,40.12809 27.7005,68.18131 l 22.8904,51.00587 0.1931,21.85951 c 0.2216,25.08725 2.7562,28.40211 12.1863,15.93813 7.4265,-9.81593 19.6341,-40.32072 19.7083,-49.24794 0.097,-11.65496 2.4756,-23.11467 4.6467,-22.38508 3.0453,1.02335 11.6359,23.50617 16.0897,42.10897 3.4526,14.42094 3.6955,19.12401 1.8497,35.81224 -1.1957,10.81005 -4.269,24.48977 -7.0279,31.28198 -2.6966,6.63894 -4.155,12.84935 -3.241,13.80089 0.9141,0.95154 5.2574,-0.15239 9.6517,-2.45336 6.0523,-3.16894 10.9945,-8.98927 20.3803,-24.0013 6.8148,-10.89983 13.5128,-19.86687 14.8844,-19.92676 1.3717,-0.06 4.5937,6.6832 7.1602,14.98467 9.593,31.02966 4.758,65.60008 -13.0622,93.39553 -7.9199,12.35316 -9.4712,16.42322 -6.2596,16.42322 6.8002,0 23.69,-7.40426 30.7122,-13.46386 5.7325,-4.94672 8.7997,-6.45539 9.4816,-4.66381 0.5544,1.45654 0.3075,11.98638 -0.5488,23.39966 -1.9821,26.42056 -9.5609,50.62003 -23.186,74.03414 -11.2511,19.3346 -20.777,27.43168 -48.5881,41.30062 -21.5139,10.72861 -56.2947,16.78359 -56.2947,9.80032 z m -762.07919,128.7177 -4.91377,-5.27299 31.89115,-32.20071 c 17.54014,-17.7104 33.50723,-32.20071 35.48243,-32.20071 1.97521,0 5.15876,2.41173 7.07457,5.35939 l 3.48329,5.3594 -31.80559,32.11429 c -17.49307,17.66288 -32.81645,32.11432 -34.05195,32.11432 -1.2355,0 -4.45756,-2.37286 -7.16013,-5.27299 z m 1373.41139,-51.91019 -31.8912,-32.20071 4.9138,-5.27299 c 2.7026,-2.90013 5.9523,-5.27298 7.2217,-5.27298 1.2694,0 16.6034,14.52026 34.0755,32.26727 l 31.7676,32.26726 -4.8518,5.20643 c -2.6685,2.86354 -5.8626,5.20643 -7.0981,5.20643 -1.2355,0 -16.5974,-14.49031 -34.1375,-32.20071 z m -1270.1573,-52.18341 -4.9137,-5.27299 31.8911,-32.20071 c 17.5402,-17.7104 32.9021,-32.20071 34.1376,-32.20071 1.2355,0 4.4296,2.34289 7.0981,5.20643 l 4.8517,5.20643 -31.7675,32.26726 c -17.4722,17.74701 -32.8062,32.26727 -34.0755,32.26727 -1.2694,0 -4.5192,-2.37285 -7.2218,-5.27298 z m 1167.3268,-51.48245 c -17.3072,-17.47513 -31.4676,-32.78782 -31.4676,-34.02822 0,-3.12427 6.9224,-9.14621 10.5139,-9.14621 4.0525,0 63.8291,60.64937 63.8291,64.76105 0,3.48992 -6.2324,10.18635 -9.4804,10.18635 -1.0602,0 -16.0879,-14.29784 -33.395,-31.77297 z M 1133.941,569.8339 c -2.4696,-2.65012 -4.4901,-5.70618 -4.4901,-6.79128 0,-1.08509 14.3734,-16.44058 31.941,-34.12332 l 31.941,-32.15043 5.2305,4.95371 c 2.8767,2.72455 5.2304,6.00075 5.2304,7.28045 0,2.2153 -62.1534,65.64926 -64.324,65.64926 -0.5713,0 -3.0592,-2.16827 -5.5288,-4.81839 z m 958.3297,-51.93705 c -17.3071,-17.47513 -31.4675,-32.76972 -31.4675,-33.98797 0,-1.21827 2.324,-4.41607 5.1644,-7.10622 l 5.1645,-4.8912 32.007,32.02582 c 17.6039,17.6142 32.0071,33.07285 32.0071,34.35253 0,2.18503 -8.4706,11.38001 -10.4835,11.38001 -0.5085,0 -15.0848,-14.29784 -32.392,-31.77297 z m -855.4992,-54.69302 -4.9138,-5.27299 31.8912,-32.20071 c 17.5401,-17.7104 32.902,-32.20071 34.1375,-32.20071 1.2355,0 4.4297,2.34289 7.0981,5.20643 l 4.8518,5.20642 -31.7676,32.26727 c -17.4721,17.74701 -32.8061,32.26727 -34.0755,32.26727 -1.2693,0 -4.5191,-2.37285 -7.2217,-5.27298 z m 749.7564,-51.91019 -31.8912,-32.20072 4.9138,-5.27298 c 2.7025,-2.90013 5.9523,-5.27299 7.2217,-5.27299 1.2694,0 16.6034,14.52027 34.0755,32.26727 l 31.7676,32.26727 -4.8518,5.20643 c -2.6685,2.86353 -5.8626,5.20643 -7.0981,5.20643 -1.2355,0 -16.5974,-14.49031 -34.1375,-32.20071 z m -645.086,-52.79951 c -1.8797,-2.09397 -3.4177,-4.68161 -3.4177,-5.75034 0,-1.06873 14.3735,-16.41083 31.941,-34.09357 l 31.9411,-32.15043 5.2304,4.95371 c 2.8768,2.72455 5.2305,5.97318 5.2305,7.2192 0,3.5944 -60.6099,63.62864 -64.2388,63.62864 -1.7978,0 -4.8068,-1.71324 -6.6865,-3.80721 z m 542.2555,-50.86636 c -17.3072,-17.47513 -31.4676,-32.78782 -31.4676,-34.02822 0,-3.12426 6.9224,-9.1462 10.5139,-9.1462 4.0525,0 63.8291,60.64937 63.8291,64.76104 0,3.48993 -6.2324,10.18635 -9.4804,10.18635 -1.0602,0 -16.0879,-14.29784 -33.395,-31.77297 z M 1445.868,257.04874 c -2.5243,-1.78247 -4.5896,-4.83892 -4.5896,-6.79211 0,-4.47316 59.8121,-64.91442 64.2387,-64.91442 3.4618,0 10.1042,6.28305 10.1042,9.55754 0,1.98066 -62.157,65.38985 -64.0985,65.38985 -0.5858,0 -3.1305,-1.45838 -5.6548,-3.24086 z m 334.5752,-53.51457 c -17.3071,-17.47513 -31.4675,-32.76972 -31.4675,-33.98799 0,-1.21826 2.324,-4.41606 5.1644,-7.10621 l 5.1645,-4.89119 32.007,32.02582 c 17.6039,17.6142 32.0071,33.07284 32.0071,34.35253 0,2.18503 -8.4706,11.38001 -10.4835,11.38001 -0.5085,0 -15.0848,-14.29784 -32.392,-31.77297 z m -231.8442,-54.69303 -4.9138,-5.27299 31.8912,-32.20071 c 17.5401,-17.71039 32.92,-32.200709 34.1774,-32.200709 3.1392,0 9.1217,6.951635 9.1217,10.599319 0,3.410633 -59.8183,64.34808 -63.1663,64.34808 -1.208,0 -4.4076,-2.37285 -7.1102,-5.27299 z m 126.3333,-51.641907 -31.7091,-32.051017 5.8956,-6.628887 5.8956,-6.628887 32.8235,33.345317 c 31.9369,32.444721 32.7393,33.473731 29.707,38.100141 -6.1475,9.37956 -9.5241,7.30851 -42.6126,-26.136667 z"
           id="path5239" />
        <path
           style="fill:#ed4035;stroke-width:2.07346"
           d="M 1278.6509,1167.4631 C 1080.7397,967.94049 918.81241,803.99307 918.81241,803.13552 c 0,-0.85754 17.42526,-1.55917 38.7228,-1.55917 H 996.258 l 321.1154,-323.73111 c 176.6135,-178.05211 322.0388,-323.73111 323.1675,-323.73111 1.1286,0 146.5761,145.679 323.2166,323.73111 l 321.1646,323.73111 h 39.2057 39.2056 L 2001.9483,1165.904 c -198.7617,200.3802 -361.8517,364.3276 -362.422,364.3276 -0.5703,0 -162.9643,-163.2458 -360.8754,-362.7685 z m 972.1399,-368.49174 c 0,-1.43274 -137.0699,-140.78687 -304.5997,-309.67583 L 1641.5914,182.22469 1336.9917,489.29553 c -167.5299,168.88896 -304.5997,308.24309 -304.5997,309.67583 0,2.07952 122.8865,2.60499 609.1994,2.60499 486.3129,0 609.1994,-0.52547 609.1994,-2.60499 z m -755.3969,-86.60769 c -1.9113,-1.22229 -2.5005,-6.41098 -2.0651,-18.18451 l 0.6092,-16.4742 h 146.6209 146.6208 l 0.6163,15.56828 c 0.5089,12.8571 -0.01,16.02941 -2.9761,18.21638 -2.8252,2.08268 -33.8225,2.64129 -145.172,2.61623 -77.8689,-0.0167 -142.7832,-0.80153 -144.254,-1.74218 z m 191.6293,-63.51486 c 0,-1.55803 5.3434,-5.70491 11.8742,-9.21534 19.747,-10.6143 36.7272,-27.75566 46.0887,-46.52626 4.4912,-9.00518 7.5196,-16.37305 6.7297,-16.37305 -0.7898,0 -5.2181,1.84573 -9.8406,4.10162 -9.1628,4.47168 -38.3313,8.21703 -38.3313,4.9219 0,-1.09107 4.5135,-6.70452 10.03,-12.47433 11.9512,-12.49991 18.8811,-30.48458 18.8811,-49.00023 0,-6.64785 -0.5361,-12.08699 -1.1914,-12.08699 -0.6552,0 -4.0254,2.85705 -7.4892,6.34902 -6.1416,6.19153 -35.8525,24.87906 -39.5547,24.87906 -1.0763,0 -1.25,-10.28685 -0.4131,-24.462 1.8694,-31.66342 -1.877,-50.06854 -13.8785,-68.18131 -10.5352,-15.8999 -15.8957,-21.85966 -19.6619,-21.85966 -2.1858,0 -2.6805,1.58962 -1.8295,5.87894 1.5239,7.68159 -8.7096,40.62759 -17.3468,55.84655 l -6.5786,11.59176 1.4232,22.67473 c 0.7827,12.4711 0.9523,22.67473 0.3769,22.67473 -0.5755,0 -3.6456,-1.14126 -6.8225,-2.53614 -12.1844,-5.34982 -22.001,-13.29479 -28.9122,-23.39982 l -7.179,-10.4968 0.9094,21.45309 c 0.8962,21.14039 1.0146,21.56519 8.1221,29.14621 9.551,10.1872 16.8897,21.1442 15.2613,22.7858 -2.5598,2.58058 -35.938,-3.02551 -44.3588,-7.45036 -10.4874,-5.51076 -10.751,-3.77887 -2.3117,15.18366 10.0194,22.51311 36.7444,47.277 56.3262,52.19301 3.1342,0.78682 6.2891,2.39396 7.0109,3.57143 0.889,1.45015 -5.5082,1.65334 -19.8287,0.62981 -27.7502,-1.98338 -57.2514,-12.63411 -80.247,-28.97133 -23.1898,-16.47515 -28.3588,-26.70626 -44.8455,-88.76354 -14.6233,-55.04338 -16.9636,-66.6199 -13.4681,-66.6199 1.2851,0 11.0523,8.84394 21.7049,19.65318 15.9239,16.15808 20.774,19.88182 27.2724,20.93868 4.3472,0.707 9.938,1.70335 12.4239,2.21411 7.4124,1.52291 7.4513,-2.53028 0.1458,-15.20195 -16.1094,-27.94214 -18.0685,-38.54924 -16.0566,-86.93738 0.3333,-8.0152 -0.088,-18.6665 -0.9362,-23.66953 -2.1682,-12.78917 1.5662,-10.7746 14.7124,7.93678 15.9007,22.63208 30.9873,36.91162 34.8662,33.00113 0.4406,-0.44423 -0.5587,-5.36286 -2.2207,-10.9303 -4.1629,-13.94482 -3.7864,-31.13792 1.3169,-60.13492 4.0627,-23.08424 4.1284,-25.20843 1.0325,-33.38076 -4.7654,-12.5795 -4.4105,-16.48776 1.3402,-14.75824 6.9174,2.08039 20.7051,10.40417 24.5182,14.80192 3.717,4.28684 9.1405,20.2233 11.2324,33.00525 1.6411,10.02788 11.0497,32.26902 13.6505,32.26902 1.9732,0 8.0569,-13.18689 12.1738,-26.38738 1.4682,-4.70782 3.0635,-29.66711 3.9023,-61.05125 1.2797,-47.88538 1.888,-54.46484 6.2072,-67.14038 2.6337,-7.72895 5.8784,-14.05263 7.2104,-14.05263 1.3321,0 4.5865,7.72895 7.2321,17.17544 2.6456,9.4465 15.1108,40.12809 27.7005,68.18131 l 22.8904,51.00587 0.1931,21.85951 c 0.2216,25.08725 2.7562,28.40211 12.1863,15.93813 7.4265,-9.81593 19.6341,-40.32072 19.7083,-49.24794 0.097,-11.65496 2.4756,-23.11467 4.6467,-22.38508 3.0453,1.02335 11.6359,23.50617 16.0897,42.10897 3.4526,14.42094 3.6955,19.12401 1.8497,35.81224 -1.1957,10.81005 -4.269,24.48977 -7.0279,31.28198 -2.6966,6.63894 -4.155,12.84935 -3.241,13.80089 0.9141,0.95154 5.2574,-0.15239 9.6517,-2.45336 6.0523,-3.16894 10.9945,-8.98927 20.3803,-24.0013 6.8148,-10.89983 13.5128,-19.86687 14.8844,-19.92676 1.3717,-0.06 4.5937,6.6832 7.1602,14.98467 9.593,31.02966 4.758,65.60008 -13.0622,93.39553 -7.9199,12.35316 -9.4712,16.42322 -6.2596,16.42322 6.8002,0 23.69,-7.40426 30.7122,-13.46386 5.7325,-4.94672 8.7997,-6.45539 9.4816,-4.66381 0.5544,1.45654 0.3075,11.98638 -0.5488,23.39966 -1.9821,26.42056 -9.5609,50.62003 -23.186,74.03414 -11.2511,19.3346 -20.777,27.43168 -48.5881,41.30062 -21.5139,10.72861 -56.2947,16.78359 -56.2947,9.80032 z m -762.07919,128.7177 -4.91377,-5.27299 31.89115,-32.20071 c 17.54014,-17.7104 33.50723,-32.20071 35.48243,-32.20071 1.97521,0 5.15876,2.41173 7.07457,5.35939 l 3.48329,5.3594 -31.80559,32.11429 c -17.49307,17.66288 -32.81645,32.11432 -34.05195,32.11432 -1.2355,0 -4.45756,-2.37286 -7.16013,-5.27299 z m 1373.41139,-51.91019 -31.8912,-32.20071 4.9138,-5.27299 c 2.7026,-2.90013 5.9523,-5.27298 7.2217,-5.27298 1.2694,0 16.6034,14.52026 34.0755,32.26727 l 31.7676,32.26726 -4.8518,5.20643 c -2.6685,2.86354 -5.8626,5.20643 -7.0981,5.20643 -1.2355,0 -16.5974,-14.49031 -34.1375,-32.20071 z m -1270.1573,-52.18341 -4.9137,-5.27299 31.8911,-32.20071 c 17.5402,-17.7104 32.9021,-32.20071 34.1376,-32.20071 1.2355,0 4.4296,2.34289 7.0981,5.20643 l 4.8517,5.20643 -31.7675,32.26726 c -17.4722,17.74701 -32.8062,32.26727 -34.0755,32.26727 -1.2694,0 -4.5192,-2.37285 -7.2218,-5.27298 z m 1167.3268,-51.48245 c -17.3072,-17.47513 -31.4676,-32.78782 -31.4676,-34.02822 0,-3.12427 6.9224,-9.14621 10.5139,-9.14621 4.0525,0 63.8291,60.64937 63.8291,64.76105 0,3.48992 -6.2324,10.18635 -9.4804,10.18635 -1.0602,0 -16.0879,-14.29784 -33.395,-31.77297 z M 1133.941,569.8339 c -2.4696,-2.65012 -4.4901,-5.70618 -4.4901,-6.79128 0,-1.08509 14.3734,-16.44058 31.941,-34.12332 l 31.941,-32.15043 5.2305,4.95371 c 2.8767,2.72455 5.2304,6.00075 5.2304,7.28045 0,2.2153 -62.1534,65.64926 -64.324,65.64926 -0.5713,0 -3.0592,-2.16827 -5.5288,-4.81839 z m 958.3297,-51.93705 c -17.3071,-17.47513 -31.4675,-32.76972 -31.4675,-33.98797 0,-1.21827 2.324,-4.41607 5.1644,-7.10622 l 5.1645,-4.8912 32.007,32.02582 c 17.6039,17.6142 32.0071,33.07285 32.0071,34.35253 0,2.18503 -8.4706,11.38001 -10.4835,11.38001 -0.5085,0 -15.0848,-14.29784 -32.392,-31.77297 z m -855.4992,-54.69302 -4.9138,-5.27299 31.8912,-32.20071 c 17.5401,-17.7104 32.902,-32.20071 34.1375,-32.20071 1.2355,0 4.4297,2.34289 7.0981,5.20643 l 4.8518,5.20642 -31.7676,32.26727 c -17.4721,17.74701 -32.8061,32.26727 -34.0755,32.26727 -1.2693,0 -4.5191,-2.37285 -7.2217,-5.27298 z m 749.7564,-51.91019 -31.8912,-32.20072 4.9138,-5.27298 c 2.7025,-2.90013 5.9523,-5.27299 7.2217,-5.27299 1.2694,0 16.6034,14.52027 34.0755,32.26727 l 31.7676,32.26727 -4.8518,5.20643 c -2.6685,2.86353 -5.8626,5.20643 -7.0981,5.20643 -1.2355,0 -16.5974,-14.49031 -34.1375,-32.20071 z m -645.086,-52.79951 c -1.8797,-2.09397 -3.4177,-4.68161 -3.4177,-5.75034 0,-1.06873 14.3735,-16.41083 31.941,-34.09357 l 31.9411,-32.15043 5.2304,4.95371 c 2.8768,2.72455 5.2305,5.97318 5.2305,7.2192 0,3.5944 -60.6099,63.62864 -64.2388,63.62864 -1.7978,0 -4.8068,-1.71324 -6.6865,-3.80721 z m 542.2555,-50.86636 c -17.3072,-17.47513 -31.4676,-32.78782 -31.4676,-34.02822 0,-3.12426 6.9224,-9.1462 10.5139,-9.1462 4.0525,0 63.8291,60.64937 63.8291,64.76104 0,3.48993 -6.2324,10.18635 -9.4804,10.18635 -1.0602,0 -16.0879,-14.29784 -33.395,-31.77297 z M 1445.868,257.04874 c -2.5243,-1.78247 -4.5896,-4.83892 -4.5896,-6.79211 0,-4.47316 59.8121,-64.91442 64.2387,-64.91442 3.4618,0 10.1042,6.28305 10.1042,9.55754 0,1.98066 -62.157,65.38985 -64.0985,65.38985 -0.5858,0 -3.1305,-1.45838 -5.6548,-3.24086 z m 334.5752,-53.51457 c -17.3071,-17.47513 -31.4675,-32.76972 -31.4675,-33.98799 0,-1.21826 2.324,-4.41606 5.1644,-7.10621 l 5.1645,-4.89119 32.007,32.02582 c 17.6039,17.6142 32.0071,33.07284 32.0071,34.35253 0,2.18503 -8.4706,11.38001 -10.4835,11.38001 -0.5085,0 -15.0848,-14.29784 -32.392,-31.77297 z m -231.8442,-54.69303 -4.9138,-5.27299 31.8912,-32.20071 c 17.5401,-17.71039 32.92,-32.200709 34.1774,-32.200709 3.1392,0 9.1217,6.951635 9.1217,10.599319 0,3.410633 -59.8183,64.34808 -63.1663,64.34808 -1.208,0 -4.4076,-2.37285 -7.1102,-5.27299 z m 126.3333,-51.641907 -31.7091,-32.051017 5.8956,-6.628887 5.8956,-6.628887 32.8235,33.345317 c 31.9369,32.444721 32.7393,33.473731 29.707,38.100141 -6.1475,9.37956 -9.5241,7.30851 -42.6126,-26.136667 z"
           id="path5237" />
        <path
           style="fill:#e43c32;stroke-width:2.07346"
           d="M 1314.7896,1133.112 C 1137.8908,954.77224 993.15539,807.91508 993.15539,806.76273 c 0,-2.38166 643.07951,-651.18914 646.62491,-652.38446 1.2673,-0.42723 146.9426,145.01755 323.7229,323.21065 176.7805,178.19309 322.5676,323.98743 323.9716,323.98743 1.4039,0 2.5526,1.64059 2.5526,3.64577 0,2.06963 -139.052,143.82611 -321.6391,327.89488 -255.9335,258.0103 -322.6938,324.2491 -326.8019,324.2491 -4.1081,0 -70.8646,-66.2372 -326.7968,-324.2541 z m 631.9152,-23.9364 c 167.2473,-168.60417 304.086,-307.96067 304.086,-309.68113 0,-1.72045 -137.0699,-141.30998 -304.5997,-310.19894 L 1641.5914,182.22469 1336.9917,489.29553 c -167.5299,168.88896 -304.5997,308.47611 -304.5997,310.19366 0,2.72531 606.5,616.23941 609.1941,616.23941 0.5679,0 137.8713,-137.9488 305.1187,-306.553 z m -302.9286,248.4862 c -1.2016,-2.2636 -2.1848,-7.9246 -2.1848,-12.58 v -8.4643 h -22.547 c -12.4009,0 -24.017,-0.5687 -25.8136,-1.2637 -2.5158,-0.9733 -3.2665,-4.3789 -3.2665,-14.8195 v -13.5558 l 28.1509,-40.8706 c 15.483,-22.4788 28.4726,-41.2403 28.8657,-41.6923 1.9098,-2.195 21.3799,-2.4889 25.2856,-0.3817 4.2925,2.316 4.4313,3.6273 4.4313,41.8732 v 39.4823 h 7.0068 c 8.1498,0 9.5139,2.3527 9.5139,16.4089 0,11.2398 -2.5689,14.8192 -10.6354,14.8192 -5.4653,0 -5.7025,0.4509 -6.2985,11.9707 l -0.6193,11.9708 -14.8521,0.6092 c -13.032,0.5346 -15.1198,0.105 -17.037,-3.5064 z m -2.1848,-61.6408 c 0,-5.1527 -0.42,-9.3685 -0.9333,-9.3685 -0.5134,0 -3.8105,4.2158 -7.327,9.3685 l -6.3937,9.3684 h 7.327 c 7.3071,0 7.327,-0.025 7.327,-9.3684 z M 1495.3939,712.36367 c -1.9113,-1.22229 -2.5005,-6.41098 -2.0651,-18.18451 l 0.6092,-16.4742 h 146.6209 146.6208 l 0.6163,15.56828 c 0.5089,12.8571 -0.01,16.02941 -2.9761,18.21638 -2.8252,2.08268 -33.8225,2.64129 -145.172,2.61623 -77.8689,-0.0167 -142.7832,-0.80153 -144.254,-1.74218 z m 191.6293,-63.51486 c 0,-1.55803 5.3434,-5.70491 11.8742,-9.21534 19.747,-10.6143 36.7272,-27.75566 46.0887,-46.52626 4.4912,-9.00518 7.5196,-16.37305 6.7297,-16.37305 -0.7898,0 -5.2181,1.84573 -9.8406,4.10162 -9.1628,4.47168 -38.3313,8.21703 -38.3313,4.9219 0,-1.09107 4.5135,-6.70452 10.03,-12.47433 11.9512,-12.49991 18.8811,-30.48458 18.8811,-49.00023 0,-6.64785 -0.5361,-12.08699 -1.1914,-12.08699 -0.6552,0 -4.0254,2.85705 -7.4892,6.34902 -6.1416,6.19153 -35.8525,24.87906 -39.5547,24.87906 -1.0763,0 -1.25,-10.28685 -0.4131,-24.462 1.8694,-31.66342 -1.877,-50.06854 -13.8785,-68.18131 -10.5352,-15.8999 -15.8957,-21.85966 -19.6619,-21.85966 -2.1858,0 -2.6805,1.58962 -1.8295,5.87894 1.5239,7.68159 -8.7096,40.62759 -17.3468,55.84655 l -6.5786,11.59176 1.4232,22.67473 c 0.7827,12.4711 0.9523,22.67473 0.3769,22.67473 -0.5755,0 -3.6456,-1.14126 -6.8225,-2.53614 -12.1844,-5.34982 -22.001,-13.29479 -28.9122,-23.39982 l -7.179,-10.4968 0.9094,21.45309 c 0.8962,21.14039 1.0146,21.56519 8.1221,29.14621 9.551,10.1872 16.8897,21.1442 15.2613,22.7858 -2.5598,2.58058 -35.938,-3.02551 -44.3588,-7.45036 -10.4874,-5.51076 -10.751,-3.77887 -2.3117,15.18366 10.0194,22.51311 36.7444,47.277 56.3262,52.19301 3.1342,0.78682 6.2891,2.39396 7.0109,3.57143 0.889,1.45015 -5.5082,1.65334 -19.8287,0.62981 -27.7502,-1.98338 -57.2514,-12.63411 -80.247,-28.97133 -23.1898,-16.47515 -28.3588,-26.70626 -44.8455,-88.76354 -14.6233,-55.04338 -16.9636,-66.6199 -13.4681,-66.6199 1.2851,0 11.0523,8.84394 21.7049,19.65318 15.9239,16.15808 20.774,19.88182 27.2724,20.93868 4.3472,0.707 9.938,1.70335 12.4239,2.21411 7.4124,1.52291 7.4513,-2.53028 0.1458,-15.20195 -16.1094,-27.94214 -18.0685,-38.54924 -16.0566,-86.93738 0.3333,-8.0152 -0.088,-18.6665 -0.9362,-23.66953 -2.1682,-12.78917 1.5662,-10.7746 14.7124,7.93678 15.9007,22.63208 30.9873,36.91162 34.8662,33.00113 0.4406,-0.44423 -0.5587,-5.36286 -2.2207,-10.9303 -4.1629,-13.94482 -3.7864,-31.13792 1.3169,-60.13492 4.0627,-23.08424 4.1284,-25.20843 1.0325,-33.38076 -4.7654,-12.5795 -4.4105,-16.48776 1.3402,-14.75824 6.9174,2.08039 20.7051,10.40417 24.5182,14.80192 3.717,4.28684 9.1405,20.2233 11.2324,33.00525 1.6411,10.02788 11.0497,32.26902 13.6505,32.26902 1.9732,0 8.0569,-13.18689 12.1738,-26.38738 1.4682,-4.70782 3.0635,-29.66711 3.9023,-61.05125 1.2797,-47.88538 1.888,-54.46484 6.2072,-67.14038 2.6337,-7.72895 5.8784,-14.05263 7.2104,-14.05263 1.3321,0 4.5865,7.72895 7.2321,17.17544 2.6456,9.4465 15.1108,40.12809 27.7005,68.18131 l 22.8904,51.00587 0.1931,21.85951 c 0.2216,25.08725 2.7562,28.40211 12.1863,15.93813 7.4265,-9.81593 19.6341,-40.32072 19.7083,-49.24794 0.097,-11.65496 2.4756,-23.11467 4.6467,-22.38508 3.0453,1.02335 11.6359,23.50617 16.0897,42.10897 3.4526,14.42094 3.6955,19.12401 1.8497,35.81224 -1.1957,10.81005 -4.269,24.48977 -7.0279,31.28198 -2.6966,6.63894 -4.155,12.84935 -3.241,13.80089 0.9141,0.95154 5.2574,-0.15239 9.6517,-2.45336 6.0523,-3.16894 10.9945,-8.98927 20.3803,-24.0013 6.8148,-10.89983 13.5128,-19.86687 14.8844,-19.92676 1.3717,-0.06 4.5937,6.6832 7.1602,14.98467 9.593,31.02966 4.758,65.60008 -13.0622,93.39553 -7.9199,12.35316 -9.4712,16.42322 -6.2596,16.42322 6.8002,0 23.69,-7.40426 30.7122,-13.46386 5.7325,-4.94672 8.7997,-6.45539 9.4816,-4.66381 0.5544,1.45654 0.3075,11.98638 -0.5488,23.39966 -1.9821,26.42056 -9.5609,50.62003 -23.186,74.03414 -11.2511,19.3346 -20.777,27.43168 -48.5881,41.30062 -21.5139,10.72861 -56.2947,16.78359 -56.2947,9.80032 z m -762.07919,128.7177 -4.91377,-5.27299 31.89115,-32.20071 c 17.54014,-17.7104 33.50723,-32.20071 35.48243,-32.20071 1.97521,0 5.15876,2.41173 7.07457,5.35939 l 3.48329,5.3594 -31.80559,32.11429 c -17.49307,17.66288 -32.81645,32.11432 -34.05195,32.11432 -1.2355,0 -4.45756,-2.37286 -7.16013,-5.27299 z m 1373.41139,-51.91019 -31.8912,-32.20071 4.9138,-5.27299 c 2.7026,-2.90013 5.9523,-5.27298 7.2217,-5.27298 1.2694,0 16.6034,14.52026 34.0755,32.26727 l 31.7676,32.26726 -4.8518,5.20643 c -2.6685,2.86354 -5.8626,5.20643 -7.0981,5.20643 -1.2355,0 -16.5974,-14.49031 -34.1375,-32.20071 z m -1270.1573,-52.18341 -4.9137,-5.27299 31.8911,-32.20071 c 17.5402,-17.7104 32.9021,-32.20071 34.1376,-32.20071 1.2355,0 4.4296,2.34289 7.0981,5.20643 l 4.8517,5.20643 -31.7675,32.26726 c -17.4722,17.74701 -32.8062,32.26727 -34.0755,32.26727 -1.2694,0 -4.5192,-2.37285 -7.2218,-5.27298 z m 1167.3268,-51.48245 c -17.3072,-17.47513 -31.4676,-32.78782 -31.4676,-34.02822 0,-3.12427 6.9224,-9.14621 10.5139,-9.14621 4.0525,0 63.8291,60.64937 63.8291,64.76105 0,3.48992 -6.2324,10.18635 -9.4804,10.18635 -1.0602,0 -16.0879,-14.29784 -33.395,-31.77297 z M 1133.941,569.8339 c -2.4696,-2.65012 -4.4901,-5.70618 -4.4901,-6.79128 0,-1.08509 14.3734,-16.44058 31.941,-34.12332 l 31.941,-32.15043 5.2305,4.95371 c 2.8767,2.72455 5.2304,6.00075 5.2304,7.28045 0,2.2153 -62.1534,65.64926 -64.324,65.64926 -0.5713,0 -3.0592,-2.16827 -5.5288,-4.81839 z m 958.3297,-51.93705 c -17.3071,-17.47513 -31.4675,-32.76972 -31.4675,-33.98797 0,-1.21827 2.324,-4.41607 5.1644,-7.10622 l 5.1645,-4.8912 32.007,32.02582 c 17.6039,17.6142 32.0071,33.07285 32.0071,34.35253 0,2.18503 -8.4706,11.38001 -10.4835,11.38001 -0.5085,0 -15.0848,-14.29784 -32.392,-31.77297 z m -855.4992,-54.69302 -4.9138,-5.27299 31.8912,-32.20071 c 17.5401,-17.7104 32.902,-32.20071 34.1375,-32.20071 1.2355,0 4.4297,2.34289 7.0981,5.20643 l 4.8518,5.20642 -31.7676,32.26727 c -17.4721,17.74701 -32.8061,32.26727 -34.0755,32.26727 -1.2693,0 -4.5191,-2.37285 -7.2217,-5.27298 z m 749.7564,-51.91019 -31.8912,-32.20072 4.9138,-5.27298 c 2.7025,-2.90013 5.9523,-5.27299 7.2217,-5.27299 1.2694,0 16.6034,14.52027 34.0755,32.26727 l 31.7676,32.26727 -4.8518,5.20643 c -2.6685,2.86353 -5.8626,5.20643 -7.0981,5.20643 -1.2355,0 -16.5974,-14.49031 -34.1375,-32.20071 z m -645.086,-52.79951 c -1.8797,-2.09397 -3.4177,-4.68161 -3.4177,-5.75034 0,-1.06873 14.3735,-16.41083 31.941,-34.09357 l 31.9411,-32.15043 5.2304,4.95371 c 2.8768,2.72455 5.2305,5.97318 5.2305,7.2192 0,3.5944 -60.6099,63.62864 -64.2388,63.62864 -1.7978,0 -4.8068,-1.71324 -6.6865,-3.80721 z m 542.2555,-50.86636 c -17.3072,-17.47513 -31.4676,-32.78782 -31.4676,-34.02822 0,-3.12426 6.9224,-9.1462 10.5139,-9.1462 4.0525,0 63.8291,60.64937 63.8291,64.76104 0,3.48993 -6.2324,10.18635 -9.4804,10.18635 -1.0602,0 -16.0879,-14.29784 -33.395,-31.77297 z M 1445.868,257.04874 c -2.5243,-1.78247 -4.5896,-4.83892 -4.5896,-6.79211 0,-4.47316 59.8121,-64.91442 64.2387,-64.91442 3.4618,0 10.1042,6.28305 10.1042,9.55754 0,1.98066 -62.157,65.38985 -64.0985,65.38985 -0.5858,0 -3.1305,-1.45838 -5.6548,-3.24086 z m 334.5752,-53.51457 c -17.3071,-17.47513 -31.4675,-32.76972 -31.4675,-33.98799 0,-1.21826 2.324,-4.41606 5.1644,-7.10621 l 5.1645,-4.89119 32.007,32.02582 c 17.6039,17.6142 32.0071,33.07284 32.0071,34.35253 0,2.18503 -8.4706,11.38001 -10.4835,11.38001 -0.5085,0 -15.0848,-14.29784 -32.392,-31.77297 z m -231.8442,-54.69303 -4.9138,-5.27299 31.8912,-32.20071 c 17.5401,-17.71039 32.92,-32.200709 34.1774,-32.200709 3.1392,0 9.1217,6.951635 9.1217,10.599319 0,3.410633 -59.8183,64.34808 -63.1663,64.34808 -1.208,0 -4.4076,-2.37285 -7.1102,-5.27299 z m 126.3333,-51.641907 -31.7091,-32.051017 5.8956,-6.628887 5.8956,-6.628887 32.8235,33.345317 c 31.9369,32.444721 32.7393,33.473731 29.707,38.100141 -6.1475,9.37956 -9.5241,7.30851 -42.6126,-26.136667 z"
           id="path5235" />
        <path
           style="fill:#5e5e5e;stroke-width:2.07346"
           d="M 1316.8546,1131.0301 C 1139.9559,952.69036 995.22048,805.83919 995.22048,804.69416 c 0,-2.71035 642.63692,-650.58003 645.32532,-650.58003 1.9752,0 645.3956,646.6308 647.0943,650.32292 1.1898,2.58606 -642.2919,650.84715 -646.0487,650.84715 -1.7064,0 -147.838,-145.9144 -324.7368,-324.2541 z m 631.1173,-18.9682 C 2190.9187,867.13577 2253.0602,803.42834 2252.0696,800.30153 2251.3848,798.14011 2113.7471,658.18859 1946.208,489.29818 L 1641.5914,182.22469 1336.9748,489.29818 c -167.5391,168.89041 -305.1768,308.84193 -305.8616,311.00335 -0.9907,3.12681 61.1509,66.83424 304.0977,311.76037 167.9385,169.3067 305.8097,307.8305 306.3805,307.8305 0.5708,0 138.442,-138.5238 306.3805,-307.8305 z m -301.1783,244.9539 c -0.5168,-1.4864 -1.2018,-6.9182 -1.5221,-12.0708 l -0.5825,-9.3685 -23.6227,-0.5923 c -13.0736,-0.3278 -24.8317,-1.6038 -26.3298,-2.8572 -1.5923,-1.3323 -2.7019,-6.6609 -2.6944,-12.9399 0.012,-10.3236 0.9468,-12.0295 28.3949,-51.8352 l 28.3822,-41.1603 12.3905,0.5638 12.3905,0.5638 0.5608,40.076 0.5609,40.0761 h 5.7376 c 7.756,0 10.6939,3.5052 10.6939,12.7589 0,8.9078 -4.3023,14.3054 -11.4024,14.3054 -4.5315,0 -4.9602,0.9277 -5.5315,11.9708 l -0.6193,11.9707 -12.9335,0.6205 c -9.1933,0.4411 -13.2052,-0.1609 -13.8731,-2.0818 z m -1.4763,-62.8597 c 0.3456,-6.7508 -0.1706,-13.0795 -1.1469,-14.0638 -1.736,-1.7501 -19.0997,21.4901 -19.0997,25.5637 0,1.1389 4.342,1.7625 9.8092,1.4089 l 9.8091,-0.6346 z M 1495.3939,712.36367 c -1.9113,-1.22229 -2.5005,-6.41098 -2.0651,-18.18451 l 0.6092,-16.4742 h 146.6209 146.6208 l 0.6163,15.56828 c 0.5089,12.8571 -0.01,16.02941 -2.9761,18.21638 -2.8252,2.08268 -33.8225,2.64129 -145.172,2.61623 -77.8689,-0.0167 -142.7832,-0.80153 -144.254,-1.74218 z m 191.6293,-63.51486 c 0,-1.55803 5.3434,-5.70491 11.8742,-9.21534 19.747,-10.6143 36.7272,-27.75566 46.0887,-46.52626 4.4912,-9.00518 7.5196,-16.37305 6.7297,-16.37305 -0.7898,0 -5.2181,1.84573 -9.8406,4.10162 -9.1628,4.47168 -38.3313,8.21703 -38.3313,4.9219 0,-1.09107 4.5135,-6.70452 10.03,-12.47433 11.9512,-12.49991 18.8811,-30.48458 18.8811,-49.00023 0,-6.64785 -0.5361,-12.08699 -1.1914,-12.08699 -0.6552,0 -4.0254,2.85705 -7.4892,6.34902 -6.1416,6.19153 -35.8525,24.87906 -39.5547,24.87906 -1.0763,0 -1.25,-10.28685 -0.4131,-24.462 1.8694,-31.66342 -1.877,-50.06854 -13.8785,-68.18131 -10.5352,-15.8999 -15.8957,-21.85966 -19.6619,-21.85966 -2.1858,0 -2.6805,1.58962 -1.8295,5.87894 1.5239,7.68159 -8.7096,40.62759 -17.3468,55.84655 l -6.5786,11.59176 1.4232,22.67473 c 0.7827,12.4711 0.9523,22.67473 0.3769,22.67473 -0.5755,0 -3.6456,-1.14126 -6.8225,-2.53614 -12.1844,-5.34982 -22.001,-13.29479 -28.9122,-23.39982 l -7.179,-10.4968 0.9094,21.45309 c 0.8962,21.14039 1.0146,21.56519 8.1221,29.14621 9.551,10.1872 16.8897,21.1442 15.2613,22.7858 -2.5598,2.58058 -35.938,-3.02551 -44.3588,-7.45036 -10.4874,-5.51076 -10.751,-3.77887 -2.3117,15.18366 10.0194,22.51311 36.7444,47.277 56.3262,52.19301 3.1342,0.78682 6.2891,2.39396 7.0109,3.57143 0.889,1.45015 -5.5082,1.65334 -19.8287,0.62981 -27.7502,-1.98338 -57.2514,-12.63411 -80.247,-28.97133 -23.1898,-16.47515 -28.3588,-26.70626 -44.8455,-88.76354 -14.6233,-55.04338 -16.9636,-66.6199 -13.4681,-66.6199 1.2851,0 11.0523,8.84394 21.7049,19.65318 15.9239,16.15808 20.774,19.88182 27.2724,20.93868 4.3472,0.707 9.938,1.70335 12.4239,2.21411 7.4124,1.52291 7.4513,-2.53028 0.1458,-15.20195 -16.1094,-27.94214 -18.0685,-38.54924 -16.0566,-86.93738 0.3333,-8.0152 -0.088,-18.6665 -0.9362,-23.66953 -2.1682,-12.78917 1.5662,-10.7746 14.7124,7.93678 15.9007,22.63208 30.9873,36.91162 34.8662,33.00113 0.4406,-0.44423 -0.5587,-5.36286 -2.2207,-10.9303 -4.1629,-13.94482 -3.7864,-31.13792 1.3169,-60.13492 4.0627,-23.08424 4.1284,-25.20843 1.0325,-33.38076 -4.7654,-12.5795 -4.4105,-16.48776 1.3402,-14.75824 6.9174,2.08039 20.7051,10.40417 24.5182,14.80192 3.717,4.28684 9.1405,20.2233 11.2324,33.00525 1.6411,10.02788 11.0497,32.26902 13.6505,32.26902 1.9732,0 8.0569,-13.18689 12.1738,-26.38738 1.4682,-4.70782 3.0635,-29.66711 3.9023,-61.05125 1.2797,-47.88538 1.888,-54.46484 6.2072,-67.14038 2.6337,-7.72895 5.8784,-14.05263 7.2104,-14.05263 1.3321,0 4.5865,7.72895 7.2321,17.17544 2.6456,9.4465 15.1108,40.12809 27.7005,68.18131 l 22.8904,51.00587 0.1931,21.85951 c 0.2216,25.08725 2.7562,28.40211 12.1863,15.93813 7.4265,-9.81593 19.6341,-40.32072 19.7083,-49.24794 0.097,-11.65496 2.4756,-23.11467 4.6467,-22.38508 3.0453,1.02335 11.6359,23.50617 16.0897,42.10897 3.4526,14.42094 3.6955,19.12401 1.8497,35.81224 -1.1957,10.81005 -4.269,24.48977 -7.0279,31.28198 -2.6966,6.63894 -4.155,12.84935 -3.241,13.80089 0.9141,0.95154 5.2574,-0.15239 9.6517,-2.45336 6.0523,-3.16894 10.9945,-8.98927 20.3803,-24.0013 6.8148,-10.89983 13.5128,-19.86687 14.8844,-19.92676 1.3717,-0.06 4.5937,6.6832 7.1602,14.98467 9.593,31.02966 4.758,65.60008 -13.0622,93.39553 -7.9199,12.35316 -9.4712,16.42322 -6.2596,16.42322 6.8002,0 23.69,-7.40426 30.7122,-13.46386 5.7325,-4.94672 8.7997,-6.45539 9.4816,-4.66381 0.5544,1.45654 0.3075,11.98638 -0.5488,23.39966 -1.9821,26.42056 -9.5609,50.62003 -23.186,74.03414 -11.2511,19.3346 -20.777,27.43168 -48.5881,41.30062 -21.5139,10.72861 -56.2947,16.78359 -56.2947,9.80032 z m -762.07919,128.7177 -4.91377,-5.27299 31.89115,-32.20071 c 17.54014,-17.7104 33.50723,-32.20071 35.48243,-32.20071 1.97521,0 5.15876,2.41173 7.07457,5.35939 l 3.48329,5.3594 -31.80559,32.11429 c -17.49307,17.66288 -32.81645,32.11432 -34.05195,32.11432 -1.2355,0 -4.45756,-2.37286 -7.16013,-5.27299 z m 1373.41139,-51.91019 -31.8912,-32.20071 4.9138,-5.27299 c 2.7026,-2.90013 5.9523,-5.27298 7.2217,-5.27298 1.2694,0 16.6034,14.52026 34.0755,32.26727 l 31.7676,32.26726 -4.8518,5.20643 c -2.6685,2.86354 -5.8626,5.20643 -7.0981,5.20643 -1.2355,0 -16.5974,-14.49031 -34.1375,-32.20071 z m -1270.1573,-52.18341 -4.9137,-5.27299 31.8911,-32.20071 c 17.5402,-17.7104 32.9021,-32.20071 34.1376,-32.20071 1.2355,0 4.4296,2.34289 7.0981,5.20643 l 4.8517,5.20643 -31.7675,32.26726 c -17.4722,17.74701 -32.8062,32.26727 -34.0755,32.26727 -1.2694,0 -4.5192,-2.37285 -7.2218,-5.27298 z m 1167.3268,-51.48245 c -17.3072,-17.47513 -31.4676,-32.78782 -31.4676,-34.02822 0,-3.12427 6.9224,-9.14621 10.5139,-9.14621 4.0525,0 63.8291,60.64937 63.8291,64.76105 0,3.48992 -6.2324,10.18635 -9.4804,10.18635 -1.0602,0 -16.0879,-14.29784 -33.395,-31.77297 z M 1133.941,569.8339 c -2.4696,-2.65012 -4.4901,-5.70618 -4.4901,-6.79128 0,-1.08509 14.3734,-16.44058 31.941,-34.12332 l 31.941,-32.15043 5.2305,4.95371 c 2.8767,2.72455 5.2304,6.00075 5.2304,7.28045 0,2.2153 -62.1534,65.64926 -64.324,65.64926 -0.5713,0 -3.0592,-2.16827 -5.5288,-4.81839 z m 958.3297,-51.93705 c -17.3071,-17.47513 -31.4675,-32.76972 -31.4675,-33.98797 0,-1.21827 2.324,-4.41607 5.1644,-7.10622 l 5.1645,-4.8912 32.007,32.02582 c 17.6039,17.6142 32.0071,33.07285 32.0071,34.35253 0,2.18503 -8.4706,11.38001 -10.4835,11.38001 -0.5085,0 -15.0848,-14.29784 -32.392,-31.77297 z m -855.4992,-54.69302 -4.9138,-5.27299 31.8912,-32.20071 c 17.5401,-17.7104 32.902,-32.20071 34.1375,-32.20071 1.2355,0 4.4297,2.34289 7.0981,5.20643 l 4.8518,5.20642 -31.7676,32.26727 c -17.4721,17.74701 -32.8061,32.26727 -34.0755,32.26727 -1.2693,0 -4.5191,-2.37285 -7.2217,-5.27298 z m 749.7564,-51.91019 -31.8912,-32.20072 4.9138,-5.27298 c 2.7025,-2.90013 5.9523,-5.27299 7.2217,-5.27299 1.2694,0 16.6034,14.52027 34.0755,32.26727 l 31.7676,32.26727 -4.8518,5.20643 c -2.6685,2.86353 -5.8626,5.20643 -7.0981,5.20643 -1.2355,0 -16.5974,-14.49031 -34.1375,-32.20071 z m -645.086,-52.79951 c -1.8797,-2.09397 -3.4177,-4.68161 -3.4177,-5.75034 0,-1.06873 14.3735,-16.41083 31.941,-34.09357 l 31.9411,-32.15043 5.2304,4.95371 c 2.8768,2.72455 5.2305,5.97318 5.2305,7.2192 0,3.5944 -60.6099,63.62864 -64.2388,63.62864 -1.7978,0 -4.8068,-1.71324 -6.6865,-3.80721 z m 542.2555,-50.86636 c -17.3072,-17.47513 -31.4676,-32.78782 -31.4676,-34.02822 0,-3.12426 6.9224,-9.1462 10.5139,-9.1462 4.0525,0 63.8291,60.64937 63.8291,64.76104 0,3.48993 -6.2324,10.18635 -9.4804,10.18635 -1.0602,0 -16.0879,-14.29784 -33.395,-31.77297 z M 1445.868,257.04874 c -2.5243,-1.78247 -4.5896,-4.83892 -4.5896,-6.79211 0,-4.47316 59.8121,-64.91442 64.2387,-64.91442 3.4618,0 10.1042,6.28305 10.1042,9.55754 0,1.98066 -62.157,65.38985 -64.0985,65.38985 -0.5858,0 -3.1305,-1.45838 -5.6548,-3.24086 z m 334.5752,-53.51457 c -17.3071,-17.47513 -31.4675,-32.76972 -31.4675,-33.98799 0,-1.21826 2.324,-4.41606 5.1644,-7.10621 l 5.1645,-4.89119 32.007,32.02582 c 17.6039,17.6142 32.0071,33.07284 32.0071,34.35253 0,2.18503 -8.4706,11.38001 -10.4835,11.38001 -0.5085,0 -15.0848,-14.29784 -32.392,-31.77297 z m -231.8442,-54.69303 -4.9138,-5.27299 31.8912,-32.20071 c 17.5401,-17.71039 32.92,-32.200709 34.1774,-32.200709 3.1392,0 9.1217,6.951635 9.1217,10.599319 0,3.410633 -59.8183,64.34808 -63.1663,64.34808 -1.208,0 -4.4076,-2.37285 -7.1102,-5.27299 z m 126.3333,-51.641907 -31.7091,-32.051017 5.8956,-6.628887 5.8956,-6.628887 32.8235,33.345317 c 31.9369,32.444721 32.7393,33.473731 29.707,38.100141 -6.1475,9.37956 -9.5241,7.30851 -42.6126,-26.136667 z"
           id="path5233" />
        <path
           style="fill:#a22b23;stroke-width:2.07346"
           d="M 1316.8546,1131.0301 C 1139.9559,952.69036 995.22048,805.6061 995.22048,804.17619 c 0,-1.42991 1.16049,-2.59984 2.57887,-2.59984 1.41838,0 146.85185,-145.44367 323.18545,-323.20813 l 320.6066,-323.20814 320.6066,323.20814 c 176.3336,177.76446 321.767,323.20813 323.1854,323.20813 1.4184,0 2.5789,1.17217 2.5789,2.60483 0,3.74286 -642.6602,651.10302 -646.3759,651.10302 -1.7037,0 -147.833,-145.9144 -324.7318,-324.2541 z m 631.001,-18.8509 C 2235.766,821.92304 2253.02,804.12148 2251.9897,798.39331 c -0.8393,-4.66612 -71.058,-76.61171 -303.164,-310.61983 -166.1394,-167.50094 -303.8258,-305.11199 -305.9698,-305.80234 -5.8593,-1.88666 -611.9745,609.3406 -612.0979,617.26046 -0.071,4.53248 52.0664,58.07338 304.8552,313.0642 167.7172,169.1781 305.4074,307.5966 305.9782,307.5966 0.5708,0 138.3896,-138.471 306.2642,-307.7132 z m -301.062,244.8366 c -0.5168,-1.4864 -1.2018,-6.9182 -1.5221,-12.0708 l -0.5825,-9.3685 -23.6227,-0.5923 c -13.0736,-0.3278 -24.8317,-1.6038 -26.3298,-2.8572 -1.5923,-1.3323 -2.7019,-6.6609 -2.6944,-12.9399 0.012,-10.3236 0.9468,-12.0295 28.3949,-51.8352 l 28.3822,-41.1603 12.3905,0.5638 12.3905,0.5638 0.5608,40.076 0.5609,40.0761 h 5.7376 c 7.756,0 10.6939,3.5052 10.6939,12.7589 0,8.9078 -4.3023,14.3054 -11.4024,14.3054 -4.5315,0 -4.9602,0.9277 -5.5315,11.9708 l -0.6193,11.9707 -12.9335,0.6205 c -9.1933,0.4411 -13.2052,-0.1609 -13.8731,-2.0818 z m -1.4763,-62.8597 c 0.3456,-6.7508 -0.1706,-13.0795 -1.1469,-14.0638 -1.736,-1.7501 -19.0997,21.4901 -19.0997,25.5637 0,1.1389 4.342,1.7625 9.8092,1.4089 l 9.8091,-0.6346 z M 1494.9705,694.35993 v -15.64216 l 145.0721,0.53454 145.072,0.53452 v 14.5731 14.57311 l -145.072,0.53452 -145.0721,0.53454 z m 99.124,-48.9441 c -13.5905,-1.5297 -42.9698,-11.50749 -55.2107,-18.75063 -33.5432,-19.84807 -39.784,-30.3969 -57.745,-97.60543 -7.2217,-27.02297 -12.872,-51.94319 -12.5561,-55.37828 l 0.5743,-6.24561 8.2603,9.01319 c 25.0827,27.36873 29.1744,30.25331 45.9838,32.41762 8.5535,1.10131 11.1244,0.7517 12.0333,-1.63637 0.6358,-1.67029 -3.5821,-11.89746 -9.3731,-22.72705 -9.0039,-16.83814 -10.8414,-22.26475 -12.6857,-37.46468 -1.5174,-12.50583 -1.5006,-21.3521 0.057,-29.84403 1.2173,-6.63824 1.6148,-17.95748 0.8835,-25.15389 -0.7314,-7.19639 -0.7814,-13.08436 -0.1113,-13.08436 0.6701,0 4.2197,4.45 7.8878,9.88889 15.9688,23.67789 35.7052,41.97038 40.2929,37.34531 0.8223,-0.82896 0.3759,-5.94051 -0.9919,-11.359 -4.0042,-15.86241 -3.7701,-45.10672 0.5387,-67.27199 3.648,-18.76635 3.676,-20.54252 0.4728,-30.01975 -1.8725,-5.54025 -2.8876,-10.59446 -2.2556,-11.23155 0.6319,-0.63707 6.3385,1.58085 12.6813,4.92871 13.4106,7.07842 17.5854,14.4495 22.3235,39.41477 3.5032,18.45836 10.7646,34.55023 15.5907,34.55023 4.1377,0 12.8754,-18.87925 16.1866,-34.97383 1.2483,-6.06776 2.3023,-29.95724 2.3422,-53.08774 0.047,-27.27163 1.0447,-46.4465 2.8381,-54.54667 2.9002,-13.09896 6.646,-23.94153 8.2712,-23.94153 0.5273,0 3.3683,7.96395 6.3133,17.69766 2.945,9.73371 14.6254,38.29898 25.9563,63.47836 22.9819,51.06991 25.8051,60.75232 23.7738,81.53461 -1.5529,15.88747 0.6487,19.02163 10.2602,14.60671 7.7882,-3.57739 23.6307,-38.30522 25.9427,-56.86823 1.0232,-8.21518 2.2543,-15.33376 2.7357,-15.81911 1.8026,-1.81727 9.8299,19.82819 13.4833,36.35738 4.6452,21.01681 2.6428,46.4693 -5.1834,65.88644 -5.9641,14.79688 -6.2152,18.00159 -1.4005,17.86837 9.7041,-0.26852 18.3481,-7.60505 30.5432,-25.9234 6.8605,-10.30527 13.3427,-19.20527 14.4048,-19.77779 2.3841,-1.28506 11.0615,31.42145 11.2142,42.2674 0.2704,19.22051 -8.2011,44.4696 -22.6002,67.35926 -4.0019,6.36158 -5.4962,10.58197 -4.2069,11.88174 3.4038,3.43147 23.8446,-2.48775 32.4616,-9.40019 l 7.8799,-6.32117 0.552,17.36966 c 0.4773,15.02179 -0.3857,20.2318 -6.3849,38.54378 -9.2599,28.26533 -22.4813,51.41646 -34.4362,60.29906 -23.533,17.48516 -49.5304,27.77144 -70.2128,27.78087 l -11.358,0.004 11.358,-6.45166 c 16.3458,-9.28497 36.0113,-29.51726 45.5406,-46.85331 7.5693,-13.76908 10.038,-21.60235 6.8086,-21.60235 -0.7387,0 -6.0821,2.32037 -11.8743,5.15638 -11.8315,5.79306 -34.2797,9.42068 -34.2797,5.53961 0,-1.30267 0.8992,-2.36851 1.9982,-2.36851 3.6873,0 18.1042,-21.74858 21.5849,-32.56174 2.3355,-7.25583 3.2493,-15.97107 2.8377,-27.06434 -0.6293,-16.95831 -2.8408,-20.23453 -7.3112,-10.83146 -1.4156,2.97753 -5.6958,7.81433 -9.5116,10.74843 -9.0268,6.94109 -27.7818,18.07167 -30.4506,18.07167 -1.3558,0 -1.6248,-7.82846 -0.7692,-22.38012 2.2062,-37.51952 -4.6904,-59.0816 -26.6356,-83.27489 -10.9354,-12.05558 -13.695,-11.60466 -13.695,2.2377 0,12.51584 -6.4239,33.30987 -16.5076,53.43485 -6.6449,13.26195 -6.7485,13.89448 -5.5438,33.83042 1.3667,22.61601 0.9851,23.16931 -10.99,15.93199 -11.4055,-6.8931 -18.7492,-14.6741 -22.8796,-24.24194 -3.8407,-8.89674 -6.8384,-11.07119 -8.6102,-6.24562 -0.6924,1.88557 1.4955,43.39344 2.4626,46.72098 0.064,0.21961 4.7625,5.75223 10.4415,12.29468 5.679,6.54245 10.3254,12.68643 10.3254,13.65331 0,4.49533 -31.8226,-1.31838 -42.8761,-7.83308 -12.1276,-7.14778 -13.0247,-3.28266 -3.8728,16.68633 8.7836,19.1655 26.6958,40.26969 40.7015,47.95453 5.5977,3.07138 10.1776,6.46271 10.1776,7.53627 0,1.07358 -0.2324,1.81893 -0.5163,1.65638 -0.284,-0.1626 -6.5566,-0.97546 -13.9393,-1.80642 z M 927.48576,778.25938 c -1.36295,-1.37404 -2.4781,-3.96247 -2.4781,-5.75207 0,-3.61837 57.60414,-62.53334 61.14199,-62.53334 1.2295,0 3.74397,1.68045 5.58771,3.73432 3.15436,3.51387 1.49545,5.60332 -28.09904,35.39183 -17.29822,17.41163 -31.95151,31.65751 -32.56288,31.65751 -0.61137,0 -2.22672,-1.12422 -3.58968,-2.49825 z m 1373.38334,-52.1332 c -16.1851,-16.35506 -29.4275,-31.2495 -29.4275,-33.09879 0,-1.84926 1.4567,-4.58103 3.237,-6.07057 2.798,-2.34105 7.4869,1.57622 34.5804,28.88999 26.8307,27.04889 31.0156,32.123 29.0668,35.24285 -1.2522,2.00451 -3.5711,3.89845 -5.153,4.20877 -1.582,0.31033 -16.1186,-12.81719 -32.3037,-29.17225 z M 1030.7399,674.16577 c -1.363,-1.37403 -2.4781,-3.96246 -2.4781,-5.75206 0,-1.78962 13.3872,-16.7258 29.7493,-33.19152 21.315,-21.4499 30.696,-29.57149 33.0882,-28.64604 8.8545,3.42543 5.9824,7.94347 -24.8281,39.05638 -16.9015,17.06731 -31.2527,31.03149 -31.8916,31.03149 -0.6389,0 -2.2767,-1.12421 -3.6397,-2.49825 z m 1165.8848,-53.23449 -31.5316,-31.59342 4.6693,-4.70726 4.6693,-4.70726 31.4351,31.69071 31.4351,31.69072 -4.5728,4.60997 -4.5727,4.60997 z M 1133.994,567.9903 c -1.3629,-1.37404 -2.4781,-3.49405 -2.4781,-4.71113 0,-3.59777 58.6002,-61.4924 62.2418,-61.4924 1.8343,0 4.5406,1.46422 6.0138,3.25382 2.3116,2.80788 -1.5417,7.5156 -28.1162,34.35089 -16.9372,17.10339 -31.7822,31.09706 -32.989,31.09706 -1.2068,0 -3.3093,-1.12421 -4.6723,-2.49824 z m 957.9795,-52.4754 c -21.2769,-21.48825 -29.333,-30.94551 -28.415,-33.35719 3.3961,-8.92218 7.88,-6.03043 38.6176,24.90548 25.8519,26.01861 30.3418,31.44992 28.6435,34.64907 -1.1077,2.0866 -3.6196,3.79382 -5.5819,3.79382 -1.9624,0 -16.9313,-13.49603 -33.2642,-29.99118 z m -852.6602,-51.61821 c -1.363,-1.37403 -2.4781,-3.96247 -2.4781,-5.75206 0,-1.78962 13.3872,-16.72581 29.7493,-33.19152 21.3149,-21.4499 30.6959,-29.57149 33.0882,-28.64604 8.8545,3.42543 5.9824,7.94347 -24.8282,39.05638 -16.9014,17.06731 -31.2526,31.03149 -31.8915,31.03149 -0.6389,0 -2.2768,-1.12421 -3.6397,-2.49825 z m 749.7283,-52.1332 c -16.1851,-16.35506 -29.4275,-31.33126 -29.4275,-33.28045 0,-1.94919 1.6935,-4.45766 3.7633,-5.57438 3.1736,-1.7123 8.59,2.8438 34.5736,29.08242 26.3241,26.58236 30.4799,31.64192 28.5405,34.74663 -1.2484,1.9986 -3.5643,3.88771 -5.1462,4.19804 -1.582,0.31032 -16.1186,-12.81719 -32.3037,-29.17226 z m -646.4742,-54.04227 c -1.363,-1.37404 -2.4781,-3.49405 -2.4781,-4.71113 0,-3.59777 58.6001,-61.49241 62.2417,-61.49241 1.8344,0 4.5406,1.46423 6.0139,3.25382 2.3115,2.80789 -1.5417,7.5156 -28.1162,34.35089 -16.9372,17.1034 -31.7823,31.09707 -32.989,31.09707 -1.2068,0 -3.3093,-1.12421 -4.6723,-2.49824 z m 541.6897,-51.68127 -30.7791,-31.27894 4.5631,-4.60019 4.5631,-4.60017 31.361,31.616 c 31.0268,31.27905 31.3202,31.66146 27.5341,35.87913 -2.1048,2.34469 -4.4201,4.26309 -5.145,4.26309 -0.7249,0 -15.1686,-14.07552 -32.0972,-31.27892 z m -437.4143,-51.54848 c -1.9247,-2.14398 -3.4994,-4.77334 -3.4994,-5.84302 0,-2.73204 58.4137,-61.22437 61.142,-61.22437 1.2295,0 3.744,1.68045 5.5877,3.73432 3.1544,3.51388 1.4904,5.60848 -28.1893,35.48277 -30.3344,30.53324 -31.6756,31.59924 -35.041,27.8503 z m 333.0992,-53.54522 c -25.5347,-25.78839 -29.5688,-30.72759 -27.6305,-33.83042 1.2483,-1.9983 3.5639,-3.88703 5.1459,-4.19718 1.5819,-0.31014 16.7456,13.44933 33.6969,30.5766 26.5966,26.87254 30.4536,31.58646 28.1421,34.39432 -1.4733,1.78961 -4.2032,3.25382 -6.0664,3.25382 -1.8633,0 -16.8429,-13.58871 -33.288,-30.19714 z m -228.8012,-51.41224 c -1.363,-1.37404 -2.4781,-3.96247 -2.4781,-5.75208 0,-1.78961 13.3872,-16.72579 29.7493,-33.19151 21.3149,-21.449904 30.6959,-29.571481 33.0882,-28.646032 8.8545,3.425425 5.9824,7.94347 -24.8282,39.056372 -16.9014,17.06732 -31.2526,31.03149 -31.8915,31.03149 -0.6389,0 -2.2768,-1.12421 -3.6397,-2.49824 z m 126.0733,-52.133204 c -16.1851,-16.355056 -29.4275,-30.781085 -29.4275,-32.057844 0,-1.276758 1.3837,-3.479084 3.0749,-4.894056 1.6912,-1.414972 2.5657,-3.403368 1.9432,-4.418658 -4.0758,-6.648475 6.1822,2.872 33.1506,30.767156 26.2782,27.181206 30.6017,32.547176 28.6898,35.607786 -1.2381,1.98201 -3.5454,3.85756 -5.1273,4.16787 -1.582,0.31032 -16.1186,-12.8172 -32.3037,-29.172254 z"
           id="path5231" />
        <path
           style="fill:#070505;stroke-width:2.07346"
           d="M 1318.9297,1128.9432 C 1143.1612,951.74569 999.35064,805.83136 999.35064,804.6891 c 0,-1.14226 144.50416,-147.75359 321.12036,-325.80293 l 321.1204,-323.72609 321.1204,323.72609 c 176.6162,178.04934 321.1203,324.66067 321.1203,325.80293 0,3.38641 -638.8762,646.4313 -642.2407,646.4313 -1.6955,0 -146.8932,-144.9797 -322.6617,-322.1772 z m 630.8727,-14.5629 c 168.951,-170.32177 307.1837,-311.06238 307.1837,-312.75699 0,-3.76956 -608.6583,-617.90792 -614.1302,-619.65951 -3.0985,-0.99187 -66.289,61.64919 -308.0542,305.37581 -167.2859,168.64301 -305.34,308.85368 -306.7869,311.57929 -2.5443,4.79268 7.4848,15.1537 304.954,315.0464 169.1717,170.55 308.0495,310.0908 308.6174,310.0908 0.5679,0 139.2652,-139.3541 308.2162,-309.6758 z m -299.3102,241.4172 c -1.3513,-0.8663 -2.7453,-6.7072 -3.0976,-12.9799 l -0.6405,-11.4048 -24.702,-0.5904 c -26.7381,-0.639 -27.8731,-1.1414 -27.926,-12.3613 -0.032,-6.8573 7.3412,-18.7733 42.0523,-67.9586 l 14.8917,-21.1014 h 9.1999 9.2 l 0.5621,39.1181 c 0.4124,28.6916 1.238,39.3272 3.0977,39.9022 1.3945,0.4312 5.1429,1.3616 8.3298,2.0676 5.3692,1.1895 5.7481,1.9279 5.1627,10.0628 -0.5449,7.5732 -1.3408,8.878 -5.7943,9.4991 -8.1536,1.137 -10.3254,4.2766 -10.3254,14.9262 0,7.136 -0.9196,10.2875 -3.2666,11.1954 -4.4941,1.7386 -13.7704,1.5308 -16.7438,-0.375 z m -2.7056,-64.9812 c 0,-13.7468 -0.6976,-18.7369 -2.6194,-18.7369 -2.8886,0 -24.2282,30.7151 -24.2273,34.8714 5e-4,1.8149 4.0623,2.6023 13.4237,2.6023 h 13.423 z M 1494.9705,694.35993 v -15.64216 l 145.0721,0.53454 145.072,0.53452 v 14.5731 14.57311 l -145.072,0.53452 -145.0721,0.53454 z m 99.124,-48.9441 c -13.5905,-1.5297 -42.9698,-11.50749 -55.2107,-18.75063 -33.5432,-19.84807 -39.784,-30.3969 -57.745,-97.60543 -7.2217,-27.02297 -12.872,-51.94319 -12.5561,-55.37828 l 0.5743,-6.24561 8.2603,9.01319 c 25.0827,27.36873 29.1744,30.25331 45.9838,32.41762 8.5535,1.10131 11.1244,0.7517 12.0333,-1.63637 0.6358,-1.67029 -3.5821,-11.89746 -9.3731,-22.72705 -9.0039,-16.83814 -10.8414,-22.26475 -12.6857,-37.46468 -1.5174,-12.50583 -1.5006,-21.3521 0.057,-29.84403 1.2173,-6.63824 1.6148,-17.95748 0.8835,-25.15389 -0.7314,-7.19639 -0.7814,-13.08436 -0.1113,-13.08436 0.6701,0 4.2197,4.45 7.8878,9.88889 15.9688,23.67789 35.7052,41.97038 40.2929,37.34531 0.8223,-0.82896 0.3759,-5.94051 -0.9919,-11.359 -4.0042,-15.86241 -3.7701,-45.10672 0.5387,-67.27199 3.648,-18.76635 3.676,-20.54252 0.4728,-30.01975 -1.8725,-5.54025 -2.8876,-10.59446 -2.2556,-11.23155 0.6319,-0.63707 6.3385,1.58085 12.6813,4.92871 13.4106,7.07842 17.5854,14.4495 22.3235,39.41477 3.5032,18.45836 10.7646,34.55023 15.5907,34.55023 4.1377,0 12.8754,-18.87925 16.1866,-34.97383 1.2483,-6.06776 2.3023,-29.95724 2.3422,-53.08774 0.047,-27.27163 1.0447,-46.4465 2.8381,-54.54667 2.9002,-13.09896 6.646,-23.94153 8.2712,-23.94153 0.5273,0 3.3683,7.96395 6.3133,17.69766 2.945,9.73371 14.6254,38.29898 25.9563,63.47836 22.9819,51.06991 25.8051,60.75232 23.7738,81.53461 -1.5529,15.88747 0.6487,19.02163 10.2602,14.60671 7.7882,-3.57739 23.6307,-38.30522 25.9427,-56.86823 1.0232,-8.21518 2.2543,-15.33376 2.7357,-15.81911 1.8026,-1.81727 9.8299,19.82819 13.4833,36.35738 4.6452,21.01681 2.6428,46.4693 -5.1834,65.88644 -5.9641,14.79688 -6.2152,18.00159 -1.4005,17.86837 9.7041,-0.26852 18.3481,-7.60505 30.5432,-25.9234 6.8605,-10.30527 13.3427,-19.20527 14.4048,-19.77779 2.3841,-1.28506 11.0615,31.42145 11.2142,42.2674 0.2704,19.22051 -8.2011,44.4696 -22.6002,67.35926 -4.0019,6.36158 -5.4962,10.58197 -4.2069,11.88174 3.4038,3.43147 23.8446,-2.48775 32.4616,-9.40019 l 7.8799,-6.32117 0.552,17.36966 c 0.4773,15.02179 -0.3857,20.2318 -6.3849,38.54378 -9.2599,28.26533 -22.4813,51.41646 -34.4362,60.29906 -23.533,17.48516 -49.5304,27.77144 -70.2128,27.78087 l -11.358,0.004 11.358,-6.45166 c 16.3458,-9.28497 36.0113,-29.51726 45.5406,-46.85331 7.5693,-13.76908 10.038,-21.60235 6.8086,-21.60235 -0.7387,0 -6.0821,2.32037 -11.8743,5.15638 -11.8315,5.79306 -34.2797,9.42068 -34.2797,5.53961 0,-1.30267 0.8992,-2.36851 1.9982,-2.36851 3.6873,0 18.1042,-21.74858 21.5849,-32.56174 2.3355,-7.25583 3.2493,-15.97107 2.8377,-27.06434 -0.6293,-16.95831 -2.8408,-20.23453 -7.3112,-10.83146 -1.4156,2.97753 -5.6958,7.81433 -9.5116,10.74843 -9.0268,6.94109 -27.7818,18.07167 -30.4506,18.07167 -1.3558,0 -1.6248,-7.82846 -0.7692,-22.38012 2.2062,-37.51952 -4.6904,-59.0816 -26.6356,-83.27489 -10.9354,-12.05558 -13.695,-11.60466 -13.695,2.2377 0,12.51584 -6.4239,33.30987 -16.5076,53.43485 -6.6449,13.26195 -6.7485,13.89448 -5.5438,33.83042 1.3667,22.61601 0.9851,23.16931 -10.99,15.93199 -11.4055,-6.8931 -18.7492,-14.6741 -22.8796,-24.24194 -3.8407,-8.89674 -6.8384,-11.07119 -8.6102,-6.24562 -0.6924,1.88557 1.4955,43.39344 2.4626,46.72098 0.064,0.21961 4.7625,5.75223 10.4415,12.29468 5.679,6.54245 10.3254,12.68643 10.3254,13.65331 0,4.49533 -31.8226,-1.31838 -42.8761,-7.83308 -12.1276,-7.14778 -13.0247,-3.28266 -3.8728,16.68633 8.7836,19.1655 26.6958,40.26969 40.7015,47.95453 5.5977,3.07138 10.1776,6.46271 10.1776,7.53627 0,1.07358 -0.2324,1.81893 -0.5163,1.65638 -0.284,-0.1626 -6.5566,-0.97546 -13.9393,-1.80642 z M 927.48576,778.25938 c -1.36295,-1.37404 -2.4781,-3.96247 -2.4781,-5.75207 0,-3.61837 57.60414,-62.53334 61.14199,-62.53334 1.2295,0 3.74397,1.68045 5.58771,3.73432 3.15436,3.51387 1.49545,5.60332 -28.09904,35.39183 -17.29822,17.41163 -31.95151,31.65751 -32.56288,31.65751 -0.61137,0 -2.22672,-1.12422 -3.58968,-2.49825 z m 1373.38334,-52.1332 c -16.1851,-16.35506 -29.4275,-31.2495 -29.4275,-33.09879 0,-1.84926 1.4567,-4.58103 3.237,-6.07057 2.798,-2.34105 7.4869,1.57622 34.5804,28.88999 26.8307,27.04889 31.0156,32.123 29.0668,35.24285 -1.2522,2.00451 -3.5711,3.89845 -5.153,4.20877 -1.582,0.31033 -16.1186,-12.81719 -32.3037,-29.17225 z M 1030.7399,674.16577 c -1.363,-1.37403 -2.4781,-3.96246 -2.4781,-5.75206 0,-1.78962 13.3872,-16.7258 29.7493,-33.19152 21.315,-21.4499 30.696,-29.57149 33.0882,-28.64604 8.8545,3.42543 5.9824,7.94347 -24.8281,39.05638 -16.9015,17.06731 -31.2527,31.03149 -31.8916,31.03149 -0.6389,0 -2.2767,-1.12421 -3.6397,-2.49825 z m 1165.8848,-53.23449 -31.5316,-31.59342 4.6693,-4.70726 4.6693,-4.70726 31.4351,31.69071 31.4351,31.69072 -4.5728,4.60997 -4.5727,4.60997 z M 1133.994,567.9903 c -1.3629,-1.37404 -2.4781,-3.49405 -2.4781,-4.71113 0,-3.59777 58.6002,-61.4924 62.2418,-61.4924 1.8343,0 4.5406,1.46422 6.0138,3.25382 2.3116,2.80788 -1.5417,7.5156 -28.1162,34.35089 -16.9372,17.10339 -31.7822,31.09706 -32.989,31.09706 -1.2068,0 -3.3093,-1.12421 -4.6723,-2.49824 z m 957.9795,-52.4754 c -21.2769,-21.48825 -29.333,-30.94551 -28.415,-33.35719 3.3961,-8.92218 7.88,-6.03043 38.6176,24.90548 25.8519,26.01861 30.3418,31.44992 28.6435,34.64907 -1.1077,2.0866 -3.6196,3.79382 -5.5819,3.79382 -1.9624,0 -16.9313,-13.49603 -33.2642,-29.99118 z m -852.6602,-51.61821 c -1.363,-1.37403 -2.4781,-3.96247 -2.4781,-5.75206 0,-1.78962 13.3872,-16.72581 29.7493,-33.19152 21.3149,-21.4499 30.6959,-29.57149 33.0882,-28.64604 8.8545,3.42543 5.9824,7.94347 -24.8282,39.05638 -16.9014,17.06731 -31.2526,31.03149 -31.8915,31.03149 -0.6389,0 -2.2768,-1.12421 -3.6397,-2.49825 z m 749.7283,-52.1332 c -16.1851,-16.35506 -29.4275,-31.33126 -29.4275,-33.28045 0,-1.94919 1.6935,-4.45766 3.7633,-5.57438 3.1736,-1.7123 8.59,2.8438 34.5736,29.08242 26.3241,26.58236 30.4799,31.64192 28.5405,34.74663 -1.2484,1.9986 -3.5643,3.88771 -5.1462,4.19804 -1.582,0.31032 -16.1186,-12.81719 -32.3037,-29.17226 z m -646.4742,-54.04227 c -1.363,-1.37404 -2.4781,-3.49405 -2.4781,-4.71113 0,-3.59777 58.6001,-61.49241 62.2417,-61.49241 1.8344,0 4.5406,1.46423 6.0139,3.25382 2.3115,2.80789 -1.5417,7.5156 -28.1162,34.35089 -16.9372,17.1034 -31.7823,31.09707 -32.989,31.09707 -1.2068,0 -3.3093,-1.12421 -4.6723,-2.49824 z m 541.6897,-51.68127 -30.7791,-31.27894 4.5631,-4.60019 4.5631,-4.60017 31.361,31.616 c 31.0268,31.27905 31.3202,31.66146 27.5341,35.87913 -2.1048,2.34469 -4.4201,4.26309 -5.145,4.26309 -0.7249,0 -15.1686,-14.07552 -32.0972,-31.27892 z m -437.4143,-51.54848 c -1.9247,-2.14398 -3.4994,-4.77334 -3.4994,-5.84302 0,-2.73204 58.4137,-61.22437 61.142,-61.22437 1.2295,0 3.744,1.68045 5.5877,3.73432 3.1544,3.51388 1.4904,5.60848 -28.1893,35.48277 -30.3344,30.53324 -31.6756,31.59924 -35.041,27.8503 z m 333.0992,-53.54522 c -25.5347,-25.78839 -29.5688,-30.72759 -27.6305,-33.83042 1.2483,-1.9983 3.5639,-3.88703 5.1459,-4.19718 1.5819,-0.31014 16.7456,13.44933 33.6969,30.5766 26.5966,26.87254 30.4536,31.58646 28.1421,34.39432 -1.4733,1.78961 -4.2032,3.25382 -6.0664,3.25382 -1.8633,0 -16.8429,-13.58871 -33.288,-30.19714 z m -228.8012,-51.41224 c -1.363,-1.37404 -2.4781,-3.96247 -2.4781,-5.75208 0,-1.78961 13.3872,-16.72579 29.7493,-33.19151 21.3149,-21.449904 30.6959,-29.571481 33.0882,-28.646032 8.8545,3.425425 5.9824,7.94347 -24.8282,39.056372 -16.9014,17.06732 -31.2526,31.03149 -31.8915,31.03149 -0.6389,0 -2.2768,-1.12421 -3.6397,-2.49824 z m 126.0733,-52.133204 c -16.1851,-16.355056 -29.4275,-30.781085 -29.4275,-32.057844 0,-1.276758 1.3837,-3.479084 3.0749,-4.894056 1.6912,-1.414972 2.5657,-3.403368 1.9432,-4.418658 -4.0758,-6.648475 6.1822,2.872 33.1506,30.767156 26.2782,27.181206 30.6017,32.547176 28.6898,35.607786 -1.2381,1.98201 -3.5454,3.85756 -5.1273,4.16787 -1.582,0.31032 -16.1186,-12.8172 -32.3037,-29.172254 z"
           id="path5229" />
      </g>
    </g>
  </g>
</svg>
