<?xml version="1.0" encoding="UTF-8" standalone="no"?>
<svg
   xmlns:dc="http://purl.org/dc/elements/1.1/"
   xmlns:cc="http://creativecommons.org/ns#"
   xmlns:rdf="http://www.w3.org/1999/02/22-rdf-syntax-ns#"
   xmlns:svg="http://www.w3.org/2000/svg"
   xmlns="http://www.w3.org/2000/svg"
   xmlns:sodipodi="http://sodipodi.sourceforge.net/DTD/sodipodi-0.dtd"
   xmlns:inkscape="http://www.inkscape.org/namespaces/inkscape"
   width="24mm"
   height="24mm"
   viewBox="0 0 24 24"
   version="1.1"
   id="svg5"
   inkscape:version="1.0.2 (e86c870879, 2021-01-15)"
   sodipodi:docname="bleu4.svg">
  <metadata
     id="metadata14">
    <rdf:RDF>
      <cc:Work
         rdf:about="">
        <dc:format>image/svg+xml</dc:format>
        <dc:type
           rdf:resource="http://purl.org/dc/dcmitype/StillImage" />
      </cc:Work>
    </rdf:RDF>
  </metadata>
  <sodipodi:namedview
     id="namedview7"
     pagecolor="#ffffff"
     bordercolor="#666666"
     borderopacity="1.0"
     inkscape:pageshadow="2"
     inkscape:pageopacity="0.0"
     inkscape:pagecheckerboard="0"
     inkscape:document-units="mm"
     showgrid="false"
     inkscape:zoom="0.46324355"
     inkscape:cx="368.46914"
     inkscape:cy="523.98057"
     inkscape:window-width="1360"
     inkscape:window-height="687"
     inkscape:window-x="0"
     inkscape:window-y="26"
     inkscape:window-maximized="1"
     inkscape:current-layer="layer1"
     inkscape:document-rotation="0" />
  <defs
     id="defs2" />
  <g
     inkscape:label="Capa 1"
     inkscape:groupmode="layer"
     id="layer1"
     transform="translate(-7.6015126,-9.5778991)">
    <g
       id="g591"
       transform="matrix(0.12532794,0,0,0.12549935,-9.7433404,-5.3865731)">
      <path
         style="fill:#d1edf7;stroke-width:0.264583"
         d="m 233.52966,309.99567 c -0.89672,-0.49221 -94.14991,-93.7662 -94.55927,-94.58037 -0.26325,-0.52356 -0.26518,-0.79558 -0.009,-1.30487 0.42848,-0.85272 93.69748,-94.13038 94.55051,-94.55927 0.52356,-0.26325 0.79558,-0.26518 1.30487,-0.009 0.91305,0.45879 94.14543,93.72832 94.61057,94.64828 0.34798,0.68822 0.33644,0.82431 -0.12344,1.45521 -0.83406,1.14421 -94.58555,94.75756 -94.86919,94.72941 -0.14375,-0.0143 -0.55089,-0.18487 -0.90477,-0.37911 z m 42.97685,-53.04089 42.06823,-42.06885 -42.20104,-42.20104 -42.20104,-42.20104 -42.19969,42.20031 -42.1997,42.20032 42.06647,42.06958 c 23.13656,23.13827 42.18619,42.06958 42.33251,42.06958 0.14632,0 19.19673,-18.93099 42.33426,-42.06886 z m -83.14574,-1.38928 c -22.30089,-22.30124 -40.54707,-40.66678 -40.54707,-40.8123 0,-0.34596 81.01406,-81.35873 81.36002,-81.35873 0.43204,0 81.35873,81.05957 81.35873,81.49231 0,0.51891 -80.70882,81.22644 -81.22773,81.22644 -0.21828,0 -18.64306,-18.24647 -40.94395,-40.54772 z m 46.23626,21.94516 c 0,-1.38963 0.40916,-1.97576 1.45521,-2.08462 0.6872,-0.0715 0.79375,-0.18916 0.79375,-0.87636 0,-0.6872 -0.10655,-0.80484 -0.79375,-0.87636 -1.35619,-0.14114 -1.45521,-0.51703 -1.45521,-5.52421 v -4.57964 h -1.05492 -1.05493 l -3.70757,4.93699 c -3.26646,4.34959 -3.70758,5.05788 -3.70758,5.95312 v 1.01614 h 3.25438 c 2.1784,0 3.35935,0.10497 3.57187,0.3175 0.17463,0.17462 0.3175,0.889 0.3175,1.5875 v 1.27 h 1.19063 1.19062 z m -6.74349,-4.14614 c -0.21609,-0.34963 0.21425,-1.10502 1.92492,-3.3789 0.89416,-1.18855 1.6322,-1.91823 1.94021,-1.91823 0.45079,0 0.49711,0.22928 0.49711,2.46062 0,1.56104 -0.11607,2.5767 -0.3175,2.77813 -0.38277,0.38277 -3.81365,0.4323 -4.04474,0.0584 z m 20.50183,-69.19401 v -1.45521 h -18.12396 -18.12396 v 1.27882 c 0,0.70335 0.0794,1.3582 0.17639,1.45521 0.097,0.097 8.25279,0.17639 18.12396,0.17639 h 17.94757 z m -8.94271,-6.51543 c 1.61182,-0.34227 3.92175,-1.44684 6.06289,-2.89921 2.98844,-2.02709 5.52918,-7.49046 5.94837,-12.79083 l 0.18678,-2.36172 -0.85818,0.61108 c -0.82337,0.58629 -3.61838,1.59882 -4.41341,1.59882 -0.77418,0 -0.64594,-0.7988 0.36887,-2.29774 1.51491,-2.23762 1.80541,-2.89125 2.39177,-5.38154 0.4317,-1.83341 0.48201,-2.53225 0.27573,-3.8301 -0.26025,-1.63748 -0.98244,-4.36562 -1.15566,-4.36562 -0.0539,0 -0.46667,0.68461 -0.91725,1.52135 -1.04277,1.93646 -2.076,3.07185 -3.4189,3.75694 -2.0366,1.03899 -2.41165,0.66428 -1.5233,-1.52195 1.30668,-3.21575 1.16932,-8.1723 -0.31672,-11.42926 l -0.66397,-1.45521 -0.30479,1.85209 c -0.32609,1.98145 -1.56588,4.96344 -2.65998,6.39788 -0.51751,0.67849 -0.86627,0.87816 -1.53388,0.87816 h -0.86407 l 0.0121,-3.24115 0.0121,-3.24114 -2.97419,-6.34383 c -1.6358,-3.48911 -3.16907,-7.06099 -3.40726,-7.93751 -0.23819,-0.87651 -0.5184,-1.69073 -0.62268,-1.80938 -0.10428,-0.11864 -0.40598,0.29808 -0.67045,0.92605 -0.40725,0.96702 -0.50527,2.21476 -0.64047,8.15321 -0.1525,6.69804 -0.19074,7.09777 -0.85563,8.94242 -0.80934,2.24543 -1.43919,3.30302 -1.88151,3.15926 -0.5933,-0.19283 -1.56587,-2.35338 -2.04374,-4.54012 -0.2632,-1.20442 -0.65362,-2.60889 -0.86761,-3.12104 -0.43986,-1.05273 -1.78686,-2.18825 -2.93612,-2.47515 -0.68535,-0.17108 -0.74855,-0.13659 -0.56825,0.31013 0.71437,1.77 0.73079,2.00003 0.29626,4.14941 -0.71206,3.52221 -0.82848,6.94047 -0.29847,8.76363 0.48989,1.68516 0.32494,2.18423 -0.62253,1.88352 -0.87842,-0.2788 -3.67211,-2.99831 -4.46418,-4.34564 l -0.71546,-1.21705 -0.2108,3.04271 c -0.3619,5.22374 -0.15745,6.50465 1.59363,9.98449 1.68306,3.34466 1.65598,3.62346 -0.3245,3.34217 -2.34365,-0.33288 -2.97074,-0.62142 -4.09652,-1.88492 -2.80348,-3.14647 -3.65369,-3.85155 -3.34815,-2.77663 0.0724,0.25466 0.92344,3.48738 1.89123,7.18383 1.5942,6.08904 1.8668,6.88058 2.89989,8.42057 0.62716,0.93487 1.96228,2.39682 2.96693,3.24879 1.69183,1.43471 2.02105,1.59725 4.4608,2.20245 3.95925,0.98213 6.86398,1.10727 4.67729,0.20151 -0.40424,-0.16745 -1.58895,-1.10462 -2.63269,-2.08262 -1.83288,-1.71745 -1.92138,-1.85841 -2.59118,-4.12731 -0.86329,-2.9243 -0.70404,-3.18895 1.3067,-2.17161 0.89857,0.45463 2.06453,0.78772 3.07957,0.87977 1.57229,0.14257 1.62287,0.12825 1.34983,-0.38191 -0.15601,-0.29152 -0.71061,-1.04106 -1.23245,-1.66566 -1.46964,-1.75905 -1.55406,-2.03221 -1.50726,-4.87715 0.0497,-3.02177 0.33674,-3.59871 1.20346,-2.41898 2.40637,3.27544 3.026,3.97961 3.69378,4.19775 0.40927,0.1337 0.78595,0.20092 0.83705,0.14938 0.0511,-0.0515 -0.0368,-1.07462 -0.19528,-2.27352 l -0.28819,-2.1798 0.97018,-1.92124 c 1.38667,-2.74599 2.29772,-5.61811 2.29772,-7.24363 0,-0.76628 0.11193,-1.46243 0.24874,-1.54698 0.41839,-0.25858 2.09036,1.41989 3.34247,3.35546 1.51225,2.33769 2.0153,4.53791 1.95278,8.541 -0.025,1.60073 -0.0325,3.00172 -0.0166,3.11331 0.0407,0.28585 2.61834,-1.04954 3.7579,-1.94679 0.52977,-0.41714 1.06146,-1.13419 1.20052,-1.61908 0.42716,-1.48941 0.99858,-1.09099 1.21829,0.84944 0.28799,2.54349 -0.54761,5.23514 -2.1686,6.98559 l -1.20113,1.29706 1.46865,-0.16869 c 0.80775,-0.0928 2.16118,-0.40696 3.0076,-0.69818 2.41632,-0.83133 2.50175,-0.57762 0.79932,2.3739 -1.25315,2.17258 -2.85843,3.77142 -5.66891,5.64615 l -1.45168,0.96833 h 0.97563 c 0.53659,0 1.60657,-0.13397 2.37772,-0.29772 z"
         id="path605" />
      <path
         style="fill:#a1dbf1;stroke-width:0.264583"
         d="m 186.19106,262.68018 -47.79532,-47.79532 47.7561,-47.75666 c 26.26586,-26.26615 47.93403,-47.75665 48.15149,-47.75665 0.39376,0 93.99622,93.37796 95.04117,94.81321 l 0.54884,0.75383 -47.19868,47.21924 c -25.95927,25.97057 -47.53833,47.46638 -47.95348,47.76845 l -0.7548,0.54921 z m 90.41082,-5.55618 c 37.02704,-37.02758 42.12982,-42.22512 41.88633,-42.66406 -0.1525,-0.27492 -19.15645,-19.37078 -42.231,-42.43526 l -41.95372,-41.93542 -42.39833,42.39833 -42.39834,42.39834 42.20053,42.20115 c 23.21028,23.21062 42.31986,42.20114 42.46572,42.20114 0.14587,0 19.23883,-18.9739 42.42881,-42.16422 z m -83.10882,-1.69079 c -22.22813,-22.22848 -40.41478,-40.53342 -40.41478,-40.67763 0,-0.31722 80.09005,-80.48301 80.80088,-80.8773 0.4389,-0.24345 5.42979,4.65263 40.94427,40.16654 22.24444,22.24409 40.44444,40.62268 40.44444,40.84132 0,0.51933 -80.44382,80.9625 -80.96315,80.9625 -0.21828,0 -18.58353,-18.18695 -40.81166,-40.41543 z m 46.36856,22.31311 c 0,-1.70278 0.18426,-2.00602 1.21893,-2.00602 0.88759,0 0.89773,-0.0134 0.89773,-1.19062 0,-1.17718 -0.0101,-1.19063 -0.89773,-1.19063 -0.57454,0 -0.95555,-0.15067 -1.05833,-0.41851 -0.0883,-0.23018 -0.1606,-2.49237 -0.1606,-5.02709 v -4.60856 l -1.12448,0.004 c -0.61847,0.002 -1.25466,0.0915 -1.41376,0.19844 -0.1591,0.10692 -1.92147,2.38055 -3.91638,5.05251 -3.44205,4.61027 -3.62302,4.91399 -3.54718,5.95313 l 0.0799,1.095 3.43958,0.13229 3.43959,0.13229 0.0746,1.19063 c 0.11235,1.79237 0.16512,1.85208 1.63687,1.85208 h 1.33122 z m -6.71894,-4.60664 c -0.19674,-0.31833 2.92848,-4.64951 3.43676,-4.76293 0.32887,-0.0734 0.37986,0.31105 0.31582,2.38125 l -0.0764,2.46876 -1.76317,0.0777 c -0.96975,0.0427 -1.83062,-0.0314 -1.91306,-0.1648 z m 20.34498,-68.96917 v -1.5875 l -18.19011,-0.068 -18.1901,-0.068 v 1.72344 1.72344 l 18.1901,-0.068 18.19011,-0.068 z m -8.99584,-6.31661 c 1.78648,-0.38812 3.76272,-1.32792 6.04118,-2.87287 3.13939,-2.12873 5.72255,-7.69971 6.13635,-13.23396 0.0952,-1.2733 0.10033,-2.3151 0.0114,-2.3151 -0.0889,0 -0.60735,0.2949 -1.15201,0.65534 -1.49129,0.9869 -4.55461,1.829 -4.55461,1.25206 0,-0.11509 0.58426,-1.13452 1.29837,-2.2654 1.4133,-2.23816 2.4855,-5.53733 2.4467,-7.52859 -0.0314,-1.60946 -1.12403,-5.9067 -1.47355,-5.7951 -0.15793,0.0504 -0.58695,0.63955 -0.95337,1.30916 -1.03863,1.89802 -2.3057,3.32983 -3.47428,3.92599 -1.67574,0.8549 -1.91178,0.57504 -1.1791,-1.39796 0.84193,-2.26716 1.09199,-5.86897 0.57733,-8.3156 -0.42536,-2.02211 -1.69082,-5.18487 -1.99845,-4.99475 -0.10626,0.0657 -0.27096,0.95615 -0.36601,1.97884 -0.12498,1.34468 -0.4542,2.46396 -1.18928,4.04324 -1.2074,2.59401 -1.79474,3.34638 -2.68419,3.43834 l -0.66146,0.0684 v -3.04271 -3.04271 l -2.88025,-6.21771 c -1.58414,-3.41974 -3.18579,-7.2614 -3.55923,-8.53703 -0.37344,-1.27562 -0.79006,-2.28229 -0.92583,-2.23703 -0.13577,0.0453 -0.48645,0.67223 -0.7793,1.39328 -0.46684,1.14945 -0.55511,2.17495 -0.71637,8.32245 -0.18761,7.15226 -0.24646,7.57878 -1.45111,10.51719 -0.29048,0.70856 -0.62937,1.12448 -0.91621,1.12448 -0.59876,0 -1.49627,-1.97606 -1.98565,-4.37179 -0.51816,-2.53664 -0.8348,-3.2894 -1.8081,-4.29843 -0.72542,-0.75205 -2.69397,-1.6155 -2.99556,-1.31392 -0.0576,0.0576 0.0829,0.65563 0.31226,1.32885 0.37615,1.10392 0.37797,1.4653 0.0186,3.68288 -0.66237,4.08734 -0.76858,7.03619 -0.30717,8.52854 0.45998,1.48775 0.24274,1.95366 -0.68056,1.45953 -1.14772,-0.61425 -3.16806,-2.72119 -4.15241,-4.33041 l -0.98561,-1.6113 -0.20096,3.57188 c -0.31903,5.67059 -0.15047,6.7794 1.54181,10.14152 0.79326,1.57601 1.3728,2.97793 1.28786,3.11536 -0.18938,0.30642 -2.58147,0.0304 -3.71271,-0.42832 -0.45069,-0.18278 -1.22459,-0.84499 -1.7198,-1.47159 -1.26283,-1.59792 -2.90655,-3.15489 -3.33068,-3.15489 -0.43143,0 -0.52381,-0.43664 1.70722,8.06979 1.56588,5.97038 1.84639,6.78208 2.88021,8.33438 0.62995,0.94589 1.97323,2.44064 2.98507,3.32167 1.75898,1.5316 1.96515,1.63295 4.69876,2.3099 2.72249,0.67419 5.94316,1.02982 6.27959,0.69338 0.0862,-0.0862 -0.35049,-0.37974 -0.97044,-0.6523 -0.61994,-0.27257 -1.99276,-1.32566 -3.05071,-2.34022 -1.79428,-1.72069 -1.96736,-1.98735 -2.57572,-3.96833 -0.35871,-1.16803 -0.56147,-2.21441 -0.45059,-2.32529 0.11088,-0.11088 0.76579,0.084 1.45535,0.43314 1.15266,0.58354 4.22387,1.1384 4.95404,0.89501 0.17723,-0.0591 -0.3356,-0.92646 -1.20373,-2.03596 -0.83187,-1.06318 -1.61386,-2.36922 -1.73774,-2.90233 -0.43513,-1.87252 -0.19648,-4.808 0.39052,-4.80344 0.16371,0.001 0.74067,0.69005 1.28214,1.53062 1.26907,1.97009 2.23511,2.86276 3.35357,3.09888 0.84976,0.17939 0.88915,0.15581 0.72661,-0.43513 -0.0945,-0.34365 -0.24754,-1.47769 -0.34004,-2.52011 -0.16156,-1.82063 -0.13105,-1.96285 0.77444,-3.61019 1.18226,-2.15086 2.30614,-5.66371 2.30614,-7.20817 0,-1.95797 0.92269,-1.39771 3.12403,1.89692 1.44698,2.16563 1.90306,4.22286 1.90306,8.5842 0,1.88274 0.0629,3.42317 0.13983,3.42317 0.0769,0 0.84567,-0.3563 1.70834,-0.79178 1.93484,-0.97671 3.33442,-2.17722 3.55286,-3.04754 0.35635,-1.41981 0.93862,-0.4167 0.94536,1.62863 0.002,0.60314 -0.24489,1.90116 -0.54861,2.88449 -0.42838,1.38692 -0.85233,2.10519 -1.89046,3.20287 l -1.33825,1.41499 0.89828,-0.004 c 0.49405,-0.002 1.61265,-0.18927 2.48577,-0.41555 2.74525,-0.71146 3.04271,-0.7403 3.04271,-0.29505 0,0.22201 -0.48998,1.25352 -1.08884,2.29223 -1.0911,1.89249 -2.67273,3.38785 -5.85647,5.53704 -0.69123,0.46661 -1.25677,0.90219 -1.25677,0.96796 0,0.23832 2.28572,0.093 3.83645,-0.2439 z"
         id="path603" />
      <path
         style="fill:#6ac6e9;stroke-width:0.264583"
         d="m 186.41569,262.64334 -47.75683,-47.75739 47.82325,-47.82325 47.82326,-47.82326 47.75738,47.75739 47.75738,47.75738 -47.8238,47.82326 -47.8238,47.82325 z m 90.31848,-5.38705 c 37.1434,-37.14394 42.26212,-42.3574 42.01862,-42.79635 -0.5014,-0.90388 -84.04498,-84.24047 -84.4497,-84.24047 -0.21737,0 -19.44457,19.04963 -42.72711,42.33251 l -42.33189,42.33251 42.33107,42.33416 c 23.28209,23.28378 42.45078,42.33415 42.59709,42.33415 0.14632,0 19.29918,-19.03343 42.56192,-42.29651 z m -83.10882,-1.95537 c -22.15536,-22.15573 -40.28248,-40.4022 -40.28248,-40.54773 0,-0.34595 80.48489,-80.82955 80.83086,-80.82955 0.43203,0 80.82955,80.5304 80.82955,80.96315 0,0.5189 -80.17965,80.69726 -80.69856,80.69726 -0.21829,0 -18.524,-18.12741 -40.67937,-40.28313 z m 46.15313,23.67136 c 0.17256,-0.10972 0.35115,-0.79251 0.39688,-1.5173 0.081,-1.28438 0.10662,-1.32116 1.00917,-1.45009 0.91723,-0.13104 0.92604,-0.14489 0.92604,-1.45521 0,-1.31032 -0.009,-1.32418 -0.92604,-1.45521 l -0.92604,-0.13229 -0.0725,-4.7508 c -0.0518,-3.39488 -0.16506,-4.80961 -0.39688,-4.95688 -0.17842,-0.11335 -0.74861,-0.20792 -1.26708,-0.21015 -1.16754,-0.005 -1.31848,0.15261 -5.51604,5.76032 l -3.22555,4.30916 0.0796,1.37938 0.0796,1.37938 3.29699,0.0747 c 2.2301,0.0506 3.36322,0.17898 3.50168,0.39688 0.11258,0.17717 0.20651,0.80831 0.20874,1.40252 0.002,0.59421 0.0834,1.15975 0.18044,1.25677 0.24011,0.24011 2.26163,0.2163 2.65089,-0.0312 z m -6.36052,-6.07989 c -0.17677,-0.28602 2.81556,-4.2918 3.13636,-4.1986 0.30187,0.0877 0.50382,2.88025 0.2744,3.79434 -0.13721,0.54667 -0.30637,0.60634 -1.71903,0.60634 -0.86176,0 -1.62304,-0.0909 -1.69173,-0.20208 z m 20.0697,-68.72188 v -1.85208 h -18.25625 -18.25625 l -0.0804,1.55787 c -0.0442,0.85683 -0.0179,1.72086 0.0585,1.92006 0.11611,0.30258 3.13369,0.35099 18.33669,0.29421 l 18.19771,-0.068 z m -9.67897,-5.98684 c 2.09774,-0.35933 4.94095,-1.65689 7.07836,-3.23036 3.10326,-2.28449 5.43294,-7.35108 5.91018,-12.85344 0.13147,-1.51584 0.17742,-2.85577 0.10211,-2.97762 -0.0753,-0.12186 -0.53929,0.0853 -1.03107,0.46043 -1.392,1.06174 -4.62957,2.14611 -4.62957,1.55061 0,-0.0829 0.34117,-0.64847 0.75816,-1.25677 2.01841,-2.94448 3.15246,-6.68852 2.82347,-9.32165 -0.21346,-1.70848 -1.08477,-4.87145 -1.43972,-5.22641 -0.15596,-0.15596 -0.5573,0.36097 -1.07222,1.38102 -0.97146,1.92443 -3.01448,4.13904 -4.05857,4.39943 -0.40696,0.10149 -0.79828,0.12618 -0.8696,0.0549 -0.0713,-0.0713 0.12476,-0.77023 0.43572,-1.55313 1.27427,-3.20819 1.10377,-7.98252 -0.41542,-11.63316 -1.07556,-2.58457 -1.3741,-2.75062 -1.56436,-0.87013 -0.24313,2.403 -0.62409,3.73458 -1.68763,5.89872 -1.47879,3.00911 -3.27131,3.73528 -2.66612,1.08007 0.57824,-2.53701 0.14983,-4.08522 -3.09741,-11.19357 -1.65591,-3.62487 -3.26429,-7.53031 -3.57418,-8.67876 -0.30988,-1.14845 -0.65478,-2.08809 -0.76644,-2.08809 -0.11166,0 -0.4777,0.62508 -0.81343,1.38906 -0.5622,1.27933 -0.62786,1.93251 -0.83115,8.26823 -0.22753,7.09117 -0.48662,8.91423 -1.56985,11.04636 -0.27725,0.5457 -0.61831,0.99218 -0.75792,0.99218 -0.43703,0 -1.31089,-2.02489 -1.7265,-4.00063 -0.74318,-3.53296 -1.89561,-5.18462 -4.02844,-5.77352 -1.27241,-0.35133 -1.49703,-0.0745 -0.96762,1.19258 0.44098,1.05541 0.42331,1.68756 -0.1437,5.14199 -0.34085,2.07658 -0.33027,6.64878 0.0177,7.64694 0.16234,0.46571 0.23294,0.90897 0.15688,0.98503 -0.51124,0.51124 -3.59587,-2.34571 -4.79636,-4.44233 -1.32498,-2.31405 -1.45411,-2.21534 -1.49558,1.14325 -0.10075,8.15969 -0.1621,7.69605 1.44746,10.93899 0.80072,1.61329 1.34429,3.0131 1.21963,3.14081 -0.12755,0.13068 -0.94217,0.10405 -1.88211,-0.0615 -1.75753,-0.30959 -2.88706,-1.11884 -3.94734,-2.82809 -0.59497,-0.95913 -2.8032,-2.61275 -3.02019,-2.26165 -0.0835,0.13517 0.32264,2.07156 0.90263,4.3031 2.69766,10.37936 2.80939,10.73341 3.92888,12.4494 1.01031,1.54864 3.27747,3.79553 4.80967,4.76668 1.24911,0.79171 5.99603,1.79119 8.43966,1.77699 l 2.27597,-0.0132 -1.98438,-1.0236 c -1.31091,-0.6762 -2.53766,-1.59212 -3.61464,-2.69875 -1.38883,-1.42706 -1.7103,-1.94633 -2.17061,-3.50612 -0.29718,-1.00702 -0.48187,-1.92554 -0.41042,-2.04115 0.0714,-0.11561 0.60782,0.0389 1.19193,0.34336 1.08191,0.56393 5.1179,1.25383 5.44156,0.93017 0.0979,-0.0979 -0.57326,-1.14738 -1.49157,-2.33208 l -1.66965,-2.154 -0.12764,-2.44023 c -0.0787,-1.50527 -0.0248,-2.5038 0.14082,-2.60615 0.14765,-0.0913 0.87001,0.65856 1.60525,1.66625 1.47738,2.02485 2.26204,2.65813 3.39288,2.73834 0.61418,0.0436 0.74291,-0.0451 0.69098,-0.47563 -0.47569,-3.94421 -0.43498,-4.4405 0.52125,-6.35434 1.31342,-2.62874 2.4114,-6.09061 2.22589,-7.01814 -0.37152,-1.85759 0.96591,-0.99315 2.78631,1.80091 1.55914,2.39307 2.06841,4.85645 1.87443,9.06679 -0.12004,2.60537 -0.0804,3.16539 0.22378,3.16146 0.68656,-0.009 4.46178,-2.38583 5.04742,-3.17795 0.31962,-0.43231 0.6778,-0.78602 0.79596,-0.78602 0.46833,0 0.1947,2.94195 -0.43569,4.68432 -0.4809,1.32919 -0.96488,2.09598 -1.85626,2.94095 -0.66317,0.62864 -1.12835,1.26823 -1.03374,1.42131 0.22752,0.36813 2.49871,0.0941 4.57419,-0.55183 0.8881,-0.27641 1.66558,-0.42027 1.72774,-0.3197 0.0622,0.10058 -0.4167,1.09682 -1.06413,2.21386 -1.23134,2.12449 -3.15361,3.92517 -6.13021,5.74247 -0.76462,0.46681 -1.32314,0.95729 -1.24115,1.08994 0.20006,0.32371 1.42825,0.30387 3.53573,-0.0571 z"
         id="path601" />
      <path
         style="fill:#47b8e3;stroke-width:0.264583"
         d="m 186.48183,262.51132 -47.69123,-47.7571 47.69142,-47.69143 47.69142,-47.69142 47.69088,47.69142 47.69087,47.69143 -47.69105,47.7571 -47.69107,47.75711 z m 90.22106,-4.95999 c 23.24803,-23.24633 42.26914,-42.44502 42.26914,-42.66375 0,-0.43368 -84.36596,-84.93269 -84.79896,-84.93269 -0.14586,0 -19.29852,19.0336 -42.56147,42.29689 -33.65154,33.65203 -42.26373,42.39898 -42.13703,42.79635 0.18397,0.57701 84.30595,84.76926 84.69851,84.76926 0.14337,0 19.28179,-19.01973 42.52981,-42.26606 z m -82.81295,-2.25041 c -22.15537,-22.15573 -40.28249,-40.4022 -40.28249,-40.54773 0,-0.34595 80.22031,-80.56497 80.56628,-80.56497 0.14552,0 18.42132,18.15703 40.61289,40.34896 l 40.3483,40.34896 -40.3483,40.34895 c -22.19157,22.19193 -40.40814,40.34896 -40.48125,40.34896 -0.0731,0 -18.26007,-18.12741 -40.41543,-40.28313 z m 46.23626,22.58845 c 0,-1.42781 0.27669,-1.79425 1.45521,-1.92722 0.76417,-0.0862 0.79375,-0.13885 0.79375,-1.41247 0,-1.27362 -0.0296,-1.32625 -0.79375,-1.41248 -1.43075,-0.16142 -1.45521,-0.25184 -1.45521,-5.38 v -4.7433 l -1.52135,0.0794 -1.52136,0.0793 -3.78229,5.01411 -3.7823,5.01411 0.0781,1.33589 0.0781,1.33589 3.43958,0.1323 3.43958,0.13229 0.0746,1.19062 c 0.11458,1.828 0.1393,1.85209 1.90145,1.85209 h 1.5958 z m -6.44686,-5.00215 c -0.15309,-0.24771 2.34024,-3.82976 2.7744,-3.98585 0.1552,-0.0558 0.22544,0.72587 0.17833,1.98437 l -0.0778,2.07644 -1.3654,0.0792 c -0.75098,0.0435 -1.43029,-0.0258 -1.50958,-0.15411 z m 20.0729,-68.71671 v -1.85208 h -18.52083 -18.52084 l -0.0804,1.55787 c -0.0442,0.85683 -0.0179,1.72085 0.0585,1.92003 0.11612,0.30261 3.17498,0.35098 18.60127,0.29421 l 18.4623,-0.0679 z m -9.075,-5.98645 c 1.76656,-0.37535 4.3755,-1.67802 6.42917,-3.21016 3.30045,-2.46231 5.61138,-7.91716 5.85571,-13.82214 l 0.13136,-3.175 -0.57047,0.73071 c -0.78263,1.00246 -2.53436,1.98228 -3.94798,2.20829 l -1.17721,0.18821 0.59244,-0.90215 c 1.97009,-2.99993 3.39562,-7.32312 3.08118,-9.3442 -0.30027,-1.92997 -1.24555,-5.30671 -1.58858,-5.67471 -0.27492,-0.29495 -0.50354,-0.0372 -1.29062,1.4552 -0.52608,0.99751 -1.3625,2.24152 -1.85871,2.76448 -0.86917,0.91602 -2.40886,1.77646 -2.68489,1.50043 -0.0734,-0.0734 0.10275,-0.73288 0.3915,-1.46545 0.70013,-1.77623 0.99139,-6.01134 0.55911,-8.12956 -0.4119,-2.01833 -2.101,-6.00453 -2.48953,-5.8752 -0.16224,0.054 -0.41512,1.1599 -0.56196,2.45753 -0.20659,1.82568 -0.4949,2.83785 -1.27461,4.47488 -1.15196,2.41859 -1.63656,3.04383 -2.35913,3.04383 -0.45669,0 -0.48999,-0.12034 -0.31119,-1.12448 0.25418,-1.42751 0.1845,-3.44031 -0.16389,-4.73415 -0.14893,-0.55308 -1.47321,-3.59857 -2.94285,-6.76775 -1.46964,-3.16919 -3.00354,-6.8731 -3.40865,-8.23091 -0.40512,-1.35781 -0.80834,-2.5405 -0.89603,-2.62819 -0.25858,-0.25858 -0.60431,0.24219 -1.2356,1.78965 -0.543,1.33103 -0.60935,2.05353 -0.77761,8.46667 -0.11204,4.2706 -0.3113,7.42517 -0.50973,8.06979 -0.48393,1.57209 -1.37065,3.57187 -1.58379,3.57187 -0.34272,0 -1.27906,-2.48641 -1.83079,-4.86159 -0.29999,-1.29143 -0.72555,-2.62296 -0.9457,-2.95895 -0.66903,-1.02107 -2.18316,-2.00865 -3.31167,-2.16002 -1.23623,-0.16581 -1.2982,0.002 -0.66462,1.79759 0.36593,1.03715 0.36184,1.34288 -0.0437,3.2744 -0.48011,2.28639 -0.64077,7.63356 -0.2727,9.07576 0.15315,0.60006 0.12723,0.8599 -0.0858,0.8599 -0.58478,0 -3.31607,-2.8832 -4.367,-4.6099 -1.47702,-2.42675 -1.78132,-2.31514 -1.56766,0.575 0.096,1.29918 0.0505,2.95906 -0.10383,3.78257 -0.47619,2.54112 0.0178,5.15798 1.54984,8.21104 0.72175,1.43825 1.31227,2.69336 1.31227,2.78912 0,0.36785 -3.04083,-0.15838 -3.6886,-0.63833 -0.37236,-0.2759 -1.15327,-1.09418 -1.73536,-1.8184 -1.07101,-1.33254 -2.7546,-2.73485 -3.28342,-2.73485 -0.15865,0 -0.28845,0.27205 -0.28845,0.60457 0,0.7862 3.58454,14.287 4.00092,15.06902 0.97617,1.83344 2.29519,3.4374 4.01883,4.88702 1.81969,1.53041 2.10907,1.67409 4.68907,2.32808 2.94521,0.74657 9.81164,1.26943 8.98701,0.68434 -0.21828,-0.15488 -0.57883,-0.28342 -0.80121,-0.28565 -0.89734,-0.009 -4.19075,-1.89715 -5.70335,-3.26982 -1.46624,-1.33058 -1.66325,-1.64095 -2.2094,-3.48067 -0.32979,-1.11091 -0.53846,-2.081 -0.4637,-2.15575 0.0747,-0.0748 0.41414,0.0425 0.75419,0.26055 0.76026,0.48754 2.25059,0.86462 4.25629,1.0769 1.34408,0.14227 1.52135,0.10599 1.52135,-0.31131 0,-0.25978 -0.65932,-1.29971 -1.46515,-2.31095 -0.80583,-1.01124 -1.52574,-2.08004 -1.5998,-2.37513 -0.0741,-0.29509 -0.0994,-1.48055 -0.0562,-2.63436 l 0.0784,-2.09784 1.37452,1.88597 c 1.36599,1.87427 2.25418,2.56733 3.52027,2.74686 0.73189,0.10378 0.69468,0.37989 0.50438,-3.74267 -0.07,-1.51573 0.0255,-1.92385 0.80421,-3.43958 1.22078,-2.37605 2.131,-5.16465 2.131,-6.52863 0,-0.62936 0.10672,-1.14429 0.23717,-1.14429 0.13045,0 0.57693,0.38805 0.99219,0.86234 2.62228,2.99502 3.44551,5.81139 3.16445,10.82594 -0.10841,1.93411 -0.0758,3.14951 0.0873,3.25027 0.38495,0.23791 3.40047,-1.35666 4.8455,-2.56222 l 1.25677,-1.04852 0.0314,0.88453 c 0.086,2.42628 -0.61961,4.28026 -2.29915,6.04109 -0.79,0.82823 -1.43637,1.60142 -1.43637,1.7182 0,0.36132 4.03703,-0.0479 5.2365,-0.53075 0.6245,-0.25141 1.19308,-0.39949 1.26352,-0.32906 0.0704,0.0704 -0.29325,0.88901 -0.80818,1.81906 -1.09019,1.96905 -2.88363,3.70763 -5.75798,5.58185 -1.12779,0.73537 -2.05052,1.44068 -2.05052,1.56736 0,0.32904 3.15752,0.28473 4.81562,-0.0676 z"
         id="path599" />
      <path
         style="fill:#30b0e0;stroke-width:0.264583"
         d="m 186.47205,262.52172 c -26.09004,-26.1402 -47.49153,-47.47254 -47.55885,-47.40522 -0.0673,0.0673 -0.12242,0.072 -0.12242,0.0104 0,-0.3307 95.0506,-95.09392 95.38229,-95.09392 0.21718,0 21.73785,21.34175 47.82372,47.42611 l 47.42885,47.4261 -47.62546,47.62546 c -26.194,26.194 -47.68536,47.60593 -47.75857,47.58206 -0.0732,-0.0239 -21.47952,-21.43082 -47.56956,-47.57102 z m 90.36478,-5.1035 c 23.31988,-23.31955 42.39979,-42.51888 42.39979,-42.66519 0,-0.14631 -19.09345,-19.35808 -42.42988,-42.69282 -37.2204,-37.2177 -42.4911,-42.39282 -42.92864,-42.15009 -0.71042,0.39412 -84.76857,84.52843 -84.76857,84.84538 0,0.34447 84.71845,85.06189 85.06293,85.06189 0.14552,0 19.34449,-19.07963 42.66437,-42.39917 z m -83.14511,-2.31553 -40.21613,-40.21677 40.41478,-40.41478 40.41478,-40.41478 40.21677,40.21613 c 22.11923,22.11886 40.21678,40.33547 40.21678,40.48135 0,0.34639 -80.21989,80.56563 -80.56628,80.56563 -0.14552,0 -18.36184,-18.09755 -40.4807,-40.21678 z m 46.38156,24.02428 c 0.17463,-0.17463 0.3175,-0.889 0.3175,-1.5875 0,-1.16682 0.052,-1.27 0.63982,-1.27 1.27543,0 1.47685,-0.23456 1.47685,-1.71979 0,-1.48524 -0.20142,-1.71979 -1.47685,-1.71979 h -0.63982 v -4.70959 c 0,-3.31023 -0.0943,-4.80392 -0.3175,-5.02708 -0.33138,-0.33138 -1.98954,-0.4309 -2.69148,-0.16154 -0.22354,0.0858 -2.07875,2.38959 -4.12269,5.11957 l -3.71624,4.9636 v 1.48998 c 0,1.78494 -0.10653,1.73736 4.10104,1.83169 l 2.91041,0.0652 0.0831,1.3178 c 0.0457,0.7248 0.22432,1.40758 0.39687,1.51731 0.49993,0.31789 2.69038,0.23867 3.03895,-0.1099 z m -6.29708,-6.44429 c 0,-0.44781 2.51108,-3.53296 2.71202,-3.33203 0.12491,0.12491 0.19088,0.92907 0.1466,1.78703 l -0.0805,1.55991 -1.38906,0.08 c -0.76398,0.044 -1.38906,0.001 -1.38906,-0.0949 z m 19.79006,-66.48901 c 0.24326,-0.15431 0.3203,-0.7887 0.26458,-2.17876 l -0.0786,-1.96106 h -18.52083 -18.52084 l -0.0786,1.96106 c -0.0557,1.39006 0.0213,2.02445 0.26459,2.17876 0.18875,0.11973 8.43943,0.2177 18.33485,0.2177 9.89541,0 18.1461,-0.098 18.33485,-0.2177 z m -9.38541,-7.82682 c 2.27632,-0.43553 3.47214,-0.97738 6.28922,-2.84975 1.72761,-1.14825 2.2056,-1.64697 3.40743,-3.55515 1.99154,-3.16207 3.05762,-6.78635 3.316,-11.27321 0.13181,-2.28893 0.10557,-3.37344 -0.0816,-3.37344 -0.15174,0 -0.41358,0.41721 -0.58187,0.92712 -0.21502,0.65151 -0.63406,1.11472 -1.40958,1.55815 -1.28564,0.7351 -3.05581,1.33927 -3.27672,1.11836 -0.0843,-0.0843 0.14772,-0.60812 0.5156,-1.16403 2.8338,-4.28216 3.38234,-7.84337 1.96475,-12.75534 -0.71473,-2.47656 -1.13807,-2.62794 -2.06573,-0.73864 -0.97957,1.99501 -2.69459,4.06171 -3.64571,4.39327 -0.94178,0.3283 -0.98924,0.18406 -0.40102,-1.21874 0.67901,-1.61929 0.94162,-5.95265 0.49255,-8.12744 -0.4478,-2.16859 -2.18979,-6.27442 -2.60367,-6.13678 -0.34375,0.11431 -0.60865,1.23449 -0.65131,2.7541 -0.0664,2.36603 -2.41521,7.48372 -3.43469,7.48372 -0.11428,0 -0.20622,-1.27992 -0.2043,-2.84427 l 0.003,-2.84427 -2.98888,-6.48229 c -1.64389,-3.56526 -3.26502,-7.46184 -3.60251,-8.65906 -0.33749,-1.19723 -0.68889,-2.29855 -0.78088,-2.4474 -0.36354,-0.58821 -0.85264,-0.20723 -1.43583,1.11844 -0.56006,1.27312 -0.63047,1.95221 -0.84346,8.13594 -0.12781,3.71078 -0.36351,7.38207 -0.52377,8.15842 -0.33066,1.60176 -1.27331,4.01241 -1.56899,4.01241 -0.2859,0 -1.22574,-2.33699 -1.43646,-3.57188 -0.61859,-3.62519 -2.0102,-5.62627 -4.31655,-6.20701 -1.62108,-0.4082 -1.86747,-0.12041 -1.2596,1.47125 0.455,1.19143 0.45527,1.36325 0.007,4.22542 -0.32754,2.08929 -0.43259,3.90149 -0.35049,6.04639 0.0645,1.6846 0.0417,3.06291 -0.0506,3.06291 -0.54049,0 -2.63261,-2.24887 -3.85524,-4.1441 -0.78267,-1.21324 -1.54518,-2.2059 -1.69447,-2.2059 -0.26075,0 -0.36136,2.87333 -0.31432,8.97657 0.0189,2.44924 0.0442,2.54592 1.40111,5.35567 0.76004,1.57378 1.32488,2.91841 1.25521,2.98809 -0.0697,0.0697 -0.73479,0.0306 -1.47804,-0.087 -1.46947,-0.23229 -2.70147,-1.08654 -3.71598,-2.5766 -0.684,-1.00462 -2.86249,-2.75053 -3.43203,-2.75053 -0.53544,0 -0.34298,0.96352 1.7842,8.93226 1.62804,6.09891 1.89803,6.86869 2.97957,8.49517 1.10683,1.66452 3.84833,4.35469 5.10384,5.00828 0.30024,0.1563 1.72899,0.57864 3.175,0.93853 2.93699,0.73099 9.1886,1.2201 9.48407,0.74201 0.1563,-0.25289 -1.34095,-0.82783 -2.16521,-0.83144 -0.18554,-7.9e-4 -1.13804,-0.40842 -2.11667,-0.90581 -2.46689,-1.25377 -4.64276,-3.5262 -5.19693,-5.42754 -0.62043,-2.12868 -0.60604,-2.15507 0.86965,-1.59435 0.70868,0.26927 2.19697,0.57191 3.30729,0.67253 2.52689,0.22898 2.55981,0.0711 0.53238,-2.55291 -0.81752,-1.05809 -1.59143,-2.29 -1.71979,-2.73758 -0.26611,-0.92787 -0.31564,-3.68954 -0.0706,-3.93461 0.0896,-0.0896 0.77416,0.68905 1.52135,1.73025 1.17904,1.64296 1.52523,1.94464 2.62023,2.28338 1.64468,0.50877 1.86573,0.28415 1.5191,-1.54362 -0.46041,-2.42774 -0.33805,-3.59332 0.56471,-5.37949 1.05862,-2.09452 2.34303,-5.87486 2.34303,-6.89611 0,-0.78212 0.002,-0.78319 0.56134,-0.2811 0.30873,0.27722 1.04832,1.2184 1.64353,2.09153 1.52398,2.23557 1.9918,4.5321 1.82186,8.94354 -0.1159,3.00855 -0.0834,3.35958 0.31072,3.35958 0.72078,0 3.53971,-1.53436 4.63213,-2.5213 0.55904,-0.50505 1.0913,-0.91828 1.1828,-0.91828 0.36244,0 0.1358,2.10443 -0.39635,3.68023 -0.43539,1.28926 -0.8891,1.98752 -2.0051,3.08582 -0.7933,0.78073 -1.36649,1.54229 -1.27374,1.69236 0.26334,0.42609 1.97549,0.32244 4.23985,-0.25669 1.13874,-0.29124 2.11435,-0.48561 2.16802,-0.43193 0.0537,0.0537 -0.36893,0.90175 -0.93913,1.88462 -1.09892,1.89424 -3.15253,3.75339 -6.17216,5.58772 -0.84724,0.51467 -1.54044,1.03629 -1.54044,1.15914 0,0.60843 1.87451,0.67074 4.58382,0.15236 z"
         id="path597" />
      <path
         style="fill:#0fa3db;stroke-width:0.264583"
         d="m 186.54798,262.24646 -47.35995,-47.36051 47.55858,-47.55857 47.55857,-47.55858 47.36051,47.35995 c 26.04828,26.04798 47.36051,47.47927 47.36051,47.62509 0,0.34633 -94.50735,94.85313 -94.85368,94.85313 -0.14552,0 -21.57656,-21.31223 -47.62454,-47.36051 z m 90.45102,-4.72665 c 37.33406,-37.33675 42.52512,-42.62339 42.28238,-43.06094 -0.50061,-0.90238 -84.57367,-84.76857 -84.97766,-84.76857 -0.51836,0 -85.19419,84.67828 -85.19419,85.19665 0,0.43313 84.63414,85.19502 85.06662,85.19502 0.14507,0 19.41535,-19.15297 42.82285,-42.56216 z m -82.97677,-2.35119 c -22.08261,-22.08296 -40.1502,-40.26991 -40.1502,-40.41543 0,-0.34595 79.95574,-80.30039 80.3017,-80.30039 0.14552,0 18.36179,18.0975 40.48059,40.21667 l 40.21602,40.21667 -40.21602,40.21666 c -22.1188,22.11917 -40.27583,40.21667 -40.34895,40.21667 -0.0731,0 -18.20053,-18.06788 -40.28314,-40.15085 z m 46.36855,22.68835 c 0.12596,-1.38552 0.17031,-1.4595 0.92604,-1.54477 1.15197,-0.12997 1.45521,-0.49726 1.45521,-1.76252 0,-1.26527 -0.30324,-1.63255 -1.45521,-1.76253 l -0.79375,-0.0896 -0.13229,-4.89479 -0.13229,-4.89479 -1.5875,-0.0757 -1.5875,-0.0757 -3.91394,5.23138 -3.91395,5.23139 0.0775,1.4589 0.0775,1.4589 3.43959,0.13229 3.43958,0.13229 0.0746,1.19063 c 0.11842,1.88931 0.11364,1.88523 2.10455,1.79811 l 1.78957,-0.0783 z m -6.35,-5.30302 c 0,-0.15176 0.50602,-0.94754 1.12448,-1.76839 l 1.12448,-1.49245 0.0812,1.40612 c 0.0446,0.77337 0.0186,1.56914 -0.0579,1.76839 -0.16417,0.42782 -2.27229,0.50792 -2.27229,0.0863 z m 19.97604,-68.38344 v -2.11666 l -18.63639,-0.068 c -14.73404,-0.0537 -18.68061,0.002 -18.84751,0.26458 -0.33317,0.52478 -0.25599,3.49722 0.10005,3.85326 0.24454,0.24454 4.65717,0.30337 18.85156,0.25135 l 18.53229,-0.0679 z m -19.98037,-5.68026 c 0.31,-0.19602 0.1866,-0.33426 -0.58681,-0.65741 -0.53865,-0.22506 -1.25443,-0.4092 -1.59063,-0.4092 -1.28012,0 -4.25893,-1.75069 -5.91564,-3.47669 -1.31083,-1.36567 -1.69434,-1.97253 -2.0356,-3.22112 -0.30009,-1.09793 -0.33006,-1.50018 -0.10468,-1.40485 1.85255,0.78356 5.62427,1.35734 6.27574,0.95471 0.36099,-0.22311 0.003,-0.8391 -2.3788,-4.09684 -0.77803,-1.06402 -0.88265,-1.55967 -0.83103,-3.93694 l 0.028,-1.29111 1.32573,1.81847 c 1.14668,1.57286 1.51098,1.88143 2.69735,2.28469 0.87352,0.29691 1.4636,0.37425 1.62488,0.21297 0.16129,-0.16129 0.12995,-1.11354 -0.0863,-2.62222 l -0.33955,-2.36895 1.20592,-2.60471 c 1.31867,-2.84825 2.03864,-5.05432 2.03864,-6.24665 0,-1.15356 0.49969,-0.80611 1.92326,1.33727 1.71563,2.58313 2.17784,4.77418 1.95348,9.2602 -0.13133,2.62604 -0.0927,3.27821 0.20113,3.39095 0.48186,0.1849 3.85654,-1.52867 5.0168,-2.54739 0.88666,-0.77849 0.92397,-0.78719 1.09293,-0.25487 0.0975,0.30708 -0.0783,1.39495 -0.3969,2.45659 -0.50044,1.66759 -0.76949,2.09513 -2.15531,3.42496 -0.87091,0.83572 -1.50939,1.6394 -1.41882,1.78593 0.24562,0.39742 2.98493,0.32173 4.72096,-0.13044 0.83804,-0.21829 1.58549,-0.39688 1.661,-0.39688 0.0755,0 -0.25772,0.7292 -0.74052,1.62044 -0.93138,1.71935 -2.85266,3.47716 -5.90489,5.40246 -2.51803,1.58834 -2.52446,1.97293 -0.033,1.97293 3.65276,0 6.999,-1.24217 10.21943,-3.7936 3.17897,-2.51859 5.32398,-7.7264 5.80376,-14.09082 0.14977,-1.98686 0.20786,-3.71676 0.12908,-3.84423 -0.30195,-0.48857 -0.63207,-0.19125 -0.94413,0.85033 -0.36466,1.2171 -1.55348,2.19085 -3.22948,2.64521 -1.27557,0.34581 -1.42504,0.20186 -0.76369,-0.73551 1.00244,-1.42081 1.88646,-3.45378 2.43346,-5.59615 0.611,-2.39305 0.51815,-3.72006 -0.51068,-7.29933 -0.79511,-2.76614 -1.13953,-2.87807 -2.2373,-0.72707 -0.94898,1.85945 -2.18292,3.44257 -3.13641,4.02394 -1.22162,0.74485 -1.299,0.66841 -0.74533,-0.73625 0.66974,-1.69915 0.95614,-5.80544 0.55817,-8.00277 -0.33377,-1.84284 -1.93877,-5.87025 -2.53739,-6.36707 -0.51891,-0.43065 -0.83778,0.4798 -1.0446,2.98255 -0.14136,1.71061 -0.36769,2.43582 -1.40376,4.49791 -0.67938,1.35217 -1.4242,2.49325 -1.65515,2.53573 -0.36308,0.0668 -0.4033,-0.20956 -0.29722,-2.04217 0.0675,-1.16568 -0.01,-2.64554 -0.1717,-3.28857 -0.16192,-0.64304 -1.55285,-3.89125 -3.09096,-7.21825 -1.55838,-3.37086 -3.09831,-7.13267 -3.4781,-8.49648 -0.86596,-3.10964 -1.29227,-3.22972 -2.34833,-0.66146 -0.71832,1.7469 -0.73836,1.93921 -0.91643,8.7974 -0.11365,4.37704 -0.3068,7.4091 -0.51408,8.06979 -0.54323,1.73153 -1.11086,3.04271 -1.31723,3.04271 -0.33535,0 -0.85707,-1.381 -1.34939,-3.57188 -0.64913,-2.8887 -1.10134,-3.85078 -2.33296,-4.96348 -0.75099,-0.67847 -1.40334,-1.00362 -2.27614,-1.13451 -0.6729,-0.1009 -1.30115,-0.10577 -1.39612,-0.0108 -0.095,0.095 -0.009,0.73439 0.19058,1.42093 0.46569,1.60029 0.4588,1.96291 -0.10614,5.58891 -0.45552,2.92367 -0.47091,6.23696 -0.0336,7.23488 0.12441,0.28391 0.0899,0.46302 -0.0892,0.46302 -0.61212,0 -2.55599,-2.07066 -3.91202,-4.16718 -1.95506,-3.02269 -2.28473,-2.9384 -2.06965,0.52916 0.0925,1.49159 0.0546,3.28689 -0.0843,3.98956 -0.46736,2.36438 0.0836,5.21497 1.58712,8.21101 l 1.31926,2.62893 -1.33757,-0.15842 c -1.76895,-0.2095 -2.21452,-0.47896 -3.49533,-2.1138 -1.15001,-1.46788 -3.3278,-3.35553 -3.87666,-3.36019 -0.34271,-0.003 -0.42556,0.28327 -0.34389,1.18781 0.0585,0.64802 3.39317,13.43186 3.75418,14.39216 0.61053,1.62397 2.5234,4.09215 4.41478,5.69638 1.92885,1.63602 2.1297,1.7361 4.8,2.39169 2.33299,0.57277 4.46488,0.82824 9.66607,1.15829 0.29104,0.0185 0.70581,-0.0781 0.92171,-0.21462 z"
         id="path595" />
      <path
         style="fill:#009eda;stroke-width:0.264583"
         d="m 186.68027,262.11417 -47.22766,-47.22822 47.42629,-47.42628 47.42628,-47.42629 47.22822,47.22766 c 25.97552,25.97522 47.22822,47.34698 47.22822,47.4928 0,0.34633 -94.24277,94.58855 -94.5891,94.58855 -0.14552,0 -21.51703,-21.2527 -47.49225,-47.22822 z m 90.42114,-4.43137 c 28.0904,-28.08998 42.39979,-42.57776 42.39979,-42.92834 0,-0.62653 -84.56967,-85.32874 -85.19522,-85.32874 -0.51891,0 -85.46103,84.94089 -85.46103,85.4598 0,0.62556 84.70098,85.19645 85.32751,85.19645 0.35057,0 14.83897,-14.3096 42.92895,-42.39917 z m -82.96377,-2.66335 c -22.00056,-22.00092 -40.00102,-40.12074 -40.00102,-40.26626 0,-0.34595 79.69115,-80.0358 80.03711,-80.0358 0.14552,0 18.30186,18.03757 40.34743,40.0835 l 40.08284,40.08349 -39.81859,39.83702 c -21.90022,21.91036 -40.00492,39.94113 -40.23267,40.06837 -0.32527,0.18173 -8.99375,-8.34846 -40.4151,-39.77032 z m 46.20023,24.3721 c 0.17462,-0.17462 0.3175,-0.88181 0.3175,-1.57152 V 276.566 l 0.99218,-0.0821 0.99219,-0.0821 v -1.85208 -1.85209 l -0.99219,-0.0821 -0.99218,-0.0821 v -4.69361 c 0,-3.29781 -0.0944,-4.78803 -0.3175,-5.01111 -0.35093,-0.35093 -2.80291,-0.42814 -3.31256,-0.10432 -0.17752,0.11279 -2.05276,2.51239 -4.16719,5.33245 -3.589,4.7867 -3.84442,5.20464 -3.84442,6.29055 0,2.13331 0.094,2.18673 3.84577,2.18673 h 3.29798 v 1.07573 c 0,1.81199 0.3018,2.09927 2.20535,2.09927 0.93644,0 1.7957,-0.13813 1.97507,-0.3175 z m -6.0325,-6.97441 c 0,-0.0815 0.41672,-0.69393 0.92604,-1.36096 l 0.92604,-1.2128 v 1.36096 1.36096 h -0.92604 c -0.50932,0 -0.92604,-0.0667 -0.92604,-0.14816 z m 19.83444,-66.24486 c 0.41081,-0.76761 0.34771,-3.86009 -0.0861,-4.22013 -0.26168,-0.21718 -5.44615,-0.28022 -18.98385,-0.23083 l -18.62385,0.0679 -0.078,2.09328 c -0.0429,1.1513 -0.0169,2.25263 0.0578,2.4474 0.11172,0.29113 3.45341,0.35411 18.78801,0.35411 18.17001,0 18.65919,-0.0132 18.92601,-0.51177 z m -19.72379,-7.32174 c 0.6113,-0.23458 0.51115,-0.87629 -0.1768,-1.13281 -0.32742,-0.12208 -1.18572,-0.30875 -1.90733,-0.41482 -3.26595,-0.48005 -7.38562,-3.71128 -8.17118,-6.40898 l -0.39903,-1.37033 1.09269,0.38552 c 1.6525,0.58304 4.88999,0.87211 5.42074,0.48402 0.39557,-0.28925 0.36609,-0.42472 -0.32043,-1.47267 -0.41584,-0.63477 -1.21805,-1.71079 -1.78268,-2.39116 -0.89286,-1.07587 -1.04777,-1.46366 -1.18905,-2.97656 -0.0905,-0.96936 -0.0576,-1.73611 0.0743,-1.73182 0.13019,0.004 0.73782,0.69831 1.3503,1.54236 1.14887,1.58325 2.18633,2.1541 3.91489,2.1541 0.73161,0 0.73323,-0.004 0.55393,-1.38907 -0.53345,-4.1206 -0.54729,-3.9327 0.43442,-5.8976 0.93115,-1.86369 2.22189,-5.5292 2.3694,-6.72876 0.0702,-0.57102 0.24128,-0.41816 1.34862,1.20513 1.71452,2.51341 2.09306,4.19637 2.00369,8.9084 -0.0482,2.5392 0.026,3.7337 0.24527,3.95301 0.24264,0.24264 0.81235,0.0553 2.4996,-0.82201 1.20193,-0.62495 2.43113,-1.362 2.73155,-1.6379 1.12448,-1.03267 1.20746,-0.29878 0.26352,2.33061 -0.5307,1.47829 -0.91387,2.0403 -2.15502,3.16085 -1.91748,1.73115 -1.84061,2.209 0.35535,2.209 0.84711,0 2.22588,-0.17859 3.06392,-0.39687 0.83803,-0.21828 1.57127,-0.39688 1.62941,-0.39688 0.0581,0 -0.27509,0.6665 -0.74051,1.48111 -0.90101,1.57698 -3.23003,3.61473 -6.25853,5.47583 -2.14604,1.3188 -2.11168,1.87316 0.12321,1.98816 3.39476,0.17467 6.40868,-0.79341 9.95592,-3.19789 1.72688,-1.17056 2.22413,-1.69358 3.4169,-3.59397 2.01263,-3.20661 3.01777,-6.6783 3.37947,-11.67257 0.19632,-2.71057 0.19466,-3.9278 -0.006,-4.16919 -0.42465,-0.51166 -0.89857,0.0157 -1.24285,1.38294 -0.24322,0.96592 -0.49279,1.28719 -1.41845,1.82598 -0.61782,0.3596 -1.47179,0.73969 -1.89772,0.84464 l -0.77441,0.19083 0.54204,-0.76804 c 1.51356,-2.14461 2.85436,-6.20288 2.76901,-8.38109 -0.0457,-1.16502 -0.64924,-3.94915 -1.26059,-5.81455 -0.6037,-1.84211 -1.19372,-1.70761 -2.32145,0.52917 -0.8933,1.77179 -3.18315,4.54409 -3.4954,4.23184 -0.0895,-0.0895 0.0192,-0.73593 0.24153,-1.43658 0.6591,-2.07728 0.79893,-5.47896 0.31824,-7.74191 -0.59971,-2.82335 -2.2539,-6.49658 -2.92563,-6.49658 -0.43022,0 -0.55681,0.25356 -0.72649,1.45521 -0.53145,3.76355 -0.75121,4.6091 -1.69431,6.519 -0.55584,1.12566 -1.12968,2.08386 -1.2752,2.12935 -0.16399,0.0513 -0.2696,-0.94837 -0.27778,-2.62918 l -0.0132,-2.71188 -2.99727,-6.48229 c -1.7478,-3.78005 -3.2898,-7.53011 -3.69901,-8.99584 -0.64155,-2.29796 -0.7572,-2.51354 -1.34839,-2.51354 -0.55933,0 -0.75148,0.26796 -1.42294,1.98438 -0.7665,1.95939 -0.7786,2.07266 -0.9607,8.99583 -0.10456,3.97493 -0.31471,7.41251 -0.48526,7.9375 -0.50413,1.55185 -0.88794,2.38125 -1.10195,2.38125 -0.25391,0 -1.05526,-1.96516 -1.05412,-2.58504 5.3e-4,-0.25172 -0.25619,-1.32486 -0.57034,-2.38476 -0.80012,-2.69951 -2.22657,-4.09794 -4.52068,-4.43188 -1.57402,-0.22911 -1.8049,0.18109 -1.14103,2.02726 0.4319,1.20107 0.43604,1.4558 0.0586,3.60579 -0.55264,3.14802 -0.78276,7.15528 -0.47091,8.2004 0.14112,0.47294 0.17112,0.8599 0.0667,0.8599 -0.43545,0 -2.68316,-2.65041 -3.76645,-4.44125 -0.88492,-1.4629 -1.29083,-1.90947 -1.6835,-1.85208 -0.49569,0.0724 -0.5178,0.32628 -0.52605,6.03894 l -0.009,5.96331 1.25364,2.59308 c 0.68951,1.42619 1.25365,2.642 1.25365,2.70179 0,0.0598 -0.38695,0.10826 -0.8599,0.10772 -1.18309,-0.001 -2.40179,-0.80918 -3.48144,-2.30769 -1.13674,-1.57774 -3.43199,-3.36719 -4.02639,-3.13909 -0.6315,0.24233 -0.38804,1.58466 1.71897,9.47784 1.60879,6.02681 1.94596,7.00487 2.94155,8.53296 1.04788,1.60834 3.93273,4.45344 5.17914,5.10778 1.33994,0.70342 6.00576,1.62603 9.37599,1.85399 1.96453,0.13288 3.71096,0.259 3.88096,0.28027 0.17,0.0213 0.49742,-0.0336 0.7276,-0.12192 z"
         id="path593" />
    </g>
  </g>
</svg>
