<?xml version="1.0" encoding="UTF-8" standalone="no"?>
<svg
   xmlns:dc="http://purl.org/dc/elements/1.1/"
   xmlns:cc="http://creativecommons.org/ns#"
   xmlns:rdf="http://www.w3.org/1999/02/22-rdf-syntax-ns#"
   xmlns:svg="http://www.w3.org/2000/svg"
   xmlns="http://www.w3.org/2000/svg"
   xmlns:sodipodi="http://sodipodi.sourceforge.net/DTD/sodipodi-0.dtd"
   xmlns:inkscape="http://www.inkscape.org/namespaces/inkscape"
   width="24mm"
   height="24mm"
   viewBox="0 0 24 24"
   version="1.1"
   id="svg5"
   inkscape:version="1.0.2 (e86c870879, 2021-01-15)"
   sodipodi:docname="example.svg">
  <metadata
     id="metadata14">
    <rdf:RDF>
      <cc:Work
         rdf:about="">
        <dc:format>image/svg+xml</dc:format>
        <dc:type
           rdf:resource="http://purl.org/dc/dcmitype/StillImage" />
      </cc:Work>
    </rdf:RDF>
  </metadata>
  <sodipodi:namedview
     id="namedview7"
     pagecolor="#ffffff"
     bordercolor="#666666"
     borderopacity="1.0"
     inkscape:pageshadow="2"
     inkscape:pageopacity="0.0"
     inkscape:pagecheckerboard="0"
     inkscape:document-units="mm"
     showgrid="false"
     inkscape:zoom="0.46324355"
     inkscape:cx="368.63269"
     inkscape:cy="538.37235"
     inkscape:window-width="1360"
     inkscape:window-height="687"
     inkscape:window-x="0"
     inkscape:window-y="26"
     inkscape:window-maximized="1"
     inkscape:current-layer="layer1"
     inkscape:document-rotation="0" />
  <defs
     id="defs2" />
  <g
     inkscape:label="Capa 1"
     inkscape:groupmode="layer"
     id="layer1"
     transform="translate(-7.558241,-5.7700742)">
    <g
       id="g1075"
       transform="matrix(0.12598473,0,0,0.12588623,-7.1377052,-9.2644792)">
      <path
         style="fill:#f6a9a4;stroke-width:0.264583"
         d="m 164.24631,262.61426 c -26.10627,-26.10506 -47.46594,-47.64225 -47.46594,-47.86041 0,-0.21816 21.35967,-21.75535 47.46594,-47.86041 l 47.46593,-47.46375 0.75438,0.54922 c 1.43075,1.04165 94.54918,94.38243 94.54918,94.77494 0,0.39251 -93.11843,93.73329 -94.54918,94.77494 l -0.75438,0.54923 z m 87.47157,-87.6802 -39.81936,-39.82001 -39.81979,39.81979 -39.81979,39.81979 39.81935,39.82001 39.81936,39.82001 39.81979,-39.81979 39.81979,-39.81979 z m -41.75194,80.43459 c -1.68691,-0.47423 -2.18598,-0.72397 -3.82586,-1.91451 -1.70963,-1.24117 -3.27316,-3.50622 -3.94332,-5.71258 -0.816,-2.68649 -0.60771,-6.07321 0.52198,-8.48731 1.09268,-2.33499 3.11921,-4.44056 5.31365,-5.52088 1.62576,-0.80035 1.91789,-0.85556 4.52715,-0.85556 2.60927,0 2.9014,0.0552 4.52715,0.85556 2.19444,1.08032 4.22098,3.18589 5.31365,5.52088 1.1297,2.4141 1.33798,5.80082 0.52199,8.48731 -1.70306,5.60696 -7.66276,9.11528 -12.95639,7.62709 z m 0.26658,-28.68057 c -1.83249,-0.63295 -3.12647,-1.70827 -4.07416,-3.38572 -0.72783,-1.28826 -0.94966,-2.58117 -4.1951,-24.44964 -1.88465,-12.6992 -3.42663,-23.75866 -3.42663,-24.57659 0,-7.44186 12.98439,-11.81604 22.09271,-7.44259 3.9128,1.87878 5.9549,4.42646 5.95141,7.42486 -0.001,0.80817 -1.54475,11.87086 -3.43068,24.58375 -3.23693,21.8198 -3.47174,23.19049 -4.19254,24.47396 -0.9297,1.65544 -2.52448,2.93005 -4.34102,3.4695 -1.7477,0.51901 -2.65764,0.49877 -4.38399,-0.0975 z"
         id="path1089" />
      <path
         style="fill:#f3847d;stroke-width:0.264583"
         d="m 164.27318,262.37894 -47.62455,-47.62509 47.62455,-47.62509 47.62454,-47.62509 47.62509,47.62509 47.6251,47.62509 -47.6251,47.62509 -47.62509,47.62509 z m 87.64281,-7.47424 c 21.86468,-21.86432 39.75397,-39.93191 39.75397,-40.15019 0,-0.43275 -79.33919,-79.90483 -79.77122,-79.90483 -0.43203,0 -79.77253,79.47077 -79.77253,79.90351 0,0.43275 79.33919,79.90483 79.77122,79.90483 0.14552,0 18.15387,-17.889 40.01856,-39.75332 z m -41.14867,0.56532 c -5.35364,-0.89159 -9.3631,-6.2456 -8.98285,-11.99518 0.54145,-8.18688 8.35487,-13.04899 15.3857,-9.57416 7.0602,3.48934 8.41532,13.29317 2.59053,18.74157 -1.67654,1.56822 -3.52831,2.50058 -5.6502,2.84489 -0.92578,0.15022 -1.74278,0.26011 -1.81554,0.2442 -0.0728,-0.0159 -0.7602,-0.13351 -1.52764,-0.26132 z m 0.6016,-28.56639 c -0.58209,-0.10972 -1.38484,-0.32517 -1.78391,-0.47878 -1.12514,-0.43307 -3.14023,-2.42475 -3.68014,-3.63737 -0.50729,-1.13936 -7.37077,-46.4306 -7.36566,-48.60507 0.008,-3.52425 3.73238,-7.038 8.91018,-8.40689 2.65956,-0.70312 7.0968,-0.76168 9.73305,-0.12845 5.34876,1.28479 9.38883,4.94132 9.39744,8.50532 0.004,1.75234 -6.83175,47.39031 -7.2475,48.38534 -1.22148,2.92341 -4.90438,4.94252 -7.96346,4.3659 z"
         id="path1087" />
      <path
         style="fill:#a0a0a0;stroke-width:0.264583"
         d="m 164.40509,262.3127 -47.49299,-47.55885 47.49299,-47.55885 47.49299,-47.55886 47.49282,47.55886 47.49282,47.55885 -47.49282,47.55885 -47.49282,47.55886 z m 87.64145,-7.27484 c 21.9384,-21.93661 39.88801,-40.06441 39.88801,-40.28401 0,-0.4316 -79.60557,-80.16875 -80.03647,-80.16875 -0.43089,0 -80.03646,79.73715 -80.03646,80.16875 0,0.4316 79.60557,80.16875 80.03646,80.16875 0.14325,0 18.21005,-17.94813 40.14846,-39.88474 z m -41.27922,0.43216 c -5.35364,-0.89159 -9.3631,-6.2456 -8.98285,-11.99518 0.54145,-8.18688 8.35487,-13.04899 15.3857,-9.57416 7.0602,3.48934 8.41532,13.29317 2.59053,18.74157 -1.67654,1.56822 -3.52831,2.50058 -5.6502,2.84489 -0.92578,0.15022 -1.74278,0.26011 -1.81554,0.2442 -0.0728,-0.0159 -0.7602,-0.13351 -1.52764,-0.26132 z m 0.6016,-28.56639 c -0.58209,-0.10972 -1.38484,-0.32517 -1.78391,-0.47878 -1.12514,-0.43307 -3.14023,-2.42475 -3.68014,-3.63737 -0.50729,-1.13936 -7.37077,-46.4306 -7.36566,-48.60507 0.008,-3.52425 3.73238,-7.038 8.91018,-8.40689 2.65956,-0.70312 7.0968,-0.76168 9.73305,-0.12845 5.34876,1.28479 9.38883,4.94132 9.39744,8.50532 0.004,1.75234 -6.83175,47.39031 -7.2475,48.38534 -1.22148,2.92341 -4.90438,4.94252 -7.96346,4.3659 z"
         id="path1085" />
      <path
         style="fill:#f05e55;stroke-width:0.264583"
         d="m 164.40509,262.3127 -47.49299,-47.55885 47.49299,-47.55885 47.49299,-47.55886 47.49282,47.55886 47.49282,47.55885 -47.49282,47.55885 -47.49282,47.55886 z m 87.64145,-7.27484 c 21.9384,-21.93661 39.88801,-40.06441 39.88801,-40.28401 0,-0.4316 -79.60557,-80.16875 -80.03647,-80.16875 -0.43089,0 -80.03646,79.73715 -80.03646,80.16875 0,0.4316 79.60557,80.16875 80.03646,80.16875 0.14325,0 18.21005,-17.94813 40.14846,-39.88474 z m -41.27922,0.16758 c -3.78544,-0.63043 -7.04104,-3.62043 -8.26828,-7.59376 -1.6749,-5.42271 0.79617,-11.2716 5.75434,-13.62017 1.6264,-0.77038 2.02569,-0.84912 4.30616,-0.84912 2.27479,0 2.68195,0.0798 4.28644,0.83989 4.71479,2.23359 7.26545,7.81058 5.93837,12.98421 -0.55881,2.17851 -1.19746,3.38413 -2.6463,4.9956 -1.49017,1.65741 -3.76894,2.89405 -5.9999,3.25601 -0.941,0.15267 -1.77043,0.26457 -1.84319,0.24865 -0.0728,-0.0159 -0.7602,-0.1335 -1.52764,-0.26131 z m 0.56026,-28.57038 c -2.30354,-0.42624 -4.43784,-2.09062 -5.287,-4.12295 -0.41028,-0.98195 -7.24085,-46.59879 -7.23679,-48.3297 0.008,-3.38259 3.66216,-6.82488 8.64281,-8.14159 2.65333,-0.70144 7.09908,-0.76259 9.71657,-0.13363 5.21115,1.25218 9.14379,4.79513 9.15212,8.2452 0.004,1.73783 -6.82996,47.38605 -7.24196,48.3721 -1.18518,2.83654 -4.66134,4.68129 -7.74575,4.11057 z"
         id="path1083" />
      <path
         style="fill:#ee4034;stroke-width:0.264583"
         d="m 211.71618,309.55853 c 0.191,-0.0764 0.4192,-0.067 0.50712,0.0209 0.0879,0.0879 -0.0683,0.15046 -0.34726,0.13897 -0.30823,-0.0127 -0.37092,-0.0754 -0.15986,-0.15985 z m -47.3108,-47.57655 -47.22758,-47.22813 47.22758,-47.22813 c 25.97516,-25.97546 47.34688,-47.22812 47.4927,-47.22812 0.14583,0 21.51755,21.25266 47.49271,47.22812 l 47.22758,47.22813 -47.22758,47.22813 c -25.97516,25.97546 -47.34688,47.22812 -47.49271,47.22812 -0.14582,0 -21.51754,-21.25266 -47.4927,-47.22812 z m 87.77346,-6.81183 c 22.01116,-22.00937 40.02029,-40.19671 40.02029,-40.4163 0,-0.43161 -79.87015,-80.43333 -80.30105,-80.43333 -0.43089,0 -80.30104,80.00172 -80.30104,80.43333 0,0.43161 79.87015,80.43333 80.30104,80.43333 0.14326,0 18.2696,-18.00766 40.28076,-40.01703 z m -41.41152,0.0353 c -3.78544,-0.63043 -7.04104,-3.62043 -8.26828,-7.59376 -1.6749,-5.42271 0.79617,-11.2716 5.75434,-13.62017 1.6264,-0.77038 2.02569,-0.84912 4.30616,-0.84912 2.27479,0 2.68195,0.0798 4.28644,0.83989 4.71479,2.23359 7.26545,7.81058 5.93837,12.98421 -0.55881,2.17851 -1.19746,3.38413 -2.6463,4.9956 -1.49017,1.65741 -3.76894,2.89405 -5.9999,3.25601 -0.941,0.15267 -1.77043,0.26457 -1.84319,0.24865 -0.0728,-0.0159 -0.7602,-0.1335 -1.52764,-0.26131 z m 0.56026,-28.57038 c -2.30354,-0.42624 -4.43784,-2.09062 -5.287,-4.12295 -0.41028,-0.98195 -7.24085,-46.59879 -7.23679,-48.3297 0.008,-3.38259 3.66216,-6.82488 8.64281,-8.14159 2.65333,-0.70144 7.09908,-0.76259 9.71657,-0.13363 5.21115,1.25218 9.14379,4.79513 9.15212,8.2452 0.004,1.73783 -6.82996,47.38605 -7.24196,48.3721 -1.18518,2.83654 -4.66134,4.68129 -7.74575,4.11057 z m 0.3886,-106.78278 c 0.191,-0.0764 0.4192,-0.067 0.50712,0.0209 0.0879,0.0879 -0.0683,0.15046 -0.34726,0.13897 -0.30823,-0.0127 -0.37092,-0.0754 -0.15986,-0.15985 z"
         id="path1081" />
      <path
         style="fill:#5e5e5e;stroke-width:0.264583"
         d="m 210.76732,255.20544 c -3.78544,-0.63043 -7.04104,-3.62043 -8.26828,-7.59376 -1.6749,-5.42271 0.79617,-11.2716 5.75434,-13.62017 1.6264,-0.77038 2.02569,-0.84912 4.30616,-0.84912 2.27479,0 2.68195,0.0798 4.28644,0.83989 4.71479,2.23359 7.26545,7.81058 5.93837,12.98421 -0.55881,2.17851 -1.19746,3.38413 -2.6463,4.9956 -1.49017,1.65741 -3.76894,2.89405 -5.9999,3.25601 -0.941,0.15267 -1.77043,0.26457 -1.84319,0.24865 -0.0728,-0.0159 -0.7602,-0.1335 -1.52764,-0.26131 z m 0.56026,-28.57038 c -2.30354,-0.42624 -4.43784,-2.09062 -5.287,-4.12295 -0.41028,-0.98195 -7.24085,-46.59879 -7.23679,-48.3297 0.008,-3.38259 3.66216,-6.82488 8.64281,-8.14159 2.65333,-0.70144 7.09908,-0.76259 9.71657,-0.13363 5.21115,1.25218 9.14379,4.79513 9.15212,8.2452 0.004,1.73783 -6.82996,47.38605 -7.24196,48.3721 -1.18518,2.83654 -4.66134,4.68129 -7.74575,4.11057 z"
         id="path1079" />
      <path
         style="fill:#010101;stroke-width:0.264583"
         d="m 209.40986,254.5867 c -0.64092,-0.20802 -1.77201,-0.79826 -2.51354,-1.31165 -6.83082,-4.72924 -5.89874,-15.63795 1.63678,-19.15625 1.30452,-0.60907 1.85987,-0.70674 4.03201,-0.70909 2.30886,-0.002 2.66449,0.0688 4.26111,0.85485 6.59167,3.24507 8.06315,12.47622 2.83533,17.78715 -1.94261,1.97349 -3.77337,2.75061 -6.69031,2.83988 -1.54703,0.0473 -2.809,-0.0607 -3.56138,-0.30489 z m 0.56797,-28.58649 c -1.51028,-0.65638 -2.6366,-1.70395 -3.35617,-3.12151 -0.6246,-1.23045 -1.06839,-3.87065 -4.14535,-24.66131 -2.32162,-15.68695 -3.40156,-23.68872 -3.31005,-24.52588 0.17481,-1.59925 0.72474,-2.63929 2.14827,-4.06282 5.187,-5.187 17.51161,-5.10075 22.63418,0.1584 1.25333,1.28674 2.10458,3.09363 2.10458,4.46721 0,0.37466 -1.54813,11.14193 -3.44029,23.92726 -2.30341,15.56414 -3.60078,23.60887 -3.92593,24.34392 -0.61132,1.38198 -1.96564,2.74905 -3.34353,3.37498 -1.29333,0.58752 -4.12238,0.64011 -5.36571,0.0998 z"
         id="path1077" />
    </g>
  </g>
</svg>
