<?xml version="1.0" encoding="UTF-8" standalone="no"?>
<!-- Created with Inkscape (http://www.inkscape.org/) -->

<svg
   width="24mm"
   height="24mm"
   viewBox="0 0 24 24"
   version="1.1"
   id="svg5"
   inkscape:version="1.1.1 (3bf5ae0d25, 2021-09-20)"
   sodipodi:docname="rouge3.svg"
   xmlns:inkscape="http://www.inkscape.org/namespaces/inkscape"
   xmlns:sodipodi="http://sodipodi.sourceforge.net/DTD/sodipodi-0.dtd"
   xmlns="http://www.w3.org/2000/svg"
   xmlns:svg="http://www.w3.org/2000/svg">
  <sodipodi:namedview
     id="namedview7"
     pagecolor="#ffffff"
     bordercolor="#666666"
     borderopacity="1.0"
     inkscape:pageshadow="2"
     inkscape:pageopacity="0.0"
     inkscape:pagecheckerboard="0"
     inkscape:document-units="mm"
     showgrid="false"
     inkscape:zoom="0.65512531"
     inkscape:cx="-244.22809"
     inkscape:cy="335.05041"
     inkscape:window-width="1366"
     inkscape:window-height="705"
     inkscape:window-x="-8"
     inkscape:window-y="-8"
     inkscape:window-maximized="1"
     inkscape:current-layer="g9127" />
  <defs
     id="defs2" />
  <g
     inkscape:label="Capa 1"
     inkscape:groupmode="layer"
     id="layer1"
     transform="translate(15.946791,28.864379)">
    <g
       id="g4409"
       transform="matrix(0.12812239,0,0,0.12708914,-207.56124,-4.2074214)" />
    <g
       id="g9127"
       transform="matrix(0.12598244,0,0,0.12598425,-174.2406,-23.711568)">
      <g
         id="g10069"
         transform="matrix(0.12646247,0,0,0.12642558,1178.9413,-77.86228)">
        <path
           style="fill:#facecb;stroke-width:2.10015"
           d="M 986.92883,1401.9254 C 741.0501,1156.0502 612.56274,1026.1363 612.56274,1023.4028 c 0,-2.7327 127.11223,-131.32846 370.15329,-374.47338 203.58427,-203.67129 372.63927,-372.12353 375.67767,-374.3383 5.0078,-3.65025 6.0881,-3.74188 11.5509,-0.9798 7.3023,3.69209 741.3394,737.42378 744.9811,744.67108 2.0323,4.0444 2.0151,6.2201 -0.082,10.4562 -1.4567,2.9421 -132.9281,135.2503 -292.1586,294.0183 -427.5492,426.3071 -455.0616,453.5292 -458.3649,453.5292 -1.6637,0 -171.4897,-168.4623 -377.39107,-374.3607 z m 709.84427,-47.2429 331.2978,-331.298 L 1696.2456,691.56889 1364.4202,359.75332 1033.6449,690.51883 C 851.71852,872.43985 702.86964,1022.2294 702.86964,1023.3845 c 0,2.0641 659.48966,662.596 661.55056,662.596 0.5803,0 150.1391,-149.0841 332.3529,-331.298 z m -653.155,-11.5508 c -174.70569,-174.706 -317.64669,-318.5924 -317.64669,-319.7474 0,-2.7337 636.75139,-639.48447 639.48509,-639.48447 1.1447,0 145.0308,142.93584 319.7469,317.63521 210.9932,210.973 317.6656,319.04966 317.6656,321.84756 0,5.8303 -631.5735,637.3963 -637.4039,637.3963 -2.7817,0 -111.4809,-107.2807 -321.847,-317.6472 z m 341.8295,228.624 c 18.4042,-12.1792 22.0016,-36.6553 7.5608,-51.4438 -4.1726,-4.2731 -7.5866,-8.6227 -7.5866,-9.6659 0,-1.0432 2.4707,-4.4754 5.4904,-7.6273 12.3199,-12.8591 7.4607,-34.1483 -9.9119,-43.4263 -8.0093,-4.2774 -11.5896,-4.8396 -27.0809,-4.2526 -21.0498,0.7977 -29.5494,5.3834 -35.9013,19.3699 -5.8364,12.851 -5.3804,13.8586 6.2714,13.8586 9.2341,0 10.4077,-0.5365 11.6043,-5.3038 2.2897,-9.1227 8.5987,-13.5974 19.1711,-13.5974 12.6275,0 19.8561,6.713 19.8561,18.4396 0,10.0181 -6.0678,16.4072 -17.9209,18.8699 -6.9012,1.4338 -8.3311,2.5924 -8.3311,6.75 0,4.2533 1.5731,5.4204 10.3102,7.6492 12.9623,3.3067 18.0453,8.3401 19.5192,19.3289 1.0484,7.8164 0.4462,9.3641 -6.249,16.0592 -5.6983,5.6982 -9.1322,7.4091 -14.8709,7.4091 -11.1316,0 -17.7406,-3.9379 -21.7106,-12.9361 -3.4157,-7.7417 -3.9634,-8.0652 -13.6551,-8.0652 -11.4867,0 -12.0714,1.28 -6.7075,14.6855 6.2045,15.5063 18.6086,21.1973 44.2297,20.2925 14.633,-0.5168 18.4572,-1.4604 25.9126,-6.394 z m 136.4846,-586.18258 v -17.86511 l -149.6364,0.53904 -149.6364,0.53902 -0.6282,14.49255 c -0.3456,7.9709 -0.1389,15.76763 0.4591,17.32608 0.8984,2.3411 27.0096,2.8335 150.2646,2.8335 h 149.1773 z m -155.275,-49.21008 c -1.6574,-1.04876 -8.6124,-2.55664 -15.4555,-3.35086 -7.3037,-0.84768 -17.3346,-3.99953 -24.2887,-7.63188 -16.0563,-8.38672 -38.9996,-31.35731 -45.5244,-45.57851 -8.1151,-17.68742 -6.4303,-21.2429 5.9045,-12.4599 5.8356,4.15527 38.6938,11.14547 41.264,8.77846 0.4894,-0.45069 -2.1631,-4.82932 -5.8944,-9.73031 -11.3939,-14.96559 -23.3475,-41.86571 -23.3475,-52.54088 0,-15.19358 3.8056,-15.78811 16.274,-2.5424 9.7174,10.32319 32.4106,24.44024 35.048,21.80282 0.5696,-0.56952 0.015,-7.59405 -1.2335,-15.61008 -3.1805,-20.42885 -1.3597,-32.70726 8.6448,-58.29516 4.7835,-12.23454 9.2465,-25.62884 9.9177,-29.76508 2.2356,-13.77585 6.8224,-12.30845 19.3719,6.1975 12.9926,19.15921 16.8658,31.78335 16.7633,54.63825 -0.047,10.39564 -0.8421,24.09899 -1.7677,30.45188 -0.9255,6.3529 -1.3781,11.8955 -1.0056,12.31691 1.3847,1.56649 33.6794,-17.05285 39.848,-22.97408 3.5202,-3.37913 8.146,-6.14387 10.2794,-6.14387 3.4928,0 3.7533,1.30698 2.6169,13.12582 -1.8311,19.04293 -6.5769,30.7866 -18.3409,45.38549 -5.7237,7.10285 -10.4066,13.38205 -10.4066,13.95377 0,0.57171 4.1679,1.03948 9.2621,1.03948 5.9188,0 14.0436,-2.26121 22.508,-6.26419 17.2833,-8.17362 19.6714,-6.04829 11.2603,10.02153 -9.4079,17.97421 -30.7559,39.35713 -47.971,48.0494 -7.9153,3.99657 -13.9083,7.74954 -13.3179,8.33995 0.5904,0.59041 12.2644,-0.0105 25.9422,-1.33536 22.8515,-2.21346 26.1281,-3.09581 40.3945,-10.87754 24.4343,-13.32802 35.0039,-21.92488 46.6613,-37.95206 14.6173,-20.09667 23.8001,-49.43646 25.8008,-82.43622 0.7704,-12.70579 1.8212,-28.77179 2.3352,-35.70222 0.7763,-10.4669 0.6087,-11.35601 -0.99,-5.25032 -1.0584,4.04275 -2.5013,10.91977 -3.2062,15.28227 -1.7762,10.99137 -16.9725,22.39232 -29.9476,22.46801 -10.4977,0.0613 -11.3158,-2.53967 -4.1297,-13.12884 2.6377,-3.88688 8.44,-17.71306 12.894,-30.72488 l 8.0982,-23.65782 -2.5016,-17.88221 c -2.4581,-17.5708 -9.5372,-40.562 -12.4893,-40.562 -0.8261,0 -5.0752,6.21259 -9.4424,13.80578 -9.0313,15.70214 -26.1503,34.49722 -31.4211,34.49722 -4.4073,0 -4.5444,-5.47496 -0.3861,-15.42705 3.6143,-8.64992 4.1297,-36.55239 1.1893,-64.3779 -1.6024,-15.16298 -3.3147,-20.52167 -11.3711,-35.58559 -10.788,-20.17139 -10.9084,-20.07248 -12.6394,10.38403 -1.3999,24.62968 -8.7438,45.63018 -18.2025,52.05147 -11.1919,7.59788 -13.7058,5.76194 -12.8689,-9.39831 1.1361,-20.58081 -2.9732,-34.07161 -24.9428,-81.8868 -15.2489,-33.18825 -21.8813,-50.32666 -25.2913,-65.35454 -2.5422,-11.20327 -5.2893,-21.64678 -6.1047,-23.2078 -0.9291,-1.77877 -3.6677,2.92489 -7.3366,12.60078 -5.309,14.00165 -6.0165,19.15394 -7.5989,55.34149 -0.9596,21.94636 -3.0184,48.43436 -4.5749,58.86222 -3.3516,22.45373 -11.148,42.99409 -16.319,42.99409 -3.9876,0 -13.2656,-19.18485 -15.5297,-32.11214 -1.7446,-9.96144 -8.7434,-26.49134 -13.3979,-31.6438 -1.9389,-2.1462 -8.089,-6.21649 -13.667,-9.04507 l -10.1418,-5.14284 1.4607,11.69084 c 0.9981,7.98885 -0.072,22.7057 -3.3789,46.47546 -4.0665,29.22881 -4.441,36.27443 -2.3447,44.11227 3.3734,12.6126 3.148,15.57605 -1.1805,15.52105 -5.468,-0.0695 -11.5653,-5.8413 -21.027,-19.90453 -8.7259,-12.96969 -22.7476,-27.80541 -24.5636,-25.98947 -0.5638,0.5638 -0.2192,8.21181 0.7659,16.99554 1.0951,9.76495 0.9833,20.32722 -0.2876,27.18309 -4.4775,24.15236 2.9954,63.31298 15.464,81.03709 3.4515,4.90635 5.69,9.86791 4.9745,11.02569 -0.7156,1.15776 -5.4311,2.10502 -10.479,2.10502 -8.1948,0 -10.7123,-1.33396 -23.5029,-12.45352 -7.8786,-6.84945 -18.9996,-17.86954 -24.7131,-24.48911 -5.7136,-6.61957 -10.6901,-11.13017 -11.059,-10.02357 -0.3688,1.10663 6.0164,29.36659 14.1895,62.79996 18.4423,75.44094 21.45,81.46162 49.957,100.00007 23.4196,15.23011 46.2985,22.34692 83.3104,25.91485 34.8897,3.36336 47.16,3.70119 43.1901,1.18916 z"
           id="path10083" />
        <path
           style="fill:#f7b2ae;stroke-width:2.10015"
           d="M 992.56595,1405.5991 C 788.03312,1201.1592 618.72884,1031.1976 616.33424,1027.9067 l -4.35383,-5.9834 371.49454,-371.65267 C 1187.7969,445.86169 1357.3934,276.8501 1360.356,274.68933 l 5.3865,-3.92868 376.3177,376.31658 376.3176,376.31657 -376.967,376.9572 -376.967,376.9571 z m 704.31845,-46.7139 c 181.1401,-181.0574 330.3339,-330.9768 331.5418,-333.1542 1.9265,-3.4727 -38.5205,-44.67812 -329.3206,-335.4958 -182.3343,-182.34531 -332.465,-331.53693 -333.6237,-331.53693 -2.7505,0 -664.71242,661.93583 -664.71242,664.68623 0,2.7374 661.94512,664.6961 664.68252,664.6961 1.1478,0 150.2924,-148.1379 331.4324,-329.1954 z m -650.6316,-15.2259 C 871.25312,1168.6764 728.07157,1024.558 728.07157,1023.3963 c 0,-2.7415 634.64343,-637.39634 637.38483,-637.39634 3.4249,0 635.3125,632.90214 635.3125,636.33254 0,1.7392 -143.1754,146.3332 -318.1675,321.3199 L 1364.434,1661.81 Z m 328.8799,234.9245 c 22.4,-7.4997 33.8467,-28.9147 26.1824,-48.9832 -1.9303,-5.0543 -5.8234,-10.7057 -8.6514,-12.5586 -6.4417,-4.2208 -6.4379,-6.3758 0.025,-14.0565 7.4843,-8.8944 8.6668,-18.3754 3.694,-29.617 -5.8482,-13.2208 -15.6863,-18.7973 -35.3935,-20.062 -18.4917,-1.1867 -31.5005,2.8912 -39.4819,12.3764 -5.374,6.3866 -10.2863,20.0617 -8.3384,23.2133 0.6024,0.9747 5.7468,1.7722 11.4321,1.7722 9.1658,0 10.4805,-0.5722 11.6046,-5.0512 2.7167,-10.8238 15.343,-17.2901 26.3019,-13.4699 7.455,2.5988 10.3134,7.3603 10.3134,17.1805 0,8.6219 -7.7078,16.0415 -16.6645,16.0415 -6.8965,0 -10.6376,3.4946 -10.6376,9.9365 0,5.2606 0.9459,5.8193 13.3606,7.8902 17.744,2.9599 24.1925,20.5485 12.0028,32.738 -11.1461,11.146 -28.7907,7.2278 -35.0642,-7.7865 -2.8002,-6.7017 -3.514,-7.076 -13.4951,-7.076 -12.8307,0 -14.4454,2.7186 -9.4242,15.8663 3.9653,10.3828 12.9206,18.358 24.2194,21.5687 10.2,2.8984 29.4716,2.9376 38.0146,0.077 z m 147.8496,-592.99669 v -18.90117 l -150.6865,-0.53894 -150.6865,-0.53893 v 19.97904 19.97899 l 150.6865,-0.5389 150.6865,-0.5389 z m -133.8544,-46.34706 c -0.6568,-0.65684 -12.864,-3.35013 -27.1271,-5.98508 -14.263,-2.63495 -30.1856,-6.96243 -35.3835,-9.61662 -14.5375,-7.42324 -37.3947,-30.59316 -43.3129,-43.90561 -2.7749,-6.24167 -4.5313,-11.86234 -3.9033,-12.49038 0.6281,-0.62802 3.9995,0.5461 7.4921,2.60918 6.7062,3.96139 41.8509,10.21982 44.3278,7.89374 0.7994,-0.75071 -1.8556,-5.6177 -5.9,-10.81552 -11.7369,-15.08413 -23.9056,-41.42312 -23.9056,-51.7432 0,-4.90198 0.9495,-9.49948 2.1099,-10.21667 1.1605,-0.71719 6.6841,3.39211 12.2748,9.13176 10.3381,10.6136 34.8614,24.89843 36.948,21.52226 0.6305,-1.02009 0.2069,-6.80834 -0.9413,-12.86277 -3.609,-19.02974 -2.5571,-34.43398 3.4759,-50.90171 3.06,-8.35258 8.1542,-22.56445 11.3203,-31.58197 3.1662,-9.0175 6.2241,-16.86285 6.7954,-17.43413 1.8663,-1.86634 14.1617,14.6431 20.5022,27.5292 8.9944,18.27968 10.9469,31.66402 8.2719,56.70352 -1.234,11.55071 -2.7362,22.65515 -3.3382,24.67653 -0.6211,2.08532 0.011,3.67522 1.4591,3.67522 4.4938,0 36.3962,-18.35576 41.6738,-23.97794 8.9703,-9.55599 11.4516,-7.39949 9.9529,8.64991 -1.5815,16.93541 -8.1501,31.18469 -21.2464,46.08994 -7.5644,8.60919 -8.8274,11.0683 -6.2019,12.07575 6.9266,2.65797 19.1323,1.02486 29.9388,-4.00577 11.1047,-5.16943 17.1178,-6.52414 17.1178,-3.85653 0,0.75531 -3.2267,7.14309 -7.1705,14.1951 -10.4247,18.64081 -30.3,36.81362 -50.4388,46.11818 -9.1091,4.20862 -16.0162,8.19794 -15.3489,8.86518 0.6672,0.66721 13.8117,0.1428 29.21,-1.1653 25.6274,-2.17715 29.2413,-3.01701 42.6981,-9.92331 39.1685,-20.10192 56.6875,-39.43534 68.1449,-75.20274 5.7276,-17.88013 7.1239,-26.82208 9.9331,-63.61115 2.1822,-28.57862 2.5695,-43.5055 1.1654,-44.90961 -1.4041,-1.40412 -2.936,4.06375 -4.6089,16.45085 -3.3957,25.14454 -3.3715,25.08668 -13.3449,31.87716 -17.1684,11.6892 -29.9423,9.70098 -20.5818,-3.20346 2.3616,-3.2557 8.2063,-17.13763 12.9881,-30.84872 8.6846,-24.90144 8.6916,-24.94718 6.3407,-40.95254 -2.3531,-16.01992 -9.6838,-41.66889 -12.917,-45.19413 -0.9441,-1.02946 -4.3654,2.63652 -7.6156,8.16029 -14.625,24.85533 -31.7804,44.13501 -35.7447,40.17076 -0.748,-0.74802 0.2265,-6.39319 2.1657,-12.54481 3.9847,-12.64089 4.4457,-32.89491 1.4053,-61.75366 -1.7561,-16.66888 -3.43,-22.20043 -11.757,-38.8524 -5.3401,-10.67898 -10.0727,-19.81011 -10.5169,-20.2914 -1.9774,-2.14265 -2.8753,2.58226 -4.7738,25.12144 -2.6747,31.755 -9.1754,51.80396 -18.5528,57.21958 -9.3951,5.42584 -11.6073,3.26879 -9.9873,-9.73826 2.1043,-16.89586 -3.1561,-33.97912 -25.293,-82.13932 -16.011,-34.8331 -21.3198,-48.85092 -25.4515,-67.20417 -2.8714,-12.75476 -5.9941,-23.97622 -6.9395,-24.93661 -1.8922,-1.92229 -11.3388,21.48219 -14.6912,36.39831 -1.1682,5.19782 -2.1471,20.68516 -2.1753,34.41632 -0.097,47.11209 -10.306,102.09213 -18.9572,102.09213 -3.2703,0 -10.3317,-12.70662 -11.6711,-21.0013 -2.3002,-14.24474 -11.6576,-37.23778 -17.309,-42.53143 -6.2671,-5.87052 -23.3355,-15.05613 -24.9594,-13.43229 -0.568,0.56804 -0.2182,6.06805 0.7775,12.22225 1.3134,8.11799 0.759,18.10718 -2.0197,36.39102 -2.514,16.54203 -3.5512,32.59824 -3.0188,46.72789 0.5759,15.28053 0.1114,21.52634 -1.6014,21.52634 -2.8889,0 -11.1766,-8.75835 -17.8854,-18.90118 -6.7477,-10.20155 -23.4535,-27.30169 -26.6722,-27.30169 -2.588,0 -2.4345,7.34136 0.5472,26.18245 0.5424,3.42718 -0.1399,13.58656 -1.5161,22.5764 -4.0713,26.59548 3.4429,63.64988 16.335,80.55215 6.8573,8.99015 4.7058,11.5496 -7.788,9.26498 -8.6712,-1.58562 -18.4676,-9.73917 -45.3801,-37.76973 -10.8635,-11.31485 -13.1183,-12.85885 -13.1761,-9.02269 -0.039,2.54551 6.6549,31.84232 14.874,65.10404 13.3196,53.90236 15.8877,62.02856 23.6268,74.76054 7.4385,12.23739 11.221,15.93108 26.3921,25.77225 25.7737,16.7188 49.0852,23.70139 90.4491,27.0926 36.172,2.96555 62.2328,3.8329 60.4104,2.01058 z"
           id="path10081" />
        <path
           style="fill:#f4958f;stroke-width:2.10015"
           d="M 987.96423,1398.7855 612.56274,1023.3851 989.0187,646.93892 l 376.456,-376.44613 375.4015,375.40045 c 206.4708,206.47027 375.4015,376.46586 375.4015,377.76806 0,2.5067 -748.934,750.5247 -751.4438,750.5247 -0.8075,0 -170.3988,-168.9302 -376.86967,-375.4005 z M 2030.1711,1023.3894 c 0,-1.1578 -149.794,-151.89459 -332.8754,-334.97071 L 1364.4202,355.55304 1031.5448,688.41869 C 848.46327,871.49481 698.66932,1022.2346 698.66932,1023.396 c 0,1.1615 149.79691,151.8953 332.88208,334.9642 l 332.882,332.8525 332.8688,-332.8591 c 183.0779,-183.0725 332.8689,-333.8063 332.8689,-334.9642 z m -983.4028,318.6922 C 872.64019,1167.9531 730.17173,1024.5393 730.17173,1023.3842 c 0,-2.746 632.55767,-635.28411 635.30377,-635.28411 2.7461,0 635.2934,632.54851 635.2934,635.29461 0,2.746 -632.5577,635.2841 -635.3038,635.2841 -1.1551,0 -144.5686,-142.4687 -318.6968,-316.5972 z m 336.1285,234.3895 c 22.8843,-11.078 28.925,-43.2621 11.1407,-59.3565 -5.5911,-5.0597 -5.5481,-5.7 1.0274,-15.3272 4.5924,-6.7237 5.3029,-9.7021 4.547,-19.0619 -0.7368,-9.1235 -2.1637,-12.4012 -8.0374,-18.4612 -13.07,-13.4846 -40.5402,-17.2023 -59.7509,-8.0864 -9.7395,4.6217 -18.3057,17.3551 -18.6188,27.6763 -0.2263,7.4603 0.1271,7.8992 6.8776,8.544 11.6829,1.116 16.5515,-1.0445 18.0848,-8.0256 2.8085,-12.7869 19.8564,-17.0927 29.4987,-7.4505 10.048,10.0478 4.1609,23.5575 -11.9679,27.4636 -8.4644,2.05 -9.1754,2.758 -9.7646,9.724 -0.6671,7.8867 2.2232,10.0595 13.4782,10.1321 2.4432,0.017 6.818,1.8975 9.7219,4.1817 10.4225,8.1982 8.4748,24.5986 -3.6018,30.3292 -13.1406,6.2356 -22.9046,2.5211 -28.6587,-10.9026 l -3.9008,-9.1001 -11.0531,0.6357 c -9.7852,0.5628 -11.1332,1.2023 -11.7521,5.5747 -1.1198,7.9109 1.3339,14.3931 8.566,22.63 9.3239,10.6191 16.548,13.2058 37.1485,13.3014 13.9362,0.065 19.6969,-0.878 27.0153,-4.4207 z m 140.0855,-590.88399 v -21.0013 l -147.0112,-0.57897 c -80.8562,-0.31842 -149.1377,-0.0641 -151.7366,0.56506 -4.484,1.08556 -4.7254,2.15207 -4.7254,20.88021 0,13.82005 0.787,20.05589 2.6252,20.80279 1.4439,0.5866 69.7254,0.9016 151.7366,0.7 l 149.1114,-0.3665 z m -84.491,-47.18612 c 21.9247,-1.97766 31.9144,-6.17233 60.3392,-25.33654 17.7999,-12.00082 33.6748,-35.61071 41.6109,-61.88567 6.6548,-22.03265 10.8931,-61.33321 10.8931,-101.00887 0,-24.80871 -3.082,-20.68302 -7.2112,9.65321 -3.2287,23.72072 -3.4278,24.27269 -11.1641,30.94708 -7.4669,6.44196 -20.2165,10.96671 -23.0153,8.16795 -0.7104,-0.71041 1.1074,-5.7854 4.0395,-11.27778 2.932,-5.49239 8.4019,-19.32416 12.1551,-30.7373 6.2077,-18.87685 6.6932,-22.19543 5.3751,-36.74131 -1.5323,-16.90918 -11.2834,-49.10245 -14.8318,-48.96706 -1.155,0.0441 -6.8255,7.68862 -12.6009,16.98785 -16.0287,25.80825 -31.0756,40.10522 -27.3037,25.94274 2.6894,-10.09768 3.554,-53.4225 1.4355,-71.92946 -1.767,-15.43696 -3.5335,-20.65511 -13.0618,-38.58512 -7.2889,-13.71597 -11.5338,-19.75821 -12.5412,-17.85111 -0.8376,1.5856 -2.082,12.5718 -2.7654,24.41378 -1.508,26.13213 -7.9767,50.0824 -15.3136,56.69898 -9.1307,8.23425 -11.2369,6.43163 -11.0421,-9.45058 0.2573,-20.98144 -2.2729,-28.89038 -25.2354,-78.88251 -17.1701,-37.38143 -21.9341,-50.01953 -26.4601,-70.19487 -3.0358,-13.53295 -5.9524,-25.03805 -6.4813,-25.56693 -1.8833,-1.88322 -4.574,3.17383 -9.9549,18.70964 -8.062,23.27696 -10.489,38.57885 -8.976,56.59326 2.5832,30.75477 -9.5021,98.81637 -17.5461,98.81637 -3.1253,0 -9.7639,-14.16157 -12.3404,-26.32471 -2.7017,-12.75415 -9.8696,-29.97852 -14.7041,-35.33372 -4.5135,-4.99974 -27.1513,-16.49585 -28.425,-14.43504 -0.5309,0.85913 -0.034,6.68812 1.1051,12.95335 1.6465,9.05887 1.1265,17.65672 -2.5395,41.99099 -3.1127,20.66222 -4.2416,35.54445 -3.4758,45.82566 0.6237,8.37427 0.4424,15.22595 -0.4028,15.22595 -3.1649,0 -8.3443,-5.63194 -16.6871,-18.14528 -8.1272,-12.18995 -24.0766,-28.05759 -28.2021,-28.05759 -1.091,0 -1.2739,8.69597 -0.4325,20.5645 0.9334,13.16456 0.5812,24.78802 -0.9787,32.30168 -4.2059,20.2596 4.243,61.5777 15.6498,76.53252 6.5487,8.58565 6.5717,11.31002 0.096,11.31002 -10.2017,0 -16.8554,-4.73493 -40.351,-28.71447 -13.1551,-13.42611 -24.543,-23.78645 -25.3065,-23.02301 -0.7635,0.76346 5.5473,29.96403 14.024,64.89018 19.4344,80.0751 23.4342,88.14153 53.3559,107.60319 24.2894,15.79835 49.7143,23.23668 89.4978,26.18352 53.857,3.98928 66.8813,4.00549 109.7739,0.13651 z m -74.0711,-5.56527 c -14.4386,-2.72874 -30.0323,-6.62439 -34.6526,-8.65701 -12.119,-5.33143 -40.6655,-33.20614 -45.4909,-44.42039 -4.6702,-10.85364 -3.7155,-12.77684 4.0773,-8.21374 5.2478,3.07285 30.0047,7.98596 40.2407,7.98596 6.1716,0 5.4226,-2.9228 -3.925,-15.31606 -12.3979,-16.43747 -21.1505,-36.38736 -21.1525,-48.21288 -9e-4,-5.48659 0.6158,-9.97562 1.3706,-9.97562 0.7546,0 6.3301,4.68898 12.3899,10.41999 10.9568,10.36233 33.1926,23.13089 35.7784,20.54515 0.7449,-0.74481 0.2915,-10.36511 -1.0073,-21.3784 -2.7832,-23.59841 -1.695,-29.9543 10.27,-59.98663 4.621,-11.59891 8.4019,-22.90429 8.4019,-25.12306 0,-12.47846 11.2418,-2.16298 22.6714,20.80324 7.422,14.91343 7.7809,16.6088 7.7809,36.75228 0,11.61469 -0.784,27.49677 -1.7423,35.29351 -1.1219,9.12878 -1.0019,14.17587 0.337,14.17587 3.209,0 31.9428,-16.62633 40.9193,-23.67716 4.5288,-3.5573 8.7692,-5.48468 9.7546,-4.43367 2.7271,2.90875 -1.1696,25.03839 -6.2607,35.55506 -2.5317,5.22985 -9.202,14.54059 -14.8228,20.69055 -5.6208,6.14995 -9.6153,11.78609 -8.8766,12.52477 0.7387,0.73868 6.8874,1.34306 13.6639,1.34306 9.065,0 15.1322,-1.42467 22.9605,-5.39152 5.8519,-2.96534 11.2333,-4.79806 11.9587,-4.07272 2.7746,2.77461 -11.7366,25.53993 -23.7882,37.31896 -11.9714,11.70064 -45.2422,31.35448 -51.937,30.68036 -1.467,-0.14764 -14.4806,-2.50118 -28.9192,-5.2299 z"
           id="path10079" />
        <path
           style="fill:#f3837c;stroke-width:2.10015"
           d="M 987.96478,1398.7861 612.56273,1023.3851 987.96862,647.98898 C 1194.4419,441.52116 1363.8491,272.59293 1364.429,272.59293 c 0.7031,0 751.8487,750.10177 751.8487,750.80387 0,0.6951 -750.2936,749.9142 -751.3408,750.2647 -0.8636,0.2891 -170.501,-168.4049 -376.97212,-374.8754 z m 711.95362,-40.9484 c 182.7941,-182.7888 332.3529,-333.2882 332.3529,-334.4433 0,-3.4294 -664.4113,-666.79626 -667.8461,-666.79626 -4.119,0 -665.75588,661.61746 -665.75588,665.73626 0,3.4349 663.36658,667.8464 666.79598,667.8464 1.1551,0 151.659,-149.5544 334.4531,-332.3431 z m -652.6155,-15.2285 C 872.88075,1168.2039 730.17173,1024.5581 730.17173,1023.3964 c 0,-1.1618 142.70591,-144.8138 317.12427,-319.22673 l 317.1242,-317.11443 317.1242,317.11443 c 174.4184,174.41293 317.1243,318.06183 317.1243,319.21973 0,1.158 -142.7028,144.8038 -317.1173,319.2129 l -317.1173,317.1075 z m 326.568,238.1468 c 29.647,-8.0981 41.3487,-41.5374 22.1767,-63.3728 -5.9365,-6.7612 -5.9579,-6.8826 -2.0641,-11.6912 14.6131,-18.0462 4.9733,-45.3766 -18.4837,-52.4044 -34.2015,-10.2469 -66.3434,8.316 -63.8161,36.8558 0.1557,1.7569 4.0882,2.6251 11.8906,2.6251 11.2247,0 11.7666,-0.2599 14.5797,-6.9926 3.918,-9.3768 8.4296,-12.7486 17.0584,-12.7486 9.3241,0 16.2083,6.6903 16.2083,15.7516 0,8.1094 -6.8183,14.4903 -15.4838,14.4903 -6.4274,0 -12.5183,4.7384 -12.5183,9.7386 0,6.6983 4.3279,11.2627 10.679,11.2627 7.6965,0 17.741,4.9117 19.5188,9.5447 5.0726,13.2187 -3.3533,26.1575 -17.0341,26.1575 -10.1998,0 -16.3929,-4.345 -19.4663,-13.6574 -2.4087,-7.2981 -2.5018,-7.3439 -14.9278,-7.3439 -14.5709,0 -15.894,1.6149 -12.2942,15.0058 6.0479,22.4974 35.1129,34.6631 63.9769,26.7788 z m 150.9869,-576.4395 c 1.8645,-4.85866 1.4962,-35.08033 -0.4651,-38.1696 -1.3251,-2.08707 -33.281,-2.52642 -152.7545,-2.10013 l -151.079,0.53904 -0.612,18.73496 c -0.3367,10.30423 -0.13,19.99103 0.4591,21.52633 0.8772,2.2859 28.4221,2.7914 152.124,2.7914 135.8029,0 151.1814,-0.3354 152.3275,-3.322 z m -95.8973,-64.02296 c 24.1191,-2.01548 28.2955,-2.98345 41.5178,-9.62252 39.7732,-19.97063 58.8108,-40.9684 70.1602,-77.38392 5.5552,-17.82429 7.0481,-27.58935 9.8909,-64.69281 3.1754,-41.44649 2.6601,-65.10075 -1.33,-61.05151 -0.991,1.00564 -3.3284,13.16916 -5.1943,27.03001 -4.3184,32.08023 -3.9877,31.14863 -13.2142,37.22594 -15.2792,10.0641 -25.9583,9.0581 -17.5338,-1.65175 2.3093,-2.93577 8.0719,-16.95981 12.8057,-31.16452 8.5,-25.50598 8.5784,-26.0198 6.3108,-41.36984 -2.9957,-20.27849 -12.0664,-48.0951 -15.6835,-48.0951 -1.5383,0 -6.1819,6.05281 -10.3191,13.45067 -9.6473,17.25074 -23.5564,34.85233 -27.5409,34.85233 -3.7936,0 -3.7955,0.39514 0.049,-10.50065 3.74,-10.60014 3.9776,-26.75209 0.8506,-57.82154 -2.1499,-21.36099 -3.0428,-24.33054 -13.7119,-45.60389 -6.2768,-12.51528 -12.2261,-22.25207 -13.2208,-21.63732 -0.9947,0.61475 -2.4668,11.75804 -3.2713,24.76286 -1.9644,31.75552 -9.3267,57.01398 -17.9124,61.45378 -7.2504,3.74926 -9.0996,1.71971 -7.2784,-7.98808 2.6963,-14.37222 -2.9779,-32.92204 -24.5396,-80.22369 -17.247,-37.83602 -22.1453,-50.90356 -27.0492,-72.16082 -3.2936,-14.2769 -6.53,-26.49966 -7.1921,-27.16168 -2.0627,-2.06269 -4.5749,2.19787 -10.2701,17.41743 -7.7047,20.58967 -9.7651,33.62982 -9.7651,61.80269 0,42.484 -7.676,87.95524 -16.0161,94.87682 -2.2903,1.90077 -3.7049,0.53342 -7.0305,-6.79562 -2.2898,-5.04634 -4.204,-11.06529 -4.2537,-13.37543 -0.1907,-8.85495 -10.5666,-33.4681 -16.8354,-39.93576 -6.9735,-7.19475 -26.342,-17.3455 -28.6648,-15.0228 -0.7739,0.77394 -0.43,6.79787 0.7642,13.38652 1.7431,9.61629 1.3648,17.17663 -1.9177,38.32641 -2.6355,16.98107 -3.8105,33.19632 -3.3054,45.61439 0.7426,18.25584 0.5786,19.15753 -3.1247,17.17564 -2.1496,-1.15043 -7.6793,-7.93062 -12.2882,-15.06707 -9.307,-14.41103 -28.3787,-32.45109 -31.2233,-29.53424 -1.0162,1.04201 -0.9191,9.69759 0.2212,19.70905 1.4572,12.7945 1.3189,21.86822 -0.4884,32.03251 -4.0813,22.95373 3.7789,64.49416 14.8719,78.59638 5.3224,6.76625 5.616,11.82313 0.6076,10.46531 -2.0214,-0.54801 -6.1058,-1.53247 -9.0763,-2.18766 -3.2282,-0.71205 -15.4786,-11.55076 -30.4523,-26.94312 -22.5888,-23.2204 -25.1127,-25.22813 -25.6755,-20.42427 -0.3432,2.93015 6.135,33.15908 14.396,67.17541 13.8377,56.97887 15.7405,63.0175 24.1701,76.7048 7.7829,12.63718 11.7921,16.61514 26.8335,26.6249 23.3392,15.53164 49.8695,24.08333 83.2858,26.84605 53.7608,4.44472 73.848,4.79336 108.6437,1.88571 z m -67.6905,-9.09222 c -29.8131,-5.46414 -39.3478,-9.99026 -57.4745,-27.28317 -16.9399,-16.16071 -29.2138,-40.18244 -16.1616,-31.63042 5.9897,3.92456 43.3496,9.66739 46.1334,7.09149 1.0962,-1.01432 -1.8354,-6.70466 -6.9318,-13.45467 -12.0541,-15.96529 -23.3199,-40.0544 -23.3199,-49.86371 0,-4.36409 0.9475,-7.93473 2.1056,-7.93473 1.1581,0 5.4189,3.6674 9.4685,8.14975 8.4296,9.33037 36.0966,24.82524 39.0513,21.87058 1.1614,-1.16139 1.0822,-6.34466 -0.2004,-13.10716 -3.6969,-19.49339 -2.5622,-37.52595 3.3769,-53.66545 2.9753,-8.0855 7.8412,-21.55258 10.813,-29.92685 2.9718,-8.37427 6.2086,-15.22594 7.1928,-15.22594 2.9645,0 18.0213,24.76784 21.4654,35.30978 5.2709,16.13385 5.9531,25.67373 3.4116,47.71422 -1.3275,11.51285 -2.8968,22.58629 -3.4872,24.60767 -0.7272,2.48943 0.089,3.67522 2.5302,3.67522 5.308,0 36.8138,-17.682 42.7238,-23.97794 7.7419,-8.24736 9.2723,-6.84991 7.9896,7.29558 -1.4433,15.91733 -8.9411,31.4808 -21.4056,44.43271 -5.2397,5.44458 -9.5268,10.76054 -9.5268,11.81323 0,2.11365 10.0522,4.5506 18.6389,4.51864 3.0322,-0.0105 10.6119,-2.39409 16.844,-5.29512 6.2321,-2.90104 11.876,-4.72973 12.542,-4.06373 2.3932,2.39318 -11.0044,23.27122 -22.572,35.1748 -12.798,13.16967 -41.7538,28.9889 -52.3521,28.60109 -3.1093,-0.11383 -16.9941,-2.28541 -30.8552,-4.82587 z"
           id="path10077" />
        <path
           style="fill:#f17169;stroke-width:2.10015"
           d="M 988.49147,1398.4375 613.61282,1023.3894 989.54004,647.99188 1365.4673,272.59431 l 375.5345,375.39757 375.5345,375.39752 -376.1431,375.3983 c -206.8787,206.4691 -376.341,375.2407 -376.5831,375.048 -0.242,-0.1926 -169.1354,-169.1218 -375.31863,-375.3982 z m 711.42693,-40.5998 c 182.7941,-182.7888 332.3529,-333.2882 332.3529,-334.4433 0,-3.4294 -664.4113,-666.79626 -667.8461,-666.79626 -3.4263,0 -667.85604,663.35246 -667.85604,666.77316 0,3.4252 664.40904,666.8095 667.83954,666.8095 1.7362,0 152.7156,-149.5544 335.5097,-332.3431 z M 1046.7683,1339.9815 730.17172,1023.3842 1046.7735,706.79223 c 174.131,-174.12561 317.5469,-316.59201 318.702,-316.59201 2.7461,0 633.1932,630.44838 633.1932,633.19448 0,2.746 -630.4575,633.184 -633.2036,633.184 -1.1551,0 -144.5687,-142.4688 -318.6968,-316.5972 z m 335.9036,237.7728 c 23.7562,-11.8381 31.1898,-40.374 15.2473,-58.5313 -3.4083,-3.8817 -6.1969,-7.5998 -6.1969,-8.2623 0,-0.6625 2.3627,-4.6861 5.2504,-8.9414 5.9114,-8.7108 6.7216,-18.5338 2.3708,-28.7444 -6.3195,-14.831 -21.6937,-22.8796 -43.7042,-22.8796 -25.2096,0 -43.0531,13.3233 -44.265,33.0515 l -0.5082,8.2717 12.9317,0.6202 12.9318,0.6202 2.4626,-7.4618 c 2.7494,-8.3305 7.3513,-11.6297 16.222,-11.6297 9.1204,0 15.3121,5.369 15.2743,13.2449 -0.017,3.6885 -0.7264,7.7461 -1.5751,9.0171 -2.4206,3.6252 -10.2223,7.1398 -15.8488,7.1398 -6.9155,0 -10.271,4.592 -9.4642,12.9515 0.6328,6.5579 1.2258,7.0141 11.1691,8.5945 11.2394,1.7863 19.9515,8.8928 19.9515,16.2746 0,21.2172 -28.6543,25.9094 -36.6219,5.9969 l -3.2471,-8.1153 h -13.6681 -13.668 v 6.1637 c 0,13.8795 9.4337,27.1433 24.1518,33.9575 13.1284,6.0781 37.1932,5.4442 50.8042,-1.3383 z m 142.4106,-592.16719 v -21.0013 l -152.1291,-0.53896 c -120.3137,-0.42622 -152.4795,0.0126 -153.8046,2.10013 -1.9643,3.09393 -2.3282,33.3143 -0.4598,38.18322 1.1558,3.0119 16.084,3.2833 153.8367,2.7969 l 152.5568,-0.5387 z m -90.6634,-45.21305 c 19.4258,-1.84209 24.9099,-3.24689 37.5763,-9.62551 26.6789,-13.43508 37.3322,-21.80924 50.3964,-39.61482 17.4902,-23.83767 24.0798,-45.35044 27.9993,-91.40814 3.0811,-36.20504 3.5122,-63.85939 1.1623,-74.55462 -1.9931,-9.07143 -3.5353,-3.85273 -7.5535,25.5601 -1.8666,13.66368 -3.8354,26.9781 -4.375,29.58764 -1.2147,5.87419 -16.5786,17.30675 -23.2582,17.30675 -5.9593,0 -6.0466,-0.80674 -0.9964,-9.20271 2.1663,-3.60153 7.4665,-17.25275 11.7782,-30.33604 7.1174,-21.59681 7.7023,-25.07856 6.3498,-37.80234 -1.6878,-15.87795 -10.5258,-46.1318 -14.7672,-50.55022 -2.3842,-2.48363 -4.102,-0.87317 -11.2005,10.50065 -12.6245,20.22789 -21.9006,32.74483 -26.3083,35.49993 -3.6282,2.26778 -3.823,1.97713 -2.3433,-3.49573 2.8043,-10.37229 3.5194,-44.18333 1.3852,-65.4859 -1.858,-18.54451 -3.1348,-22.69419 -13.2255,-42.98357 -10.3716,-20.85404 -16.3616,-27.62385 -16.6188,-18.78224 -1.1328,38.93584 -8.871,75.45404 -17.2292,81.30828 -7.768,5.4408 -9.4334,4.10147 -8.3974,-6.75366 1.7157,-17.97863 -2.908,-33.06101 -24.7278,-80.66084 -17.0241,-37.13811 -22.1317,-50.61895 -26.3669,-69.59272 -8.4274,-37.75459 -8.5644,-37.86487 -17.7412,-14.27877 -8.5554,21.98868 -10.4313,32.83636 -10.4937,60.67925 -0.094,41.92001 -9.9492,99.12778 -17.0769,99.12778 -2.5968,0 -10.065,-16.56545 -10.124,-22.45625 -0.025,-2.53282 -2.5227,-11.28643 -5.5496,-19.45243 -5.9681,-16.10084 -11.534,-22.15178 -28.0962,-30.54436 -12.2746,-6.21991 -15.0287,-4.40191 -12.1721,8.03472 2.3014,10.01918 1.5548,21.85102 -3.5346,56.0178 -2.1275,14.28316 -3.0999,29.08567 -2.3797,36.22725 0.7461,7.39819 0.4115,12.07575 -0.8639,12.07575 -1.145,0 -6.2104,-6.44106 -11.2566,-14.31346 -8.9695,-13.99315 -27.0492,-31.84885 -32.2758,-31.87584 -2.9298,-0.0147 -3.1194,6.82034 -0.723,26.06849 0.9292,7.46351 0.5595,18.19207 -0.9252,26.84725 -3.9517,23.03782 3.8088,63.65839 15.0382,78.71374 6.3479,8.51065 6.2742,9.06567 -1.205,9.06567 -7.7157,0 -24.7218,-13.79449 -45.0035,-36.50459 -7.9432,-8.89422 -15.5038,-15.79707 -16.8013,-15.33966 -3.6612,1.29065 -2.2938,8.67534 13.6832,73.89562 14.2744,58.27038 15.3399,61.53942 24.6405,75.60468 19.4667,29.43921 57.8815,47.50551 111.5788,52.47501 36.1974,3.34994 82.9315,3.77475 112.0021,1.01806 z m -72.0991,-9.54732 c -30.8658,-5.78414 -38.2211,-9.3665 -57.3848,-27.94883 -14.463,-14.02422 -20.3211,-22.31232 -20.3211,-28.75055 0,-2.94232 0.5308,-3.07112 3.2739,-0.79454 2.8557,2.36991 33.1623,8.12547 43.4547,8.25248 5.8154,0.0718 4.3347,-5.56034 -4.567,-17.37082 -15.2209,-20.19467 -26.9746,-49.57383 -21.8736,-54.67471 0.7626,-0.7626 6.2749,3.23662 12.2495,8.8871 10.8846,10.294 29.3663,21.20119 35.9244,21.20119 2.9199,0 3.2796,-1.47204 2.1809,-8.92555 -4.3452,-29.47677 -4.0917,-40.07334 1.3183,-55.12841 8.2403,-22.93114 16.9419,-46.11632 17.6639,-47.06505 1.681,-2.20888 9.4742,7.84404 16.6749,21.5102 7.0201,13.32331 8.0347,17.15798 8.8237,33.35156 0.4903,10.06355 -0.2367,26.01307 -1.6156,35.44337 -1.6537,11.30956 -1.7998,17.85339 -0.429,19.22413 2.2976,2.29756 29.5163,-11.65852 42.6351,-21.8607 4.209,-3.27324 8.3143,-5.95137 9.1228,-5.95137 2.7556,0 -1.382,22.02079 -6.1164,32.55202 -2.5963,5.77536 -9.7668,16.01263 -15.9344,22.74949 -8.89,9.71056 -10.5934,12.64148 -8.2197,14.14371 5.317,3.36495 24.2942,2.13211 34.4965,-2.24105 5.3895,-2.31015 10.7559,-4.20026 11.9255,-4.20026 4.3757,0 -11.7482,24.56448 -23.168,35.29596 -11.9649,11.24378 -42.3477,27.94194 -49.9716,27.46405 -2.14,-0.13413 -15.7042,-2.45768 -30.1429,-5.16342 z"
           id="path10075" />
        <path
           style="fill:#ee5147;stroke-width:2.10015"
           d="M 988.48337,1397.1986 C 783.45966,1192.1657 615.47671,1024.4178 615.18794,1024.4255 c -0.96769,0.026 -0.53778,-2.0798 0.53312,-2.6111 3.57515,-1.7739 747.52644,-746.36886 747.00004,-747.64637 -0.3569,-0.86631 -0.3506,-1.5751 0.014,-1.5751 1.4564,0 748.3465,747.82217 749.0792,750.01407 1.0322,3.0877 -743.2799,747.3787 -747.4,747.3787 -1.7383,0 -170.9072,-167.7542 -375.93093,-372.7871 z m 712.48513,-38.3109 c 183.3716,-183.3662 333.4029,-334.3382 333.4029,-335.4933 0,-3.4295 -666.5114,-668.89639 -669.9462,-668.89639 -4.119,0 -667.85604,663.71759 -667.85604,667.83639 0,3.4349 665.46674,669.9465 668.89624,669.9465 1.155,0 152.1314,-150.0269 335.5031,-333.3932 z m -652.6198,-17.3416 C 874.50644,1167.7064 732.27189,1024.5312 732.27189,1023.379 c 0,-1.1522 142.23337,-144.32387 316.07411,-318.15926 l 316.0742,-316.06435 316.0742,316.06435 c 173.8408,173.83539 316.0741,317.01176 316.0741,318.16966 0,1.158 -142.2322,144.3332 -316.0715,318.1672 l -316.0716,316.0617 z m 324.1357,241.404 c 11.4389,-2.4532 25.6911,-13.1197 30.8438,-23.0839 3.9171,-7.5747 4.0088,-27.7373 0.1601,-35.1799 -1.6144,-3.1219 -4.8429,-7.4024 -7.1745,-9.5125 l -4.2393,-3.8364 5.0743,-7.4774 c 5.9833,-8.8166 6.8738,-24.6215 1.9263,-34.1886 -3.7641,-7.279 -14.1111,-15.3239 -23.9423,-18.6154 -10.8664,-3.6382 -31.4974,-2.8734 -41.1829,1.5265 -15.3108,6.9555 -26.3024,24.2241 -23.7744,37.3512 0.635,3.297 2.7814,3.8849 14.1831,3.8849 h 13.4349 l 2.4657,-7.3505 c 1.3561,-4.0427 4.8137,-8.677 7.6835,-10.2985 10.879,-6.1467 24.5238,3.662 21.554,15.4945 -1.5193,6.0531 -5.7425,8.4931 -18.2024,10.5165 -7.8418,1.2734 -7.8756,1.3227 -7.8756,11.4597 0,10.8312 1.7694,12.7303 11.8607,12.7303 5.7007,0 13.5004,3.4949 15.9343,7.1398 3.0693,4.5967 1.6077,15.9612 -2.5931,20.1619 -4.205,4.205 -14.9395,5.5888 -22.0845,2.847 -1.9396,-0.7443 -5.2911,-5.4696 -7.4477,-10.5006 l -3.9212,-9.1474 h -12.4184 c -15.418,0 -18.0165,2.4627 -15.3097,14.5096 5.8575,26.0696 31.8547,38.6872 65.0453,31.5692 z m 152.5981,-597.36299 v -23.10143 h -153.3117 -153.3117 l -0.6057,20.85181 c -0.3331,11.4685 -0.1241,22.10661 0.4644,23.64021 0.8785,2.2893 28.4287,2.6919 153.9174,2.2496 l 152.8473,-0.5388 z m -92.4071,-43.95289 c 26.0073,-2.64308 28.0989,-3.21427 44.1034,-12.04427 25.3632,-13.9934 35.3743,-22.26415 47.8828,-39.55876 17.1864,-23.76262 23.6199,-46.60641 27.24,-96.72402 2.8395,-39.31029 2.0975,-78.63685 -1.4837,-78.63685 -2.7284,0 -4.4142,8.10155 -8.6109,41.38241 l -3.6293,28.78166 -7.6253,5.04604 c -14.6448,9.69139 -21.7603,8.93203 -13.8776,-1.48097 1.6553,-2.18663 6.8514,-15.50364 11.5469,-29.59337 l 8.5373,-25.6177 -3.0352,-18.70962 c -1.6693,-10.29028 -5.337,-24.8525 -8.1503,-32.36047 -6.7101,-17.90692 -10.3447,-18.00996 -20.4234,-0.57894 -8.1138,14.03261 -21.0481,32.08281 -22.9862,32.07787 -0.6516,-0.002 -1.1848,-18.84096 -1.1848,-41.86513 v -41.86212 l -12.561,-25.39958 c -16.3466,-33.05429 -18.3758,-32.95598 -20.5644,0.99626 -1.7889,27.75391 -9.5511,58.43076 -15.3475,60.65501 -6.5035,2.49561 -7.5663,1.36926 -6.2271,-6.59976 2.436,-14.49582 -4.1123,-35.47049 -25.7454,-82.46376 -17.8563,-38.78902 -21.6334,-48.97268 -26.6787,-71.92945 -7.458,-33.93486 -10.1583,-35.08496 -19.6443,-8.36688 -9.3761,26.40863 -10.6833,34.15681 -10.7407,63.66246 -0.081,41.57063 -8.3033,92.2722 -14.9639,92.2722 -2.8264,0 -5.871,-7.19935 -9.3034,-21.99955 -6.7131,-28.9458 -13.4002,-38.5955 -34.0443,-49.12721 -14.2699,-7.27983 -16.0896,-6.43344 -14.0777,6.54776 2.4507,15.81304 2.2542,20.69393 -1.9678,48.87257 -2.0804,13.88537 -3.4603,32.07987 -3.0664,40.43223 0.394,8.35239 -0.013,15.184 -0.9012,15.1814 -0.8897,-0.002 -5.7451,-6.38387 -10.7899,-14.1806 -10.1922,-15.75209 -29.0295,-33.09665 -33.9108,-31.22356 -2.3138,0.88789 -2.7801,3.20547 -1.8348,9.11906 1.3306,8.32388 1.5758,25.43245 0.866,60.43187 -0.4988,24.59591 5.115,49.58848 14.0272,62.44861 3.0424,4.39001 5.1549,8.35379 4.6945,8.80841 -0.4603,0.45461 -3.6722,0.33087 -7.1375,-0.27497 -4.5653,-0.79818 -13.3481,-8.26605 -31.8907,-27.11625 -14.0746,-14.30808 -26.5968,-26.01469 -27.8271,-26.01469 -4.338,0 -2.0832,12.74957 13.2696,75.03143 14.2859,57.9533 16.2158,64.02828 24.5153,77.16943 12.1944,19.30822 36.8127,35.8694 67.3091,45.28011 34.2735,10.57625 104.0653,14.83406 156.2392,9.53169 z m -72.4555,-12.50875 c -13.2835,-2.55849 -28.3625,-6.84922 -33.5089,-9.53501 -10.8273,-5.65049 -32.7757,-25.89165 -37.0632,-34.18027 -3.8749,-7.49094 -3.7224,-10.83203 0.4217,-9.24177 1.8455,0.70814 10.1148,2.24682 18.3765,3.41928 8.2616,1.17246 17.656,2.56787 20.8765,3.10091 9.3221,1.54296 9.27,-3.97379 -0.1555,-16.45757 -12.1584,-16.10348 -23.5513,-39.75359 -23.5513,-48.8893 v -7.69026 l 10.3549,9.68559 c 5.6951,5.32708 16.6057,12.76803 24.2457,16.53542 11.8282,5.83269 14.1855,6.3862 15.8751,3.7276 1.0913,-1.71721 1.4514,-4.53981 0.8003,-6.27242 -0.6512,-1.7326 -1.7073,-13.07331 -2.347,-25.20156 l -1.1631,-22.05136 9.5548,-25.20157 c 5.2551,-13.86085 10.1601,-27.0855 10.9,-29.3881 1.2883,-4.00938 1.5187,-3.96494 5.4429,1.05006 2.2538,2.88014 7.6293,12.28129 11.9456,20.89144 7.742,15.44358 7.8435,15.9679 7.5194,38.85241 -0.1809,12.75867 -1.2838,27.92041 -2.4512,33.69279 -3.3934,16.77928 -0.911,17.51565 20.3803,6.04566 9.9562,-5.36356 20.5166,-11.98823 23.4675,-14.72151 7.746,-7.17465 9.0224,-6.24944 7.6274,5.52901 -1.7928,15.13675 -8.1051,27.81837 -20.2259,40.6341 -14.134,14.94444 -13.8652,17.2339 2.2214,18.91526 10.3212,1.07875 14.6987,0.51957 22.3186,-2.85103 5.2135,-2.30615 10.3939,-4.19299 11.5119,-4.19299 3.6316,0 -9.1111,19.66068 -20.1553,31.0975 -12.2893,12.72623 -40.9662,27.82524 -52.2824,27.5278 -3.7317,-0.0981 -17.6532,-2.27163 -30.9367,-4.83011 z"
           id="path10073" />
        <path
           style="fill:#ee4035;stroke-width:2.10015"
           d="M 991.11445,1395.6353 618.86322,1023.385 992.16896,650.08909 1365.4747,276.79318 1737.7259,649.04346 c 204.7382,204.73765 372.2513,373.19534 372.2513,374.35044 0,2.746 -741.7652,744.4917 -744.5113,744.4917 -1.1551,0 -169.6133,-167.5126 -374.35145,-372.2503 z m 710.90415,-35.6975 c 183.9491,-183.9438 334.453,-335.3883 334.453,-336.5434 0,-3.4295 -668.6116,-670.99653 -672.0465,-670.99653 -4.9758,0 -669.9561,666.01453 -669.9561,670.99813 0,4.9717 665.0002,670.985 669.9644,670.985 1.7227,0 153.636,-150.4994 337.5852,-334.4432 z M 1049.3953,1338.4081 733.32546,1022.3376 1048.872,706.79572 1364.4185,391.25378 1679.4434,706.26892 c 173.2637,173.25834 315.025,315.96258 315.025,317.12048 0,1.158 -141.5258,143.6268 -314.5017,316.5973 l -314.5016,314.4919 z m 335.2313,241.4448 c 15.0774,-7.3229 22.4211,-18.4195 23.5103,-35.5251 0.8866,-13.924 -1.802,-21.9856 -9.7231,-29.154 l -4.2392,-3.8364 5.0743,-7.4774 c 6.8961,-10.1619 7.0299,-26.4697 0.299,-36.4575 -9.9589,-14.7778 -27.4857,-21.9955 -49.2202,-20.2695 -23.6097,1.8749 -39.8106,15.9369 -42.1367,36.5737 -1.3159,11.6746 0.5957,13.1865 16.7272,13.2299 12.5971,0.034 13.8672,-0.8012 17.4503,-11.4735 4.2195,-12.5677 24.4028,-11.7279 25.746,1.0713 0.83,7.9089 -2.1636,10.692 -14.4701,13.4525 l -11.2759,2.5293 -0.6587,10.2825 c -0.7564,11.8081 2.4965,15.672 13.1938,15.672 9.7716,0 15.8171,5.2057 15.8171,13.62 0,18.3619 -25.4,21.0579 -30.0014,3.1844 -2.4238,-9.4147 -4.2398,-10.4329 -18.6773,-10.4718 -18.3079,-0.049 -20.376,3.5109 -14.0979,24.2707 2.0439,6.7587 12.1294,17.5521 20.3461,21.7742 14.7778,7.5935 39.5538,7.1558 56.3364,-0.9953 z m 140.2841,-569.2889 c 4.9358,-1.894 4.9358,-48.05976 0,-49.95376 -1.8271,-0.70113 -71.1009,-1.27476 -153.9417,-1.27476 -114.3485,0 -151.2267,0.6069 -153.14,2.52016 -3.445,3.44492 -3.445,44.01806 0,47.46296 1.9133,1.9132 38.7915,2.5201 153.14,2.5201 82.8408,0 152.1146,-0.5736 153.9417,-1.2747 z m -96.4356,-66.71059 c 27.175,-2.5331 30.5928,-3.34389 45.1183,-10.70344 52.9883,-26.84727 74.1641,-61.5184 79.6096,-130.34464 3.3699,-42.59335 3.1006,-88.03275 -0.5398,-91.05396 -5.0543,-4.19463 -6.8503,1.56745 -11.7059,37.55507 -2.5703,19.04989 -5.3658,35.11588 -6.2122,35.70222 -8.9895,6.22686 -17.4446,10.78524 -18.3415,9.88838 -0.6091,-0.60908 0.2711,-3.31579 1.9561,-6.01492 1.6849,-2.69913 6.9249,-16.24844 11.6443,-30.10961 l 8.5808,-25.20209 -2.9478,-18.20926 c -3.3145,-20.47497 -12.8058,-49.24956 -16.7433,-50.7605 -3.9436,-1.51327 -5.9719,0.59828 -14.8099,15.41751 -4.4777,7.50797 -11.0355,17.48466 -14.5729,22.17043 l -6.4316,8.51957 -0.1442,-41.07159 -0.1441,-41.07159 -12.998,-25.7266 c -9.9241,-19.64237 -13.9651,-25.72659 -17.0871,-25.72659 -4.7925,0 -5.575,3.6374 -7.454,34.65215 -1.2232,20.18932 -6.9884,44.93524 -11.8272,50.7655 -3.9794,4.79484 -6.5925,3.12671 -5.2915,-3.37796 2.6477,-13.23863 -3.9952,-34.51803 -25.3721,-81.27495 -17.9285,-39.21424 -21.9345,-50.0134 -26.8062,-72.2625 -8.3923,-38.32757 -12.0998,-40.00636 -23.1666,-10.48998 -8.811,23.49987 -11.3147,38.3119 -11.3961,67.42035 -0.085,30.41646 -4.7256,69.60145 -9.6121,81.16449 l -3.3629,7.95752 -2.7559,-5.25033 c -1.5158,-2.88768 -3.4335,-9.33785 -4.2615,-14.33372 -1.997,-12.04914 -10.9196,-33.88913 -16.1576,-39.54938 -5.0068,-5.4104 -27.1351,-17.52132 -32.0138,-17.52132 -5.1095,0 -5.9409,4.4226 -3.4322,18.25712 1.8481,10.19132 1.4988,17.31213 -1.9431,39.61152 -2.3078,14.95266 -4.226,33.80204 -4.2624,41.88754 l -0.066,14.70091 -8.242,-12.86561 c -8.5704,-13.37816 -28.5995,-32.28719 -34.1998,-32.28719 -4.8564,0 -5.3357,3.58516 -3.0883,23.10143 1.4505,12.59646 1.339,22.55672 -0.3789,33.83705 -3.7138,24.38581 3.7653,64.15872 15.1069,80.33651 l 4.2181,6.01683 -5.0403,-1.57451 c -7.3788,-2.305 -22.6329,-15.64618 -40.9184,-35.78702 -17.3273,-19.08543 -23.9765,-22.27379 -23.9765,-11.49703 0,3.42527 7.0662,35.12173 15.7026,70.43655 14.8306,60.64261 16.222,65.01159 25.0533,78.66319 7.3036,11.28995 12.7166,16.71817 24.7255,24.79477 20.6711,13.90244 22.0354,14.55172 45.4245,21.61792 19.5864,5.91733 25.4335,6.64826 88.6094,11.07676 20.7253,1.4528 33.8001,1.1394 61.9547,-1.485 z m -70.3554,-16.84855 c -26.7102,-5.12125 -36.0367,-9.71258 -53.1938,-26.18673 -8.4108,-8.07605 -16.1115,-18.51399 -16.1115,-21.83856 0,-0.41776 6.8518,0.44285 15.2262,1.91246 8.3744,1.46963 19.7153,2.70957 25.2019,2.75541 12.6498,0.10564 12.9571,-2.93671 1.7907,-17.72633 -10.6261,-14.07401 -23.3173,-39.36096 -23.3173,-46.45934 0,-5.54881 0.037,-5.53623 9.5985,3.2773 5.2792,4.86613 15.7523,11.72715 23.2735,15.24669 17.1484,8.0246 20.2124,6.28624 17.4641,-9.90841 -0.9801,-5.77536 -1.8384,-17.84019 -1.9072,-26.81072 -0.1109,-14.43258 1.0085,-19.35827 9.7238,-42.7899 l 9.8491,-26.47981 4.1074,4.98756 c 7.0546,8.56615 16.1716,30.19355 17.5171,41.5541 0.7088,5.98478 0.061,22.22103 -1.4404,36.08055 -1.9507,18.01054 -2.0836,25.84474 -0.4659,27.46241 2.625,2.62493 35.3699,-14.11607 45.399,-23.21051 l 6.0593,-5.49459 -1.218,10.88205 c -1.6028,14.32062 -7.5313,25.48409 -21.7425,40.94219 -9.8082,10.66864 -11.2062,13.13167 -8.8089,15.51969 4.2575,4.241 28.4418,4.30864 38.0272,0.10647 4.3316,-1.899 7.8756,-2.89952 7.8756,-2.22341 0,0.67612 -2.444,5.39965 -5.4311,10.49671 -11.965,20.41637 -46.4971,43.16691 -64.865,42.73462 -4.653,-0.10958 -19.3283,-2.28301 -32.6118,-4.8299 z"
           id="path10071" />
      </g>
    </g>
  </g>
</svg>
