<?xml version="1.0" encoding="UTF-8" standalone="no"?>
<!-- Created with Inkscape (http://www.inkscape.org/) -->

<svg
   width="24mm"
   height="24mm"
   viewBox="0 0 24 24"
   version="1.1"
   id="svg5"
   inkscape:version="1.1.1 (3bf5ae0d25, 2021-09-20)"
   sodipodi:docname="trans.e.1.5.svg"
   xmlns:inkscape="http://www.inkscape.org/namespaces/inkscape"
   xmlns:sodipodi="http://sodipodi.sourceforge.net/DTD/sodipodi-0.dtd"
   xmlns="http://www.w3.org/2000/svg"
   xmlns:svg="http://www.w3.org/2000/svg">
  <sodipodi:namedview
     id="namedview7"
     pagecolor="#ffffff"
     bordercolor="#666666"
     borderopacity="1.0"
     inkscape:pageshadow="2"
     inkscape:pageopacity="0.0"
     inkscape:pagecheckerboard="0"
     inkscape:document-units="mm"
     showgrid="false"
     inkscape:zoom="0.92648709"
     inkscape:cx="-220.18655"
     inkscape:cy="257.42399"
     inkscape:window-width="1366"
     inkscape:window-height="705"
     inkscape:window-x="-8"
     inkscape:window-y="-8"
     inkscape:window-maximized="1"
     inkscape:current-layer="g11021" />
  <defs
     id="defs2" />
  <g
     inkscape:label="Capa 1"
     inkscape:groupmode="layer"
     id="layer1"
     transform="translate(15.946791,28.864379)">
    <g
       id="g4409"
       transform="matrix(0.12812239,0,0,0.12708914,-207.56124,-4.2074214)" />
    <g
       id="g9127"
       transform="matrix(0.12598244,0,0,0.12598425,-174.2406,-23.711568)">
      <g
         id="g11021"
         transform="matrix(0.12640441,0,0,0.12664147,-448.45015,72.847799)">
        <g
           id="g13102"
           transform="matrix(0.12593573,0,0,0.12593522,12501.781,-852.23386)">
          <path
             style="fill:#face9e;stroke-width:16.5989"
             d="M 10797.99,8570.3623 C 9159.9681,6935.4302 7819.7684,5586.591 7819.7684,5572.942 c 0,-13.649 1341.2889,-1363.5136 2980.6416,-2999.6991 l 2980.642,-2974.88291 47.372,34.40406 c 26.054,18.92222 1377.37,1362.47374 3002.923,2985.67005 l 2955.552,2951.266 -34.464,47.2476 c -65.498,89.7918 -5926.784,5926.0183 -5951.464,5926.0183 -13.618,0 -1364.959,-1337.672 -3002.981,-2972.6037 z"
             id="path13116" />
          <path
             style="fill:#f7ad5b;stroke-width:16.5989"
             d="M 10806.228,8562.1053 7819.7684,5581.2444 10810.399,2596.2895 13801.03,-388.66539 16787.587,2592.2238 19774.144,5573.113 16783.439,8558.0396 c -1644.887,1641.7094 -2990.715,2984.9264 -2990.727,2984.9264 -0.01,0 -1343.931,-1341.387 -2986.484,-2980.8607 z"
             id="path13114" />
          <path
             style="fill:#f59227;stroke-width:16.5989"
             d="M 10822.843,8545.5218 7852.9976,5581.2443 10827.014,2612.8728 13801.03,-355.4986 16766.738,2604.5811 c 1631.14,1628.0438 2965.709,2967.5578 2965.709,2976.6978 0,16.2951 -5915.149,5928.5211 -5931.452,5928.5211 -4.569,0 -1344.738,-1333.925 -2978.152,-2964.2782 z"
             id="path13112" />
          <path
             style="fill:#ca781f;stroke-width:16.5989"
             d="M 11130.211,8238.7294 C 9665.851,6777.1103 8467.7384,5573.7548 8467.7384,5564.6056 c 0,-21.6496 5320.0486,-5331.43274 5341.7406,-5331.43274 27.063,0 5341.456,5312.79764 5341.456,5339.85324 0,32.5234 -5300.744,5323.1919 -5333.33,5323.1919 -13.707,0 -1223.034,-1195.8696 -2687.394,-2657.4886 z m 7721.661,-2674.0338 c 0,-9.1433 -1132.704,-1147.1737 -2517.121,-2528.9561 L 13817.63,523.40749 11288.076,3048.1905 8758.5214,5572.9737 11283.909,8093.6382 13809.296,10614.303 16330.584,8097.8114 C 17717.293,6713.741 18851.872,5573.839 18851.872,5564.6956 Z m -5138.069,4557.2604 c -26.523,-6.917 -29.076,-38.053 -29.076,-354.6161 V 9420.307 h -92.472 c -131.122,0 -156.747,-17.7841 -156.747,-108.7851 0,-64.6604 5.605,-76.5788 42.618,-90.6246 23.44,-8.8951 62.898,-16.1729 87.684,-16.1729 61.115,0 117.626,-42.6142 145.817,-109.9585 22.503,-53.7554 26.825,-55.8742 113.963,-55.8742 72.542,0 93.997,6.3855 107.772,32.0763 10.741,20.0313 17.199,215.7441 17.199,521.1886 0,557.5174 3.592,542.6124 -129.95,539.3074 -42.753,-1.058 -90.817,-5.336 -106.808,-9.508 z m 187.321,-1600.3701 c -19.711,-21.0288 -51.603,-63.6143 -70.872,-94.6346 l -35.035,-56.4006 -77.275,87.9434 c -86.65,98.611 -121.566,103.052 -204.809,26.0499 -57.067,-52.7881 -55.954,-88.0817 5.448,-172.6846 27.414,-37.7728 49.844,-74.8946 49.844,-82.493 0,-7.5985 -34.791,-24.5995 -77.313,-37.7801 -107.421,-33.2965 -118.894,-57.9044 -81.88,-175.6203 16.68,-53.0449 38.056,-101.3354 47.504,-107.3122 9.447,-5.9768 51.526,-0.461 93.509,12.258 117.101,35.4759 117.868,34.9891 117.868,-74.8314 0,-117.127 25.206,-150.534 113.335,-150.2076 128.779,0.4776 135.884,7.4525 135.884,133.3952 0,62.2437 6.273,117.0399 13.94,121.7695 7.667,4.7295 51.635,-3.4323 97.707,-18.1376 46.071,-14.7053 94.71,-22.5452 108.086,-17.4219 13.377,5.1232 34.018,43.8853 45.87,86.1381 28.266,100.7628 7.263,148.2204 -77.578,175.2969 -34.879,11.131 -69.845,26.1274 -77.704,33.3254 -7.858,7.198 8.964,46.8189 37.383,88.0467 28.419,41.2279 51.671,85.2783 51.671,97.8899 0,25.2978 -66.927,92.2929 -135.563,135.7015 -42.512,26.8864 -45.538,26.4972 -80.02,-10.2906 z m 975.779,-2849.397 c -232.522,-28.0711 -466.82,-142.2183 -577.049,-281.1306 -92.41,-116.4584 -171.673,-333.1268 -153.505,-419.6194 5.659,-26.9421 28.854,-29.0412 274.871,-24.8749 267.557,4.5312 268.762,4.7218 285.306,45.119 77.269,188.6707 157.781,249.6388 329.66,249.6388 176.447,0 296.837,-90.5462 341.763,-257.0408 54.448,-201.7856 -28.816,-438.443 -175.829,-499.753 -29.831,-12.4411 -104.946,-22.4563 -166.922,-22.2559 -131.724,0.4261 -236.484,40.5968 -280.424,107.531 l -29.109,44.3412 -237.215,-5.6393 c -144.685,-3.4395 -244.423,-12.8432 -255.693,-24.1077 -13.562,-13.5552 6.124,-189.811 74.002,-662.5433 50.864,-354.2413 98.522,-650.1058 105.907,-657.4768 7.385,-7.3709 341.943,-11.4565 743.462,-9.0792 l 730.036,4.3225 4.645,200.7072 c 3.559,153.756 -0.658,205.0998 -18.023,219.4848 -15.534,12.8681 -184.314,20.1589 -536.313,23.167 l -513.645,4.3894 -26.425,132.6662 c -14.534,72.9664 -31.405,164.1376 -37.492,202.6027 l -11.067,69.9363 75.885,-32.4669 c 251.377,-107.5495 601.824,-69.7445 844.628,91.1156 216.098,143.1672 315.885,352.1137 312.813,655.004 -4.039,398.0703 -268.514,737.5088 -638.987,820.1025 -141.868,31.6283 -330.606,42.1182 -465.28,25.8596 z m -2384.116,-46.4409 c -15.852,-10.0485 -21.605,-202.3573 -24.922,-833.0555 l -4.312,-819.9912 -274.141,-8.2917 -274.141,-8.2916 V 3773.7851 3591.452 l 178.246,-19.5671 c 282.286,-30.988 394.618,-108.9866 454.866,-315.8406 l 25.798,-88.5763 218.827,4.6182 218.827,4.6179 4.263,1208.7486 c 3.101,879.1593 -0.852,1214.8998 -14.495,1231.3081 -14.218,17.0995 -75.568,22.4981 -253.482,22.3057 -129.098,-0.1327 -243.998,-6.133 -255.334,-13.3185 z m 880.416,2.5896 c -15.423,-6.2116 -20.768,-77.9744 -20.768,-278.8322 0,-231.3335 3.803,-271.9244 26.281,-280.5337 14.454,-5.5364 137.555,-10.0659 273.556,-10.0659 227.47,0 248.654,2.5692 264.475,32.0763 9.46,17.642 17.2,133.8009 17.2,258.131 0,124.3301 -7.74,240.489 -17.2,258.1309 -15.897,29.6491 -36.328,31.9774 -269.987,30.7671 -139.034,-0.7197 -262.134,-5.0731 -273.557,-9.6735 z"
             id="path13110" />
          <path
             style="fill:#9d5d18;stroke-width:16.5989"
             d="M 11138.518,8230.4376 C 9678.7273,6773.3791 8484.353,5573.8418 8484.353,5564.7995 c 0,-19.865 5261.851,-5276.56445 5306.461,-5301.26587 27.474,-15.21328 357.453,308.15086 2687.413,2633.54707 1460.852,1457.9894 2656.094,2658.393 2656.094,2667.5635 0,21.7427 -5303.239,5314.9908 -5325.023,5314.9908 -9.138,0 -1210.989,-1192.1388 -2670.78,-2649.1974 z m 5208.572,-115.9889 c 1386.768,-1384.0406 2521.397,-2527.6553 2521.397,-2541.3664 0,-27.0881 -5031.907,-5057.99378 -5059.001,-5057.99378 -21.689,0 -5059.2992,5027.86458 -5059.2992,5049.51228 0,16.2383 5051.0662,5066.2852 5067.3082,5066.2852 4.509,0 1142.827,-1132.3968 2529.595,-2516.4373 z m -2645.164,1970.2793 c -10.174,-18.976 -17.199,-164.5918 -17.199,-356.5402 v -324.4641 h -90.021 c -126.967,0 -142.583,-9.0533 -142.583,-82.66 0,-75.0157 18.891,-92.4026 113.438,-104.4026 77.803,-9.875 125.689,-43.8538 162.831,-115.543 20.888,-40.3176 33.083,-45.6431 104.516,-45.6431 58.415,0 83.669,7.2833 90.954,26.2312 5.546,14.4271 10.085,244.2713 10.085,510.7649 0,354.7484 -5.341,489.8639 -19.938,504.4339 -10.966,10.945 -59.3,19.9 -107.411,19.9 -69.477,0 -91.011,-6.599 -104.672,-32.077 z m -146.033,-1597.2302 c -78.402,-54.5775 -82.49,-87.4915 -21.579,-173.7438 28.871,-40.8821 50.226,-85.8367 47.455,-99.8993 -2.814,-14.2872 -39.07,-35.4642 -82.172,-47.9966 -90.994,-26.458 -103.454,-49.7873 -78.796,-147.531 25.374,-100.5767 44.572,-112.6624 130.755,-82.3127 125.37,44.1495 133.171,39.4915 133.171,-79.5102 0,-59.1471 8.65,-113.1084 19.938,-124.3746 10.965,-10.9449 55.562,-19.8999 99.103,-19.8999 97.337,0 113.564,23.5391 113.564,164.7426 0,55.3244 4.95,100.5898 11.001,100.5898 6.05,0 51.698,-12.8048 101.441,-28.4551 87.247,-27.4504 91.251,-27.3486 113.398,2.881 34.485,47.0725 47.181,137.9062 23.291,166.6374 -11.257,13.5393 -50.266,33.5276 -86.685,44.4185 -36.42,10.891 -69.819,29.1711 -74.222,40.6224 -4.403,11.4514 15.525,54.9559 44.284,96.6766 63.123,91.5724 56.8,125.7814 -34.377,186.0058 -63.586,41.9995 -66.286,42.3514 -98.902,12.8904 -18.442,-16.6586 -48.853,-55.0323 -67.579,-85.275 -18.726,-30.2426 -43.766,-54.9867 -55.643,-54.9867 -11.877,0 -42.289,27.9843 -67.583,62.1873 -45.888,62.0535 -88.724,103.6455 -106.743,103.6455 -5.236,0 -33.64,-16.7906 -63.12,-37.3124 z m 1341.701,-2824.468 c -258.449,-44.5881 -395.558,-103.5365 -525.007,-225.7214 -103.955,-98.1219 -175.428,-224.4163 -204.614,-361.5603 -27.095,-127.313 -16.282,-132.9253 256.105,-132.9253 242.838,0 259.17,5.847 290.304,103.9268 46.571,146.7129 184.427,222.9276 372.695,206.048 199.488,-17.8856 316.279,-162.3655 316.571,-391.6222 0.192,-152.0261 -26.147,-233.6843 -102.637,-318.1901 -66.421,-73.3815 -135.868,-97.5937 -278.807,-97.204 -115.854,0.3151 -210.397,38.085 -279.665,111.724 l -47.06,50.0299 -210.467,-8.405 c -133.273,-5.3223 -218.479,-15.914 -232.313,-28.8786 -17.988,-16.8574 -5.747,-132.638 69.299,-655.4724 61.183,-426.2477 98.406,-639.5917 113.228,-648.9705 12.145,-7.6845 329.061,-14.0863 704.258,-14.226 523.354,-0.194 688.854,4.6191 710.856,20.6769 24.799,18.0993 28.038,46.702 23.944,211.4367 l -4.735,190.506 -526.468,4.3774 c -483.211,4.0176 -527.169,6.7427 -534.996,33.1665 -16.879,56.9811 -78.444,405.637 -72.648,411.4221 3.261,3.2551 52.851,-12.9983 110.199,-36.1187 153.41,-61.8478 350.735,-71.3205 532.101,-25.5434 166.207,41.9511 260.352,93.9801 385.988,213.3155 250.78,238.2038 279.784,682.6802 65.979,1011.1164 -115.768,177.8375 -274.337,292.163 -479.082,345.4095 -97.079,25.2466 -376.901,44.8157 -453.028,31.6822 z m -2397.617,-50.9231 c -6.326,-6.3144 -11.502,-374.4055 -11.502,-817.9806 0,-605.1666 -4.977,-811.4677 -19.937,-826.3998 -13.814,-13.787 -100.032,-19.8999 -280.671,-19.8999 -222.428,0 -262.215,-3.8538 -270.819,-26.2313 -18.616,-48.4218 -10.716,-265.1044 10.684,-293.0318 14.561,-19.0021 66.648,-32.0843 174.266,-43.7689 280.798,-30.4875 416.977,-127.9003 460.566,-329.4577 6.427,-29.7184 25.539,-61.4339 42.472,-70.4789 45.346,-24.2231 336.279,-20.8598 370.555,4.2838 26.22,19.2341 27.947,107.4403 23.944,1223.0165 l -4.314,1202.2874 -241.871,4.5708 c -133.029,2.514 -247.046,-0.5953 -253.373,-6.9096 z m 876.395,-10.8272 c -4.538,-11.8018 -6.172,-133.067 -3.632,-269.4782 l 4.617,-248.0206 256.269,-4.5934 c 193.885,-3.475 259.546,0.5622 269.733,16.5833 15.565,24.4813 18.959,461.5354 3.888,500.7352 -8.593,22.3507 -47.997,26.2313 -266.355,26.2313 -194.33,0 -258.265,-5.1862 -264.52,-21.4576 z"
             id="path13108" />
          <path
             style="fill:#53310c;stroke-width:16.5989"
             d="M 11146.825,8222.146 C 9691.6036,6769.6477 8500.9676,5573.842 8500.9676,5564.7998 c 0,-19.885 5245.2624,-5259.9968 5289.9134,-5284.71891 27.564,-15.26146 353.945,304.56558 2679.106,2625.30691 1456.246,1453.4771 2647.719,2650.1657 2647.719,2659.3078 0,21.7092 -5286.658,5298.3564 -5308.408,5298.3564 -9.138,0 -1207.251,-1188.4078 -2662.473,-2640.906 z m 5208.573,-99.406 c 1391.337,-1388.6009 2529.704,-2535.9471 2529.704,-2549.658 0,-27.0881 -5048.522,-5074.57675 -5075.616,-5074.57675 -21.69,0 -5075.9138,5044.44805 -5075.9138,5066.09575 0,16.2385 5067.6808,5082.868 5083.9228,5082.868 4.51,0 1146.566,-1136.1278 2537.903,-2524.729 z m -2645.84,1957.586 c -4.399,-11.86 -9.915,-170.8124 -12.26,-353.2284 l -4.263,-331.6655 -107.995,-8.2917 -107.995,-8.2916 v -66.1281 c 0,-65.9408 0.216,-66.1592 76.351,-77.0292 97.461,-13.915 141.433,-41.8159 174.061,-110.4441 24.714,-51.9832 30.248,-54.6427 103.837,-49.9035 l 77.731,5.006 v 505.7898 505.7903 l -95.735,4.979 c -67.111,3.491 -98.126,-1.468 -103.732,-16.583 z m -144.894,-1617.602 c -68.54,-42.4223 -69.39,-68.8861 -5.2,-161.9114 32.343,-46.8712 58.805,-93.4025 58.805,-103.403 0,-10.0004 -39.252,-30.8935 -87.227,-46.4287 -47.975,-15.5354 -93.92,-34.383 -102.101,-41.8836 -16.538,-15.1616 18.659,-159.9543 42.449,-174.6295 8.09,-4.9904 52.201,3.3561 98.026,18.5479 117.719,39.0263 129.475,30.0632 135.302,-103.1556 l 4.931,-112.7555 h 91.381 91.38 l 8.307,124.3746 c 9.228,138.1556 4.253,134.6005 136.974,97.8911 92.647,-25.6259 106.263,-16.8483 121.497,78.3236 l 10.952,68.4234 -80.714,29.5851 c -127.317,46.667 -130.419,54.0696 -63.95,152.5848 31.901,47.2808 58.002,93.0586 58.002,101.7285 0,24.393 -98.862,101.6317 -130.038,101.5959 -15.29,-0.017 -53.27,-37.3301 -84.399,-82.9164 -31.128,-45.5864 -62.208,-82.8843 -69.065,-82.8843 -6.856,0 -43.765,37.3123 -82.019,82.9163 -38.254,45.604 -78.203,82.7179 -88.774,82.4751 -10.572,-0.2421 -39.606,-13.058 -64.519,-28.4783 z m 1291.394,-2817.2572 c -353.118,-54.7583 -606.628,-266.5602 -673.03,-562.3 -9.832,-43.7897 -14.058,-89.5497 -9.391,-101.6892 6.503,-16.9134 61.997,-22.0121 237.458,-21.8176 125.935,0.1327 237.265,5.7365 247.399,12.4375 10.135,6.7009 28.827,41.6908 41.537,77.7551 31.866,90.417 125.221,183.8872 205.87,206.1255 292.822,80.7426 514.946,-98.4086 511.376,-412.4446 -2.927,-257.5187 -142.416,-413.6584 -370.151,-414.3355 -130.574,-0.388 -201.332,23.9415 -286.019,98.3457 l -74.26,65.2427 -210.902,-9.9461 c -115.995,-5.4705 -215.081,-16.6961 -220.189,-24.9456 -13.041,-21.0609 161.775,-1243.8945 181.478,-1269.4318 12.621,-16.3585 168.383,-19.9666 715.916,-16.5832 l 699.784,4.324 v 190.7077 190.7077 l -519.671,4.3828 -519.671,4.3826 -15.653,37.0755 c -20.2,47.8436 -86.604,428.8185 -76.501,438.9026 4.226,4.2176 58.551,-12.6436 120.723,-37.4692 299.035,-119.4072 675.285,-48.8298 904.95,169.7515 292.091,277.996 282.138,792.423 -21.753,1124.3012 -84.8,92.6093 -217.783,171.4316 -362.555,214.8956 -90.436,27.1508 -407.853,46.9603 -506.745,31.6251 z m -2351.223,-847.2922 c -0.151,-479.3172 -6.657,-819.0251 -15.969,-833.765 -12.543,-19.8539 -70.341,-26.5485 -286.348,-33.1665 l -270.633,-8.2916 -4.867,-139.416 c -2.678,-76.6787 1.768,-146.0397 9.879,-154.1354 8.111,-8.0958 83.648,-21.8345 167.859,-30.5304 266.129,-27.4815 388.164,-107.4154 458.035,-300.0173 l 38.297,-105.565 h 188.759 188.759 v 1202.2874 1202.2874 l -236.758,4.6012 -236.758,4.601 z m 880.829,550.9385 v -257.9046 l 253.373,4.5776 253.373,4.5779 v 248.7491 248.7491 l -253.373,4.5778 -253.373,4.5777 z"
             id="path13106" />
          <path
             style="fill:#070401;stroke-width:16.5989"
             d="M 11150.999,8209.676 8509.4182,5572.8833 11151.051,2936.1947 c 1452.897,-1450.1788 2649.126,-2636.68875 2658.286,-2636.68875 9.16,0 1205.412,1186.53335 2658.338,2636.74065 l 2641.685,2636.7407 -2641.685,2636.7406 c -1452.926,1450.2074 -2649.202,2636.7411 -2658.39,2636.7411 -9.188,0 -1205.417,-1186.5571 -2658.286,-2636.793 z m 5225.296,-91.21 2550.195,-2545.5863 -2550.249,-2545.479 C 14973.604,1627.3875 13818.515,481.92197 13809.377,481.92197 c -27.13,0 -5092.4194,5063.90193 -5092.4194,5091.02473 0,27.1846 5065.2414,5091.1063 5092.4334,5091.1063 9.189,0 1164.296,-1145.5143 2566.904,-2545.587 z m -2650.091,1945.358 c -4.416,-11.904 -9.947,-170.8937 -12.292,-353.3097 l -4.263,-331.6655 -113.143,-4.9261 -113.143,-4.9262 5.148,-52.7482 c 4.707,-48.2262 11.387,-53.8035 77.916,-65.0554 90.751,-15.3485 143.423,-49.0515 176.532,-112.9578 22.017,-42.4955 35.181,-49.5936 91.974,-49.5936 h 66.279 l -4.401,493.3524 -4.401,493.3521 -79.089,5.062 c -53.697,3.436 -81.666,-1.888 -87.117,-16.584 z m -146.662,-1622.6867 c -24.39,-19.1496 -44.155,-43.6038 -43.921,-54.3428 0.234,-10.739 26.252,-59.9853 57.817,-109.4361 65.532,-102.6633 60.845,-118.0419 -45.584,-149.5755 -98.939,-29.3141 -112.17,-43.2593 -95.638,-100.795 22.642,-78.8016 27.626,-80.7146 128.56,-49.3535 64.232,19.9573 102.226,24.3562 115.686,13.3938 11.023,-8.978 22.238,-66.0523 24.922,-126.832 l 4.88,-110.5083 h 74.766 74.765 l 4.898,121.0342 c 5.774,142.688 16.064,151.001 137.201,110.8418 94.129,-31.2056 109.593,-24.6841 125.111,52.7603 10.092,50.3651 8.286,52.1063 -86.915,83.7724 -57.51,19.1293 -99.319,43.1318 -102.358,58.763 -2.825,14.5336 23.067,68.8213 57.537,120.6394 61.132,91.8975 61.872,94.8127 30.058,118.52 -82.064,61.1551 -85.686,60.3336 -158.523,-35.9559 -38.034,-50.2803 -75.557,-91.4188 -83.384,-91.4188 -7.828,0 -45.127,39.178 -82.887,87.0622 -37.76,47.8842 -74.052,89.129 -80.649,91.6551 -6.598,2.526 -31.951,-11.075 -56.342,-30.2243 z M 14845.59,5621.5599 c -353.957,-51.9019 -619.68,-289.5536 -648.438,-579.9362 l -5.679,-57.3427 228.453,-4.6138 228.453,-4.6138 39.388,87.5302 c 67.363,149.6999 184.108,228.5747 338.057,228.3955 121.186,-0.1327 200.401,-29.0222 279.694,-101.9744 95.112,-87.5051 132.174,-185.4156 131.617,-347.7002 -0.367,-107.1289 -7.996,-141.153 -50.052,-223.2318 -71.977,-140.4754 -151.765,-191.8361 -314.176,-202.2393 -149.539,-9.5788 -241.657,19.0625 -330.603,102.7913 l -58.517,55.0845 -196.313,-8.0905 c -107.973,-4.4498 -201.894,-13.1608 -208.715,-19.358 -15.713,-14.2767 153.423,-1213.0218 175.129,-1241.2185 12.589,-16.3529 165.015,-19.9677 699.265,-16.5832 l 683.167,4.328 4.716,178.2702 4.715,178.2702 h -523.337 c -481.788,0 -524.496,2.3041 -537.915,29.0208 -28.649,57.038 -92.454,468.9488 -75.293,486.0771 10.958,10.937 53.468,-0.7595 126.17,-34.7179 352.307,-164.5528 866.383,-3.7538 1025.078,320.636 172.42,352.4446 49.032,826.1988 -271.126,1041.0059 -182.658,122.5529 -462.198,171.4936 -743.738,130.2106 z m -2324.14,-840.424 c -0.15,-479.0309 -6.658,-818.5701 -15.969,-833.3095 -12.543,-19.854 -70.342,-26.5485 -286.348,-33.1666 l -270.633,-8.2916 V 3773.702 3641.0358 l 99.688,-12.7764 c 353.998,-45.37 453.213,-113.5462 555.416,-381.6575 l 17.606,-46.1852 170.391,4.7271 170.391,4.7268 4.263,1189.85 4.264,1189.85 h -224.407 -224.408 z m 880.829,567.9772 v -240.4575 h 240.912 240.912 v 240.4575 240.4575 h -240.912 -240.912 z"
             id="path13104" />
        </g>
      </g>
    </g>
  </g>
</svg>
