<?xml version="1.0" encoding="UTF-8" standalone="no"?>
<!-- Created with Inkscape (http://www.inkscape.org/) -->

<svg
   width="24mm"
   height="24mm"
   viewBox="0 0 24 24"
   version="1.1"
   id="svg5"
   inkscape:version="1.1.1 (3bf5ae0d25, 2021-09-20)"
   sodipodi:docname="vert.svg"
   xmlns:inkscape="http://www.inkscape.org/namespaces/inkscape"
   xmlns:sodipodi="http://sodipodi.sourceforge.net/DTD/sodipodi-0.dtd"
   xmlns="http://www.w3.org/2000/svg"
   xmlns:svg="http://www.w3.org/2000/svg">
  <sodipodi:namedview
     id="namedview7"
     pagecolor="#ffffff"
     bordercolor="#666666"
     borderopacity="1.0"
     inkscape:pageshadow="2"
     inkscape:pageopacity="0.0"
     inkscape:pagecheckerboard="0"
     inkscape:document-units="mm"
     showgrid="false"
     inkscape:zoom="0.92648709"
     inkscape:cx="211.55179"
     inkscape:cy="257.42399"
     inkscape:window-width="1366"
     inkscape:window-height="705"
     inkscape:window-x="-8"
     inkscape:window-y="-8"
     inkscape:window-maximized="1"
     inkscape:current-layer="g11021" />
  <defs
     id="defs2" />
  <g
     inkscape:label="Capa 1"
     inkscape:groupmode="layer"
     id="layer1"
     transform="translate(15.946791,28.864379)">
    <g
       id="g4409"
       transform="matrix(0.12812239,0,0,0.12708914,-207.56124,-4.2074214)" />
    <g
       id="g9127"
       transform="matrix(0.12598244,0,0,0.12598425,-174.2406,-23.711568)">
      <g
         id="g11021"
         transform="matrix(0.12640441,0,0,0.12664147,-448.45015,72.847799)">
        <g
           id="g13580"
           transform="matrix(0.12651261,0,0,0.12651261,12988.076,-576.80518)">
          <path
             style="fill:#ade5c9;stroke-width:16.5989"
             d="M 6834.8631,6359.7783 C 5205.9536,4733.9412 3873.2095,3392.6264 3873.2095,3379.0786 c 0,-39.0049 5917.1606,-5936.8578 5956.2933,-5936.8578 45.9467,0 5939.7702,5882.7063 5939.7702,5928.5663 0,39.0589 -5908.9988,5945.0584 -5948.0773,5945.0584 -13.5735,0 -1357.4231,-1330.2302 -2986.3326,-2956.0672 z"
             id="path13594" />
          <path
             style="fill:#60ce97;stroke-width:16.5989"
             d="M 6843.1702,6351.4868 3865.0065,3378.9406 6843.1239,406.44067 9821.2412,-2566.0593 12799.405,406.48694 15777.569,3379.0331 12799.451,6351.5331 9821.3339,9324.033 Z"
             id="path13592" />
          <path
             style="fill:#00b058;stroke-width:16.5989"
             d="M 6863.84,6343.3112 C 5232.7003,4712.9778 3898.1314,3373.4638 3898.1314,3366.6134 c 0,-6.8504 4.2115,-11.0541 9.3589,-9.3415 5.1474,1.7126 1335.97,-1321.0109 2957.3838,-2939.38545 1621.4135,-1618.37445 2955.5171,-2942.49915 2964.6744,-2942.49915 21.7479,0 5906.4955,5873.6823 5906.4955,5895.3892 0,9.1208 -1326.654,1340.7193 -2948.12,2959.1076 -1621.466,1618.3883 -2944.6985,2948.0507 -2940.516,2954.8052 4.1824,6.7547 1.875,14.6625 -5.1276,17.5728 -7.0025,2.9106 -1347.3007,-1328.6174 -2978.4404,-2958.9509 z"
             id="path13590" />
          <path
             style="fill:#009148;stroke-width:16.5989"
             d="M 7167.0371,6127.6915 C 5711.8154,4675.1932 4521.1794,3479.323 4521.1794,3470.2022 c 0,-9.121 1186.9153,-1201.2424 2637.5896,-2649.15876 1747.3097,-1743.98817 2648.8053,-2632.57534 2670.8187,-2632.57534 46.0901,0 5291.7153,5235.8596 5291.7153,5281.8639 0,22.0414 -887.502,918.9806 -2637.693,2665.7419 -1450.732,1447.888 -2645.1235,2632.5235 -2654.2044,2632.5235 -9.0809,0 -1207.1467,-1188.4077 -2662.3685,-2640.9059 z M 12325.915,5961.8576 14822.24,3470.1999 12321.741,974.4583 9821.2412,-1521.2832 7320.7418,974.4583 4820.2424,3470.1999 7316.5674,5961.8576 c 1372.9789,1370.4117 2500.082,2491.6576 2504.6738,2491.6576 4.5918,0 1131.6948,-1121.2459 2504.6738,-2491.6576 z M 9468.1807,7911.4191 c -43.7352,-11.4077 -37.2447,-127.6649 13.2493,-237.3178 31.5475,-68.5092 89.3952,-136.9677 232.4422,-275.0784 162.0362,-156.4449 190.4421,-191.5158 190.4421,-235.1271 0,-49.251 -35.4172,-103.3757 -67.6453,-103.3757 -31.1042,0 -81.8863,67.5233 -81.8863,108.8815 0,90.8346 -23.4708,106.7011 -157.8388,106.7011 -146.9661,0 -163.0301,-15.678 -140.3298,-136.9573 27.2298,-145.4796 113.7989,-275.7941 218.6948,-329.2072 55.066,-28.0395 91.0388,-33.5385 187.57,-28.6731 229.0261,11.5434 363.3431,148.6851 363.3431,370.9833 0,137.6224 -56.927,232.0187 -212.006,351.5491 l -113.3773,87.3874 h 141.7753 c 180.706,0 193.993,11.3579 193.993,165.8328 0,171.2021 12.095,166.1927 -395.7843,163.9091 -188.9615,-1.0581 -356.6505,-5.3365 -372.642,-9.5077 z M 7847.5382,1915.5729 c -79.7749,-25.7483 -207.512,-173.4543 -249.7033,-288.7385 -104.1258,-284.515 -38.2047,-528.8586 159.8153,-592.3723 206.4173,-66.20727 2697.0038,-723.33479 2741.5188,-723.33479 76.427,0 123.841,23.20414 218.037,106.70558 46.974,41.64077 94.28,75.71044 105.126,75.71044 10.845,0 163.437,-38.39476 339.093,-85.32161 284.747,-76.07063 324.795,-83.08088 369.36,-64.65603 68.258,28.22009 106.987,93.19601 106.987,179.49239 0,117.13861 -36.203,139.78506 -362.752,226.91657 -345.668,92.23303 -386.474,109.60998 -399.467,170.11206 -35.871,167.03259 -103.383,254.51399 -220.183,285.31039 -33.852,8.9257 -644.722,172.3517 -1357.4891,363.1686 -712.767,190.817 -1318.3696,350.9287 -1345.7837,355.8036 -27.4142,4.875 -74.4657,0.9171 -104.559,-8.7964 z"
             id="path13588" />
          <path
             style="fill:#006130;stroke-width:16.5989"
             d="M 7167.0371,6111.1081 C 5720.9534,4667.7305 4537.794,3479.3873 4537.794,3470.3451 c 0,-27.0461 5256.2559,-5265.2937 5283.3952,-5265.2937 27.2333,0 5283.4988,5238.0897 5283.4988,5265.2289 0,27.0796 -5256.3122,5265.1506 -5283.486,5265.1506 -13.7071,0 -1208.0813,-1180.9453 -2654.1649,-2624.3228 z m 5175.4509,-132.6259 c 1373.002,-1370.3891 2496.367,-2499.0975 2496.367,-2508.2411 0,-9.1435 -1124.196,-1138.6809 -2498.213,-2510.08306 C 10353.461,-1023.2427 9836.0151,-1531.2592 9811.0676,-1523.3214 9793.8179,-1517.833 8659.2849,-394.90761 7289.8832,972.06815 5106.2145,3151.8683 4802.1975,3461.3222 4817.4325,3488.7348 c 31.4133,56.5231 4978.5536,4981.3637 5003.9193,4981.3637 13.6235,0 1148.1352,-1121.2274 2521.1362,-2491.6163 z M 9474.0051,7891.0654 c -30.427,-19.2286 -14.4032,-143.6821 29.5429,-229.4546 44.4411,-86.7383 153.9774,-206.843 269.7017,-295.7228 106.6939,-81.9442 147.6792,-143.3463 147.6792,-221.2457 0,-58.6821 -56.1368,-104.631 -110.4958,-90.4427 -36.7978,9.6047 -72.265,69.3968 -72.265,121.8275 0,74.6979 -14.8755,83.4923 -141.2242,83.4923 -138.6961,0 -145.0738,-6.2625 -123.5404,-121.3071 25.3082,-135.2129 113.9737,-265.0386 218.2494,-319.5645 64.4238,-33.6873 239.5483,-29.3728 321.8321,7.9289 171.848,77.9046 251.185,311.379 164.201,483.2146 -21.22,41.9187 -124.762,143.0087 -249.1079,243.2085 l -65.8004,53.0227 152.4983,0.8723 c 188.464,1.0792 204.716,12.9974 204.716,150.1229 0,151.3996 5.478,149.2932 -387.4766,148.9956 -184.3925,-0.1327 -345.7222,-6.8662 -358.5103,-14.9479 z M 7854.69,1895.2766 c -84.5893,-29.9179 -146.3433,-91.1098 -207.4735,-205.5855 -68.6835,-128.6204 -96.4179,-286.0832 -71.874,-408.0659 19.4612,-96.7223 66.4656,-179.4828 117.3871,-206.6839 51.8588,-27.7015 2758.1544,-747.23072 2810.4874,-747.23072 63.708,0 126.83,32.49029 188.09,96.81416 94.029,98.73366 106.623,98.78557 467.115,1.92299 268.857,-72.24056 331.715,-84.09677 365.177,-68.87913 89.696,40.79121 126.629,171.99311 71.889,255.38011 -22.653,34.50764 -76.27,54.11869 -348.077,127.31345 -186.878,50.3246 -333.763,98.82753 -351.093,115.93434 -16.388,16.17649 -39.911,67.68596 -52.275,114.46572 -32.385,122.53568 -78.867,179.19088 -171.539,209.08388 -56.176,18.1204 -2468.1254,665.002 -2728.7142,731.8374 -13.707,3.5155 -53.8019,-3.8225 -89.0998,-16.3069 z"
             id="path13586" />
          <path
             style="fill:#003218;stroke-width:16.5989"
             d="M 7173.5222,6100.9979 C 4870.3223,3802.1076 4552.8862,3479.3311 4568.1759,3451.8198 c 31.483,-56.6485 5227.7951,-5230.1851 5253.21,-5230.1851 27.1044,0 5266.6881,5221.6341 5266.6881,5248.6458 0,27.0794 -5239.6983,5248.5671 -5266.8722,5248.5671 -13.707,0 -1205.1629,-1178.0324 -2647.6796,-2617.8497 z m 5177.2738,-114.2242 c 1377.57,-1374.9495 2504.673,-2507.3706 2504.673,-2516.4914 0,-27.1409 -5007.0453,-5016.4818 -5034.2825,-5016.4818 -27.0668,0 -5034.1732,4989.4691 -5034.1732,5016.4406 0,26.9449 5007.0922,5016.4407 5034.132,5016.4407 13.7372,0 1152.0797,-1124.9587 2529.6507,-2499.9081 z M 9483.7321,7878.9492 c -21.589,-21.5483 -10.5955,-113.7996 22.1431,-185.8111 47.6162,-104.7362 119.4014,-188.5535 258.9929,-302.4027 67.796,-55.2934 134.3825,-121.9915 147.9703,-148.2178 53.0614,-102.4157 11.3871,-202.7266 -84.2228,-202.7266 -59.643,0 -88.7855,34.0482 -103.68,121.1322 l -12.609,73.7213 H 9596.484 9480.6416 l 5.3095,-66.3331 c 10.5307,-131.5631 101.4253,-278.7721 205.7018,-333.146 25.0879,-13.0817 91.0037,-23.2339 149.5315,-23.0302 192.9846,0.6716 312.2026,92.1347 348.2046,267.138 34.336,166.91 -27.645,280.4303 -235.7222,431.7352 -54.3716,39.5367 -98.9337,80.952 -99.0269,92.0339 -0.1163,14.2057 50.062,21.5428 170.1301,24.8749 l 170.3,4.7259 v 124.3746 124.3745 l -349.9701,4.4667 c -192.4834,2.4567 -355.0989,-0.6533 -361.3678,-6.9097 z M 7833.8661,1871.6038 c -79.759,-36.3941 -136.5773,-105.2155 -200.4585,-242.8058 -84.2602,-181.4839 -57.2887,-459.4567 51.4829,-530.5923 46.9152,-30.6819 2748.4845,-753.91184 2816.1795,-753.91184 65.755,0 128.394,31.87753 190.237,96.81415 93.178,97.83983 104.851,97.86222 467.792,0.90213 302.362,-80.77663 330.711,-85.61497 370.625,-63.25425 61.722,34.57878 96.386,132.39092 69.703,196.68742 -24.641,59.37625 -61.207,74.07103 -415.787,167.0954 -290.335,76.16947 -334.966,105.07611 -354.965,229.90323 -7.172,44.76866 -30.22,90.00816 -64.84,127.27216 -53.154,57.2139 -67.778,61.5788 -1407.803,420.1965 -744.75,199.31 -1376.5207,366.9983 -1403.9348,372.6404 -32.4673,6.6821 -73.685,-0.6202 -118.2311,-20.947 z"
             id="path13584" />
          <path
             style="fill:#000301;stroke-width:16.5989"
             d="M 7191.9588,6086.2332 4571.0232,3470.2018 7191.9982,854.20999 C 8633.5344,-584.58561 9820.4498,-1761.782 9829.5879,-1761.782 c 21.7246,0 5241.8711,5210.3787 5241.8711,5232.0626 0,21.6835 -5220.2251,5231.9837 -5241.9499,5231.9837 -9.138,0 -1196.0357,-1177.214 -2637.5503,-2616.0311 z m 5167.1442,-91.1679 c 1382.139,-1379.5099 2512.981,-2515.6624 2512.981,-2524.7832 0,-27.0788 -5023.6276,-5033.0648 -5050.8018,-5033.0648 -27.1745,0 -5050.8836,5005.9046 -5050.8836,5032.9829 0,27.0788 5023.6274,5033.0648 5050.8016,5033.0648 13.707,0 1155.7638,-1128.6898 2537.9028,-2508.1997 z M 9488.9489,7818.6516 c 0,-103.8127 75.8932,-218.5444 252.209,-381.277 171.4419,-158.2345 213.0002,-213.5414 213.0002,-283.4666 0,-63.3471 -16.5815,-92.5191 -67.5381,-118.82 -85.5019,-44.1314 -161.644,9.6004 -177.1535,125.0135 l -9.0996,67.7155 -101.5553,-4.8778 -101.5554,-4.878 5.0798,-58.0414 c 8.3389,-95.2781 82.7319,-229.3776 157.0657,-283.1231 58.3064,-42.1574 81.7639,-48.5424 178.3337,-48.5424 217.2426,0 338.6436,116.6492 338.6436,325.3895 0,134.6751 -45.497,204.3708 -217.7341,333.5457 -71.0031,53.2511 -129.0964,107.7401 -129.0964,121.0868 0,19.233 36.188,25.9868 174.4535,32.5584 l 174.453,8.2917 v 107.7913 107.7913 l -344.7528,4.4823 -344.7533,4.4822 z M 7860.7168,1867.9912 c -106.7863,-42.2781 -212.3569,-195.854 -247.1527,-359.5385 -35.0058,-164.6719 -14.7951,-286.2315 61.2637,-368.4779 41.4068,-44.7752 144.3411,-74.9514 1411.1684,-413.69798 751.577,-200.96989 1389.4468,-365.39969 1417.4878,-365.39969 65.474,0 107.828,22.2123 190.024,99.65603 36.553,34.43865 83.115,67.5984 103.472,73.68811 22.999,6.88024 160.124,-21.59905 362.169,-75.21841 368.387,-97.76372 390.785,-96.70554 425.853,20.11866 15.604,51.98293 14.227,69.65091 -8.072,103.62043 -14.786,22.52373 -40.167,45.01529 -56.402,49.98116 -16.235,4.96602 -156.62,43.27803 -311.967,85.1377 -155.346,41.85967 -298.123,86.29057 -317.282,98.73533 -34.94,22.6952 -51.261,56.3629 -90.318,186.30726 -11.556,38.4469 -37.11,84.9996 -56.787,103.4505 -25.95,24.3324 -418.701,136.0886 -1429.8719,406.8658 -766.7525,205.3253 -1398.1349,372.8458 -1403.0721,372.2675 -4.9372,-0.5788 -27.6681,-8.4513 -50.5132,-17.496 z"
             id="path13582" />
        </g>
      </g>
    </g>
  </g>
</svg>
