<?xml version="1.0" encoding="utf-8"?>
<svg width="85px" height="85px" viewBox="0 0 85 85" version="1.1" id="svg5" xmlns="http://www.w3.org/2000/svg">
  <g>
    <path style="" d="M 21.208 63.839 C 9.544 52.199 0 42.598 0 42.501 C 0 42.404 9.544 32.801 21.208 21.161 L 42.417 0 L 42.753 0.245 C 43.393 0.709 85 42.325 85 42.501 C 85 42.676 43.393 84.291 42.753 84.755 L 42.417 85 L 21.208 63.839 Z M 63.402 21.551 L 42.449 0.832 L 21.289 21.899 L 0.646 42.41 L 21.469 63.578 L 42.421 84.36 L 63.762 63.089 L 84.276 42.511 L 63.402 21.551 Z M 34.533 57.483 C 26.248 57.426 25.611 57.408 25.492 57.219 C 25.267 56.863 25.66 56.653 27.326 56.229 C 29.264 55.739 31.324 55.426 31.961 55.529 C 32.386 55.596 32.786 55.457 35.725 54.224 C 37.533 53.465 39.013 52.807 39.013 52.764 C 39.013 52.719 38.88 52.622 38.717 52.548 C 38.497 52.449 38.422 52.323 38.422 52.06 C 38.422 51.663 38.406 51.669 39.84 51.467 C 40.51 51.371 41.052 51.183 42.056 50.693 C 43.334 50.072 43.757 49.722 43.062 49.859 C 42.882 49.895 41.752 50.061 40.549 50.228 C 39.347 50.397 38.272 50.56 38.161 50.592 C 38.05 50.625 37.663 51.074 37.301 51.59 C 36.939 52.105 36.594 52.527 36.534 52.527 C 36.474 52.527 36.023 52.187 35.533 51.77 C 34.719 51.08 34.603 51.02 34.197 51.067 C 31.968 51.324 30.077 51.438 29.937 51.322 C 29.544 50.995 29.839 50.719 31.755 49.612 L 33.661 48.514 L 33.746 45.809 C 33.794 44.319 33.798 43.047 33.755 42.978 C 33.704 42.896 32.313 42.854 29.556 42.854 C 25.505 42.854 25.432 42.85 25.356 42.613 C 25.175 42.041 25.271 42.029 29.68 42.029 L 33.797 42.029 L 33.833 40.584 C 33.854 39.789 33.835 39.057 33.792 38.958 C 33.749 38.86 32.605 38.17 31.25 37.426 L 28.786 36.072 L 28.018 36.097 C 27.596 36.11 27.037 36.137 26.776 36.156 C 26.372 36.184 26.299 36.153 26.268 35.938 C 26.226 35.644 26.8 35.115 28.117 34.232 C 29.491 33.313 29.554 33.317 31.844 34.405 L 33.247 35.072 L 33.165 34.627 C 33.121 34.383 32.946 33.875 32.778 33.499 C 32.489 32.852 32.331 32.702 29.95 30.811 L 27.427 28.811 L 27.427 28.219 C 27.427 27.795 27.478 27.61 27.61 27.559 C 27.723 27.516 28.681 28.022 30.097 28.877 C 31.363 29.64 32.429 30.234 32.464 30.199 C 32.573 30.09 32.288 28.076 32.077 27.456 C 31.968 27.138 31.436 26.083 30.894 25.111 C 30.354 24.138 29.909 23.222 29.909 23.074 C 29.909 22.775 30.404 22.384 30.661 22.482 C 30.75 22.516 31.268 23.237 31.814 24.085 C 32.36 24.933 32.842 25.627 32.885 25.628 C 32.929 25.63 33.053 25.353 33.16 25.012 C 33.54 23.809 33.577 23.752 34.065 23.607 C 34.77 23.396 34.797 23.483 34.586 25.29 C 34.331 27.481 34.349 27.911 34.758 29.236 C 34.955 29.87 35.411 31.456 35.772 32.758 C 36.134 34.06 36.447 35.142 36.469 35.164 C 36.49 35.185 36.943 34.576 37.475 33.809 L 38.442 32.414 L 38.385 31.117 C 38.353 30.403 38.259 28.594 38.175 27.098 C 38.093 25.6 38.059 24.286 38.101 24.178 C 38.194 23.939 38.921 23.904 39.108 24.13 C 39.176 24.212 39.357 25.203 39.509 26.332 C 39.663 27.462 39.839 28.4 39.903 28.417 C 39.965 28.434 40.837 27.494 41.839 26.328 C 42.841 25.162 43.719 24.228 43.789 24.251 C 43.861 24.274 43.935 24.557 43.953 24.878 C 43.987 25.445 43.96 25.502 43.06 26.697 C 41.818 28.346 41.014 29.55 40.578 30.412 C 40.227 31.104 40.219 31.158 40.281 32.361 C 40.339 33.502 40.32 33.66 40.037 34.358 C 39.869 34.774 39.749 35.136 39.774 35.16 C 39.797 35.183 40.066 35.013 40.369 34.781 C 40.991 34.309 41.075 34.284 42.344 34.193 C 43.764 34.092 44.009 33.945 45.803 32.109 C 46.685 31.206 47.454 30.468 47.51 30.468 C 47.707 30.468 47.905 30.819 47.825 31.026 C 47.714 31.315 44.818 35.78 44.543 36.086 C 44.404 36.242 44.107 36.366 43.764 36.413 C 42.723 36.558 42.406 36.8 40.725 38.724 L 39.13 40.55 L 39.13 41.289 L 39.13 42.029 L 44.745 42.029 L 50.36 42.029 L 50.923 41.63 C 51.77 41.027 52.701 40.539 53.52 40.267 C 55.018 39.77 56.907 39.689 57.071 40.116 C 57.109 40.217 56.965 40.636 56.75 41.05 C 56.536 41.464 56.383 41.825 56.412 41.852 C 56.44 41.882 57.152 41.693 57.993 41.436 C 58.835 41.177 59.597 40.994 59.687 41.027 C 59.812 41.075 59.837 41.285 59.792 41.941 C 59.653 43.987 58.058 46.633 55.952 48.318 C 55.54 48.647 55.218 48.955 55.237 49.002 C 55.254 49.048 55.879 49.526 56.627 50.063 C 58.036 51.074 58.19 51.211 58.088 51.374 C 58.055 51.428 57.46 51.758 56.766 52.107 C 56.025 52.481 55.578 52.767 55.682 52.802 C 55.779 52.834 56.603 52.923 57.514 53 C 58.425 53.077 59.209 53.164 59.257 53.194 C 59.446 53.31 59.329 53.627 58.878 54.216 L 58.409 54.828 L 59.473 54.886 C 60.241 54.929 60.57 54.995 60.652 55.121 C 60.715 55.22 60.753 55.804 60.736 56.42 L 60.706 57.54 L 52.076 57.541 C 47.329 57.542 39.435 57.517 34.533 57.483 Z M 45.755 53.17 C 46.164 52.551 46.649 51.919 46.83 51.765 C 47.02 51.606 48.035 51.199 49.205 50.812 C 53.84 49.281 56.691 47.187 58.193 44.21 C 58.56 43.483 58.942 42.293 58.841 42.192 C 58.8 42.152 57.88 42.389 56.797 42.72 C 54.957 43.285 54.618 43.343 54.618 43.096 C 54.618 43.041 54.912 42.501 55.272 41.894 C 55.896 40.844 55.914 40.787 55.664 40.75 C 54.727 40.605 52.625 41.457 51.124 42.59 C 49.517 43.801 48.245 45.245 46.275 48.089 C 44.865 50.123 43.828 50.966 41.63 51.865 C 41.095 52.083 40.653 52.307 40.651 52.361 C 40.645 52.457 44.623 54.271 44.878 54.287 C 44.951 54.292 45.346 53.79 45.755 53.17 Z M 55.919 45.3 C 55.759 45.217 55.575 45.005 55.514 44.83 C 55.42 44.563 55.448 44.459 55.68 44.213 C 56.206 43.653 57.1 43.944 57.1 44.675 C 57.1 44.891 57.033 45.121 56.952 45.19 C 56.691 45.405 56.223 45.457 55.919 45.3 Z M 44.47 49.018 C 44.76 48.709 45.334 47.953 45.747 47.337 C 46.723 45.88 47.515 44.87 48.458 43.884 C 48.964 43.355 49.183 43.045 49.104 42.968 C 49.03 42.894 47.217 42.863 44.089 42.882 L 39.19 42.913 L 39.158 45.005 L 39.125 47.097 L 41.404 48.233 C 42.657 48.858 43.699 49.416 43.721 49.474 C 43.796 49.669 43.945 49.577 44.47 49.018 Z"/>
  </g>
</svg>