<?xml version="1.0" encoding="utf-8"?>
<svg width="85px" height="85px" viewBox="0 0 85 85" version="1.1" id="svg8" preserveAspectRatio="xMidYMin" xmlns="http://www.w3.org/2000/svg">
  <g>
    <path style="fill: rgb(0, 158, 218);" d="M 21.25 63.75 L 0 42.5 L 21.25 21.25 L 42.5 0 L 63.75 21.25 L 85 42.5 L 63.75 63.75 L 42.5 85 L 21.25 63.75 Z M 61.54 61.48 L 80.461 42.559 L 61.481 23.578 L 42.5 4.598 L 23.52 23.578 L 4.539 42.559 L 23.461 61.48 L 42.382 80.402 L 42.5 80.402 L 42.618 80.402 L 61.54 61.48 Z M 24.492 60.508 L 6.484 42.5 L 24.492 24.492 L 42.5 6.484 L 60.538 24.522 L 78.575 42.559 L 60.596 60.538 L 42.618 78.516 L 42.559 78.516 L 42.5 78.516 L 24.492 60.508 Z M 45.153 70.499 L 45.153 69.792 L 45.683 69.792 L 46.214 69.792 L 46.214 69.143 L 46.214 68.495 L 45.683 68.495 L 45.153 68.495 L 45.153 66.255 L 45.153 64.015 L 44.475 64.02 L 43.797 64.025 L 42.117 66.281 L 40.437 68.536 L 40.437 69.164 L 40.437 69.792 L 42.029 69.792 L 43.62 69.792 L 43.62 70.499 L 43.62 71.207 L 44.386 71.207 L 45.153 71.207 L 45.153 70.499 Z M 42.171 68.348 L 42.283 68.2 L 42.853 67.434 L 43.422 66.668 L 43.521 66.556 L 43.62 66.444 L 43.62 67.469 L 43.62 68.495 L 42.839 68.495 L 42.059 68.495 L 42.171 68.348 Z M 51.283 37.784 L 51.283 36.9 L 42.972 36.9 L 34.66 36.9 L 34.66 37.784 L 34.66 38.669 L 42.972 38.669 L 51.283 38.669 L 51.283 37.784 Z M 42.773 35.188 L 42.711 35.127 L 41.811 34.955 L 40.91 34.782 L 40.232 34.435 L 39.553 34.088 L 38.812 33.402 L 38.072 32.715 L 37.799 31.757 L 37.526 30.8 L 38.069 31.081 L 38.612 31.364 L 39.659 31.482 L 40.706 31.601 L 40.747 31.56 L 40.788 31.519 L 40.259 30.82 L 39.73 30.121 L 39.444 29.709 L 39.158 29.296 L 39.132 28.883 L 39.106 28.471 L 39.127 27.764 L 39.148 27.056 L 39.291 27.263 L 39.435 27.471 L 39.965 28.234 L 40.496 28.998 L 41.104 29.177 L 41.711 29.355 L 41.759 29.355 L 41.807 29.355 L 41.631 28.238 L 41.454 27.122 L 42 25.969 L 42.545 24.816 L 42.729 24.176 L 42.913 23.536 L 42.913 23.005 L 42.913 22.473 L 43.268 22.813 L 43.623 23.154 L 44.09 23.871 L 44.558 24.589 L 44.753 25.528 L 44.948 26.467 L 44.876 27.911 L 44.804 29.355 L 44.923 29.355 L 45.041 29.355 L 45.775 28.988 L 46.508 28.62 L 47.009 28.213 L 47.51 27.807 L 47.523 27.608 L 47.536 27.41 L 47.641 27.94 L 47.746 28.471 L 47.491 29.333 L 47.236 30.195 L 46.46 30.911 L 45.683 31.626 L 46.744 31.565 L 47.805 31.504 L 48.422 31.257 L 49.038 31.011 L 48.621 31.745 L 48.204 32.479 L 48.083 32.715 L 47.962 32.951 L 47.117 33.609 L 46.273 34.266 L 45.514 34.729 L 44.755 35.191 L 45.514 35.227 L 46.273 35.263 L 47.025 35.132 L 47.777 35.002 L 48.499 34.639 L 49.22 34.277 L 49.916 33.791 L 50.612 33.304 L 51.224 32.356 L 51.836 31.407 L 52.207 30.175 L 52.578 28.942 L 52.696 27.351 L 52.815 25.76 L 52.812 25.523 L 52.809 25.288 L 52.708 25.465 L 52.607 25.641 L 52.529 26.116 L 52.45 26.591 L 51.942 26.913 L 51.433 27.235 L 50.857 27.41 L 50.281 27.584 L 50.187 27.586 L 50.093 27.587 L 50.437 27.086 L 50.78 26.585 L 51.084 25.984 L 51.387 25.383 L 51.634 24.416 L 51.881 23.448 L 51.752 22.718 L 51.623 21.987 L 51.376 21.073 L 51.129 20.16 L 51.049 20.16 L 50.97 20.16 L 50.685 20.772 L 50.399 21.384 L 49.894 22.039 L 49.388 22.694 L 48.95 22.892 L 48.513 23.09 L 48.433 23.098 L 48.353 23.107 L 48.627 22.429 L 48.901 21.751 L 48.983 20.631 L 49.066 19.511 L 48.933 18.745 L 48.8 17.978 L 48.31 16.877 L 47.819 15.774 L 47.741 15.992 L 47.663 16.21 L 47.582 17.123 L 47.501 18.036 L 47.143 18.879 L 46.784 19.722 L 46.53 20.109 L 46.276 20.496 L 46.009 20.548 L 45.742 20.598 L 45.748 20.409 L 45.753 20.219 L 45.848 19.729 L 45.942 19.239 L 45.84 18.493 L 45.738 17.747 L 44.426 14.882 L 43.114 12.016 L 42.791 10.871 L 42.468 9.726 L 42.149 10.432 L 41.831 11.137 L 41.724 11.787 L 41.618 12.438 L 41.617 14.838 L 41.616 17.237 L 41.429 17.962 L 41.242 18.686 L 41.002 19.246 L 40.762 19.806 L 40.679 19.806 L 40.595 19.806 L 40.341 19.246 L 40.086 18.686 L 39.918 17.861 L 39.749 17.036 L 39.563 16.599 L 39.378 16.163 L 38.965 15.833 L 38.552 15.503 L 37.995 15.362 L 37.439 15.219 L 37.394 15.265 L 37.349 15.31 L 37.599 15.977 L 37.849 16.645 L 37.664 17.606 L 37.479 18.568 L 37.411 19.747 L 37.343 20.926 L 37.528 21.544 L 37.713 22.163 L 37.394 21.998 L 37.074 21.833 L 36.479 21.203 L 35.884 20.572 L 35.377 19.718 L 34.869 18.863 L 34.818 18.863 L 34.766 18.863 L 34.84 20.13 L 34.913 21.397 L 34.8 21.967 L 34.688 22.536 L 34.803 23.495 L 34.919 24.454 L 35.562 25.735 L 36.205 27.017 L 35.993 26.957 L 35.781 26.897 L 35.177 26.82 L 34.574 26.744 L 34.104 26.251 L 33.634 25.76 L 33.455 25.49 L 33.276 25.22 L 32.65 24.753 L 32.024 24.286 L 31.977 24.286 L 31.93 24.286 L 32.008 24.669 L 32.085 25.052 L 32.919 28.234 L 33.753 31.415 L 34.266 32.187 L 34.779 32.958 L 35.642 33.684 L 36.505 34.41 L 37.686 34.709 L 38.868 35.009 L 40.33 35.113 L 41.793 35.216 L 42.314 35.233 L 42.834 35.25 L 42.773 35.188 Z"/>
  </g>
</svg>