<?xml version="1.0" encoding="utf-8"?>
<svg width="85px" height="85px" viewBox="0 0 85 85" version="1.1" id="svg5" preserveAspectRatio="xMidYMin" xmlns="http://www.w3.org/2000/svg">
  <g>
    <path style="fill: rgb(247, 148, 40);" d="M 21.25 63.765 L 0 42.529 L 21.28 21.265 L 42.56 0 L 63.78 21.205 C 75.451 32.868 85 42.464 85 42.53 C 85 42.646 42.676 85 42.56 85 C 42.527 85 32.938 75.444 21.25 63.765 Z"/>
    <path style="" d="M 23.691 61.25 L 5 42.499 L 23.691 23.75 C 33.971 13.437 42.435 5 42.5 5 C 42.565 5 51.029 13.438 61.309 23.75 L 80 42.5 L 61.309 61.25 C 51.029 71.563 42.565 80 42.5 80 C 42.435 80 33.971 71.562 23.691 61.25 Z M 60.663 60.601 L 78.707 42.499 L 60.662 24.398 C 50.738 14.443 42.565 6.297 42.5 6.297 C 42.308 6.297 6.469 42.307 6.469 42.5 C 6.469 42.693 42.308 78.703 42.5 78.703 C 42.565 78.703 50.738 70.557 60.663 60.601 Z M 41.912 74.435 C 41.881 74.35 41.841 73.219 41.825 71.922 L 41.795 69.564 L 40.994 69.529 L 40.194 69.494 L 40.23 69.119 C 40.263 68.776 40.311 68.736 40.781 68.656 C 41.423 68.547 41.796 68.307 42.03 67.853 C 42.186 67.55 42.279 67.5 42.681 67.5 L 43.15 67.5 L 43.119 71.008 L 43.088 74.517 L 42.528 74.553 C 42.148 74.577 41.95 74.539 41.912 74.435 Z M 40.874 62.896 C 40.702 62.759 40.562 62.586 40.563 62.509 C 40.565 62.433 40.749 62.083 40.972 61.731 C 41.436 61.001 41.403 60.892 40.65 60.667 C 39.95 60.459 39.856 60.36 39.973 59.951 C 40.133 59.39 40.169 59.377 40.883 59.6 C 41.337 59.742 41.606 59.773 41.701 59.695 C 41.779 59.631 41.859 59.225 41.878 58.793 L 41.912 58.007 L 42.441 58.007 L 42.97 58.007 L 43.005 58.868 C 43.046 59.882 43.119 59.942 43.976 59.656 C 44.642 59.434 44.751 59.48 44.861 60.031 C 44.932 60.389 44.92 60.402 44.246 60.627 C 43.839 60.763 43.543 60.934 43.522 61.045 C 43.502 61.148 43.685 61.534 43.929 61.903 C 44.361 62.556 44.367 62.577 44.142 62.745 C 43.561 63.18 43.535 63.174 43.02 62.49 C 42.751 62.132 42.485 61.84 42.43 61.84 C 42.375 61.84 42.111 62.118 41.843 62.459 C 41.576 62.799 41.319 63.093 41.273 63.111 C 41.226 63.128 41.047 63.032 40.874 62.896 Z M 49.832 42.845 C 47.328 42.476 45.448 40.786 45.244 38.721 L 45.204 38.314 L 46.82 38.281 L 48.437 38.248 L 48.715 38.871 C 49.192 39.935 50.018 40.496 51.107 40.495 C 51.965 40.494 52.525 40.288 53.086 39.77 C 53.759 39.147 54.021 38.451 54.018 37.297 C 54.015 36.535 53.961 36.293 53.663 35.71 C 53.154 34.711 52.59 34.345 51.44 34.271 C 50.382 34.203 49.731 34.407 49.101 35.002 L 48.687 35.394 L 47.298 35.337 C 46.534 35.305 45.87 35.243 45.821 35.199 C 45.71 35.097 46.907 26.573 47.061 26.373 C 47.15 26.256 48.228 26.231 52.008 26.255 L 56.842 26.285 L 56.875 27.553 L 56.909 28.821 L 53.206 28.821 C 49.797 28.821 49.495 28.837 49.4 29.027 C 49.197 29.433 48.746 32.362 48.867 32.484 C 48.945 32.561 49.245 32.478 49.76 32.237 C 52.253 31.067 55.89 32.21 57.013 34.517 C 58.233 37.023 57.36 40.392 55.094 41.919 C 53.802 42.791 51.824 43.139 49.832 42.845 Z M 33.388 36.869 C 33.387 33.463 33.34 31.048 33.275 30.943 C 33.186 30.802 32.777 30.755 31.249 30.708 L 29.334 30.649 L 29.334 29.705 L 29.334 28.762 L 30.039 28.671 C 32.544 28.348 33.246 27.864 33.969 25.957 L 34.093 25.629 L 35.299 25.662 L 36.505 25.696 L 36.535 34.157 L 36.565 42.618 L 34.977 42.618 L 33.389 42.618 L 33.388 36.869 Z M 39.62 40.908 L 39.62 39.198 L 41.324 39.198 L 43.029 39.198 L 43.029 40.908 L 43.029 42.618 L 41.324 42.618 L 39.62 42.618 L 39.62 40.908 Z"/>
  </g>
</svg>