<?xml version="1.0" encoding="utf-8"?>
<svg width="85px" height="85px" viewBox="0 0 85 85" version="1.1" id="svg8" preserveAspectRatio="xMidYMin" xmlns="http://www.w3.org/2000/svg">
  <g>
    <path style="fill: rgb(247, 148, 40);" d="M 21.25 63.75 L 0 42.5 L 21.25 21.25 L 42.5 0 L 63.75 21.25 L 85 42.5 L 63.75 63.75 L 42.5 85 L 21.25 63.75 Z"/>
    <path d="M 23.764 61.25 L 5 42.5 L 23.765 23.75 L 42.53 5 L 61.236 23.692 L 79.942 42.383 L 79.942 42.5 L 79.942 42.617 L 61.236 61.309 L 42.529 80 L 23.764 61.25 Z M 60.475 24.569 L 42.53 6.638 L 24.585 24.569 L 6.639 42.5 L 24.584 60.431 L 42.529 78.362 L 60.474 60.431 L 78.42 42.5 L 60.475 24.569 Z M 40.832 71.294 L 40.832 68.778 L 39.983 68.743 L 39.134 68.709 L 39.098 68.226 L 39.063 67.743 L 39.733 67.659 L 40.403 67.576 L 40.734 67.245 L 41.066 66.913 L 41.066 66.671 L 41.066 66.427 L 41.712 66.427 L 42.357 66.427 L 42.326 70.084 L 42.295 73.74 L 41.563 73.775 L 40.832 73.81 L 40.832 71.294 Z M 40.217 63.464 L 39.895 63.201 L 39.895 63.117 L 39.895 63.032 L 40.256 62.536 L 40.616 62.04 L 40.051 61.88 L 39.485 61.721 L 39.444 61.684 L 39.403 61.646 L 39.541 61.229 L 39.679 60.811 L 39.713 60.811 L 39.748 60.811 L 40.246 60.987 L 40.744 61.162 L 40.782 61.162 L 40.82 61.162 L 40.855 60.49 L 40.89 59.817 L 41.388 59.781 L 41.885 59.745 L 41.885 60.453 L 41.885 61.162 L 41.929 61.162 L 41.973 61.162 L 42.477 60.984 L 42.982 60.807 L 43.065 60.897 L 43.149 60.987 L 43.225 61.35 L 43.302 61.714 L 42.769 61.863 L 42.237 62.012 L 42.237 62.086 L 42.237 62.161 L 42.529 62.591 L 42.822 63.022 L 42.822 63.137 L 42.822 63.252 L 42.488 63.49 L 42.154 63.728 L 41.766 63.189 L 41.379 62.651 L 41.161 62.951 L 40.942 63.25 L 40.741 63.489 L 40.539 63.728 L 40.217 63.464 Z M 39.192 55.254 L 39.192 54.025 L 39.104 54.028 L 39.017 54.032 L 38.789 54.204 L 38.562 54.375 L 38.409 54.375 L 38.256 54.375 L 38.256 54.092 L 38.256 53.81 L 38.636 53.573 L 39.017 53.336 L 39.164 53.095 L 39.312 52.855 L 39.603 52.855 L 39.895 52.855 L 39.895 54.668 L 39.895 56.482 L 39.543 56.482 L 39.192 56.482 L 39.192 55.253 L 39.192 55.254 Z M 41.066 56.131 L 41.066 55.78 L 41.417 55.78 L 41.768 55.78 L 41.768 56.131 L 41.768 56.482 L 41.417 56.482 L 41.066 56.482 L 41.066 56.131 Z M 43.408 55.254 L 43.408 54.025 L 43.32 54.028 L 43.232 54.032 L 43.005 54.204 L 42.778 54.375 L 42.624 54.375 L 42.471 54.375 L 42.471 54.098 L 42.471 53.821 L 42.881 53.542 L 43.291 53.264 L 43.357 53.059 L 43.423 52.855 L 43.767 52.855 L 44.11 52.855 L 44.11 54.668 L 44.11 56.482 L 43.759 56.482 L 43.408 56.482 L 43.408 55.253 L 43.408 55.254 Z M 24.231 40.54 L 23.983 40.276 L 27.552 37.424 L 31.122 34.573 L 30.916 34.324 L 30.708 34.076 L 30.552 33.94 L 30.395 33.805 L 28.529 34.429 L 26.663 35.053 L 26.663 34.844 L 26.663 34.635 L 28.558 34.128 L 30.453 33.622 L 30.327 33.58 L 30.201 33.538 L 24.677 34.901 L 19.153 36.264 L 19.08 36.191 L 19.007 36.118 L 19.176 35.96 L 19.345 35.801 L 24.789 34.606 L 30.234 33.411 L 30.269 33.377 L 30.303 33.343 L 30.167 32.803 L 30.031 32.262 L 29.606 32.261 L 29.181 32.26 L 28.215 32.185 L 27.248 32.11 L 27.248 32.478 L 27.248 32.847 L 26.96 32.847 L 26.671 32.847 L 26.536 33.099 L 26.401 33.351 L 27.088 33.279 L 27.775 33.207 L 28.478 33.148 L 29.181 33.088 L 29.005 33.141 L 28.829 33.194 L 22.272 34.074 L 15.715 34.953 L 15.451 34.953 L 15.188 34.953 L 15.188 34.843 L 15.188 34.733 L 15.275 34.679 L 15.363 34.625 L 18.759 34.244 L 22.155 33.863 L 22.266 33.765 L 22.377 33.666 L 21.856 33.664 L 21.335 33.662 L 21.071 33.592 L 20.808 33.521 L 20.808 33.373 L 20.808 33.225 L 21.198 32.929 L 21.587 32.631 L 22.335 33.21 L 23.083 33.788 L 23.208 33.74 L 23.333 33.693 L 24.822 33.542 L 26.311 33.391 L 26.311 33.294 L 26.311 33.197 L 25.988 33.197 L 25.664 33.197 L 25.217 32.894 L 24.77 32.59 L 24.84 32.309 L 24.911 32.027 L 24.177 32.02 L 23.443 32.013 L 21.418 31.922 L 19.393 31.83 L 19.26 31.697 L 19.126 31.563 L 19.183 31.506 L 19.239 31.45 L 21.692 31.628 L 24.146 31.806 L 25.116 31.73 L 26.086 31.655 L 26.237 31.78 L 26.388 31.905 L 28.369 32.037 L 30.352 32.168 L 30.586 32.266 L 30.82 32.363 L 31.453 32.539 L 32.087 32.715 L 32.735 32.137 L 33.384 31.559 L 33.487 31.559 L 33.59 31.559 L 34.463 32.32 L 35.335 33.08 L 35.451 33.08 L 35.566 33.08 L 36.202 32.658 L 36.838 32.236 L 36.874 31.721 L 36.909 31.206 L 37.46 31.646 L 38.011 32.086 L 38.079 32.281 L 38.148 32.476 L 38.508 32.601 L 38.869 32.727 L 38.813 32.94 L 38.757 33.154 L 42.81 33.713 L 46.862 34.273 L 47.131 34.334 L 47.399 34.395 L 47.321 34.937 L 47.242 35.479 L 47.213 35.514 L 47.183 35.548 L 45.793 35.193 L 44.403 34.838 L 44.11 34.761 L 43.818 34.684 L 44.081 34.972 L 44.344 35.26 L 44.344 35.555 L 44.344 35.849 L 44.284 35.91 L 44.223 35.971 L 42.908 35.738 L 41.593 35.504 L 41.095 35.15 L 40.598 34.796 L 40.599 34.67 L 40.601 34.543 L 40.705 34.379 L 40.808 34.215 L 41.347 34.289 L 41.885 34.363 L 41.885 34.275 L 41.885 34.187 L 40.3 33.781 L 38.714 33.375 L 38.604 33.549 L 38.494 33.724 L 38.529 33.841 L 38.565 33.958 L 41.122 35.367 L 43.678 36.776 L 43.852 37.037 L 44.026 37.299 L 43.966 37.359 L 43.905 37.419 L 41.134 35.718 L 38.364 34.016 L 38.31 34.016 L 38.256 34.016 L 38.261 34.163 L 38.266 34.309 L 41.159 36.392 L 44.052 38.474 L 44.274 38.64 L 44.496 38.807 L 44.354 38.978 L 44.211 39.15 L 41.155 36.764 L 38.098 34.378 L 38.002 34.438 L 37.904 34.498 L 37.908 34.638 L 37.911 34.777 L 40.083 36.357 L 42.256 37.936 L 42.422 38.252 L 42.588 38.568 L 42.588 38.637 L 42.588 38.707 L 40.193 36.769 L 37.797 34.831 L 37.177 35.303 L 36.557 35.776 L 35.813 36.008 L 35.069 36.239 L 34.507 36.239 L 33.944 36.239 L 33.217 36.013 L 32.49 35.788 L 31.825 35.272 L 31.161 34.756 L 30.288 35.554 L 29.415 36.352 L 29.825 36.358 L 30.234 36.364 L 30.419 36.507 L 30.603 36.649 L 30.504 37.027 L 30.405 37.404 L 30.161 37.535 L 29.917 37.665 L 29.797 37.546 L 29.678 37.427 L 29.394 37.535 L 29.11 37.643 L 28.852 37.356 L 28.595 37.069 L 26.604 38.929 L 24.614 40.79 L 24.547 40.796 L 24.479 40.803 L 24.231 40.539 L 24.231 40.54 Z M 21.412 38.583 L 21.021 38.006 L 21.158 37.591 L 21.295 37.176 L 21.35 37.176 L 21.405 37.176 L 21.766 37.363 L 22.127 37.549 L 22.208 37.42 L 22.287 37.291 L 22.66 37.42 L 23.033 37.55 L 23.033 37.667 L 23.033 37.784 L 22.832 38.123 L 22.631 38.463 L 22.375 38.463 L 22.119 38.463 L 21.996 38.815 L 21.874 39.165 L 21.839 39.162 L 21.803 39.159 L 21.412 38.582 L 21.412 38.583 Z M 24.438 37.262 L 24.438 37.088 L 27.161 35.626 L 29.883 34.164 L 30.176 34.018 L 30.469 33.871 L 30.352 33.987 L 30.234 34.103 L 27.505 35.705 L 24.775 37.306 L 24.607 37.371 L 24.438 37.435 L 24.438 37.262 Z M 24.585 35.536 L 24.204 35.191 L 24.204 35.16 L 24.204 35.129 L 24.856 35.169 L 25.508 35.21 L 25.578 35.391 L 25.647 35.572 L 25.43 35.73 L 25.213 35.889 L 25.089 35.886 L 24.965 35.882 L 24.585 35.536 Z M 53.244 33.013 L 50.375 32.861 L 48.443 32.794 L 46.511 32.727 L 43.818 32.57 L 41.124 32.414 L 42.902 32.397 L 44.679 32.379 L 44.574 32.011 L 44.468 31.644 L 44.525 31.552 L 44.581 31.461 L 44.945 31.381 L 45.307 31.302 L 45.756 30.897 L 46.205 30.492 L 47.177 30.924 L 48.15 31.355 L 48.545 31.524 L 48.94 31.693 L 48.633 32.013 L 48.326 32.333 L 48.326 32.455 L 48.326 32.576 L 51.341 32.655 L 54.356 32.734 L 56.261 32.809 L 58.167 32.883 L 58.369 33.037 L 58.572 33.191 L 57.342 33.178 L 56.113 33.165 L 53.244 33.013 Z M 46.049 32.39 L 45.984 32.284 L 45.75 32.345 L 45.515 32.406 L 45.515 32.451 L 45.515 32.496 L 45.815 32.496 L 46.115 32.496 L 46.049 32.39 Z M 29.502 33.001 L 29.707 32.947 L 29.912 33.001 L 30.117 33.054 L 29.707 33.054 L 29.297 33.054 L 29.502 33.001 Z M 35.844 32.595 L 35.76 32.46 L 35.895 32.543 L 36.031 32.627 L 36.031 32.679 L 36.031 32.73 L 35.979 32.73 L 35.927 32.73 L 35.844 32.595 Z M 35.445 32.32 L 35.445 32.262 L 35.504 32.262 L 35.563 32.262 L 35.563 32.32 L 35.563 32.379 L 35.504 32.379 L 35.445 32.379 L 35.445 32.32 Z M 38.819 32.299 L 38.973 32.238 L 39.043 32.309 L 39.114 32.379 L 38.89 32.37 L 38.665 32.361 L 38.819 32.299 Z M 39.69 32.294 L 40.129 32.248 L 40.568 32.294 L 41.007 32.34 L 40.129 32.34 L 39.251 32.34 L 39.69 32.294 Z M 30.857 31.714 L 31.01 31.653 L 31.081 31.723 L 31.152 31.794 L 30.927 31.785 L 30.703 31.776 L 30.857 31.714 Z M 27.755 31.282 L 25.509 30.916 L 25.432 30.838 L 25.355 30.76 L 25.572 30.644 L 25.788 30.529 L 28.246 31.094 L 30.703 31.659 L 30.352 31.653 L 30 31.647 L 27.755 31.282 Z M 33.455 31.15 L 32.693 30.752 L 32.06 30.747 L 31.428 30.741 L 31.651 30.995 L 31.874 31.249 L 31.501 30.979 L 31.13 30.709 L 30.953 30.777 L 30.777 30.845 L 30.37 30.395 L 29.964 29.946 L 29.257 29.466 L 28.551 28.987 L 28.473 28.862 L 28.396 28.736 L 28.457 28.675 L 28.519 28.614 L 29.314 29.215 L 30.109 29.817 L 30.457 29.079 L 30.805 28.342 L 31.425 27.723 L 32.045 27.103 L 32.721 26.789 L 33.396 26.474 L 34.391 26.473 L 35.387 26.47 L 35.76 26.547 L 36.133 26.623 L 36.302 26.137 L 36.47 25.651 L 38.954 18.573 L 41.438 11.494 L 41.527 11.4 L 41.617 11.306 L 42.073 11.513 L 42.529 11.721 L 42.562 11.738 L 42.595 11.755 L 39.957 19.101 L 37.319 26.447 L 37.325 26.517 L 37.331 26.588 L 37.98 25.3 L 38.63 24.013 L 39.971 21.411 L 41.312 18.809 L 41.586 18.988 L 41.86 19.168 L 39.531 23.17 L 37.201 27.172 L 37.64 27.543 L 38.08 27.914 L 38.339 27.602 L 38.599 27.289 L 38.603 27.144 L 38.607 26.999 L 38.988 26.746 L 39.368 26.493 L 44.052 21.372 L 48.736 16.25 L 48.864 16.241 L 48.993 16.232 L 49.201 16.463 L 49.41 16.693 L 44.837 21.348 L 40.263 26.002 L 40.726 26.038 L 41.188 26.075 L 41.83 25.527 L 42.471 24.98 L 42.471 25.065 L 42.471 25.151 L 42.093 25.859 L 41.716 26.567 L 40.893 27.247 L 40.071 27.928 L 39.966 27.579 L 39.862 27.231 L 39.755 27.231 L 39.65 27.231 L 39.3 27.411 L 38.952 27.591 L 38.855 27.532 L 38.758 27.472 L 38.497 27.75 L 38.236 28.028 L 38.367 28.273 L 38.499 28.518 L 38.116 28.518 L 37.734 28.518 L 36.686 29.542 L 35.639 30.566 L 36.548 29.571 L 37.457 28.577 L 37.204 28.538 L 36.951 28.499 L 36.8 28.557 L 36.65 28.615 L 36.575 28.987 L 36.501 29.36 L 35.798 29.278 L 35.094 29.197 L 35.094 29.257 L 35.094 29.318 L 35.315 29.831 L 35.535 30.345 L 35.012 30.953 L 34.488 31.56 L 34.352 31.555 L 34.216 31.549 L 33.455 31.15 Z M 37.319 26.704 L 37.319 26.646 L 37.26 26.646 L 37.202 26.646 L 37.202 26.704 L 37.202 26.763 L 37.26 26.763 L 37.319 26.763 L 37.319 26.704 Z M 29.365 30.528 L 27.56 29.63 L 27.505 29.464 L 27.45 29.298 L 27.847 29.534 L 28.244 29.772 L 29.737 30.555 L 31.23 31.339 L 31.23 31.391 L 31.23 31.443 L 31.201 31.435 L 31.171 31.426 L 29.365 30.528 Z M 37.758 31.366 L 37.904 31.306 L 38.051 31.366 L 38.197 31.425 L 37.904 31.425 L 37.612 31.425 L 37.758 31.366 Z M 31.932 31.268 L 31.932 31.209 L 31.991 31.209 L 32.049 31.209 L 32.049 31.268 L 32.049 31.326 L 31.991 31.326 L 31.932 31.326 L 31.932 31.268 Z M 38.548 31.247 L 38.783 31.2 L 50.024 29.295 L 61.265 27.39 L 61.302 27.79 L 61.339 28.191 L 61.302 28.223 L 61.265 28.256 L 49.952 29.791 L 38.639 31.326 L 38.476 31.31 L 38.314 31.294 L 38.548 31.247 Z M 36.968 30.682 L 36.968 30.624 L 37.026 30.624 L 37.085 30.624 L 37.085 30.682 L 37.085 30.741 L 37.026 30.741 L 36.968 30.741 L 36.968 30.682 Z M 37.414 30.544 L 37.567 30.483 L 37.638 30.553 L 37.709 30.624 L 37.485 30.615 L 37.26 30.606 L 37.414 30.544 Z M 37.882 30.427 L 38.036 30.365 L 38.107 30.436 L 38.178 30.507 L 37.953 30.498 L 37.728 30.488 L 37.882 30.427 Z M 38.319 30.331 L 38.442 30.269 L 48.373 27.697 L 58.303 25.125 L 58.353 25.125 L 58.402 25.125 L 58.519 25.433 L 58.637 25.742 L 58.596 25.783 L 58.555 25.824 L 48.727 28.055 L 38.899 30.285 L 38.548 30.338 L 38.197 30.392 L 38.319 30.331 Z M 37.026 30.156 L 37.098 30.039 L 37.157 30.039 L 37.216 30.039 L 37.143 30.156 L 37.071 30.273 L 37.012 30.273 L 36.953 30.273 L 37.026 30.156 Z M 37.594 29.799 L 37.928 29.534 L 43.625 25.519 L 49.321 21.505 L 49.357 22.04 L 49.394 22.576 L 49.357 22.601 L 49.321 22.626 L 43.583 26.175 L 37.846 29.725 L 37.553 29.894 L 37.26 30.064 L 37.594 29.799 Z M 38.294 29.961 L 38.373 29.883 L 38.451 29.961 L 38.529 30.039 L 38.373 30.039 L 38.217 30.039 L 38.294 29.961 Z M 39.082 29.643 L 39.616 29.355 L 42.493 28 L 45.369 26.646 L 45.442 26.646 L 45.515 26.646 L 45.513 26.967 L 45.511 27.289 L 42.155 28.577 L 38.8 29.864 L 38.674 29.897 L 38.549 29.931 L 39.082 29.643 Z M 36.042 26.353 L 36.035 26.236 L 37.007 22.463 L 37.979 18.689 L 37.912 18.69 L 37.846 18.691 L 37.26 19.402 L 36.675 20.113 L 36.552 19.683 L 36.43 19.253 L 36.156 19.047 L 35.882 18.84 L 35.99 18.268 L 36.098 17.695 L 36.36 17.723 L 36.622 17.752 L 36.755 17.46 L 36.888 17.169 L 37.214 17.169 L 37.541 17.169 L 37.741 17.881 L 37.941 18.594 L 38.024 18.437 L 38.107 18.28 L 38.314 17.403 L 38.52 16.525 L 38.603 16.432 L 38.687 16.34 L 38.941 16.55 L 39.196 16.759 L 37.675 21.487 L 36.155 26.215 L 36.102 26.343 L 36.049 26.47 L 36.042 26.353 Z M 48.162 26.282 L 47.471 26.182 L 47.423 26.134 L 47.375 26.086 L 47.542 25.693 L 47.708 25.3 L 47.935 25.098 L 48.162 24.896 L 48.914 25.654 L 49.666 26.412 L 49.259 26.397 L 48.853 26.383 L 48.162 26.282 Z M 54.533 23.361 L 53.891 22.902 L 53.752 22.902 L 53.612 22.902 L 53.329 23.264 L 53.044 23.626 L 52.544 23.371 L 52.044 23.116 L 52.118 22.575 L 52.192 22.034 L 52.313 21.913 L 52.434 21.792 L 53.092 21.733 L 53.749 21.673 L 53.965 21.04 L 54.179 20.407 L 54.228 20.358 L 54.277 20.309 L 54.76 21.137 L 55.244 21.964 L 55.21 22.892 L 55.176 23.82 L 54.533 23.361 Z M 41.372 22.564 L 41.05 22.229 L 41.134 21.775 L 41.218 21.322 L 41.391 21.057 L 41.564 20.791 L 41.704 20.908 L 41.844 21.024 L 41.973 20.895 L 42.101 20.767 L 42.242 21.234 L 42.382 21.702 L 42.247 22.112 L 42.111 22.522 L 41.902 22.711 L 41.693 22.9 L 41.372 22.564 Z M 23.706 61.191 L 5 42.5 L 23.736 23.779 L 42.471 5.059 L 61.236 23.809 L 80 42.558 L 61.324 61.221 L 42.647 79.883 L 42.529 79.883 L 42.412 79.883 L 23.706 61.191 Z M 60.475 60.431 L 78.42 42.5 L 60.445 24.54 L 42.471 6.58 L 24.555 24.481 L 6.639 42.383 L 6.639 42.5 L 6.639 42.617 L 24.526 60.489 L 42.412 78.362 L 42.471 78.362 L 42.53 78.362 L 60.475 60.431 Z M 40.832 71.166 L 40.832 68.65 L 40.012 68.65 L 39.192 68.65 L 39.192 68.198 L 39.192 67.745 L 39.717 67.686 L 40.243 67.627 L 40.547 67.428 L 40.851 67.228 L 41.018 66.828 L 41.186 66.427 L 41.712 66.427 L 42.237 66.427 L 42.237 70.054 L 42.237 73.682 L 41.534 73.682 L 40.832 73.682 L 40.832 71.166 Z M 40.243 63.424 L 39.953 63.229 L 39.913 63.198 L 39.872 63.168 L 40.25 62.62 L 40.627 62.072 L 40.466 61.97 L 40.305 61.868 L 40.166 61.866 L 40.027 61.864 L 39.736 61.753 L 39.444 61.643 L 39.569 61.238 L 39.693 60.832 L 40.233 60.996 L 40.773 61.16 L 40.861 61.161 L 40.949 61.162 L 40.949 60.519 L 40.949 59.875 L 41.417 59.875 L 41.885 59.875 L 41.885 60.519 L 41.885 61.162 L 41.988 61.162 L 42.09 61.162 L 42.565 60.995 L 43.039 60.828 L 43.165 61.19 L 43.292 61.551 L 43.224 61.62 L 43.157 61.689 L 42.64 61.864 L 42.122 62.04 L 42.471 62.566 L 42.821 63.093 L 42.822 63.167 L 42.822 63.242 L 42.509 63.447 L 42.195 63.652 L 41.767 63.15 L 41.34 62.649 L 40.998 63.132 L 40.656 63.614 L 40.594 63.617 L 40.532 63.62 L 40.243 63.425 L 40.243 63.424 Z M 39.192 55.199 L 39.192 53.916 L 38.783 54.157 L 38.373 54.399 L 38.373 54.143 L 38.373 53.887 L 38.904 53.371 L 39.435 52.855 L 39.665 52.855 L 39.895 52.855 L 39.895 54.669 L 39.895 56.482 L 39.543 56.482 L 39.192 56.482 L 39.192 55.199 Z M 41.066 56.131 L 41.066 55.78 L 41.417 55.78 L 41.768 55.78 L 41.768 56.131 L 41.768 56.482 L 41.417 56.482 L 41.066 56.482 L 41.066 56.131 Z M 43.408 55.197 L 43.408 53.912 L 43.027 54.143 L 42.647 54.375 L 42.559 54.375 L 42.471 54.376 L 42.471 54.087 L 42.471 53.797 L 42.821 53.616 L 43.171 53.435 L 43.361 53.145 L 43.552 52.855 L 43.773 52.855 L 43.993 52.855 L 43.993 54.669 L 43.993 56.482 L 43.7 56.482 L 43.408 56.482 L 43.408 55.197 Z M 24.204 40.511 L 24.058 40.335 L 24.18 40.189 L 24.301 40.043 L 27.702 37.352 L 31.104 34.661 L 31.108 34.598 L 31.112 34.535 L 30.784 34.142 L 30.456 33.748 L 28.611 34.363 L 26.766 34.977 L 26.72 34.933 L 26.676 34.888 L 26.757 34.758 L 26.839 34.628 L 28.632 34.147 L 30.425 33.666 L 30.467 33.666 L 30.509 33.666 L 30.278 33.009 L 30.047 32.352 L 30.11 32.288 L 30.174 32.225 L 31.118 32.483 L 32.062 32.742 L 32.76 32.138 L 33.458 31.534 L 33.661 31.691 L 33.864 31.847 L 34.653 32.533 L 35.441 33.219 L 36.175 32.707 L 36.909 32.197 L 36.968 31.737 L 37.026 31.277 L 37.703 31.938 L 38.379 32.6 L 38.615 32.674 L 38.851 32.749 L 38.784 32.958 L 38.718 33.168 L 39.043 33.23 L 39.368 33.292 L 43.359 33.846 L 47.351 34.399 L 47.304 34.705 L 47.258 35.012 L 47.206 35.267 L 47.155 35.521 L 45.603 35.115 L 44.052 34.71 L 43.818 34.64 L 43.583 34.569 L 43.973 34.933 L 44.363 35.298 L 44.28 35.564 L 44.198 35.831 L 44.17 35.864 L 44.142 35.896 L 42.926 35.7 L 41.71 35.505 L 41.358 35.287 L 41.007 35.07 L 40.793 34.904 L 40.579 34.738 L 40.713 34.489 L 40.846 34.239 L 41.352 34.315 L 41.858 34.391 L 41.925 34.282 L 41.993 34.173 L 40.446 33.783 L 38.899 33.393 L 38.774 33.35 L 38.649 33.306 L 38.515 33.598 L 38.382 33.89 L 39.402 34.462 L 40.422 35.033 L 42.074 35.934 L 43.726 36.834 L 43.865 37.139 L 44.004 37.444 L 43.735 37.272 L 43.466 37.1 L 41.042 35.615 L 38.617 34.131 L 38.448 34.066 L 38.279 34.001 L 38.208 34.116 L 38.137 34.231 L 41.238 36.472 L 44.34 38.712 L 44.408 38.822 L 44.476 38.933 L 44.307 38.998 L 44.137 39.063 L 41.125 36.704 L 38.112 34.345 L 37.939 34.517 L 37.766 34.689 L 40.031 36.35 L 42.295 38.01 L 42.379 38.237 L 42.463 38.463 L 42.405 38.463 L 42.345 38.463 L 40.276 36.796 L 38.206 35.129 L 37.986 34.968 L 37.765 34.807 L 37.454 35.056 L 37.143 35.304 L 36.565 35.648 L 35.987 35.992 L 35.219 36.121 L 34.45 36.248 L 33.825 36.128 L 33.201 36.009 L 32.699 35.787 L 32.196 35.565 L 31.714 35.129 L 31.232 34.694 L 30.557 35.279 L 29.883 35.863 L 29.66 36.11 L 29.437 36.357 L 29.784 36.357 L 30.131 36.357 L 30.343 36.512 L 30.555 36.667 L 30.476 37.022 L 30.399 37.378 L 30.126 37.502 L 29.853 37.626 L 29.733 37.506 L 29.613 37.386 L 29.397 37.508 L 29.181 37.629 L 28.888 37.352 L 28.595 37.074 L 26.623 38.88 L 24.651 40.686 L 24.5 40.686 L 24.35 40.686 L 24.204 40.511 Z M 21.415 38.534 L 21.046 38.02 L 21.179 37.628 L 21.311 37.235 L 21.35 37.189 L 21.388 37.143 L 21.577 37.299 L 21.766 37.456 L 22.338 37.469 L 22.91 37.482 L 22.982 37.555 L 23.054 37.627 L 22.897 37.952 L 22.74 38.278 L 22.448 38.346 L 22.157 38.415 L 22.027 38.675 L 21.897 38.936 L 21.841 38.992 L 21.784 39.048 L 21.415 38.534 Z M 24.555 37.236 L 24.555 37.08 L 26.224 36.175 L 27.892 35.271 L 28.654 34.86 L 29.415 34.448 L 29.297 34.567 L 29.181 34.685 L 26.868 36.039 L 24.555 37.393 L 24.555 37.236 Z M 19.122 36.077 L 19.191 35.898 L 19.384 35.843 L 19.579 35.788 L 23.659 34.895 L 27.74 34.001 L 27.783 34.044 L 27.825 34.086 L 23.643 35.113 L 19.461 36.14 L 19.257 36.198 L 19.053 36.255 L 19.122 36.077 Z M 24.614 35.538 L 24.277 35.187 L 24.885 35.187 L 25.492 35.187 L 25.492 35.417 L 25.492 35.647 L 25.266 35.768 L 25.039 35.889 L 24.995 35.889 L 24.95 35.889 L 24.614 35.538 Z M 15.305 34.851 L 15.305 34.724 L 15.568 34.666 L 15.831 34.607 L 20.032 34.132 L 24.233 33.656 L 24.346 33.694 L 24.46 33.732 L 20.263 34.291 L 16.066 34.849 L 15.685 34.914 L 15.305 34.979 L 15.305 34.851 Z M 29.473 34.427 L 29.473 34.368 L 29.532 34.368 L 29.59 34.368 L 29.59 34.427 L 29.59 34.485 L 29.532 34.485 L 29.473 34.485 L 29.473 34.427 Z M 29.707 34.31 L 29.707 34.251 L 29.766 34.251 L 29.825 34.251 L 29.825 34.31 L 29.825 34.368 L 29.766 34.368 L 29.707 34.368 L 29.707 34.31 Z M 30.059 34.076 L 30.059 34.017 L 30.117 34.017 L 30.176 34.017 L 30.176 34.076 L 30.176 34.134 L 30.117 34.134 L 30.059 34.134 L 30.059 34.076 Z M 28.046 33.937 L 28.2 33.876 L 28.271 33.947 L 28.342 34.017 L 28.117 34.008 L 27.892 33.999 L 28.046 33.937 Z M 30.293 33.958 L 30.293 33.9 L 30.352 33.9 L 30.41 33.9 L 30.41 33.958 L 30.41 34.017 L 30.352 34.017 L 30.293 34.017 L 30.293 33.958 Z M 28.515 33.82 L 28.668 33.759 L 28.739 33.829 L 28.81 33.9 L 28.585 33.891 L 28.361 33.882 L 28.515 33.82 Z M 29.044 33.705 L 29.122 33.627 L 29.2 33.705 L 29.278 33.783 L 29.122 33.783 L 28.966 33.783 L 29.044 33.705 Z M 21.247 33.581 L 20.808 33.535 L 20.808 33.388 L 20.808 33.242 L 21.172 32.973 L 21.536 32.704 L 21.787 32.842 L 22.038 32.98 L 22.443 33.323 L 22.848 33.666 L 22.267 33.646 L 21.686 33.627 L 21.247 33.581 Z M 24.819 33.586 L 25.024 33.532 L 25.229 33.586 L 25.433 33.639 L 25.024 33.639 L 24.614 33.639 L 24.819 33.586 Z M 29.512 33.588 L 29.59 33.51 L 29.668 33.588 L 29.747 33.666 L 29.59 33.666 L 29.434 33.666 L 29.512 33.588 Z M 25.814 33.472 L 25.961 33.413 L 26.107 33.472 L 26.253 33.531 L 25.961 33.531 L 25.668 33.531 L 25.814 33.472 Z M 30.098 33.471 L 30.176 33.393 L 30.254 33.471 L 30.332 33.549 L 30.176 33.549 L 30.02 33.549 L 30.098 33.471 Z M 26.751 33.355 L 26.897 33.296 L 27.043 33.355 L 27.19 33.414 L 26.897 33.414 L 26.604 33.414 L 26.751 33.355 Z M 27.756 33.237 L 27.834 33.159 L 27.912 33.237 L 27.99 33.315 L 27.834 33.315 L 27.678 33.315 L 27.756 33.237 Z M 25.551 33.03 L 25.199 32.872 L 24.979 32.704 L 24.76 32.536 L 24.89 32.294 L 25.019 32.052 L 24.114 31.984 L 23.209 31.917 L 21.247 31.843 L 19.286 31.769 L 19.286 31.665 L 19.286 31.56 L 19.725 31.563 L 20.164 31.565 L 22.616 31.735 L 25.068 31.903 L 25.217 31.78 L 25.367 31.655 L 25.839 31.735 L 26.311 31.815 L 26.377 31.922 L 26.442 32.029 L 27.226 32.048 L 28.01 32.068 L 27.57 32.114 L 27.13 32.16 L 27.202 32.445 L 27.274 32.73 L 27.045 32.73 L 26.816 32.73 L 26.604 32.964 L 26.392 33.199 L 26.147 33.194 L 25.902 33.189 L 25.551 33.031 L 25.551 33.03 Z M 54.473 33.016 L 51.663 32.867 L 49.555 32.801 L 47.448 32.734 L 46.085 32.658 L 44.721 32.581 L 44.651 32.159 L 44.581 31.735 L 44.58 31.599 L 44.579 31.462 L 44.923 31.386 L 45.268 31.31 L 45.755 30.925 L 46.243 30.54 L 47.577 31.132 L 48.911 31.724 L 48.539 32.109 L 48.166 32.493 L 48.221 32.547 L 48.275 32.602 L 53.189 32.761 L 58.103 32.92 L 58.338 33.055 L 58.572 33.191 L 57.928 33.178 L 57.284 33.165 L 54.473 33.016 Z M 46.101 32.379 L 46.101 32.262 L 45.896 32.264 L 45.691 32.266 L 45.515 32.379 L 45.34 32.493 L 45.72 32.494 L 46.101 32.496 L 46.101 32.379 Z M 42.502 32.415 L 42.71 32.361 L 42.854 32.42 L 42.998 32.477 L 42.647 32.473 L 42.295 32.469 L 42.502 32.415 Z M 30.293 31.619 L 30.293 31.56 L 30.352 31.56 L 30.41 31.56 L 30.41 31.619 L 30.41 31.677 L 30.352 31.677 L 30.293 31.677 L 30.293 31.619 Z M 29.561 31.482 L 29.707 31.424 L 29.854 31.482 L 30 31.542 L 29.707 31.542 L 29.415 31.542 L 29.561 31.482 Z M 33.455 31.093 L 32.576 30.637 L 31.628 30.705 L 30.68 30.773 L 30.34 30.344 L 30 29.915 L 29.278 29.443 L 28.556 28.971 L 28.485 28.787 L 28.415 28.604 L 28.827 28.912 L 29.239 29.22 L 29.631 29.512 L 30.022 29.805 L 30.083 29.805 L 30.144 29.805 L 30.515 29.051 L 30.887 28.297 L 31.413 27.756 L 31.938 27.216 L 32.726 26.844 L 33.513 26.473 L 34.508 26.497 L 35.504 26.52 L 35.84 26.554 L 36.175 26.588 L 38.848 18.982 L 41.521 11.377 L 41.663 11.412 L 41.805 11.448 L 42.183 11.605 L 42.561 11.763 L 40.173 18.414 L 37.785 25.066 L 37.431 26.047 L 37.078 27.027 L 37.566 27.491 L 38.053 27.954 L 38.338 27.67 L 38.622 27.386 L 38.649 27.203 L 38.676 27.02 L 39.166 26.628 L 39.656 26.236 L 44.242 21.23 L 48.827 16.222 L 49.102 16.481 L 49.377 16.739 L 44.724 21.429 L 40.071 26.119 L 40.576 26.156 L 41.082 26.192 L 41.718 25.65 L 42.354 25.107 L 42.354 25.178 L 42.354 25.248 L 42.008 25.933 L 41.663 26.617 L 40.909 27.216 L 40.155 27.816 L 40.093 27.816 L 40.031 27.816 L 39.954 27.467 L 39.877 27.117 L 39.541 27.291 L 39.205 27.464 L 38.966 27.501 L 38.728 27.537 L 38.435 27.812 L 38.141 28.088 L 38.271 28.245 L 38.401 28.401 L 38.126 28.401 L 37.851 28.401 L 37.034 29.191 L 36.216 29.98 L 36.826 29.315 L 37.436 28.649 L 37.436 28.517 L 37.436 28.386 L 37.059 28.423 L 36.682 28.459 L 36.582 28.886 L 36.481 29.313 L 35.768 29.248 L 35.055 29.184 L 35.116 29.348 L 35.178 29.512 L 35.33 29.937 L 35.482 30.362 L 34.977 30.961 L 34.472 31.56 L 34.402 31.554 L 34.333 31.548 L 33.455 31.093 Z M 27.218 31.155 L 25.608 30.896 L 25.533 30.821 L 25.459 30.747 L 25.66 30.669 L 25.863 30.591 L 27.61 30.977 L 29.356 31.363 L 29.356 31.403 L 29.356 31.443 L 29.093 31.429 L 28.829 31.415 L 27.218 31.155 Z M 39.348 31.131 L 39.427 31.053 L 39.504 31.131 L 39.583 31.209 L 39.427 31.209 L 39.27 31.209 L 39.348 31.131 Z M 40.1 31.015 L 40.246 30.955 L 40.393 31.015 L 40.539 31.073 L 40.246 31.073 L 39.953 31.073 L 40.1 31.015 Z M 30.293 30.916 L 30.293 30.858 L 30.352 30.858 L 30.41 30.858 L 30.41 30.916 L 30.41 30.975 L 30.352 30.975 L 30.293 30.975 L 30.293 30.916 Z M 40.863 30.894 L 41.07 30.84 L 41.215 30.898 L 41.358 30.957 L 41.007 30.952 L 40.656 30.948 L 40.863 30.894 Z M 30.059 30.8 L 30.059 30.741 L 30.117 30.741 L 30.176 30.741 L 30.176 30.8 L 30.176 30.858 L 30.117 30.858 L 30.059 30.858 L 30.059 30.8 Z M 41.534 30.786 L 41.71 30.742 L 51.392 29.103 L 61.075 27.465 L 61.199 27.465 L 61.324 27.465 L 61.324 27.814 L 61.324 28.162 L 61.06 28.222 L 60.796 28.282 L 51.266 29.57 L 41.735 30.858 L 41.546 30.844 L 41.358 30.831 L 41.534 30.786 Z M 29.825 30.682 L 29.825 30.624 L 29.883 30.624 L 29.942 30.624 L 29.942 30.682 L 29.942 30.741 L 29.883 30.741 L 29.825 30.741 L 29.825 30.682 Z M 29.59 30.565 L 29.59 30.507 L 29.649 30.507 L 29.707 30.507 L 29.707 30.565 L 29.707 30.624 L 29.649 30.624 L 29.59 30.624 L 29.59 30.565 Z M 29.356 30.449 L 29.356 30.39 L 29.415 30.39 L 29.473 30.39 L 29.473 30.449 L 29.473 30.507 L 29.415 30.507 L 29.356 30.507 L 29.356 30.449 Z M 29.122 30.331 L 29.122 30.273 L 29.181 30.273 L 29.239 30.273 L 29.239 30.331 L 29.239 30.39 L 29.181 30.39 L 29.122 30.39 L 29.122 30.331 Z M 38.373 30.331 L 38.373 30.273 L 38.431 30.273 L 38.49 30.273 L 38.49 30.331 L 38.49 30.39 L 38.431 30.39 L 38.373 30.39 L 38.373 30.331 Z M 28.244 29.961 L 27.658 29.659 L 27.61 29.615 L 27.561 29.571 L 27.614 29.518 L 27.666 29.466 L 28.365 29.866 L 29.063 30.266 L 28.947 30.264 L 28.829 30.262 L 28.244 29.961 Z M 38.841 30.215 L 38.841 30.156 L 38.899 30.156 L 38.958 30.156 L 38.958 30.215 L 38.958 30.273 L 38.899 30.273 L 38.841 30.273 L 38.841 30.215 Z M 39.348 30.078 L 39.427 30 L 39.504 30.078 L 39.583 30.156 L 39.427 30.156 L 39.27 30.156 L 39.348 30.078 Z M 39.756 29.959 L 39.909 29.898 L 39.98 29.968 L 40.051 30.039 L 39.827 30.03 L 39.602 30.02 L 39.756 29.959 Z M 40.188 29.86 L 40.305 29.817 L 49.204 27.514 L 58.103 25.212 L 58.229 25.164 L 58.354 25.116 L 58.497 25.428 L 58.639 25.74 L 58.605 25.765 L 58.572 25.791 L 49.438 27.857 L 40.305 29.922 L 40.188 29.913 L 40.071 29.903 L 40.188 29.86 Z M 37.728 29.688 L 37.801 29.571 L 37.859 29.571 L 37.918 29.571 L 37.846 29.688 L 37.773 29.805 L 37.715 29.805 L 37.656 29.805 L 37.728 29.688 Z M 38.841 29.746 L 38.841 29.688 L 38.899 29.688 L 38.958 29.688 L 38.958 29.746 L 38.958 29.805 L 38.899 29.805 L 38.841 29.805 L 38.841 29.746 Z M 39.192 29.63 L 39.192 29.571 L 39.251 29.571 L 39.309 29.571 L 39.309 29.63 L 39.309 29.688 L 39.251 29.688 L 39.192 29.688 L 39.192 29.63 Z M 38.08 29.487 L 38.197 29.369 L 43.408 25.71 L 48.619 22.051 L 49.006 21.763 L 49.393 21.475 L 49.357 22.023 L 49.321 22.571 L 43.759 26.022 L 38.197 29.474 L 38.08 29.54 L 37.963 29.605 L 38.08 29.487 Z M 39.431 29.537 L 39.493 29.465 L 42.435 28.069 L 45.376 26.673 L 45.431 26.961 L 45.486 27.248 L 45.238 27.342 L 44.988 27.437 L 42.354 28.457 L 39.719 29.477 L 39.543 29.543 L 39.368 29.608 L 39.431 29.537 Z M 37.202 26.938 L 37.202 26.88 L 37.26 26.88 L 37.319 26.88 L 37.319 26.938 L 37.319 26.997 L 37.26 26.997 L 37.202 26.997 L 37.202 26.938 Z M 39.267 22.872 L 41.24 18.923 L 41.373 18.923 L 41.505 18.923 L 41.639 19.084 L 41.772 19.245 L 39.612 22.956 L 37.453 26.668 L 37.373 26.745 L 37.293 26.821 L 39.267 22.872 Z M 48.347 26.266 L 47.373 26.153 L 47.446 25.96 L 47.519 25.768 L 47.776 25.389 L 48.033 25.009 L 48.095 25.008 L 48.158 25.007 L 48.853 25.71 L 49.548 26.412 L 49.434 26.396 L 49.321 26.379 L 48.347 26.266 Z M 36.031 26.236 L 36.031 26.178 L 36.089 26.178 L 36.148 26.178 L 36.148 26.236 L 36.148 26.295 L 36.089 26.295 L 36.031 26.295 L 36.031 26.236 Z M 36.148 25.827 L 36.148 25.671 L 36.226 25.749 L 36.304 25.827 L 36.226 25.905 L 36.148 25.983 L 36.148 25.827 Z M 36.28 25.534 L 36.276 25.417 L 37.422 20.977 L 38.568 16.538 L 38.68 16.501 L 38.792 16.463 L 38.983 16.611 L 39.174 16.759 L 37.777 21.088 L 36.379 25.417 L 36.331 25.534 L 36.283 25.651 L 36.28 25.534 Z M 54.416 23.249 L 53.774 22.785 L 53.372 23.186 L 52.971 23.588 L 52.518 23.333 L 52.066 23.077 L 52.139 22.609 L 52.213 22.141 L 52.371 21.976 L 52.529 21.81 L 53.161 21.758 L 53.792 21.706 L 54.017 21.004 L 54.242 20.303 L 54.738 21.169 L 55.235 22.037 L 55.235 22.879 L 55.235 23.721 L 55.147 23.717 L 55.059 23.713 L 54.416 23.249 Z M 41.319 22.512 L 41.064 22.24 L 41.138 21.84 L 41.211 21.439 L 41.366 21.191 L 41.52 20.942 L 41.814 20.942 L 42.107 20.942 L 42.229 21.292 L 42.352 21.642 L 42.275 21.95 L 42.199 22.258 L 42.013 22.518 L 41.827 22.777 L 41.701 22.781 L 41.575 22.785 L 41.319 22.512 Z M 36.558 19.629 L 36.476 19.142 L 36.194 19.014 L 35.913 18.886 L 35.913 18.781 L 35.913 18.676 L 36.04 18.174 L 36.167 17.672 L 36.445 17.726 L 36.722 17.779 L 36.799 17.474 L 36.876 17.169 L 37.195 17.169 L 37.515 17.169 L 37.712 17.878 L 37.909 18.588 L 37.356 19.253 L 36.803 19.918 L 36.722 20.017 L 36.641 20.116 L 36.558 19.629 Z"/>
  </g>
</svg>