<?xml version="1.0" encoding="utf-8"?>
<svg width="85px" height="85px" viewBox="0 0 85 85" version="1.1" id="svg5" preserveAspectRatio="xMidYMin" xmlns="http://www.w3.org/2000/svg">
  <g>
    <path style="fill: rgb(247, 148, 40);" d="M 21.265 63.72 L 0 42.441 L 21.206 21.22 C 32.869 9.549 42.464 0 42.53 0 C 42.685 0 85 42.344 85 42.5 C 85 42.617 42.706 85 42.589 85 C 42.556 85 32.961 75.424 21.265 63.72 Z"/>
    <path style="" d="M 23.691 61.25 L 5 42.5 L 23.691 23.75 C 33.971 13.437 42.436 5 42.5 5 C 42.565 5 51.029 13.437 61.309 23.75 L 80 42.499 L 61.309 61.25 C 51.03 71.562 42.566 80 42.501 80 C 42.436 80 33.971 71.562 23.691 61.25 Z M 60.575 60.69 C 70.451 50.783 78.532 42.597 78.532 42.5 C 78.532 42.307 42.692 6.297 42.5 6.297 C 42.435 6.297 34.263 14.443 24.338 24.398 L 6.294 42.499 L 24.338 60.601 C 34.262 70.557 42.435 78.703 42.5 78.703 C 42.565 78.703 50.698 70.597 60.575 60.69 Z M 41.912 74.435 C 41.881 74.35 41.842 73.219 41.825 71.922 L 41.795 69.564 L 41.031 69.505 C 40.269 69.446 40.267 69.445 40.23 69.062 C 40.195 68.7 40.214 68.679 40.583 68.679 C 41.115 68.679 41.723 68.339 41.955 67.913 C 42.211 67.443 42.318 67.374 42.735 67.41 L 43.088 67.441 L 43.088 70.979 L 43.088 74.517 L 42.529 74.552 C 42.149 74.577 41.951 74.539 41.912 74.435 Z M 40.736 62.753 L 40.429 62.488 L 40.917 61.804 C 41.185 61.428 41.379 61.055 41.349 60.975 C 41.318 60.895 40.998 60.737 40.637 60.622 C 40.276 60.508 39.951 60.366 39.914 60.307 C 39.878 60.248 39.925 60.013 40.02 59.785 L 40.193 59.371 L 40.865 59.603 C 41.749 59.908 41.854 59.818 41.854 58.759 L 41.854 57.948 L 42.383 57.948 L 42.912 57.948 L 42.914 58.744 C 42.916 59.865 42.966 59.917 43.82 59.677 C 44.202 59.569 44.545 59.481 44.583 59.481 C 44.689 59.481 44.916 60.202 44.846 60.315 C 44.812 60.37 44.489 60.508 44.129 60.622 C 43.768 60.737 43.447 60.895 43.417 60.975 C 43.386 61.055 43.581 61.428 43.849 61.804 L 44.337 62.488 L 44.029 62.753 C 43.86 62.899 43.65 63.019 43.563 63.019 C 43.476 63.019 43.214 62.754 42.982 62.429 C 42.75 62.105 42.485 61.84 42.393 61.84 C 42.301 61.84 42.032 62.105 41.795 62.429 C 41.558 62.754 41.292 63.019 41.204 63.019 C 41.116 63.019 40.906 62.899 40.736 62.753 Z M 32.857 41.527 C 32.827 41.446 32.789 38.833 32.773 35.719 L 32.743 30.059 L 30.803 30 L 28.864 29.941 L 28.83 28.85 C 28.811 28.25 28.838 27.759 28.889 27.758 C 29.565 27.751 31.195 27.463 31.638 27.271 C 32.423 26.933 33.096 26.171 33.333 25.351 L 33.524 24.693 L 34.809 24.693 L 36.094 24.693 L 36.094 33.184 L 36.094 41.675 L 34.503 41.675 C 33.338 41.675 32.897 41.635 32.857 41.527 Z M 39.084 41.521 C 39.052 41.436 39.04 40.68 39.058 39.84 L 39.091 38.314 L 40.825 38.281 L 42.559 38.248 L 42.559 39.961 L 42.559 41.675 L 40.851 41.675 C 39.556 41.675 39.128 41.637 39.084 41.521 Z M 52.081 39.918 C 52.081 38.426 52.053 38.151 51.895 38.09 C 51.793 38.051 50.153 38.019 48.251 38.019 L 44.793 38.019 L 44.793 36.608 L 44.793 35.197 L 47.858 30.329 C 49.544 27.651 51.011 25.392 51.117 25.31 C 51.26 25.199 51.819 25.168 53.254 25.192 L 55.197 25.224 L 55.255 30.295 L 55.314 35.366 L 56.255 35.425 L 57.195 35.483 L 57.228 36.751 L 57.262 38.019 L 56.4 38.019 C 55.886 38.019 55.48 38.076 55.396 38.16 C 55.3 38.257 55.255 38.834 55.255 39.988 L 55.255 41.675 L 53.668 41.675 L 52.081 41.675 L 52.081 39.918 Z M 52.054 31.966 C 52.083 28.798 52.071 28.57 51.882 28.606 C 51.648 28.651 47.511 34.9 47.502 35.221 C 47.497 35.415 47.658 35.427 49.76 35.398 L 52.022 35.366 L 52.054 31.966 Z"/>
  </g>
</svg>