<?xml version="1.0" encoding="utf-8"?>
<svg width="85px" height="85px" viewBox="0 0 85 85" version="1.1" id="svg5" preserveAspectRatio="xMidYMin" xmlns="http://www.w3.org/2000/svg">
  <g>
    <path style="fill: rgb(247, 148, 40);" d="M 21.167 63.824 C 9.525 52.177 0 42.595 0 42.529 C 0 42.464 9.539 32.868 21.197 21.205 L 42.393 0 L 63.635 21.25 C 75.317 32.937 84.909 42.493 84.95 42.485 C 84.991 42.477 85.011 42.51 84.994 42.559 C 84.978 42.608 84.935 42.638 84.898 42.626 C 84.861 42.614 75.296 52.143 63.642 63.802 C 51.988 75.461 42.426 85 42.393 85 C 42.361 85 32.809 75.471 21.167 63.824 Z"/>
    <path d="M 23.707 61.333 C 13.437 51.068 5.019 42.613 5 42.543 C 4.961 42.396 42.431 4.95 42.567 5 C 42.691 5.046 79.81 42.096 79.994 42.358 C 80.128 42.548 78.218 44.494 61.403 61.287 C 51.096 71.582 42.599 80.003 42.522 80 C 42.444 79.998 33.978 71.598 23.707 61.333 Z M 60.715 60.699 C 70.621 50.798 78.726 42.608 78.726 42.501 C 78.726 42.32 42.829 6.387 42.558 6.296 C 42.389 6.24 6.254 42.38 6.296 42.563 C 6.349 42.795 42.36 78.698 42.542 78.7 C 42.631 78.702 50.809 70.601 60.715 60.699 Z M 42.086 72.267 C 42.086 70.448 42.049 69.825 41.935 69.73 C 41.851 69.66 41.467 69.587 41.08 69.567 C 40.386 69.531 40.378 69.527 40.378 69.176 C 40.378 68.847 40.415 68.816 40.881 68.753 C 41.461 68.676 41.96 68.345 42.181 67.893 C 42.308 67.632 42.413 67.578 42.799 67.578 L 43.264 67.578 L 43.264 71.129 L 43.264 74.679 L 42.675 74.679 L 42.086 74.679 L 42.086 72.267 Z M 40.937 62.883 C 40.792 62.781 40.672 62.65 40.672 62.592 C 40.672 62.533 40.864 62.196 41.099 61.841 C 41.333 61.486 41.495 61.118 41.459 61.022 C 41.423 60.927 41.093 60.754 40.727 60.638 C 40.062 60.428 40.061 60.426 40.126 60.019 C 40.163 59.794 40.234 59.571 40.285 59.522 C 40.336 59.474 40.678 59.528 41.045 59.644 C 41.411 59.759 41.767 59.82 41.834 59.778 C 41.901 59.736 41.972 59.331 41.992 58.877 L 42.027 58.052 L 42.557 58.052 L 43.087 58.052 L 43.122 58.969 C 43.161 60.014 43.174 60.023 44.145 59.691 C 44.687 59.506 44.722 59.507 44.873 59.714 C 45.209 60.175 45.078 60.42 44.376 60.642 C 44.016 60.756 43.692 60.927 43.656 61.022 C 43.619 61.118 43.781 61.486 44.016 61.841 C 44.25 62.196 44.442 62.518 44.442 62.557 C 44.442 62.687 43.916 63.073 43.735 63.077 C 43.638 63.079 43.378 62.815 43.157 62.489 C 42.937 62.164 42.671 61.899 42.568 61.9 C 42.465 61.902 42.195 62.167 41.968 62.489 C 41.529 63.114 41.359 63.179 40.937 62.883 Z M 49.566 43.673 C 47.119 43.336 45.51 41.718 44.739 38.821 C 44.474 37.821 44.359 34.192 44.548 32.764 C 44.861 30.401 45.533 28.847 46.728 27.725 C 47.993 26.536 49.429 26.052 51.267 26.196 C 53.712 26.386 55.398 27.549 55.99 29.454 C 56.118 29.868 56.223 30.254 56.223 30.312 C 56.223 30.371 55.485 30.418 54.583 30.418 L 52.943 30.418 L 52.813 30.024 C 52.552 29.229 51.765 28.722 50.794 28.722 C 49.127 28.722 48.232 29.784 47.799 32.274 C 47.6 33.422 47.674 33.671 48.127 33.38 C 49.511 32.49 50.642 32.223 52.129 32.434 C 55.382 32.895 57.218 35.895 56.395 39.401 C 56.041 40.912 54.917 42.483 53.77 43.071 C 52.746 43.595 50.911 43.858 49.566 43.673 Z M 51.701 40.961 C 52.653 40.527 53.197 39.473 53.202 38.051 C 53.205 37.277 53.15 36.983 52.899 36.432 C 52.201 34.905 50.408 34.372 48.995 35.271 C 48.681 35.472 48.334 35.838 48.134 36.178 C 47.827 36.703 47.8 36.846 47.8 37.933 C 47.8 38.921 47.842 39.195 48.055 39.59 C 48.376 40.187 48.975 40.767 49.508 40.999 C 50.081 41.248 51.112 41.23 51.701 40.961 Z M 32.19 37.346 C 32.19 31.679 32.182 31.488 31.962 31.369 C 31.834 31.3 30.957 31.247 29.959 31.247 L 28.184 31.247 L 28.184 30.25 L 28.184 29.254 L 28.979 29.173 C 31.231 28.946 32.129 28.378 32.644 26.855 L 32.86 26.217 L 34.086 26.217 L 35.312 26.217 L 35.342 34.708 L 35.372 43.199 L 33.781 43.199 L 32.19 43.199 L 32.19 37.346 Z M 38.434 41.483 L 38.434 39.767 L 40.142 39.767 L 41.85 39.767 L 41.85 41.483 L 41.85 43.199 L 40.142 43.199 L 38.434 43.199 L 38.434 41.483 Z"/>
  </g>
</svg>