<?xml version="1.0" encoding="utf-8"?>
<svg width="85px" height="85px" viewBox="0 0 85 85" version="1.1" id="svg8" preserveAspectRatio="xMidYMin" xmlns="http://www.w3.org/2000/svg">
  <g>
    <path style="fill: rgb(247, 148, 40);" d="M 21.25 63.75 L 0 42.5 L 21.25 21.25 L 42.501 0 L 63.75 21.25 L 85 42.5 L 63.75 63.75 L 42.5 85 L 21.25 63.75 Z"/>
    <path style="" d="M 23.779 61.279 L 5.058 42.559 L 23.809 23.808 L 42.558 5.058 L 61.279 23.779 L 80 42.5 L 61.25 61.25 L 42.5 80 L 23.779 61.279 Z M 60.518 60.46 L 78.42 42.559 L 60.46 24.598 L 42.5 6.638 L 24.54 24.598 L 6.58 42.559 L 24.481 60.46 L 42.382 78.362 L 42.5 78.362 L 42.617 78.362 L 60.518 60.46 Z M 40.893 71.196 L 40.862 68.709 L 40.007 68.675 L 39.151 68.64 L 39.188 68.207 L 39.224 67.773 L 39.76 67.711 L 40.297 67.65 L 40.59 67.457 L 40.885 67.265 L 41.034 66.905 L 41.183 66.544 L 41.754 66.544 L 42.324 66.544 L 42.324 70.113 L 42.324 73.682 L 41.624 73.682 L 40.925 73.682 L 40.893 71.196 Z M 40.125 63.388 L 39.857 63.164 L 40.213 62.672 L 40.569 62.18 L 40.569 62.096 L 40.569 62.012 L 40.032 61.861 L 39.494 61.711 L 39.565 61.358 L 39.636 61.004 L 39.692 60.947 L 39.748 60.891 L 40.202 61.027 L 40.655 61.163 L 40.788 61.163 L 40.92 61.163 L 40.92 60.519 L 40.92 59.875 L 41.388 59.875 L 41.856 59.875 L 41.856 60.519 L 41.856 61.163 L 42.014 61.163 L 42.172 61.163 L 42.55 61.031 L 42.927 60.899 L 43.027 61.002 L 43.127 61.104 L 43.202 61.408 L 43.277 61.712 L 42.742 61.862 L 42.207 62.012 L 42.21 62.143 L 42.213 62.274 L 42.562 62.735 L 42.911 63.196 L 42.541 63.431 L 42.171 63.666 L 41.838 63.267 L 41.505 62.868 L 41.505 62.776 L 41.505 62.683 L 41.417 62.686 L 41.329 62.689 L 41 63.154 L 40.671 63.62 L 40.532 63.616 L 40.393 63.612 L 40.125 63.388 Z M 42.948 56.43 L 42.577 56.267 L 42.45 56.031 L 42.324 55.795 L 42.324 55.671 L 42.324 55.546 L 42.599 55.546 L 42.873 55.546 L 43.085 55.78 L 43.296 56.014 L 43.489 56.014 L 43.682 56.014 L 43.822 55.874 L 43.962 55.733 L 43.962 55.429 L 43.962 55.125 L 43.822 54.985 L 43.682 54.844 L 43.471 54.844 L 43.26 54.844 L 43.26 54.618 L 43.26 54.392 L 43.488 54.32 L 43.717 54.247 L 43.79 54.014 L 43.865 53.78 L 43.724 53.61 L 43.583 53.44 L 43.428 53.44 L 43.273 53.44 L 43.1 53.689 L 42.925 53.937 L 42.623 53.861 L 42.321 53.786 L 42.494 53.451 L 42.667 53.117 L 42.856 53.045 L 43.046 52.972 L 43.478 52.972 L 43.91 52.972 L 44.17 53.154 L 44.43 53.336 L 44.43 53.783 L 44.43 54.23 L 44.254 54.377 L 44.078 54.523 L 44.371 54.795 L 44.664 55.067 L 44.664 55.36 L 44.664 55.652 L 44.539 55.927 L 44.414 56.202 L 44.214 56.327 L 44.013 56.452 L 43.666 56.523 L 43.319 56.593 L 42.948 56.43 Z M 39.165 55.254 L 39.165 54.025 L 39.078 54.029 L 38.99 54.032 L 38.763 54.204 L 38.535 54.376 L 38.441 54.376 L 38.346 54.376 L 38.346 54.129 L 38.346 53.881 L 38.843 53.431 L 39.341 52.981 L 39.604 52.977 L 39.867 52.972 L 39.867 54.727 L 39.867 56.482 L 39.516 56.482 L 39.165 56.482 L 39.165 55.253 L 39.165 55.254 Z M 41.037 56.19 L 41.037 55.897 L 41.388 55.897 L 41.739 55.897 L 41.739 56.19 L 41.739 56.482 L 41.388 56.482 L 41.037 56.482 L 41.037 56.19 Z M 24.296 40.583 L 24.013 40.352 L 24.13 40.244 L 24.247 40.135 L 27.523 37.528 L 30.799 34.921 L 30.952 34.78 L 31.106 34.639 L 30.853 34.211 L 30.601 33.783 L 30.52 33.783 L 30.44 33.783 L 28.693 34.368 L 26.947 34.953 L 26.855 34.953 L 26.763 34.953 L 26.763 34.806 L 26.763 34.658 L 28.501 34.209 L 30.24 33.759 L 30.403 33.656 L 30.565 33.553 L 30.331 33.549 L 30.097 33.546 L 30.239 33.455 L 30.382 33.365 L 30.216 32.813 L 30.05 32.262 L 30.163 32.262 L 30.276 32.262 L 31.12 32.496 L 31.964 32.73 L 32.048 32.73 L 32.131 32.73 L 32.799 32.146 L 33.468 31.561 L 33.655 31.704 L 33.841 31.847 L 34.628 32.532 L 35.415 33.217 L 36.173 32.727 L 36.93 32.238 L 36.965 31.757 L 37.001 31.277 L 37.677 31.938 L 38.353 32.6 L 38.594 32.676 L 38.836 32.753 L 38.778 32.971 L 38.721 33.19 L 38.914 33.241 L 39.107 33.293 L 43.225 33.857 L 47.344 34.422 L 47.275 34.951 L 47.206 35.48 L 47.184 35.508 L 47.163 35.536 L 45.385 35.079 L 43.608 34.622 L 43.961 34.951 L 44.314 35.281 L 44.314 35.585 L 44.314 35.889 L 44.133 35.889 L 43.952 35.889 L 42.758 35.693 L 41.564 35.496 L 41.071 35.137 L 40.579 34.778 L 40.574 34.712 L 40.569 34.647 L 40.719 34.442 L 40.868 34.238 L 41.363 34.35 L 41.858 34.461 L 41.927 34.348 L 41.997 34.235 L 41.956 34.205 L 41.915 34.173 L 40.299 33.765 L 38.683 33.357 L 38.573 33.562 L 38.463 33.768 L 38.463 33.874 L 38.463 33.979 L 41.082 35.414 L 43.701 36.848 L 43.833 37.136 L 43.964 37.425 L 43.876 37.373 L 43.787 37.321 L 41.161 35.715 L 38.534 34.109 L 38.382 34.051 L 38.229 33.992 L 38.229 34.158 L 38.229 34.323 L 41.274 36.526 L 44.318 38.728 L 44.382 38.831 L 44.445 38.933 L 44.276 38.998 L 44.106 39.063 L 41.094 36.704 L 38.082 34.346 L 37.982 34.503 L 37.882 34.661 L 37.88 34.732 L 37.878 34.802 L 40.013 36.358 L 42.149 37.914 L 42.295 38.094 L 42.442 38.274 L 42.442 38.421 L 42.442 38.568 L 40.112 36.696 L 37.781 34.825 L 37.157 35.298 L 36.533 35.772 L 35.948 35.976 L 35.363 36.18 L 34.427 36.177 L 33.491 36.174 L 32.833 35.87 L 32.175 35.565 L 31.695 35.131 L 31.215 34.697 L 30.337 35.498 L 29.458 36.299 L 29.456 36.386 L 29.454 36.474 L 29.898 36.474 L 30.343 36.474 L 30.473 36.604 L 30.603 36.734 L 30.484 37.075 L 30.365 37.416 L 30.131 37.541 L 29.897 37.666 L 29.778 37.547 L 29.658 37.427 L 29.385 37.531 L 29.113 37.635 L 28.879 37.339 L 28.646 37.042 L 27.149 38.418 L 25.651 39.793 L 25.115 40.304 L 24.579 40.814 L 24.296 40.583 Z M 21.455 38.583 L 21.146 38.117 L 21.146 37.947 L 21.146 37.776 L 21.264 37.469 L 21.381 37.16 L 21.702 37.388 L 22.024 37.615 L 22.22 37.49 L 22.415 37.364 L 22.725 37.505 L 23.034 37.646 L 22.953 37.909 L 22.873 38.171 L 22.756 38.317 L 22.639 38.463 L 22.363 38.463 L 22.087 38.463 L 22.014 38.756 L 21.94 39.048 L 21.851 39.048 L 21.762 39.048 L 21.455 38.583 Z M 24.54 37.271 L 24.541 37.118 L 26.033 36.31 L 27.523 35.502 L 28.401 35.034 L 29.278 34.565 L 29.161 34.68 L 29.044 34.796 L 26.88 36.06 L 24.715 37.325 L 24.627 37.374 L 24.54 37.424 L 24.54 37.271 Z M 19.157 36.084 L 19.157 35.927 L 23.223 35.028 L 27.289 34.128 L 27.406 34.142 L 27.523 34.155 L 23.428 35.194 L 19.333 36.233 L 19.245 36.237 L 19.157 36.241 L 19.157 36.084 Z M 24.598 35.538 L 24.262 35.187 L 24.503 35.187 L 24.744 35.187 L 25.11 35.26 L 25.476 35.334 L 25.476 35.54 L 25.476 35.747 L 25.29 35.818 L 25.106 35.889 L 25.02 35.889 L 24.934 35.889 L 24.598 35.538 Z M 15.296 34.851 L 15.296 34.748 L 15.618 34.688 L 15.94 34.628 L 19.413 34.237 L 22.887 33.846 L 22.748 33.758 L 22.609 33.67 L 22.126 33.668 L 21.644 33.666 L 21.278 33.593 L 20.912 33.52 L 20.912 33.367 L 20.912 33.214 L 21.27 32.96 L 21.627 32.705 L 22.313 33.244 L 22.999 33.783 L 23.447 33.795 L 23.896 33.807 L 19.801 34.377 L 15.706 34.946 L 15.501 34.949 L 15.296 34.953 L 15.296 34.851 Z M 29.337 34.544 L 29.337 34.485 L 29.395 34.485 L 29.454 34.485 L 29.454 34.544 L 29.454 34.602 L 29.395 34.602 L 29.337 34.602 L 29.337 34.544 Z M 29.629 34.368 L 29.702 34.251 L 29.76 34.251 L 29.819 34.251 L 29.746 34.368 L 29.674 34.485 L 29.615 34.485 L 29.557 34.485 L 29.629 34.368 Z M 29.922 34.193 L 29.922 34.134 L 29.98 34.134 L 30.039 34.134 L 30.039 34.193 L 30.039 34.251 L 29.98 34.251 L 29.922 34.251 L 29.922 34.193 Z M 27.677 34.054 L 27.83 33.993 L 27.901 34.063 L 27.972 34.134 L 27.747 34.125 L 27.523 34.116 L 27.677 34.054 Z M 30.156 34.075 L 30.156 34.017 L 30.214 34.017 L 30.273 34.017 L 30.273 34.075 L 30.273 34.134 L 30.214 34.134 L 30.156 34.134 L 30.156 34.075 Z M 28.138 33.94 L 28.284 33.88 L 28.43 33.94 L 28.576 33.998 L 28.284 33.998 L 27.991 33.998 L 28.138 33.94 Z M 28.73 33.82 L 28.884 33.759 L 28.954 33.83 L 29.025 33.9 L 28.8 33.891 L 28.576 33.882 L 28.73 33.82 Z M 24.101 33.703 L 24.306 33.649 L 24.51 33.703 L 24.715 33.756 L 24.306 33.756 L 23.896 33.756 L 24.101 33.703 Z M 29.198 33.703 L 29.351 33.642 L 29.422 33.712 L 29.493 33.783 L 29.269 33.774 L 29.044 33.765 L 29.198 33.703 Z M 25.037 33.585 L 25.242 33.532 L 25.447 33.585 L 25.651 33.639 L 25.242 33.639 L 24.832 33.639 L 25.037 33.585 Z M 29.727 33.588 L 29.805 33.51 L 29.883 33.588 L 29.961 33.666 L 29.805 33.666 L 29.649 33.666 L 29.727 33.588 Z M 26.031 33.472 L 26.178 33.413 L 26.324 33.472 L 26.47 33.531 L 26.178 33.531 L 25.885 33.531 L 26.031 33.472 Z M 27.092 33.352 L 27.246 33.291 L 27.316 33.362 L 27.387 33.432 L 27.162 33.423 L 26.938 33.414 L 27.092 33.352 Z M 27.972 33.237 L 28.05 33.159 L 28.128 33.237 L 28.206 33.315 L 28.05 33.315 L 27.894 33.315 L 27.972 33.237 Z M 25.534 33.08 L 25.3 32.976 L 25.023 32.754 L 24.746 32.533 L 24.874 32.292 L 25.003 32.052 L 23.396 31.979 L 21.79 31.906 L 20.532 31.837 L 19.274 31.769 L 19.274 31.664 L 19.274 31.56 L 19.538 31.562 L 19.801 31.564 L 22.196 31.734 L 24.591 31.904 L 25.443 31.832 L 26.295 31.76 L 26.295 31.894 L 26.295 32.028 L 26.967 32.042 L 27.64 32.055 L 27.435 32.109 L 27.231 32.162 L 27.231 32.505 L 27.231 32.847 L 26.935 32.847 L 26.638 32.847 L 26.571 33.023 L 26.503 33.198 L 26.136 33.191 L 25.768 33.183 L 25.534 33.08 Z M 53.849 33.015 L 51.041 32.865 L 48.742 32.798 L 46.443 32.732 L 46.257 32.66 L 46.07 32.589 L 46.13 32.492 L 46.189 32.395 L 46.076 32.325 L 45.962 32.255 L 45.639 32.336 L 45.317 32.417 L 45.546 32.507 L 45.776 32.597 L 45.015 32.591 L 44.255 32.586 L 44.461 32.532 L 44.667 32.479 L 44.636 32.005 L 44.606 31.531 L 45.071 31.367 L 45.535 31.204 L 45.837 30.914 L 46.14 30.624 L 46.25 30.624 L 46.361 30.624 L 47.609 31.175 L 48.857 31.726 L 48.506 32.17 L 48.155 32.613 L 48.194 32.616 L 48.233 32.62 L 53.18 32.788 L 58.126 32.957 L 58.328 33.074 L 58.53 33.191 L 57.593 33.178 L 56.657 33.165 L 53.849 33.015 Z M 41.834 32.416 L 41.988 32.355 L 42.059 32.425 L 42.129 32.496 L 41.905 32.487 L 41.681 32.478 L 41.834 32.416 Z M 30.195 31.599 L 30.273 31.521 L 30.351 31.599 L 30.429 31.677 L 30.273 31.677 L 30.117 31.677 L 30.195 31.599 Z M 27.503 31.224 L 25.612 30.917 L 25.527 30.832 L 25.442 30.747 L 25.627 30.676 L 25.811 30.605 L 27.72 31.028 L 29.629 31.451 L 29.746 31.496 L 29.863 31.542 L 29.629 31.537 L 29.395 31.533 L 27.503 31.224 Z M 33.432 31.098 L 32.554 30.649 L 32.477 30.695 L 32.401 30.741 L 31.543 30.755 L 30.686 30.768 L 30.275 30.301 L 29.863 29.834 L 29.199 29.399 L 28.534 28.964 L 28.465 28.783 L 28.395 28.602 L 28.544 28.716 L 28.693 28.829 L 29.409 29.371 L 30.125 29.912 L 30.552 29.049 L 30.979 28.185 L 31.558 27.664 L 32.138 27.143 L 32.697 26.865 L 33.257 26.588 L 34.426 26.588 L 35.596 26.588 L 35.872 26.646 L 36.148 26.704 L 38.841 19.023 L 41.533 11.342 L 42.016 11.56 L 42.5 11.778 L 42.461 11.977 L 42.422 12.176 L 39.797 19.487 L 37.172 26.798 L 37.216 26.841 L 37.26 26.886 L 39.272 22.905 L 41.285 18.923 L 41.366 18.927 L 41.447 18.931 L 41.629 19.073 L 41.811 19.216 L 39.493 23.193 L 37.176 27.17 L 37.179 27.23 L 37.181 27.289 L 37.629 27.607 L 38.078 27.923 L 38.387 27.6 L 38.697 27.277 L 38.697 27.14 L 38.697 27.002 L 39.007 26.799 L 39.318 26.596 L 43.88 21.619 L 48.442 16.642 L 48.636 16.434 L 48.83 16.227 L 49.089 16.502 L 49.348 16.777 L 44.714 21.478 L 40.08 26.178 L 40.613 26.178 L 41.146 26.178 L 41.589 25.804 L 42.032 25.429 L 42.258 25.248 L 42.484 25.066 L 42.072 25.827 L 41.661 26.587 L 40.938 27.202 L 40.215 27.816 L 40.1 27.816 L 39.984 27.816 L 39.984 27.578 L 39.984 27.341 L 39.819 27.278 L 39.654 27.214 L 39.289 27.403 L 38.924 27.591 L 38.828 27.532 L 38.731 27.472 L 38.455 27.766 L 38.179 28.06 L 38.322 28.289 L 38.465 28.518 L 38.088 28.518 L 37.711 28.518 L 37.122 29.074 L 36.533 29.63 L 37.059 29.066 L 37.586 28.503 L 37.124 28.54 L 36.663 28.576 L 36.566 28.955 L 36.469 29.333 L 35.769 29.26 L 35.07 29.187 L 35.07 29.252 L 35.07 29.317 L 35.29 29.832 L 35.511 30.346 L 35.027 30.947 L 34.544 31.548 L 34.426 31.549 L 34.31 31.549 L 33.432 31.099 L 33.432 31.098 Z M 38.814 31.268 L 38.814 31.209 L 38.873 31.209 L 38.931 31.209 L 38.931 31.268 L 38.931 31.326 L 38.873 31.326 L 38.814 31.326 L 38.814 31.268 Z M 39.555 31.131 L 39.633 31.053 L 39.711 31.131 L 39.789 31.209 L 39.633 31.209 L 39.477 31.209 L 39.555 31.131 Z M 40.306 31.015 L 40.452 30.956 L 40.598 31.015 L 40.745 31.074 L 40.452 31.074 L 40.16 31.074 L 40.306 31.015 Z M 40.979 30.922 L 41.096 30.867 L 50.866 29.222 L 60.636 27.577 L 60.957 27.512 L 61.279 27.446 L 61.279 27.84 L 61.279 28.232 L 51.48 29.559 L 41.681 30.886 L 41.271 30.932 L 40.862 30.977 L 40.979 30.922 Z M 29.805 30.683 L 29.805 30.624 L 29.863 30.624 L 29.922 30.624 L 29.922 30.683 L 29.922 30.741 L 29.863 30.741 L 29.805 30.741 L 29.805 30.683 Z M 28.547 30.123 L 27.582 29.636 L 27.582 29.552 L 27.582 29.468 L 28.605 30.006 L 29.629 30.545 L 29.678 30.584 L 29.727 30.624 L 29.619 30.617 L 29.512 30.61 L 28.547 30.123 Z M 38.463 30.332 L 38.463 30.273 L 38.522 30.273 L 38.58 30.273 L 38.58 30.332 L 38.58 30.39 L 38.522 30.39 L 38.463 30.39 L 38.463 30.332 Z M 38.97 30.195 L 39.048 30.117 L 39.126 30.195 L 39.204 30.273 L 39.048 30.273 L 38.892 30.273 L 38.97 30.195 Z M 39.438 30.078 L 39.516 30 L 39.594 30.078 L 39.672 30.156 L 39.516 30.156 L 39.36 30.156 L 39.438 30.078 Z M 39.867 30.01 L 39.926 29.948 L 49.002 27.595 L 58.077 25.242 L 58.211 25.242 L 58.346 25.242 L 58.476 25.486 L 58.607 25.73 L 58.563 25.774 L 58.519 25.817 L 49.515 27.86 L 40.511 29.903 L 40.16 29.987 L 39.809 30.072 L 39.867 30.01 Z M 37.527 29.863 L 37.527 29.805 L 37.586 29.805 L 37.644 29.805 L 37.644 29.863 L 37.644 29.922 L 37.586 29.922 L 37.527 29.922 L 37.527 29.863 Z M 38.931 29.746 L 38.931 29.688 L 38.99 29.688 L 39.048 29.688 L 39.048 29.746 L 39.048 29.805 L 38.99 29.805 L 38.931 29.805 L 38.931 29.746 Z M 37.878 29.663 L 37.937 29.592 L 43.611 25.593 L 49.286 21.594 L 49.323 22.084 L 49.359 22.575 L 49.323 22.602 L 49.286 22.628 L 43.851 25.996 L 38.416 29.363 L 38.118 29.548 L 37.82 29.734 L 37.878 29.663 Z M 39.165 29.662 L 39.224 29.604 L 42.245 28.183 L 45.267 26.763 L 45.375 26.763 L 45.483 26.763 L 45.482 27.026 L 45.48 27.289 L 42.431 28.459 L 39.381 29.629 L 39.244 29.674 L 39.107 29.72 L 39.165 29.662 Z M 48.217 26.269 L 47.383 26.159 L 47.514 25.811 L 47.645 25.464 L 47.886 25.238 L 48.127 25.011 L 48.82 25.712 L 49.513 26.412 L 49.282 26.396 L 49.052 26.38 L 48.217 26.269 Z M 36.123 25.944 L 36.123 25.788 L 36.201 25.866 L 36.279 25.944 L 36.201 26.022 L 36.123 26.1 L 36.123 25.944 Z M 36.24 25.593 L 36.24 25.437 L 36.318 25.515 L 36.396 25.593 L 36.318 25.671 L 36.24 25.749 L 36.24 25.593 Z M 36.366 25.311 L 36.357 25.206 L 37.359 21.275 L 38.361 17.344 L 38.475 16.905 L 38.589 16.466 L 38.679 16.466 L 38.769 16.466 L 38.972 16.615 L 39.176 16.764 L 37.822 20.973 L 36.469 25.183 L 36.422 25.3 L 36.376 25.417 L 36.366 25.311 Z M 54.376 23.261 L 53.732 22.813 L 53.376 23.225 L 53.019 23.638 L 52.539 23.362 L 52.059 23.085 L 52.122 22.672 L 52.185 22.258 L 52.29 22.054 L 52.395 21.849 L 52.829 21.847 L 53.264 21.845 L 53.525 21.775 L 53.787 21.705 L 53.986 21.075 L 54.184 20.445 L 54.251 20.448 L 54.317 20.451 L 54.756 21.224 L 55.195 21.997 L 55.195 22.859 L 55.195 23.721 L 55.107 23.715 L 55.019 23.709 L 54.376 23.261 Z M 41.38 22.601 L 41.097 22.299 L 41.137 21.986 L 41.177 21.673 L 41.33 21.304 L 41.484 20.936 L 41.785 20.953 L 42.086 20.971 L 42.213 21.278 L 42.34 21.585 L 42.263 22 L 42.185 22.414 L 41.925 22.658 L 41.664 22.903 L 41.38 22.601 Z M 36.539 19.562 L 36.461 19.147 L 36.167 19.035 L 35.873 18.923 L 35.933 18.719 L 35.994 18.514 L 36.071 18.078 L 36.148 17.641 L 36.362 17.756 L 36.576 17.871 L 36.63 17.871 L 36.685 17.871 L 36.808 17.519 L 36.93 17.168 L 37.082 17.17 L 37.234 17.172 L 37.377 17.262 L 37.52 17.354 L 37.699 17.861 L 37.878 18.368 L 37.878 18.537 L 37.878 18.706 L 37.322 19.34 L 36.767 19.973 L 36.692 19.975 L 36.617 19.976 L 36.539 19.562 Z M 23.75 61.25 L 5 42.5 L 23.75 23.75 L 42.5 5 L 61.25 23.75 L 80 42.5 L 61.25 61.25 L 42.5 80 L 23.75 61.25 Z M 60.431 24.569 L 42.5 6.638 L 24.569 24.569 L 6.638 42.5 L 24.569 60.431 L 42.5 78.362 L 60.431 60.431 L 78.362 42.5 L 60.431 24.569 Z M 40.803 71.283 L 40.803 68.767 L 39.984 68.767 L 39.165 68.767 L 39.165 68.256 L 39.165 67.745 L 39.69 67.686 L 40.215 67.627 L 40.519 67.428 L 40.823 67.229 L 40.99 66.828 L 41.157 66.428 L 41.741 66.428 L 42.324 66.428 L 42.324 70.113 L 42.324 73.799 L 41.564 73.799 L 40.803 73.799 L 40.803 71.283 Z M 40.17 63.463 L 39.829 63.19 L 40.205 62.644 L 40.581 62.097 L 40.277 61.982 L 39.974 61.866 L 39.679 61.792 L 39.385 61.718 L 39.451 61.546 L 39.517 61.375 L 39.588 61.093 L 39.659 60.811 L 39.69 60.811 L 39.721 60.811 L 40.218 60.987 L 40.716 61.163 L 40.759 61.163 L 40.803 61.163 L 40.803 60.519 L 40.803 59.875 L 41.33 59.875 L 41.856 59.875 L 41.856 60.519 L 41.856 61.163 L 41.959 61.163 L 42.061 61.163 L 42.548 60.991 L 43.035 60.818 L 43.148 61.115 L 43.26 61.412 L 43.26 61.57 L 43.26 61.729 L 42.821 61.869 L 42.383 62.01 L 42.295 62.089 L 42.207 62.169 L 42.58 62.675 L 42.952 63.182 L 42.726 63.351 L 42.5 63.52 L 42.309 63.625 L 42.117 63.73 L 41.796 63.265 L 41.474 62.801 L 41.38 62.801 L 41.287 62.801 L 40.957 63.266 L 40.628 63.731 L 40.569 63.733 L 40.511 63.735 L 40.17 63.463 Z M 42.713 56.321 L 42.352 56.017 L 42.293 55.793 L 42.235 55.568 L 42.543 55.508 L 42.851 55.447 L 43.092 55.746 L 43.332 56.044 L 43.589 55.963 L 43.845 55.882 L 43.913 55.608 L 43.982 55.334 L 43.851 55.089 L 43.72 54.844 L 43.432 54.844 L 43.143 54.844 L 43.143 54.607 L 43.143 54.37 L 43.42 54.265 L 43.697 54.16 L 43.766 53.979 L 43.836 53.798 L 43.657 53.619 L 43.478 53.44 L 43.252 53.561 L 43.026 53.682 L 43.026 53.795 L 43.026 53.908 L 42.675 53.908 L 42.324 53.908 L 42.324 53.723 L 42.324 53.539 L 42.666 53.197 L 43.009 52.855 L 43.436 52.855 L 43.863 52.855 L 44.205 53.197 L 44.547 53.539 L 44.547 53.823 L 44.547 54.106 L 44.317 54.314 L 44.086 54.523 L 44.375 54.751 L 44.664 54.978 L 44.664 55.431 L 44.664 55.884 L 44.397 56.195 L 44.13 56.505 L 43.602 56.565 L 43.074 56.624 L 42.713 56.321 Z M 39.165 55.24 L 39.165 53.998 L 38.877 54.187 L 38.589 54.376 L 38.409 54.376 L 38.229 54.376 L 38.229 54.109 L 38.229 53.842 L 38.583 53.632 L 38.937 53.424 L 39.123 53.139 L 39.309 52.855 L 39.588 52.855 L 39.867 52.855 L 39.867 54.668 L 39.867 56.482 L 39.516 56.482 L 39.165 56.482 L 39.165 55.24 Z M 41.037 56.131 L 41.037 55.78 L 41.388 55.78 L 41.739 55.78 L 41.739 56.131 L 41.739 56.482 L 41.388 56.482 L 41.037 56.482 L 41.037 56.131 Z M 24.243 40.565 L 24.028 40.327 L 24.254 40.113 L 24.481 39.899 L 27.757 37.29 L 31.033 34.682 L 31.076 34.649 L 31.119 34.614 L 30.866 34.294 L 30.614 33.973 L 30.357 33.954 L 30.101 33.935 L 28.407 34.503 L 26.713 35.07 L 26.679 35.07 L 26.646 35.07 L 26.646 34.892 L 26.646 34.714 L 26.921 34.609 L 27.197 34.503 L 28.872 34.063 L 30.547 33.621 L 30.434 33.583 L 30.321 33.546 L 24.834 34.897 L 19.347 36.249 L 19.173 36.215 L 18.999 36.182 L 19.175 36.006 L 19.351 35.831 L 24.861 34.617 L 30.371 33.402 L 30.309 33.242 L 30.248 33.081 L 29.88 33.064 L 29.512 33.046 L 29.844 32.996 L 30.177 32.946 L 30.098 32.634 L 30.02 32.321 L 30 32.307 L 29.98 32.294 L 28.605 32.229 L 27.231 32.164 L 27.231 32.505 L 27.231 32.847 L 26.966 32.847 L 26.702 32.847 L 26.56 33.074 L 26.418 33.302 L 25.976 33.231 L 25.534 33.161 L 25.146 32.867 L 24.758 32.574 L 24.823 32.315 L 24.888 32.057 L 22.143 31.971 L 19.398 31.885 L 19.261 31.72 L 19.124 31.554 L 19.17 31.515 L 19.216 31.476 L 22.141 31.678 L 25.066 31.88 L 25.177 31.778 L 25.288 31.677 L 25.661 31.677 L 26.034 31.677 L 26.351 31.841 L 26.668 32.006 L 27.212 32.014 L 27.757 32.022 L 29.22 32.15 L 30.682 32.28 L 30.901 32.277 L 31.119 32.275 L 31.039 32.354 L 30.96 32.434 L 31.52 32.577 L 32.081 32.72 L 32.747 32.14 L 33.414 31.56 L 33.488 31.56 L 33.563 31.56 L 34.504 32.375 L 35.444 33.189 L 35.727 33.003 L 36.01 32.818 L 35.862 32.628 L 35.714 32.438 L 35.914 32.595 L 36.115 32.752 L 36.47 32.499 L 36.825 32.246 L 36.825 31.786 L 36.825 31.327 L 36.938 31.327 L 37.051 31.327 L 37.494 31.706 L 37.937 32.087 L 37.976 32.175 L 38.015 32.262 L 38.21 32.264 L 38.405 32.266 L 38.247 32.366 L 38.09 32.466 L 38.452 32.592 L 38.814 32.718 L 38.814 32.958 L 38.814 33.198 L 38.872 33.198 L 38.93 33.198 L 43.105 33.785 L 47.28 34.371 L 47.332 34.423 L 47.384 34.475 L 47.304 35.007 L 47.224 35.538 L 47.085 35.537 L 46.946 35.537 L 45.6 35.184 L 44.255 34.831 L 44.021 34.761 L 43.787 34.69 L 44.05 34.975 L 44.314 35.261 L 44.314 35.633 L 44.314 36.006 L 44.284 36.005 L 44.255 36.004 L 42.921 35.775 L 41.586 35.545 L 41.131 35.23 L 40.676 34.914 L 40.617 34.819 L 40.558 34.724 L 40.691 34.476 L 40.824 34.228 L 41.369 34.307 L 41.915 34.387 L 41.798 34.277 L 41.681 34.166 L 40.18 33.778 L 38.678 33.39 L 38.573 33.557 L 38.467 33.724 L 38.469 33.841 L 38.472 33.958 L 41.071 35.376 L 43.67 36.793 L 43.898 37.181 L 44.126 37.569 L 44.015 37.504 L 43.904 37.439 L 41.201 35.787 L 38.497 34.134 L 38.363 34.134 L 38.229 34.134 L 38.235 34.222 L 38.241 34.309 L 41.4 36.581 L 44.559 38.852 L 44.389 39.023 L 44.218 39.194 L 41.263 36.882 L 38.308 34.569 L 38.135 34.557 L 37.962 34.543 L 37.923 34.66 L 37.885 34.778 L 40.056 36.357 L 42.227 37.936 L 42.32 38.054 L 42.413 38.17 L 42.499 38.452 L 42.585 38.732 L 40.162 36.773 L 37.738 34.812 L 37.369 35.163 L 37.001 35.514 L 36.357 35.847 L 35.714 36.181 L 34.544 36.181 L 33.373 36.182 L 32.798 35.916 L 32.222 35.651 L 31.716 35.235 L 31.209 34.82 L 30.887 35.053 L 30.565 35.285 L 30.044 35.821 L 29.522 36.357 L 29.868 36.36 L 30.214 36.364 L 30.425 36.524 L 30.635 36.683 L 30.559 36.983 L 30.484 37.283 L 30.302 37.434 L 30.12 37.585 L 29.582 37.591 L 29.044 37.597 L 28.891 37.386 L 28.738 37.176 L 28.653 37.176 L 28.568 37.176 L 26.583 38.989 L 24.598 40.802 L 24.529 40.803 L 24.459 40.803 L 24.243 40.565 Z M 21.409 38.597 L 21.028 38.035 L 21.163 37.635 L 21.298 37.235 L 21.329 37.197 L 21.359 37.159 L 21.734 37.353 L 22.11 37.547 L 22.223 37.434 L 22.336 37.321 L 22.677 37.45 L 23.018 37.579 L 23.018 37.761 L 23.018 37.943 L 22.837 38.203 L 22.654 38.463 L 22.378 38.463 L 22.101 38.463 L 22.024 38.814 L 21.947 39.165 L 21.869 39.162 L 21.79 39.159 L 21.409 38.597 Z M 24.54 37.244 L 24.54 37.077 L 27.364 35.544 L 30.188 34.01 L 30.234 34.056 L 30.281 34.103 L 27.471 35.756 L 24.661 37.41 L 24.601 37.41 L 24.54 37.41 L 24.54 37.244 Z M 24.567 35.535 L 24.185 35.187 L 24.889 35.187 L 25.593 35.187 L 25.593 35.467 L 25.593 35.747 L 25.408 35.818 L 25.222 35.889 L 25.086 35.886 L 24.949 35.882 L 24.567 35.535 Z M 15.227 34.935 L 15.153 34.816 L 15.254 34.726 L 15.355 34.636 L 18.889 34.243 L 22.424 33.851 L 22.372 33.799 L 22.32 33.748 L 21.589 33.678 L 20.857 33.608 L 20.82 33.416 L 20.783 33.225 L 21.204 32.965 L 21.624 32.705 L 22.058 33.016 L 22.492 33.327 L 22.784 33.552 L 23.077 33.777 L 26.002 33.432 L 28.927 33.087 L 29.22 33.095 L 29.512 33.104 L 22.784 34.02 L 16.057 34.936 L 15.679 34.995 L 15.301 35.055 L 15.227 34.935 Z M 55.019 33.128 L 52.094 32.973 L 48.935 32.842 L 45.776 32.71 L 43.143 32.554 L 40.511 32.399 L 42.593 32.429 L 44.675 32.46 L 44.598 32.098 L 44.522 31.736 L 44.505 31.633 L 44.489 31.531 L 45.038 31.341 L 45.588 31.151 L 45.916 30.839 L 46.244 30.527 L 47.52 31.101 L 48.796 31.674 L 48.857 31.735 L 48.918 31.797 L 48.584 32.145 L 48.25 32.494 L 48.3 32.538 L 48.35 32.583 L 52.562 32.716 L 56.774 32.85 L 57.434 32.849 L 58.094 32.847 L 58.37 33.077 L 58.646 33.308 L 58.295 33.295 L 57.945 33.283 L 55.019 33.128 Z M 45.983 32.419 L 45.839 32.361 L 45.632 32.415 L 45.425 32.469 L 45.776 32.473 L 46.127 32.478 L 45.983 32.419 Z M 35.468 32.361 L 35.385 32.226 L 35.52 32.309 L 35.655 32.393 L 35.655 32.444 L 35.655 32.496 L 35.604 32.496 L 35.552 32.496 L 35.468 32.361 Z M 38.902 32.302 L 39.048 32.242 L 39.194 32.302 L 39.341 32.36 L 39.048 32.36 L 38.756 32.36 L 38.902 32.302 Z M 39.546 32.299 L 39.75 32.245 L 39.955 32.299 L 40.16 32.352 L 39.75 32.352 L 39.341 32.352 L 39.546 32.299 Z M 28.167 31.376 L 25.768 30.986 L 25.55 30.951 L 25.331 30.917 L 25.55 30.727 L 25.768 30.538 L 28.459 31.157 L 31.15 31.776 L 30.858 31.771 L 30.565 31.765 L 28.167 31.376 Z M 33.549 31.209 L 32.672 30.753 L 32.039 30.747 L 31.406 30.741 L 31.629 30.996 L 31.853 31.251 L 31.563 31.055 L 31.274 30.858 L 31.03 30.858 L 30.787 30.858 L 30.384 30.437 L 29.98 30.015 L 29.31 29.557 L 28.64 29.098 L 28.516 28.866 L 28.393 28.635 L 28.464 28.635 L 28.536 28.635 L 29.199 29.141 L 29.863 29.647 L 30.001 29.727 L 30.138 29.807 L 30.434 29.159 L 30.731 28.51 L 31.384 27.826 L 32.037 27.142 L 32.764 26.806 L 33.491 26.47 L 34.544 26.493 L 35.596 26.515 L 35.872 26.551 L 36.147 26.587 L 38.803 19.014 L 41.46 11.441 L 41.53 11.372 L 41.6 11.302 L 42.085 11.549 L 42.571 11.797 L 42.49 12.055 L 42.409 12.313 L 39.852 19.441 L 37.295 26.57 L 37.327 26.602 L 37.36 26.635 L 39.285 22.779 L 41.21 18.923 L 41.335 18.923 L 41.46 18.923 L 41.657 19.07 L 41.853 19.216 L 39.53 23.194 L 37.207 27.172 L 37.63 27.543 L 38.053 27.914 L 38.317 27.669 L 38.58 27.424 L 38.58 27.217 L 38.58 27.01 L 38.94 26.799 L 39.299 26.587 L 44.049 21.41 L 48.799 16.233 L 48.878 16.233 L 48.957 16.233 L 49.151 16.447 L 49.345 16.66 L 49.345 16.768 L 49.345 16.877 L 44.781 21.439 L 40.218 26.001 L 40.218 26.089 L 40.218 26.178 L 40.649 26.178 L 41.081 26.178 L 41.615 25.738 L 42.149 25.298 L 42.375 25.124 L 42.601 24.949 L 42.141 25.799 L 41.681 26.648 L 40.95 27.243 L 40.218 27.839 L 40.218 27.896 L 40.218 27.953 L 40.774 27.55 L 41.33 27.148 L 44.957 24.6 L 48.584 22.052 L 48.964 21.769 L 49.345 21.486 L 49.345 22.057 L 49.345 22.628 L 43.202 26.441 L 37.059 30.254 L 37.059 30.212 L 37.059 30.17 L 38.572 29.104 L 40.085 28.039 L 39.959 27.664 L 39.833 27.289 L 39.802 27.251 L 39.772 27.213 L 39.416 27.398 L 39.06 27.582 L 38.838 27.582 L 38.616 27.582 L 38.413 27.806 L 38.21 28.03 L 38.341 28.274 L 38.471 28.518 L 38.148 28.518 L 37.823 28.518 L 36.595 29.717 L 35.366 30.917 L 35.831 30.39 L 36.296 29.863 L 36.937 29.191 L 37.579 28.518 L 37.146 28.518 L 36.715 28.518 L 36.614 28.898 L 36.514 29.279 L 35.798 29.268 L 35.082 29.256 L 35.262 29.677 L 35.442 30.098 L 35.495 30.224 L 35.548 30.351 L 35.002 31.014 L 34.456 31.677 L 34.441 31.671 L 34.426 31.665 L 33.549 31.209 Z M 29.43 30.584 L 27.709 29.746 L 27.563 29.6 L 27.418 29.454 L 27.529 29.457 L 27.64 29.459 L 29.512 30.448 L 31.384 31.437 L 31.268 31.43 L 31.15 31.422 L 29.43 30.584 Z M 37.937 31.38 L 38.053 31.336 L 49.502 29.4 L 60.949 27.465 L 61.173 27.465 L 61.396 27.465 L 61.396 27.809 L 61.396 28.153 L 61.282 28.224 L 61.167 28.295 L 49.583 29.869 L 37.998 31.443 L 37.909 31.434 L 37.82 31.425 L 37.937 31.38 Z M 31.911 31.267 L 31.911 31.209 L 31.969 31.209 L 32.028 31.209 L 32.028 31.267 L 32.028 31.326 L 31.969 31.326 L 31.911 31.326 L 31.911 31.267 Z M 37.037 30.661 L 37.191 30.6 L 37.261 30.67 L 37.332 30.741 L 37.108 30.732 L 36.884 30.722 L 37.037 30.661 Z M 37.505 30.544 L 37.659 30.483 L 37.729 30.553 L 37.8 30.624 L 37.576 30.615 L 37.352 30.605 L 37.505 30.544 Z M 37.937 30.451 L 38.053 30.393 L 47.999 27.814 L 57.945 25.235 L 58.143 25.174 L 58.342 25.113 L 58.525 25.467 L 58.708 25.821 L 58.443 25.884 L 58.179 25.947 L 48.35 28.175 L 38.522 30.403 L 38.171 30.456 L 37.82 30.509 L 37.937 30.451 Z M 38.346 30.014 L 38.405 29.952 L 41.798 28.347 L 45.191 26.743 L 45.337 26.682 L 45.483 26.621 L 45.483 26.967 L 45.483 27.312 L 42.12 28.611 L 38.756 29.909 L 38.522 29.992 L 38.288 30.076 L 38.346 30.014 Z M 36.006 26.485 L 36.006 26.402 L 36.996 22.528 L 37.985 18.655 L 37.631 18.994 L 37.277 19.333 L 37.041 19.713 L 36.806 20.094 L 36.704 20.094 L 36.602 20.094 L 36.524 19.677 L 36.446 19.261 L 36.158 19.072 L 35.87 18.884 L 35.944 18.465 L 36.018 18.046 L 36.079 17.841 L 36.139 17.636 L 36.419 17.706 L 36.698 17.776 L 36.774 17.472 L 36.851 17.168 L 37.183 17.168 L 37.515 17.168 L 37.718 17.812 L 37.921 18.456 L 37.995 18.456 L 38.069 18.456 L 38.28 17.549 L 38.491 16.642 L 38.573 16.489 L 38.655 16.336 L 38.932 16.561 L 39.209 16.784 L 37.652 21.627 L 36.096 26.47 L 36.051 26.519 L 36.006 26.568 L 36.006 26.485 Z M 48.033 26.304 L 47.483 26.227 L 47.41 26.155 L 47.338 26.083 L 47.51 25.75 L 47.682 25.417 L 47.934 25.189 L 48.185 24.962 L 48.91 25.687 L 49.635 26.412 L 49.109 26.396 L 48.584 26.381 L 48.033 26.304 Z M 54.452 23.351 L 53.769 22.877 L 53.37 23.263 L 52.972 23.65 L 52.533 23.396 L 52.094 23.142 L 52.128 22.645 L 52.163 22.149 L 52.351 21.94 L 52.54 21.732 L 53.147 21.732 L 53.754 21.732 L 53.968 21.024 L 54.182 20.317 L 54.327 20.469 L 54.472 20.62 L 54.891 21.419 L 55.312 22.219 L 55.312 23.028 L 55.312 23.837 L 55.224 23.832 L 55.136 23.826 L 54.452 23.351 Z M 41.357 22.609 L 41.033 22.324 L 41.107 21.865 L 41.18 21.405 L 41.387 21.089 L 41.595 20.773 L 41.677 20.907 L 41.76 21.041 L 41.912 20.914 L 42.065 20.788 L 42.194 21.16 L 42.324 21.533 L 42.324 21.829 L 42.324 22.126 L 42.061 22.513 L 41.798 22.9 L 41.739 22.897 L 41.681 22.894 L 41.357 22.609 Z" s=""/>
  </g>
</svg>