<?xml version="1.0" encoding="utf-8"?>
<svg width="85px" height="85px" viewBox="0 0 85 85" version="1.1" id="svg8" preserveAspectRatio="xMidYMin" xmlns="http://www.w3.org/2000/svg">
  <g>
    <path style="fill: rgb(247, 148, 40);" d="M 21.25 63.75 L 0 42.5 L 21.25 21.25 L 42.5 0 L 63.75 21.25 L 85 42.5 L 63.75 63.75 L 42.5 85 L 21.25 63.75 Z"/>
    <path style="fill: black;" d="M 23.721 61.265 L 5 42.529 L 23.75 23.764 L 42.5 5 L 61.25 23.764 L 80 42.529 L 61.279 61.265 L 42.559 80 L 42.5 80 L 42.441 80 L 23.721 61.265 Z M 60.46 60.445 L 78.362 42.529 L 60.431 24.584 L 42.5 6.639 L 24.569 24.584 L 6.638 42.529 L 24.54 60.445 L 42.441 78.361 L 42.5 78.361 L 42.559 78.361 L 60.46 60.445 Z M 40.862 71.282 L 40.862 68.759 L 39.984 68.759 L 39.107 68.759 L 39.107 68.232 L 39.107 67.705 L 39.52 67.705 L 39.933 67.705 L 40.346 67.532 L 40.76 67.359 L 40.957 66.885 L 41.154 66.41 L 41.739 66.443 L 42.324 66.476 L 42.324 70.105 L 42.324 73.735 L 41.593 73.77 L 40.862 73.805 L 40.862 71.282 Z M 40.191 63.455 L 39.813 63.175 L 40.158 62.717 L 40.504 62.26 L 40.508 62.127 L 40.511 61.993 L 40.131 61.92 L 39.75 61.847 L 39.591 61.745 L 39.431 61.644 L 39.568 61.228 L 39.705 60.812 L 40.181 60.979 L 40.657 61.147 L 40.759 61.147 L 40.862 61.147 L 40.862 60.503 L 40.862 59.86 L 41.388 59.86 L 41.915 59.86 L 41.915 60.503 L 41.915 61.147 L 42.017 61.147 L 42.12 61.147 L 42.597 60.979 L 43.074 60.811 L 43.138 61.038 L 43.202 61.265 L 43.264 61.485 L 43.326 61.706 L 43.035 61.779 L 42.744 61.852 L 42.439 61.968 L 42.134 62.084 L 42.521 62.623 L 42.908 63.162 L 42.557 63.444 L 42.208 63.727 L 41.774 63.228 L 41.341 62.728 L 41.174 62.962 L 41.006 63.197 L 40.788 63.466 L 40.569 63.734 L 40.191 63.455 Z M 39.19 56.508 L 39.107 56.425 L 39.107 55.219 L 39.107 54.013 L 38.697 54.254 L 38.288 54.496 L 38.288 54.143 L 38.288 53.79 L 38.668 53.552 L 39.048 53.315 L 39.196 53.075 L 39.343 52.834 L 39.637 52.834 L 39.932 52.834 L 39.9 54.678 L 39.867 56.522 L 39.57 56.557 L 39.274 56.592 L 39.19 56.508 Z M 41.027 56.42 L 40.959 56.243 L 41 56.031 L 41.041 55.82 L 41.39 55.82 L 41.739 55.82 L 41.739 56.171 L 41.739 56.522 L 41.417 56.559 L 41.095 56.596 L 41.027 56.42 Z M 42.227 56.496 L 42.17 56.403 L 42.324 56.035 L 42.479 55.667 L 43.192 54.943 L 43.904 54.219 L 43.904 53.942 L 43.904 53.665 L 43.712 53.557 L 43.52 53.45 L 43.306 53.506 L 43.093 53.562 L 43.022 53.783 L 42.952 54.005 L 42.609 54.005 L 42.266 54.005 L 42.266 53.895 L 42.266 53.786 L 42.378 53.491 L 42.49 53.196 L 42.84 53.015 L 43.19 52.834 L 43.495 52.834 L 43.799 52.834 L 44.13 53.005 L 44.461 53.176 L 44.533 53.366 L 44.606 53.556 L 44.606 53.905 L 44.606 54.254 L 44.475 54.51 L 44.345 54.766 L 43.807 55.322 L 43.269 55.878 L 44.004 55.878 L 44.739 55.878 L 44.701 56.2 L 44.665 56.522 L 43.475 56.556 L 42.285 56.589 L 42.227 56.496 Z M 24.273 40.507 L 24.024 40.242 L 27.529 37.445 L 31.034 34.648 L 31.033 34.578 L 31.032 34.508 L 30.823 34.191 L 30.614 33.874 L 27.635 35.624 L 24.657 37.375 L 24.569 37.376 L 24.481 37.377 L 24.481 37.227 L 24.481 37.077 L 27.396 35.5 L 30.311 33.923 L 30.286 33.897 L 30.26 33.871 L 28.482 34.439 L 26.704 35.007 L 26.704 34.812 L 26.704 34.617 L 28.43 34.165 L 30.156 33.713 L 30.331 33.617 L 30.507 33.52 L 30.386 33.517 L 30.265 33.513 L 24.847 34.86 L 19.43 36.206 L 19.264 36.206 L 19.099 36.206 L 19.099 36.031 L 19.099 35.855 L 19.134 35.855 L 19.17 35.855 L 24.707 34.63 L 30.245 33.405 L 30.283 33.366 L 30.321 33.328 L 30.169 32.812 L 30.017 32.295 L 29.911 32.269 L 29.805 32.242 L 28.547 32.195 L 27.289 32.146 L 27.289 32.478 L 27.289 32.811 L 27.001 32.811 L 26.713 32.811 L 26.585 33.049 L 26.458 33.287 L 26.025 33.212 L 25.593 33.136 L 25.154 32.84 L 24.715 32.544 L 24.715 32.45 L 24.715 32.356 L 24.834 32.282 L 24.953 32.209 L 24.896 32.116 L 24.839 32.024 L 22.174 31.94 L 19.508 31.856 L 19.34 31.692 L 19.171 31.528 L 19.223 31.49 L 19.274 31.452 L 22.141 31.645 L 25.008 31.839 L 25.119 31.739 L 25.23 31.64 L 25.695 31.64 L 26.159 31.64 L 26.344 31.798 L 26.529 31.957 L 28.684 32.087 L 30.839 32.216 L 30.907 32.318 L 30.975 32.421 L 31.549 32.564 L 32.122 32.706 L 32.543 32.315 L 32.964 31.925 L 33.224 31.708 L 33.484 31.492 L 34.483 32.34 L 35.481 33.189 L 35.685 33.033 L 35.889 32.877 L 35.937 32.844 L 35.985 32.812 L 35.762 32.548 L 35.538 32.284 L 35.796 32.501 L 36.053 32.719 L 36.469 32.463 L 36.884 32.206 L 36.884 31.747 L 36.884 31.288 L 36.985 31.288 L 37.086 31.288 L 37.749 31.925 L 38.412 32.563 L 38.647 32.638 L 38.883 32.712 L 38.811 32.937 L 38.74 33.162 L 38.795 33.162 L 38.849 33.162 L 43.015 33.747 L 47.181 34.333 L 47.286 34.333 L 47.392 34.333 L 47.33 34.83 L 47.268 35.328 L 47.177 35.428 L 47.085 35.528 L 45.641 35.158 L 44.196 34.787 L 43.975 34.722 L 43.753 34.657 L 44.062 34.992 L 44.372 35.326 L 44.372 35.583 L 44.372 35.841 L 44.276 35.901 L 44.179 35.96 L 42.852 35.723 L 41.525 35.485 L 41.036 35.111 L 40.548 34.738 L 40.668 34.468 L 40.788 34.199 L 41.381 34.278 L 41.973 34.357 L 41.857 34.244 L 41.739 34.131 L 40.222 33.756 L 38.705 33.382 L 38.551 33.592 L 38.397 33.803 L 38.588 33.943 L 38.778 34.082 L 41.269 35.448 L 43.759 36.813 L 43.894 37.11 L 44.03 37.408 L 43.996 37.435 L 43.962 37.462 L 41.33 35.835 L 38.697 34.208 L 38.493 34.091 L 38.288 33.973 L 38.288 34.138 L 38.288 34.303 L 41.135 36.362 L 43.982 38.42 L 44.247 38.635 L 44.513 38.851 L 44.345 38.99 L 44.177 39.13 L 41.203 36.795 L 38.229 34.46 L 38.083 34.455 L 37.937 34.45 L 37.937 34.617 L 37.937 34.784 L 40.145 36.402 L 42.353 38.019 L 42.475 38.343 L 42.597 38.667 L 42.286 38.44 L 41.973 38.212 L 39.874 36.518 L 37.774 34.823 L 37.29 35.22 L 36.806 35.616 L 36.231 35.881 L 35.655 36.145 L 34.544 36.146 L 33.432 36.148 L 32.775 35.839 L 32.117 35.531 L 31.663 35.122 L 31.209 34.713 L 30.331 35.518 L 29.454 36.323 L 29.805 36.327 L 30.156 36.331 L 30.372 36.495 L 30.588 36.658 L 30.509 37.017 L 30.43 37.375 L 30.295 37.458 L 30.16 37.542 L 29.631 37.563 L 29.103 37.585 L 28.845 37.349 L 28.588 37.113 L 26.604 38.943 L 24.62 40.773 L 24.571 40.773 L 24.522 40.773 L 24.273 40.507 Z M 21.46 38.618 L 21.077 38.084 L 21.154 37.67 L 21.232 37.258 L 21.332 37.195 L 21.433 37.133 L 21.709 37.315 L 21.986 37.496 L 22.327 37.429 L 22.668 37.362 L 22.89 37.527 L 23.112 37.692 L 22.894 38.061 L 22.676 38.431 L 22.43 38.431 L 22.183 38.431 L 22.013 38.791 L 21.842 39.151 L 21.46 38.618 Z M 24.54 35.504 L 24.203 35.152 L 24.869 35.152 L 25.534 35.152 L 25.534 35.432 L 25.534 35.713 L 25.349 35.784 L 25.164 35.855 L 25.02 35.855 L 24.876 35.855 L 24.54 35.504 Z M 15.257 34.848 L 15.299 34.63 L 18.911 34.22 L 22.524 33.81 L 22.245 33.732 L 21.965 33.653 L 21.41 33.642 L 20.854 33.63 L 20.854 33.404 L 20.854 33.177 L 21.194 32.935 L 21.534 32.693 L 21.613 32.693 L 21.693 32.693 L 22.367 33.223 L 23.04 33.752 L 26.111 33.392 L 29.183 33.032 L 29.297 33.07 L 29.411 33.108 L 22.588 34.022 L 15.765 34.937 L 15.49 35.001 L 15.215 35.066 L 15.257 34.848 Z M 54.961 33.093 L 52.036 32.939 L 48.818 32.805 L 45.6 32.671 L 43.027 32.516 L 40.453 32.361 L 42.575 32.398 L 44.698 32.436 L 44.588 32.036 L 44.477 31.636 L 44.543 31.53 L 44.609 31.423 L 44.972 31.343 L 45.334 31.264 L 45.763 30.876 L 46.192 30.488 L 47.555 31.088 L 48.918 31.687 L 48.568 32.085 L 48.219 32.484 L 48.255 32.518 L 48.292 32.553 L 53.189 32.702 L 58.087 32.851 L 58.337 33.061 L 58.588 33.271 L 58.237 33.258 L 57.886 33.246 L 54.961 33.093 Z M 46.042 32.382 L 45.898 32.324 L 45.691 32.378 L 45.484 32.432 L 45.835 32.436 L 46.185 32.441 L 46.042 32.382 Z M 29.717 32.967 L 29.864 32.908 L 30.01 32.967 L 30.156 33.026 L 29.864 33.026 L 29.571 33.026 L 29.717 32.967 Z M 38.734 32.262 L 38.887 32.2 L 38.958 32.271 L 39.029 32.342 L 38.804 32.333 L 38.58 32.323 L 38.734 32.262 Z M 39.37 32.261 L 39.575 32.207 L 39.779 32.261 L 39.984 32.314 L 39.575 32.314 L 39.165 32.314 L 39.37 32.261 Z M 30.653 31.679 L 30.8 31.62 L 30.946 31.679 L 31.092 31.738 L 30.8 31.738 L 30.507 31.738 L 30.653 31.679 Z M 29.337 31.524 L 28.869 31.434 L 27.139 31.167 L 25.41 30.9 L 25.452 30.772 L 25.494 30.644 L 25.75 30.606 L 26.007 30.569 L 28.14 31.05 L 30.273 31.532 L 30.39 31.576 L 30.507 31.621 L 30.156 31.617 L 29.805 31.613 L 29.337 31.524 Z M 33.602 31.16 L 32.73 30.714 L 32.103 30.708 L 31.476 30.702 L 31.555 30.907 L 31.632 31.112 L 31.485 30.966 L 31.338 30.819 L 31.016 30.819 L 30.694 30.819 L 30.389 30.419 L 30.084 30.018 L 29.34 29.533 L 28.596 29.048 L 28.525 28.863 L 28.454 28.678 L 28.486 28.646 L 28.519 28.613 L 29.312 29.205 L 30.106 29.796 L 30.139 29.752 L 30.172 29.707 L 30.508 29.005 L 30.844 28.302 L 31.436 27.71 L 32.028 27.119 L 32.568 26.859 L 33.109 26.598 L 33.763 26.461 L 34.417 26.323 L 35.153 26.447 L 35.889 26.57 L 35.963 26.457 L 36.036 26.343 L 36.084 26.487 L 36.132 26.631 L 38.807 18.977 L 41.482 11.323 L 41.505 11.292 L 41.528 11.261 L 42.068 11.501 L 42.608 11.74 L 42.486 12.059 L 42.364 12.377 L 39.843 19.403 L 37.322 26.428 L 37.272 26.604 L 37.224 26.78 L 39.219 22.828 L 41.214 18.875 L 41.375 18.875 L 41.535 18.875 L 41.678 19.048 L 41.82 19.219 L 39.527 23.159 L 37.235 27.097 L 37.243 27.173 L 37.252 27.248 L 37.662 27.59 L 38.072 27.931 L 38.351 27.59 L 38.631 27.248 L 38.635 27.106 L 38.639 26.964 L 39.026 26.696 L 39.413 26.428 L 44.077 21.335 L 48.742 16.241 L 48.78 16.192 L 48.819 16.143 L 49.115 16.421 L 49.411 16.699 L 46.921 19.222 L 44.43 21.745 L 42.267 23.94 L 40.104 26.136 L 40.594 26.136 L 41.084 26.136 L 41.792 25.546 L 42.5 24.956 L 42.5 25.029 L 42.5 25.102 L 42.081 25.852 L 41.662 26.602 L 40.881 27.251 L 40.101 27.9 L 39.961 27.561 L 39.821 27.221 L 39.23 27.421 L 38.638 27.622 L 38.404 27.835 L 38.169 28.047 L 38.363 28.262 L 38.558 28.477 L 38.162 28.477 L 37.766 28.477 L 36.652 29.561 L 35.539 30.644 L 36.185 29.941 L 36.83 29.239 L 37.171 28.858 L 37.513 28.477 L 37.094 28.477 L 36.675 28.477 L 36.596 28.903 L 36.516 29.328 L 35.822 29.265 L 35.129 29.202 L 35.133 29.338 L 35.137 29.473 L 35.304 29.766 L 35.471 30.058 L 35.473 30.234 L 35.474 30.41 L 34.974 31.008 L 34.473 31.607 L 33.601 31.16 L 33.602 31.16 Z M 31.384 31.463 L 31.384 31.405 L 31.443 31.405 L 31.501 31.405 L 31.501 31.463 L 31.501 31.522 L 31.443 31.522 L 31.384 31.522 L 31.384 31.463 Z M 31.15 31.346 L 31.15 31.288 L 31.209 31.288 L 31.268 31.288 L 31.268 31.346 L 31.268 31.405 L 31.209 31.405 L 31.15 31.405 L 31.15 31.346 Z M 38.025 31.328 L 38.171 31.268 L 38.317 31.328 L 38.463 31.386 L 38.171 31.386 L 37.878 31.386 L 38.025 31.328 Z M 30.916 31.229 L 30.916 31.171 L 30.975 31.171 L 31.034 31.171 L 31.034 31.229 L 31.034 31.288 L 30.975 31.288 L 30.916 31.288 L 30.916 31.229 Z M 49.696 29.349 L 60.928 27.432 L 61.133 27.428 L 61.338 27.424 L 61.338 27.823 L 61.338 28.222 L 60.899 28.292 L 60.46 28.361 L 49.669 29.825 L 38.878 31.288 L 38.67 31.278 L 38.463 31.267 L 49.696 29.349 Z M 29.103 30.39 L 27.582 29.622 L 27.533 29.577 L 27.484 29.531 L 27.549 29.467 L 27.614 29.402 L 29.177 30.238 L 30.741 31.074 L 30.79 31.122 L 30.839 31.171 L 30.731 31.165 L 30.624 31.158 L 29.103 30.39 Z M 31.735 31.112 L 31.735 31.054 L 31.794 31.054 L 31.853 31.054 L 31.853 31.112 L 31.853 31.171 L 31.794 31.171 L 31.735 31.171 L 31.735 31.112 Z M 37.04 30.624 L 37.118 30.546 L 37.196 30.624 L 37.274 30.702 L 37.118 30.702 L 36.962 30.702 L 37.04 30.624 Z M 37.564 30.505 L 37.717 30.444 L 37.788 30.515 L 37.859 30.585 L 37.635 30.576 L 37.41 30.567 L 37.564 30.505 Z M 38 30.407 L 38.123 30.348 L 48.063 27.77 L 58.003 25.193 L 58.188 25.136 L 58.374 25.078 L 58.515 25.388 L 58.655 25.698 L 58.596 25.757 L 58.536 25.817 L 48.558 28.081 L 38.58 30.345 L 38.229 30.405 L 37.878 30.465 L 38 30.407 Z M 37.059 30.152 L 37.176 30.038 L 43.143 25.845 L 49.111 21.651 L 49.257 21.537 L 49.403 21.423 L 49.4 21.994 L 49.398 22.564 L 43.358 26.311 L 37.319 30.058 L 37.131 30.162 L 36.942 30.265 L 37.059 30.152 Z M 38.171 30.058 L 38.171 30 L 38.229 30 L 38.288 30 L 38.288 30.058 L 38.288 30.117 L 38.229 30.117 L 38.171 30.117 L 38.171 30.058 Z M 38.405 29.941 L 38.405 29.883 L 38.463 29.883 L 38.522 29.883 L 38.522 29.941 L 38.522 30 L 38.463 30 L 38.405 30 L 38.405 29.941 Z M 38.639 29.852 L 38.699 29.783 L 42.033 28.21 L 45.366 26.635 L 45.453 26.766 L 45.539 26.897 L 45.54 27.072 L 45.542 27.248 L 42.295 28.502 L 39.048 29.756 L 38.815 29.838 L 38.581 29.92 L 38.64 29.852 L 38.639 29.852 Z M 48.081 26.284 L 47.519 26.239 L 47.458 26.081 L 47.397 25.922 L 47.574 25.581 L 47.75 25.24 L 47.941 25.082 L 48.131 24.924 L 48.854 25.647 L 49.576 26.37 L 49.109 26.349 L 48.643 26.327 L 48.081 26.284 Z M 36.074 26.22 L 36.065 26.128 L 37.001 22.491 L 37.937 18.854 L 37.937 18.727 L 37.937 18.599 L 37.498 19.112 L 37.059 19.625 L 36.867 19.862 L 36.675 20.1 L 36.53 19.617 L 36.386 19.134 L 36.097 19.002 L 35.808 18.87 L 35.878 18.687 L 35.948 18.504 L 36.021 18.046 L 36.094 17.588 L 36.146 17.588 L 36.197 17.588 L 36.412 17.703 L 36.628 17.818 L 36.752 17.461 L 36.877 17.103 L 37.192 17.14 L 37.506 17.178 L 37.721 17.811 L 37.935 18.445 L 37.98 18.49 L 38.025 18.535 L 38.287 17.476 L 38.548 16.417 L 38.688 16.417 L 38.828 16.417 L 39.022 16.563 L 39.216 16.709 L 37.72 21.335 L 36.223 25.96 L 36.153 26.136 L 36.083 26.311 L 36.074 26.22 Z M 54.448 23.298 L 53.701 22.806 L 53.363 23.21 L 53.025 23.615 L 52.518 23.345 L 52.01 23.076 L 52.112 22.531 L 52.214 21.987 L 52.417 21.865 L 52.621 21.745 L 53.197 21.686 L 53.773 21.627 L 54 20.941 L 54.228 20.255 L 54.746 21.135 L 55.264 22.014 L 55.229 22.901 L 55.195 23.789 L 54.448 23.298 Z M 41.357 22.569 L 41.004 22.272 L 41.113 21.784 L 41.223 21.296 L 41.325 21.113 L 41.428 20.93 L 41.782 20.912 L 42.136 20.894 L 42.259 21.249 L 42.383 21.603 L 42.267 22.036 L 42.15 22.468 L 41.93 22.667 L 41.71 22.867 L 41.357 22.569 Z M 23.808 61.235 L 5.058 42.471 L 23.779 23.735 L 42.5 5 L 61.25 23.764 L 80 42.529 L 61.279 61.265 L 42.558 80 L 23.808 61.235 Z M 60.49 60.415 L 78.42 42.471 L 60.46 24.497 L 42.5 6.522 L 24.54 24.497 L 6.58 42.471 L 24.51 60.415 L 42.441 78.361 L 42.5 78.361 L 42.559 78.361 L 60.49 60.415 Z M 40.835 71.188 L 40.803 68.7 L 39.955 68.666 L 39.107 68.632 L 39.107 68.229 L 39.107 67.827 L 39.37 67.773 L 39.634 67.719 L 40.065 67.649 L 40.497 67.58 L 40.796 67.223 L 41.096 66.867 L 41.096 66.701 L 41.096 66.534 L 41.681 66.534 L 42.266 66.534 L 42.266 70.105 L 42.266 73.677 L 41.566 73.677 L 40.866 73.677 L 40.835 71.188 Z M 40.219 63.443 L 39.869 63.162 L 40.261 62.616 L 40.653 62.07 L 40.611 62.037 L 40.569 62.005 L 40.015 61.854 L 39.461 61.703 L 39.533 61.396 L 39.605 61.089 L 39.698 60.987 L 39.791 60.884 L 40.169 61.016 L 40.546 61.147 L 40.704 61.147 L 40.862 61.147 L 40.862 60.503 L 40.862 59.86 L 41.33 59.86 L 41.798 59.86 L 41.798 60.518 L 41.798 61.177 L 42.178 61.091 L 42.558 61.006 L 42.815 60.947 L 43.072 60.889 L 43.176 61.282 L 43.281 61.675 L 42.744 61.834 L 42.207 61.994 L 42.159 62.039 L 42.11 62.085 L 42.498 62.626 L 42.887 63.169 L 42.606 63.385 L 42.324 63.601 L 42.194 63.604 L 42.064 63.607 L 41.731 63.126 L 41.398 62.646 L 41.192 62.901 L 40.985 63.157 L 40.777 63.44 L 40.569 63.723 L 40.219 63.443 Z M 39.224 55.234 L 39.224 54.005 L 39.136 54.009 L 39.048 54.013 L 38.756 54.18 L 38.463 54.347 L 38.375 54.351 L 38.288 54.355 L 38.288 54.063 L 38.288 53.77 L 38.397 53.77 L 38.505 53.77 L 38.939 53.36 L 39.373 52.95 L 39.591 52.95 L 39.809 52.95 L 39.809 54.707 L 39.809 56.463 L 39.516 56.463 L 39.224 56.463 L 39.224 55.234 Z M 41.096 56.171 L 41.096 55.878 L 41.388 55.878 L 41.681 55.878 L 41.681 56.171 L 41.681 56.464 L 41.388 56.464 L 41.096 56.464 L 41.096 56.171 Z M 42.266 56.341 L 42.266 56.218 L 42.432 55.902 L 42.598 55.586 L 43.143 55.059 L 43.689 54.531 L 43.849 54.227 L 44.009 53.922 L 43.828 53.664 L 43.648 53.406 L 43.407 53.442 L 43.167 53.478 L 43.039 53.712 L 42.909 53.946 L 42.894 53.981 L 42.879 54.016 L 42.579 53.941 L 42.28 53.866 L 42.395 53.564 L 42.509 53.263 L 42.709 53.11 L 42.909 52.958 L 43.515 52.955 L 44.121 52.951 L 44.364 53.26 L 44.606 53.568 L 44.606 53.919 L 44.606 54.27 L 44.37 54.652 L 44.134 55.034 L 43.727 55.345 L 43.319 55.656 L 43.319 55.768 L 43.319 55.879 L 43.962 55.879 L 44.606 55.879 L 44.606 56.171 L 44.606 56.464 L 43.436 56.464 L 42.266 56.464 L 42.266 56.341 Z M 24.302 40.534 L 24.086 40.296 L 24.313 40.082 L 24.54 39.867 L 27.796 37.266 L 31.053 34.664 L 31.1 34.711 L 31.146 34.757 L 30.329 35.489 L 29.512 36.221 L 29.512 36.33 L 29.512 36.44 L 29.908 36.44 L 30.303 36.44 L 30.424 36.587 L 30.545 36.733 L 30.486 37.041 L 30.426 37.35 L 30.127 37.486 L 29.828 37.622 L 29.711 37.505 L 29.594 37.388 L 29.356 37.516 L 29.118 37.643 L 28.876 37.342 L 28.635 37.042 L 26.599 38.907 L 24.563 40.773 L 24.54 40.773 L 24.517 40.773 L 24.302 40.534 Z M 21.454 38.583 L 21.059 38.052 L 21.197 37.592 L 21.335 37.131 L 21.709 37.359 L 22.083 37.586 L 22.258 37.473 L 22.434 37.359 L 22.753 37.481 L 23.073 37.604 L 22.998 37.813 L 22.925 38.021 L 22.749 38.226 L 22.573 38.431 L 22.357 38.431 L 22.142 38.431 L 21.995 38.772 L 21.849 39.114 L 21.454 38.583 Z M 41.154 36.727 L 38.112 34.344 L 37.937 34.518 L 37.761 34.692 L 37.886 34.776 L 38.01 34.859 L 40.146 36.434 L 42.282 38.008 L 42.401 38.229 L 42.519 38.451 L 42.474 38.495 L 42.43 38.54 L 40.11 36.667 L 37.79 34.794 L 37.425 35.095 L 37.059 35.397 L 36.299 35.771 L 35.538 36.146 L 34.485 36.139 L 33.432 36.131 L 32.906 35.889 L 32.379 35.647 L 31.88 35.281 L 31.382 34.914 L 30.962 34.331 L 30.544 33.747 L 30.43 33.747 L 30.318 33.747 L 30.389 33.863 L 30.461 33.979 L 30.308 33.92 L 30.155 33.861 L 28.422 34.442 L 26.689 35.023 L 26.726 34.835 L 26.763 34.647 L 28.459 34.195 L 30.156 33.743 L 30.331 33.673 L 30.507 33.603 L 30.36 33.548 L 30.213 33.493 L 30.277 33.389 L 30.342 33.284 L 30.212 32.801 L 30.082 32.318 L 30.131 32.269 L 30.18 32.22 L 31.132 32.475 L 32.084 32.731 L 32.784 32.121 L 33.485 31.511 L 34.453 32.337 L 35.421 33.163 L 35.556 33.112 L 35.691 33.061 L 36.281 32.636 L 36.871 32.212 L 36.907 31.754 L 36.942 31.296 L 37.431 31.672 L 37.919 32.049 L 38.038 32.302 L 38.156 32.554 L 38.494 32.628 L 38.832 32.703 L 38.823 32.954 L 38.815 33.204 L 43.068 33.797 L 47.321 34.39 L 47.25 34.908 L 47.179 35.427 L 47.147 35.458 L 47.115 35.491 L 45.539 35.09 L 43.962 34.689 L 43.855 34.687 L 43.746 34.684 L 44 34.955 L 44.255 35.226 L 44.255 35.54 L 44.255 35.855 L 43.992 35.85 L 43.728 35.845 L 42.614 35.641 L 41.499 35.438 L 41.063 35.106 L 40.628 34.773 L 40.628 34.626 L 40.628 34.478 L 40.778 34.353 L 40.928 34.229 L 41.364 34.327 L 41.799 34.426 L 41.869 34.313 L 41.938 34.2 L 41.897 34.17 L 41.857 34.14 L 40.27 33.728 L 38.683 33.315 L 38.426 33.784 L 38.17 34.253 L 38.199 34.276 L 38.229 34.3 L 41.272 36.497 L 44.314 38.693 L 44.406 38.778 L 44.499 38.862 L 44.348 38.987 L 44.196 39.111 L 41.154 36.727 Z M 43.67 34.625 L 43.67 34.567 L 43.611 34.567 L 43.553 34.567 L 43.553 34.625 L 43.553 34.684 L 43.611 34.684 L 43.67 34.684 L 43.67 34.625 Z M 24.54 37.261 L 24.474 37.153 L 24.741 36.987 L 25.008 36.82 L 26.529 36.002 L 28.05 35.185 L 28.43 34.99 L 28.811 34.795 L 28.811 34.846 L 28.811 34.896 L 27.611 35.598 L 26.412 36.3 L 25.509 36.834 L 24.606 37.368 L 24.54 37.261 Z M 41.251 35.751 L 38.657 34.157 L 38.56 34.048 L 38.463 33.94 L 38.99 34.235 L 39.516 34.531 L 41.594 35.67 L 43.671 36.81 L 43.797 37.045 L 43.923 37.28 L 43.884 37.313 L 43.846 37.346 L 41.251 35.751 Z M 19.099 36.11 L 19.099 35.986 L 19.198 35.925 L 19.297 35.863 L 23.598 34.915 L 27.898 33.966 L 27.942 34.01 L 27.986 34.054 L 23.747 35.092 L 19.508 36.129 L 19.304 36.181 L 19.099 36.233 L 19.099 36.11 Z M 24.54 35.504 L 24.203 35.152 L 24.43 35.154 L 24.657 35.155 L 25.095 35.227 L 25.534 35.3 L 25.534 35.505 L 25.534 35.71 L 25.271 35.781 L 25.008 35.851 L 24.942 35.853 L 24.876 35.855 L 24.54 35.504 Z M 15.238 34.816 L 15.238 34.715 L 15.618 34.654 L 15.999 34.594 L 19.422 34.207 L 22.845 33.821 L 22.698 33.727 L 22.55 33.633 L 22.068 33.632 L 21.586 33.63 L 21.22 33.557 L 20.854 33.484 L 20.854 33.365 L 20.854 33.246 L 21.059 33.085 L 21.264 32.923 L 21.457 32.81 L 21.65 32.697 L 22.334 33.231 L 23.019 33.766 L 23.896 33.708 L 24.774 33.649 L 24.481 33.707 L 24.189 33.766 L 19.928 34.342 L 15.667 34.918 L 15.452 34.918 L 15.238 34.918 L 15.238 34.816 Z M 28.927 34.748 L 28.927 34.69 L 29.278 34.508 L 29.63 34.326 L 29.63 34.385 L 29.63 34.444 L 29.278 34.625 L 28.927 34.807 L 28.927 34.748 Z M 29.746 34.274 L 29.746 34.215 L 29.805 34.215 L 29.864 34.215 L 29.864 34.274 L 29.864 34.333 L 29.805 34.333 L 29.746 34.333 L 29.746 34.274 Z M 29.98 34.157 L 29.98 34.098 L 30.039 34.098 L 30.097 34.098 L 30.097 34.157 L 30.097 34.215 L 30.039 34.215 L 29.98 34.215 L 29.98 34.157 Z M 28.203 33.901 L 28.357 33.84 L 28.428 33.91 L 28.498 33.981 L 28.274 33.972 L 28.05 33.963 L 28.203 33.901 Z M 28.671 33.784 L 28.825 33.723 L 28.896 33.794 L 28.966 33.864 L 28.742 33.855 L 28.518 33.846 L 28.671 33.784 Z M 29.201 33.669 L 29.278 33.591 L 29.356 33.669 L 29.435 33.747 L 29.278 33.747 L 29.122 33.747 L 29.201 33.669 Z M 25.095 33.549 L 25.3 33.496 L 25.505 33.549 L 25.71 33.603 L 25.3 33.603 L 24.891 33.603 L 25.095 33.549 Z M 29.668 33.552 L 29.746 33.474 L 29.825 33.552 L 29.902 33.63 L 29.746 33.63 L 29.591 33.63 L 29.668 33.552 Z M 26.09 33.435 L 26.236 33.376 L 26.383 33.435 L 26.529 33.494 L 26.236 33.494 L 25.944 33.494 L 26.09 33.435 Z M 27.094 33.318 L 27.172 33.239 L 27.25 33.318 L 27.328 33.396 L 27.172 33.396 L 27.016 33.396 L 27.094 33.318 Z M 28.03 33.201 L 28.108 33.123 L 28.187 33.201 L 28.264 33.279 L 28.108 33.279 L 27.952 33.279 L 28.03 33.201 Z M 25.214 32.847 L 24.73 32.533 L 24.849 32.311 L 24.968 32.087 L 24.929 32.049 L 24.89 32.01 L 22.15 31.887 L 19.41 31.763 L 19.29 31.643 L 19.169 31.522 L 19.456 31.524 L 19.742 31.526 L 22.141 31.699 L 24.54 31.872 L 25.372 31.8 L 26.204 31.727 L 26.286 31.859 L 26.367 31.991 L 26.916 32 L 27.465 32.009 L 27.319 32.068 L 27.172 32.127 L 27.172 32.469 L 27.172 32.811 L 26.892 32.811 L 26.612 32.811 L 26.545 32.986 L 26.478 33.162 L 26.088 33.162 L 25.698 33.162 L 25.214 32.847 Z M 26.588 32.166 L 26.588 32.108 L 26.529 32.108 L 26.47 32.108 L 26.47 32.166 L 26.47 32.225 L 26.529 32.225 L 26.588 32.225 L 26.588 32.166 Z M 52.387 32.916 L 48.175 32.702 L 48.014 32.758 L 47.854 32.814 L 47.096 32.736 L 46.338 32.658 L 46.14 32.446 L 45.943 32.234 L 45.685 32.301 L 45.428 32.368 L 45.492 32.472 L 45.556 32.576 L 44.818 32.558 L 44.08 32.541 L 44.406 32.492 L 44.734 32.442 L 44.679 32.246 L 44.624 32.049 L 44.552 31.796 L 44.48 31.544 L 44.923 31.397 L 45.366 31.251 L 45.802 30.901 L 46.237 30.552 L 47.528 31.116 L 48.818 31.681 L 48.818 31.741 L 48.818 31.802 L 48.505 32.129 L 48.192 32.457 L 48.263 32.527 L 48.333 32.599 L 53.28 32.763 L 58.226 32.928 L 58.343 33.045 L 58.459 33.162 L 57.529 33.147 L 56.599 33.131 L 52.387 32.916 Z M 41.681 32.4 L 41.681 32.342 L 41.739 32.342 L 41.798 32.342 L 41.798 32.4 L 41.798 32.459 L 41.739 32.459 L 41.681 32.459 L 41.681 32.4 Z M 30.136 31.561 L 30.215 31.483 L 30.292 31.561 L 30.37 31.639 L 30.215 31.639 L 30.059 31.639 L 30.136 31.561 Z M 27.465 31.194 L 25.593 30.896 L 25.542 30.856 L 25.491 30.816 L 25.622 30.685 L 25.752 30.555 L 27.72 30.995 L 29.688 31.436 L 29.737 31.479 L 29.785 31.522 L 29.561 31.507 L 29.337 31.492 L 27.465 31.194 Z M 33.491 31.112 L 32.73 30.713 L 31.753 30.72 L 30.776 30.728 L 30.29 30.264 L 29.805 29.799 L 29.22 29.409 L 28.635 29.02 L 28.549 28.895 L 28.463 28.77 L 28.461 28.684 L 28.459 28.597 L 29.291 29.24 L 30.122 29.883 L 30.502 29.09 L 30.882 28.296 L 31.427 27.751 L 31.972 27.205 L 32.644 26.876 L 33.315 26.546 L 34.319 26.505 L 35.324 26.465 L 35.732 26.578 L 36.14 26.691 L 38.82 19.036 L 41.501 11.382 L 41.655 11.382 L 41.81 11.382 L 42.155 11.56 L 42.5 11.739 L 42.5 11.824 L 42.5 11.909 L 39.817 19.386 L 37.135 26.863 L 37.214 27.07 L 37.293 27.276 L 37.679 27.599 L 38.065 27.922 L 38.352 27.653 L 38.639 27.383 L 38.639 27.198 L 38.64 27.014 L 38.988 26.78 L 39.337 26.546 L 44.094 21.359 L 48.85 16.171 L 49.125 16.431 L 49.401 16.69 L 44.751 21.383 L 40.101 26.077 L 40.603 26.114 L 41.105 26.15 L 41.673 25.674 L 42.24 25.199 L 42.32 25.199 L 42.399 25.199 L 42.01 25.912 L 41.623 26.626 L 40.886 27.215 L 40.15 27.804 L 40.208 27.862 L 40.265 27.92 L 44.63 24.844 L 48.994 21.769 L 49.147 21.649 L 49.301 21.528 L 49.264 22.073 L 49.228 22.617 L 43.582 26.123 L 37.937 29.63 L 37.937 29.59 L 37.937 29.549 L 39.038 28.781 L 40.139 28.012 L 40.013 27.601 L 39.886 27.19 L 39.783 27.19 L 39.68 27.19 L 39.324 27.374 L 38.968 27.558 L 38.899 27.49 L 38.83 27.421 L 38.506 27.732 L 38.181 28.044 L 38.297 28.261 L 38.413 28.478 L 38.09 28.478 L 37.768 28.478 L 37.008 29.209 L 36.25 29.941 L 36.859 29.275 L 37.469 28.609 L 37.469 28.543 L 37.469 28.478 L 37.065 28.478 L 36.66 28.478 L 36.583 28.889 L 36.506 29.301 L 35.759 29.224 L 35.011 29.148 L 35.258 29.743 L 35.505 30.338 L 35.006 30.93 L 34.507 31.522 L 34.379 31.517 L 34.251 31.511 L 33.491 31.112 Z M 38.873 31.229 L 38.873 31.171 L 38.931 31.171 L 38.99 31.171 L 38.99 31.229 L 38.99 31.288 L 38.931 31.288 L 38.873 31.288 L 38.873 31.229 Z M 39.614 31.093 L 39.692 31.015 L 39.77 31.093 L 39.848 31.171 L 39.692 31.171 L 39.536 31.171 L 39.614 31.093 Z M 30.449 30.995 L 30.449 30.937 L 30.507 30.937 L 30.565 30.937 L 30.565 30.995 L 30.565 31.054 L 30.507 31.054 L 30.449 31.054 L 30.449 30.995 Z M 40.248 30.976 L 40.394 30.917 L 40.54 30.976 L 40.686 31.035 L 40.394 31.035 L 40.101 31.035 L 40.248 30.976 Z M 30.215 30.878 L 30.215 30.819 L 30.273 30.819 L 30.331 30.819 L 30.331 30.878 L 30.331 30.937 L 30.273 30.937 L 30.215 30.937 L 30.215 30.878 Z M 40.979 30.877 L 41.154 30.824 L 50.924 29.179 L 60.694 27.534 L 61.016 27.47 L 61.338 27.405 L 61.338 27.796 L 61.338 28.188 L 51.597 29.511 L 41.857 30.835 L 41.33 30.881 L 40.803 30.929 L 40.979 30.877 Z M 29.98 30.761 L 29.98 30.702 L 30.039 30.702 L 30.097 30.702 L 30.097 30.761 L 30.097 30.819 L 30.039 30.819 L 29.98 30.819 L 29.98 30.761 Z M 29.746 30.644 L 29.746 30.585 L 29.805 30.585 L 29.864 30.585 L 29.864 30.644 L 29.864 30.702 L 29.805 30.702 L 29.746 30.702 L 29.746 30.644 Z M 29.512 30.527 L 29.512 30.468 L 29.571 30.468 L 29.63 30.468 L 29.63 30.527 L 29.63 30.585 L 29.571 30.585 L 29.512 30.585 L 29.512 30.527 Z M 29.278 30.41 L 29.278 30.351 L 29.337 30.351 L 29.396 30.351 L 29.396 30.41 L 29.396 30.468 L 29.337 30.468 L 29.278 30.468 L 29.278 30.41 Z M 29.045 30.292 L 29.045 30.234 L 29.103 30.234 L 29.161 30.234 L 29.161 30.292 L 29.161 30.351 L 29.103 30.351 L 29.045 30.351 L 29.045 30.292 Z M 38.522 30.292 L 38.522 30.234 L 38.58 30.234 L 38.639 30.234 L 38.639 30.292 L 38.639 30.351 L 38.58 30.351 L 38.522 30.351 L 38.522 30.292 Z M 28.27 29.948 L 27.671 29.675 L 27.586 29.537 L 27.5 29.399 L 28.214 29.76 L 28.927 30.12 L 28.927 30.177 L 28.927 30.234 L 28.898 30.227 L 28.869 30.221 L 28.27 29.948 Z M 38.912 30.156 L 38.99 30.078 L 39.068 30.156 L 39.146 30.234 L 38.99 30.234 L 38.834 30.234 L 38.912 30.156 Z M 39.436 30.037 L 39.589 29.976 L 39.66 30.046 L 39.731 30.117 L 39.507 30.107 L 39.282 30.099 L 39.436 30.037 Z M 39.904 29.92 L 40.058 29.858 L 40.128 29.929 L 40.199 30 L 39.974 29.991 L 39.75 29.981 L 39.904 29.92 Z M 40.335 29.818 L 40.453 29.773 L 49.277 27.486 L 58.101 25.199 L 58.238 25.199 L 58.375 25.199 L 58.508 25.491 L 58.642 25.784 L 58.577 25.784 L 58.512 25.784 L 49.48 27.833 L 40.447 29.883 L 40.333 29.873 L 40.219 29.864 L 40.335 29.818 Z M 37.703 29.707 L 37.703 29.648 L 37.761 29.648 L 37.82 29.648 L 37.82 29.707 L 37.82 29.766 L 37.761 29.766 L 37.703 29.766 L 37.703 29.707 Z M 38.99 29.707 L 38.99 29.648 L 39.048 29.648 L 39.107 29.648 L 39.107 29.707 L 39.107 29.766 L 39.048 29.766 L 38.99 29.766 L 38.99 29.707 Z M 39.224 29.59 L 39.224 29.531 L 39.282 29.531 L 39.341 29.531 L 39.341 29.59 L 39.341 29.648 L 39.282 29.648 L 39.224 29.648 L 39.224 29.59 Z M 39.458 29.503 L 39.516 29.437 L 42.398 28.079 L 45.279 26.721 L 45.352 26.721 L 45.425 26.721 L 45.425 26.995 L 45.425 27.268 L 42.646 28.335 L 39.867 29.402 L 39.634 29.486 L 39.399 29.569 L 39.458 29.503 Z M 37.257 26.89 L 37.293 26.766 L 39.282 22.823 L 41.272 18.879 L 41.337 18.877 L 41.402 18.875 L 41.604 19.023 L 41.806 19.171 L 39.64 22.893 L 37.474 26.615 L 37.348 26.814 L 37.221 27.014 L 37.257 26.89 Z M 48.237 26.233 L 47.481 26.125 L 47.444 26.088 L 47.407 26.051 L 47.524 25.771 L 47.64 25.491 L 47.885 25.207 L 48.129 24.922 L 48.853 25.646 L 49.576 26.37 L 49.285 26.355 L 48.994 26.341 L 48.237 26.233 Z M 36.065 26.136 L 36.065 25.98 L 36.143 26.057 L 36.221 26.136 L 36.143 26.214 L 36.065 26.292 L 36.065 26.136 Z M 36.182 25.667 L 36.182 25.511 L 36.26 25.589 L 36.338 25.667 L 36.26 25.745 L 36.182 25.823 L 36.182 25.667 Z M 36.299 25.316 L 36.299 25.16 L 36.377 25.238 L 36.455 25.316 L 36.377 25.394 L 36.299 25.472 L 36.299 25.316 Z M 36.453 24.906 L 36.49 24.672 L 37.535 20.545 L 38.58 16.418 L 38.646 16.417 L 38.711 16.417 L 38.933 16.579 L 39.155 16.741 L 38.603 18.482 L 38.05 20.222 L 37.234 22.681 L 36.417 25.14 L 36.453 24.906 Z M 54.551 23.325 L 53.908 22.868 L 53.797 22.863 L 53.685 22.857 L 53.316 23.214 L 52.948 23.572 L 52.509 23.313 L 52.071 23.054 L 52.146 22.581 L 52.222 22.108 L 52.348 21.955 L 52.474 21.803 L 52.898 21.801 L 53.323 21.8 L 53.574 21.733 L 53.825 21.665 L 53.971 21.119 L 54.118 20.574 L 54.203 20.477 L 54.288 20.381 L 54.724 21.161 L 55.16 21.942 L 55.224 22.868 L 55.287 23.794 L 55.241 23.788 L 55.195 23.782 L 54.551 23.325 Z M 41.408 22.572 L 41.076 22.306 L 41.157 21.765 L 41.238 21.225 L 41.411 21.082 L 41.583 20.938 L 41.814 20.921 L 42.044 20.905 L 42.155 21.112 L 42.266 21.319 L 42.262 21.766 L 42.257 22.213 L 41.998 22.526 L 41.739 22.839 L 41.408 22.572 Z M 36.596 19.688 L 36.514 19.285 L 36.221 19.039 L 35.928 18.793 L 36.011 18.238 L 36.094 17.683 L 36.381 17.738 L 36.667 17.792 L 36.772 17.515 L 36.878 17.236 L 37.213 17.236 L 37.547 17.236 L 37.733 17.905 L 37.919 18.574 L 37.548 18.988 L 37.176 19.403 L 36.927 19.747 L 36.678 20.092 L 36.596 19.688 Z"/>
  </g>
</svg>