<?xml version="1.0" encoding="utf-8"?>
<svg width="85px" height="85px" viewBox="0 0 85 85" version="1.1" id="svg8" preserveAspectRatio="xMidYMin" xmlns="http://www.w3.org/2000/svg" xmlns:bx="https://boxy-svg.com">
  <g>
    <path style="fill: rgb(0, 177, 89);" d="M 21.22 63.765 L 0 42.529 L 21.25 21.265 L 42.5 0 L 63.75 21.265 L 85 42.529 L 63.78 63.765 L 42.559 85 L 42.5 85 L 42.44 85 L 21.22 63.765 Z M 61.491 62.129 L 80.423 43.184 L 61.461 24.209 L 42.5 5.235 L 23.598 24.15 L 4.695 43.065 L 4.695 43.184 L 4.695 43.303 L 23.568 62.189 L 42.44 81.074 L 42.5 81.074 L 42.559 81.074 L 61.491 62.129 Z M 24.459 61.177 L 6.479 43.184 L 24.489 25.161 L 42.5 7.138 L 60.51 25.161 L 78.521 43.184 L 60.54 61.177 L 42.56 79.171 L 42.5 79.171 L 42.44 79.171 L 24.459 61.177 Z M 45.234 73.94 L 45.234 72.992 L 43.919 72.959 L 42.604 72.925 L 43.235 72.457 L 43.867 71.99 L 44.382 71.506 L 44.896 71.022 L 45.065 70.7 L 45.234 70.379 L 45.234 69.595 L 45.234 68.811 L 45.001 68.355 L 44.769 67.899 L 44.403 67.591 L 44.038 67.283 L 43.596 67.161 L 43.154 67.038 L 42.597 67.037 L 42.04 67.036 L 41.705 67.162 L 41.37 67.288 L 40.924 67.722 L 40.477 68.156 L 40.24 68.79 L 40.003 69.424 L 40.003 69.896 L 40.003 70.367 L 40.889 70.367 L 41.776 70.367 L 41.848 69.921 L 41.92 69.475 L 42.028 69.21 L 42.135 68.946 L 42.438 68.87 L 42.741 68.794 L 42.924 68.946 L 43.107 69.098 L 43.224 69.317 L 43.342 69.537 L 43.113 70.055 L 42.884 70.573 L 42.051 71.238 L 41.218 71.903 L 40.845 72.354 L 40.473 72.806 L 40.222 73.322 L 39.972 73.838 L 39.913 74.363 L 39.853 74.887 L 42.544 74.887 L 45.234 74.887 L 45.234 73.94 Z M 39.179 29.279 L 49.086 26.616 L 49.349 26.286 L 49.612 25.957 L 49.802 25.279 L 49.992 24.601 L 50.223 24.391 L 50.454 24.182 L 52.688 23.592 L 54.923 23.002 L 55.131 22.76 L 55.339 22.517 L 55.339 22.011 L 55.339 21.505 L 55.098 21.199 L 54.857 20.892 L 54.628 20.82 L 54.398 20.746 L 52.153 21.348 L 49.908 21.949 L 49.646 21.949 L 49.385 21.949 L 48.825 21.43 L 48.266 20.911 L 48.006 20.776 L 47.746 20.64 L 47.419 20.64 L 47.093 20.64 L 37.277 23.271 L 27.461 25.903 L 27.183 26.077 L 26.904 26.252 L 26.658 26.807 L 26.412 27.362 L 26.421 28.254 L 26.43 29.146 L 26.682 29.818 L 26.934 30.489 L 27.29 30.982 L 27.647 31.474 L 28.03 31.707 L 28.412 31.941 L 28.841 31.942 L 29.271 31.942 L 39.179 29.279 Z" bx:origin="0 0"/>
  </g>
</svg>