<?xml version="1.0" encoding="utf-8"?>
<svg width="85px" height="85px" viewBox="0 0 85 85" version="1.1" id="svg8" xmlns="http://www.w3.org/2000/svg">
  <g>
    <path style="fill: rgb(238, 66, 55);" d="M 21.22 63.765 L 0 42.53 L 21.25 21.265 L 42.5 0 L 63.75 21.265 L 85 42.53 L 63.78 63.765 L 42.56 85 L 42.5 85 L 42.44 85 L 21.22 63.765 Z M 61.492 61.415 L 80.423 42.47 L 61.491 23.525 L 42.559 4.58 L 23.598 23.555 L 4.637 42.53 L 23.538 61.445 L 42.44 80.361 L 42.5 80.361 L 42.56 80.361 L 61.492 61.415 Z M 24.49 60.493 L 6.538 42.53 L 24.549 24.507 L 42.559 6.483 L 60.54 24.477 L 78.521 42.47 L 60.541 60.464 L 42.56 78.457 L 42.5 78.457 L 42.44 78.457 L 24.49 60.493 Z M 45.472 72.869 L 45.472 71.922 L 44.107 71.888 L 42.742 71.855 L 43.744 71.119 L 44.745 70.383 L 45.079 69.878 L 45.412 69.374 L 45.412 68.473 L 45.412 67.572 L 45.135 67.124 L 44.857 66.678 L 44.332 66.37 L 43.808 66.062 L 43.095 65.998 L 42.383 65.933 L 41.848 66.137 L 41.314 66.341 L 40.909 66.815 L 40.504 67.288 L 40.372 67.81 L 40.241 68.331 L 40.241 68.814 L 40.241 69.297 L 41.125 69.297 L 42.008 69.297 L 42.145 68.635 L 42.282 67.974 L 42.579 67.839 L 42.875 67.704 L 43.074 67.827 L 43.273 67.95 L 43.425 68.262 L 43.577 68.572 L 43.409 68.976 L 43.24 69.379 L 42.734 69.784 L 42.226 70.189 L 41.531 70.832 L 40.835 71.475 L 40.54 72.081 L 40.244 72.687 L 40.167 73.252 L 40.09 73.818 L 42.781 73.818 L 45.472 73.818 L 45.472 72.869 Z M 51.654 40.389 L 51.654 39.08 L 42.975 39.08 L 34.297 39.08 L 34.297 40.389 L 34.297 41.697 L 42.975 41.697 L 51.654 41.697 L 51.654 40.389 Z M 45.929 37.834 L 47.872 37.661 L 48.769 37.168 L 49.667 36.675 L 50.231 36.27 L 50.796 35.864 L 51.452 34.992 L 52.108 34.119 L 52.479 32.917 L 52.85 31.714 L 53.029 29.479 L 53.209 27.243 L 53.124 25.994 L 53.04 24.745 L 52.952 25.15 L 52.865 25.555 L 52.65 27.279 L 52.434 29.003 L 51.896 29.399 L 51.356 29.795 L 50.96 29.797 L 50.563 29.801 L 50.86 29.448 L 51.156 29.095 L 51.65 27.611 L 52.145 26.127 L 52.002 25.138 L 51.858 24.15 L 51.548 23.274 L 51.238 22.399 L 51.129 22.382 L 51.02 22.365 L 50.51 23.228 L 50.001 24.091 L 49.681 24.511 L 49.361 24.932 L 49.014 25.178 L 48.668 25.425 L 48.877 24.966 L 49.086 24.507 L 49.132 23.622 L 49.178 22.737 L 49.046 21.387 L 48.914 20.037 L 48.236 18.673 L 47.557 17.309 L 47.478 17.309 L 47.398 17.309 L 47.311 18.813 L 47.225 20.317 L 46.913 21.261 L 46.601 22.205 L 46.204 22.453 L 45.807 22.7 L 45.886 22.057 L 45.966 21.414 L 45.787 20.581 L 45.608 19.748 L 44.432 17.19 L 43.255 14.632 L 42.916 13.056 L 42.576 11.48 L 42.509 11.48 L 42.441 11.481 L 42.06 12.522 L 41.68 13.562 L 41.558 14.097 L 41.436 14.632 L 41.433 16.047 L 41.431 17.461 L 41.233 19.019 L 41.036 20.578 L 40.746 21.234 L 40.456 21.889 L 40.176 21.354 L 39.896 20.819 L 39.888 20.521 L 39.88 20.224 L 39.591 19.403 L 39.301 18.582 L 38.969 18.232 L 38.637 17.881 L 37.941 17.528 L 37.246 17.175 L 37.196 17.224 L 37.147 17.273 L 37.311 18.058 L 37.475 18.842 L 37.299 19.771 L 37.123 20.7 L 37.107 22.377 L 37.091 24.054 L 36.902 23.937 L 36.713 23.818 L 36.248 23.092 L 35.784 22.365 L 35.099 21.722 L 34.414 21.079 L 34.342 21.151 L 34.269 21.223 L 34.4 22.324 L 34.53 23.424 L 34.394 24.247 L 34.258 25.069 L 34.396 26.106 L 34.535 27.143 L 34.774 27.842 L 35.015 28.54 L 35.233 28.784 L 35.451 29.027 L 35.546 29.194 L 35.642 29.361 L 35.14 29.293 L 34.638 29.226 L 33.907 28.532 L 33.177 27.838 L 32.414 27.005 L 31.651 26.172 L 31.54 26.13 L 31.429 26.088 L 31.507 26.546 L 31.585 27.005 L 32.421 30.455 L 33.257 33.905 L 33.773 34.741 L 34.29 35.577 L 35.334 36.247 L 36.378 36.915 L 37.591 37.276 L 38.804 37.636 L 40.682 37.766 L 42.56 37.895 L 43.214 37.93 L 43.868 37.965 L 43.927 37.986 L 43.986 38.006 L 45.929 37.834 Z M 42.441 37.301 L 40.776 36.978 L 40.241 36.666 L 39.706 36.354 L 38.97 35.605 L 38.233 34.856 L 37.993 34.292 L 37.753 33.726 L 38.068 33.935 L 38.383 34.143 L 39.669 34.329 L 40.954 34.515 L 40.954 34.409 L 40.954 34.303 L 40.436 33.628 L 39.917 32.953 L 39.485 32.093 L 39.052 31.234 L 39.052 30.688 L 39.052 30.141 L 39.629 30.734 L 40.205 31.326 L 41.068 31.761 L 41.93 32.195 L 41.988 32.137 L 42.046 32.079 L 41.916 31.244 L 41.787 30.409 L 41.787 29.739 L 41.787 29.069 L 42.315 27.717 L 42.843 26.365 L 42.923 25.941 L 43.002 25.518 L 43.388 26.024 L 43.774 26.53 L 44.074 27.124 L 44.374 27.718 L 44.511 28.38 L 44.647 29.041 L 44.521 30.164 L 44.394 31.288 L 44.323 31.734 L 44.253 32.18 L 44.33 32.18 L 44.406 32.18 L 45.504 31.568 L 46.601 30.957 L 47.004 30.587 L 47.405 30.217 L 47.329 30.99 L 47.253 31.763 L 46.955 32.374 L 46.657 32.984 L 46.005 33.663 L 45.353 34.342 L 45.353 34.391 L 45.353 34.44 L 46.248 34.44 L 47.143 34.44 L 47.847 34.084 L 48.551 33.729 L 48.121 34.471 L 47.691 35.213 L 47.027 35.907 L 46.364 36.601 L 45.472 37.051 L 44.58 37.502 L 44.343 37.563 L 44.105 37.624 L 42.441 37.301 Z"/>
  </g>
</svg>