<?xml version="1.0" encoding="utf-8"?>
<svg width="85px" height="85px" viewBox="0 0 85 85" version="1.1" id="svg8" preserveAspectRatio="xMidYMin" xmlns="http://www.w3.org/2000/svg">
  <g>
    <path style="fill: rgb(238, 66, 55);" d="M 21.249 63.75 L 0 42.5 L 21.25 21.25 L 42.5 0 L 63.75 21.25 L 85 42.5 L 63.75 63.75 L 42.499 85 L 21.249 63.75 Z M 61.432 61.432 L 80.363 42.5 L 61.402 23.538 L 42.44 4.577 L 23.538 23.479 L 4.636 42.381 L 4.636 42.5 L 4.636 42.618 L 23.508 61.491 L 42.38 80.364 L 42.44 80.364 L 42.5 80.364 L 61.432 61.432 Z M 24.489 60.451 L 6.479 42.44 L 24.46 24.46 L 42.44 6.479 L 60.451 24.489 L 78.461 42.5 L 60.48 60.481 L 42.499 78.462 L 24.489 60.451 Z M 43.614 73.819 L 44.128 73.53 L 44.405 73.054 L 44.681 72.577 L 44.759 72.15 L 44.837 71.723 L 44.707 71.24 L 44.577 70.756 L 44.179 70.407 L 43.781 70.058 L 44.011 69.914 L 44.241 69.77 L 44.421 69.34 L 44.601 68.909 L 44.524 68.396 L 44.447 67.882 L 44.132 67.508 L 43.817 67.134 L 43.337 66.916 L 42.856 66.698 L 41.972 66.695 L 41.089 66.692 L 40.598 66.929 L 40.108 67.167 L 39.858 67.504 L 39.609 67.842 L 39.48 68.307 L 39.351 68.773 L 39.35 68.921 L 39.349 69.07 L 40.112 69.07 L 40.876 69.07 L 40.951 68.725 L 41.027 68.381 L 41.264 68.167 L 41.501 67.952 L 41.914 67.952 L 42.326 67.952 L 42.58 68.206 L 42.833 68.459 L 42.822 68.853 L 42.811 69.246 L 42.553 69.455 L 42.295 69.664 L 41.773 69.664 L 41.251 69.664 L 41.251 70.258 L 41.251 70.853 L 41.65 70.853 L 42.048 70.853 L 42.425 70.985 L 42.802 71.116 L 42.918 71.333 L 43.034 71.551 L 43.034 71.92 L 43.034 72.29 L 42.743 72.582 L 42.451 72.874 L 41.965 72.874 L 41.478 72.874 L 41.187 72.582 L 40.895 72.29 L 40.895 71.988 L 40.895 71.685 L 40.063 71.685 L 39.23 71.685 L 39.23 71.939 L 39.23 72.192 L 39.366 72.645 L 39.501 73.097 L 39.886 73.47 L 40.271 73.843 L 40.731 74.014 L 41.192 74.185 L 42.146 74.147 L 43.1 74.108 L 43.614 73.819 Z M 51.594 40.36 L 51.594 39.112 L 42.916 39.112 L 34.237 39.112 L 34.237 40.36 L 34.237 41.608 L 42.916 41.608 L 51.594 41.608 L 51.594 40.36 Z M 46.212 37.789 L 47.73 37.655 L 48.431 37.303 L 49.131 36.952 L 49.919 36.427 L 50.708 35.903 L 51.354 35.041 L 52 34.178 L 52.392 32.99 L 52.784 31.801 L 52.969 29.483 L 53.153 27.164 L 53.065 25.916 L 52.977 24.668 L 52.892 25.143 L 52.807 25.619 L 52.594 27.306 L 52.381 28.993 L 51.889 29.34 L 51.398 29.686 L 50.949 29.77 L 50.5 29.854 L 50.796 29.46 L 51.091 29.066 L 51.59 27.64 L 52.09 26.213 L 51.947 25.143 L 51.804 24.073 L 51.503 23.241 L 51.201 22.409 L 51.118 22.313 L 51.034 22.218 L 50.393 23.31 L 49.752 24.403 L 49.296 24.872 L 48.84 25.342 L 48.776 25.277 L 48.711 25.212 L 48.904 24.73 L 49.098 24.247 L 49.098 23.293 L 49.098 22.34 L 48.978 21.186 L 48.859 20.031 L 48.18 18.634 L 47.501 17.238 L 47.422 17.238 L 47.343 17.238 L 47.261 18.753 L 47.179 20.269 L 46.862 21.262 L 46.544 22.254 L 46.222 22.421 L 45.9 22.587 L 45.823 22.587 L 45.747 22.587 L 45.826 22.008 L 45.906 21.43 L 45.759 20.671 L 45.612 19.913 L 44.395 17.238 L 43.178 14.563 L 42.85 13.047 L 42.523 11.531 L 42.448 11.531 L 42.374 11.531 L 41.994 12.572 L 41.613 13.612 L 41.495 14.147 L 41.376 14.682 L 41.373 16.103 L 41.371 17.525 L 41.186 19.016 L 41 20.507 L 40.74 21.129 L 40.479 21.751 L 40.41 21.753 L 40.341 21.755 L 40.092 21.191 L 39.842 20.626 L 39.773 20.21 L 39.705 19.794 L 39.449 19.14 L 39.193 18.486 L 38.958 18.223 L 38.722 17.96 L 37.973 17.571 L 37.225 17.183 L 37.17 17.24 L 37.115 17.297 L 37.263 18.08 L 37.411 18.862 L 37.197 20.16 L 36.983 21.458 L 36.978 22.49 L 36.972 23.523 L 37.088 23.829 L 37.205 24.135 L 36.919 23.948 L 36.633 23.76 L 36.138 23.001 L 35.644 22.242 L 34.995 21.688 L 34.345 21.133 L 34.284 21.194 L 34.222 21.256 L 34.345 22.354 L 34.467 23.452 L 34.332 24.325 L 34.196 25.198 L 34.342 26.15 L 34.487 27.102 L 34.719 27.776 L 34.951 28.449 L 35.26 28.855 L 35.57 29.26 L 35.528 29.295 L 35.486 29.33 L 35.011 29.272 L 34.535 29.214 L 32.943 27.595 L 31.35 25.975 L 31.431 26.451 L 31.511 26.927 L 32.364 30.433 L 33.217 33.94 L 33.729 34.747 L 34.241 35.553 L 35.262 36.218 L 36.283 36.884 L 37.43 37.241 L 38.577 37.6 L 40.479 37.745 L 42.381 37.891 L 43.538 37.907 L 44.695 37.923 L 46.213 37.789 L 46.212 37.789 Z M 42.247 37.276 L 40.806 37.011 L 40.167 36.623 L 39.528 36.235 L 38.899 35.623 L 38.27 35.011 L 37.978 34.372 L 37.685 33.734 L 37.685 33.668 L 37.685 33.602 L 37.957 33.857 L 38.228 34.112 L 39.513 34.303 L 40.797 34.494 L 40.861 34.43 L 40.925 34.366 L 40.328 33.559 L 39.732 32.752 L 39.362 31.933 L 38.993 31.114 L 38.993 30.602 L 38.993 30.091 L 39.592 30.725 L 40.191 31.359 L 41.048 31.779 L 41.905 32.199 L 41.942 32.037 L 41.979 31.874 L 41.853 31.191 L 41.727 30.509 L 41.727 29.81 L 41.727 29.111 L 42.214 27.84 L 42.702 26.57 L 42.842 26.049 L 42.983 25.529 L 43.313 25.961 L 43.643 26.394 L 43.983 27.04 L 44.323 27.686 L 44.465 28.372 L 44.608 29.059 L 44.414 30.597 L 44.22 32.135 L 44.255 32.169 L 44.289 32.203 L 45.356 31.609 L 46.423 31.014 L 46.883 30.575 L 47.344 30.136 L 47.282 30.872 L 47.219 31.608 L 46.915 32.273 L 46.611 32.937 L 45.949 33.631 L 45.288 34.324 L 45.736 34.399 L 46.185 34.473 L 46.575 34.474 L 46.964 34.475 L 47.674 34.117 L 48.384 33.759 L 48.384 33.829 L 48.384 33.899 L 47.911 34.709 L 47.438 35.519 L 46.815 36.079 L 46.193 36.639 L 45.27 37.103 L 44.348 37.566 L 44.018 37.554 L 43.688 37.541 L 42.247 37.276 Z"/>
  </g>
</svg>