<?xml version="1.0" encoding="utf-8"?>
<svg version="1.0" width="85px" height="85px" viewBox="0 0 85 85" preserveAspectRatio="xMidYMin" xmlns="http://www.w3.org/2000/svg">
  <g>
    <path d="M 41.311 1.278 L 40.045 2.555 L 40.436 2.934 L 40.826 3.312 L 41.701 2.425 L 42.577 1.538 L 43.239 2.189 L 43.902 2.839 L 44.28 2.449 L 44.659 2.058 L 43.618 1.029 L 42.589 0 L 41.311 1.278 Z M 46.374 4.614 L 46.031 4.981 L 47.889 6.838 L 49.746 8.695 L 50.125 8.305 L 50.515 7.926 L 48.681 6.093 C 47.676 5.087 46.824 4.259 46.777 4.259 C 46.741 4.259 46.564 4.424 46.374 4.614 Z M 36.023 6.566 L 34.189 8.399 L 34.58 8.778 L 34.958 9.168 L 36.816 7.311 L 38.673 5.454 L 38.33 5.087 C 38.141 4.898 37.963 4.732 37.928 4.732 C 37.88 4.732 37.029 5.56 36.023 6.566 Z M 36.212 12.161 C 32.888 15.462 24.701 23.589 18.006 30.214 C 9.074 39.087 5.856 42.34 5.856 42.541 C 5.856 42.731 10.6 47.522 23.909 60.736 C 33.834 70.603 42.08 78.765 42.234 78.86 C 42.435 78.99 42.577 79.014 42.731 78.919 C 42.861 78.86 51.035 70.709 60.902 60.807 C 73.891 47.782 78.848 42.743 78.848 42.553 C 78.848 42.21 42.825 6.152 42.482 6.152 C 42.34 6.152 39.986 8.399 36.212 12.161 Z M 60.074 60.121 L 42.541 77.653 L 42.032 77.216 C 41.749 76.979 33.787 69.077 24.323 59.648 L 7.122 42.53 L 24.796 24.997 L 42.47 7.465 L 60.038 25.021 L 77.606 42.589 L 60.074 60.121 Z M 41.169 14.622 C 40.187 14.835 38.697 15.509 37.691 16.196 C 36.65 16.905 35.467 18.053 35.325 18.491 C 34.899 19.804 34.686 23.246 34.958 24.607 C 35.006 24.903 35.041 25.151 35.029 25.175 C 34.935 25.257 33.834 24.145 33.338 23.471 C 32.699 22.584 32.143 22.241 31.386 22.241 C 30.759 22.241 29.954 22.596 29.717 22.974 C 29.611 23.116 29.493 23.495 29.457 23.814 C 29.386 24.276 29.292 24.429 28.913 24.737 C 27.813 25.601 27.86 26.736 29.008 27.399 C 29.741 27.836 30.25 27.919 31.279 27.789 L 32.178 27.659 L 35.349 28.724 C 37.442 29.434 38.436 29.812 38.306 29.871 C 38.188 29.919 37.005 30.321 35.68 30.77 C 33.267 31.587 33.255 31.587 31.965 31.587 C 30.344 31.587 29.848 31.729 29.138 32.415 C 28.687 32.852 28.57 33.042 28.57 33.349 C 28.57 33.905 28.747 34.154 29.386 34.485 L 29.966 34.769 L 30.013 35.668 C 30.049 36.449 30.096 36.591 30.38 36.875 C 30.676 37.17 30.782 37.206 31.575 37.206 C 32.332 37.206 32.498 37.17 32.935 36.863 C 33.207 36.674 33.823 36.023 34.296 35.431 C 35.159 34.367 35.171 34.355 36.449 33.775 C 37.159 33.468 38.247 33.018 38.862 32.805 L 39.974 32.403 L 40.518 32.616 C 41.228 32.9 43.878 32.912 44.624 32.64 L 45.109 32.45 L 46.351 33.065 C 47.084 33.444 47.83 33.728 48.196 33.775 C 48.776 33.858 48.859 33.917 50.196 35.242 C 50.953 36.011 51.698 36.697 51.84 36.768 C 52.254 36.993 53.366 36.946 53.887 36.674 C 54.502 36.354 54.715 36.023 54.715 35.36 C 54.715 34.852 54.762 34.769 55.176 34.426 C 56.43 33.432 56.442 32.273 55.188 31.776 C 54.62 31.551 52.94 31.35 51.544 31.35 C 50.799 31.35 50.338 31.279 49.699 31.054 C 48.35 30.593 46.966 29.954 46.966 29.812 C 46.966 29.67 47.498 29.481 50.681 28.511 C 52.36 27.99 52.668 27.931 53.047 28.038 C 54.312 28.392 55.507 28.038 56.229 27.103 C 56.903 26.216 56.702 25.411 55.685 24.926 C 55.176 24.678 55.129 24.63 54.999 24.015 C 54.809 23.128 54.75 23.01 54.407 22.844 C 54.04 22.678 52.715 22.667 52.289 22.832 C 52.124 22.891 51.532 23.424 50.965 24.015 C 50.408 24.595 49.912 25.08 49.864 25.08 C 49.817 25.08 49.805 24.429 49.841 23.625 C 49.9 21.933 49.734 20.454 49.32 19.165 C 49.048 18.301 48.965 18.183 48.173 17.438 C 47.037 16.385 45.878 15.569 44.683 14.989 C 43.511 14.421 42.518 14.326 41.169 14.622 Z M 44.34 15.947 C 45.215 16.361 46.232 17.095 47.297 18.1 C 47.971 18.727 48.125 18.94 48.315 19.579 C 48.681 20.738 48.835 22.146 48.776 23.589 C 48.681 25.589 48.445 25.979 47.214 26.133 L 46.635 26.204 L 46.292 27.032 C 45.854 28.085 45.605 28.345 44.73 28.617 C 43.653 28.937 42.778 29.019 41.69 28.866 C 39.974 28.629 39.454 28.251 39.454 27.233 C 39.454 26.748 39.158 26.547 38.093 26.334 C 37.585 26.228 37.029 26.062 36.875 25.955 C 36.129 25.47 35.846 24.216 35.928 21.933 C 36.023 19.816 36.271 18.798 36.875 18.147 C 37.75 17.201 39.134 16.468 41.358 15.793 C 42.589 15.427 43.31 15.462 44.34 15.947 Z M 31.788 23.436 C 31.942 23.495 32.273 23.85 32.533 24.216 C 33.125 25.045 34.047 25.884 34.935 26.429 C 35.798 26.949 37.324 27.564 37.88 27.612 C 38.271 27.647 38.33 27.694 38.46 28.156 C 38.566 28.523 38.566 28.629 38.472 28.594 C 38.389 28.57 37.017 28.109 35.408 27.576 C 32.438 26.606 32.084 26.535 30.936 26.724 C 30.297 26.819 29.729 26.677 29.386 26.31 L 29.138 26.05 L 29.8 25.399 C 30.321 24.891 30.463 24.69 30.463 24.394 C 30.463 23.483 31.019 23.081 31.788 23.436 Z M 53.946 24.216 C 54.088 25.116 54.62 25.754 55.472 26.062 C 55.661 26.121 55.33 26.582 54.904 26.843 C 54.454 27.127 54.111 27.15 53.177 26.949 C 52.55 26.819 52.431 26.843 51.035 27.245 C 50.231 27.482 49.001 27.86 48.303 28.085 C 47.593 28.31 47.025 28.463 47.025 28.44 C 47.025 28.416 47.108 28.215 47.214 27.99 C 47.38 27.659 47.546 27.541 48.078 27.34 C 49.249 26.914 50.243 26.239 51.521 24.997 C 52.739 23.802 52.775 23.779 53.319 23.779 C 53.875 23.779 53.875 23.779 53.946 24.216 Z M 40.317 30.25 C 40.613 30.404 41.086 30.463 42.423 30.498 C 44.079 30.546 44.695 30.463 45.57 30.096 C 45.653 30.061 45.687 30.12 45.641 30.262 C 45.546 30.64 44.754 31.326 44.198 31.527 C 43.571 31.74 41.642 31.764 40.968 31.563 C 40.424 31.397 39.809 30.759 39.809 30.344 C 39.809 29.99 39.832 29.99 40.317 30.25 Z M 38.945 31.504 C 38.933 31.563 38.389 31.8 37.738 32.048 C 36.236 32.616 34.745 33.314 34.45 33.574 C 34.319 33.681 33.846 34.225 33.385 34.757 C 32.45 35.881 31.965 36.236 31.527 36.129 C 31.125 36.035 31.054 35.893 31.054 35.077 C 31.054 34.225 30.9 33.965 30.226 33.657 C 29.694 33.42 29.682 33.314 30.155 32.959 C 30.439 32.746 30.711 32.699 32.214 32.64 C 33.941 32.569 33.965 32.569 36.26 31.835 C 37.525 31.421 38.59 31.066 38.626 31.042 C 38.697 30.96 38.992 31.374 38.945 31.504 Z M 52.242 32.403 C 53.827 32.462 54.253 32.521 54.514 32.687 C 54.691 32.805 54.833 32.935 54.833 32.994 C 54.833 33.054 54.573 33.338 54.265 33.621 C 53.555 34.248 53.366 34.58 53.449 35.088 C 53.532 35.562 53.342 35.751 52.775 35.763 C 52.408 35.775 52.242 35.644 51.142 34.532 C 49.628 33.006 49.143 32.675 48.184 32.474 C 47.581 32.344 46.197 31.811 45.972 31.634 C 45.949 31.61 46.055 31.468 46.209 31.315 L 46.493 31.054 L 48.386 31.693 L 50.277 32.344 L 52.242 32.403 Z M 38.802 23.116 C 38.614 23.199 38.342 23.388 38.223 23.518 C 37.999 23.767 38.01 23.779 38.318 24.264 C 38.768 24.938 39.525 25.269 40.14 25.068 C 40.791 24.855 41.097 24.619 41.347 24.134 C 41.571 23.696 41.571 23.696 41.311 23.447 C 41.169 23.317 40.897 23.152 40.72 23.081 C 40.258 22.903 39.229 22.927 38.802 23.116 Z M 43.748 23.258 C 43.441 23.436 43.239 23.649 43.239 23.779 C 43.239 24.418 44.695 25.317 45.333 25.068 C 45.771 24.903 46.398 24.418 46.622 24.063 C 46.788 23.826 46.788 23.743 46.658 23.589 C 46.09 22.915 44.6 22.737 43.748 23.258 Z M 41.832 26.582 C 41.394 26.997 41.216 27.269 41.157 27.588 L 41.086 28.038 L 41.571 28.038 C 41.843 28.038 42.163 27.978 42.281 27.896 C 42.459 27.789 42.577 27.789 42.825 27.896 C 42.991 27.978 43.287 28.038 43.476 28.038 C 43.748 28.038 43.831 27.99 43.831 27.801 C 43.831 27.316 43.5 26.784 42.967 26.405 L 42.435 26.026 L 41.832 26.582 Z M 41.595 61.659 C 41.382 61.718 41.063 61.848 40.909 61.955 C 40.542 62.191 40.164 62.937 40.164 63.41 L 40.164 63.765 L 40.909 63.765 C 41.607 63.753 41.654 63.741 41.879 63.374 C 42.163 62.925 42.672 62.807 43.015 63.126 C 43.535 63.587 43.204 64.084 41.453 65.504 C 40.518 66.249 40.045 66.959 40.045 67.586 L 40.045 67.905 L 42.47 67.905 L 44.896 67.905 L 44.896 67.255 L 44.896 66.604 L 43.713 66.604 C 43.062 66.604 42.53 66.557 42.53 66.509 C 42.53 66.45 42.979 66.048 43.535 65.61 C 44.754 64.64 44.943 64.333 44.872 63.374 C 44.825 62.724 44.777 62.629 44.34 62.227 C 43.677 61.6 42.577 61.375 41.595 61.659 Z M 52.254 10.446 L 51.875 10.836 L 53.745 12.694 L 55.614 14.551 L 55.992 14.161 L 56.371 13.77 L 54.502 11.913 L 52.633 10.056 L 52.254 10.446 Z M 30.132 12.457 L 28.333 14.267 L 28.724 14.646 L 29.114 15.024 L 30.912 13.214 C 31.906 12.221 32.711 11.357 32.711 11.286 C 32.711 11.132 32.214 10.647 32.048 10.647 C 31.989 10.647 31.125 11.463 30.132 12.457 Z M 58.051 16.243 L 57.672 16.633 L 59.565 18.514 L 61.458 20.407 L 61.836 20.017 L 62.227 19.638 L 60.334 17.745 L 58.429 15.841 L 58.051 16.243 Z M 24.311 18.278 L 22.477 20.111 L 22.868 20.49 L 23.246 20.88 L 25.104 19.023 L 26.961 17.166 L 26.618 16.799 C 26.429 16.61 26.251 16.444 26.216 16.444 C 26.168 16.444 25.317 17.272 24.311 18.278 Z M 63.883 22.122 L 63.54 22.489 L 65.397 24.347 L 67.255 26.204 L 67.633 25.813 L 68.024 25.435 L 66.19 23.601 C 65.184 22.596 64.333 21.768 64.285 21.768 C 64.25 21.768 64.072 21.933 63.883 22.122 Z M 18.479 24.11 L 16.621 25.979 L 17.012 26.358 L 17.402 26.736 L 19.26 24.867 L 21.117 22.998 L 20.727 22.619 L 20.336 22.241 L 18.479 24.11 Z M 69.763 27.955 L 69.384 28.345 L 71.253 30.203 L 73.122 32.06 L 73.501 31.669 L 73.88 31.279 L 72.01 29.422 L 70.141 27.564 L 69.763 27.955 Z M 12.622 29.966 L 10.825 31.776 L 11.215 32.154 L 11.605 32.533 L 13.427 30.699 L 15.249 28.878 L 14.906 28.511 C 14.717 28.322 14.539 28.156 14.504 28.156 C 14.457 28.156 13.617 28.972 12.622 29.966 Z M 75.595 33.834 L 75.252 34.201 L 77.109 36.058 L 78.967 37.916 L 79.345 37.525 L 79.736 37.147 L 77.902 35.313 C 76.896 34.308 76.045 33.479 75.997 33.479 C 75.962 33.479 75.784 33.645 75.595 33.834 Z M 6.802 35.786 L 4.969 37.62 L 5.359 37.999 L 5.737 38.389 L 7.595 36.532 L 9.452 34.674 L 9.109 34.308 C 8.92 34.118 8.743 33.953 8.707 33.953 C 8.66 33.953 7.808 34.781 6.802 35.786 Z M 81.475 39.667 L 81.096 40.057 L 82.279 41.228 L 83.462 42.399 L 83.024 42.849 L 82.587 43.299 L 82.965 43.689 L 83.344 44.067 L 84.172 43.239 L 85 42.411 L 83.427 40.838 L 81.853 39.276 L 81.475 39.667 Z M 1.42 41.169 L 0 42.589 L 1.952 44.541 C 3.029 45.617 3.963 46.493 4.034 46.493 C 4.188 46.493 4.673 45.996 4.673 45.83 C 4.673 45.771 3.963 45.026 3.111 44.162 L 1.538 42.589 L 2.579 41.548 L 3.608 40.507 L 3.218 40.128 L 2.827 39.749 L 1.42 41.169 Z M 78.576 47.297 L 76.719 49.166 L 77.109 49.545 L 77.5 49.923 L 79.357 48.054 L 81.214 46.185 L 80.824 45.807 L 80.434 45.428 L 78.576 47.297 Z M 6.507 48.386 L 6.164 48.752 L 7.985 50.574 L 9.807 52.408 L 10.198 52.029 L 10.588 51.651 L 8.79 49.841 C 7.796 48.847 6.956 48.031 6.909 48.031 C 6.873 48.031 6.696 48.196 6.507 48.386 Z M 72.697 53.177 L 70.863 55.01 L 71.253 55.389 L 71.632 55.779 L 73.525 53.887 L 75.418 52.006 L 75.097 51.674 C 74.921 51.497 74.72 51.343 74.66 51.343 C 74.589 51.343 73.702 52.171 72.697 53.177 Z M 12.303 54.182 L 11.96 54.549 L 13.818 56.406 L 15.675 58.264 L 16.054 57.873 L 16.444 57.495 L 14.61 55.661 C 13.605 54.656 12.753 53.827 12.706 53.827 C 12.67 53.827 12.493 53.993 12.303 54.182 Z M 66.9 58.974 L 65.066 60.807 L 65.457 61.186 L 65.835 61.576 L 67.669 59.743 L 69.514 57.897 L 69.112 57.518 L 68.722 57.14 L 66.9 58.974 Z M 18.183 60.015 L 17.804 60.405 L 19.674 62.262 L 21.543 64.12 L 21.921 63.729 L 22.3 63.339 L 20.431 61.482 L 18.562 59.624 L 18.183 60.015 Z M 60.985 64.889 L 59.151 66.722 L 59.541 67.101 L 59.92 67.491 L 61.813 65.598 L 63.706 63.717 L 63.386 63.386 C 63.209 63.209 63.008 63.055 62.949 63.055 C 62.878 63.055 61.99 63.883 60.985 64.889 Z M 24.015 65.894 L 23.672 66.261 L 25.53 68.118 L 27.387 69.976 L 27.765 69.585 L 28.156 69.207 L 26.322 67.373 C 25.317 66.367 24.465 65.539 24.418 65.539 C 24.382 65.539 24.205 65.705 24.015 65.894 Z M 55.188 70.685 L 53.354 72.519 L 53.745 72.898 L 54.123 73.288 L 55.981 71.431 L 57.838 69.572 L 57.495 69.207 C 57.306 69.017 57.128 68.852 57.093 68.852 C 57.045 68.852 56.193 69.68 55.188 70.685 Z M 29.812 71.691 L 29.469 72.058 L 31.291 73.88 C 32.296 74.885 33.184 75.713 33.255 75.713 C 33.408 75.713 33.894 75.216 33.894 75.051 C 33.894 74.932 30.333 71.336 30.214 71.336 C 30.179 71.336 30.001 71.502 29.812 71.691 Z M 49.356 76.518 L 47.498 78.387 L 47.889 78.765 L 48.279 79.144 L 50.136 77.275 L 51.994 75.406 L 51.603 75.027 L 51.212 74.649 L 49.356 76.518 Z M 35.692 77.523 L 35.313 77.914 L 37.182 79.771 L 39.051 81.628 L 39.43 81.238 L 39.809 80.848 L 37.939 78.99 L 36.07 77.133 L 35.692 77.523 Z M 43.866 82.007 C 42.435 83.438 42.423 83.45 42.175 83.225 C 41.926 83.001 41.926 83.013 41.548 83.379 L 41.169 83.758 L 41.796 84.373 L 42.411 85 L 44.269 83.143 L 46.126 81.285 L 45.783 80.919 C 45.594 80.729 45.416 80.564 45.381 80.564 C 45.333 80.564 44.659 81.214 43.866 82.007 Z"/>
  </g>
</svg>