<?xml version="1.0" encoding="utf-8"?>
<svg version="1.0" width="85px" height="85px" viewBox="0 0 85 85" preserveAspectRatio="xMidYMin" xmlns="http://www.w3.org/2000/svg">
  <g transform="matrix(0.01183, 0, 0, -0.01183, -0.058426, 85.058426)" fill="#000000">
    <path d="M 3497 7082 L 3390 6974 L 3423 6942 L 3456 6910 L 3530 6985 L 3604 7060 L 3660 7005 L 3716 6950 L 3748 6983 L 3780 7016 L 3692 7103 L 3605 7190 L 3497 7082 Z M 3925 6800 L 3896 6769 L 4053 6612 L 4210 6455 L 4242 6488 L 4275 6520 L 4120 6675 C 4035 6760 3963 6830 3959 6830 C 3956 6830 3941 6816 3925 6800 Z M 3050 6635 L 2895 6480 L 2928 6448 L 2960 6415 L 3117 6572 L 3274 6729 L 3245 6760 C 3229 6776 3214 6790 3211 6790 C 3207 6790 3135 6720 3050 6635 Z M 3066 6162 C 2785 5883 2093 5196 1527 4636 C 772 3886 500 3611 500 3594 C 500 3578 901 3173 2026 2056 C 2865 1222 3562 532 3575 524 C 3592 513 3604 511 3617 519 C 3628 524 4319 1213 5153 2050 C 6251 3151 6670 3577 6670 3593 C 6670 3622 3625 6670 3596 6670 C 3584 6670 3385 6480 3066 6162 Z M 5083 2108 L 3601 626 L 3558 663 C 3534 683 2861 1351 2061 2148 L 607 3595 L 2101 5077 L 3595 6559 L 5080 5075 L 6565 3590 L 5083 2108 Z M 3485 5954 C 3402 5936 3276 5879 3191 5821 C 3103 5761 3003 5664 2991 5627 C 2955 5516 2937 5225 2960 5110 C 2964 5085 2967 5064 2966 5062 C 2958 5055 2865 5149 2823 5206 C 2769 5281 2722 5310 2658 5310 C 2605 5310 2537 5280 2517 5248 C 2508 5236 2498 5204 2495 5177 C 2489 5138 2481 5125 2449 5099 C 2356 5026 2360 4930 2457 4874 C 2519 4837 2562 4830 2649 4841 L 2725 4852 L 2993 4762 C 3170 4702 3254 4670 3243 4665 C 3233 4661 3133 4627 3021 4589 C 2817 4520 2816 4520 2707 4520 C 2570 4520 2528 4508 2468 4450 C 2430 4413 2420 4397 2420 4371 C 2420 4324 2435 4303 2489 4275 L 2538 4251 L 2542 4175 C 2545 4109 2549 4097 2573 4073 C 2598 4048 2607 4045 2674 4045 C 2738 4045 2752 4048 2789 4074 C 2812 4090 2864 4145 2904 4195 C 2977 4285 2978 4286 3086 4335 C 3146 4361 3238 4399 3290 4417 L 3384 4451 L 3430 4433 C 3490 4409 3714 4408 3777 4431 L 3818 4447 L 3923 4395 C 3985 4363 4048 4339 4079 4335 C 4128 4328 4135 4323 4248 4211 C 4312 4146 4375 4088 4387 4082 C 4422 4063 4516 4067 4560 4090 C 4612 4117 4630 4145 4630 4201 C 4630 4244 4634 4251 4669 4280 C 4775 4364 4776 4462 4670 4504 C 4622 4523 4480 4540 4362 4540 C 4299 4540 4260 4546 4206 4565 C 4092 4604 3975 4658 3975 4670 C 3975 4682 4020 4698 4289 4780 C 4431 4824 4457 4829 4489 4820 C 4596 4790 4697 4820 4758 4899 C 4815 4974 4798 5042 4712 5083 C 4669 5104 4665 5108 4654 5160 C 4638 5235 4633 5245 4604 5259 C 4573 5273 4461 5274 4425 5260 C 4411 5255 4361 5210 4313 5160 C 4266 5111 4224 5070 4220 5070 C 4216 5070 4215 5125 4218 5193 C 4223 5336 4209 5461 4174 5570 C 4151 5643 4144 5653 4077 5716 C 3981 5805 3883 5874 3782 5923 C 3683 5971 3599 5979 3485 5954 Z M 3753 5842 C 3827 5807 3913 5745 4003 5660 C 4060 5607 4073 5589 4089 5535 C 4120 5437 4133 5318 4128 5196 C 4120 5027 4100 4994 3996 4981 L 3947 4975 L 3918 4905 C 3881 4816 3860 4794 3786 4771 C 3695 4744 3621 4737 3529 4750 C 3384 4770 3340 4802 3340 4888 C 3340 4929 3315 4946 3225 4964 C 3182 4973 3135 4987 3122 4996 C 3059 5037 3035 5143 3042 5336 C 3050 5515 3071 5601 3122 5656 C 3196 5736 3313 5798 3501 5855 C 3605 5886 3666 5883 3753 5842 Z M 2692 5209 C 2705 5204 2733 5174 2755 5143 C 2805 5073 2883 5002 2958 4956 C 3031 4912 3160 4860 3207 4856 C 3240 4853 3245 4849 3256 4810 C 3265 4779 3265 4770 3257 4773 C 3250 4775 3134 4814 2998 4859 C 2747 4941 2717 4947 2620 4931 C 2566 4923 2518 4935 2489 4966 L 2468 4988 L 2524 5043 C 2568 5086 2580 5103 2580 5128 C 2580 5205 2627 5239 2692 5209 Z M 4565 5143 C 4577 5067 4622 5013 4694 4987 C 4710 4982 4682 4943 4646 4921 C 4608 4897 4579 4895 4500 4912 C 4447 4923 4437 4921 4319 4887 C 4251 4867 4147 4835 4088 4816 C 4028 4797 3980 4784 3980 4786 C 3980 4788 3987 4805 3996 4824 C 4010 4852 4024 4862 4069 4879 C 4168 4915 4252 4972 4360 5077 C 4463 5178 4466 5180 4512 5180 C 4559 5180 4559 5180 4565 5143 Z M 3413 4633 C 3438 4620 3478 4615 3591 4612 C 3731 4608 3783 4615 3857 4646 C 3864 4649 3867 4644 3863 4632 C 3855 4600 3788 4542 3741 4525 C 3688 4507 3525 4505 3468 4522 C 3422 4536 3370 4590 3370 4625 C 3370 4655 3372 4655 3413 4633 Z M 3297 4527 C 3296 4522 3250 4502 3195 4481 C 3068 4433 2942 4374 2917 4352 C 2906 4343 2866 4297 2827 4252 C 2748 4157 2707 4127 2670 4136 C 2636 4144 2630 4156 2630 4225 C 2630 4297 2617 4319 2560 4345 C 2515 4365 2514 4374 2554 4404 C 2578 4422 2601 4426 2728 4431 C 2874 4437 2876 4437 3070 4499 C 3177 4534 3267 4564 3270 4566 C 3276 4573 3301 4538 3297 4527 Z M 4421 4451 C 4555 4446 4591 4441 4613 4427 C 4628 4417 4640 4406 4640 4401 C 4640 4396 4618 4372 4592 4348 C 4532 4295 4516 4267 4523 4224 C 4530 4184 4514 4168 4466 4167 C 4435 4166 4421 4177 4328 4271 C 4200 4400 4159 4428 4078 4445 C 4027 4456 3910 4501 3891 4516 C 3889 4518 3898 4530 3911 4543 L 3935 4565 L 4095 4511 L 4255 4456 L 4421 4451 Z M 3285 5236 C 3269 5229 3246 5213 3236 5202 C 3217 5181 3218 5180 3244 5139 C 3282 5082 3346 5054 3398 5071 C 3453 5089 3479 5109 3500 5150 C 3519 5187 3519 5187 3497 5208 C 3485 5219 3462 5233 3447 5239 C 3408 5254 3321 5252 3285 5236 Z M 3703 5224 C 3677 5209 3660 5191 3660 5180 C 3660 5126 3783 5050 3837 5071 C 3874 5085 3927 5126 3946 5156 C 3960 5176 3960 5183 3949 5196 C 3901 5253 3775 5268 3703 5224 Z M 3541 4943 C 3504 4908 3489 4885 3484 4858 L 3478 4820 L 3519 4820 C 3542 4820 3569 4825 3579 4832 C 3594 4841 3604 4841 3625 4832 C 3639 4825 3664 4820 3680 4820 C 3703 4820 3710 4824 3710 4840 C 3710 4881 3682 4926 3637 4958 L 3592 4990 L 3541 4943 Z M 3555 2021 C 3499 2007 3459 1979 3430 1933 C 3391 1871 3377 1796 3382 1675 C 3386 1587 3390 1567 3416 1521 C 3453 1452 3501 1420 3577 1413 C 3658 1406 3717 1424 3760 1469 C 3834 1546 3839 1679 3772 1753 C 3721 1809 3608 1827 3537 1791 L 3499 1772 L 3506 1808 C 3520 1885 3559 1930 3612 1930 C 3639 1930 3680 1900 3680 1880 C 3680 1874 3709 1870 3746 1870 C 3809 1870 3811 1871 3804 1893 C 3782 1965 3742 2003 3669 2019 C 3619 2031 3598 2031 3555 2021 Z M 3635 1705 C 3688 1683 3707 1611 3675 1551 C 3649 1500 3588 1495 3538 1538 C 3511 1563 3507 1574 3507 1613 C 3507 1662 3526 1695 3565 1711 C 3593 1722 3596 1722 3635 1705 Z M 4422 6307 L 4390 6274 L 4548 6117 L 4706 5960 L 4738 5993 L 4770 6026 L 4612 6183 L 4454 6340 L 4422 6307 Z M 2552 6137 L 2400 5984 L 2433 5952 L 2466 5920 L 2618 6073 C 2702 6157 2770 6230 2770 6236 C 2770 6249 2728 6290 2714 6290 C 2709 6290 2636 6221 2552 6137 Z M 4912 5817 L 4880 5784 L 5040 5625 L 5200 5465 L 5232 5498 L 5265 5530 L 5105 5690 L 4944 5851 L 4912 5817 Z M 2060 5645 L 1905 5490 L 1938 5458 L 1970 5425 L 2127 5582 L 2284 5739 L 2255 5770 C 2239 5786 2224 5800 2221 5800 C 2217 5800 2145 5730 2060 5645 Z M 5405 5320 L 5376 5289 L 5533 5132 L 5690 4975 L 5722 5008 L 5755 5040 L 5600 5195 C 5515 5280 5443 5350 5439 5350 C 5436 5350 5421 5336 5405 5320 Z M 1567 5152 L 1410 4994 L 1443 4962 L 1476 4930 L 1633 5088 L 1790 5246 L 1757 5278 L 1724 5310 L 1567 5152 Z M 5902 4827 L 5870 4794 L 6028 4637 L 6186 4480 L 6218 4513 L 6250 4546 L 6092 4703 L 5934 4860 L 5902 4827 Z M 1072 4657 L 920 4504 L 953 4472 L 986 4440 L 1140 4595 L 1294 4749 L 1265 4780 C 1249 4796 1234 4810 1231 4810 C 1227 4810 1156 4741 1072 4657 Z M 6395 4330 L 6366 4299 L 6523 4142 L 6680 3985 L 6712 4018 L 6745 4050 L 6590 4205 C 6505 4290 6433 4360 6429 4360 C 6426 4360 6411 4346 6395 4330 Z M 580 4165 L 425 4010 L 458 3978 L 490 3945 L 647 4102 L 804 4259 L 775 4290 C 759 4306 744 4320 741 4320 C 737 4320 665 4250 580 4165 Z M 6892 3837 L 6860 3804 L 6960 3705 L 7060 3606 L 7023 3568 L 6986 3530 L 7018 3497 L 7050 3465 L 7120 3535 L 7190 3605 L 7057 3738 L 6924 3870 L 6892 3837 Z M 125 3710 L 5 3590 L 170 3425 C 261 3334 340 3260 346 3260 C 359 3260 400 3302 400 3316 C 400 3321 340 3384 268 3457 L 135 3590 L 223 3678 L 310 3766 L 277 3798 L 244 3830 L 125 3710 Z M 6647 3192 L 6490 3034 L 6523 3002 L 6556 2970 L 6713 3128 L 6870 3286 L 6837 3318 L 6804 3350 L 6647 3192 Z M 555 3100 L 526 3069 L 680 2915 L 834 2760 L 867 2792 L 900 2824 L 748 2977 C 664 3061 593 3130 589 3130 C 586 3130 571 3116 555 3100 Z M 6150 2695 L 5995 2540 L 6028 2508 L 6060 2475 L 6220 2635 L 6380 2794 L 6353 2822 C 6338 2837 6321 2850 6316 2850 C 6310 2850 6235 2780 6150 2695 Z M 1045 2610 L 1016 2579 L 1173 2422 L 1330 2265 L 1362 2298 L 1395 2330 L 1240 2485 C 1155 2570 1083 2640 1079 2640 C 1076 2640 1061 2626 1045 2610 Z M 5660 2205 L 5505 2050 L 5538 2018 L 5570 1985 L 5725 2140 L 5881 2296 L 5847 2328 L 5814 2360 L 5660 2205 Z M 1542 2117 L 1510 2084 L 1668 1927 L 1826 1770 L 1858 1803 L 1890 1836 L 1732 1993 L 1574 2150 L 1542 2117 Z M 5160 1705 L 5005 1550 L 5038 1518 L 5070 1485 L 5230 1645 L 5390 1804 L 5363 1832 C 5348 1847 5331 1860 5326 1860 C 5320 1860 5245 1790 5160 1705 Z M 2035 1620 L 2006 1589 L 2163 1432 L 2320 1275 L 2352 1308 L 2385 1340 L 2230 1495 C 2145 1580 2073 1650 2069 1650 C 2066 1650 2051 1636 2035 1620 Z M 4670 1215 L 4515 1060 L 4548 1028 L 4580 995 L 4737 1152 L 4894 1309 L 4865 1340 C 4849 1356 4834 1370 4831 1370 C 4827 1370 4755 1300 4670 1215 Z M 2525 1130 L 2496 1099 L 2650 945 C 2735 860 2810 790 2816 790 C 2829 790 2870 832 2870 846 C 2870 856 2569 1160 2559 1160 C 2556 1160 2541 1146 2525 1130 Z M 4177 722 L 4020 564 L 4053 532 L 4086 500 L 4243 658 L 4400 816 L 4367 848 L 4334 880 L 4177 722 Z M 3022 637 L 2990 604 L 3148 447 L 3306 290 L 3338 323 L 3370 356 L 3212 513 L 3054 670 L 3022 637 Z M 3713 258 C 3592 137 3591 136 3570 155 C 3549 174 3549 173 3517 142 L 3485 110 L 3538 58 L 3590 5 L 3747 162 L 3904 319 L 3875 350 C 3859 366 3844 380 3841 380 C 3837 380 3780 325 3713 258 Z"/>
  </g>
</svg>