<?xml version="1.0" encoding="utf-8"?>
<svg width="85px" height="85px" viewBox="0 0 85 85" version="1.1" id="svg8" preserveAspectRatio="xMidYMin" xmlns="http://www.w3.org/2000/svg">
  <g>
    <path style="fill: rgb(238, 66, 55); stroke-width: 0.934;" d="M 42.869 83.17 L 42.563 82.851 L 44.432 80.987 L 46.299 79.124 L 46.634 79.477 L 46.971 79.825 L 45.139 81.657 L 43.308 83.489 L 43.242 83.489 L 43.176 83.489 L 42.869 83.17 Z M 41.639 81.941 L 40.899 81.196 L 40.772 81.196 L 40.641 81.196 L 40.43 81.429 L 40.218 81.664 L 38.348 79.799 L 36.479 77.935 L 36.843 77.557 L 37.213 77.178 L 38.276 78.239 L 39.342 79.298 L 39.342 77.292 L 39.342 75.289 L 36.415 72.366 L 33.485 69.443 L 33.485 71.447 L 33.485 73.451 L 34.293 74.259 L 35.098 75.068 L 34.722 75.434 L 34.344 75.802 L 32.473 73.935 L 30.606 72.067 L 30.841 71.853 L 31.077 71.643 L 31.077 71.514 L 31.077 71.386 L 30.046 70.363 L 29.014 69.337 L 28.72 69.615 L 28.429 69.891 L 26.57 68.033 L 24.709 66.176 L 25.077 65.803 L 25.45 65.432 L 26.368 66.344 L 27.287 67.256 L 27.287 65.253 L 27.287 63.247 L 24.416 60.381 L 21.546 57.518 L 21.546 59.519 L 21.546 61.525 L 22.435 62.416 L 23.324 63.305 L 22.951 63.677 L 22.578 64.048 L 20.72 62.19 L 18.858 60.333 L 19.133 60.04 L 19.413 59.745 L 18.33 58.66 L 17.247 57.573 L 16.959 57.861 L 16.671 58.147 L 14.802 56.285 L 12.938 54.425 L 13.306 54.048 L 13.671 53.669 L 14.626 54.614 L 15.578 55.561 L 15.578 53.555 L 15.578 51.551 L 12.59 48.571 L 9.604 45.59 L 9.604 47.599 L 9.604 49.607 L 10.524 50.519 L 11.441 51.431 L 11.441 51.558 L 11.441 51.683 L 11.176 51.933 L 10.91 52.182 L 10.802 52.182 L 10.692 52.182 L 8.861 50.35 L 7.03 48.519 L 7.312 48.226 L 7.585 47.931 L 6.533 46.88 L 5.484 45.828 L 5.183 46.104 L 4.888 46.383 L 3.029 44.525 L 1.167 42.667 L 1.946 41.884 L 2.727 41.103 L 2.66 40.936 L 2.6 40.771 L 4.425 38.95 L 6.25 37.129 L 6.393 37.218 L 6.529 37.303 L 7.603 36.234 L 8.678 35.167 L 8.571 35.04 L 8.464 34.912 L 9.604 35.156 L 9.604 36.846 L 9.604 38.536 L 9.691 38.536 L 9.775 38.536 L 12.677 35.643 L 15.578 32.747 L 15.578 31.055 L 15.578 29.362 L 15.498 29.362 L 15.424 29.362 L 15.21 29.556 L 14.997 29.745 L 14.655 29.414 L 14.307 29.083 L 16.168 27.22 L 18.032 25.357 L 18.161 25.464 L 18.289 25.571 L 19.346 24.507 L 20.406 23.442 L 20.344 23.277 L 20.28 23.112 L 22.116 21.281 L 23.952 19.451 L 24.303 19.787 L 24.652 20.123 L 23.099 21.677 L 21.546 23.23 L 21.546 24.921 L 21.546 26.61 L 21.637 26.61 L 21.724 26.61 L 24.505 23.823 L 27.287 21.038 L 27.287 19.351 L 27.287 17.665 L 27.209 17.665 L 27.134 17.665 L 26.943 17.838 L 26.755 18.007 L 26.425 17.662 L 26.092 17.317 L 27.978 15.428 L 29.865 13.542 L 29.978 13.657 L 30.094 13.771 L 31.157 12.715 L 32.216 11.658 L 32.112 11.529 L 32.005 11.404 L 33.874 9.545 L 35.738 7.683 L 36.071 8.032 L 36.407 8.382 L 34.947 9.843 L 33.485 11.305 L 33.486 13.079 L 33.487 14.855 L 36.416 11.928 L 39.342 8.999 L 39.342 7.311 L 39.342 5.624 L 39.265 5.624 L 39.183 5.624 L 38.883 5.913 L 38.584 6.199 L 38.251 5.851 L 37.918 5.505 L 39.75 3.671 L 41.583 1.839 L 41.743 1.9 L 41.907 1.96 L 42.18 1.707 L 42.449 1.45 L 43.228 2.22 L 44.003 2.988 L 44.2 2.79 L 44.397 2.589 L 46.292 4.478 L 48.184 6.367 L 47.84 6.711 L 47.498 7.052 L 46.605 6.166 L 45.712 5.28 L 45.627 5.28 L 45.544 5.28 L 45.544 7.143 L 45.544 9.009 L 48.329 11.789 L 51.114 14.57 L 51.2 14.57 L 51.29 14.57 L 51.29 12.722 L 51.29 10.875 L 50.463 10.027 L 49.639 9.178 L 49.968 8.832 L 50.3 8.486 L 52.167 10.346 L 54.039 12.209 L 53.841 12.417 L 53.652 12.629 L 54.706 13.685 L 55.764 14.737 L 56.009 14.588 L 56.257 14.432 L 58.102 16.273 L 59.947 18.117 L 59.615 18.467 L 59.274 18.816 L 58.406 17.954 L 57.538 17.091 L 57.455 17.091 L 57.371 17.091 L 57.371 18.956 L 57.371 20.819 L 60.3 23.743 L 63.23 26.664 L 63.23 24.719 L 63.23 22.774 L 62.308 21.848 L 61.388 20.924 L 61.737 20.59 L 62.085 20.252 L 63.931 22.095 L 65.776 23.939 L 65.623 24.186 L 65.467 24.433 L 66.525 25.486 L 67.579 26.539 L 67.794 26.349 L 68.003 26.157 L 69.866 28.022 L 71.73 29.887 L 71.382 30.22 L 71.031 30.556 L 70.427 29.957 L 69.822 29.362 L 69.74 29.362 L 69.66 29.362 L 69.66 31.225 L 69.66 33.091 L 72.559 35.985 L 75.457 38.88 L 75.541 38.88 L 75.626 38.88 L 75.626 37.019 L 75.626 35.157 L 74.399 33.925 L 73.17 32.691 L 73.503 32.343 L 73.84 31.996 L 75.707 33.855 L 77.573 35.716 L 77.381 35.927 L 77.191 36.138 L 78.27 37.22 L 79.35 38.301 L 79.561 38.109 L 79.775 37.918 L 81.623 39.765 L 83.472 41.611 L 83.119 42.052 L 82.759 42.493 L 79.195 46.047 L 75.626 49.6 L 75.626 47.425 L 75.626 45.247 L 72.642 48.226 L 69.66 51.206 L 69.66 53.388 L 69.66 55.568 L 66.442 58.777 L 63.23 61.988 L 63.23 59.808 L 63.23 57.631 L 60.3 60.552 L 57.371 63.476 L 57.371 65.657 L 57.371 67.838 L 54.328 70.873 L 51.29 73.912 L 51.29 71.733 L 51.29 69.558 L 48.417 72.422 L 45.544 75.289 L 45.544 77.469 L 45.544 79.65 L 44.021 81.169 L 42.499 82.686 L 42.44 82.686 L 42.379 82.686 L 41.639 81.941 Z M 51.29 53.472 L 51.29 38.994 L 48.417 38.994 L 45.544 38.994 L 45.544 56.338 L 45.544 73.681 L 48.417 70.817 L 51.29 67.952 L 51.29 53.472 Z M 39.342 56.255 L 39.342 38.999 L 37.305 38.968 L 35.267 38.935 L 35.267 38.076 L 35.267 37.218 L 37.305 37.187 L 39.342 37.154 L 39.342 36.244 L 39.342 35.334 L 38.514 35.096 L 37.68 34.858 L 37.411 34.745 L 37.138 34.631 L 36.347 33.981 L 35.557 33.332 L 35.074 32.645 L 34.59 31.954 L 34.047 30.056 L 33.506 28.158 L 33.497 47.995 L 33.485 67.834 L 36.328 70.674 L 39.171 73.512 L 39.257 73.512 L 39.342 73.512 L 39.342 56.255 Z M 63.23 42.149 L 63.23 28.273 L 60.3 25.349 L 57.371 22.427 L 57.371 42.149 L 57.371 61.871 L 60.3 58.948 L 63.23 56.026 L 63.23 42.149 Z M 27.287 42.064 L 27.287 22.655 L 24.416 25.522 L 21.546 28.386 L 21.546 42.147 L 21.546 55.908 L 24.328 58.69 L 27.115 61.469 L 27.2 61.469 L 27.287 61.469 L 27.287 42.064 Z M 15.578 42.064 L 15.578 34.352 L 12.59 37.333 L 9.604 40.312 L 9.604 42.147 L 9.604 43.981 L 12.503 46.878 L 15.401 49.775 L 15.489 49.775 L 15.578 49.775 L 15.578 42.064 Z M 75.626 42.149 L 75.626 40.656 L 72.642 37.677 L 69.66 34.697 L 69.66 42.149 L 69.66 49.599 L 72.642 46.622 L 75.626 43.64 L 75.626 42.149 Z M 51.286 35.068 L 51.28 32.975 L 51.11 33.198 L 50.943 33.419 L 50.943 33.502 L 50.943 33.585 L 50.224 34.097 L 49.509 34.607 L 48.788 34.966 L 48.07 35.328 L 47.356 35.497 L 46.635 35.666 L 46.089 35.667 L 45.544 35.668 L 45.544 36.416 L 45.544 37.159 L 48.417 37.159 L 51.29 37.159 L 51.286 35.068 Z M 46.498 34.701 L 47.324 34.073 L 47.739 33.698 L 48.153 33.317 L 48.639 32.429 L 49.121 31.542 L 49.055 31.542 L 48.994 31.542 L 48.137 31.829 L 47.284 32.115 L 46.692 32.115 L 46.099 32.115 L 46.684 31.461 L 47.269 30.806 L 47.521 30.17 L 47.769 29.535 L 47.803 28.445 L 47.835 27.358 L 47.665 27.824 L 47.493 28.292 L 47.108 28.664 L 46.724 29.033 L 46.163 29.399 L 45.601 29.765 L 45.571 32.544 L 45.54 35.325 L 45.605 35.325 L 45.673 35.325 L 46.498 34.701 Z M 39.319 32.782 L 39.288 31.844 L 38.975 31.76 L 38.666 31.678 L 38.317 31.43 L 37.965 31.182 L 37.965 31.276 L 37.964 31.37 L 38.33 32.287 L 38.69 33.205 L 38.922 33.461 L 39.156 33.719 L 39.254 33.719 L 39.353 33.719 L 39.32 32.782 L 39.319 32.782 Z M 51.205 28.101 L 51.302 28.019 L 51.263 27.355 L 51.227 26.684 L 50.877 27.249 L 50.526 27.814 L 50.327 28.117 L 50.124 28.424 L 50.617 28.303 L 51.112 28.184 L 51.205 28.101 Z M 36.461 26.931 L 36.102 26.222 L 35.942 25.769 L 35.786 25.32 L 35.67 24.615 L 35.56 23.907 L 35.441 22.249 L 35.321 20.591 L 35.253 20.188 L 35.181 19.787 L 35.66 20.244 L 36.141 20.704 L 36.486 21.297 L 36.825 21.894 L 37.467 22.478 L 38.111 23.065 L 38.163 23.008 L 38.219 22.955 L 38.019 22.354 L 37.818 21.752 L 37.886 20.654 L 37.956 19.559 L 38.14 18.595 L 38.329 17.632 L 38.191 17.07 L 38.054 16.506 L 38.12 16.442 L 38.182 16.379 L 38.726 16.562 L 39.271 16.749 L 39.308 16.749 L 39.342 16.749 L 39.342 13.681 L 39.342 10.614 L 36.415 13.537 L 33.485 16.461 L 33.485 21.048 L 33.486 25.635 L 33.997 26.282 L 34.507 26.931 L 34.888 27.219 L 35.267 27.51 L 35.669 27.556 L 36.072 27.606 L 36.445 27.624 L 36.822 27.642 L 36.461 26.931 Z M 49.976 23.032 L 50.453 22.539 L 50.868 21.74 L 51.29 20.942 L 51.29 18.643 L 51.29 16.345 L 48.417 13.479 L 45.544 10.614 L 45.544 14.137 L 45.544 17.659 L 45.852 18.322 L 46.16 18.983 L 46.165 20.256 L 46.169 21.528 L 46.379 21.475 L 46.589 21.421 L 46.858 21.061 L 47.128 20.704 L 47.424 19.75 L 47.727 18.799 L 47.734 18.319 L 47.743 17.839 L 47.822 17.323 L 47.899 16.807 L 48.345 17.723 L 48.791 18.64 L 48.944 19.386 L 49.098 20.133 L 49.102 21.406 L 49.105 22.682 L 48.816 23.332 L 48.535 23.98 L 48.535 24.026 L 48.535 24.072 L 49.019 23.798 L 49.509 23.525 L 49.976 23.032 Z M 48.815 77.295 L 48.48 76.946 L 50.341 75.086 L 52.207 73.227 L 52.546 73.572 L 52.892 73.917 L 51.022 75.782 L 49.152 77.648 L 48.815 77.295 Z M 54.672 71.448 L 54.336 71.098 L 56.196 69.237 L 58.059 67.378 L 58.402 67.723 L 58.749 68.069 L 56.88 69.932 L 55.011 71.796 L 54.672 71.448 Z M 60.554 65.509 L 60.246 65.191 L 62.115 63.328 L 63.984 61.463 L 64.319 61.815 L 64.654 62.165 L 62.823 63.997 L 60.989 65.828 L 60.927 65.828 L 60.859 65.828 L 60.554 65.509 Z M 66.407 59.661 L 66.102 59.343 L 67.971 57.481 L 69.838 55.615 L 70.176 55.966 L 70.51 56.317 L 68.68 58.149 L 66.847 59.981 L 66.781 59.981 L 66.717 59.981 L 66.407 59.661 Z M 72.357 53.787 L 72.021 53.437 L 73.881 51.579 L 75.741 49.721 L 76.087 50.063 L 76.431 50.409 L 74.562 52.274 L 72.691 54.137 L 72.357 53.787 Z M 78.214 47.94 L 77.88 47.589 L 79.767 45.701 L 81.654 43.813 L 81.995 44.158 L 82.345 44.501 L 80.447 46.395 L 78.549 48.291 L 78.214 47.94 Z"/>
    <path d="M 42.861 83.163 L 42.551 82.845 L 44.424 80.988 L 46.298 79.13 L 46.637 79.481 L 46.968 79.832 L 45.133 81.658 L 43.3 83.484 L 43.233 83.484 L 43.168 83.484 L 42.861 83.163 Z M 38.377 79.828 L 36.568 78.019 L 36.568 77.898 L 36.568 77.776 L 36.833 77.526 L 37.096 77.28 L 37.211 77.28 L 37.317 77.28 L 39.13 79.092 L 40.944 80.906 L 40.565 81.272 L 40.184 81.638 L 38.377 79.828 Z M 24.258 60.113 L 6.137 42.018 L 24.288 23.99 L 42.433 5.963 L 60.584 24.087 L 78.732 42.211 L 60.613 60.209 L 42.49 78.209 L 42.433 78.209 L 42.375 78.208 L 24.258 60.113 Z M 59.864 59.463 L 77.236 42.207 L 59.834 24.831 L 42.433 7.452 L 25.033 24.737 L 7.631 42.021 L 25.002 59.372 L 42.375 76.72 L 42.433 76.721 L 42.49 76.721 L 59.864 59.463 Z M 43.125 69.848 L 43.125 69.046 L 41.683 69.042 L 40.248 69.038 L 40.248 68.489 L 40.248 67.939 L 41.527 65.912 L 42.808 63.887 L 43.658 63.889 L 44.504 63.891 L 44.504 65.957 L 44.504 68.016 L 44.908 68.017 L 45.308 68.019 L 45.308 68.535 L 45.308 69.05 L 44.908 69.048 L 44.504 69.047 L 44.504 69.85 L 44.504 70.654 L 43.815 70.652 L 43.125 70.651 L 43.125 69.848 Z M 43.122 66.609 L 43.118 65.206 L 42.987 65.433 L 42.856 65.662 L 42.068 66.836 L 41.279 68.007 L 42.203 68.01 L 43.125 68.013 L 43.122 66.609 Z M 37.284 38.925 L 35.302 38.881 L 35.302 38.096 L 35.302 37.309 L 39.24 37.248 L 43.182 37.189 L 47.354 37.227 L 51.523 37.268 L 51.523 38.128 L 51.523 38.987 L 45.399 38.98 L 39.272 38.97 L 37.284 38.925 Z M 45.259 35.583 L 45.321 35.476 L 45.45 35.476 L 45.577 35.476 L 46.395 34.867 L 47.21 34.258 L 47.744 33.752 L 48.277 33.249 L 48.752 32.363 L 49.227 31.475 L 49.197 31.477 L 49.167 31.478 L 48.186 31.817 L 47.21 32.158 L 46.901 32.158 L 46.593 32.159 L 46.414 32.088 L 46.228 32.017 L 46.78 31.421 L 47.329 30.824 L 47.643 29.917 L 47.959 29.008 L 47.957 28.594 L 47.956 28.179 L 47.88 27.801 L 47.804 27.422 L 47.547 28.007 L 47.284 28.593 L 46.557 29.108 L 45.832 29.625 L 45.513 29.865 L 45.195 30.108 L 45.191 28.639 L 45.189 27.169 L 44.986 26.234 L 44.778 25.3 L 44.3 24.57 L 43.825 23.841 L 43.359 23.386 L 42.895 22.934 L 42.895 23.926 L 42.895 24.916 L 42.435 26.21 L 41.977 27.505 L 41.975 28.089 L 41.975 28.678 L 42.09 29.284 L 42.206 29.892 L 42.165 29.934 L 42.117 29.977 L 41.501 29.691 L 40.883 29.405 L 40.703 29.255 L 40.525 29.103 L 40.23 28.702 L 39.931 28.301 L 39.8 27.956 L 39.675 27.614 L 39.709 28.961 L 39.746 30.312 L 40.211 30.795 L 40.674 31.282 L 40.93 31.654 L 41.185 32.029 L 40.736 32.028 L 40.29 32.027 L 39.606 31.903 L 38.923 31.779 L 38.38 31.446 L 37.833 31.111 L 37.833 31.143 L 37.833 31.173 L 38.245 32.2 L 38.656 33.224 L 39.366 33.953 L 40.076 34.678 L 40.626 34.963 L 41.179 35.246 L 41.892 35.411 L 42.604 35.58 L 41.169 35.515 L 39.729 35.449 L 38.491 35.081 L 37.245 34.707 L 36.4 34.019 L 35.556 33.332 L 35.074 32.624 L 34.587 31.918 L 33.858 29.347 L 33.13 26.779 L 32.997 26.005 L 32.861 25.232 L 32.902 25.187 L 32.944 25.148 L 33.579 25.905 L 34.207 26.663 L 34.669 27.096 L 35.127 27.534 L 35.762 27.607 L 36.395 27.681 L 36.596 27.736 L 36.798 27.793 L 36.798 27.65 L 36.798 27.51 L 36.505 27.009 L 36.213 26.512 L 36.035 26.025 L 35.864 25.539 L 35.751 24.967 L 35.637 24.392 L 35.531 22.901 L 35.426 21.414 L 35.347 20.666 L 35.269 19.922 L 35.698 20.326 L 36.124 20.727 L 36.452 21.358 L 36.777 21.989 L 37.499 22.589 L 38.222 23.19 L 38.259 23.155 L 38.294 23.117 L 38.122 22.625 L 37.947 22.136 L 37.947 21.037 L 37.947 19.94 L 38.136 18.818 L 38.321 17.695 L 38.202 17.094 L 38.082 16.492 L 38.105 16.469 L 38.131 16.446 L 38.748 16.627 L 39.367 16.812 L 39.665 17.16 L 39.962 17.512 L 40.113 17.863 L 40.267 18.217 L 40.428 19.048 L 40.589 19.877 L 40.882 20.453 L 41.173 21.026 L 41.219 21.026 L 41.268 21.026 L 41.552 20.406 L 41.841 19.784 L 41.968 19.174 L 42.095 18.565 L 42.195 15.703 L 42.292 12.836 L 42.555 12.122 L 42.825 11.407 L 42.897 11.407 L 42.97 11.407 L 43.284 12.466 L 43.6 13.525 L 44.806 16.183 L 46.011 18.836 L 46.122 19.535 L 46.232 20.232 L 46.129 20.895 L 46.025 21.554 L 46.056 21.589 L 46.091 21.625 L 46.394 21.548 L 46.698 21.473 L 46.967 21.001 L 47.243 20.529 L 47.48 19.783 L 47.72 19.039 L 47.817 18.009 L 47.919 16.977 L 48.382 17.95 L 48.846 18.927 L 48.974 19.75 L 49.105 20.577 L 49.105 21.611 L 49.105 22.644 L 48.819 23.292 L 48.533 23.94 L 48.533 24.043 L 48.533 24.146 L 48.904 23.958 L 49.28 23.767 L 49.843 23.301 L 50.408 22.835 L 50.67 22.258 L 50.927 21.682 L 51.086 21.475 L 51.246 21.267 L 51.44 21.877 L 51.63 22.486 L 51.808 23.325 L 51.982 24.161 L 51.733 25.158 L 51.489 26.153 L 51.26 26.61 L 51.031 27.069 L 50.575 27.736 L 50.122 28.402 L 50.166 28.447 L 50.212 28.491 L 50.829 28.33 L 51.452 28.169 L 51.92 27.835 L 52.387 27.502 L 52.638 26.887 L 52.895 26.271 L 52.899 26.399 L 52.903 26.526 L 52.782 28.001 L 52.661 29.48 L 52.317 30.664 L 51.968 31.852 L 51.373 32.794 L 50.774 33.737 L 50.086 34.205 L 49.397 34.674 L 48.549 35.073 L 47.705 35.467 L 47.111 35.527 L 46.52 35.585 L 45.856 35.636 L 45.191 35.687 L 45.259 35.583 Z M 48.819 77.31 L 48.483 76.959 L 50.347 75.108 L 52.211 73.255 L 52.557 73.599 L 52.902 73.945 L 51.03 75.802 L 49.158 77.66 L 48.819 77.31 Z M 32.392 73.854 L 30.578 72.041 L 30.959 71.675 L 31.338 71.31 L 33.147 73.118 L 34.957 74.926 L 34.957 75.05 L 34.957 75.172 L 34.691 75.417 L 34.422 75.668 L 34.313 75.668 L 34.205 75.668 L 32.392 73.854 Z M 54.688 71.483 L 54.352 71.13 L 56.213 69.279 L 58.079 67.425 L 58.425 67.772 L 58.771 68.116 L 56.898 69.972 L 55.028 71.832 L 54.688 71.483 Z M 26.501 67.97 L 24.663 66.132 L 25.036 65.762 L 25.408 65.391 L 27.274 67.252 L 29.138 69.116 L 28.802 69.462 L 28.47 69.808 L 28.406 69.808 L 28.339 69.808 L 26.501 67.97 Z M 60.58 65.563 L 60.273 65.245 L 62.144 63.389 L 64.016 61.531 L 64.351 61.881 L 64.688 62.233 L 62.853 64.058 L 61.018 65.884 L 60.95 65.884 L 60.885 65.884 L 60.58 65.563 Z M 20.631 62.109 L 18.795 60.27 L 19.167 59.901 L 19.541 59.533 L 21.384 61.371 L 23.227 63.213 L 22.845 63.576 L 22.467 63.945 L 20.631 62.109 Z M 66.537 59.712 L 66.201 59.36 L 68.035 57.534 L 69.869 55.711 L 70.215 56.055 L 70.562 56.399 L 68.718 58.229 L 66.876 60.06 L 66.537 59.712 Z M 14.737 56.218 L 12.981 54.466 L 12.981 54.345 L 12.981 54.224 L 13.249 53.974 L 13.516 53.725 L 13.622 53.726 L 13.733 53.726 L 15.55 55.539 L 17.359 57.352 L 17.035 57.663 L 16.709 57.973 L 16.599 57.973 L 16.489 57.973 L 14.737 56.218 Z M 72.405 53.882 L 72.068 53.53 L 73.934 51.677 L 75.797 49.824 L 76.144 50.171 L 76.487 50.517 L 74.614 52.375 L 72.74 54.234 L 72.405 53.882 Z M 8.807 50.301 L 6.992 48.489 L 7.376 48.121 L 7.755 47.755 L 9.589 49.59 L 11.42 51.424 L 11.086 51.769 L 10.755 52.114 L 10.686 52.114 L 10.622 52.113 L 8.807 50.301 Z M 78.297 47.964 L 77.992 47.644 L 79.826 45.823 L 81.661 44.004 L 82.011 44.339 L 82.363 44.675 L 80.549 46.48 L 78.734 48.284 L 78.669 48.284 L 78.603 48.284 L 78.297 47.964 Z M 2.915 44.414 L 1.077 42.577 L 1.452 42.209 L 1.825 41.835 L 3.69 43.699 L 5.554 45.561 L 5.22 45.909 L 4.886 46.255 L 4.818 46.254 L 4.752 46.254 L 2.915 44.414 Z M 80.998 40.579 L 79.13 38.71 L 79.481 38.374 L 79.834 38.038 L 81.7 39.899 L 83.562 41.764 L 83.217 42.109 L 82.87 42.45 L 80.998 40.579 Z M 2.8 41.092 L 2.464 40.741 L 4.328 38.888 L 6.191 37.035 L 6.539 37.382 L 6.883 37.727 L 5.011 39.584 L 3.133 41.444 L 2.8 41.092 Z M 75.054 34.642 L 73.219 32.807 L 73.555 32.457 L 73.891 32.107 L 75.765 33.976 L 77.635 35.841 L 77.327 36.158 L 77.021 36.476 L 76.954 36.476 L 76.889 36.476 L 75.054 34.642 Z M 8.692 35.175 L 8.386 34.854 L 10.255 32.999 L 12.127 31.143 L 12.466 31.492 L 12.803 31.843 L 10.967 33.668 L 9.132 35.493 L 9.063 35.493 L 9 35.493 L 8.692 35.175 Z M 69.184 28.783 L 67.349 26.946 L 67.689 26.598 L 68.023 26.248 L 69.895 28.115 L 71.766 29.98 L 71.461 30.3 L 71.153 30.618 L 71.086 30.618 L 71.019 30.618 L 69.184 28.783 Z M 14.557 29.345 L 14.254 29.026 L 16.125 27.17 L 17.995 25.313 L 18.332 25.665 L 18.668 26.015 L 16.833 27.841 L 14.997 29.665 L 14.932 29.664 L 14.868 29.664 L 14.557 29.345 Z M 63.286 22.884 L 61.411 21.014 L 61.763 20.68 L 62.115 20.347 L 63.98 22.207 L 65.845 24.07 L 65.497 24.414 L 65.154 24.758 L 63.286 22.884 Z M 20.514 23.492 L 20.181 23.142 L 22.045 21.288 L 23.911 19.437 L 24.252 19.781 L 24.603 20.126 L 22.727 21.984 L 20.854 23.845 L 20.514 23.492 Z M 57.357 16.968 L 55.542 15.154 L 55.895 14.82 L 56.245 14.487 L 58.082 16.317 L 59.917 18.147 L 59.616 18.465 L 59.304 18.782 L 59.239 18.782 L 59.172 18.782 L 57.357 16.968 Z M 26.408 17.574 L 26.103 17.255 L 27.938 15.434 L 29.774 13.616 L 30.124 13.95 L 30.477 14.285 L 28.659 16.09 L 26.846 17.893 L 26.782 17.893 L 26.715 17.893 L 26.408 17.574 Z M 51.47 11.089 L 49.635 9.254 L 49.971 8.904 L 50.309 8.557 L 52.178 10.422 L 54.048 12.288 L 53.743 12.605 L 53.437 12.925 L 53.37 12.925 L 53.306 12.925 L 51.47 11.089 Z M 32.276 11.745 L 31.97 11.426 L 33.842 9.571 L 35.711 7.714 L 36.048 8.063 L 36.385 8.416 L 34.55 10.241 L 32.714 12.066 L 32.65 12.065 L 32.581 12.065 L 32.276 11.745 Z M 45.602 5.224 L 43.762 3.388 L 44.107 3.045 L 44.449 2.703 L 46.29 4.541 L 48.126 6.378 L 47.781 6.722 L 47.438 7.062 L 45.602 5.224 Z M 38.235 5.894 L 37.897 5.542 L 39.732 3.717 L 41.566 1.891 L 41.913 2.237 L 42.26 2.582 L 40.416 4.413 L 38.572 6.245 L 38.235 5.894 Z" style="stroke-width: 0.996;"/>
  </g>
</svg>