<?xml version="1.0" encoding="utf-8"?>
<svg width="85px" height="85px" viewBox="0 0 85 85" version="1.1" id="svg5" preserveAspectRatio="xMidYMin" xmlns="http://www.w3.org/2000/svg">
  <g>
    <path style="fill: rgb(255, 242, 0);" d="M 21.176 63.809 C 9.529 52.154 0 42.565 0 42.5 C 0 42.345 42.316 0 42.471 0 C 42.536 0 52.132 9.549 63.795 21.221 L 85 42.441 L 63.736 63.72 C 52.04 75.424 42.444 85 42.411 85 C 42.379 85 32.823 75.464 21.176 63.809 Z"/>
    <path style="fill:#070700;stroke-width:0.264583" d="M 23.691 61.324 C 13.41 51.053 5 42.595 5 42.529 C 5 42.463 13.424 33.993 23.721 23.705 L 42.441 5 L 61.221 23.764 L 80 42.529 L 61.25 61.265 C 50.938 71.569 42.474 80 42.441 80 C 42.408 80 33.971 71.596 23.691 61.324 Z M 60.657 60.672 C 70.576 50.758 78.692 42.596 78.692 42.53 C 78.692 42.337 42.636 6.366 42.442 6.366 C 42.225 6.366 6.454 42.081 6.353 42.398 C 6.297 42.576 9.973 46.311 24.331 60.658 C 34.258 70.577 42.434 78.694 42.5 78.694 C 42.566 78.694 50.735 70.584 60.657 60.672 Z M 37.896 69.313 C 36.978 69.036 36.379 68.338 36.379 67.542 L 36.379 67.173 L 37.157 67.173 C 37.918 67.173 37.94 67.183 38.062 67.532 C 38.383 68.452 39.776 68.258 40.043 67.256 C 40.327 66.19 39.179 65.353 38.263 65.956 C 38.035 66.108 37.771 66.153 37.284 66.123 C 36.673 66.087 36.616 66.058 36.616 65.801 C 36.616 65.534 36.899 63.286 37.039 62.453 L 37.103 62.067 L 39.238 62.067 L 41.371 62.067 L 41.371 62.72 L 41.371 63.373 L 39.954 63.373 C 38.387 63.373 38.116 63.479 38.186 64.071 C 38.219 64.373 38.248 64.383 39.054 64.396 C 40.496 64.422 41.439 65.032 41.735 66.132 C 41.996 67.099 41.566 68.394 40.806 68.934 C 40.172 69.384 38.749 69.568 37.896 69.313 Z M 42.56 68.421 L 42.56 67.648 L 43.452 67.648 L 44.342 67.648 L 44.342 68.421 L 44.342 69.193 L 43.452 69.193 L 42.56 69.193 L 42.56 68.421 Z M 47.372 69.05 C 47.341 68.966 47.302 67.88 47.285 66.64 L 47.254 64.382 L 46.423 64.323 L 45.591 64.263 L 45.554 63.778 L 45.52 63.29 L 46.176 63.158 C 46.983 62.996 47.364 62.758 47.557 62.293 C 47.697 61.955 47.735 61.938 48.312 61.972 L 48.918 62.008 L 48.918 65.57 L 48.918 69.133 L 48.175 69.168 C 47.646 69.193 47.413 69.16 47.372 69.05 Z M 36.141 36.888 L 36.141 36.058 L 37.954 36.056 C 39.694 36.054 40.176 35.978 40.023 35.732 C 39.985 35.668 39.598 35.411 39.163 35.157 C 37.705 34.303 36.58 32.691 36.22 30.936 C 36.127 30.486 35.929 29.978 35.758 29.748 C 35.25 29.072 35.083 28.637 34.835 27.364 C 34.678 26.563 34.597 25.648 34.596 24.715 C 34.595 23.931 34.543 22.839 34.479 22.288 C 34.416 21.735 34.383 21.266 34.408 21.241 C 34.432 21.217 34.814 21.441 35.259 21.739 C 35.703 22.036 36.171 22.28 36.298 22.28 C 36.499 22.28 36.52 22.222 36.454 21.835 C 36.413 21.59 36.35 20.748 36.314 19.964 C 36.28 19.181 36.229 18.365 36.204 18.153 C 36.178 17.94 36.205 17.767 36.264 17.767 C 36.323 17.767 36.599 18.093 36.881 18.492 C 37.181 18.918 37.568 19.306 37.824 19.438 C 38.439 19.753 38.541 19.589 38.386 18.534 C 38.229 17.448 38.353 16.304 38.71 15.604 C 38.865 15.297 38.997 14.948 38.998 14.832 C 39.006 14.504 39.643 15.304 39.805 15.842 C 39.971 16.393 40.619 17.293 40.854 17.293 C 41.271 17.293 41.964 14.681 41.968 13.093 C 41.969 11.946 42.336 10.386 42.483 10.891 C 42.591 11.257 43.153 12.907 43.553 14.026 C 43.926 15.073 43.978 15.352 43.98 16.376 C 43.987 17.676 44.066 17.798 44.689 17.475 C 45.177 17.223 45.611 16.545 45.775 15.778 C 45.848 15.434 45.945 15.154 45.992 15.154 C 46.038 15.154 46.309 15.628 46.592 16.206 C 47.102 17.246 47.108 17.271 47.038 18.195 C 47 18.711 46.933 19.28 46.889 19.459 C 46.821 19.746 46.845 19.786 47.092 19.785 C 47.438 19.784 47.972 19.443 48.328 18.997 L 48.597 18.661 L 48.789 19.309 C 48.974 19.935 48.972 19.988 48.692 20.969 C 48.283 22.408 48.248 22.612 48.389 22.7 C 48.613 22.838 49.093 22.641 49.565 22.213 C 49.82 21.984 50.054 21.838 50.088 21.893 C 50.121 21.946 50.26 22.424 50.396 22.957 C 50.582 23.689 50.642 24.294 50.642 25.454 C 50.642 26.83 50.608 27.09 50.299 27.999 C 50.112 28.556 49.736 29.362 49.464 29.791 C 49.193 30.221 48.891 30.883 48.793 31.265 C 48.377 32.9 47.23 34.446 45.858 35.219 C 44.588 35.936 44.772 36.053 47.165 36.056 L 48.978 36.058 L 48.978 36.888 L 48.978 37.72 L 42.56 37.72 L 36.141 37.72 L 36.141 36.888 Z M 44.497 33.703 C 47.316 32.315 47.899 28.728 45.669 26.5 C 43.47 24.303 39.835 24.981 38.48 27.838 C 38.143 28.548 38.102 28.749 38.102 29.702 C 38.102 30.613 38.149 30.872 38.421 31.452 C 38.771 32.195 39.673 33.234 40.239 33.543 C 41.124 34.029 41.654 34.153 42.693 34.119 C 43.569 34.09 43.833 34.03 44.497 33.703 Z M 48.834 25.843 C 48.853 25.168 48.818 24.567 48.755 24.505 C 48.566 24.313 47.551 25.091 47.551 25.426 C 47.551 25.583 47.608 25.744 47.675 25.786 C 47.743 25.828 47.964 26.155 48.164 26.511 C 48.366 26.868 48.592 27.14 48.665 27.116 C 48.75 27.088 48.812 26.623 48.834 25.843 Z M 37.497 25.676 C 37.917 25.135 38.009 24.937 37.908 24.814 C 37.836 24.727 37.703 24.656 37.613 24.656 C 37.523 24.656 37.236 24.463 36.974 24.226 C 36.401 23.709 36.112 23.745 36.216 24.325 C 36.297 24.774 36.6 26.064 36.681 26.298 C 36.765 26.544 36.91 26.433 37.497 25.676 Z M 40.049 23.638 C 40.188 23.511 40.176 23.408 39.973 22.974 C 39.839 22.691 39.665 22.165 39.584 21.806 C 39.288 20.486 39.081 20.455 38.881 21.701 C 38.813 22.133 38.676 22.714 38.578 22.993 C 38.35 23.638 38.353 23.998 38.587 24.231 C 38.757 24.402 38.824 24.389 39.328 24.103 C 39.635 23.928 39.958 23.719 40.049 23.638 Z M 46.316 23.144 C 46.063 21.933 45.938 21.568 45.775 21.568 C 45.615 21.568 44.578 23.118 44.584 23.348 C 44.59 23.568 46.258 24.414 46.417 24.276 C 46.488 24.216 46.451 23.792 46.316 23.144 Z M 43.674 22.907 C 43.64 22.198 43.176 20.388 42.944 20.067 C 42.585 19.568 42 19.039 41.933 19.153 C 41.9 19.207 41.834 19.54 41.788 19.891 C 41.74 20.244 41.488 20.978 41.225 21.523 C 40.843 22.316 40.765 22.593 40.826 22.917 L 40.902 23.32 L 42.295 23.278 L 43.689 23.237 L 43.674 22.907 Z"/>
  </g>
</svg>