<?xml version="1.0" encoding="utf-8"?>
<svg width="85px" height="85px" viewBox="0 0 85 85" version="1.1" id="svg8" preserveAspectRatio="xMidYMin" xmlns="http://www.w3.org/2000/svg">
  <g>
    <path style="fill: rgb(238, 64, 52);" d="M 4.942 42.322 L 4.862 42.5 L 2.431 42.468 L 0 42.436 L 21.189 21.218 L 42.379 0 L 42.497 0 L 42.616 0 L 63.808 21.22 L 85 42.44 L 82.803 42.44 L 80.606 42.44 L 61.641 23.449 L 42.676 4.458 L 23.849 23.301 L 5.022 42.143 L 4.942 42.322 Z M 42.645 42.47 L 6.465 42.5 L 6.465 42.44 L 6.465 42.381 L 24.541 24.282 L 42.616 6.182 L 60.721 24.311 L 78.826 42.44 L 42.645 42.47 Z M 43.15 40.419 L 51.817 40.419 L 51.817 39.706 L 51.817 38.993 L 43.15 38.993 L 34.484 38.993 L 34.484 39.706 L 34.484 40.419 L 43.15 40.419 Z M 43.744 37.907 L 45.228 37.922 L 46.593 37.794 L 47.959 37.666 L 48.849 37.16 L 49.74 36.654 L 50.287 36.308 L 50.836 35.962 L 51.61 34.892 L 52.385 33.822 L 52.746 32.633 L 53.107 31.444 L 53.289 29.304 L 53.47 27.164 L 53.364 26.053 L 53.258 24.942 L 53.204 24.888 L 53.15 24.833 L 53.022 25.583 L 52.893 26.332 L 52.696 27.615 L 52.498 28.898 L 51.988 29.25 L 51.478 29.601 L 51.167 29.601 L 50.855 29.601 L 51.139 29.215 L 51.423 28.829 L 51.917 27.402 L 52.411 25.976 L 52.234 24.889 L 52.058 23.803 L 51.719 22.88 L 51.38 21.957 L 50.774 22.956 L 50.169 23.955 L 49.62 24.549 L 49.071 25.143 L 49.151 24.846 L 49.231 24.549 L 49.357 23.598 L 49.484 22.647 L 49.346 21.26 L 49.207 19.873 L 48.465 18.498 L 47.722 17.124 L 47.648 17.121 L 47.576 17.119 L 47.492 18.397 L 47.408 19.675 L 47.106 20.745 L 46.804 21.815 L 46.559 22.082 L 46.315 22.35 L 46.204 22.35 L 46.093 22.35 L 46.147 21.844 L 46.201 21.339 L 46.09 20.592 L 45.98 19.845 L 44.732 17.204 L 43.483 14.563 L 43.109 12.988 L 42.736 11.413 L 42.675 11.413 L 42.616 11.413 L 42.151 12.607 L 41.687 13.8 L 41.594 16.025 L 41.5 18.249 L 41.385 19.081 L 41.269 19.913 L 40.981 20.745 L 40.694 21.577 L 40.438 21.076 L 40.182 20.574 L 40.048 19.947 L 39.916 19.318 L 39.639 18.769 L 39.363 18.22 L 39.025 17.937 L 38.687 17.654 L 38.07 17.367 L 37.453 17.079 L 37.406 17.128 L 37.359 17.178 L 37.473 17.924 L 37.588 18.67 L 37.395 19.767 L 37.203 20.864 L 37.132 22.119 L 37.062 23.373 L 37.207 23.644 L 37.351 23.913 L 37.096 23.777 L 36.841 23.64 L 36.393 22.931 L 35.945 22.222 L 35.269 21.618 L 34.592 21.013 L 34.53 21.075 L 34.467 21.137 L 34.59 22.236 L 34.713 23.334 L 34.577 24.207 L 34.442 25.079 L 34.588 26.031 L 34.733 26.983 L 34.964 27.657 L 35.196 28.331 L 35.493 28.72 L 35.789 29.11 L 35.789 29.165 L 35.789 29.219 L 35.285 29.094 L 34.78 28.969 L 34.095 28.4 L 33.41 27.831 L 32.618 26.963 L 31.827 26.095 L 31.731 26.055 L 31.635 26.015 L 31.632 26.293 L 31.63 26.57 L 32.545 30.196 L 33.461 33.822 L 33.95 34.63 L 34.439 35.438 L 35.5 36.147 L 36.561 36.857 L 37.749 37.229 L 38.936 37.6 L 40.598 37.747 L 42.26 37.893 L 43.744 37.908 L 43.744 37.907 Z M 44.429 37.553 L 44.397 37.541 L 42.735 37.22 L 41.073 36.9 L 40.42 36.568 L 39.767 36.235 L 39.134 35.623 L 38.502 35.011 L 38.155 34.251 L 37.808 33.492 L 37.808 33.425 L 37.808 33.359 L 38.194 33.733 L 38.58 34.106 L 39.856 34.27 L 41.132 34.433 L 41.132 34.374 L 41.132 34.314 L 40.554 33.474 L 39.975 32.633 L 39.604 31.893 L 39.232 31.154 L 39.232 30.479 L 39.232 29.805 L 39.633 30.331 L 40.034 30.856 L 40.494 31.171 L 40.954 31.485 L 41.515 31.755 L 42.076 32.024 L 42.133 31.967 L 42.19 31.911 L 42.079 31.143 L 41.968 30.374 L 41.967 29.78 L 41.965 29.185 L 42.392 27.996 L 42.819 26.808 L 43.022 26.069 L 43.224 25.33 L 43.708 26.069 L 44.193 26.808 L 44.373 27.243 L 44.554 27.677 L 44.691 28.337 L 44.827 28.998 L 44.689 30.436 L 44.55 31.875 L 44.613 31.938 L 44.675 32.001 L 45.664 31.492 L 46.653 30.983 L 47.113 30.5 L 47.574 30.017 L 47.514 30.807 L 47.454 31.596 L 47.162 32.233 L 46.87 32.871 L 46.256 33.541 L 45.643 34.212 L 45.831 34.285 L 46.019 34.357 L 46.605 34.357 L 47.192 34.357 L 47.943 34.016 L 48.694 33.675 L 48.226 34.484 L 47.759 35.292 L 47.079 35.942 L 46.399 36.591 L 45.43 37.079 L 44.462 37.566 L 44.429 37.553 Z"/>
    <path style="fill: rgb(253, 240, 0);" d="M 63.765 63.692 L 42.529 84.91 L 21.265 63.662 L 0 42.415 L 2.495 42.415 L 4.989 42.415 L 23.848 61.259 L 42.708 80.102 L 61.57 61.256 L 80.432 42.41 L 82.716 42.442 L 85 42.475 L 63.765 63.692 Z M 42.648 78.5 L 24.591 60.458 L 6.534 42.415 L 42.648 42.415 L 78.763 42.415 L 60.705 60.458 L 42.649 78.5 L 42.648 78.5 Z M 38.372 69.521 L 38.966 69.454 L 39.409 69.208 L 39.852 68.963 L 40.15 68.513 L 40.447 68.064 L 40.572 67.507 L 40.697 66.95 L 40.563 66.304 L 40.429 65.659 L 39.98 65.211 L 39.531 64.762 L 38.934 64.619 L 38.336 64.476 L 37.938 64.59 L 37.54 64.705 L 37.352 64.783 L 37.163 64.86 L 37.279 64.142 L 37.394 63.425 L 38.863 63.425 L 40.331 63.425 L 40.331 62.772 L 40.331 62.12 L 38.312 62.12 L 36.293 62.12 L 36.293 62.222 L 36.293 62.325 L 36.055 64.078 L 35.817 65.831 L 35.817 66.053 L 35.817 66.274 L 36.423 66.274 L 37.027 66.274 L 37.329 66.037 L 37.631 65.799 L 38.072 65.799 L 38.513 65.799 L 38.713 66.02 L 38.913 66.241 L 39.027 66.637 L 39.14 67.033 L 39.02 67.48 L 38.899 67.927 L 38.639 68.109 L 38.378 68.292 L 37.997 68.292 L 37.616 68.292 L 37.419 68.095 L 37.223 67.899 L 37.117 67.621 L 37.011 67.342 L 36.295 67.342 L 35.579 67.342 L 35.579 67.583 L 35.579 67.825 L 35.743 68.207 L 35.907 68.588 L 36.273 68.932 L 36.638 69.275 L 37.208 69.432 L 37.778 69.588 L 38.372 69.521 Z M 42.411 69.36 L 43.182 69.36 L 43.182 68.588 L 43.182 67.817 L 42.411 67.817 L 41.638 67.817 L 41.638 68.588 L 41.638 69.36 L 42.411 69.36 Z M 46.677 69.36 L 49.241 69.36 L 49.241 68.707 L 49.241 68.055 L 47.697 68.055 L 46.153 68.055 L 46.153 67.945 L 46.153 67.836 L 47.014 67.218 L 47.875 66.6 L 48.331 66.17 L 48.786 65.74 L 48.954 65.419 L 49.123 65.099 L 49.123 64.376 L 49.123 63.653 L 48.887 63.193 L 48.652 62.733 L 48.324 62.502 L 47.994 62.271 L 47.531 62.121 L 47.069 61.971 L 46.376 62.033 L 45.683 62.096 L 45.261 62.357 L 44.838 62.618 L 44.602 63.081 L 44.366 63.543 L 44.293 64.077 L 44.22 64.612 L 44.935 64.612 L 45.651 64.612 L 45.73 64.19 L 45.81 63.768 L 46.04 63.537 L 46.272 63.307 L 46.636 63.307 L 47 63.307 L 47.22 63.424 L 47.44 63.542 L 47.575 63.948 L 47.709 64.354 L 47.538 64.762 L 47.368 65.169 L 46.79 65.653 L 46.212 66.138 L 45.559 66.656 L 44.905 67.174 L 44.591 67.762 L 44.277 68.351 L 44.194 68.856 L 44.112 69.36 L 46.677 69.36 Z"/>
    <path style="fill: rgb(2, 2, 0); stroke-width: 1.07;" d="M 61.444 61.247 L 42.708 79.968 L 23.944 61.218 L 5.18 42.465 L 5.948 42.465 L 6.714 42.465 L 24.742 60.479 L 42.768 78.494 L 60.801 60.473 L 78.833 42.452 L 79.507 42.489 L 80.18 42.525 L 61.444 61.247 Z M 38.165 69.459 L 37.517 69.451 L 37.197 69.355 L 36.877 69.259 L 36.518 69.004 L 36.158 68.748 L 36.023 68.494 L 35.886 68.239 L 35.797 67.854 L 35.712 67.467 L 36.41 67.467 L 37.109 67.467 L 37.211 67.737 L 37.313 68.007 L 37.474 68.136 L 37.633 68.264 L 37.909 68.348 L 38.183 68.431 L 38.533 68.287 L 38.884 68.141 L 39.056 67.811 L 39.227 67.48 L 39.226 67.03 L 39.226 66.582 L 38.999 66.21 L 38.772 65.838 L 38.403 65.757 L 38.032 65.676 L 37.685 65.819 L 37.338 65.963 L 37.338 66.066 L 37.338 66.17 L 36.622 66.17 L 35.908 66.17 L 35.963 65.964 L 36.023 65.757 L 36.231 64.018 L 36.442 62.278 L 38.423 62.278 L 40.407 62.278 L 40.407 62.808 L 40.407 63.339 L 38.945 63.339 L 37.482 63.339 L 37.419 63.605 L 37.356 63.87 L 37.272 64.441 L 37.191 65.012 L 37.553 64.824 L 37.918 64.637 L 38.457 64.637 L 38.999 64.637 L 39.377 64.799 L 39.756 64.962 L 40.075 65.3 L 40.392 65.639 L 40.518 65.971 L 40.643 66.304 L 40.643 66.867 L 40.643 67.432 L 40.51 67.833 L 40.374 68.234 L 40.08 68.63 L 39.785 69.026 L 39.299 69.246 L 38.812 69.467 L 38.165 69.459 Z M 42.472 69.236 L 41.705 69.236 L 41.705 68.529 L 41.705 67.82 L 42.472 67.82 L 43.239 67.82 L 43.239 68.529 L 43.239 69.236 L 42.472 69.236 Z M 46.722 69.236 L 44.301 69.236 L 44.301 68.912 L 44.304 68.587 L 44.585 67.997 L 44.864 67.408 L 45.319 66.985 L 45.777 66.56 L 46.527 65.996 L 47.274 65.431 L 47.499 65.063 L 47.723 64.696 L 47.724 64.304 L 47.724 63.91 L 47.379 63.566 L 47.035 63.222 L 46.722 63.222 L 46.408 63.222 L 46.063 63.566 L 45.717 63.91 L 45.717 64.274 L 45.717 64.637 L 45.022 64.637 L 44.323 64.637 L 44.386 64.135 L 44.447 63.634 L 44.7 63.167 L 44.95 62.7 L 45.364 62.42 L 45.777 62.14 L 46.79 62.18 L 47.802 62.219 L 48.249 62.56 L 48.698 62.902 L 48.931 63.433 L 49.167 63.964 L 49.116 64.576 L 49.067 65.189 L 48.789 65.635 L 48.516 66.08 L 47.437 66.878 L 46.358 67.678 L 46.201 67.866 L 46.044 68.057 L 47.593 68.057 L 49.141 68.057 L 49.141 68.647 L 49.141 69.236 L 46.722 69.236 Z"/>
  </g>
</svg>