<?xml version="1.0" encoding="utf-8"?>
<svg version="1.0" width="85px" height="85px" viewBox="0 0 85 85" preserveAspectRatio="xMidYMid meet" xmlns="http://www.w3.org/2000/svg" xmlns:bx="https://boxy-svg.com">
  <g>
    <path d="M 21.22 63.765 L 0 42.53 L 21.256 21.259 L 42.5 0 L 63.744 21.259 L 85 42.53 L 63.78 63.765 C 52.111 75.441 42.535 85 42.5 85 C 42.465 85 32.889 75.441 21.22 63.765 Z M 60.469 60.452 L 78.38 42.53 L 60.434 24.571 L 42.5 6.625 L 24.566 24.571 L 6.62 42.53 L 24.531 60.452 C 34.378 70.307 42.465 78.375 42.5 78.375 C 42.535 78.375 50.622 70.307 60.469 60.452 Z" style="fill: rgb(238, 66, 55);" bx:origin="-0.058824 -0.058824"/>
    <path d="M 46.331 28.943 C 45.001 29.282 44.215 30.412 44.541 31.497 C 44.724 32.083 45.5 32.841 46.098 33.009 C 46.355 33.078 49.245 33.573 52.516 34.094 C 55.788 34.624 58.609 35.11 58.794 35.178 C 59.153 35.324 59.176 35.46 58.935 35.913 C 58.598 36.545 58.76 37.752 59.234 38.102 C 59.453 38.271 59.453 38.284 59.141 39.289 C 58.725 40.644 58.68 41.436 58.979 41.909 C 59.176 42.214 59.292 42.281 59.627 42.281 C 60.125 42.281 60.436 41.999 60.599 41.412 C 60.771 40.814 60.771 40.802 60.366 39.424 C 60.008 38.194 60.008 38.194 60.238 37.99 C 60.783 37.493 60.841 36.533 60.366 35.585 L 60.125 35.099 L 60.483 32.727 C 60.68 31.428 60.841 30.288 60.841 30.197 C 60.841 30.107 60.68 30.197 60.414 30.446 C 60.169 30.672 59.858 30.886 59.72 30.92 C 59.58 30.965 56.979 30.558 53.708 29.971 C 47.718 28.91 46.909 28.796 46.331 28.943 Z M 53.557 30.773 C 56.899 31.338 59.639 31.824 59.66 31.835 C 59.72 31.88 59.546 32.975 59.465 33.111 C 59.419 33.19 58.644 33.168 56.967 33.021 C 55.627 32.907 52.874 32.682 50.84 32.523 C 46.574 32.185 46.065 32.106 45.684 31.71 C 44.955 30.954 45.8 29.768 47.082 29.746 C 47.302 29.746 50.214 30.208 53.557 30.773 Z M 35.058 30.208 C 32.296 30.694 29.831 31.101 29.579 31.101 C 29.209 31.101 29.058 31.022 28.607 30.593 C 28.317 30.311 28.075 30.095 28.051 30.107 C 28.041 30.129 28.202 31.158 28.421 32.399 C 28.886 35.11 28.895 35.427 28.526 36.296 C 28.155 37.154 28.145 37.957 28.48 38.374 C 28.781 38.747 28.733 39.131 28.225 40.701 C 27.845 41.863 27.821 42.619 28.18 43.14 C 28.56 43.715 29.394 43.591 29.694 42.902 C 29.915 42.371 29.902 42.034 29.579 40.677 C 29.151 38.915 29.139 38.781 29.346 38.781 C 29.438 38.781 29.647 38.656 29.798 38.498 C 30.051 38.262 30.087 38.125 30.087 37.482 C 30.087 37.075 30.007 36.556 29.915 36.329 C 29.681 35.788 29.694 35.652 30.017 35.449 C 30.18 35.335 32.515 34.896 35.995 34.319 C 39.127 33.789 41.869 33.303 42.09 33.234 C 43.026 32.93 43.822 31.812 43.67 31 C 43.546 30.355 43.175 29.881 42.56 29.576 C 41.65 29.113 40.805 29.192 35.058 30.208 Z M 42.48 30.637 C 42.76 30.942 42.816 31.079 42.76 31.361 C 42.666 31.801 42.295 32.185 41.834 32.332 C 41.637 32.399 39.764 32.603 37.66 32.795 C 35.568 32.986 32.896 33.224 31.74 33.325 C 30.585 33.439 29.601 33.494 29.566 33.45 C 29.495 33.393 29.277 32.196 29.324 32.152 C 29.335 32.129 31.844 31.688 34.896 31.169 C 41.37 30.05 41.904 30.006 42.48 30.637 Z M 65.21 35.596 C 64.632 36.183 64.539 36.408 64.539 37.244 C 64.539 37.957 64.531 37.99 64.195 38.159 C 63.72 38.396 63.385 38.961 63.385 39.492 C 63.385 39.82 63.303 40.011 63.038 40.271 C 62.69 40.598 62.621 40.847 62.76 41.198 C 63.004 41.829 64.31 40.474 64.31 39.582 C 64.31 39.221 64.518 38.95 64.888 38.836 C 65.258 38.724 65.477 38.17 65.455 37.448 C 65.419 36.747 65.511 36.499 65.975 36.081 C 66.136 35.922 66.275 35.777 66.275 35.731 C 66.275 35.697 66.124 35.55 65.94 35.427 L 65.615 35.178 L 65.21 35.596 Z M 62.459 36.195 C 62.459 36.398 62.517 36.736 62.599 36.94 C 62.725 37.29 62.713 37.324 62.321 37.684 C 61.894 38.069 61.674 38.668 61.8 39.131 C 61.881 39.435 61.709 39.899 61.361 40.248 L 61.095 40.532 L 61.349 40.858 C 61.615 41.163 61.627 41.175 61.917 40.983 C 62.366 40.701 62.69 39.943 62.69 39.199 C 62.69 38.77 62.748 38.522 62.866 38.419 C 63.604 37.82 63.732 37.392 63.442 36.533 C 63.339 36.217 63.188 35.957 63.118 35.957 C 63.038 35.957 62.866 35.922 62.725 35.889 C 62.483 35.821 62.459 35.856 62.459 36.195 Z M 53.337 36.25 L 52.967 36.556 L 53.246 36.85 C 53.685 37.301 53.789 37.583 53.789 38.295 C 53.789 39.062 54.089 39.639 54.529 39.752 C 54.842 39.82 54.991 40.101 54.875 40.396 C 54.771 40.655 55.406 41.717 55.811 41.966 C 56.275 42.236 56.296 42.236 56.355 41.74 C 56.401 41.401 56.355 41.254 56.08 40.95 C 55.834 40.666 55.754 40.464 55.754 40.09 C 55.754 39.582 55.419 39.008 55.117 39.008 C 54.829 39.008 54.62 38.566 54.678 38.091 C 54.759 37.56 54.494 36.85 54.032 36.319 L 53.708 35.946 L 53.337 36.25 Z M 55.43 37.03 C 55.153 38.069 55.303 38.576 56.031 38.973 C 56.216 39.074 56.251 39.21 56.228 39.729 C 56.205 40.44 56.308 40.701 56.829 41.231 L 57.189 41.604 L 57.511 41.299 L 57.824 41.005 L 57.488 40.622 C 57.175 40.283 57.14 40.158 57.14 39.492 C 57.14 38.757 57.13 38.735 56.656 38.306 L 56.169 37.866 L 56.308 37.369 C 56.529 36.578 56.507 36.522 56.009 36.522 C 55.591 36.522 55.569 36.545 55.43 37.03 Z M 33.277 39.808 C 32.724 40.396 32.619 40.701 32.643 41.537 C 32.665 41.953 32.619 42.226 32.537 42.259 C 32.469 42.281 32.238 42.406 32.03 42.553 C 31.706 42.756 31.625 42.892 31.531 43.468 C 31.405 44.178 31.244 44.111 31.244 43.343 C 31.244 43.061 31.312 42.914 31.544 42.778 C 31.706 42.677 31.914 42.428 32.017 42.248 C 32.168 41.942 32.179 41.796 32.052 41.141 C 31.902 40.396 31.902 40.385 31.498 40.316 C 31.266 40.283 31.058 40.283 31.024 40.316 C 30.989 40.338 31.035 40.677 31.116 41.051 L 31.254 41.74 L 30.781 42.248 C 30.318 42.722 30.294 42.778 30.318 43.387 C 30.352 44.258 30.352 44.258 30.028 44.63 L 29.752 44.958 L 30.017 45.309 L 30.272 45.658 L 30.585 45.353 C 30.839 45.116 30.896 45.094 30.896 45.252 C 30.896 45.533 31.278 45.489 31.682 45.162 C 32.11 44.812 32.399 44.224 32.399 43.715 C 32.399 43.387 32.457 43.299 32.745 43.185 C 33.37 42.937 33.554 42.575 33.554 41.661 C 33.554 40.904 33.58 40.824 33.959 40.396 L 34.366 39.932 L 34.122 39.639 C 33.995 39.481 33.845 39.345 33.788 39.345 C 33.74 39.345 33.509 39.548 33.277 39.808 Z M 23.323 39.82 L 23.022 40.079 L 23.508 40.644 C 23.947 41.163 23.984 41.231 23.912 41.717 C 23.81 42.474 24.006 42.914 24.607 43.252 C 25.081 43.524 25.115 43.58 25.115 44.032 C 25.115 44.619 25.45 45.071 26.213 45.5 C 26.48 45.658 26.793 45.884 26.908 46.008 C 27.115 46.233 27.127 46.233 27.439 45.94 L 27.752 45.648 L 27.415 45.184 C 27.127 44.788 27.081 44.63 27.081 43.965 C 27.081 43.207 27.081 43.196 26.595 42.813 L 26.122 42.428 L 26.249 41.909 C 26.48 41.027 26.444 40.926 25.948 40.926 L 25.496 40.926 L 25.347 41.717 C 25.266 42.147 25.162 42.507 25.115 42.507 C 24.907 42.507 24.771 42.18 24.838 41.852 C 24.954 41.276 24.791 40.745 24.294 40.136 C 24.04 39.831 23.786 39.571 23.728 39.571 C 23.67 39.571 23.485 39.683 23.323 39.82 Z M 26.179 44.055 C 26.064 44.37 26.064 44.37 26.052 43.918 C 26.04 43.603 26.075 43.512 26.166 43.603 C 26.26 43.692 26.26 43.818 26.179 44.055 Z M 56.043 42.722 C 55.915 42.778 55.384 42.857 54.85 42.902 C 53.685 43.004 53.511 43.129 53.592 43.829 L 53.649 44.315 L 52.783 44.315 C 51.465 44.315 50.921 44.619 50.793 45.421 C 50.725 45.815 50.702 45.839 50.205 45.896 C 49.534 45.975 49.21 46.156 48.992 46.573 C 48.771 46.991 48.771 47.183 49 47.656 C 49.221 48.098 49.684 48.38 50.205 48.38 C 50.481 48.38 50.55 48.425 50.55 48.606 C 50.55 49.227 51.268 49.848 51.984 49.848 C 52.238 49.848 52.286 49.893 52.286 50.198 C 52.286 50.638 52.783 51.135 53.395 51.305 C 53.638 51.373 55.199 51.463 56.853 51.498 C 60.112 51.576 61.824 51.463 62.866 51.091 C 64.378 50.548 65.223 50.3 65.73 50.231 C 66.264 50.176 66.275 50.165 66.275 49.78 L 66.275 49.396 L 65.674 49.396 C 64.945 49.396 64.182 49.589 63.095 50.051 C 61.858 50.57 60.726 50.684 57.024 50.605 C 54.009 50.548 53.209 50.469 53.209 50.198 C 53.209 49.972 54.124 49.848 55.858 49.848 L 57.65 49.848 L 57.269 49.464 L 56.875 49.07 L 54.355 49.035 C 52.147 49.001 51.799 48.978 51.626 48.809 C 51.521 48.696 51.476 48.571 51.521 48.527 C 51.569 48.47 52.62 48.425 53.858 48.402 L 56.1 48.368 L 56.1 47.984 L 56.1 47.601 L 53.095 47.568 C 50.379 47.533 50.076 47.511 49.892 47.33 C 49.695 47.126 49.695 47.115 49.961 46.901 C 50.214 46.698 50.435 46.686 53.165 46.686 L 56.1 46.686 L 56.1 46.301 L 56.1 45.907 L 53.963 45.873 C 52.206 45.851 51.799 45.806 51.707 45.67 C 51.452 45.274 51.871 45.217 54.85 45.217 L 57.72 45.217 L 57.72 45.523 C 57.72 46.596 58.911 47.555 60.621 47.86 C 61.037 47.929 61.049 47.929 61.119 47.522 C 61.164 47.295 61.188 47.104 61.164 47.092 C 61.141 47.069 60.771 46.968 60.321 46.855 C 59.385 46.618 58.644 46.031 58.644 45.523 C 58.644 45.252 58.713 45.217 60.008 44.924 L 61.361 44.608 L 60.841 44.506 C 60.552 44.449 60.215 44.37 60.089 44.315 C 59.881 44.247 59.915 44.212 60.309 44.043 C 60.552 43.941 60.818 43.863 60.911 43.863 C 60.991 43.863 61.545 44.145 62.135 44.484 C 63.131 45.048 63.303 45.105 64.251 45.217 C 64.829 45.274 65.511 45.331 65.789 45.331 L 66.275 45.331 L 66.275 44.902 L 66.275 44.462 L 64.981 44.394 L 63.696 44.315 L 62.563 43.692 C 60.899 42.756 60.874 42.756 60.148 43.105 C 59.303 43.524 58.159 43.535 57.303 43.14 C 56.979 42.993 56.667 42.813 56.633 42.745 C 56.54 42.597 56.366 42.597 56.043 42.722 Z M 56.62 43.818 C 56.771 43.918 57.13 44.066 57.395 44.145 C 57.881 44.291 57.858 44.302 56.644 44.302 C 55.419 44.315 54.598 44.145 54.598 43.873 C 54.598 43.818 54.9 43.738 55.269 43.715 C 55.627 43.692 56.02 43.67 56.136 43.659 C 56.251 43.648 56.471 43.715 56.62 43.818 Z M 17.138 47.872 L 17.138 49.961 L 28.641 49.961 L 40.147 49.961 L 40.147 47.872 L 40.147 45.782 L 35.973 45.782 L 31.797 45.782 L 31.324 46.178 C 30.734 46.675 29.821 46.946 28.756 46.946 C 27.774 46.946 27.092 46.698 26.618 46.166 L 26.283 45.782 L 21.705 45.782 L 17.138 45.782 L 17.138 47.872 Z" style="stroke-width: 0.424;" bx:origin="0 0"/>
  </g>
</svg>