<?xml version="1.0" encoding="utf-8"?>
<svg version="1.0" width="85px" height="85px" viewBox="0 0 85 85" preserveAspectRatio="xMidYMin" xmlns="http://www.w3.org/2000/svg" xmlns:bx="https://boxy-svg.com">
  <g transform="matrix(0.011806, 0, 0, -0.011838, -0.05903, 85.115219)" bx:origin="-0.005882 8.459138">
    <path d="M1800 5395 l-1795 -1795 1795 -1795 c987 -987 1799 -1795 1805 -1795 6 0 818 808 1805 1795 l1795 1795 -1795 1795 c-987 987 -1799 1795 -1805 1795 -6 0 -818 -808 -1805 -1795z m3320 -3310 l-1515 -1515 -1515 1515 -1515 1515 1515 1515 1515 1515 1515 -1515 1515 -1515 -1515 -1515z" style="fill: rgb(238, 66, 55);"/>
    <path d="M 2541.167 5261.389 C 2523.167 5241.389 2523.167 5239.389 2568.167 5154.389 C 2712.167 4879.389 2718.167 4866.389 2732.167 4789.389 C 2740.167 4746.389 2747.167 4686.389 2747.167 4656.389 L 2747.167 4602.389 L 2565.167 4713.389 C 2464.167 4774.389 2367.167 4833.389 2350.167 4844.389 L 2317.167 4864.389 L 2317.167 4810.389 L 2318.167 4757.389 L 2527.167 4592.389 C 2755.167 4412.389 2771.167 4394.389 2802.167 4273.389 C 2811.167 4238.389 2816.167 4208.389 2814.167 4206.389 C 2812.167 4204.389 2744.167 4233.389 2663.167 4272.389 C 2582.167 4310.389 2504.167 4342.389 2490.167 4342.389 C 2459.167 4342.389 2418.167 4318.389 2305.167 4234.389 C 2188.167 4147.389 2188.167 4116.389 2304.167 4146.389 C 2384.167 4167.389 2397.167 4162.389 2655.167 4022.389 L 2867.167 3907.389 L 2867.167 3832.389 C 2867.167 3791.389 2864.167 3727.389 2860.167 3690.389 L 2854.167 3622.389 L 2501.167 3622.389 L 2147.167 3622.389 L 2147.167 3597.389 L 2147.167 3572.389 L 2502.167 3572.389 L 2857.167 3572.389 L 2857.167 3414.389 C 2857.167 3326.389 2854.167 3214.389 2851.167 3165.389 L 2844.167 3074.389 L 2681.167 2981.389 C 2548.167 2905.389 2517.167 2883.389 2520.167 2867.389 C 2521.167 2851.389 2529.167 2848.389 2552.167 2849.389 C 2569.167 2851.389 2658.167 2859.389 2750.167 2868.389 C 2895.167 2881.389 2921.167 2882.389 2935.167 2870.389 C 2945.167 2862.389 2980.167 2832.389 3015.167 2802.389 C 3049.167 2773.389 3079.167 2751.389 3080.167 2753.389 C 3082.167 2755.389 3109.167 2793.389 3140.167 2838.389 L 3196.167 2919.389 L 3437.167 2953.389 C 3569.167 2971.389 3677.167 2989.389 3677.167 2992.389 C 3677.167 2995.389 3588.167 3042.389 3479.167 3097.389 L 3282.167 3197.389 L 3282.167 3382.389 L 3282.167 3567.389 L 3736.167 3570.389 L 4190.167 3572.389 L 4123.167 3502.389 C 4035.167 3408.389 3960.167 3312.389 3858.167 3164.389 C 3812.167 3096.389 3753.167 3023.389 3728.167 3001.389 C 3620.167 2905.389 3446.167 2826.389 3322.167 2815.389 C 3249.167 2809.389 3247.167 2808.389 3247.167 2783.389 C 3247.167 2762.389 3255.167 2754.389 3290.167 2739.389 L 3332.167 2721.389 L 3272.167 2696.389 C 3239.167 2682.389 3106.167 2626.389 2976.167 2571.389 L 2741.167 2472.389 L 2651.167 2472.389 C 2513.167 2472.389 2152.167 2392.389 2152.167 2362.389 C 2152.167 2337.389 2284.167 2335.389 3745.167 2328.389 L 5117.167 2321.389 L 5117.167 2354.389 C 5117.167 2372.389 5114.167 2417.389 5110.167 2455.389 L 5104.167 2522.389 L 5006.167 2522.389 C 4951.167 2522.389 4907.167 2526.389 4907.167 2531.389 C 4907.167 2535.389 4929.167 2569.389 4957.167 2605.389 C 4999.167 2660.389 5004.167 2672.389 4989.167 2676.389 C 4980.167 2678.389 4902.167 2686.389 4817.167 2693.389 C 4732.167 2699.389 4656.167 2708.389 4649.167 2712.389 C 4641.167 2716.389 4688.167 2743.389 4766.167 2780.389 C 4838.167 2814.389 4897.167 2843.389 4897.167 2846.389 C 4897.167 2848.389 4839.167 2892.389 4767.167 2943.389 C 4696.167 2994.389 4637.167 3039.389 4637.167 3043.389 C 4637.167 3047.389 4659.167 3066.389 4685.167 3086.389 C 4744.167 3129.389 4862.167 3251.389 4906.167 3315.389 C 4950.167 3380.389 5003.167 3495.389 5022.167 3567.389 C 5036.167 3621.389 5043.167 3712.389 5033.167 3712.389 C 5030.167 3712.389 4962.167 3691.389 4882.167 3666.389 C 4801.167 3641.389 4733.167 3622.389 4731.167 3624.389 C 4729.167 3627.389 4745.167 3662.389 4767.167 3703.389 C 4789.167 3744.389 4807.167 3783.389 4807.167 3790.389 C 4807.167 3799.389 4783.167 3802.389 4719.167 3802.389 C 4578.167 3802.389 4463.167 3763.389 4316.167 3666.389 L 4249.167 3622.389 L 3763.167 3622.389 L 3277.167 3622.389 L 3277.167 3687.389 L 3277.167 3752.389 L 3417.167 3912.389 C 3494.167 4000.389 3567.167 4078.389 3580.167 4086.389 C 3592.167 4094.389 3625.167 4106.389 3652.167 4112.389 C 3680.167 4119.389 3712.167 4127.389 3724.167 4130.389 C 3739.167 4135.389 3792.167 4208.389 3887.167 4354.389 C 3964.167 4474.389 4027.167 4576.389 4027.167 4581.389 C 4027.167 4614.389 3985.167 4583.389 3862.167 4456.389 C 3734.167 4325.389 3717.167 4312.389 3668.167 4297.389 C 3638.167 4289.389 3585.167 4282.389 3550.167 4282.389 C 3474.167 4282.389 3444.167 4269.389 3362.167 4198.389 C 3330.167 4170.389 3306.167 4154.389 3310.167 4162.389 C 3390.167 4346.389 3389.167 4340.389 3383.167 4455.389 C 3378.167 4558.389 3379.167 4566.389 3404.167 4615.389 C 3437.167 4681.389 3529.167 4819.389 3624.167 4944.389 C 3690.167 5031.389 3697.167 5046.389 3697.167 5087.389 C 3697.167 5112.389 3694.167 5132.389 3690.167 5131.389 C 3685.167 5131.389 3608.167 5044.389 3517.167 4937.389 C 3426.167 4831.389 3350.167 4746.389 3349.167 4747.389 C 3347.167 4749.389 3333.167 4840.389 3319.167 4949.389 L 3292.167 5147.389 L 3253.167 5150.389 L 3215.167 5153.389 L 3222.167 5010.389 C 3225.167 4931.389 3233.167 4809.389 3238.167 4737.389 C 3243.167 4666.389 3247.167 4569.389 3247.167 4522.389 L 3247.167 4436.389 L 3157.167 4308.389 C 3105.167 4233.389 3065.167 4185.389 3063.167 4193.389 C 3060.167 4201.389 3029.167 4313.389 2993.167 4442.389 C 2957.167 4571.389 2919.167 4704.389 2907.167 4736.389 C 2883.167 4808.389 2881.167 4918.389 2902.167 5077.389 C 2910.167 5138.389 2917.167 5188.389 2917.167 5190.389 C 2917.167 5196.389 2852.167 5180.389 2841.167 5171.389 C 2835.167 5166.389 2819.167 5126.389 2807.167 5082.389 C 2794.167 5037.389 2781.167 4999.389 2776.167 4997.389 C 2772.167 4994.389 2727.167 5057.389 2675.167 5137.389 C 2624.167 5217.389 2577.167 5282.389 2571.167 5282.389 C 2565.167 5282.389 2552.167 5273.389 2541.167 5261.389 Z M 4733.167 3746.389 C 4729.167 3737.389 4702.167 3687.389 4671.167 3635.389 C 4640.167 3583.389 4617.167 3539.389 4619.167 3537.389 C 4621.167 3535.389 4703.167 3558.389 4801.167 3588.389 C 4899.167 3619.389 4981.167 3641.389 4984.167 3638.389 C 4992.167 3630.389 4948.167 3493.389 4917.167 3432.389 C 4831.167 3262.389 4641.167 3089.389 4420.167 2978.389 C 4380.167 2958.389 4265.167 2915.389 4165.167 2881.389 C 4064.167 2848.389 3973.167 2815.389 3962.167 2808.389 C 3950.167 2800.389 3908.167 2744.389 3868.167 2684.389 L 3795.167 2573.389 L 3763.167 2586.389 C 3746.167 2593.389 3647.167 2637.389 3543.167 2683.389 L 3354.167 2766.389 L 3412.167 2779.389 C 3483.167 2795.389 3616.167 2857.389 3693.167 2910.389 C 3773.167 2965.389 3820.167 3017.389 3912.167 3152.389 C 4163.167 3522.389 4401.167 3715.389 4651.167 3752.389 C 4734.167 3764.389 4740.167 3764.389 4733.167 3746.389 Z M 4707.167 3442.389 C 4683.167 3418.389 4682.167 3399.389 4703.167 3378.389 C 4721.167 3359.389 4778.167 3357.389 4795.167 3374.389 C 4825.167 3404.389 4794.167 3462.389 4749.167 3462.389 C 4737.167 3462.389 4718.167 3453.389 4707.167 3442.389 Z"/>
  </g>
</svg>