<?xml version="1.0" encoding="utf-8"?>
<svg version="1.0" width="85px" height="85px" viewBox="0 0 85 85" preserveAspectRatio="xMidYMin" xmlns="http://www.w3.org/2000/svg">
  <g transform="matrix(1, 0, 0, 1, -1, 0)">
    <path d="M 22.238 63.791 L 1 42.571 L 3.508 39.994 C 4.881 38.575 14.429 28.999 24.735 18.714 L 43.465 0 L 64.738 21.256 L 86 42.5 L 64.726 63.756 L 43.465 85 L 22.238 63.791 Z M 61.484 60.375 L 79.374 42.5 L 61.449 24.59 L 43.524 6.679 L 25.575 24.625 L 7.614 42.559 L 25.48 60.41 C 35.301 70.223 43.394 78.261 43.465 78.261 C 43.536 78.261 51.64 70.211 61.484 60.375 Z" style="fill: rgb(238, 66, 55);"/>
    <path d="M 39.291 38.087 C 31.673 40.421 25.319 42.408 25.189 42.501 C 24.423 42.971 23.964 44.233 23.964 45.83 C 23.964 47.132 24.14 48.031 24.612 49.171 C 25.295 50.808 26.393 51.923 27.336 51.923 C 27.807 51.923 55.279 43.536 55.772 43.241 C 56.256 42.958 56.727 42.087 56.927 41.092 C 57.092 40.274 57.328 39.805 57.718 39.522 C 57.859 39.415 59.379 38.905 61.078 38.382 C 62.834 37.858 64.286 37.348 64.415 37.213 C 64.768 36.851 64.921 36.101 64.768 35.456 C 64.627 34.854 63.954 34.074 63.577 34.074 C 63.449 34.074 61.951 34.504 60.252 35.026 C 58.001 35.711 57.036 35.952 56.705 35.912 C 56.349 35.859 56.08 35.657 55.501 35.026 C 54.687 34.127 54.133 33.793 53.533 33.819 C 53.32 33.833 46.907 35.752 39.291 38.087 Z" style=""/>
  </g>
</svg>