<?xml version="1.0" encoding="utf-8"?>
<svg version="1.0" width="85px" height="85px" viewBox="0 0 85 85" preserveAspectRatio="xMidYMin" xmlns="http://www.w3.org/2000/svg" xmlns:bx="https://boxy-svg.com">
  <g>
    <path d="M 21.25 63.75 L 0 42.5 L 21.25 21.25 L 42.5 0 L 63.75 21.25 L 85 42.5 L 63.75 63.75 L 42.5 85 L 21.25 63.75 Z M 60.435 24.565 L 42.5 6.63 L 24.565 24.565 L 6.63 42.5 L 24.565 60.435 L 42.5 78.37 L 60.435 60.435 L 78.37 42.5 L 60.435 24.565 Z" style="fill: rgb(238, 66, 55);" bx:origin="0 0"/>
    <path d="M 40.096 20.757 C 38.139 21.34 36.561 23.119 36.561 24.757 C 36.561 25.561 39.286 48.065 39.443 48.521 C 39.665 49.183 40.254 49.909 40.822 50.234 C 42.232 51.053 44.041 50.234 44.619 48.521 C 44.777 48.065 47.501 25.534 47.501 24.73 C 47.501 23.093 45.902 21.327 43.915 20.743 C 43.062 20.497 40.937 20.509 40.096 20.757 Z M 40.927 53.831 C 39.023 54.611 37.834 56.637 37.823 59.116 C 37.823 59.948 38.045 61.104 38.338 61.818 C 38.676 62.637 39.454 63.583 40.159 64.065 C 40.801 64.492 40.853 64.506 42.031 64.506 C 43.209 64.506 43.262 64.492 43.904 64.065 C 45.472 63.012 46.334 61 46.208 58.688 C 46.166 57.896 46.072 57.469 45.787 56.714 C 45.062 54.844 43.788 53.778 42.189 53.701 C 41.685 53.676 41.18 53.727 40.927 53.831 Z" style="stroke-width: 0.303;" bx:origin="0 -0.642"/>
  </g>
</svg>