<?xml version="1.0" encoding="utf-8"?>
<svg version="1.0" width="85px" height="85px" viewBox="0 0 85 85" preserveAspectRatio="xMidYMid meet" xmlns="http://www.w3.org/2000/svg">
  <g>
    <path d="M 21.22 63.765 L 0 42.53 L 21.256 21.259 L 42.5 0 L 63.744 21.259 L 85 42.53 L 63.78 63.765 C 52.111 75.441 42.535 85 42.5 85 C 42.465 85 32.889 75.441 21.22 63.765 Z M 60.469 60.452 L 78.38 42.53 L 60.434 24.571 L 42.5 6.625 L 24.566 24.571 L 6.62 42.53 L 24.531 60.452 C 34.378 70.307 42.465 78.375 42.5 78.375 C 42.535 78.375 50.622 70.307 60.469 60.452 Z" style="fill: rgb(238, 66, 55);"/>
    <path d="M 47.059 20.536 C 46.993 20.732 45.764 24.83 44.337 29.647 C 42.91 34.452 41.692 38.549 41.637 38.731 L 41.526 39.058 L 40.785 38.875 C 38.738 38.366 36.692 39.606 35.684 41.982 L 35.264 42.987 L 34.401 42.217 C 33.924 41.8 33.515 41.46 33.493 41.46 C 33.472 41.46 33.505 41.577 33.57 41.721 C 33.637 41.864 33.991 42.217 34.378 42.531 C 34.755 42.831 35.253 43.326 35.497 43.639 C 35.762 43.992 35.983 44.188 36.082 44.148 C 36.17 44.11 36.348 44.136 36.469 44.214 C 36.636 44.319 36.68 44.319 36.625 44.214 C 36.569 44.11 36.757 44.071 37.211 44.071 C 37.776 44.071 38.029 44.161 38.827 44.62 L 39.778 45.181 L 40.266 44.527 C 40.531 44.161 40.785 43.783 40.818 43.666 C 40.852 43.549 40.774 43.17 40.653 42.831 L 40.42 42.204 L 41.195 42.295 L 41.958 42.374 L 42.035 41.851 C 42.112 41.342 42.125 41.329 42.566 41.329 L 43.021 41.329 L 42.533 41.942 C 41.084 43.771 40.94 43.992 42.035 42.726 C 43.087 41.525 43.308 41.329 43.617 41.329 C 43.95 41.329 43.972 41.304 43.85 41.056 C 43.685 40.676 43.982 40.325 44.758 40.025 C 45.356 39.776 45.521 39.789 45.521 40.063 C 45.521 40.155 45.565 40.298 45.621 40.403 C 45.698 40.533 45.897 40.403 46.505 39.815 C 47.114 39.228 47.401 38.824 47.734 38.106 C 47.977 37.583 48.176 37.126 48.176 37.088 C 48.176 37.049 47.846 37.335 47.434 37.74 C 46.783 38.379 46.639 38.458 46.196 38.458 L 45.686 38.458 L 46.738 37.179 C 47.313 36.486 49.505 33.876 51.608 31.383 L 55.425 26.841 L 55.114 26.488 C 54.804 26.123 54.804 26.123 54.617 26.384 C 53.698 27.689 44.713 39.084 44.48 39.228 C 44.326 39.332 44.193 39.515 44.193 39.632 C 44.193 39.749 44.049 40.011 43.872 40.207 L 43.551 40.573 L 43.098 40.155 L 42.644 39.725 L 42.998 38.993 C 43.197 38.588 44.281 36.383 45.421 34.086 C 47.479 29.947 47.49 29.909 47.269 29.673 C 47.147 29.556 47.015 29.451 46.97 29.451 C 46.938 29.451 45.985 31.606 44.869 34.216 C 43.75 36.839 42.81 38.967 42.799 38.941 C 42.776 38.914 43.85 35.286 45.2 30.875 C 46.539 26.463 47.778 22.376 47.956 21.79 L 48.276 20.707 L 47.977 20.524 C 47.324 20.131 47.192 20.144 47.059 20.536 Z M 42.766 32.545 C 42.024 35.965 41.428 38.771 41.449 38.784 C 41.483 38.824 44.625 27.389 44.725 26.919 C 44.736 26.841 44.602 26.684 44.425 26.567 L 44.116 26.345 L 42.766 32.545 Z M 42.202 27.742 C 42.047 28.197 42.047 28.197 41.759 28.015 C 41.582 27.897 41.538 27.964 41.438 28.55 C 41.272 29.451 41.283 29.517 41.571 29.673 C 41.748 29.777 41.88 30.012 41.981 30.443 L 42.135 31.057 L 42.301 30.743 C 42.4 30.575 42.688 30.157 42.954 29.804 C 43.208 29.464 43.419 29.138 43.419 29.086 C 43.419 29.034 43.331 28.643 43.22 28.211 C 43.031 27.493 42.988 27.429 42.677 27.389 C 42.4 27.349 42.324 27.415 42.202 27.742 Z M 60.372 31.553 C 60.304 31.736 60.193 32.127 60.116 32.427 L 59.983 32.976 L 59.364 32.976 C 58.578 32.989 58.367 33.172 58.257 33.993 L 58.168 34.659 L 58.699 35 L 59.231 35.338 L 59.541 34.868 C 59.707 34.62 59.907 34.411 59.972 34.411 C 60.028 34.411 60.404 34.672 60.791 35 C 61.178 35.325 61.51 35.56 61.532 35.534 C 61.555 35.508 61.543 34.96 61.5 34.306 C 61.433 33.224 61.389 33.041 60.945 32.18 C 60.493 31.266 60.47 31.24 60.372 31.553 Z M 47.004 32.257 C 46.915 32.414 46.815 32.793 46.783 33.119 C 46.727 33.628 46.75 33.733 47.037 34.059 L 47.358 34.411 L 47.646 34.059 C 47.99 33.615 48.088 33.068 47.934 32.44 C 47.834 32.036 47.778 31.971 47.49 31.971 C 47.28 31.971 47.103 32.074 47.004 32.257 Z M 49.118 37.883 C 45.709 40.716 42.877 43.091 42.81 43.17 C 42.667 43.339 55.048 34.294 55.236 34.086 C 55.325 33.993 55.37 33.707 55.347 33.328 L 55.313 32.74 L 49.118 37.883 Z M 53.787 37.257 C 53.687 37.388 53.532 37.701 53.443 37.962 L 53.278 38.432 L 53.687 38.497 C 53.908 38.549 54.451 38.614 54.871 38.667 L 55.646 38.745 L 54.926 37.883 C 54.539 37.414 54.164 37.022 54.086 37.022 C 54.019 37.022 53.885 37.126 53.787 37.257 Z M 53.963 40.455 C 48.099 42.256 43.331 43.744 43.342 43.771 C 43.385 43.809 64.919 38.053 64.984 37.988 C 65.074 37.897 64.841 37.244 64.72 37.217 C 64.664 37.192 59.816 38.654 53.963 40.455 Z M 47.602 41.042 C 45.731 42.1 44.227 42.974 44.237 42.987 C 44.26 43.013 45.841 42.308 47.768 41.434 C 51.231 39.868 51.275 39.842 51.275 39.476 C 51.275 39.267 51.22 39.111 51.143 39.123 C 51.065 39.137 49.472 39.998 47.602 41.042 Z M 55.9 42.348 C 49.593 43.626 44.447 44.67 44.47 44.697 C 44.493 44.723 49.759 43.901 56.188 42.87 L 67.873 41.003 L 67.873 40.507 C 67.873 40.09 67.84 40.025 67.629 40.037 C 67.486 40.05 62.218 41.081 55.9 42.348 Z M 32.575 42.608 C 32.575 42.726 35.12 44.24 35.197 44.161 C 35.242 44.11 32.74 42.505 32.619 42.505 C 32.596 42.505 32.575 42.544 32.575 42.608 Z M 30.472 44.005 C 30.394 44.123 30.351 44.227 30.374 44.254 C 30.428 44.306 35.573 45.258 35.729 45.232 C 35.795 45.232 34.765 44.933 33.459 44.593 C 32.154 44.24 30.97 43.914 30.848 43.875 C 30.704 43.836 30.55 43.901 30.472 44.005 Z M 51.662 44.267 C 51.43 44.514 51.009 44.775 50.744 44.867 C 50.234 45.036 50.234 45.036 50.456 45.924 C 50.512 46.133 50.401 46.159 49.206 46.172 L 47.9 46.199 L 49.671 46.302 C 50.644 46.355 51.961 46.472 52.603 46.551 C 53.244 46.629 53.842 46.668 53.931 46.629 C 54.019 46.59 56.542 46.694 59.519 46.864 C 62.505 47.033 64.962 47.164 64.974 47.138 C 64.996 47.113 64.873 47.007 64.697 46.903 C 64.454 46.76 63.269 46.681 59.275 46.551 C 56.454 46.459 54.152 46.342 54.152 46.302 C 54.152 46.263 54.307 46.042 54.506 45.806 C 54.727 45.545 54.816 45.337 54.749 45.258 C 54.694 45.192 54.229 44.919 53.709 44.658 C 51.928 43.731 52.16 43.783 51.662 44.267 Z M 51.938 46.159 C 51.938 46.225 51.772 46.289 51.585 46.289 C 51.308 46.289 51.264 46.25 51.386 46.159 C 51.608 45.989 51.938 45.989 51.938 46.159 Z M 42.311 45.324 C 42.311 45.911 42.279 45.989 41.914 46.263 C 41.582 46.525 41.493 46.538 41.339 46.395 C 41.172 46.25 41.172 46.25 41.294 46.433 C 41.405 46.616 41.382 46.681 41.15 46.864 C 40.829 47.113 40.807 47.099 39.346 45.598 C 39.081 45.337 38.827 45.115 38.782 45.115 C 38.738 45.115 38.396 45.428 38.009 45.819 L 37.299 46.512 L 36.514 46.263 C 36.082 46.119 35.595 45.976 35.429 45.936 L 35.131 45.872 L 35.341 46.76 C 35.463 47.243 35.551 47.66 35.53 47.673 C 35.517 47.686 34.909 47.882 34.179 48.117 C 31.745 48.873 31.69 48.899 31.69 49.162 C 31.69 49.383 31.899 49.318 33.66 48.626 L 35.618 47.843 L 35.928 48.274 C 36.093 48.509 36.226 48.756 36.226 48.835 C 36.215 48.939 29.487 55.349 28.99 55.714 C 28.912 55.779 28.968 55.922 29.167 56.158 L 29.454 56.51 L 31.578 54.212 L 33.704 51.915 L 33.958 52.268 C 34.179 52.568 34.245 52.594 34.489 52.463 C 34.677 52.359 34.799 52.359 34.876 52.45 C 35.075 52.686 35.463 52.411 35.641 51.928 C 35.795 51.485 35.795 51.459 35.54 51.224 C 35.408 51.107 35.12 50.988 34.921 50.988 C 34.567 50.988 34.567 50.988 35.452 50.023 L 36.348 49.056 L 37.067 49.696 C 38.461 50.937 40.188 51.197 41.682 50.362 C 42.069 50.153 42.556 49.8 42.776 49.566 C 42.998 49.345 43.208 49.162 43.241 49.162 C 43.297 49.162 47.269 52.881 48.099 53.704 C 48.276 53.887 48.276 53.873 48.166 53.494 C 48.078 53.181 47.512 52.633 45.676 51.027 C 43.607 49.239 43.331 48.952 43.463 48.796 C 43.607 48.626 44.005 48.952 46.583 51.328 C 50.335 54.774 49.936 54.448 50.124 54.225 C 50.267 54.07 49.847 53.664 47.015 51.25 C 44.116 48.769 43.617 48.3 43.872 48.208 C 43.917 48.196 45.2 49.096 46.738 50.206 C 48.287 51.315 49.604 52.281 49.692 52.333 C 49.803 52.411 49.792 52.333 49.66 52.007 C 49.516 51.642 49.084 51.315 46.76 49.813 C 45.266 48.848 44.028 47.987 44.005 47.921 C 43.982 47.843 44.028 47.686 44.105 47.556 C 44.237 47.36 44.359 47.373 45.797 47.804 C 47.657 48.351 47.657 48.351 47.579 48.496 C 47.545 48.561 47.302 48.561 47.004 48.482 C 46.573 48.364 46.484 48.391 46.351 48.6 C 46.108 48.965 46.152 49.069 46.717 49.513 C 47.125 49.853 47.49 49.996 48.454 50.206 C 49.118 50.348 49.748 50.466 49.859 50.466 C 50.179 50.466 50.124 49.71 49.77 49.279 L 49.482 48.927 L 51.253 49.462 C 52.227 49.761 53.057 49.983 53.09 49.944 C 53.113 49.906 53.178 49.579 53.211 49.226 L 53.289 48.574 L 48.984 47.882 C 46.628 47.49 44.602 47.151 44.493 47.113 C 44.359 47.073 44.315 46.968 44.359 46.812 C 44.404 46.629 44.337 46.538 44.038 46.419 C 43.828 46.342 43.617 46.172 43.584 46.042 C 43.529 45.846 43.253 45.533 42.455 44.815 C 42.345 44.723 42.311 44.84 42.311 45.324 Z M 43.839 44.815 C 43.905 44.84 44.038 44.84 44.116 44.815 C 44.182 44.775 44.126 44.75 43.972 44.75 C 43.816 44.75 43.761 44.775 43.839 44.815 Z M 23.855 45.192 C 23.999 45.363 24.387 45.428 26.014 45.52 C 27.098 45.571 28.392 45.623 28.902 45.623 L 29.83 45.636 L 29.753 46.002 C 29.697 46.329 29.742 46.419 30.107 46.707 C 30.339 46.89 30.716 47.086 30.959 47.138 C 31.313 47.203 31.413 47.177 31.545 46.955 C 31.634 46.799 31.822 46.681 31.977 46.681 C 32.209 46.681 32.243 46.616 32.243 46.237 C 32.243 45.872 32.287 45.781 32.498 45.728 C 32.63 45.703 32.431 45.664 32.065 45.651 C 31.612 45.636 31.336 45.571 31.246 45.441 C 31.091 45.219 30.251 45.168 30.073 45.375 C 29.985 45.481 27.186 45.324 24.442 45.05 C 23.711 44.971 23.678 44.985 23.855 45.192 Z M 33.272 45.859 C 33.493 45.885 33.869 45.885 34.102 45.859 C 34.323 45.833 34.135 45.806 33.681 45.806 C 33.227 45.806 33.04 45.833 33.272 45.859 Z M 45.72 46.119 C 45.786 46.146 45.919 46.146 45.997 46.119 C 46.063 46.081 46.008 46.055 45.854 46.055 C 45.698 46.055 45.642 46.081 45.72 46.119 Z M 46.44 46.119 C 46.539 46.146 46.717 46.146 46.827 46.119 C 46.926 46.081 46.838 46.055 46.628 46.055 C 46.417 46.055 46.329 46.081 46.44 46.119 Z M 25.913 46.851 C 25.428 47.32 25.503 47.543 26.19 47.647 C 26.5 47.686 26.965 47.725 27.197 47.725 C 27.44 47.725 27.607 47.765 27.574 47.804 C 27.518 47.869 20.292 48.899 19.883 48.899 C 19.805 48.899 19.739 48.992 19.739 49.096 C 19.739 49.2 19.805 49.292 19.883 49.292 C 20.193 49.305 32.818 47.269 32.674 47.23 C 32.586 47.216 31.467 47.333 30.195 47.516 L 27.884 47.83 L 27.186 47.19 C 26.809 46.838 26.432 46.551 26.356 46.551 C 26.278 46.564 26.079 46.694 25.913 46.851 Z M 34.047 47.033 C 34.146 47.06 34.3 47.06 34.378 47.033 C 34.444 46.994 34.368 46.968 34.179 46.968 C 34.002 46.968 33.936 46.994 34.047 47.033 Z M 33.161 47.164 C 33.26 47.19 33.416 47.19 33.493 47.164 C 33.56 47.125 33.482 47.099 33.294 47.099 C 33.117 47.099 33.05 47.125 33.161 47.164 Z M 29.399 48.939 C 24.198 50.31 23.523 50.531 23.767 50.832 C 23.8 50.858 26.422 50.127 29.609 49.187 C 32.795 48.261 35.297 47.49 35.176 47.49 C 35.053 47.49 32.453 48.143 29.399 48.939 Z M 32.464 49.944 C 30.616 51.133 29.41 51.981 29.376 52.111 C 29.321 52.424 29.343 52.411 32.542 50.193 C 35.12 48.404 35.706 47.974 35.563 47.987 C 35.53 47.999 34.135 48.873 32.464 49.944 Z M 29.487 50.01 C 29.83 50.428 29.908 50.466 30.174 50.348 C 30.384 50.245 30.472 50.113 30.472 49.879 C 30.472 49.566 30.45 49.553 29.786 49.553 L 29.089 49.553 L 29.487 50.01 Z M 25.924 52.556 C 25.792 53.051 25.803 53.103 26.168 53.73 C 26.378 54.083 26.577 54.383 26.621 54.383 C 26.654 54.383 26.743 54.2 26.809 53.99 C 26.887 53.69 26.988 53.599 27.197 53.599 C 27.486 53.599 27.761 53.234 27.839 52.763 C 27.884 52.437 27.098 52.072 26.998 52.385 C 26.943 52.542 26.877 52.542 26.556 52.307 C 26.356 52.15 26.157 52.033 26.123 52.033 C 26.079 52.033 25.991 52.268 25.924 52.556 Z" style="stroke-width: 0.525;"/>
  </g>
</svg>