<?xml version="1.0" encoding="utf-8"?>
<svg width="85px" height="85px" viewBox="0 0 85 85" version="1.1" id="svg5" xmlns="http://www.w3.org/2000/svg" xmlns:bx="https://boxy-svg.com">
  <g>
    <path d="M 21.22 63.765 L 0 42.53 L 21.256 21.259 L 42.5 0 L 63.744 21.259 L 85 42.53 L 63.78 63.765 C 52.111 75.441 42.535 85 42.5 85 C 42.465 85 32.889 75.441 21.22 63.765 Z M 60.469 60.452 L 78.38 42.53 L 60.434 24.571 L 42.5 6.625 L 24.566 24.571 L 6.62 42.53 L 24.531 60.452 C 34.378 70.307 42.465 78.375 42.5 78.375 C 42.535 78.375 50.622 70.307 60.469 60.452 Z" style="fill: rgb(238, 66, 55);" bx:origin="0 0"/>
    <path d="M 30.224 61.239 C 30.19 61.152 30.179 60.603 30.198 60.019 L 30.233 58.958 L 42.893 58.958 L 55.554 58.958 L 55.554 60.148 L 55.554 61.337 L 42.919 61.368 C 32.477 61.393 30.274 61.37 30.224 61.239 Z M 46.466 56.073 C 46.469 56.024 46.81 55.743 47.224 55.449 C 47.638 55.154 48.549 54.362 49.247 53.688 C 50.421 52.555 50.579 52.347 51.353 50.91 C 51.848 49.99 52.145 49.313 52.082 49.249 C 52.018 49.186 51.661 49.331 51.207 49.606 C 50.261 50.176 49.367 50.452 48.459 50.452 C 47.745 50.452 47.625 50.362 47.964 50.08 C 48.606 49.547 49.318 48.355 49.726 47.13 C 50.131 45.915 50.151 45.775 50.119 44.491 C 50.08 42.904 49.938 42.756 49.446 43.79 C 49.178 44.353 49.004 44.53 48.202 45.055 C 47.689 45.39 47.019 45.912 46.712 46.215 C 46.405 46.517 46.116 46.764 46.069 46.764 C 46.022 46.764 45.984 45.833 45.984 44.695 C 45.984 42.802 45.953 42.497 45.623 41.115 C 45.293 39.731 45.202 39.514 44.539 38.515 C 43.721 37.284 42.59 36.057 42.273 36.057 C 42.082 36.057 42.061 36.195 42.061 37.477 L 42.061 38.897 L 41.288 41.127 C 40.427 43.612 40.376 44.008 40.692 45.804 C 40.789 46.356 40.849 46.827 40.825 46.851 C 40.801 46.876 40.271 46.612 39.648 46.264 C 38.417 45.58 37.967 45.082 37.477 43.863 C 37.16 43.077 36.83 42.972 36.83 43.659 C 36.83 43.923 36.741 44.546 36.632 45.042 C 36.446 45.892 36.446 45.983 36.643 46.621 C 36.912 47.494 37.405 48.387 38.226 49.487 L 38.882 50.366 L 37.886 50.281 C 36.659 50.174 35.641 49.844 34.898 49.311 C 34.359 48.924 33.977 48.795 33.977 49.001 C 33.977 49.054 34.258 49.746 34.601 50.54 C 35.156 51.825 35.354 52.138 36.386 53.356 C 37.509 54.683 37.581 54.743 38.615 55.224 C 39.203 55.497 39.684 55.768 39.684 55.827 C 39.684 55.885 39.429 55.906 39.119 55.873 C 38.808 55.84 38.123 55.785 37.596 55.749 C 36.765 55.693 36.398 55.584 34.825 54.923 C 32.981 54.15 32.769 54.029 31.305 52.923 C 30.569 52.367 30.39 52.147 29.728 50.979 C 29.02 49.73 28.921 49.45 27.806 45.566 C 27.16 43.313 26.593 41.122 26.547 40.697 L 26.463 39.923 L 26.905 40.34 C 27.148 40.569 27.603 41.093 27.917 41.504 C 28.231 41.915 28.827 42.512 29.241 42.831 C 29.925 43.357 30.083 43.423 30.946 43.545 C 31.469 43.618 32.018 43.705 32.167 43.737 C 32.617 43.835 32.609 43.488 32.136 42.453 C 30.896 39.738 30.53 38.138 30.53 35.436 C 30.53 34.725 30.473 33.633 30.403 33.007 C 30.333 32.381 30.308 31.838 30.346 31.8 C 30.486 31.66 31.513 32.817 32.488 34.213 C 33.207 35.242 33.632 35.732 34.011 35.968 C 34.889 36.514 34.987 36.374 34.572 35.165 C 34.173 34.005 34.319 30.772 34.88 28.325 C 35.028 27.683 35.034 27.414 34.914 26.747 C 34.835 26.305 34.801 25.914 34.838 25.877 C 35.029 25.685 35.851 26.02 36.364 26.501 C 37.02 27.115 37.452 28.158 37.71 29.759 C 37.832 30.514 38.016 31.059 38.424 31.87 C 38.726 32.472 39.019 32.964 39.076 32.964 C 39.245 32.964 39.396 32.715 39.829 31.715 C 40.661 29.795 41.11 26.811 41.11 23.201 C 41.11 20.927 41.24 20.189 42.006 18.106 C 42.107 17.831 42.157 17.983 42.48 19.526 C 42.772 20.922 42.856 21.131 43.922 23.13 C 44.744 24.669 45.268 25.845 45.829 27.413 C 46.787 30.091 46.977 31.19 46.738 32.683 C 46.649 33.24 46.606 33.745 46.644 33.806 C 46.847 34.135 47.823 33.709 48.521 32.988 C 48.909 32.587 49.038 32.307 49.376 31.133 C 49.63 30.251 49.825 29.222 49.915 28.294 C 49.993 27.493 50.099 26.791 50.152 26.733 C 50.204 26.676 50.526 27.184 50.867 27.863 C 51.417 28.959 51.505 29.238 51.644 30.347 C 51.731 31.034 51.803 32.482 51.806 33.566 L 51.809 35.535 L 51.393 36.568 C 51.164 37.136 50.977 37.655 50.977 37.721 C 50.977 38.162 52.687 37.181 53.598 36.218 C 53.971 35.822 54.476 35.094 54.767 34.531 C 55.048 33.986 55.302 33.564 55.331 33.593 C 55.471 33.733 56.084 36.159 56.214 37.088 C 56.355 38.094 56.347 38.201 56.028 39.567 C 55.66 41.14 55.258 42.041 54.257 43.53 C 53.892 44.074 53.593 44.569 53.593 44.63 C 53.593 44.997 56.05 44.252 56.899 43.628 C 57.673 43.06 57.784 43.069 57.705 43.701 C 57.671 43.979 57.608 44.734 57.567 45.379 C 57.508 46.298 57.37 46.945 56.926 48.38 C 56.422 50.006 56.258 50.37 55.442 51.669 C 54.554 53.08 54.488 53.153 53.434 53.87 C 51.73 55.03 50.306 55.672 48.847 55.937 C 47.578 56.168 46.455 56.232 46.466 56.073 Z"/>
  </g>
</svg>