<?xml version="1.0" encoding="utf-8"?>
<svg version="1.0" width="85px" height="85px" viewBox="0 0 85 85" preserveAspectRatio="xMidYMin" xmlns="http://www.w3.org/2000/svg" xmlns:bx="https://boxy-svg.com">
  <g>
    <path d="M 21.22 63.765 L 0 42.53 L 21.256 21.259 L 42.5 0 L 63.744 21.259 L 85 42.53 L 63.78 63.765 C 52.111 75.441 42.535 85 42.5 85 C 42.465 85 32.889 75.441 21.22 63.765 Z M 60.469 60.452 L 78.38 42.53 L 60.434 24.571 L 42.5 6.625 L 24.566 24.571 L 6.62 42.53 L 24.531 60.452 C 34.378 70.307 42.465 78.375 42.5 78.375 C 42.535 78.375 50.622 70.307 60.469 60.452 Z" style="fill: rgb(238, 66, 55);" bx:origin="0 0"/>
    <path d="M 42.733 14.826 C 42.362 16.559 42.299 17.1 42.276 18.283 C 42.24 20.114 41.705 23.141 41.134 24.813 C 40.91 25.455 40.688 26.031 40.645 26.082 C 40.547 26.204 39.625 24.825 39.332 24.138 C 39.221 23.866 39.082 23.4 39.016 23.091 C 38.938 22.722 38.642 22.156 38.119 21.394 C 37.699 20.765 37.319 20.225 37.277 20.202 C 37.225 20.164 37.271 20.532 37.366 21.025 L 37.55 21.899 L 37.11 22.785 C 36.736 23.559 36.645 23.866 36.474 25.134 C 36.288 26.524 36.285 26.695 36.451 28.466 C 36.546 29.502 36.603 30.349 36.582 30.349 C 36.561 30.349 36.227 30.165 35.841 29.93 C 35.215 29.562 35.071 29.402 34.633 28.615 C 34.174 27.777 32.933 25.897 32.88 25.957 C 32.869 25.971 32.929 26.623 33.031 27.395 C 33.148 28.406 33.192 29.451 33.16 31.05 C 33.132 32.514 33.162 33.609 33.256 34.249 C 33.33 34.777 33.394 35.245 33.392 35.293 C 33.39 35.429 31.944 34.371 30.927 33.485 C 30.429 33.042 30.014 32.697 30.003 32.722 C 29.992 32.735 30.046 33.719 30.14 34.902 C 30.239 36.304 30.281 37.963 30.248 39.661 C 30.199 42.133 30.214 42.392 30.522 44.494 C 30.791 46.365 30.908 46.87 31.26 47.73 C 31.492 48.283 31.879 49.009 32.115 49.353 C 32.454 49.834 32.564 50.104 32.608 50.584 C 33.022 54.791 35.566 58.507 39.032 59.945 L 39.712 60.241 L 36.155 60.241 L 32.588 60.241 L 32.552 62.084 L 32.516 63.931 L 42.806 63.931 L 53.096 63.931 L 53.132 62.084 L 53.168 60.241 L 49.137 60.241 L 45.095 60.228 L 45.904 59.883 C 48.831 58.615 51.079 55.923 52.14 52.405 C 52.264 52 52.868 50.768 53.481 49.649 C 54.509 47.805 54.664 47.46 55.216 45.663 L 55.814 43.707 L 55.862 41.236 L 55.921 38.776 L 55.415 36.032 C 55.024 33.903 54.897 33.374 54.849 33.695 C 54.764 34.261 53.697 35.392 52.855 35.823 C 52.513 35.994 52.226 36.117 52.195 36.094 C 52.134 36.007 52.61 33.83 53.017 32.391 L 53.391 31.063 L 53.043 29.487 C 52.849 28.615 52.662 27.876 52.631 27.828 C 52.59 27.791 52.469 28.038 52.368 28.391 C 52.097 29.254 51.492 29.993 50.682 30.411 C 50.329 30.595 50.01 30.704 49.98 30.669 C 49.949 30.632 50.012 30.102 50.118 29.502 C 50.226 28.898 50.319 27.852 50.333 27.176 L 50.357 25.946 L 49.435 23.473 C 48.582 21.208 48.501 21.025 48.461 21.455 C 48.365 22.576 47.942 24.272 47.546 25.07 C 47.183 25.811 47.085 25.932 46.477 26.278 C 46.104 26.486 45.773 26.658 45.752 26.658 C 45.721 26.658 45.717 25.786 45.738 24.715 C 45.775 22.809 45.766 22.734 45.395 21.172 C 45.191 20.298 44.776 18.86 44.465 17.974 C 44.117 16.953 43.813 15.735 43.613 14.652 C 43.441 13.706 43.278 12.906 43.236 12.856 C 43.206 12.808 42.978 13.694 42.733 14.826 Z M 43.181 30.768 L 43.942 31.837 L 44.115 33.215 C 44.205 33.979 44.445 35.194 44.632 35.921 C 44.828 36.658 44.964 37.274 44.932 37.311 C 44.91 37.348 44.446 37.311 43.899 37.226 C 42.962 37.091 41.768 37.152 40.941 37.348 C 40.559 37.446 40.548 37.446 40.494 37.001 C 40.359 35.848 40.428 35.527 41.288 33.658 L 42.115 31.85 L 42.139 30.582 C 42.171 29.549 42.196 29.339 42.298 29.502 C 42.37 29.599 42.76 30.165 43.181 30.768 Z M 38.163 34.225 C 38.391 35.54 38.559 36.167 38.871 36.891 C 39.104 37.421 39.274 37.864 39.242 37.878 C 39.189 37.927 37.096 39.132 36.989 39.181 C 36.894 39.23 36.605 38.394 36.611 38.061 C 36.614 37.927 36.786 37.177 37.002 36.388 C 37.219 35.6 37.463 34.408 37.54 33.733 C 37.69 32.551 37.782 32.132 37.851 32.377 C 37.861 32.452 38.003 33.277 38.163 34.225 Z M 48.616 36.745 C 48.849 38.26 49.014 39.515 49.003 39.537 C 48.982 39.562 48.638 39.329 48.244 39.021 C 47.848 38.714 47.172 38.283 46.731 38.074 L 45.927 37.693 L 46.932 35.959 C 47.488 34.999 47.98 34.15 48.023 34.065 C 48.069 33.979 48.132 33.917 48.153 33.954 C 48.173 33.979 48.381 35.232 48.616 36.745 Z M 34.796 39.672 C 35.024 39.833 35.35 39.943 35.613 39.943 C 35.846 39.943 36.045 39.994 36.044 40.044 C 36.043 40.09 35.87 40.337 35.654 40.57 C 35.18 41.088 34.451 42.145 34.056 42.896 L 33.761 43.449 L 33.772 42.86 C 33.779 42.528 33.66 41.615 33.507 40.831 C 33.353 40.044 33.193 39.056 33.169 38.652 L 33.11 37.914 L 33.76 38.666 C 34.121 39.083 34.587 39.537 34.796 39.672 Z M 52.652 41.876 C 52.537 44.52 52.388 45.688 52.25 45.136 C 52.084 44.494 51.357 42.81 50.928 42.072 C 50.683 41.642 50.48 41.259 50.48 41.223 C 50.483 41.063 52.49 39.329 52.659 39.329 C 52.723 39.329 52.713 40.399 52.652 41.876 Z M 44.515 40.806 C 45.827 41.199 46.691 41.801 47.753 43.069 C 48.474 43.93 48.772 44.398 49.053 45.11 C 50.189 47.965 49.962 51.003 48.401 53.584 C 47.038 55.849 44.837 57.188 42.462 57.202 C 37.207 57.226 33.859 50.818 36.237 45.295 C 37.785 41.716 41.262 39.821 44.515 40.806 Z" style="stroke-width: 1.045;" bx:origin="-0.024 0"/>
  </g>
</svg>