<?xml version="1.0" encoding="utf-8"?>
<svg version="1.0" width="85px" height="85px" viewBox="0 0 85 85" preserveAspectRatio="xMidYMin" xmlns="http://www.w3.org/2000/svg" xmlns:bx="https://boxy-svg.com">
  <g transform="">
    <path d="M 21.259 63.729 L 0 42.47 L 21.235 21.235 L 42.47 0 L 63.741 21.271 L 85 42.53 L 63.765 63.765 L 42.53 85 L 21.259 63.729 Z M 60.429 24.583 L 42.47 6.625 L 24.548 24.548 L 6.625 42.47 L 24.571 60.417 L 42.53 78.375 L 60.452 60.452 L 78.375 42.53 L 60.429 24.583 Z" style="fill: rgb(238, 66, 55);" bx:origin="0 0"/>
    <path d="M 40.512 15.144 C 37.726 15.909 35.708 17.677 34.445 20.438 C 33.701 22.051 33.559 22.815 33.559 25.014 C 33.571 26.603 33.618 27.176 33.878 28.419 C 34.456 31.239 35.46 33.724 36.711 35.481 L 37.36 36.401 L 37.207 37.978 C 37.112 38.838 37.03 39.567 37.006 39.578 C 36.982 39.603 35.448 40.177 33.583 40.857 C 31.706 41.538 30.184 42.123 30.184 42.172 C 30.184 42.22 30.325 42.424 30.49 42.625 C 30.714 42.901 30.892 42.995 31.163 42.995 C 31.447 42.995 31.623 43.092 31.871 43.414 C 32.084 43.677 32.332 43.845 32.603 43.904 C 32.851 43.952 33.04 44.06 33.075 44.203 C 33.17 44.477 33.725 44.789 34.126 44.789 C 34.291 44.789 34.551 44.92 34.716 45.087 C 34.882 45.254 35.117 45.386 35.235 45.386 C 35.354 45.386 35.519 45.517 35.59 45.685 C 35.885 46.33 36.971 46.509 37.431 45.995 C 37.714 45.685 38.753 45.791 39.143 46.175 C 39.296 46.33 39.461 46.462 39.509 46.462 C 39.556 46.462 39.638 46.604 39.674 46.772 C 39.733 47.011 39.815 47.07 40.075 47.035 C 40.299 47.011 40.406 46.927 40.429 46.736 C 40.453 46.592 40.571 46.437 40.689 46.401 C 41.067 46.282 41.303 45.78 41.267 45.135 C 41.244 44.801 41.291 44.489 41.374 44.406 C 41.551 44.226 41.562 43.868 41.397 43.774 C 41.314 43.725 41.314 43.63 41.397 43.474 C 41.456 43.355 41.515 43.164 41.515 43.056 C 41.515 42.949 41.68 42.698 41.869 42.518 C 42.247 42.159 42.354 41.538 42.106 41.084 C 42.011 40.917 42.046 40.857 42.235 40.809 C 42.566 40.727 42.507 40.093 42.164 40.033 C 42.035 40.008 41.81 39.937 41.669 39.866 C 41.456 39.758 41.432 39.699 41.539 39.387 C 41.61 39.197 41.633 38.91 41.598 38.742 C 41.562 38.527 41.633 38.348 41.905 38.085 C 42.223 37.751 42.247 37.678 42.188 37.106 C 42.141 36.604 42.176 36.425 42.354 36.197 C 42.625 35.864 42.636 35.612 42.401 35.266 C 42.2 34.98 42.283 34.274 42.507 34.274 C 42.707 34.274 43.05 35.038 43.05 35.469 C 43.05 35.661 43.179 35.97 43.357 36.186 C 43.569 36.425 43.675 36.711 43.687 37.022 C 43.699 37.297 43.829 37.655 43.97 37.847 C 44.218 38.193 44.218 38.193 43.982 38.397 C 43.687 38.683 43.687 39.341 43.994 39.651 C 44.124 39.782 44.23 40.044 44.23 40.236 C 44.23 40.428 44.301 40.666 44.383 40.749 C 44.454 40.834 44.525 41.215 44.537 41.588 C 44.549 42.268 44.537 42.28 44.218 42.28 C 43.782 42.28 43.628 42.721 43.97 42.995 C 44.266 43.246 44.407 43.82 44.36 44.681 C 44.336 45.11 44.396 45.482 44.501 45.708 C 44.596 45.888 44.655 46.186 44.62 46.366 C 44.572 46.604 44.643 46.772 44.856 46.987 C 45.257 47.393 45.6 47.382 45.989 46.951 C 46.343 46.569 46.768 46.39 46.886 46.581 C 46.921 46.64 47.146 46.7 47.37 46.7 C 47.7 46.7 47.795 46.64 47.901 46.39 C 47.984 46.138 47.972 46.006 47.83 45.78 C 47.582 45.41 47.677 45.146 47.995 45.231 C 48.137 45.267 48.243 45.338 48.243 45.397 C 48.243 45.589 48.822 45.745 49.105 45.637 C 49.282 45.565 49.447 45.589 49.601 45.697 C 49.86 45.9 50.321 45.911 50.439 45.731 C 50.474 45.661 50.64 45.637 50.793 45.673 C 51.088 45.756 51.537 45.576 51.69 45.338 C 51.737 45.267 51.785 45.027 51.785 44.812 C 51.785 44.514 51.832 44.43 52.009 44.43 C 52.139 44.43 52.316 44.322 52.41 44.18 C 52.552 43.976 52.634 43.952 52.824 44.06 C 52.965 44.131 53.201 44.191 53.354 44.191 C 53.709 44.191 53.874 44 54.381 43.056 C 54.452 42.913 54.629 42.758 54.771 42.698 C 54.913 42.625 55.042 42.494 55.066 42.399 C 55.09 42.244 54.381 41.969 51.879 41.144 C 50.108 40.572 48.409 40.021 48.102 39.926 L 47.535 39.747 L 47.535 38.217 C 47.535 36.962 47.571 36.664 47.724 36.531 C 48.421 35.946 49.683 33.461 50.356 31.347 C 51.336 28.275 51.785 25.456 51.56 23.783 C 51.041 20.055 48.255 16.507 44.915 15.313 C 43.734 14.882 41.727 14.81 40.512 15.144 Z M 26.359 43.581 C 24.104 44.477 23.49 44.907 23.03 45.911 C 22.771 46.485 22.747 46.652 22.747 48.875 L 22.747 51.24 L 25.887 54.467 C 29.228 57.884 29.357 57.992 29.888 57.477 C 30.03 57.346 30.242 57.286 30.479 57.309 C 30.915 57.357 31.529 56.904 31.647 56.438 C 31.718 56.176 31.753 56.163 32.037 56.27 C 32.686 56.521 33.37 56.043 33.37 55.351 C 33.37 54.862 33.595 54.682 34.067 54.776 C 34.598 54.885 34.952 54.55 34.858 54.012 C 34.775 53.486 35.117 53.068 35.472 53.26 C 35.637 53.344 35.684 53.462 35.637 53.689 C 35.53 54.264 36.133 54.646 36.687 54.346 C 36.959 54.191 36.994 53.486 36.734 53.271 C 36.605 53.165 36.593 53.068 36.676 52.914 C 36.747 52.794 36.794 52.59 36.794 52.46 C 36.794 52.113 37.148 52.016 37.348 52.316 C 37.655 52.759 38.21 52.543 38.21 51.993 C 38.21 51.838 38.128 51.683 38.033 51.646 C 37.938 51.599 37.856 51.431 37.856 51.24 C 37.856 51.05 37.938 50.882 38.033 50.834 C 38.281 50.738 38.257 50.2 37.998 50.117 C 37.88 50.081 37.726 49.902 37.655 49.723 C 37.572 49.532 37.455 49.305 37.396 49.209 C 37.337 49.113 37.254 48.875 37.207 48.696 C 37.112 48.229 36.51 47.871 35.944 47.942 C 35.578 47.978 35.495 47.954 35.495 47.788 C 35.495 47.536 35.271 47.298 35.023 47.298 C 34.893 47.298 34.787 47.142 34.716 46.855 C 34.563 46.258 34.091 45.923 33.418 45.947 C 33.135 45.96 32.898 45.923 32.898 45.864 C 32.898 45.804 32.792 45.72 32.662 45.685 C 32.509 45.637 32.426 45.505 32.426 45.325 C 32.426 44.98 32.143 44.669 31.824 44.669 C 31.706 44.669 31.6 44.597 31.6 44.501 C 31.6 44.144 30.998 43.594 30.526 43.522 C 30.266 43.474 30.03 43.39 29.995 43.343 C 29.959 43.283 29.758 43.235 29.558 43.235 C 29.322 43.235 29.097 43.139 28.968 42.995 C 28.862 42.865 28.672 42.758 28.567 42.769 C 28.448 42.78 27.457 43.139 26.359 43.581 Z M 57.002 43.008 C 56.86 43.068 56.742 43.164 56.742 43.235 C 56.742 43.295 56.612 43.355 56.459 43.355 C 56.152 43.355 55.798 43.63 55.798 43.88 C 55.798 43.989 55.621 44.011 55.172 43.976 C 54.582 43.929 54.523 43.952 54.228 44.31 C 54.051 44.514 53.909 44.765 53.909 44.861 C 53.909 44.967 53.78 45.027 53.555 45.027 C 52.776 45.027 52.021 45.708 52.021 46.412 C 52.021 46.783 51.985 46.819 51.678 46.819 C 51.478 46.819 51.289 46.867 51.254 46.939 C 51.218 46.998 50.97 47.058 50.711 47.058 C 50.061 47.058 49.601 47.334 49.365 47.859 C 49.247 48.146 49.022 48.384 48.798 48.492 C 48.515 48.624 48.409 48.767 48.385 49.043 C 48.35 49.364 48.303 49.412 47.984 49.412 C 47.37 49.412 47.004 50.081 47.299 50.644 C 47.382 50.799 47.37 50.87 47.24 50.929 C 47.004 51.014 47.016 51.528 47.24 51.718 C 47.382 51.838 47.488 51.838 47.724 51.73 C 47.889 51.658 48.113 51.599 48.243 51.599 C 48.55 51.599 48.598 52.077 48.326 52.399 C 48.043 52.722 48.125 53.2 48.491 53.403 C 48.692 53.51 48.798 53.486 49.07 53.295 C 49.518 52.961 50.061 53.081 50.097 53.535 C 50.108 53.761 50.05 53.881 49.896 53.929 C 49.613 54.025 49.518 54.31 49.66 54.597 C 49.79 54.837 50.297 54.908 50.416 54.717 C 50.463 54.658 50.651 54.765 50.852 54.967 C 51.171 55.291 51.265 55.326 51.773 55.28 C 52.292 55.231 52.351 55.243 52.528 55.554 C 52.741 55.947 53.213 56.103 53.614 55.924 C 53.862 55.804 53.897 55.828 53.968 56.139 C 54.075 56.628 54.547 56.976 55.101 56.976 C 55.514 56.976 55.562 57.012 55.562 57.274 C 55.562 57.633 55.94 58.051 56.258 58.051 C 56.542 58.051 56.837 57.788 60.425 54.442 L 63.234 51.814 L 63.234 49.341 C 63.234 46.927 63.223 46.855 62.928 46.246 C 62.62 45.612 61.594 44.561 60.944 44.226 C 60.744 44.119 59.835 43.785 58.926 43.474 C 57.722 43.068 57.191 42.936 57.002 43.008 Z M 42.436 43.605 C 42.2 43.737 42.153 44.31 42.354 44.514 C 42.448 44.61 42.448 44.669 42.354 44.717 C 42.188 44.825 42.188 45.35 42.354 45.446 C 42.412 45.493 42.613 45.493 42.778 45.446 C 43.026 45.386 43.062 45.314 43.026 45.039 C 42.991 44.801 43.038 44.657 43.192 44.561 C 43.463 44.395 43.463 43.929 43.192 43.677 C 42.944 43.45 42.731 43.426 42.436 43.605 Z M 41.633 46.282 C 41.326 46.652 41.787 47.262 42.153 46.951 C 42.401 46.747 42.401 46.27 42.153 46.175 C 41.881 46.067 41.798 46.08 41.633 46.282 Z M 37.596 46.712 C 37.301 46.88 37.325 47.453 37.632 47.727 C 37.856 47.931 37.903 47.931 38.186 47.763 C 38.564 47.561 38.659 47.058 38.387 46.772 C 38.163 46.557 37.891 46.533 37.596 46.712 Z M 44.678 47.788 C 44.396 47.954 44.407 48.456 44.702 48.612 C 44.832 48.684 45.068 48.875 45.222 49.029 C 45.564 49.377 45.729 49.399 46.095 49.137 C 46.579 48.803 46.319 48.014 45.729 48.014 C 45.587 48.014 45.363 47.931 45.245 47.835 C 44.974 47.632 44.95 47.62 44.678 47.788 Z M 37.903 49.018 C 37.773 49.364 37.915 49.628 38.246 49.663 C 38.423 49.687 38.564 49.772 38.564 49.866 C 38.564 50.081 39.048 50.213 39.379 50.105 C 39.709 49.998 39.804 49.614 39.567 49.257 C 39.414 49.007 39.296 48.958 39.024 48.993 C 38.824 49.029 38.647 49.007 38.611 48.947 C 38.505 48.778 37.974 48.839 37.903 49.018 Z M 46.19 52.149 C 46.083 52.245 46.001 52.424 46.001 52.519 C 46.001 52.626 45.918 52.805 45.812 52.925 C 45.682 53.068 45.647 53.247 45.694 53.451 C 45.753 53.689 45.847 53.75 46.13 53.75 C 46.378 53.75 46.508 53.677 46.543 53.535 C 46.579 53.426 46.756 53.236 46.957 53.129 C 47.323 52.914 47.394 52.601 47.181 52.184 C 47.028 51.909 46.449 51.874 46.19 52.149 Z M 37.809 52.985 C 37.703 53.081 37.62 53.247 37.62 53.331 C 37.62 53.486 37.927 53.869 38.045 53.869 C 38.269 53.869 38.564 53.582 38.564 53.355 C 38.564 52.841 38.151 52.638 37.809 52.985 Z M 41.184 52.937 C 40.854 53.271 41.161 53.99 41.633 53.99 C 42.106 53.99 42.412 53.271 42.082 52.937 C 41.999 52.853 41.798 52.794 41.633 52.794 C 41.468 52.794 41.267 52.853 41.184 52.937 Z M 38.458 54.299 C 38.246 54.455 38.198 54.586 38.234 54.897 C 38.281 55.28 38.257 55.303 37.903 55.303 C 37.703 55.303 37.396 55.411 37.23 55.554 C 36.982 55.745 36.864 55.769 36.687 55.673 C 36.298 55.458 35.967 55.518 35.625 55.863 C 35.365 56.127 35.212 56.187 34.869 56.163 C 34.539 56.139 34.374 56.187 34.138 56.426 C 33.973 56.593 33.843 56.832 33.843 56.976 C 33.843 57.178 33.807 57.203 33.618 57.095 C 33.488 57.035 33.135 56.976 32.839 56.976 C 32.391 56.976 32.226 57.035 31.954 57.322 C 31.683 57.597 31.517 57.657 31.128 57.644 C 30.738 57.644 30.585 57.704 30.408 57.919 C 29.876 58.577 29.758 58.433 35.932 64.79 C 39.827 68.804 41.727 70.668 41.81 70.584 C 41.999 70.394 41.999 68.327 41.81 68.243 C 41.692 68.207 41.74 68.064 41.999 67.705 C 42.271 67.323 42.341 67.084 42.341 66.629 C 42.341 66.307 42.283 65.937 42.212 65.806 C 42.117 65.627 42.141 65.506 42.33 65.255 C 42.684 64.813 42.66 64.097 42.283 63.715 C 42.035 63.475 42.011 63.38 42.117 63.14 C 42.212 62.938 42.212 62.795 42.117 62.615 C 42.046 62.484 41.987 62.185 41.987 61.97 C 41.987 61.516 41.81 61.277 41.492 61.277 C 41.314 61.277 41.279 61.18 41.279 60.739 C 41.279 60.333 41.326 60.201 41.456 60.201 C 41.562 60.201 41.704 60.058 41.775 59.89 C 41.893 59.64 41.881 59.52 41.727 59.234 C 41.551 58.923 41.551 58.864 41.716 58.528 C 41.905 58.122 41.846 57.644 41.551 57.309 C 41.409 57.142 41.397 57.035 41.515 56.676 C 41.61 56.378 41.621 56.151 41.527 55.9 C 41.456 55.685 41.456 55.518 41.527 55.482 C 41.68 55.375 41.657 54.862 41.492 54.753 C 41.421 54.705 41.184 54.646 40.996 54.622 C 39.827 54.502 39.426 54.419 39.213 54.275 C 38.918 54.061 38.8 54.061 38.458 54.299 Z M 44.844 54.538 C 44.678 54.658 44.584 54.837 44.584 55.076 C 44.584 55.375 44.537 55.422 44.254 55.422 C 43.888 55.422 43.522 55.733 43.522 56.043 C 43.522 56.139 43.628 56.367 43.758 56.534 C 43.9 56.712 43.994 57.012 43.994 57.298 C 43.994 57.561 44.065 57.872 44.159 57.992 C 44.254 58.122 44.289 58.397 44.254 58.708 C 44.23 59.019 44.266 59.342 44.383 59.557 C 44.561 59.89 44.537 60.559 44.348 60.559 C 44.301 60.559 44.289 60.429 44.313 60.273 C 44.348 60.082 44.289 59.903 44.124 59.736 C 43.64 59.245 42.991 59.533 43.014 60.237 C 43.026 60.476 42.955 60.728 42.861 60.81 C 42.507 61.109 42.802 61.994 43.262 61.994 C 43.357 61.994 43.357 62.089 43.274 62.353 C 43.132 62.746 43.297 63.427 43.593 63.678 C 43.746 63.797 43.722 63.87 43.463 64.145 C 42.931 64.706 42.861 65.591 43.297 66.127 C 43.404 66.259 43.392 66.355 43.215 66.546 C 43.026 66.761 42.991 67.024 42.955 68.315 C 42.944 69.139 42.92 69.975 42.896 70.178 C 42.884 70.394 42.931 70.537 43.014 70.537 C 43.262 70.537 55.562 58.994 55.562 58.768 C 55.562 58.457 55.243 58.17 54.901 58.17 C 54.724 58.17 54.488 58.039 54.334 57.848 C 54.11 57.584 53.957 57.512 53.567 57.526 C 53.166 57.537 53.083 57.501 53.083 57.309 C 53.083 56.916 52.445 56.378 51.985 56.378 C 51.714 56.378 51.525 56.295 51.419 56.151 C 51.135 55.757 50.758 55.733 50.427 56.067 C 50.179 56.318 50.073 56.354 49.896 56.258 C 49.778 56.198 49.565 56.139 49.436 56.139 C 49.27 56.139 49.188 56.067 49.188 55.9 C 49.188 55.577 48.704 55.1 48.279 54.991 C 48.102 54.945 47.83 54.776 47.689 54.622 C 47.37 54.287 47.004 54.264 46.744 54.586 C 46.626 54.717 46.461 54.826 46.378 54.826 C 46.284 54.826 46.083 54.717 45.918 54.586 C 45.552 54.299 45.198 54.287 44.844 54.538 Z M 42.365 57.119 C 42.2 57.322 42.2 58.648 42.365 58.851 C 42.436 58.935 42.636 59.007 42.814 59.007 C 43.392 59.007 43.758 58.279 43.345 57.932 C 43.25 57.848 43.168 57.669 43.168 57.526 C 43.168 57.048 42.636 56.784 42.365 57.119 Z" style="stroke-width: 1;" bx:origin="0 0"/>
  </g>
</svg>