<?xml version="1.0" encoding="utf-8"?>
<svg version="1.0" width="85px" height="85px" viewBox="0 0 85 85" preserveAspectRatio="xMidYMin" xmlns="http://www.w3.org/2000/svg">
  <g>
    <path d="M 21.22 63.765 L 0 42.53 L 21.256 21.259 L 42.5 0 L 63.744 21.259 L 85 42.53 L 63.78 63.765 C 52.111 75.441 42.535 85 42.5 85 C 42.465 85 32.889 75.441 21.22 63.765 Z M 60.469 60.452 L 78.38 42.53 L 60.434 24.571 L 42.5 6.625 L 24.566 24.571 L 6.62 42.53 L 24.531 60.452 C 34.378 70.307 42.465 78.375 42.5 78.375 C 42.535 78.375 50.622 70.307 60.469 60.452 Z" style="fill: rgb(238, 66, 55);"/>
    <path d="M 40.148 21.254 C 39.026 21.521 37.475 22.241 36.698 22.847 C 35.944 23.431 31.593 28.222 31.183 28.927 C 30.89 29.425 30.869 29.536 30.869 30.618 C 30.869 31.65 30.911 31.871 31.215 32.71 C 31.404 33.221 31.844 34.121 32.179 34.715 L 32.798 35.798 L 32.704 36.649 C 32.651 37.111 32.609 37.973 32.6 38.558 C 32.6 39.701 32.725 40.224 33.186 40.916 C 33.333 41.137 33.416 41.318 33.375 41.318 C 33.333 41.318 32.777 41.026 32.127 40.661 C 30.869 39.957 30.491 39.566 29.652 38.133 C 28.95 36.941 28.059 36.345 26.978 36.332 C 26.486 36.332 26.256 36.394 25.983 36.613 C 25.564 36.929 25.154 37.804 25.154 38.363 C 25.154 38.667 25.06 38.85 24.776 39.154 C 24.128 39.834 24.001 40.271 24.001 41.768 C 24.001 43.348 24.158 43.75 24.914 44.139 C 25.522 44.456 25.91 44.382 27.23 43.739 C 28.027 43.336 28.321 43.252 28.657 43.301 C 28.93 43.336 30.293 44.067 32.264 45.222 C 34.014 46.255 35.461 47.117 35.482 47.154 C 35.492 47.191 35.545 47.387 35.576 47.592 L 35.65 47.97 L 32.861 49.502 C 30.816 50.632 29.967 51.045 29.674 51.045 C 29.453 51.045 28.93 50.899 28.499 50.717 C 27.408 50.268 25.961 50.243 25.228 50.668 C 24.158 51.277 23.697 52.15 23.896 53.16 C 24.022 53.805 24.441 54.268 25.364 54.791 C 25.794 55.034 26.182 55.289 26.224 55.351 C 26.256 55.41 26.318 55.714 26.36 56.018 C 26.475 56.991 26.622 57.466 26.905 57.867 C 27.503 58.682 28.657 58.937 29.527 58.45 C 30.041 58.16 30.795 57.234 30.88 56.772 C 31.278 54.645 31.372 54.559 34.979 52.602 L 37.821 51.058 L 38.911 51.702 C 40.494 52.627 41.627 53.027 42.528 52.966 C 43.147 52.93 43.419 52.822 44.604 52.164 C 45.348 51.739 46.114 51.264 46.292 51.106 L 46.628 50.803 L 49.647 52.481 C 53.433 54.571 53.453 54.596 53.883 56.59 C 54.02 57.223 54.69 58.123 55.278 58.45 C 56.294 59.022 57.647 58.572 58.13 57.489 C 58.203 57.32 58.319 56.797 58.392 56.311 C 58.465 55.836 58.56 55.387 58.591 55.326 C 58.623 55.264 59.011 55.022 59.45 54.779 C 59.912 54.523 60.395 54.147 60.583 53.903 C 60.866 53.526 60.908 53.382 60.908 52.772 C 60.908 51.836 60.615 51.351 59.744 50.803 C 58.759 50.195 57.857 50.157 56.494 50.668 C 55.938 50.874 55.32 51.045 55.12 51.045 C 54.859 51.045 54.009 50.644 52.405 49.757 C 51.115 49.052 49.763 48.31 49.407 48.115 C 49.039 47.92 48.746 47.689 48.746 47.604 C 48.746 47.372 55.624 43.372 56.148 43.301 C 56.494 43.252 56.767 43.336 57.543 43.739 C 58.811 44.382 59.346 44.468 59.954 44.09 C 60.647 43.677 60.804 43.239 60.804 41.707 C 60.804 40.271 60.635 39.737 60.018 39.167 C 59.723 38.887 59.65 38.739 59.65 38.4 C 59.65 37.804 59.251 36.941 58.822 36.613 C 58.151 36.09 56.913 36.285 55.97 37.074 C 55.802 37.207 55.341 37.828 54.942 38.45 C 54.544 39.081 54.061 39.726 53.862 39.895 C 53.569 40.162 51.503 41.354 50.748 41.696 C 50.518 41.804 50.528 41.78 50.831 41.379 C 51.419 40.6 51.608 40.016 51.661 38.861 C 51.681 38.278 51.65 37.366 51.587 36.831 L 51.461 35.871 L 52.027 34.85 C 52.342 34.302 52.719 33.56 52.866 33.232 C 53.484 31.797 53.674 30.095 53.306 29.281 C 52.929 28.442 48.798 24.015 47.205 22.752 C 45.233 21.171 42.664 20.622 40.148 21.254 Z M 44.289 22.653 C 45.275 22.945 46.512 23.736 47.498 24.696 C 49.343 26.483 51.744 29.014 52.049 29.475 C 52.426 30.047 52.457 30.789 52.154 31.834 L 51.954 32.502 L 51.87 31.65 C 51.765 30.606 51.492 29.949 50.811 29.086 L 50.287 28.416 L 49.888 28.866 L 49.49 29.317 L 49.951 29.936 C 50.843 31.105 50.895 31.567 50.465 33.9 C 50.203 35.348 50.203 35.361 50.381 36.357 C 50.475 36.918 50.559 37.828 50.57 38.4 C 50.592 40.115 50.34 40.443 47.54 42.413 C 45.622 43.763 45.391 44.09 45.391 45.599 C 45.391 46.244 45.37 46.303 45.003 46.655 C 44.793 46.862 44.31 47.178 43.933 47.361 C 43.346 47.641 43.084 47.689 42.245 47.689 C 41.365 47.689 41.166 47.653 40.505 47.324 C 40.095 47.117 39.582 46.803 39.373 46.606 C 39.004 46.278 38.994 46.255 38.994 45.478 C 38.994 44.479 38.722 43.774 38.177 43.348 C 37.967 43.179 37.18 42.619 36.425 42.097 C 34.035 40.443 33.899 40.248 33.919 38.4 C 33.919 37.73 34.003 36.918 34.109 36.466 C 34.308 35.627 34.287 35.372 33.951 33.719 C 33.564 31.797 33.721 30.861 34.632 29.693 C 34.895 29.342 35.115 29.026 35.115 28.964 C 35.115 28.759 34.644 28.308 34.433 28.308 C 34.13 28.308 33.333 29.304 32.955 30.143 C 32.704 30.715 32.661 30.946 32.661 31.919 C 32.651 32.539 32.64 33.05 32.62 33.05 C 32.526 33.05 32.075 31.639 31.959 31.007 C 31.834 30.314 31.844 30.265 32.106 29.742 C 32.253 29.438 32.935 28.599 33.616 27.87 C 34.297 27.14 35.377 25.961 36.018 25.256 C 36.94 24.235 37.359 23.857 37.956 23.529 C 38.858 23.03 39.949 22.642 40.829 22.472 C 41.668 22.325 43.514 22.409 44.289 22.653 Z M 27.388 37.684 C 27.891 37.84 28.384 38.339 28.96 39.287 C 29.925 40.856 30.376 41.21 33.7 42.959 C 34.57 43.422 35.336 43.846 35.408 43.909 C 35.545 44.029 35.598 45.573 35.461 45.573 C 35.408 45.573 34.056 44.795 32.442 43.846 L 29.506 42.12 L 28.635 42.071 C 27.797 42.024 27.733 42.036 26.791 42.521 C 26.245 42.79 25.71 43.02 25.584 43.02 C 25.259 43.02 25.05 42.558 25.05 41.816 C 25.05 41.171 25.06 41.16 25.218 41.415 C 25.396 41.707 25.867 41.78 26.078 41.537 C 26.161 41.44 26.203 40.93 26.203 40.042 C 26.203 38.583 26.329 37.866 26.601 37.684 C 26.832 37.524 26.905 37.524 27.388 37.684 Z M 58.182 37.67 C 58.476 37.852 58.602 38.545 58.602 40.042 C 58.602 40.93 58.643 41.44 58.728 41.537 C 58.937 41.78 59.409 41.707 59.588 41.415 C 59.744 41.16 59.755 41.171 59.755 41.816 C 59.755 42.558 59.545 43.02 59.22 43.02 C 59.105 43.02 58.57 42.801 58.024 42.535 C 57.165 42.109 56.935 42.047 56.243 42.047 L 55.445 42.047 L 52.143 43.98 C 49.92 45.282 48.82 45.866 48.788 45.756 C 48.756 45.672 48.746 45.294 48.767 44.906 L 48.798 44.201 L 51.513 42.741 C 54.534 41.111 54.932 40.782 55.928 39.154 C 56.452 38.29 56.893 37.852 57.406 37.67 C 57.826 37.524 57.951 37.524 58.182 37.67 Z M 37.086 44.078 C 37.767 44.564 37.841 44.711 37.841 45.537 C 37.841 45.963 37.905 46.486 37.988 46.705 C 38.356 47.75 40.116 48.82 41.826 49.041 C 42.999 49.197 44.834 48.516 45.79 47.58 C 46.398 46.973 46.544 46.595 46.544 45.634 C 46.544 44.76 46.69 44.468 47.372 44.067 L 47.697 43.859 L 47.697 45.489 C 47.697 46.997 47.676 47.154 47.414 47.776 C 47.247 48.164 46.837 48.772 46.407 49.258 C 45.811 49.94 45.443 50.218 44.353 50.84 C 43.105 51.556 42.989 51.594 42.298 51.581 C 41.469 51.581 40.106 51.045 39.037 50.304 C 38.271 49.782 37.338 48.723 36.94 47.944 C 36.646 47.361 36.636 47.265 36.603 45.599 C 36.563 43.739 36.572 43.714 37.086 44.078 Z M 51.335 50.644 C 54.932 52.616 55.025 52.649 56.578 52.017 C 57.7 51.569 58.381 51.532 59.032 51.872 C 59.933 52.335 60.069 52.871 59.398 53.356 C 58.937 53.671 58.916 53.671 58.916 53.197 C 58.916 52.979 58.863 52.736 58.79 52.649 C 58.612 52.444 58.13 52.468 57.973 52.675 C 57.909 52.772 57.689 53.77 57.49 54.889 C 57.291 55.994 57.102 56.967 57.07 57.027 C 56.956 57.246 56.358 57.466 56.064 57.405 C 55.907 57.368 55.613 57.174 55.404 56.956 C 55.099 56.652 54.995 56.42 54.869 55.788 C 54.491 53.903 54.052 53.465 50.454 51.483 C 48.913 50.619 47.624 49.902 47.603 49.878 C 47.55 49.818 48.127 48.978 48.231 48.978 C 48.284 48.978 49.679 49.719 51.335 50.644 Z M 36.887 50.074 C 36.887 50.108 35.682 50.79 34.214 51.581 C 30.816 53.427 30.344 53.879 29.936 55.714 C 29.716 56.663 29.527 56.979 28.982 57.259 C 28.563 57.478 28.489 57.478 28.143 57.32 C 27.944 57.223 27.733 57.016 27.671 56.857 C 27.619 56.7 27.429 55.739 27.251 54.705 C 27.084 53.671 26.885 52.76 26.821 52.675 C 26.675 52.468 26.182 52.455 26.014 52.649 C 25.941 52.736 25.888 52.979 25.888 53.197 C 25.888 53.682 25.836 53.682 25.333 53.294 C 24.893 52.942 24.84 52.649 25.185 52.298 C 25.91 51.52 26.726 51.447 28.195 52.017 C 29.79 52.638 29.894 52.616 33.333 50.706 L 36.206 49.124 L 36.552 49.563 C 36.741 49.807 36.887 50.037 36.887 50.074 Z M 35.23 35.834 C 34.906 36.211 34.863 36.625 35.062 37.341 C 35.304 38.217 35.87 39.191 36.384 39.579 C 37.002 40.053 37.926 40.115 38.574 39.713 C 39.162 39.349 40.316 37.646 40.42 36.989 C 40.505 36.478 40.42 36.272 40.001 35.92 C 39.739 35.687 39.54 35.664 37.579 35.627 C 35.545 35.592 35.43 35.603 35.23 35.834 Z M 44.614 35.725 C 44.196 35.871 43.819 36.32 43.819 36.663 C 43.819 37.306 44.845 39.056 45.559 39.605 C 46.103 40.042 47.006 40.103 47.634 39.737 C 48.474 39.275 49.186 38.023 49.333 36.783 C 49.396 36.296 49.364 36.197 49.134 35.92 L 48.86 35.603 L 46.889 35.616 C 45.811 35.616 44.783 35.675 44.614 35.725 Z M 41.616 40.916 C 41.344 41.245 41.154 41.634 40.987 42.231 C 40.85 42.692 40.651 43.239 40.546 43.422 C 40.253 43.909 40.18 44.673 40.4 44.954 C 40.651 45.282 41.249 45.355 41.762 45.136 C 42.476 44.819 42.654 44.808 42.926 45.015 C 43.325 45.318 44.153 45.271 44.426 44.93 C 44.73 44.564 44.719 44.212 44.395 43.652 C 44.258 43.409 44.048 42.899 43.933 42.521 C 43.493 41.014 43.084 40.467 42.423 40.467 C 42.087 40.467 41.941 40.552 41.616 40.916 Z" style="stroke-width: 0.514;"/>
  </g>
</svg>