<?xml version="1.0" encoding="UTF-8" standalone="no"?>
<svg
   xmlns:dc="http://purl.org/dc/elements/1.1/"
   xmlns:cc="http://creativecommons.org/ns#"
   xmlns:rdf="http://www.w3.org/1999/02/22-rdf-syntax-ns#"
   xmlns:svg="http://www.w3.org/2000/svg"
   xmlns="http://www.w3.org/2000/svg"
   xmlns:sodipodi="http://sodipodi.sourceforge.net/DTD/sodipodi-0.dtd"
   xmlns:inkscape="http://www.inkscape.org/namespaces/inkscape"
   width="24mm"
   height="24mm"
   viewBox="0 0 24 24"
   version="1.1"
   id="svg5"
   inkscape:version="1.0.2 (e86c870879, 2021-01-15)"
   sodipodi:docname="Aquatic- pollut-red.svg">
  <metadata
     id="metadata14">
    <rdf:RDF>
      <cc:Work
         rdf:about="">
        <dc:format>image/svg+xml</dc:format>
        <dc:type
           rdf:resource="http://purl.org/dc/dcmitype/StillImage" />
      </cc:Work>
    </rdf:RDF>
  </metadata>
  <sodipodi:namedview
     id="namedview7"
     pagecolor="#ffffff"
     bordercolor="#666666"
     borderopacity="1.0"
     inkscape:pageshadow="2"
     inkscape:pageopacity="0.0"
     inkscape:pagecheckerboard="0"
     inkscape:document-units="mm"
     showgrid="false"
     inkscape:zoom="0.46324355"
     inkscape:cx="372.95009"
     inkscape:cy="531.89629"
     inkscape:window-width="1360"
     inkscape:window-height="687"
     inkscape:window-x="0"
     inkscape:window-y="26"
     inkscape:window-maximized="1"
     inkscape:current-layer="layer1"
     inkscape:document-rotation="0" />
  <defs
     id="defs2" />
  <g
     inkscape:label="Capa 1"
     inkscape:groupmode="layer"
     id="layer1"
     transform="translate(-6.4159301,-7.4835312)">
    <g
       id="g827"
       transform="matrix(0.12598473,0,0,0.12588623,-10.942411,-7.6229221)">
      <path
         style="fill:#f6a9a4;stroke-width:0.264583"
         d="m 185.37899,263.18541 c -26.10627,-26.10506 -47.46594,-47.64225 -47.46594,-47.86041 0,-0.21816 21.35967,-21.75535 47.46594,-47.86041 l 47.46593,-47.46375 0.75438,0.54922 c 1.43075,1.04165 94.54918,94.38243 94.54918,94.77494 0,0.39251 -93.11843,93.73329 -94.54918,94.77494 l -0.75438,0.54923 z m 87.47157,-87.6802 -39.81936,-39.82001 -39.81979,39.81979 -39.81979,39.81979 39.81935,39.82001 39.81936,39.82001 39.81979,-39.81979 39.81979,-39.81979 z m -57.65038,73.42524 c -18.54059,-0.12609 -19.96762,-0.16796 -20.23614,-0.59372 -0.50158,-0.79528 0.37771,-1.27006 4.10614,-2.21715 4.34016,-1.10248 8.94862,-1.80177 10.37301,-1.574 0.95285,0.15237 1.84761,-0.1583 8.42422,-2.92505 4.04698,-1.70254 7.35815,-3.17673 7.35815,-3.27598 0,-0.0992 -0.29766,-0.31606 -0.66146,-0.48183 -0.49176,-0.22406 -0.66146,-0.50517 -0.66146,-1.09576 0,-0.89077 -0.0358,-0.87578 3.175,-1.33109 1.49918,-0.21259 2.71216,-0.63639 4.96094,-1.73327 2.86037,-1.39519 3.80414,-2.18021 2.24896,-1.87065 -0.40019,0.0796 -2.93026,0.45238 -5.6224,0.82827 -2.69214,0.37589 -5.09763,0.74317 -5.34555,0.81617 -0.24792,0.073 -1.11381,1.07897 -1.92419,2.23546 -0.81038,1.15651 -1.58319,2.10273 -1.71737,2.10273 -0.13417,0 -1.14157,-0.76284 -2.23867,-1.69519 -1.82191,-1.54834 -2.08105,-1.68519 -2.99124,-1.57964 -4.98906,0.57853 -9.21938,0.83134 -9.53453,0.56979 -0.8799,-0.73025 -0.22025,-1.35129 4.07038,-3.83213 l 4.26361,-2.46522 0.19231,-6.06832 c 0.10577,-3.33757 0.11488,-6.1936 0.0202,-6.34672 -0.11507,-0.1862 -3.2278,-0.2784 -9.39903,-0.2784 -9.06666,0 -9.22996,-0.009 -9.39895,-0.54186 -0.40649,-1.28073 -0.18865,-1.31022 9.67816,-1.31022 h 9.21246 l 0.0818,-3.24115 c 0.045,-1.78263 0.003,-3.42258 -0.094,-3.64433 -0.0967,-0.22176 -2.6566,-1.76916 -5.68865,-3.43868 l -5.51281,-3.03548 -1.71979,0.0557 c -0.94589,0.0306 -2.19605,0.0897 -2.77813,0.13139 -0.90664,0.0649 -1.06984,-0.005 -1.13859,-0.48689 -0.0941,-0.65983 1.18857,-1.84527 4.13857,-3.82474 3.0735,-2.06235 3.21523,-2.05578 8.3412,0.38658 l 3.13909,1.49568 -0.18251,-0.99641 c -0.10038,-0.54803 -0.49051,-1.68788 -0.86695,-2.533 -0.64632,-1.45097 -0.99897,-1.7867 -6.33003,-6.02603 l -5.64557,-4.48945 v -1.32446 c 0,-0.95335 0.11514,-1.36864 0.41093,-1.48215 0.2527,-0.097 2.39496,1.04095 5.56374,2.95533 2.83404,1.71216 5.21896,3.04687 5.29981,2.96602 0.24345,-0.24345 -0.39358,-4.76224 -0.86738,-6.15277 -0.24301,-0.71317 -1.43386,-3.08076 -2.64634,-5.26131 -1.21248,-2.18055 -2.20451,-4.23555 -2.20451,-4.56666 0,-0.67217 1.1077,-1.54718 1.68042,-1.32741 0.19887,0.0763 1.36064,1.694 2.58173,3.59486 1.22107,1.90086 2.29987,3.45886 2.39731,3.46222 0.0975,0.003 0.3743,-0.61897 0.61523,-1.38296 0.85095,-2.6984 0.93192,-2.82439 2.02584,-3.15213 1.57822,-0.47285 1.63829,-0.27835 1.16651,3.77635 -0.57155,4.91219 -0.52957,5.87692 0.38503,8.84813 0.43885,1.42566 1.45979,4.9814 2.26876,7.90165 0.80897,2.92024 1.51,5.34867 1.55785,5.39652 0.0478,0.0478 1.06167,-1.32037 2.25296,-3.04047 l 2.16599,-3.12745 -0.12979,-2.91041 c -0.0714,-1.60073 -0.28152,-5.65757 -0.46695,-9.01521 -0.18543,-3.35764 -0.26054,-6.30443 -0.16691,-6.54844 0.20542,-0.53531 1.83317,-0.6135 2.25253,-0.1082 0.15312,0.18449 0.5581,2.40814 0.89996,4.94144 0.34187,2.5333 0.73719,4.63731 0.87849,4.67557 0.1413,0.0383 2.09173,-2.06987 4.33429,-4.68475 2.24256,-2.61487 4.20709,-4.71164 4.36563,-4.65948 0.15853,0.0522 0.32335,0.68503 0.36625,1.40639 0.0756,1.27079 0.0134,1.3976 -2.002,4.08024 -2.77687,3.69628 -4.57815,6.39875 -5.55419,8.33296 -0.78295,1.55157 -0.80122,1.67196 -0.66345,4.37136 0.13048,2.5565 0.0874,2.91029 -0.54548,4.47707 -0.37793,0.93567 -0.64347,1.74491 -0.59008,1.7983 0.0534,0.0534 0.65371,-0.32782 1.33405,-0.84714 1.38978,-1.06084 1.5795,-1.11746 4.41993,-1.31916 3.17838,-0.2257 3.72736,-0.55719 7.74068,-4.674 1.97428,-2.02519 3.69366,-3.68216 3.82085,-3.68216 0.43893,0 0.88391,0.78835 0.70628,1.25126 -0.24967,0.65063 -6.72999,10.66434 -7.34551,11.35064 -0.31262,0.34858 -0.97828,0.62873 -1.74592,0.7348 -2.32725,0.32156 -3.03998,0.86459 -6.79955,5.18054 l -3.56924,4.09745 v 1.65724 1.65724 h 12.5671 12.56709 l 1.25739,-0.89431 c 1.8968,-1.34909 3.98181,-2.44503 5.81192,-3.05492 3.35344,-1.11753 7.57946,-1.29728 7.94755,-0.33804 0.0863,0.22485 -0.23617,1.16693 -0.71657,2.09349 -0.4804,0.92657 -0.82149,1.73663 -0.75797,1.80015 0.0635,0.0635 1.65643,-0.35787 3.5398,-0.93642 1.88338,-0.57855 3.58866,-0.99 3.78952,-0.91434 0.28144,0.10602 0.33542,0.57648 0.23534,2.05088 -0.31134,4.58678 -3.87845,10.52218 -8.59544,14.30214 -0.91972,0.73701 -1.64024,1.42616 -1.60116,1.53144 0.0391,0.10528 1.44027,1.17612 3.11376,2.37965 3.15503,2.26901 3.4964,2.57639 3.26931,2.94383 -0.0745,0.12046 -1.40605,0.85967 -2.95911,1.64269 -1.65933,0.83659 -2.66008,1.47878 -2.42686,1.55732 0.21828,0.0735 2.0636,0.274 4.10071,0.44553 2.03712,0.17153 3.79329,0.36715 3.90261,0.43471 0.42183,0.26071 0.15883,0.96924 -0.85013,2.29022 l -1.04888,1.37327 2.38224,0.13229 c 1.71685,0.0953 2.45353,0.24315 2.63744,0.52917 0.14035,0.21828 0.22494,1.52797 0.18799,2.91041 l -0.0672,2.51354 -19.31458,0.003 c -10.62303,0.002 -28.29085,-0.0577 -39.26184,-0.1323 z m 25.11536,-9.67391 c 0.91639,-1.38973 1.99935,-2.80715 2.40658,-3.14981 0.42407,-0.35683 2.69458,-1.27014 5.31412,-2.13758 10.3734,-3.43509 16.75381,-8.1319 20.11559,-14.80769 0.82171,-1.63174 1.67705,-4.3005 1.45082,-4.52673 -0.0921,-0.0921 -2.15043,0.44123 -4.57398,1.18526 -4.1196,1.26471 -4.87811,1.3955 -4.87811,0.84113 0,-0.12109 0.65954,-1.33445 1.46564,-2.69637 1.39434,-2.35575 1.43701,-2.48063 0.87716,-2.56716 -2.09669,-0.32406 -6.8021,1.58774 -10.16174,4.12869 -3.59513,2.71907 -6.4433,5.95618 -10.85261,12.33466 -3.15445,4.5632 -5.4749,6.4535 -10.39363,8.46694 -1.2001,0.49125 -2.18695,0.99193 -2.19301,1.11263 -0.0109,0.21706 8.89058,4.28407 9.46125,4.32277 0.16267,0.011 1.04554,-1.117 1.96192,-2.50674 z m 22.74983,-17.65082 c -0.36139,-0.18636 -0.77072,-0.66201 -0.90962,-1.05699 -0.20994,-0.59695 -0.14709,-0.8304 0.37245,-1.38344 1.17765,-1.25354 3.17861,-0.60068 3.17861,1.03711 0,0.48325 -0.1495,1.00271 -0.33221,1.15435 -0.58442,0.48502 -1.63239,0.59802 -2.30923,0.24897 z m -25.62418,8.33751 c 0.64655,-0.69122 1.93154,-2.38787 2.85554,-3.77031 2.18447,-3.26833 3.95823,-5.53123 6.07003,-7.74391 1.13134,-1.18538 1.62031,-1.87958 1.4464,-2.05349 -0.16772,-0.16772 -4.22752,-0.23773 -11.22673,-0.1936 l -10.964,0.0691 -0.0722,4.69198 -0.0722,4.69199 5.09931,2.54852 c 2.80463,1.40168 5.13901,2.6538 5.18751,2.78249 0.16541,0.43881 0.50048,0.23438 1.6764,-1.02279 z"
         id="path841" />
      <path
         style="fill:#f3847d;stroke-width:0.264583"
         d="m 185.40586,262.95009 -47.62455,-47.62509 47.62455,-47.62509 47.62454,-47.62509 47.62509,47.62509 47.6251,47.62509 -47.6251,47.62509 -47.62509,47.62509 z m 87.64281,-7.47424 c 21.86468,-21.86432 39.75397,-39.93191 39.75397,-40.15019 0,-0.43275 -79.33919,-79.90483 -79.77122,-79.90483 -0.43203,0 -79.77253,79.47077 -79.77253,79.90351 0,0.43275 79.33919,79.90483 79.77122,79.90483 0.14552,0 18.15387,-17.889 40.01856,-39.75332 z m -57.29169,-6.54388 c -17.78769,-0.11933 -20.48142,-0.18882 -20.69959,-0.53405 -0.55148,-0.87265 -0.19042,-1.11393 2.91608,-1.94869 4.27529,-1.14882 7.88633,-1.77515 10.6809,-1.85257 l 2.68056,-0.0743 7.05989,-3.01096 c 3.88293,-1.65603 6.99676,-3.1131 6.91961,-3.23793 -0.0771,-0.12484 -0.42637,-0.33575 -0.77603,-0.46869 -0.70005,-0.26616 -0.88104,-1.31903 -0.30503,-1.77439 0.1819,-0.1438 1.15826,-0.34273 2.16968,-0.44207 1.01143,-0.0993 2.61877,-0.48825 3.57188,-0.86424 2.73836,-1.08026 6.00581,-2.99152 5.12197,-2.99604 -0.11773,-5.3e-4 -2.83343,0.37088 -6.03489,0.8255 -3.78165,0.53702 -5.97931,0.9655 -6.27322,1.22311 -0.24882,0.21809 -0.94742,1.1563 -1.55244,2.08492 -0.66365,1.01861 -1.28477,1.6884 -1.56571,1.6884 -0.25612,0 -1.31861,-0.71438 -2.36108,-1.5875 -1.04248,-0.87313 -1.9798,-1.58215 -2.08294,-1.57561 -0.10314,0.007 -2.36821,0.22232 -5.0335,0.47952 -5.06942,0.48919 -5.775,0.41455 -5.56769,-0.58897 0.0558,-0.2701 1.83954,-1.469 4.32825,-2.90912 l 4.23333,-2.44967 0.20041,-4.21714 c 0.11023,-2.31942 0.16976,-5.16963 0.13229,-6.3338 l -0.0681,-2.11667 -9.26042,-0.13229 -9.26042,-0.13229 -0.0893,-0.63154 c -0.0491,-0.34734 0.07,-0.73247 0.26458,-0.85584 0.19464,-0.12337 4.41445,-0.22613 9.37737,-0.22836 l 9.02348,-0.004 0.14482,-3.35332 c 0.0796,-1.84433 0.0946,-3.48143 0.0332,-3.63802 -0.0614,-0.15659 -2.73601,-1.6994 -5.94359,-3.42847 l -5.83196,-3.14375 -1.7695,0.18505 c -2.94249,0.30772 -3.01182,0.30354 -3.32349,-0.20018 -0.25253,-0.40816 -0.13632,-0.62202 0.76023,-1.39897 2.10858,-1.82731 5.69719,-4.07234 6.50949,-4.07234 0.43244,0 2.4072,0.7739 4.38835,1.71979 1.98115,0.94588 3.6588,1.71979 3.72812,1.71979 0.27582,0 -0.24856,-2.19743 -0.84764,-3.55205 -0.58483,-1.3224 -1.06411,-1.77788 -6.01626,-5.71746 -2.95945,-2.35433 -5.52964,-4.46927 -5.71154,-4.69987 -0.47177,-0.59806 -0.43067,-2.67763 0.0566,-2.86462 0.22213,-0.0852 2.53693,1.15974 5.42681,2.91872 2.77171,1.68705 5.17367,3.06736 5.33769,3.06736 0.38135,0 0.10577,-3.29708 -0.45718,-5.46982 -0.22128,-0.85406 -1.45623,-3.4498 -2.76893,-5.82004 -1.30322,-2.35312 -2.36575,-4.49624 -2.36118,-4.7625 0.0112,-0.65449 1.28007,-1.56709 1.74157,-1.25261 0.19319,0.13164 1.31589,1.72763 2.49489,3.54664 1.179,1.81901 2.2773,3.30729 2.44066,3.30729 0.16336,0 0.52323,-0.7739 0.79972,-1.71979 0.27648,-0.94589 0.67604,-1.91449 0.88792,-2.15244 0.45247,-0.50818 1.94585,-0.86364 2.26933,-0.54016 0.12344,0.12345 0.0416,1.61931 -0.1819,3.32416 -0.61819,4.71588 -0.54227,6.53591 0.40002,9.5885 0.44349,1.43673 1.28406,4.33864 1.86792,6.44869 0.58387,2.11005 1.2376,4.46575 1.45273,5.23488 0.21512,0.76914 0.50136,1.33031 0.63607,1.24705 0.13472,-0.0833 1.15858,-1.46976 2.27526,-3.08113 l 2.03033,-2.92976 -0.15052,-3.47666 c -0.0828,-1.91217 -0.2956,-6.00282 -0.47293,-9.09034 -0.35349,-6.15488 -0.30812,-6.42487 1.07979,-6.42487 0.40092,0 0.84682,0.14882 0.99088,0.33073 0.14406,0.1819 0.53284,2.41432 0.86395,4.96093 0.33112,2.54662 0.6826,4.72183 0.78106,4.83382 0.0985,0.11198 2.01622,-1.94288 4.26167,-4.56637 2.41407,-2.8205 4.24485,-4.74107 4.47952,-4.69925 0.25951,0.0463 0.42423,0.44267 0.47591,1.14535 0.0861,1.1711 0.33211,0.75395 -3.8376,6.50811 -1.19409,1.64783 -2.68237,3.88902 -3.30729,4.98043 l -1.13623,1.98437 0.0812,2.9509 c 0.0754,2.74 0.0254,3.09455 -0.6993,4.96094 -0.42927,1.10552 -0.72107,2.01004 -0.64844,2.01004 0.0726,0 0.56591,-0.34088 1.09618,-0.7575 1.56903,-1.23278 2.55937,-1.62375 4.11295,-1.62375 3.71459,0 4.99403,-0.75049 9.15429,-5.36963 2.49806,-2.77362 3.50097,-3.40524 3.87194,-2.43851 0.17769,0.46304 -7.14312,11.93273 -7.86188,12.31739 -0.26026,0.13929 -0.69754,0.25325 -0.97173,0.25325 -0.2742,0 -1.10846,0.18113 -1.85393,0.4025 -1.26066,0.37438 -1.61534,0.69893 -5.0751,4.64398 l -3.71972,4.24147 v 1.70602 1.70603 h 12.58223 12.58222 l 1.58857,-1.07878 c 2.04219,-1.38683 4.96586,-2.76236 6.98136,-3.2846 1.83532,-0.47555 5.88709,-0.57099 6.30947,-0.14861 0.20425,0.20425 0.007,0.84912 -0.69473,2.26644 -0.60412,1.22091 -0.85414,1.97927 -0.65164,1.97656 0.18071,-0.002 1.81458,-0.46439 3.63082,-1.02658 1.81625,-0.56219 3.45336,-0.96419 3.63803,-0.89333 0.45881,0.17606 0.42668,1.98848 -0.0695,3.91925 -1.10585,4.30334 -4.16343,8.89135 -8.12758,12.1957 -0.98226,0.81878 -1.78594,1.57785 -1.78594,1.68683 0,0.10898 1.42875,1.22921 3.175,2.48938 1.74625,1.26018 3.175,2.47251 3.175,2.69407 0,0.25087 -1.04792,0.90341 -2.77812,1.7299 -2.74055,1.30913 -3.34796,1.81457 -2.18281,1.81634 0.94313,0.001 6.61844,0.52454 7.27604,0.67065 0.83933,0.1865 0.7484,0.61551 -0.47842,2.25722 l -1.07373,1.43685 2.25229,0.13229 c 1.32697,0.0779 2.39313,0.27333 2.59509,0.47558 0.23352,0.23386 0.34279,1.16157 0.34279,2.91041 v 2.56713 l -18.78542,0.005 c -10.33198,0.003 -27.98737,-0.0568 -39.2342,-0.13229 z m 24.81175,-9.9228 c 1.02369,-1.52578 2.13944,-2.95643 2.47945,-3.17921 0.34,-0.22278 2.79867,-1.12578 5.4637,-2.00667 5.4505,-1.80158 7.28644,-2.6528 10.82108,-5.01707 3.06839,-2.05242 5.9428,-4.86705 7.66573,-7.50632 1.91171,-2.92845 3.26257,-6.76891 2.38076,-6.76846 -0.20094,1e-4 -2.09176,0.53384 -4.20181,1.18609 -3.91625,1.21057 -4.63208,1.35546 -4.86164,0.98402 -0.0717,-0.11602 0.51658,-1.31204 1.3073,-2.65782 0.79072,-1.34578 1.43767,-2.51823 1.43767,-2.60544 0,-0.0872 -0.74999,-0.0885 -1.66666,-0.003 -6.24537,0.5832 -12.82908,5.96319 -19.85961,16.22865 -3.13619,4.57922 -5.72057,6.66107 -10.83211,8.72579 -1.13498,0.45846 -2.12188,0.89184 -2.19311,0.96307 -0.14903,0.14903 9.38217,4.42326 9.87318,4.42759 0.17865,0.002 1.16238,-1.24551 2.18607,-2.7713 z m 21.96308,-17.86334 c -0.70437,-0.70436 -0.66704,-1.20909 0.14983,-2.02596 0.54916,-0.54916 0.84007,-0.64737 1.52135,-0.51358 2.17217,0.42657 1.91133,3.06871 -0.30295,3.06871 -0.48629,0 -1.06155,-0.22249 -1.36823,-0.52917 z m -25.68222,9.53756 c 0.39904,-0.28414 1.899,-2.21234 3.33326,-4.28489 2.60289,-3.76127 5.66512,-7.60239 7.23278,-9.07248 0.45577,-0.42741 0.82868,-0.87389 0.82868,-0.99219 0,-0.11829 -5.11969,-0.21508 -11.37709,-0.21508 h -11.37708 v 4.76118 4.76117 l 5.00566,2.50547 c 2.75311,1.378 5.08186,2.62876 5.17499,2.77945 0.23158,0.3747 0.34448,0.35146 1.1788,-0.24263 z"
         id="path839" />
      <path
         style="fill:#a0a1a1;stroke-width:0.264583"
         d="m 185.53777,262.88385 -47.49299,-47.55885 47.49299,-47.55885 47.49299,-47.55886 47.49282,47.55886 47.49282,47.55885 -47.49282,47.55885 -47.49282,47.55886 z m 87.64145,-7.27484 c 21.9384,-21.93661 39.88801,-40.06441 39.88801,-40.28401 0,-0.4316 -79.60557,-80.16875 -80.03647,-80.16875 -0.43089,0 -80.03646,79.73715 -80.03646,80.16875 0,0.4316 79.60557,80.16875 80.03646,80.16875 0.14325,0 18.21005,-17.94813 40.14846,-39.88474 z m -57.42224,-6.67704 c -17.78769,-0.11933 -20.48142,-0.18882 -20.69959,-0.53405 -0.55148,-0.87265 -0.19042,-1.11393 2.91608,-1.94869 4.27529,-1.14882 7.88633,-1.77515 10.6809,-1.85257 l 2.68056,-0.0743 7.05989,-3.01096 c 3.88293,-1.65603 6.99676,-3.1131 6.91961,-3.23793 -0.0771,-0.12484 -0.42637,-0.33575 -0.77603,-0.46869 -0.70005,-0.26616 -0.88104,-1.31903 -0.30503,-1.77439 0.1819,-0.1438 1.15826,-0.34273 2.16968,-0.44207 1.01143,-0.0993 2.61877,-0.48825 3.57188,-0.86424 2.73836,-1.08026 6.00581,-2.99152 5.12197,-2.99604 -0.11773,-5.3e-4 -2.83343,0.37088 -6.03489,0.8255 -3.78165,0.53702 -5.97931,0.9655 -6.27322,1.22311 -0.24882,0.21809 -0.94742,1.1563 -1.55244,2.08492 -0.66365,1.01861 -1.28477,1.6884 -1.56571,1.6884 -0.25612,0 -1.31861,-0.71438 -2.36108,-1.5875 -1.04248,-0.87313 -1.9798,-1.58215 -2.08294,-1.57561 -0.10314,0.007 -2.36821,0.22232 -5.0335,0.47952 -5.06942,0.48919 -5.775,0.41455 -5.56769,-0.58897 0.0558,-0.2701 1.83954,-1.469 4.32825,-2.90912 l 4.23333,-2.44967 0.20041,-4.21714 c 0.11023,-2.31942 0.16976,-5.16963 0.13229,-6.3338 l -0.0681,-2.11667 -9.26042,-0.13229 -9.26042,-0.13229 -0.0893,-0.63154 c -0.0491,-0.34734 0.07,-0.73247 0.26458,-0.85584 0.19464,-0.12337 4.41445,-0.22613 9.37737,-0.22836 l 9.02348,-0.004 0.14482,-3.35332 c 0.0796,-1.84433 0.0946,-3.48143 0.0332,-3.63802 -0.0614,-0.15659 -2.73601,-1.6994 -5.94359,-3.42847 l -5.83196,-3.14375 -1.7695,0.18505 c -2.94249,0.30772 -3.01182,0.30354 -3.32349,-0.20018 -0.25253,-0.40816 -0.13632,-0.62202 0.76023,-1.39897 2.10858,-1.82731 5.69719,-4.07234 6.50949,-4.07234 0.43244,0 2.4072,0.7739 4.38835,1.71979 1.98115,0.94588 3.6588,1.71979 3.72812,1.71979 0.27582,0 -0.24856,-2.19743 -0.84764,-3.55205 -0.58483,-1.3224 -1.06411,-1.77788 -6.01626,-5.71746 -2.95945,-2.35433 -5.52964,-4.46927 -5.71154,-4.69987 -0.47177,-0.59806 -0.43067,-2.67763 0.0566,-2.86462 0.22213,-0.0852 2.53693,1.15974 5.42681,2.91872 2.77171,1.68705 5.17367,3.06736 5.33769,3.06736 0.38135,0 0.10577,-3.29708 -0.45718,-5.46982 -0.22128,-0.85406 -1.45623,-3.4498 -2.76893,-5.82004 -1.30322,-2.35312 -2.36575,-4.49624 -2.36118,-4.7625 0.0112,-0.65449 1.28007,-1.56709 1.74157,-1.25261 0.19319,0.13164 1.31589,1.72763 2.49489,3.54664 1.179,1.81901 2.2773,3.30729 2.44066,3.30729 0.16336,0 0.52323,-0.7739 0.79972,-1.71979 0.27648,-0.94589 0.67604,-1.91449 0.88792,-2.15244 0.45247,-0.50818 1.94585,-0.86364 2.26933,-0.54016 0.12344,0.12345 0.0416,1.61931 -0.1819,3.32416 -0.61819,4.71588 -0.54227,6.53591 0.40002,9.5885 0.44349,1.43673 1.28406,4.33864 1.86792,6.44869 0.58387,2.11005 1.2376,4.46575 1.45273,5.23488 0.21512,0.76914 0.50136,1.33031 0.63607,1.24705 0.13472,-0.0833 1.15858,-1.46976 2.27526,-3.08113 l 2.03033,-2.92976 -0.15052,-3.47666 c -0.0828,-1.91217 -0.2956,-6.00282 -0.47293,-9.09034 -0.35349,-6.15488 -0.30812,-6.42487 1.07979,-6.42487 0.40092,0 0.84682,0.14882 0.99088,0.33073 0.14406,0.1819 0.53284,2.41432 0.86395,4.96093 0.33112,2.54662 0.6826,4.72183 0.78106,4.83382 0.0985,0.11198 2.01622,-1.94288 4.26167,-4.56637 2.41407,-2.8205 4.24485,-4.74107 4.47952,-4.69925 0.25951,0.0463 0.42423,0.44267 0.47591,1.14535 0.0861,1.1711 0.33211,0.75395 -3.8376,6.50811 -1.19409,1.64783 -2.68237,3.88902 -3.30729,4.98043 l -1.13623,1.98437 0.0812,2.9509 c 0.0754,2.74 0.0254,3.09455 -0.6993,4.96094 -0.42927,1.10552 -0.72107,2.01004 -0.64844,2.01004 0.0726,0 0.56591,-0.34088 1.09618,-0.7575 1.56903,-1.23278 2.55937,-1.62375 4.11295,-1.62375 3.71459,0 4.99403,-0.75049 9.15429,-5.36963 2.49806,-2.77362 3.50097,-3.40524 3.87194,-2.43851 0.17769,0.46304 -7.14312,11.93273 -7.86188,12.31739 -0.26026,0.13929 -0.69754,0.25325 -0.97173,0.25325 -0.2742,0 -1.10846,0.18113 -1.85393,0.4025 -1.26066,0.37438 -1.61534,0.69893 -5.0751,4.64398 l -3.71972,4.24147 v 1.70602 1.70603 h 12.58223 12.58222 l 1.58857,-1.07878 c 2.04219,-1.38683 4.96586,-2.76236 6.98136,-3.2846 1.83532,-0.47555 5.88709,-0.57099 6.30947,-0.14861 0.20425,0.20425 0.007,0.84912 -0.69473,2.26644 -0.60412,1.22091 -0.85414,1.97927 -0.65164,1.97656 0.18071,-0.002 1.81458,-0.46439 3.63082,-1.02658 1.81625,-0.56219 3.45336,-0.96419 3.63803,-0.89333 0.45881,0.17606 0.42668,1.98848 -0.0695,3.91925 -1.10585,4.30334 -4.16343,8.89135 -8.12758,12.1957 -0.98226,0.81878 -1.78594,1.57785 -1.78594,1.68683 0,0.10898 1.42875,1.22921 3.175,2.48938 1.74625,1.26018 3.175,2.47251 3.175,2.69407 0,0.25087 -1.04792,0.90341 -2.77812,1.7299 -2.74055,1.30913 -3.34796,1.81457 -2.18281,1.81634 0.94313,0.001 6.61844,0.52454 7.27604,0.67065 0.83933,0.1865 0.7484,0.61551 -0.47842,2.25722 l -1.07373,1.43685 2.25229,0.13229 c 1.32697,0.0779 2.39313,0.27333 2.59509,0.47558 0.23352,0.23386 0.34279,1.16157 0.34279,2.91041 v 2.56713 l -18.78542,0.005 c -10.33198,0.003 -27.98737,-0.0568 -39.2342,-0.13229 z m 24.81175,-9.9228 c 1.02369,-1.52578 2.13944,-2.95643 2.47945,-3.17921 0.34,-0.22278 2.79867,-1.12578 5.4637,-2.00667 5.4505,-1.80158 7.28644,-2.6528 10.82108,-5.01707 3.06839,-2.05242 5.9428,-4.86705 7.66573,-7.50632 1.91171,-2.92845 3.26257,-6.76891 2.38076,-6.76846 -0.20094,1e-4 -2.09176,0.53384 -4.20181,1.18609 -3.91625,1.21057 -4.63208,1.35546 -4.86164,0.98402 -0.0717,-0.11602 0.51658,-1.31204 1.3073,-2.65782 0.79072,-1.34578 1.43767,-2.51823 1.43767,-2.60544 0,-0.0872 -0.74999,-0.0885 -1.66666,-0.003 -6.24537,0.5832 -12.82908,5.96319 -19.85961,16.22865 -3.13619,4.57922 -5.72057,6.66107 -10.83211,8.72579 -1.13498,0.45846 -2.12188,0.89184 -2.19311,0.96307 -0.14903,0.14903 9.38217,4.42326 9.87318,4.42759 0.17865,0.002 1.16238,-1.24551 2.18607,-2.7713 z m 21.96308,-17.86334 c -0.70437,-0.70436 -0.66704,-1.20909 0.14983,-2.02596 0.54916,-0.54916 0.84007,-0.64737 1.52135,-0.51358 2.17217,0.42657 1.91133,3.06871 -0.30295,3.06871 -0.48629,0 -1.06155,-0.22249 -1.36823,-0.52917 z m -25.68222,9.53756 c 0.39904,-0.28414 1.899,-2.21234 3.33326,-4.28489 2.60289,-3.76127 5.66512,-7.60239 7.23278,-9.07248 0.45577,-0.42741 0.82868,-0.87389 0.82868,-0.99219 0,-0.11829 -5.11969,-0.21508 -11.37709,-0.21508 h -11.37708 v 4.76118 4.76117 l 5.00566,2.50547 c 2.75311,1.378 5.08186,2.62876 5.17499,2.77945 0.23158,0.3747 0.34448,0.35146 1.1788,-0.24263 z"
         id="path837" />
      <path
         style="fill:#f05e55;stroke-width:0.264583"
         d="m 185.53777,262.88385 -47.49299,-47.55885 47.49299,-47.55885 47.49299,-47.55886 47.49282,47.55886 47.49282,47.55885 -47.49282,47.55885 -47.49282,47.55886 z m 87.64145,-7.27484 c 21.9384,-21.93661 39.88801,-40.06441 39.88801,-40.28401 0,-0.4316 -79.60557,-80.16875 -80.03647,-80.16875 -0.43089,0 -80.03646,79.73715 -80.03646,80.16875 0,0.4316 79.60557,80.16875 80.03646,80.16875 0.14325,0 18.21005,-17.94813 40.14846,-39.88474 z m -39.74643,-6.99232 c -24.74109,-0.15419 -37.78993,-0.32688 -37.9655,-0.50245 -0.43006,-0.43006 0.23547,-0.68717 4.35827,-1.68365 4.89626,-1.18344 7.08098,-1.51847 9.39097,-1.4401 1.83131,0.0621 1.94215,0.0252 9.12986,-3.04286 4.00182,-1.70816 7.3951,-3.23016 7.54062,-3.38221 0.17861,-0.18664 0.10394,-0.37504 -0.2298,-0.5798 -1.98965,-1.22072 -1.77041,-1.65212 1.03622,-2.03903 3.48807,-0.48085 8.10218,-2.74195 10.63797,-5.21304 0.70739,-0.68934 2.04374,-2.38444 2.96968,-3.76688 2.42831,-3.62553 4.6249,-6.4621 6.67712,-8.62256 0.9874,-1.03948 1.79527,-2.02618 1.79527,-2.19267 0,-0.22375 -3.0886,-0.28476 -11.8401,-0.23385 l -11.84011,0.0689 -0.0724,4.72788 c -0.0526,3.43535 0.0163,4.83469 0.25188,5.11858 0.17834,0.2149 2.4731,1.46751 5.09946,2.7836 3.87479,1.94168 4.67542,2.43443 4.24604,2.6132 -0.29105,0.12117 -3.00482,0.57043 -6.03062,0.99835 -3.02579,0.42792 -5.68745,0.93242 -5.9148,1.1211 -0.22734,0.18868 -0.86456,1.00749 -1.41604,1.81958 -1.61804,2.38267 -1.5276,2.37063 -3.70386,0.49292 l -1.90542,-1.64402 -3.87609,0.32291 c -2.13185,0.17759 -4.50117,0.39345 -5.26516,0.47968 -1.24103,0.14008 -1.38879,0.10356 -1.38654,-0.34267 0.002,-0.36648 1.08494,-1.11568 4.06836,-2.8142 2.23621,-1.27312 4.18738,-2.46374 4.33593,-2.64583 0.2177,-0.26685 0.51095,-10.6492 0.35863,-12.69697 -0.0317,-0.4257 -0.72277,-0.46477 -9.36075,-0.52917 -8.08299,-0.0602 -9.32656,-0.12244 -9.32656,-0.4664 0,-0.34374 1.21905,-0.4062 9.10526,-0.46655 6.2902,-0.0481 9.21676,-0.1622 9.46588,-0.36896 0.27968,-0.23211 0.3442,-1.12662 0.28745,-3.9852 l -0.0732,-3.6859 -5.78557,-3.16432 c -6.33457,-3.46459 -7.12521,-3.7218 -9.38109,-3.05188 -1.27435,0.37844 -1.40856,0.37757 -1.55733,-0.0101 -0.10817,-0.28187 0.14018,-0.67714 0.73997,-1.17777 1.56046,-1.30247 5.10756,-3.61969 5.79757,-3.78738 0.48586,-0.11807 1.64481,0.30464 4.36562,1.5923 4.68793,2.21862 4.63021,2.20182 4.63021,1.34763 0,-0.81984 -1.07373,-3.85651 -1.70344,-4.81756 -0.2487,-0.37957 -2.88328,-2.6157 -5.85462,-4.96918 l -5.40245,-4.27906 -0.002,-1.12448 c -0.001,-0.61846 0.10027,-1.12448 0.22532,-1.12448 0.12505,0 2.47654,1.36792 5.22552,3.03983 2.74899,1.6719 5.14699,3.04112 5.32889,3.04271 0.38584,0.003 0.41402,-0.16987 0.34388,-2.11379 -0.11048,-3.0617 -0.71408,-4.97044 -2.75585,-8.71479 -3.22914,-5.92183 -3.13742,-5.70162 -2.58365,-6.20278 0.26027,-0.23554 0.58291,-0.42825 0.71697,-0.42825 0.13407,0 1.24046,1.54522 2.45865,3.43381 1.21819,1.88859 2.36845,3.56125 2.55613,3.71701 0.44255,0.36728 0.59497,0.11446 1.43902,-2.3869 0.5543,-1.64268 0.79309,-2.02569 1.39156,-2.23207 0.39735,-0.13702 0.7984,-0.17318 0.89123,-0.0803 0.0928,0.0928 0.0148,1.39492 -0.1734,2.89353 -0.67946,5.41041 -0.56129,6.44765 1.57651,13.83725 1.05248,3.63802 2.0875,7.23966 2.30007,8.00365 0.21577,0.77551 0.54015,1.38906 0.73439,1.38906 0.19135,0 1.39719,-1.54089 2.67964,-3.4242 l 2.33173,-3.4242 -0.18203,-2.99195 c -0.10012,-1.64557 -0.29283,-4.53975 -0.42825,-6.43153 -0.13541,-1.89177 -0.25063,-4.65997 -0.25604,-6.15156 l -0.01,-2.71198 h 0.78176 c 0.90189,0 0.77569,-0.45207 1.62487,5.82084 0.56962,4.20782 0.6359,4.49791 1.02771,4.49791 0.12545,0 1.88981,-1.93476 3.9208,-4.29948 2.03098,-2.36471 3.94536,-4.52629 4.25419,-4.8035 l 0.5615,-0.50403 v 1.04542 c 0,0.86878 -0.26255,1.38783 -1.55388,3.07201 -2.51554,3.28081 -5.29767,7.48782 -6.13487,9.27689 -0.73962,1.58053 -0.76437,1.74486 -0.48768,3.23834 0.16031,0.86532 0.22239,2.07938 0.13796,2.6979 -0.12362,0.90552 -1.01597,3.47811 -1.92727,5.55614 -0.25279,0.57642 0.58842,0.35698 1.22366,-0.3192 1.53674,-1.63579 2.56668,-2.08465 5.56885,-2.42699 1.57602,-0.17972 3.26215,-0.52685 3.74696,-0.77142 0.48482,-0.24456 2.44094,-2.05653 4.34694,-4.02659 2.23355,-2.30862 3.53409,-3.47089 3.65852,-3.26955 0.22279,0.36048 -0.0948,0.90895 -4.14959,7.1669 l -2.99441,4.62138 -1.48935,0.29835 c -2.64311,0.52947 -2.99267,0.79696 -6.97871,5.3404 l -3.81505,4.34854 v 1.7999 c 0,1.39719 0.0936,1.83583 0.41852,1.96049 0.23018,0.0883 5.98053,0.1606 12.77855,0.1606 h 12.36004 l 1.83968,-1.21436 c 3.72732,-2.46039 6.54708,-3.48981 10.23363,-3.73602 2.88092,-0.1924 3.00637,-0.007 1.68407,2.48273 -0.52245,0.98388 -0.9499,1.88207 -0.9499,1.99598 0,0.36494 0.66065,0.2294 4.2086,-0.8634 1.91153,-0.58877 3.60145,-0.99265 3.7554,-0.89751 0.62878,0.38861 -0.44211,4.68054 -1.87522,7.51553 -1.46373,2.89556 -5.11241,7.12434 -7.5998,8.8081 -0.48209,0.32633 -0.84423,0.76925 -0.80475,0.98426 0.0395,0.21502 1.43987,1.37904 3.112,2.58671 1.67212,1.20767 3.0734,2.34356 3.11394,2.5242 0.0428,0.19055 -1.20687,0.92435 -2.97656,1.74787 -1.71141,0.7964 -3.05028,1.57823 -3.05028,1.78122 0,0.19898 0.14883,0.3633 0.33073,0.36516 0.23454,0.002 7.81215,0.69218 8.59896,0.78275 0.24611,0.0283 -0.0753,0.63084 -0.99219,1.8597 -0.58208,0.78017 -1.05833,1.57127 -1.05833,1.75799 0,0.2479 0.69609,0.35995 2.57969,0.41524 l 2.57968,0.0757 v 2.51354 2.51354 l -1.05833,0.0284 c -0.58208,0.0156 -18.02242,-0.0773 -38.75631,-0.20652 z m 7.30544,-9.21656 c 1.03764,-1.5269 2.22827,-2.98388 2.64583,-3.23775 0.41756,-0.25387 2.78327,-1.13233 5.25712,-1.95212 5.42564,-1.79796 8.92104,-3.53125 12.38855,-6.14318 4.73364,-3.56564 8.40174,-8.80642 9.06445,-12.95075 0.15082,-0.94314 0.10893,-1.11425 -0.27279,-1.11425 -0.24803,0 -2.28442,0.55852 -4.52531,1.24115 -2.24088,0.68263 -4.14967,1.16581 -4.24175,1.07374 -0.0921,-0.0921 0.44883,-1.2443 1.20203,-2.56048 0.75319,-1.31619 1.29486,-2.51374 1.20371,-2.66124 -0.2275,-0.36809 -1.25737,-0.32939 -3.41864,0.12848 -6.01987,1.2753 -12.22162,6.5617 -18.4365,15.71533 -2.25254,3.31767 -3.7778,4.98237 -5.89608,6.4351 -1.81361,1.24378 -5.07617,2.80431 -6.77913,3.24256 -0.67694,0.17421 -1.19062,0.46158 -1.19062,0.66607 0,0.38816 10.0365,5.01271 10.71562,4.93747 0.21828,-0.0242 1.24586,-1.29324 2.28351,-2.82013 z m 22.20935,-18.40549 c -0.85758,-0.85758 -0.32707,-1.96547 0.94116,-1.96547 0.75888,0 1.55348,0.5977 1.55348,1.16851 0,0.5035 -0.89086,1.21274 -1.52328,1.21274 -0.30557,0 -0.74268,-0.1871 -0.97136,-0.41578 z"
         id="path835" />
      <path
         style="fill:#ee4237;stroke-width:0.264583"
         d="m 232.84886,310.12968 c 0.191,-0.0764 0.4192,-0.067 0.50712,0.0209 0.0879,0.0879 -0.0683,0.15046 -0.34726,0.13897 -0.30823,-0.0127 -0.37092,-0.0754 -0.15986,-0.15985 z m -47.3108,-47.57655 -47.22758,-47.22813 47.22758,-47.22813 c 25.97516,-25.97546 47.34688,-47.22812 47.4927,-47.22812 0.14583,0 21.51755,21.25266 47.49271,47.22812 l 47.22758,47.22813 -47.22758,47.22813 c -25.97516,25.97546 -47.34688,47.22812 -47.49271,47.22812 -0.14582,0 -21.51754,-21.25266 -47.4927,-47.22812 z m 87.90748,-6.94499 c 21.93745,-21.93709 39.88627,-40.0642 39.88627,-40.28248 0,-0.62548 -79.67389,-80.16941 -80.30039,-80.16941 -0.6265,0 -80.3017,79.54263 -80.3017,80.16809 0,0.62548 79.67389,80.16941 80.30039,80.16941 0.35043,0 14.00115,-13.47176 40.41543,-39.88561 z m -40.01275,-6.99145 c -24.74109,-0.15419 -37.78993,-0.32688 -37.9655,-0.50245 -0.43006,-0.43006 0.23547,-0.68717 4.35827,-1.68365 4.89626,-1.18344 7.08098,-1.51847 9.39097,-1.4401 1.83131,0.0621 1.94215,0.0252 9.12986,-3.04286 4.00182,-1.70816 7.3951,-3.23016 7.54062,-3.38221 0.17861,-0.18664 0.10394,-0.37504 -0.2298,-0.5798 -1.98965,-1.22072 -1.77041,-1.65212 1.03622,-2.03903 3.48807,-0.48085 8.10218,-2.74195 10.63797,-5.21304 0.70739,-0.68934 2.04374,-2.38444 2.96968,-3.76688 2.42831,-3.62553 4.6249,-6.4621 6.67712,-8.62256 0.9874,-1.03948 1.79527,-2.02618 1.79527,-2.19267 0,-0.22375 -3.0886,-0.28476 -11.8401,-0.23385 l -11.84011,0.0689 -0.0724,4.72788 c -0.0526,3.43535 0.0163,4.83469 0.25188,5.11858 0.17834,0.2149 2.4731,1.46751 5.09946,2.7836 3.87479,1.94168 4.67542,2.43443 4.24604,2.6132 -0.29105,0.12117 -3.00482,0.57043 -6.03062,0.99835 -3.02579,0.42792 -5.68745,0.93242 -5.9148,1.1211 -0.22734,0.18868 -0.86456,1.00749 -1.41604,1.81958 -1.61804,2.38267 -1.5276,2.37063 -3.70386,0.49292 l -1.90542,-1.64402 -3.87609,0.32291 c -2.13185,0.17759 -4.50117,0.39345 -5.26516,0.47968 -1.24103,0.14008 -1.38879,0.10356 -1.38654,-0.34267 0.002,-0.36648 1.08494,-1.11568 4.06836,-2.8142 2.23621,-1.27312 4.18738,-2.46374 4.33593,-2.64583 0.2177,-0.26685 0.51095,-10.6492 0.35863,-12.69697 -0.0317,-0.4257 -0.72277,-0.46477 -9.36075,-0.52917 -8.08299,-0.0602 -9.32656,-0.12244 -9.32656,-0.4664 0,-0.34374 1.21905,-0.4062 9.10526,-0.46655 6.2902,-0.0481 9.21676,-0.1622 9.46588,-0.36896 0.27968,-0.23211 0.3442,-1.12662 0.28745,-3.9852 l -0.0732,-3.6859 -5.78557,-3.16432 c -6.33457,-3.46459 -7.12521,-3.7218 -9.38109,-3.05188 -1.27435,0.37844 -1.40856,0.37757 -1.55733,-0.0101 -0.10817,-0.28187 0.14018,-0.67714 0.73997,-1.17777 1.56046,-1.30247 5.10756,-3.61969 5.79757,-3.78738 0.48586,-0.11807 1.64481,0.30464 4.36562,1.5923 4.68793,2.21862 4.63021,2.20182 4.63021,1.34763 0,-0.81984 -1.07373,-3.85651 -1.70344,-4.81756 -0.2487,-0.37957 -2.88328,-2.6157 -5.85462,-4.96918 l -5.40245,-4.27906 -0.002,-1.12448 c -0.001,-0.61846 0.10027,-1.12448 0.22532,-1.12448 0.12505,0 2.47654,1.36792 5.22552,3.03983 2.74899,1.6719 5.14699,3.04112 5.32889,3.04271 0.38584,0.003 0.41402,-0.16987 0.34388,-2.11379 -0.11048,-3.0617 -0.71408,-4.97044 -2.75585,-8.71479 -3.22914,-5.92183 -3.13742,-5.70162 -2.58365,-6.20278 0.26027,-0.23554 0.58291,-0.42825 0.71697,-0.42825 0.13407,0 1.24046,1.54522 2.45865,3.43381 1.21819,1.88859 2.36845,3.56125 2.55613,3.71701 0.44255,0.36728 0.59497,0.11446 1.43902,-2.3869 0.5543,-1.64268 0.79309,-2.02569 1.39156,-2.23207 0.39735,-0.13702 0.7984,-0.17318 0.89123,-0.0803 0.0928,0.0928 0.0148,1.39492 -0.1734,2.89353 -0.67946,5.41041 -0.56129,6.44765 1.57651,13.83725 1.05248,3.63802 2.0875,7.23966 2.30007,8.00365 0.21577,0.77551 0.54015,1.38906 0.73439,1.38906 0.19135,0 1.39719,-1.54089 2.67964,-3.4242 l 2.33173,-3.4242 -0.18203,-2.99195 c -0.10012,-1.64557 -0.29283,-4.53975 -0.42825,-6.43153 -0.13541,-1.89177 -0.25063,-4.65997 -0.25604,-6.15156 l -0.01,-2.71198 h 0.78176 c 0.90189,0 0.77569,-0.45207 1.62487,5.82084 0.56962,4.20782 0.6359,4.49791 1.02771,4.49791 0.12545,0 1.88981,-1.93476 3.9208,-4.29948 2.03098,-2.36471 3.94536,-4.52629 4.25419,-4.8035 l 0.5615,-0.50403 v 1.04542 c 0,0.86878 -0.26255,1.38783 -1.55388,3.07201 -2.51554,3.28081 -5.29767,7.48782 -6.13487,9.27689 -0.73962,1.58053 -0.76437,1.74486 -0.48768,3.23834 0.16031,0.86532 0.22239,2.07938 0.13796,2.6979 -0.12362,0.90552 -1.01597,3.47811 -1.92727,5.55614 -0.25279,0.57642 0.58842,0.35698 1.22366,-0.3192 1.53674,-1.63579 2.56668,-2.08465 5.56885,-2.42699 1.57602,-0.17972 3.26215,-0.52685 3.74696,-0.77142 0.48482,-0.24456 2.44094,-2.05653 4.34694,-4.02659 2.23355,-2.30862 3.53409,-3.47089 3.65852,-3.26955 0.22279,0.36048 -0.0948,0.90895 -4.14959,7.1669 l -2.99441,4.62138 -1.48935,0.29835 c -2.64311,0.52947 -2.99267,0.79696 -6.97871,5.3404 l -3.81505,4.34854 v 1.7999 c 0,1.39719 0.0936,1.83583 0.41852,1.96049 0.23018,0.0883 5.98053,0.1606 12.77855,0.1606 h 12.36004 l 1.83968,-1.21436 c 3.72732,-2.46039 6.54708,-3.48981 10.23363,-3.73602 2.88092,-0.1924 3.00637,-0.007 1.68407,2.48273 -0.52245,0.98388 -0.9499,1.88207 -0.9499,1.99598 0,0.36494 0.66065,0.2294 4.2086,-0.8634 1.91153,-0.58877 3.60145,-0.99265 3.7554,-0.89751 0.62878,0.38861 -0.44211,4.68054 -1.87522,7.51553 -1.46373,2.89556 -5.11241,7.12434 -7.5998,8.8081 -0.48209,0.32633 -0.84423,0.76925 -0.80475,0.98426 0.0395,0.21502 1.43987,1.37904 3.112,2.58671 1.67212,1.20767 3.0734,2.34356 3.11394,2.5242 0.0428,0.19055 -1.20687,0.92435 -2.97656,1.74787 -1.71141,0.7964 -3.05028,1.57823 -3.05028,1.78122 0,0.19898 0.14883,0.3633 0.33073,0.36516 0.23454,0.002 7.81215,0.69218 8.59896,0.78275 0.24611,0.0283 -0.0753,0.63084 -0.99219,1.8597 -0.58208,0.78017 -1.05833,1.57127 -1.05833,1.75799 0,0.2479 0.69609,0.35995 2.57969,0.41524 l 2.57968,0.0757 v 2.51354 2.51354 l -1.05833,0.0284 c -0.58208,0.0156 -18.02242,-0.0773 -38.75631,-0.20652 z m 7.30544,-9.21656 c 1.03764,-1.5269 2.22827,-2.98388 2.64583,-3.23775 0.41756,-0.25387 2.78327,-1.13233 5.25712,-1.95212 5.42564,-1.79796 8.92104,-3.53125 12.38855,-6.14318 4.73364,-3.56564 8.40174,-8.80642 9.06445,-12.95075 0.15082,-0.94314 0.10893,-1.11425 -0.27279,-1.11425 -0.24803,0 -2.28442,0.55852 -4.52531,1.24115 -2.24088,0.68263 -4.14967,1.16581 -4.24175,1.07374 -0.0921,-0.0921 0.44883,-1.2443 1.20203,-2.56048 0.75319,-1.31619 1.29486,-2.51374 1.20371,-2.66124 -0.2275,-0.36809 -1.25737,-0.32939 -3.41864,0.12848 -6.01987,1.2753 -12.22162,6.5617 -18.4365,15.71533 -2.25254,3.31767 -3.7778,4.98237 -5.89608,6.4351 -1.81361,1.24378 -5.07617,2.80431 -6.77913,3.24256 -0.67694,0.17421 -1.19062,0.46158 -1.19062,0.66607 0,0.38816 10.0365,5.01271 10.71562,4.93747 0.21828,-0.0242 1.24586,-1.29324 2.28351,-2.82013 z m 22.20935,-18.40549 c -0.85758,-0.85758 -0.32707,-1.96547 0.94116,-1.96547 0.75888,0 1.55348,0.5977 1.55348,1.16851 0,0.5035 -0.89086,1.21274 -1.52328,1.21274 -0.30557,0 -0.74268,-0.1871 -0.97136,-0.41578 z M 232.84886,120.42343 c 0.191,-0.0764 0.4192,-0.067 0.50712,0.0209 0.0879,0.0879 -0.0683,0.15046 -0.34726,0.13897 -0.30823,-0.0127 -0.37092,-0.0754 -0.15986,-0.15985 z"
         id="path833" />
      <path
         style="fill:#ee3f34;stroke-width:0.264583"
         d="m 185.93493,262.42083 -47.09546,-47.09602 47.09583,-47.09583 47.09584,-47.09583 47.09546,47.09602 47.09546,47.09602 -47.09583,47.09583 -47.09584,47.09583 z m 87.50888,-6.54724 c 22.08392,-22.08214 40.15258,-40.329 40.15258,-40.54859 0,-0.43161 -80.13472,-80.69792 -80.56563,-80.69792 -0.4309,0 -80.56562,80.26631 -80.56562,80.69792 0,0.43161 80.13472,80.69792 80.56562,80.69792 0.14326,0 18.32914,-18.0672 40.41305,-40.14933 z m -40.01102,-7.2569 c -24.74109,-0.15419 -37.78993,-0.32688 -37.9655,-0.50245 -0.43006,-0.43006 0.23547,-0.68717 4.35827,-1.68365 4.89626,-1.18344 7.08098,-1.51847 9.39097,-1.4401 1.83131,0.0621 1.94215,0.0252 9.12986,-3.04286 4.00182,-1.70816 7.3951,-3.23016 7.54062,-3.38221 0.17861,-0.18664 0.10394,-0.37504 -0.2298,-0.5798 -1.98965,-1.22072 -1.77041,-1.65212 1.03622,-2.03903 3.48807,-0.48085 8.10218,-2.74195 10.63797,-5.21304 0.70739,-0.68934 2.04374,-2.38444 2.96968,-3.76688 2.42831,-3.62553 4.6249,-6.4621 6.67712,-8.62256 0.9874,-1.03948 1.79527,-2.02618 1.79527,-2.19267 0,-0.22375 -3.0886,-0.28476 -11.8401,-0.23385 l -11.84011,0.0689 -0.0724,4.72788 c -0.0526,3.43535 0.0163,4.83469 0.25188,5.11858 0.17834,0.2149 2.4731,1.46751 5.09946,2.7836 3.87479,1.94168 4.67542,2.43443 4.24604,2.6132 -0.29105,0.12117 -3.00482,0.57043 -6.03062,0.99835 -3.02579,0.42792 -5.68745,0.93242 -5.9148,1.1211 -0.22734,0.18868 -0.86456,1.00749 -1.41604,1.81958 -1.61804,2.38267 -1.5276,2.37063 -3.70386,0.49292 l -1.90542,-1.64402 -3.87609,0.32291 c -2.13185,0.17759 -4.50117,0.39345 -5.26516,0.47968 -1.24103,0.14008 -1.38879,0.10356 -1.38654,-0.34267 0.002,-0.36648 1.08494,-1.11568 4.06836,-2.8142 2.23621,-1.27312 4.18738,-2.46374 4.33593,-2.64583 0.2177,-0.26685 0.51095,-10.6492 0.35863,-12.69697 -0.0317,-0.4257 -0.72277,-0.46477 -9.36075,-0.52917 -8.08299,-0.0602 -9.32656,-0.12244 -9.32656,-0.4664 0,-0.34374 1.21905,-0.4062 9.10526,-0.46655 6.2902,-0.0481 9.21676,-0.1622 9.46588,-0.36896 0.27968,-0.23211 0.3442,-1.12662 0.28745,-3.9852 l -0.0732,-3.6859 -5.78557,-3.16432 c -6.33457,-3.46459 -7.12521,-3.7218 -9.38109,-3.05188 -1.27435,0.37844 -1.40856,0.37757 -1.55733,-0.0101 -0.10817,-0.28187 0.14018,-0.67714 0.73997,-1.17777 1.56046,-1.30247 5.10756,-3.61969 5.79757,-3.78738 0.48586,-0.11807 1.64481,0.30464 4.36562,1.5923 4.68793,2.21862 4.63021,2.20182 4.63021,1.34763 0,-0.81984 -1.07373,-3.85651 -1.70344,-4.81756 -0.2487,-0.37957 -2.88328,-2.6157 -5.85462,-4.96918 l -5.40245,-4.27906 -0.002,-1.12448 c -0.001,-0.61846 0.10027,-1.12448 0.22532,-1.12448 0.12505,0 2.47654,1.36792 5.22552,3.03983 2.74899,1.6719 5.14699,3.04112 5.32889,3.04271 0.38584,0.003 0.41402,-0.16987 0.34388,-2.11379 -0.11048,-3.0617 -0.71408,-4.97044 -2.75585,-8.71479 -3.22914,-5.92183 -3.13742,-5.70162 -2.58365,-6.20278 0.26027,-0.23554 0.58291,-0.42825 0.71697,-0.42825 0.13407,0 1.24046,1.54522 2.45865,3.43381 1.21819,1.88859 2.36845,3.56125 2.55613,3.71701 0.44255,0.36728 0.59497,0.11446 1.43902,-2.3869 0.5543,-1.64268 0.79309,-2.02569 1.39156,-2.23207 0.39735,-0.13702 0.7984,-0.17318 0.89123,-0.0803 0.0928,0.0928 0.0148,1.39492 -0.1734,2.89353 -0.67946,5.41041 -0.56129,6.44765 1.57651,13.83725 1.05248,3.63802 2.0875,7.23966 2.30007,8.00365 0.21577,0.77551 0.54015,1.38906 0.73439,1.38906 0.19135,0 1.39719,-1.54089 2.67964,-3.4242 l 2.33173,-3.4242 -0.18203,-2.99195 c -0.10012,-1.64557 -0.29283,-4.53975 -0.42825,-6.43153 -0.13541,-1.89177 -0.25063,-4.65997 -0.25604,-6.15156 l -0.01,-2.71198 h 0.78176 c 0.90189,0 0.77569,-0.45207 1.62487,5.82084 0.56962,4.20782 0.6359,4.49791 1.02771,4.49791 0.12545,0 1.88981,-1.93476 3.9208,-4.29948 2.03098,-2.36471 3.94536,-4.52629 4.25419,-4.8035 l 0.5615,-0.50403 v 1.04542 c 0,0.86878 -0.26255,1.38783 -1.55388,3.07201 -2.51554,3.28081 -5.29767,7.48782 -6.13487,9.27689 -0.73962,1.58053 -0.76437,1.74486 -0.48768,3.23834 0.16031,0.86532 0.22239,2.07938 0.13796,2.6979 -0.12362,0.90552 -1.01597,3.47811 -1.92727,5.55614 -0.25279,0.57642 0.58842,0.35698 1.22366,-0.3192 1.53674,-1.63579 2.56668,-2.08465 5.56885,-2.42699 1.57602,-0.17972 3.26215,-0.52685 3.74696,-0.77142 0.48482,-0.24456 2.44094,-2.05653 4.34694,-4.02659 2.23355,-2.30862 3.53409,-3.47089 3.65852,-3.26955 0.22279,0.36048 -0.0948,0.90895 -4.14959,7.1669 l -2.99441,4.62138 -1.48935,0.29835 c -2.64311,0.52947 -2.99267,0.79696 -6.97871,5.3404 l -3.81505,4.34854 v 1.7999 c 0,1.39719 0.0936,1.83583 0.41852,1.96049 0.23018,0.0883 5.98053,0.1606 12.77855,0.1606 h 12.36004 l 1.83968,-1.21436 c 3.72732,-2.46039 6.54708,-3.48981 10.23363,-3.73602 2.88092,-0.1924 3.00637,-0.007 1.68407,2.48273 -0.52245,0.98388 -0.9499,1.88207 -0.9499,1.99598 0,0.36494 0.66065,0.2294 4.2086,-0.8634 1.91153,-0.58877 3.60145,-0.99265 3.7554,-0.89751 0.62878,0.38861 -0.44211,4.68054 -1.87522,7.51553 -1.46373,2.89556 -5.11241,7.12434 -7.5998,8.8081 -0.48209,0.32633 -0.84423,0.76925 -0.80475,0.98426 0.0395,0.21502 1.43987,1.37904 3.112,2.58671 1.67212,1.20767 3.0734,2.34356 3.11394,2.5242 0.0428,0.19055 -1.20687,0.92435 -2.97656,1.74787 -1.71141,0.7964 -3.05028,1.57823 -3.05028,1.78122 0,0.19898 0.14883,0.3633 0.33073,0.36516 0.23454,0.002 7.81215,0.69218 8.59896,0.78275 0.24611,0.0283 -0.0753,0.63084 -0.99219,1.8597 -0.58208,0.78017 -1.05833,1.57127 -1.05833,1.75799 0,0.2479 0.69609,0.35995 2.57969,0.41524 l 2.57968,0.0757 v 2.51354 2.51354 l -1.05833,0.0284 c -0.58208,0.0156 -18.02242,-0.0773 -38.75631,-0.20652 z m 7.30544,-9.21656 c 1.03764,-1.5269 2.22827,-2.98388 2.64583,-3.23775 0.41756,-0.25387 2.78327,-1.13233 5.25712,-1.95212 5.42564,-1.79796 8.92104,-3.53125 12.38855,-6.14318 4.73364,-3.56564 8.40174,-8.80642 9.06445,-12.95075 0.15082,-0.94314 0.10893,-1.11425 -0.27279,-1.11425 -0.24803,0 -2.28442,0.55852 -4.52531,1.24115 -2.24088,0.68263 -4.14967,1.16581 -4.24175,1.07374 -0.0921,-0.0921 0.44883,-1.2443 1.20203,-2.56048 0.75319,-1.31619 1.29486,-2.51374 1.20371,-2.66124 -0.2275,-0.36809 -1.25737,-0.32939 -3.41864,0.12848 -6.01987,1.2753 -12.22162,6.5617 -18.4365,15.71533 -2.25254,3.31767 -3.7778,4.98237 -5.89608,6.4351 -1.81361,1.24378 -5.07617,2.80431 -6.77913,3.24256 -0.67694,0.17421 -1.19062,0.46158 -1.19062,0.66607 0,0.38816 10.0365,5.01271 10.71562,4.93747 0.21828,-0.0242 1.24586,-1.29324 2.28351,-2.82013 z m 22.20935,-18.40549 c -0.85758,-0.85758 -0.32707,-1.96547 0.94116,-1.96547 0.75888,0 1.55348,0.5977 1.55348,1.16851 0,0.5035 -0.89086,1.21274 -1.52328,1.21274 -0.30557,0 -0.74268,-0.1871 -0.97136,-0.41578 z"
         id="path831" />
      <path
         style="fill:#101313;stroke-width:0.264583"
         d="m 233.43279,248.61669 c -24.74109,-0.15419 -37.78993,-0.32688 -37.9655,-0.50245 -0.43006,-0.43006 0.23547,-0.68717 4.35827,-1.68365 4.89626,-1.18344 7.08098,-1.51847 9.39097,-1.4401 1.83131,0.0621 1.94215,0.0252 9.12986,-3.04286 4.00182,-1.70816 7.3951,-3.23016 7.54062,-3.38221 0.17861,-0.18664 0.10394,-0.37504 -0.2298,-0.5798 -1.98965,-1.22072 -1.77041,-1.65212 1.03622,-2.03903 3.48807,-0.48085 8.10218,-2.74195 10.63797,-5.21304 0.70739,-0.68934 2.04374,-2.38444 2.96968,-3.76688 2.42831,-3.62553 4.6249,-6.4621 6.67712,-8.62256 0.9874,-1.03948 1.79527,-2.02618 1.79527,-2.19267 0,-0.22375 -3.0886,-0.28476 -11.8401,-0.23385 l -11.84011,0.0689 -0.0724,4.72788 c -0.0526,3.43535 0.0163,4.83469 0.25188,5.11858 0.17834,0.2149 2.4731,1.46751 5.09946,2.7836 3.87479,1.94168 4.67542,2.43443 4.24604,2.6132 -0.29105,0.12117 -3.00482,0.57043 -6.03062,0.99835 -3.02579,0.42792 -5.68745,0.93242 -5.9148,1.1211 -0.22734,0.18868 -0.86456,1.00749 -1.41604,1.81958 -1.61804,2.38267 -1.5276,2.37063 -3.70386,0.49292 l -1.90542,-1.64402 -3.87609,0.32291 c -2.13185,0.17759 -4.50117,0.39345 -5.26516,0.47968 -1.24103,0.14008 -1.38879,0.10356 -1.38654,-0.34267 0.002,-0.36648 1.08494,-1.11568 4.06836,-2.8142 2.23621,-1.27312 4.18738,-2.46374 4.33593,-2.64583 0.2177,-0.26685 0.51095,-10.6492 0.35863,-12.69697 -0.0317,-0.4257 -0.72277,-0.46477 -9.36075,-0.52917 -8.08299,-0.0602 -9.32656,-0.12244 -9.32656,-0.4664 0,-0.34374 1.21905,-0.4062 9.10526,-0.46655 6.2902,-0.0481 9.21676,-0.1622 9.46588,-0.36896 0.27968,-0.23211 0.3442,-1.12662 0.28745,-3.9852 l -0.0732,-3.6859 -5.78557,-3.16432 c -6.33457,-3.46459 -7.12521,-3.7218 -9.38109,-3.05188 -1.27435,0.37844 -1.40856,0.37757 -1.55733,-0.0101 -0.10817,-0.28187 0.14018,-0.67714 0.73997,-1.17777 1.56046,-1.30247 5.10756,-3.61969 5.79757,-3.78738 0.48586,-0.11807 1.64481,0.30464 4.36562,1.5923 4.68793,2.21862 4.63021,2.20182 4.63021,1.34763 0,-0.81984 -1.07373,-3.85651 -1.70344,-4.81756 -0.2487,-0.37957 -2.88328,-2.6157 -5.85462,-4.96918 l -5.40245,-4.27906 -0.002,-1.12448 c -0.001,-0.61846 0.10027,-1.12448 0.22532,-1.12448 0.12505,0 2.47654,1.36792 5.22552,3.03983 2.74899,1.6719 5.14699,3.04112 5.32889,3.04271 0.38584,0.003 0.41402,-0.16987 0.34388,-2.11379 -0.11048,-3.0617 -0.71408,-4.97044 -2.75585,-8.71479 -3.22914,-5.92183 -3.13742,-5.70162 -2.58365,-6.20278 0.26027,-0.23554 0.58291,-0.42825 0.71697,-0.42825 0.13407,0 1.24046,1.54522 2.45865,3.43381 1.21819,1.88859 2.36845,3.56125 2.55613,3.71701 0.44255,0.36728 0.59497,0.11446 1.43902,-2.3869 0.5543,-1.64268 0.79309,-2.02569 1.39156,-2.23207 0.39735,-0.13702 0.7984,-0.17318 0.89123,-0.0803 0.0928,0.0928 0.0148,1.39492 -0.1734,2.89353 -0.67946,5.41041 -0.56129,6.44765 1.57651,13.83725 1.05248,3.63802 2.0875,7.23966 2.30007,8.00365 0.21577,0.77551 0.54015,1.38906 0.73439,1.38906 0.19135,0 1.39719,-1.54089 2.67964,-3.4242 l 2.33173,-3.4242 -0.18203,-2.99195 c -0.10012,-1.64557 -0.29283,-4.53975 -0.42825,-6.43153 -0.13541,-1.89177 -0.25063,-4.65997 -0.25604,-6.15156 l -0.01,-2.71198 h 0.78176 c 0.90189,0 0.77569,-0.45207 1.62487,5.82084 0.56962,4.20782 0.6359,4.49791 1.02771,4.49791 0.12545,0 1.88981,-1.93476 3.9208,-4.29948 2.03098,-2.36471 3.94536,-4.52629 4.25419,-4.8035 l 0.5615,-0.50403 v 1.04542 c 0,0.86878 -0.26255,1.38783 -1.55388,3.07201 -2.51554,3.28081 -5.29767,7.48782 -6.13487,9.27689 -0.73962,1.58053 -0.76437,1.74486 -0.48768,3.23834 0.16031,0.86532 0.22239,2.07938 0.13796,2.6979 -0.12362,0.90552 -1.01597,3.47811 -1.92727,5.55614 -0.25279,0.57642 0.58842,0.35698 1.22366,-0.3192 1.53674,-1.63579 2.56668,-2.08465 5.56885,-2.42699 1.57602,-0.17972 3.26215,-0.52685 3.74696,-0.77142 0.48482,-0.24456 2.44094,-2.05653 4.34694,-4.02659 2.23355,-2.30862 3.53409,-3.47089 3.65852,-3.26955 0.22279,0.36048 -0.0948,0.90895 -4.14959,7.1669 l -2.99441,4.62138 -1.48935,0.29835 c -2.64311,0.52947 -2.99267,0.79696 -6.97871,5.3404 l -3.81505,4.34854 v 1.7999 c 0,1.39719 0.0936,1.83583 0.41852,1.96049 0.23018,0.0883 5.98053,0.1606 12.77855,0.1606 h 12.36004 l 1.83968,-1.21436 c 3.72732,-2.46039 6.54708,-3.48981 10.23363,-3.73602 2.88092,-0.1924 3.00637,-0.007 1.68407,2.48273 -0.52245,0.98388 -0.9499,1.88207 -0.9499,1.99598 0,0.36494 0.66065,0.2294 4.2086,-0.8634 1.91153,-0.58877 3.60145,-0.99265 3.7554,-0.89751 0.62878,0.38861 -0.44211,4.68054 -1.87522,7.51553 -1.46373,2.89556 -5.11241,7.12434 -7.5998,8.8081 -0.48209,0.32633 -0.84423,0.76925 -0.80475,0.98426 0.0395,0.21502 1.43987,1.37904 3.112,2.58671 1.67212,1.20767 3.0734,2.34356 3.11394,2.5242 0.0428,0.19055 -1.20687,0.92435 -2.97656,1.74787 -1.71141,0.7964 -3.05028,1.57823 -3.05028,1.78122 0,0.19898 0.14883,0.3633 0.33073,0.36516 0.23454,0.002 7.81215,0.69218 8.59896,0.78275 0.24611,0.0283 -0.0753,0.63084 -0.99219,1.8597 -0.58208,0.78017 -1.05833,1.57127 -1.05833,1.75799 0,0.2479 0.69609,0.35995 2.57969,0.41524 l 2.57968,0.0757 v 2.51354 2.51354 l -1.05833,0.0284 c -0.58208,0.0156 -18.02242,-0.0773 -38.75631,-0.20652 z m 7.30544,-9.21656 c 1.03764,-1.5269 2.22827,-2.98388 2.64583,-3.23775 0.41756,-0.25387 2.78327,-1.13233 5.25712,-1.95212 5.42564,-1.79796 8.92104,-3.53125 12.38855,-6.14318 4.73364,-3.56564 8.40174,-8.80642 9.06445,-12.95075 0.15082,-0.94314 0.10893,-1.11425 -0.27279,-1.11425 -0.24803,0 -2.28442,0.55852 -4.52531,1.24115 -2.24088,0.68263 -4.14967,1.16581 -4.24175,1.07374 -0.0921,-0.0921 0.44883,-1.2443 1.20203,-2.56048 0.75319,-1.31619 1.29486,-2.51374 1.20371,-2.66124 -0.2275,-0.36809 -1.25737,-0.32939 -3.41864,0.12848 -6.01987,1.2753 -12.22162,6.5617 -18.4365,15.71533 -2.25254,3.31767 -3.7778,4.98237 -5.89608,6.4351 -1.81361,1.24378 -5.07617,2.80431 -6.77913,3.24256 -0.67694,0.17421 -1.19062,0.46158 -1.19062,0.66607 0,0.38816 10.0365,5.01271 10.71562,4.93747 0.21828,-0.0242 1.24586,-1.29324 2.28351,-2.82013 z m 22.20935,-18.40549 c -0.85758,-0.85758 -0.32707,-1.96547 0.94116,-1.96547 0.75888,0 1.55348,0.5977 1.55348,1.16851 0,0.5035 -0.89086,1.21274 -1.52328,1.21274 -0.30557,0 -0.74268,-0.1871 -0.97136,-0.41578 z"
         id="path829" />
    </g>
  </g>
</svg>
