<?xml version="1.0" encoding="UTF-8" standalone="no"?>
<svg
   xmlns:dc="http://purl.org/dc/elements/1.1/"
   xmlns:cc="http://creativecommons.org/ns#"
   xmlns:rdf="http://www.w3.org/1999/02/22-rdf-syntax-ns#"
   xmlns:svg="http://www.w3.org/2000/svg"
   xmlns="http://www.w3.org/2000/svg"
   xmlns:sodipodi="http://sodipodi.sourceforge.net/DTD/sodipodi-0.dtd"
   xmlns:inkscape="http://www.inkscape.org/namespaces/inkscape"
   width="24mm"
   height="24mm"
   viewBox="0 0 24 24"
   version="1.1"
   id="svg5"
   inkscape:version="1.0.2 (e86c870879, 2021-01-15)"
   sodipodi:docname="Bomba explotando.svg">
  <metadata
     id="metadata14">
    <rdf:RDF>
      <cc:Work
         rdf:about="">
        <dc:format>image/svg+xml</dc:format>
        <dc:type
           rdf:resource="http://purl.org/dc/dcmitype/StillImage" />
      </cc:Work>
    </rdf:RDF>
  </metadata>
  <sodipodi:namedview
     id="namedview7"
     pagecolor="#ffffff"
     bordercolor="#666666"
     borderopacity="1.0"
     inkscape:pageshadow="2"
     inkscape:pageopacity="0.0"
     inkscape:pagecheckerboard="0"
     inkscape:document-units="mm"
     showgrid="false"
     inkscape:zoom="0.46324355"
     inkscape:cx="385.19348"
     inkscape:cy="539.92799"
     inkscape:window-width="1360"
     inkscape:window-height="687"
     inkscape:window-x="0"
     inkscape:window-y="26"
     inkscape:window-maximized="1"
     inkscape:current-layer="layer1"
     inkscape:document-rotation="0" />
  <defs
     id="defs2" />
  <g
     inkscape:label="Capa 1"
     inkscape:groupmode="layer"
     id="layer1"
     transform="translate(-3.1765325,-5.3584756)">
    <g
       id="g355"
       transform="matrix(0.12598425,0,0,0.12598425,-13.190952,-9.9129963)">
      <path
         style="fill:#f6a39e;stroke-width:0.264583"
         d="m 177.34576,264.29064 c -26.08586,-26.08467 -47.42885,-47.60517 -47.42885,-47.82333 0,-0.51626 94.73446,-95.25 95.25073,-95.25 0.51435,0 95.24928,94.73564 95.24928,95.25 0,0.51436 -94.73493,95.25 -95.24928,95.25 -0.21617,0 -21.73601,-21.342 -47.82188,-47.42667 z m 87.57272,-7.80389 c 21.79289,-21.79109 39.62344,-39.79983 39.62344,-40.01944 0,-0.21961 -17.85982,-18.25763 -39.68849,-40.08448 l -39.68849,-39.6852 -39.88473,39.88473 -39.88473,39.88473 39.81924,39.8199 c 21.90059,21.90095 39.87799,39.8199 39.94978,39.8199 0.0718,0 17.96109,-17.82906 39.75398,-39.62014 z m -74.50859,-17.81364 c -0.38343,-0.30161 -0.69714,-0.71011 -0.69714,-0.90778 0,-0.19767 3.83976,-3.41905 8.53281,-7.15863 8.61389,-6.86384 9.19546,-7.44602 8.11749,-8.12599 -0.32074,-0.20231 -1.88751,0.61069 -6.87917,3.56963 -8.93985,5.29934 -8.12471,4.86923 -8.50582,4.48812 -0.24058,-0.24059 -0.25147,-0.4482 -0.0411,-0.78312 0.15747,-0.25066 2.80312,-1.81585 5.87923,-3.47821 3.0761,-1.66236 5.55977,-3.05561 5.51926,-3.09612 -0.0405,-0.0405 -1.19468,0.2778 -2.56482,0.70736 -3.00532,0.94222 -3.44332,0.96996 -3.44332,0.21804 0,-0.50328 -0.1052,-0.54562 -0.99219,-0.3992 -0.5457,0.0901 -1.46843,0.30527 -2.05052,0.47818 l -1.05833,0.31439 0.79375,0.15211 c 0.65393,0.12532 0.80786,0.29671 0.87383,0.97297 0.0678,0.69447 -0.0406,0.87085 -0.70359,1.14548 -0.94073,0.38967 -1.55463,0.1307 -2.47352,-1.04343 l -0.62441,-0.79785 -6.14004,1.51347 c -4.88147,1.20325 -6.2072,1.44631 -6.4677,1.1858 -0.90397,-0.90396 -0.0363,-1.17631 12.91802,-4.05494 6.96937,-1.54868 13.11922,-2.88972 13.66633,-2.98009 l 0.99474,-0.16431 -0.16868,-1.12095 c -0.0928,-0.61651 -0.27252,-1.23405 -0.39943,-1.37229 -0.12692,-0.13825 -0.23076,-0.34661 -0.23076,-0.46302 0,-0.39445 2.02601,-0.21436 3.57188,0.3175 0.84593,0.29104 1.7116,0.52916 1.92372,0.52916 0.21212,0 1.07285,-0.59531 1.91274,-1.32291 0.83988,-0.72761 1.68949,-1.32237 1.88801,-1.32169 0.19852,7.9e-4 1.3331,0.83411 2.52129,1.85208 1.18818,1.01797 2.34485,1.85086 2.57038,1.85086 0.22552,0 0.53747,-0.23813 0.69323,-0.52917 0.15576,-0.29104 0.48737,-0.53182 0.73692,-0.53505 0.87331,-0.0113 1.61052,-0.87064 1.69547,-1.97629 0.11867,-1.54434 0.71986,-1.49889 2.52797,0.19113 0.83706,0.7824 1.84936,1.62726 2.24954,1.87747 0.40018,0.25022 0.7276,0.62277 0.7276,0.82789 0,0.20511 0.20836,0.43102 0.46302,0.50201 0.25467,0.071 4.96868,0.7529 10.47559,1.51535 7.15785,0.99103 10.0517,1.48829 10.14986,1.74409 0.25988,0.67722 -0.20764,2.75733 -0.65862,2.93039 -0.23935,0.0919 -1.74906,-0.17311 -3.35491,-0.58878 -1.60585,-0.41568 -3.13068,-0.80998 -3.38851,-0.87623 -0.40826,-0.10491 -0.43382,-0.0285 -0.198,0.59173 0.14892,0.3917 0.19814,1.00157 0.10937,1.35528 -0.18646,0.74289 -0.71929,0.80486 -3.11403,0.36217 -2.36835,-0.43781 -2.56684,-0.20937 -0.68813,0.79197 0.93467,0.49817 1.97052,1.17689 2.30188,1.50825 0.63206,0.63206 0.81864,1.68487 0.2986,1.68487 -0.16713,0 -2.8758,-1.56667 -6.01927,-3.48148 -3.14346,-1.91482 -5.83445,-3.52904 -5.97997,-3.58718 -0.57741,-0.23065 1.79196,1.57499 7.37609,5.62117 4.88897,3.54248 5.85308,4.34814 5.85308,4.89117 0,1.0741 -0.72825,0.90023 -2.74014,-0.65424 -1.04394,-0.80659 -1.95282,-1.46652 -2.01975,-1.46652 -0.0669,0 -0.0502,0.35718 0.0371,0.79375 0.10526,0.52627 0.0526,0.79375 -0.15617,0.79375 -0.1732,0 -2.75889,-1.97247 -5.74596,-4.38328 -2.98708,-2.41079 -5.57657,-4.43911 -5.75444,-4.50737 -0.17786,-0.0682 -1.12378,0.41263 -2.10204,1.06862 -0.97826,0.656 -2.3912,1.37463 -3.13987,1.59696 -3.10415,0.92183 -7.05287,0.23612 -9.57216,-1.66224 -0.71254,-0.53693 -1.44554,-1.08766 -1.62889,-1.22385 -0.23471,-0.17434 -0.79085,0.16864 -1.87946,1.15909 -1.68333,1.53155 -1.92375,1.86665 -1.33926,1.86665 0.21078,0 0.69704,0.24683 1.08057,0.54852 0.80099,0.63006 0.74231,1.54681 -0.16288,2.54462 -0.68304,0.75293 -2.91899,0.77738 -3.86988,0.0423 l -0.62867,-0.48598 -2.38163,2.18099 c -6.00863,5.50246 -7.47495,6.8112 -7.63124,6.8112 -0.0923,0 -0.48151,-0.24677 -0.86494,-0.54837 z M 230.194,227.46784 c 0,-0.27778 -4.82291,-3.88074 -5.08002,-3.79504 -0.15889,0.053 0.88935,0.94765 2.32942,1.98819 2.73856,1.97878 2.7506,1.98669 2.7506,1.80685 z m 1.51735,-5.33773 c -0.13275,-0.13209 -4.40794,-1.16488 -4.82198,-1.16488 -0.99321,0 -0.14948,0.92341 1.82302,1.9952 l 2.09027,1.13577 0.48542,-0.95213 c 0.26698,-0.52367 0.45745,-0.97995 0.42327,-1.01396 z m -48.48222,11.53331 c -0.84681,-1.15358 -0.96709,-1.48663 -0.83373,-2.30846 0.0857,-0.52821 0.33854,-1.14306 0.56182,-1.36635 0.3649,-0.3649 0.47955,-0.36319 1.13335,0.0169 0.43332,0.2519 1.06274,0.37154 1.5569,0.29593 1.09203,-0.16708 1.94861,0.3114 1.94861,1.08848 0,0.801 -0.95797,2.01075 -1.59226,2.01075 -0.27489,0 -0.64922,0.31527 -0.8407,0.70806 -0.18984,0.38944 -0.47999,0.75188 -0.64479,0.80543 -0.16479,0.0536 -0.74493,-0.50927 -1.2892,-1.25071 z m -15.42905,-9.5737 c 0.11154,-0.76476 0.37408,-0.81807 8.35277,-1.69607 3.6744,-0.40434 6.68073,-0.83162 6.68073,-0.9495 0,-0.11789 -0.16401,-0.21434 -0.36448,-0.21434 -0.20046,0 -0.51627,-0.1829 -0.70179,-0.40644 -0.28231,-0.34017 -0.21329,-0.5359 0.42329,-1.20035 1.24521,-1.29971 1.76988,-1.27617 3.62248,0.1625 l 1.62977,1.26563 3.04052,-0.31694 c 2.9364,-0.30608 3.70679,-0.50102 2.98992,-0.75655 -0.71395,-0.2545 -1.90846,-1.46157 -1.90846,-1.92854 0,-0.2683 -0.20836,-0.54656 -0.46302,-0.61835 -0.25466,-0.0718 -3.175,-0.21225 -6.48965,-0.31211 -5.26312,-0.15857 -6.10112,-0.24247 -6.61458,-0.66226 -1.24491,-1.0178 -0.3893,-1.10671 6.18809,-0.64303 3.65494,0.25766 7.12736,0.36508 8.48169,0.26238 1.7438,-0.13224 2.47272,-0.083 3.04271,0.20536 0.41226,0.2086 1.99971,0.46033 3.52768,0.55942 3.45317,0.22394 4.7625,0.42159 4.7625,0.71893 0,0.12692 -1.30178,0.23077 -2.89284,0.23077 h -2.89285 l -0.0837,0.71714 c -0.0578,0.49476 -0.27315,0.7614 -0.69464,0.85989 -0.33601,0.0785 -0.592,0.26182 -0.56886,0.40734 0.0231,0.14552 0.13148,0.24074 0.24076,0.21159 0.10927,-0.0291 1.61542,-0.11814 3.34698,-0.19775 6.1142,-0.28111 1.52272,0.4972 -20.15772,3.41698 -5.97882,0.80518 -11.25562,1.46397 -11.72621,1.46397 -0.72981,0 -0.84319,-0.0852 -0.77107,-0.57967 z m 96.39288,-4.19587 c -5.09323,-0.26637 -10.86776,-0.49478 -12.83229,-0.50758 -1.96453,-0.0128 -4.40532,-0.13343 -5.42396,-0.26808 -1.01865,-0.13465 -4.3524,-0.37954 -7.40833,-0.54419 -3.05594,-0.16465 -6.27063,-0.39275 -7.14375,-0.50688 l -1.5875,-0.20751 1.32291,-0.0464 c 0.72761,-0.0255 3.26041,-0.0361 5.62846,-0.0235 l 4.30554,0.0229 -0.0722,-1.12061 -0.0722,-1.1206 1.32291,-0.49297 c 0.72761,-0.27113 1.61787,-0.78393 1.97836,-1.13956 l 0.65545,-0.64662 -0.65545,1.2e-4 c -0.36049,7e-5 -3.69153,0.41845 -7.40232,0.92974 -6.85705,0.94479 -11.37708,1.38791 -11.37708,1.11534 0,-0.0829 0.85401,-0.34494 1.8978,-0.58235 3.05039,-0.69379 54.80241,-9.42289 55.38449,-9.34178 0.71438,0.0995 0.92993,2.16304 0.25309,2.42277 -0.23954,0.0919 -8.37166,1.23935 -18.07139,2.54984 -9.69972,1.31049 -17.92098,2.44758 -18.26945,2.52687 -0.84104,0.19136 -0.64426,0.32486 2.68411,1.82089 1.56435,0.70315 2.84427,1.39223 2.84427,1.53131 0,0.13907 -0.24076,0.59097 -0.53502,1.00421 l -0.53501,0.75136 1.13033,0.13884 c 0.62167,0.0764 6.01189,0.27319 11.97824,0.43741 8.72597,0.24017 10.96758,0.37491 11.45966,0.68886 0.92575,0.59064 0.56632,1.01342 -0.89712,1.05523 -0.71617,0.0205 -5.46931,-0.18074 -10.56254,-0.44712 z m -64.75493,-4.34656 c -3.01855,-0.48072 -5.66769,-0.94289 -5.88698,-1.02704 -0.56786,-0.2179 -0.49342,-0.62483 0.19659,-1.07472 0.53928,-0.35162 1.06851,-0.28065 5.6224,0.75391 6.18353,1.40479 7.2106,1.68335 7.41278,2.01048 0.26247,0.42468 -1.53632,0.2624 -7.34479,-0.66263 z m 14.02817,-0.40489 c -2.01899,-1.0437 -3.93152,-1.39861 -4.30247,-0.7984 -0.092,0.14882 -0.68625,0.18628 -1.40468,0.0885 -1.17906,-0.1604 -1.22427,-0.14395 -0.85046,0.30939 0.36661,0.4446 0.34772,0.46439 -0.26458,0.27725 -1.57167,-0.48037 -7.77396,-3.49185 -8.03105,-3.89942 -0.78699,-1.24763 0.87256,-0.66853 5.21231,1.81885 1.14069,0.6538 2.12785,1.13485 2.19368,1.06901 0.26725,-0.26725 -1.41917,-1.88859 -3.24805,-3.1227 -1.31482,-0.88723 -1.94565,-1.48187 -1.94565,-1.83402 0,-0.79495 0.55249,-0.63364 2.269,0.66247 0.8621,0.65097 1.68652,1.18078 1.83204,1.17735 0.14552,-0.003 0.61391,-0.7444 1.04086,-1.6466 2.0713,-4.37689 7.17681,-7.13653 11.79118,-6.37339 1.11649,0.18465 1.67042,0.18033 1.81408,-0.0141 0.11374,-0.15396 0.42253,-1.23244 0.68619,-2.3966 0.26367,-1.16417 1.23778,-5.07862 2.16469,-8.69877 0.92691,-3.62016 1.68529,-6.62649 1.68529,-6.68073 0,-0.3955 -0.57399,0.0887 -1.2945,1.092 -0.47028,0.65484 -1.02146,1.19062 -1.22486,1.19062 -0.2034,0 -0.512,-0.47458 -0.68578,-1.05461 -0.17379,-0.58004 -0.59528,-1.23763 -0.93667,-1.46131 -0.69032,-0.45232 -0.78574,-1.24476 -0.34219,-2.84189 0.21801,-0.78504 0.40469,-0.99219 0.89413,-0.99219 0.37166,0 0.79567,-0.27025 1.06219,-0.67701 0.34505,-0.52661 0.62507,-0.65885 1.26052,-0.59531 0.84245,0.0842 1.07369,0.33058 1.53931,1.63975 0.1495,0.42036 0.33888,0.69724 0.42084,0.61529 0.082,-0.082 0.35164,-0.95194 0.5993,-1.93328 0.53215,-2.10859 0.98659,-2.52573 2.01645,-1.85095 0.60376,0.3956 0.69069,0.59761 0.55313,1.28542 -0.0898,0.44883 -0.1,0.75279 -0.0226,0.67546 0.0773,-0.0773 1.31137,-3.46192 2.74233,-7.52133 1.78381,-5.06037 2.73237,-7.40643 3.01722,-7.46245 0.4394,-0.0864 2.43347,0.83407 2.68359,1.23877 0.0811,0.13122 -2.41114,7.36554 -5.5383,16.07628 -3.12717,8.71073 -5.67933,15.95718 -5.67147,16.10322 0.008,0.14603 1.67024,-3.02867 3.69421,-7.0549 2.02396,-4.02623 3.81483,-7.40379 3.9797,-7.50569 0.35245,-0.21783 1.48789,0.33409 1.67146,0.81246 0.07,0.18247 -2.42398,4.71322 -5.54222,10.06835 -3.11823,5.35513 -5.66952,9.8239 -5.66952,9.9306 0,0.2825 1.33872,1.29075 1.71381,1.29075 0.17574,0 0.54664,-0.42661 0.82422,-0.94803 0.27757,-0.52141 0.92913,-1.26555 1.44791,-1.65364 0.51877,-0.38809 6.21553,-6.45039 12.65946,-13.47177 6.44393,-7.02138 11.82919,-12.76614 11.96724,-12.76614 0.32964,0 1.54986,1.22539 1.54986,1.55642 0,0.14166 -5.0737,5.38582 -11.2749,11.65369 -10.62449,10.73872 -11.22511,11.39614 -10.41168,11.39614 0.63244,0 1.24989,-0.31832 2.30947,-1.19063 1.26953,-1.04514 2.1792,-1.48378 2.1792,-1.05079 0,0.0769 -0.36499,0.86287 -0.81108,1.74657 -0.44609,0.8837 -0.75384,1.66396 -0.68389,1.73391 0.07,0.07 4.11336,-2.68053 8.98535,-6.11219 4.87199,-3.43165 9.04927,-6.23937 9.28285,-6.23937 0.33744,0 0.42468,0.29359 0.42468,1.4292 v 1.4292 l -14.08906,8.72961 c -14.1317,8.75603 -16.33802,10.05502 -16.33802,9.61917 0,-0.12915 1.20725,-1.11384 2.68277,-2.18819 3.83659,-2.79348 3.9591,-2.91074 3.76849,-3.60701 -0.19642,-0.71747 -0.38467,-0.72833 -2.08563,-0.12026 -1.23406,0.44116 -1.32844,0.53884 -1.40504,1.45414 -0.0752,0.8985 -0.14986,0.98122 -0.8857,0.98122 -0.64949,0 -1.3028,0.46929 -3.4071,2.4474 -3.99018,3.75089 -5.51274,5.08721 -5.87615,5.15738 -0.18275,0.0353 -1.25181,-0.4112 -2.37569,-0.99219 z m 6.63129,-3.23915 0.86464,-1.12448 -1.13875,-0.1985 c -1.6869,-0.29405 -1.81928,-0.16919 -1.31309,1.23848 0.23911,0.66494 0.4995,1.20898 0.57865,1.20898 0.0791,0 0.53299,-0.50602 1.00855,-1.12448 z m 2.29277,-2.58131 c 0.51249,-0.56629 0.39544,-0.95029 -0.21793,-0.71492 -0.39383,0.15113 -0.79911,1.24571 -0.46123,1.24571 0.10934,0 0.41496,-0.23886 0.67916,-0.53079 z m 2.07188,3.5915 c 0.70378,-0.3448 1.44191,-0.85863 1.64027,-1.14184 0.36479,-0.5208 16.42641,-8.26887 17.14124,-8.26887 0.2127,0 0.46828,0.3249 0.56795,0.722 0.13592,0.54157 0.054,0.82498 -0.3276,1.13403 -0.27985,0.22661 -4.04043,1.76602 -8.35683,3.42092 -4.3164,1.6549 -7.80061,3.0563 -7.74269,3.11423 0.0579,0.0579 10.92338,-2.70084 24.14544,-6.13059 l 24.04012,-6.23591 0.46302,0.56176 c 0.50121,0.60809 0.6099,1.43947 0.21972,1.68062 -0.13382,0.0827 -10.70062,2.52267 -23.48177,5.42216 -30.07668,6.82309 -30.89492,6.98846 -28.30887,5.72149 z m 26.10478,-9.84883 c -2.62737,-0.40305 -2.45881,-0.30438 -2.2906,-1.34091 0.15156,-0.93397 1.31907,-2.45431 1.88472,-2.45431 0.3955,0 3.58088,3.24255 3.58088,3.64514 0,0.31563 -1.60218,0.39136 -3.175,0.15008 z m 15.42242,-7.36221 c -1.64072,-1.1079 -1.90974,-1.13453 -2.72242,-0.26947 -0.75266,0.80117 -1.38019,0.83275 -2.52221,0.12694 -1.07411,-0.66384 -1.18067,-0.93604 -0.92142,-2.35376 0.28423,-1.55437 0.79599,-1.97637 2.59058,-2.1362 l 1.51451,-0.13489 0.52381,-1.52136 c 0.70881,-2.05866 1.13521,-1.99239 2.55346,0.39688 1.11172,1.87287 1.13885,1.97441 1.14736,4.29429 0.0104,2.84045 -0.14889,2.95806 -2.16367,1.59757 z m -33.01394,-2.03395 c -0.6731,-0.52946 -0.71846,-0.68116 -0.5864,-1.96079 0.19779,-1.91632 0.79239,-2.75702 1.94997,-2.75702 0.79654,0 0.95924,0.11997 1.31391,0.96882 0.47867,1.1456 0.30003,2.50134 -0.47253,3.58631 -0.63066,0.88568 -1.22963,0.92987 -2.20495,0.16268 z"
         id="path369" />
      <path
         style="fill:#f3837c;stroke-width:0.264583"
         d="m 177.47558,264.15754 -47.55704,-47.55977 47.62319,-47.62536 47.62318,-47.62536 47.49371,47.49426 c 26.12154,26.12184 47.49372,47.55371 47.49372,47.62638 0,0.0886 -95.02799,95.24962 -95.11643,95.24962 -0.002,0 -21.40395,-21.4019 -47.56033,-47.55977 z m 87.77582,-7.73826 39.95154,-39.95219 -40.0179,-40.0179 -40.0179,-40.0179 -39.9522,39.95154 c -21.9737,21.97334 -39.95219,40.07128 -39.95219,40.21764 0,0.34581 79.42846,79.77101 79.77428,79.77101 0.14456,0 18.24103,-17.97849 40.21437,-39.9522 z M 190.37244,238.5823 c -0.36283,-0.36283 -0.65969,-0.7617 -0.65969,-0.88638 0,-0.12468 3.71447,-3.19595 8.25437,-6.82505 4.53991,-3.62909 8.47789,-6.77931 8.75108,-7.00049 0.48425,-0.39205 0.48285,-0.41974 -0.0558,-1.10457 l -0.55254,-0.70245 -6.55269,3.91188 c -8.1128,4.84326 -8.23483,4.90745 -8.61207,4.53022 -0.20673,-0.20674 -0.21237,-0.42439 -0.0189,-0.73105 0.15149,-0.24016 2.81916,-1.80739 5.92815,-3.48273 3.109,-1.67535 5.53848,-3.08416 5.39885,-3.13071 -0.13964,-0.0465 -1.31427,0.27381 -2.6103,0.7119 -2.92229,0.9878 -3.31549,1.00382 -3.31549,0.13506 0,-0.3638 -0.0298,-0.65941 -0.0661,-0.65692 -0.0364,0.002 -0.94008,0.23151 -2.00823,0.50892 -2.03561,0.52867 -2.62376,0.80946 -1.69553,0.80946 1.44618,0 1.92627,1.18094 0.80061,1.96938 -0.87987,0.61628 -1.24784,0.51504 -2.35387,-0.64764 l -1.00789,-1.05952 -6.08802,1.51618 c -6.1185,1.52378 -6.89063,1.58749 -6.48685,0.53526 0.0888,-0.23136 0.3497,-0.49291 0.57982,-0.58121 0.39357,-0.15103 21.10983,-4.74508 24.54381,-5.44285 2.28133,-0.46355 2.88927,-0.72825 2.57842,-1.12263 -0.14147,-0.17949 -0.33441,-0.83236 -0.42876,-1.45082 l -0.17154,-1.12448 0.86302,0.009 c 0.47467,0.005 1.51787,0.23898 2.31824,0.52052 0.80036,0.28154 1.68409,0.51578 1.96384,0.52053 0.27976,0.005 1.19309,-0.58667 2.02964,-1.31428 0.83654,-0.7276 1.66462,-1.32291 1.84018,-1.32291 0.17555,0 1.30087,0.83343 2.50071,1.85208 2.17131,1.84341 2.8249,2.15145 3.228,1.52135 0.11637,-0.1819 0.68783,-0.58541 1.26992,-0.8967 0.93647,-0.5008 1.07356,-0.69856 1.19062,-1.71742 0.1947,-1.69466 0.72802,-1.61838 2.8915,0.41354 1.01753,0.95566 1.95564,1.73756 2.08468,1.73756 0.12905,0 0.35146,0.26183 0.49425,0.58185 0.24331,0.54528 0.87827,0.66833 10.10559,1.95844 5.41527,0.75714 10.15451,1.45405 10.53164,1.54871 0.65479,0.16434 0.67845,0.23314 0.52521,1.52702 -0.0883,0.7452 -0.28452,1.47897 -0.43614,1.63059 -0.19116,0.19116 -1.34009,0.0127 -3.74818,-0.58217 -1.90988,-0.47181 -3.52505,-0.8053 -3.58926,-0.74109 -0.0642,0.0642 8e-4,0.33657 0.14469,0.60525 0.14379,0.26867 0.19909,0.81465 0.12289,1.21328 -0.15979,0.8359 -0.61334,0.90112 -3.08685,0.44386 -2.44155,-0.45134 -2.59462,-0.20549 -0.56189,0.90248 1.01864,0.55523 2.05779,1.2676 2.30922,1.58304 0.50804,0.63739 0.61941,1.49958 0.19372,1.49958 -0.15135,0 -3.03862,-1.68183 -6.41615,-3.7374 -3.37753,-2.05556 -6.23026,-3.78899 -6.3394,-3.85207 -0.10914,-0.0631 -0.19843,-0.0535 -0.19843,0.0212 0,0.0747 3.22134,2.47544 7.15853,5.33489 5.91343,4.29472 7.14446,5.29727 7.07761,5.764 -0.13751,0.95997 -0.82076,0.777 -2.77823,-0.74395 -1.03612,-0.80507 -1.95145,-1.46376 -2.03406,-1.46376 -0.0826,0 -0.0788,0.35718 0.009,0.79375 0.0995,0.4976 0.05,0.79375 -0.13268,0.79375 -0.26589,0 -9.04945,-6.91526 -10.63711,-8.37455 -0.37176,-0.34171 -0.81709,-0.62129 -0.98961,-0.62129 -0.17253,0 -1.06925,0.51729 -1.99273,1.14952 -4.16274,2.84992 -9.45944,2.65271 -13.3011,-0.49524 -0.61674,-0.50537 -1.20001,-0.91886 -1.29614,-0.91886 -0.27875,0 -3.30802,2.70151 -3.30802,2.9501 0,0.12369 0.17195,0.2249 0.38212,0.2249 0.21016,0 0.69863,0.27225 1.08547,0.605 0.68565,0.58977 0.69324,0.6292 0.30174,1.5662 -0.22089,0.52866 -0.62006,1.07666 -0.88704,1.21778 -0.81647,0.43155 -2.88117,0.23935 -3.50623,-0.32639 -0.55884,-0.5058 -0.56854,-0.50378 -1.41677,0.29584 -3.05557,2.88042 -8.59043,7.8402 -8.98482,8.05127 -0.36103,0.19322 -0.62661,0.0976 -1.13145,-0.40721 z m 40.87989,-10.32383 c 0,-0.24585 -5.79643,-4.64741 -6.12019,-4.64741 -0.52373,0 0.0739,0.51328 3.20978,2.75653 2.88256,2.06209 2.91041,2.08018 2.91041,1.89088 z m -0.0123,-4.97814 c 0.20256,-0.47294 0.41237,-0.93477 0.46625,-1.02628 0.1182,-0.20073 -3.81477,-1.28882 -4.65852,-1.28882 -1.14362,0 -0.45676,0.89129 1.56097,2.02557 1.0902,0.61286 2.04537,1.1222 2.12261,1.13186 0.0772,0.01 0.30615,-0.36939 0.50871,-0.84233 z m -47.12575,11.37708 c -0.22438,-0.1819 -0.73452,-0.77328 -1.13364,-1.31417 -0.61508,-0.83356 -0.69859,-1.14375 -0.54797,-2.03529 0.24358,-1.44174 0.75118,-1.83125 1.67514,-1.28546 0.39069,0.23079 1.00827,0.36266 1.37241,0.29305 1.09711,-0.20973 2.11588,0.3229 2.11588,1.10621 0,0.74423 -1.06126,1.97889 -1.70097,1.97889 -0.22116,0 -0.58682,0.35719 -0.81257,0.79375 -0.47279,0.91428 -0.43434,0.89589 -0.96828,0.46302 z m -16.36192,-10.50157 c 0,-0.28245 0.10749,-0.57998 0.23887,-0.66118 0.13138,-0.0812 3.52466,-0.52729 7.54063,-0.99133 4.01596,-0.46403 7.30175,-0.92652 7.30175,-1.02775 0,-0.10123 -0.23812,-0.24632 -0.52916,-0.32243 -0.81403,-0.21288 -0.64106,-1.13398 0.3557,-1.89425 0.48668,-0.37121 1.04481,-0.67492 1.2403,-0.67492 0.19549,0 1.05609,0.55046 1.91244,1.22325 l 1.55701,1.22325 2.29592,-0.18763 c 1.26275,-0.1032 2.75266,-0.26671 3.31091,-0.36336 l 1.01499,-0.17572 -1.19237,-0.8396 c -0.71941,-0.50657 -1.22696,-1.08378 -1.27957,-1.45521 l -0.0872,-0.61561 -6.54017,-0.26458 c -5.64072,-0.2282 -6.60342,-0.328 -7.00011,-0.72572 -0.94695,-0.94937 -0.17274,-1.03003 5.88952,-0.61359 6.66622,0.45794 7.92003,0.4903 9.82927,0.25375 1.01185,-0.12536 1.54623,-0.0661 1.98438,0.22011 0.35352,0.23093 1.63119,0.46685 3.11315,0.57484 3.69318,0.26912 5.0335,0.46305 4.88304,0.7065 -0.0737,0.11922 -1.29055,0.19348 -2.70414,0.16502 l -2.57018,-0.0517 -0.13564,0.78196 c -0.0958,0.5521 -0.32415,0.82645 -0.77693,0.93334 -0.35271,0.0833 -0.69541,0.31373 -0.76155,0.51216 -0.0873,0.26201 0.0521,0.31952 0.50955,0.21006 0.8971,-0.21466 6.21269,-0.54772 6.05377,-0.37931 -0.0728,0.0771 -1.62057,0.39268 -3.43958,0.70127 -4.11542,0.6982 -30.24876,4.25198 -31.2676,4.25198 -0.56303,0 -0.74699,-0.12647 -0.74699,-0.51355 z m 96.57292,-4.27426 c -5.16599,-0.26477 -11.17864,-0.5283 -13.36146,-0.58563 -4.31313,-0.11327 -15.43826,-0.8663 -17.99166,-1.2178 -1.23309,-0.16975 -0.50293,-0.22629 3.27059,-0.25323 l 4.85809,-0.0347 -0.15737,-0.8599 c -0.20131,-1.10007 -0.0334,-1.31721 1.44768,-1.87233 0.66929,-0.25085 1.49372,-0.75075 1.83205,-1.11089 l 0.61516,-0.6548 h -0.70428 c -0.38735,0 -3.77162,0.41078 -7.5206,0.91284 -10.21868,1.36848 -13.2235,1.47704 -7.68908,0.2778 3.23893,-0.70184 53.4579,-9.15435 53.89204,-9.07075 0.56985,0.10974 0.59398,2.03513 0.0297,2.36802 -0.21829,0.12877 -8.55266,1.33663 -18.52084,2.68413 -9.96818,1.34751 -18.10442,2.55813 -18.08055,2.69028 0.0239,0.13216 1.2145,0.75852 2.64584,1.39192 3.33001,1.47361 3.5152,1.65008 2.75108,2.6215 -0.5512,0.70073 -0.55695,0.75295 -0.10185,0.9239 0.39562,0.14861 19.20406,0.78183 22.64121,0.76226 1.02549,-0.006 2.22258,0.82482 1.91227,1.32692 -0.18679,0.30223 0.13213,0.31035 -11.768,-0.29955 z m -63.08415,-4.0955 c -8.27203,-1.25055 -8.88109,-1.43926 -7.50988,-2.32687 0.56063,-0.3629 1.07598,-0.2888 6.16799,0.88687 5.99378,1.38388 6.48229,1.52593 6.48229,1.88495 0,0.31565 -0.25559,0.29353 -5.1404,-0.44495 z m 12.28415,-0.64169 c -1.96966,-1.02449 -3.99348,-1.39588 -4.36152,-0.80039 -0.0903,0.14604 -0.67095,0.18784 -1.33853,0.0963 -0.83204,-0.11404 -1.17912,-0.0679 -1.17912,0.15676 0,0.43239 -0.58276,0.23274 -4.36562,-1.49564 -3.52079,-1.60865 -4.11626,-2.01642 -3.64001,-2.49267 0.23169,-0.23169 1.15163,0.15774 3.78596,1.60271 1.91395,1.04983 3.54838,1.84031 3.63206,1.75662 0.23948,-0.23948 -1.25366,-1.69182 -2.88995,-2.81098 -1.80576,-1.23507 -2.34327,-1.75104 -2.34327,-2.24934 0,-0.63467 0.59037,-0.41755 2.22892,0.8197 0.8621,0.65096 1.69554,1.17759 1.85208,1.17029 0.15654,-0.007 0.62829,-0.73793 1.04833,-1.6236 2.04675,-4.31572 7.07455,-7.08269 11.63213,-6.40157 1.98846,0.29716 2.28854,0.23638 2.28854,-0.46357 0,-0.28623 0.95766,-4.27918 2.12814,-8.87322 1.17048,-4.59404 2.08736,-8.47514 2.03751,-8.62467 -0.0498,-0.14954 -0.49291,0.25169 -0.98459,0.89162 -0.49168,0.63992 -0.9868,1.27156 -1.10026,1.40364 -0.29716,0.34592 -1.02247,-0.33516 -1.02247,-0.96013 0,-0.2876 -0.37059,-0.8691 -0.82354,-1.29221 -0.76499,-0.71462 -0.8105,-0.85623 -0.64017,-1.99207 0.26368,-1.75834 0.37952,-1.94886 1.18497,-1.94886 0.51914,0 0.81008,-0.19117 1.03192,-0.67808 0.25144,-0.55183 0.46374,-0.66267 1.14027,-0.59531 0.86065,0.0857 1.08543,0.32561 1.5649,1.67027 0.34522,0.96817 0.54467,0.69344 1.13179,-1.55898 0.50831,-1.9501 0.7522,-2.2168 1.60819,-1.75869 0.93532,0.50057 0.99247,0.87039 0.41918,2.71239 -0.28089,0.9025 -0.45599,1.69562 -0.38911,1.7625 0.0669,0.0669 0.1216,0.0626 0.1216,-0.009 0,-0.12658 5.58339,-16.01868 5.95741,-16.95666 0.23965,-0.60101 0.70515,-0.58428 1.99063,0.0715 0.70627,0.36031 1.0478,0.7114 1.0478,1.07713 0,0.29842 -2.276,6.87421 -5.05779,14.61285 -5.69641,15.84689 -6.32668,17.64215 -6.19373,17.64215 0.0517,0 1.78644,-3.30398 3.85491,-7.34219 2.06848,-4.0382 3.88333,-7.42036 4.03302,-7.51591 0.44625,-0.28487 1.5115,0.35118 1.5115,0.9025 0,0.28134 -2.50031,4.78946 -5.55625,10.01804 -3.05593,5.22857 -5.55625,9.60195 -5.55625,9.71862 0,0.43763 1.29457,1.40706 1.76234,1.31971 0.26764,-0.05 0.69369,-0.50546 0.94678,-1.01218 0.25308,-0.50672 0.92889,-1.28028 1.50179,-1.71901 0.57291,-0.43874 6.24536,-6.48294 12.60545,-13.43156 6.3601,-6.94862 11.6726,-12.63385 11.80555,-12.63385 0.32033,0 1.54059,1.22934 1.54059,1.55205 0,0.13926 -5.07314,5.38342 -11.27364,11.6537 -10.76529,10.88642 -11.23348,11.4005 -10.38302,11.4005 0.66414,0 1.25973,-0.30278 2.34208,-1.19063 0.7983,-0.65484 1.5416,-1.19062 1.65177,-1.19062 0.39869,0 0.18413,0.8409 -0.62208,2.43799 l -0.82239,1.62915 0.75624,-0.48625 c 0.41594,-0.26744 4.53401,-3.14708 9.15128,-6.3992 4.61726,-3.25212 8.57609,-5.91294 8.79739,-5.91294 0.30992,0 0.40237,0.32493 0.40237,1.41416 v 1.41417 l -13.06228,8.10776 c -13.71329,8.51185 -16.55469,10.23057 -16.9132,10.23057 -0.48602,0 0.28224,-0.68378 3.16425,-2.81628 2.63304,-1.94828 3.00237,-2.31411 2.84698,-2.82006 -0.25728,-0.83766 -0.22948,-0.83263 -1.82614,-0.33042 -1.63458,0.51415 -1.85434,0.73615 -1.77389,1.792 0.0508,0.66627 -0.0256,0.73518 -0.8147,0.73518 -0.73371,0 -1.18191,0.31515 -2.84847,2.00289 -2.26958,2.29844 -3.36461,3.09158 -2.40213,1.7399 0.31972,-0.44901 0.69482,-0.88653 0.83357,-0.97228 0.5523,-0.34134 0.18842,-0.59414 -1.10154,-0.76526 -0.74459,-0.0988 -1.4038,-0.12959 -1.46491,-0.0685 -0.0611,0.0611 0.12276,0.7044 0.40858,1.42954 l 0.51968,1.31843 -1.50984,1.49409 c -0.83042,0.82175 -1.62545,1.48819 -1.76675,1.48099 -0.14131,-0.007 -1.14988,-0.47756 -2.24129,-1.04524 z m 8.77656,-5.72955 c 0.62972,-0.56988 0.61359,-0.88503 -0.0453,-0.88503 -0.29104,0 -0.52917,0.10933 -0.52917,0.24294 0,0.13362 -0.0723,0.43128 -0.1606,0.66146 -0.20825,0.54271 0.12366,0.53396 0.73508,-0.0194 z m 2.73281,3.3483 c 0.57087,-0.29104 1.22112,-0.53099 1.44501,-0.53321 0.32594,-0.003 0.33629,-0.0489 0.0519,-0.22917 -0.27117,-0.17187 -0.17187,-0.35562 0.41988,-0.77699 1.21766,-0.86705 15.99535,-7.75741 16.34746,-7.6223 0.54705,0.20992 0.64724,1.23063 0.16755,1.70683 -0.24565,0.24386 -4.04534,1.8126 -8.44374,3.48609 -4.3984,1.67349 -7.79022,3.06891 -7.53737,3.10092 0.25285,0.032 11.11583,-2.71927 24.13994,-6.11398 16.60824,-4.3289 23.81756,-6.10212 24.14011,-5.93755 0.53189,0.27137 0.90721,1.47259 0.56583,1.81097 -0.12759,0.12647 -10.53089,2.56802 -23.11844,5.42567 -28.63286,6.50028 -30.53359,6.88361 -28.17813,5.68272 z m 25.66459,-9.70065 c -2.30274,-0.27958 -2.51354,-0.36242 -2.51354,-0.98783 0,-0.68557 0.95079,-2.20955 1.64976,-2.64435 0.38347,-0.23853 0.74325,-0.004 2.18282,1.42274 0.94802,0.93959 1.72367,1.86062 1.72367,2.04672 0,0.33294 -1.13895,0.39385 -3.04271,0.16272 z m 15.09847,-7.51891 -1.57027,-1.04566 -0.82357,0.79824 c -0.93985,0.91093 -1.44388,0.98337 -2.46133,0.35373 -1.17388,-0.72644 -1.31361,-1.02606 -1.1086,-2.37699 0.246,-1.62089 0.94929,-2.20559 2.65296,-2.20559 1.40424,0 1.50666,-0.0903 2.09938,-1.8511 0.22025,-0.6543 0.57905,-1.22242 0.79733,-1.26248 0.24641,-0.0452 0.84609,0.65658 1.58171,1.85109 1.17054,1.90076 1.18489,1.95259 1.19062,4.30001 0.007,2.85918 -0.11416,2.93309 -2.35823,1.43875 z m -32.8015,-1.91979 c -0.71951,-0.57572 -0.75924,-0.70426 -0.60919,-1.9712 0.22316,-1.88426 0.80873,-2.70195 1.93493,-2.70195 0.7802,0 0.94443,0.12442 1.30965,0.99219 0.48161,1.14431 0.35615,2.13299 -0.43261,3.40924 -0.64791,1.04834 -1.15417,1.11079 -2.20278,0.27172 z"
         id="path367" />
      <path
         style="fill:#a0a0a0;stroke-width:0.264583"
         d="m 177.74035,264.22479 c -26.01185,-26.05004 -47.29427,-47.54206 -47.29427,-47.76004 0,-0.21798 21.283,-21.67809 47.29556,-47.68914 l 47.29555,-47.2928 47.55722,47.55721 47.55721,47.55721 -47.5585,47.49563 -47.5585,47.49563 z m 87.44273,-7.47347 c 21.9384,-21.93661 39.88801,-40.06372 39.88801,-40.28248 0,-0.51991 -79.38427,-79.9057 -79.90417,-79.9057 -0.21864,0 -18.37568,17.97844 -40.34896,39.95209 l -39.95143,39.95208 40.08372,40.08438 c 22.04605,22.0464 40.14247,40.08437 40.21427,40.08437 0.0718,0 18.08015,-17.94813 40.01856,-39.88474 z M 190.37244,238.5823 c -0.36283,-0.36283 -0.65969,-0.7617 -0.65969,-0.88638 0,-0.12468 3.71447,-3.19595 8.25437,-6.82505 4.53991,-3.62909 8.47789,-6.77931 8.75108,-7.00049 0.48425,-0.39205 0.48285,-0.41974 -0.0558,-1.10457 l -0.55254,-0.70245 -6.55269,3.91188 c -8.1128,4.84326 -8.23483,4.90745 -8.61207,4.53022 -0.20673,-0.20674 -0.21237,-0.42439 -0.0189,-0.73105 0.15149,-0.24016 2.81916,-1.80739 5.92815,-3.48273 3.109,-1.67535 5.53848,-3.08416 5.39885,-3.13071 -0.13964,-0.0465 -1.31427,0.27381 -2.6103,0.7119 -2.92229,0.9878 -3.31549,1.00382 -3.31549,0.13506 0,-0.3638 -0.0298,-0.65941 -0.0661,-0.65692 -0.0364,0.002 -0.94008,0.23151 -2.00823,0.50892 -2.03561,0.52867 -2.62376,0.80946 -1.69553,0.80946 1.44618,0 1.92627,1.18094 0.80061,1.96938 -0.87987,0.61628 -1.24784,0.51504 -2.35387,-0.64764 l -1.00789,-1.05952 -6.08802,1.51618 c -6.1185,1.52378 -6.89063,1.58749 -6.48685,0.53526 0.0888,-0.23136 0.3497,-0.49291 0.57982,-0.58121 0.39357,-0.15103 21.10983,-4.74508 24.54381,-5.44285 2.28133,-0.46355 2.88927,-0.72825 2.57842,-1.12263 -0.14147,-0.17949 -0.33441,-0.83236 -0.42876,-1.45082 l -0.17154,-1.12448 0.86302,0.009 c 0.47467,0.005 1.51787,0.23898 2.31824,0.52052 0.80036,0.28154 1.68409,0.51578 1.96384,0.52053 0.27976,0.005 1.19309,-0.58667 2.02964,-1.31428 0.83654,-0.7276 1.66462,-1.32291 1.84018,-1.32291 0.17555,0 1.30087,0.83343 2.50071,1.85208 2.17131,1.84341 2.8249,2.15145 3.228,1.52135 0.11637,-0.1819 0.68783,-0.58541 1.26992,-0.8967 0.93647,-0.5008 1.07356,-0.69856 1.19062,-1.71742 0.1947,-1.69466 0.72802,-1.61838 2.8915,0.41354 1.01753,0.95566 1.95564,1.73756 2.08468,1.73756 0.12905,0 0.35146,0.26183 0.49425,0.58185 0.24331,0.54528 0.87827,0.66833 10.10559,1.95844 5.41527,0.75714 10.15451,1.45405 10.53164,1.54871 0.65479,0.16434 0.67845,0.23314 0.52521,1.52702 -0.0883,0.7452 -0.28452,1.47897 -0.43614,1.63059 -0.19116,0.19116 -1.34009,0.0127 -3.74818,-0.58217 -1.90988,-0.47181 -3.52505,-0.8053 -3.58926,-0.74109 -0.0642,0.0642 8e-4,0.33657 0.14469,0.60525 0.14379,0.26867 0.19909,0.81465 0.12289,1.21328 -0.15979,0.8359 -0.61334,0.90112 -3.08685,0.44386 -2.44155,-0.45134 -2.59462,-0.20549 -0.56189,0.90248 1.01864,0.55523 2.05779,1.2676 2.30922,1.58304 0.50804,0.63739 0.61941,1.49958 0.19372,1.49958 -0.15135,0 -3.03862,-1.68183 -6.41615,-3.7374 -3.37753,-2.05556 -6.23026,-3.78899 -6.3394,-3.85207 -0.10914,-0.0631 -0.19843,-0.0535 -0.19843,0.0212 0,0.0747 3.22134,2.47544 7.15853,5.33489 5.91343,4.29472 7.14446,5.29727 7.07761,5.764 -0.13751,0.95997 -0.82076,0.777 -2.77823,-0.74395 -1.03612,-0.80507 -1.95145,-1.46376 -2.03406,-1.46376 -0.0826,0 -0.0788,0.35718 0.009,0.79375 0.0995,0.4976 0.05,0.79375 -0.13268,0.79375 -0.26589,0 -9.04945,-6.91526 -10.63711,-8.37455 -0.37176,-0.34171 -0.81709,-0.62129 -0.98961,-0.62129 -0.17253,0 -1.06925,0.51729 -1.99273,1.14952 -4.16274,2.84992 -9.45944,2.65271 -13.3011,-0.49524 -0.61674,-0.50537 -1.20001,-0.91886 -1.29614,-0.91886 -0.27875,0 -3.30802,2.70151 -3.30802,2.9501 0,0.12369 0.17195,0.2249 0.38212,0.2249 0.21016,0 0.69863,0.27225 1.08547,0.605 0.68565,0.58977 0.69324,0.6292 0.30174,1.5662 -0.22089,0.52866 -0.62006,1.07666 -0.88704,1.21778 -0.81647,0.43155 -2.88117,0.23935 -3.50623,-0.32639 -0.55884,-0.5058 -0.56854,-0.50378 -1.41677,0.29584 -3.05557,2.88042 -8.59043,7.8402 -8.98482,8.05127 -0.36103,0.19322 -0.62661,0.0976 -1.13145,-0.40721 z m 40.87989,-10.32383 c 0,-0.24585 -5.79643,-4.64741 -6.12019,-4.64741 -0.52373,0 0.0739,0.51328 3.20978,2.75653 2.88256,2.06209 2.91041,2.08018 2.91041,1.89088 z m -0.0123,-4.97814 c 0.20256,-0.47294 0.41237,-0.93477 0.46625,-1.02628 0.1182,-0.20073 -3.81477,-1.28882 -4.65852,-1.28882 -1.14362,0 -0.45676,0.89129 1.56097,2.02557 1.0902,0.61286 2.04537,1.1222 2.12261,1.13186 0.0772,0.01 0.30615,-0.36939 0.50871,-0.84233 z m -47.12575,11.37708 c -0.22438,-0.1819 -0.73452,-0.77328 -1.13364,-1.31417 -0.61508,-0.83356 -0.69859,-1.14375 -0.54797,-2.03529 0.24358,-1.44174 0.75118,-1.83125 1.67514,-1.28546 0.39069,0.23079 1.00827,0.36266 1.37241,0.29305 1.09711,-0.20973 2.11588,0.3229 2.11588,1.10621 0,0.74423 -1.06126,1.97889 -1.70097,1.97889 -0.22116,0 -0.58682,0.35719 -0.81257,0.79375 -0.47279,0.91428 -0.43434,0.89589 -0.96828,0.46302 z m -16.36192,-10.50157 c 0,-0.28245 0.10749,-0.57998 0.23887,-0.66118 0.13138,-0.0812 3.52466,-0.52729 7.54063,-0.99133 4.01596,-0.46403 7.30175,-0.92652 7.30175,-1.02775 0,-0.10123 -0.23812,-0.24632 -0.52916,-0.32243 -0.81403,-0.21288 -0.64106,-1.13398 0.3557,-1.89425 0.48668,-0.37121 1.04481,-0.67492 1.2403,-0.67492 0.19549,0 1.05609,0.55046 1.91244,1.22325 l 1.55701,1.22325 2.29592,-0.18763 c 1.26275,-0.1032 2.75266,-0.26671 3.31091,-0.36336 l 1.01499,-0.17572 -1.19237,-0.8396 c -0.71941,-0.50657 -1.22696,-1.08378 -1.27957,-1.45521 l -0.0872,-0.61561 -6.54017,-0.26458 c -5.64072,-0.2282 -6.60342,-0.328 -7.00011,-0.72572 -0.94695,-0.94937 -0.17274,-1.03003 5.88952,-0.61359 6.66622,0.45794 7.92003,0.4903 9.82927,0.25375 1.01185,-0.12536 1.54623,-0.0661 1.98438,0.22011 0.35352,0.23093 1.63119,0.46685 3.11315,0.57484 3.69318,0.26912 5.0335,0.46305 4.88304,0.7065 -0.0737,0.11922 -1.29055,0.19348 -2.70414,0.16502 l -2.57018,-0.0517 -0.13564,0.78196 c -0.0958,0.5521 -0.32415,0.82645 -0.77693,0.93334 -0.35271,0.0833 -0.69541,0.31373 -0.76155,0.51216 -0.0873,0.26201 0.0521,0.31952 0.50955,0.21006 0.8971,-0.21466 6.21269,-0.54772 6.05377,-0.37931 -0.0728,0.0771 -1.62057,0.39268 -3.43958,0.70127 -4.11542,0.6982 -30.24876,4.25198 -31.2676,4.25198 -0.56303,0 -0.74699,-0.12647 -0.74699,-0.51355 z m 96.57292,-4.27426 c -5.16599,-0.26477 -11.17864,-0.5283 -13.36146,-0.58563 -4.31313,-0.11327 -15.43826,-0.8663 -17.99166,-1.2178 -1.23309,-0.16975 -0.50293,-0.22629 3.27059,-0.25323 l 4.85809,-0.0347 -0.15737,-0.8599 c -0.20131,-1.10007 -0.0334,-1.31721 1.44768,-1.87233 0.66929,-0.25085 1.49372,-0.75075 1.83205,-1.11089 l 0.61516,-0.6548 h -0.70428 c -0.38735,0 -3.77162,0.41078 -7.5206,0.91284 -10.21868,1.36848 -13.2235,1.47704 -7.68908,0.2778 3.23893,-0.70184 53.4579,-9.15435 53.89204,-9.07075 0.56985,0.10974 0.59398,2.03513 0.0297,2.36802 -0.21829,0.12877 -8.55266,1.33663 -18.52084,2.68413 -9.96818,1.34751 -18.10442,2.55813 -18.08055,2.69028 0.0239,0.13216 1.2145,0.75852 2.64584,1.39192 3.33001,1.47361 3.5152,1.65008 2.75108,2.6215 -0.5512,0.70073 -0.55695,0.75295 -0.10185,0.9239 0.39562,0.14861 19.20406,0.78183 22.64121,0.76226 1.02549,-0.006 2.22258,0.82482 1.91227,1.32692 -0.18679,0.30223 0.13213,0.31035 -11.768,-0.29955 z m -63.08415,-4.0955 c -8.27203,-1.25055 -8.88109,-1.43926 -7.50988,-2.32687 0.56063,-0.3629 1.07598,-0.2888 6.16799,0.88687 5.99378,1.38388 6.48229,1.52593 6.48229,1.88495 0,0.31565 -0.25559,0.29353 -5.1404,-0.44495 z m 12.28415,-0.64169 c -1.96966,-1.02449 -3.99348,-1.39588 -4.36152,-0.80039 -0.0903,0.14604 -0.67095,0.18784 -1.33853,0.0963 -0.83204,-0.11404 -1.17912,-0.0679 -1.17912,0.15676 0,0.43239 -0.58276,0.23274 -4.36562,-1.49564 -3.52079,-1.60865 -4.11626,-2.01642 -3.64001,-2.49267 0.23169,-0.23169 1.15163,0.15774 3.78596,1.60271 1.91395,1.04983 3.54838,1.84031 3.63206,1.75662 0.23948,-0.23948 -1.25366,-1.69182 -2.88995,-2.81098 -1.80576,-1.23507 -2.34327,-1.75104 -2.34327,-2.24934 0,-0.63467 0.59037,-0.41755 2.22892,0.8197 0.8621,0.65096 1.69554,1.17759 1.85208,1.17029 0.15654,-0.007 0.62829,-0.73793 1.04833,-1.6236 2.04675,-4.31572 7.07455,-7.08269 11.63213,-6.40157 1.98846,0.29716 2.28854,0.23638 2.28854,-0.46357 0,-0.28623 0.95766,-4.27918 2.12814,-8.87322 1.17048,-4.59404 2.08736,-8.47514 2.03751,-8.62467 -0.0498,-0.14954 -0.49291,0.25169 -0.98459,0.89162 -0.49168,0.63992 -0.9868,1.27156 -1.10026,1.40364 -0.29716,0.34592 -1.02247,-0.33516 -1.02247,-0.96013 0,-0.2876 -0.37059,-0.8691 -0.82354,-1.29221 -0.76499,-0.71462 -0.8105,-0.85623 -0.64017,-1.99207 0.26368,-1.75834 0.37952,-1.94886 1.18497,-1.94886 0.51914,0 0.81008,-0.19117 1.03192,-0.67808 0.25144,-0.55183 0.46374,-0.66267 1.14027,-0.59531 0.86065,0.0857 1.08543,0.32561 1.5649,1.67027 0.34522,0.96817 0.54467,0.69344 1.13179,-1.55898 0.50831,-1.9501 0.7522,-2.2168 1.60819,-1.75869 0.93532,0.50057 0.99247,0.87039 0.41918,2.71239 -0.28089,0.9025 -0.45599,1.69562 -0.38911,1.7625 0.0669,0.0669 0.1216,0.0626 0.1216,-0.009 0,-0.12658 5.58339,-16.01868 5.95741,-16.95666 0.23965,-0.60101 0.70515,-0.58428 1.99063,0.0715 0.70627,0.36031 1.0478,0.7114 1.0478,1.07713 0,0.29842 -2.276,6.87421 -5.05779,14.61285 -5.69641,15.84689 -6.32668,17.64215 -6.19373,17.64215 0.0517,0 1.78644,-3.30398 3.85491,-7.34219 2.06848,-4.0382 3.88333,-7.42036 4.03302,-7.51591 0.44625,-0.28487 1.5115,0.35118 1.5115,0.9025 0,0.28134 -2.50031,4.78946 -5.55625,10.01804 -3.05593,5.22857 -5.55625,9.60195 -5.55625,9.71862 0,0.43763 1.29457,1.40706 1.76234,1.31971 0.26764,-0.05 0.69369,-0.50546 0.94678,-1.01218 0.25308,-0.50672 0.92889,-1.28028 1.50179,-1.71901 0.57291,-0.43874 6.24536,-6.48294 12.60545,-13.43156 6.3601,-6.94862 11.6726,-12.63385 11.80555,-12.63385 0.32033,0 1.54059,1.22934 1.54059,1.55205 0,0.13926 -5.07314,5.38342 -11.27364,11.6537 -10.76529,10.88642 -11.23348,11.4005 -10.38302,11.4005 0.66414,0 1.25973,-0.30278 2.34208,-1.19063 0.7983,-0.65484 1.5416,-1.19062 1.65177,-1.19062 0.39869,0 0.18413,0.8409 -0.62208,2.43799 l -0.82239,1.62915 0.75624,-0.48625 c 0.41594,-0.26744 4.53401,-3.14708 9.15128,-6.3992 4.61726,-3.25212 8.57609,-5.91294 8.79739,-5.91294 0.30992,0 0.40237,0.32493 0.40237,1.41416 v 1.41417 l -13.06228,8.10776 c -13.71329,8.51185 -16.55469,10.23057 -16.9132,10.23057 -0.48602,0 0.28224,-0.68378 3.16425,-2.81628 2.63304,-1.94828 3.00237,-2.31411 2.84698,-2.82006 -0.25728,-0.83766 -0.22948,-0.83263 -1.82614,-0.33042 -1.63458,0.51415 -1.85434,0.73615 -1.77389,1.792 0.0508,0.66627 -0.0256,0.73518 -0.8147,0.73518 -0.73371,0 -1.18191,0.31515 -2.84847,2.00289 -2.26958,2.29844 -3.36461,3.09158 -2.40213,1.7399 0.31972,-0.44901 0.69482,-0.88653 0.83357,-0.97228 0.5523,-0.34134 0.18842,-0.59414 -1.10154,-0.76526 -0.74459,-0.0988 -1.4038,-0.12959 -1.46491,-0.0685 -0.0611,0.0611 0.12276,0.7044 0.40858,1.42954 l 0.51968,1.31843 -1.50984,1.49409 c -0.83042,0.82175 -1.62545,1.48819 -1.76675,1.48099 -0.14131,-0.007 -1.14988,-0.47756 -2.24129,-1.04524 z m 8.77656,-5.72955 c 0.62972,-0.56988 0.61359,-0.88503 -0.0453,-0.88503 -0.29104,0 -0.52917,0.10933 -0.52917,0.24294 0,0.13362 -0.0723,0.43128 -0.1606,0.66146 -0.20825,0.54271 0.12366,0.53396 0.73508,-0.0194 z m 2.73281,3.3483 c 0.57087,-0.29104 1.22112,-0.53099 1.44501,-0.53321 0.32594,-0.003 0.33629,-0.0489 0.0519,-0.22917 -0.27117,-0.17187 -0.17187,-0.35562 0.41988,-0.77699 1.21766,-0.86705 15.99535,-7.75741 16.34746,-7.6223 0.54705,0.20992 0.64724,1.23063 0.16755,1.70683 -0.24565,0.24386 -4.04534,1.8126 -8.44374,3.48609 -4.3984,1.67349 -7.79022,3.06891 -7.53737,3.10092 0.25285,0.032 11.11583,-2.71927 24.13994,-6.11398 16.60824,-4.3289 23.81756,-6.10212 24.14011,-5.93755 0.53189,0.27137 0.90721,1.47259 0.56583,1.81097 -0.12759,0.12647 -10.53089,2.56802 -23.11844,5.42567 -28.63286,6.50028 -30.53359,6.88361 -28.17813,5.68272 z m 25.66459,-9.70065 c -2.30274,-0.27958 -2.51354,-0.36242 -2.51354,-0.98783 0,-0.68557 0.95079,-2.20955 1.64976,-2.64435 0.38347,-0.23853 0.74325,-0.004 2.18282,1.42274 0.94802,0.93959 1.72367,1.86062 1.72367,2.04672 0,0.33294 -1.13895,0.39385 -3.04271,0.16272 z m 15.09847,-7.51891 -1.57027,-1.04566 -0.82357,0.79824 c -0.93985,0.91093 -1.44388,0.98337 -2.46133,0.35373 -1.17388,-0.72644 -1.31361,-1.02606 -1.1086,-2.37699 0.246,-1.62089 0.94929,-2.20559 2.65296,-2.20559 1.40424,0 1.50666,-0.0903 2.09938,-1.8511 0.22025,-0.6543 0.57905,-1.22242 0.79733,-1.26248 0.24641,-0.0452 0.84609,0.65658 1.58171,1.85109 1.17054,1.90076 1.18489,1.95259 1.19062,4.30001 0.007,2.85918 -0.11416,2.93309 -2.35823,1.43875 z m -32.8015,-1.91979 c -0.71951,-0.57572 -0.75924,-0.70426 -0.60919,-1.9712 0.22316,-1.88426 0.80873,-2.70195 1.93493,-2.70195 0.7802,0 0.94443,0.12442 1.30965,0.99219 0.48161,1.14431 0.35615,2.13299 -0.43261,3.40924 -0.64791,1.04834 -1.15417,1.11079 -2.20278,0.27172 z"
         id="path365" />
      <path
         style="fill:#f05f55;stroke-width:0.264583"
         d="m 177.74035,264.22479 c -26.01185,-26.05004 -47.29427,-47.54206 -47.29427,-47.76004 0,-0.21798 21.283,-21.67809 47.29556,-47.68914 l 47.29555,-47.2928 47.55722,47.55721 47.55721,47.55721 -47.5585,47.49563 -47.5585,47.49563 z m 87.44273,-7.47347 c 21.9384,-21.93661 39.88801,-40.06372 39.88801,-40.28248 0,-0.51991 -79.38427,-79.9057 -79.90417,-79.9057 -0.21864,0 -18.37568,17.97844 -40.34896,39.95209 l -39.95143,39.95208 40.08372,40.08438 c 22.04605,22.0464 40.14247,40.08437 40.21427,40.08437 0.0718,0 18.08015,-17.94813 40.01856,-39.88474 z M 190.41724,238.2107 c -0.40839,-0.45127 -0.39013,-0.52385 0.28973,-1.15202 1.54864,-1.4309 15.37117,-12.33175 16.2037,-12.77872 0.21828,-0.11719 -0.34727,0.55078 -1.25677,1.48436 -1.72113,1.76671 -1.91234,2.08007 -1.26922,2.08007 0.21143,0 0.68768,0.13818 1.05833,0.30706 0.76761,0.34974 0.91244,1.38225 0.30955,2.20675 -0.53826,0.73612 -2.99647,0.77619 -3.78841,0.0618 -0.56924,-0.51354 -0.59398,-0.51411 -1.23356,-0.0284 -0.35896,0.27257 -2.55558,2.25176 -4.88137,4.3982 -2.32579,2.14643 -4.40138,3.9026 -4.61242,3.9026 -0.21104,0 -0.57984,-0.21673 -0.81956,-0.48161 z m 47.45429,-5.23865 c -1.2344,-0.95447 -4.41932,-3.46411 -7.07761,-5.57699 -7.75124,-6.16088 -6.30795,-5.34957 4.95633,2.78608 4.42723,3.19758 5.46438,4.19351 4.63021,4.44617 -0.14552,0.0441 -1.27454,-0.70079 -2.50893,-1.65526 z m -54.52669,0.36245 c -0.62695,-0.86505 -0.77957,-1.30179 -0.66154,-1.89301 0.25092,-1.25692 0.60847,-1.53072 1.43842,-1.10154 0.38816,0.20072 1.01768,0.30532 1.39894,0.23244 0.87173,-0.16664 1.81084,0.31856 1.81084,0.93559 0,0.64722 -0.96656,1.62808 -1.60436,1.62808 -0.31698,0 -0.62517,0.2624 -0.77689,0.66146 -0.35097,0.92311 -0.66683,0.83201 -1.60541,-0.46302 z m 48.79041,-2.95074 c -1.86806,-1.51377 -3.87271,-3.18863 -4.45479,-3.72191 l -1.05833,-0.96961 1.32291,0.86269 c 3.39136,2.21154 7.75204,5.55548 7.87931,6.04217 0.0775,0.29643 0.0434,0.53896 -0.0759,0.53896 -0.11924,0 -1.74521,-1.23854 -3.61325,-2.7523 z m -40.83482,-0.48885 c 1.1e-4,-0.1819 1.68757,-1.22369 3.74993,-2.3151 4.00196,-2.11785 5.24572,-2.71776 5.24572,-2.53016 0,0.18962 -8.38596,5.17599 -8.70487,5.17599 -0.16003,0 -0.29088,-0.14882 -0.29078,-0.33073 z m 43.12196,-2.52049 c -7.17487,-4.42291 -8.29186,-5.27726 -4.22839,-3.23419 1.15771,0.58208 2.18937,1.05833 2.29259,1.05833 0.10321,0 -0.15258,-0.35514 -0.56843,-0.78919 -0.74367,-0.77623 -0.74795,-0.79819 -0.26026,-1.33708 0.4088,-0.45172 0.68375,-0.5174 1.56649,-0.3742 0.74932,0.12155 0.99079,0.0896 0.80457,-0.1064 -0.36003,-0.37898 -7.02064,-2.13492 -7.45943,-1.96655 -0.19187,0.0736 -0.42377,0.44816 -0.51534,0.83229 -0.0916,0.38413 -0.28371,0.84725 -0.42699,1.02915 -0.14327,0.1819 -0.15662,0.33828 -0.0297,0.3475 0.12696,0.009 -0.0371,0.12445 -0.36448,0.25606 -0.32742,0.13161 -0.59606,0.39195 -0.59698,0.57854 -8e-4,0.18659 -0.32834,0.55032 -0.72761,0.80828 -2.992,1.93315 -3.78999,2.3715 -4.94114,2.7143 -2.23763,0.66634 -5.55511,0.37559 -7.57095,-0.66352 -0.99955,-0.51524 -3.94255,-2.75651 -3.94996,-3.00813 -0.004,-0.12306 -0.26019,-0.57989 -0.57014,-1.01518 -0.69841,-0.98082 -0.97154,-0.94669 -6.23803,0.77945 -2.06738,0.6776 -3.84623,1.14464 -3.953,1.03787 -0.45246,-0.45245 0.81426,-1.02926 4.67114,-2.12701 4.5921,-1.30701 4.35065,-1.07528 3.8311,-3.67691 -0.17542,-0.8784 -0.13824,-0.99219 0.32422,-0.99219 0.2873,0 1.21449,0.23813 2.06041,0.52917 0.84593,0.29104 1.79855,0.52917 2.11693,0.52917 0.31837,0 1.25916,-0.59532 2.09064,-1.32292 0.83147,-0.7276 1.61597,-1.32292 1.74333,-1.32292 0.12736,0 1.21668,0.83344 2.42073,1.85209 1.20404,1.01864 2.37283,1.84564 2.59731,1.83777 0.22448,-0.008 1.06299,-0.45729 1.86336,-0.99871 1.2737,-0.86161 1.47216,-1.11559 1.59113,-2.03621 0.0938,-0.726 0.25227,-1.02632 0.51149,-0.96951 0.51703,0.1133 2.39529,1.6253 2.39529,1.9282 0,0.13543 0.37045,0.47151 0.82321,0.74686 0.45276,0.27534 0.95878,0.77122 1.12448,1.10196 0.28515,0.56915 0.84649,0.67693 10.48773,2.01365 5.60255,0.77676 10.35019,1.47174 10.5503,1.54438 0.27122,0.0985 0.31829,0.41721 0.18489,1.25216 -0.0984,0.61604 -0.28711,1.22839 -0.41933,1.36077 -0.14432,0.14451 -1.53989,-0.0937 -3.49218,-0.59613 -1.78849,-0.46025 -3.46016,-0.83645 -3.71483,-0.83601 -0.50352,8e-4 -0.62306,0.39984 -0.19843,0.66227 0.14552,0.0899 0.26458,0.57322 0.26458,1.07395 0,1.07338 0.002,1.07312 -3.175,0.51355 -3.8847,-0.68428 -4.0077,-0.51232 -0.85863,1.20042 1.12709,0.61302 2.25761,1.29676 2.51228,1.51944 0.46878,0.4099 0.6331,1.1166 0.25963,1.1166 -0.11186,0 -2.28475,-1.28305 -4.82864,-2.85122 z m -56.56686,-0.25763 c 0.0713,-0.37581 1.25854,-0.72397 6.30326,-1.84843 8.53931,-1.9034 12.9689,-2.79722 13.11893,-2.64719 0.0696,0.0696 -0.91946,0.38409 -2.19788,0.69892 -1.27841,0.31483 -2.86016,0.74426 -3.51501,0.9543 -1.04622,0.33557 -13.32471,3.30542 -13.66585,3.30542 -0.0722,0 -0.0918,-0.20836 -0.0435,-0.46302 z m 13.62651,-1.07281 c -0.39103,-0.40815 -0.71096,-0.83109 -0.71096,-0.93987 0,-0.10878 0.62508,-0.1618 1.38906,-0.11781 1.20981,0.0696 1.39997,0.15674 1.47356,0.67485 0.0624,0.43967 -0.0974,0.66404 -0.61254,0.8599 -0.38336,0.14575 -0.72653,0.26501 -0.76259,0.26501 -0.0361,0 -0.3855,-0.33394 -0.77653,-0.74208 z m -23.46513,-1.88814 c 0,-0.13693 0.12134,-0.32396 0.26965,-0.41562 0.20268,-0.12526 15.38057,-1.94667 16.46525,-1.9759 0.10914,-0.003 0.19844,-0.11584 0.19844,-0.25089 0,-0.13505 -0.65485,-0.32736 -1.45521,-0.42736 -1.16315,-0.14533 -1.45521,-0.27828 -1.45521,-0.66248 0,-0.50905 1.2922,-1.57965 1.89293,-1.56831 0.19582,0.004 1.06826,0.59901 1.93875,1.32291 0.8705,0.72392 1.81308,1.3162 2.09462,1.3162 1.5488,0 -0.6854,0.38341 -9.20945,1.58043 -9.9901,1.4029 -10.73977,1.47836 -10.73977,1.08102 z m 26.38954,-4.14153 c -1.58687,-0.57436 -2.57703,-1.43189 -2.57703,-2.23184 v -0.70199 l -6.72546,-0.24044 c -3.699,-0.13224 -6.81645,-0.33172 -6.92767,-0.44329 -0.60429,-0.60616 0.62077,-0.67623 5.45305,-0.31188 5.96708,0.44991 8.42609,0.51261 9.95173,0.25378 0.77864,-0.13211 1.32308,-0.0645 1.90509,0.23643 0.44819,0.23177 1.15815,0.4214 1.57769,0.4214 0.99107,0 1.07921,0.11454 0.8721,1.13334 -0.12451,0.61246 -0.33897,0.87497 -0.76504,0.93643 -0.32562,0.047 -0.78138,0.3744 -1.01282,0.72761 -0.47187,0.72016 -0.397,0.71074 -1.75164,0.22045 z m 75.47505,-0.13468 c -7.32427,-0.38171 -19.6566,-0.92343 -21.90176,-0.96208 -1.29673,-0.0223 -2.50002,-0.19221 -2.94948,-0.41643 -0.45989,-0.22943 -0.90023,-0.28934 -1.11699,-0.15199 -0.55011,0.3486 -2.34342,0.27909 -2.4737,-0.0959 -0.0632,-0.1819 -0.14876,-0.8008 -0.19014,-1.37532 -0.0719,-0.9988 -0.0285,-1.06259 0.98988,-1.45521 0.5858,-0.22584 1.49001,-0.73804 2.00935,-1.13822 0.51934,-0.40018 1.12602,-0.72761 1.34818,-0.72761 0.46137,0 5.76777,2.30095 6.14397,2.66413 0.15236,0.1471 0.0249,0.47656 -0.33073,0.85515 -1.0607,1.12907 -0.79043,1.50792 1.07507,1.50696 5.36855,-0.003 22.12451,0.59539 22.63679,0.80808 0.77673,0.32248 0.50576,0.7924 -0.42741,0.74121 -0.39159,-0.0215 -2.55746,-0.13524 -4.81303,-0.25279 z m -56.4703,-5.04035 -2.09842,-1.07241 -2.22725,0.18553 -2.22725,0.18553 -1.23058,-1.31146 c -0.67682,-0.7213 -1.91519,-1.74352 -2.75193,-2.2716 -0.83674,-0.52809 -1.52135,-1.0807 -1.52135,-1.22802 0,-0.46033 0.31722,-0.30458 1.87941,0.92275 0.83351,0.65485 1.61904,1.19063 1.74562,1.19063 0.12658,0 0.6179,-0.78635 1.09184,-1.74743 2.31017,-4.68479 7.16877,-7.35077 11.83086,-6.49175 0.95209,0.17543 1.83725,0.25335 1.96702,0.17314 0.32156,-0.19873 0.95993,-2.52046 1.31051,-4.76626 0.15902,-1.01864 0.99499,-4.64727 1.85772,-8.06361 0.86273,-3.41635 1.50354,-6.27385 1.42403,-6.35 -0.0795,-0.0762 -0.71819,0.49921 -1.41928,1.2786 -0.7011,0.77939 -1.39364,1.34357 -1.539,1.25374 -0.14535,-0.0898 -0.3405,-0.5104 -0.43367,-0.9346 -0.0932,-0.42419 -0.45951,-0.96135 -0.81411,-1.19369 -0.71256,-0.46689 -0.77426,-0.85915 -0.36621,-2.32846 0.21802,-0.78504 0.4047,-0.99218 0.89414,-0.99218 0.37176,0 0.79571,-0.27032 1.06246,-0.67744 0.32312,-0.49313 0.63155,-0.65509 1.13373,-0.59531 0.56772,0.0676 0.7679,0.31631 1.13075,1.40504 0.67241,2.01758 0.79836,1.86856 1.84493,-2.18281 0.31263,-1.21023 0.73003,-1.40271 1.41073,-0.65054 0.3983,0.44012 0.34599,0.72813 -0.73275,4.0349 -2.47776,7.59526 -4.12942,13.03389 -4.03987,13.30253 0.11101,0.33305 0.73283,-1.37072 6.45225,-17.67908 2.39863,-6.83948 4.46779,-12.54458 4.59812,-12.678 0.36895,-0.37768 2.37118,0.63003 2.37118,1.1934 0,0.26047 -2.73843,8.10744 -6.08541,17.43772 -3.34698,9.33028 -6.08163,17.10605 -6.07701,17.27947 0.0182,0.68265 0.98135,-1.05948 4.9179,-8.89564 3.64279,-7.25138 4.15962,-8.14348 4.67514,-8.0698 0.31878,0.0456 0.61623,0.2752 0.661,0.5103 0.079,0.41504 -3.91672,7.46372 -8.70446,15.35502 -1.29345,2.13192 -2.35174,4.1072 -2.35174,4.38951 0,0.57361 1.74094,1.94677 2.23016,1.75904 0.17126,-0.0657 0.53165,-0.50271 0.80086,-0.97109 0.26921,-0.46838 1.23829,-1.56597 2.15353,-2.4391 0.91523,-0.87312 6.51051,-6.88578 12.43396,-13.36146 5.92345,-6.47567 10.96729,-11.80896 11.20853,-11.85175 0.24124,-0.0428 0.65476,0.16105 0.91895,0.45297 0.47243,0.52203 0.29251,0.72089 -10.94017,12.0916 -6.89021,6.97489 -11.32465,11.65669 -11.17887,11.80247 0.45783,0.45783 2.18191,-0.12341 3.42823,-1.15577 0.91075,-0.75439 1.27051,-0.92758 1.33145,-0.64095 0.10734,0.50485 -1.12308,2.66741 -2.17677,3.82586 l -0.81715,0.89838 0.79375,-0.45408 c 0.43656,-0.24974 5.00438,-3.42221 10.15071,-7.04994 5.14633,-3.62773 9.46887,-6.59587 9.60564,-6.59587 0.13678,0 0.2124,0.5634 0.16804,1.25199 l -0.0806,1.25199 -11.96477,7.41312 c -12.3942,7.67917 -14.09669,8.70511 -14.09669,8.49481 0,-0.0686 0.71014,-0.67117 1.57808,-1.33904 1.51843,-1.1684 1.56614,-1.2415 1.26216,-1.93369 -0.44279,-1.00827 -0.71856,-1.13245 -1.55469,-0.70007 -0.40156,0.20766 -0.95169,0.37756 -1.22252,0.37756 -0.8272,0 -1.67822,0.98818 -1.49154,1.73195 0.1444,0.57536 0.0768,0.64976 -0.59333,0.65335 -0.41596,0.002 -0.93089,0.11448 -1.14429,0.24945 -0.24369,0.15413 -0.50888,0.14506 -0.71304,-0.0244 -0.63602,-0.52785 -1.48565,-0.13983 -1.81565,0.82919 l -0.31537,0.92605 -1.62511,-0.0861 c -1.79367,-0.095 -1.84728,-0.0317 -1.22824,1.44982 0.21828,0.52242 0.39687,1.0407 0.39687,1.15173 0,0.36498 -2.43915,3.17339 -2.74438,3.15986 -0.16408,-0.007 -1.24262,-0.49581 -2.39675,-1.08564 z m -14.70262,0.27685 c -4.70696,-0.74715 -5.02708,-0.82269 -5.02708,-1.18627 0,-0.58673 1.36308,-0.4503 5.29167,0.52964 2.80903,0.70068 3.31759,0.89061 2.38125,0.88929 -0.65485,-7.9e-4 -1.84547,-0.10562 -2.64584,-0.23266 z m 35.76818,-1.16769 c 0.21857,-0.21857 2.87685,-0.69018 26.07555,-4.62608 12.0371,-2.04223 22.03701,-3.65505 22.222,-3.58406 0.4344,0.16669 0.43906,1.71326 0.006,1.86739 -0.1819,0.0647 -9.55808,1.36562 -20.83594,2.89098 -28.06499,3.79584 -27.77485,3.75938 -27.46724,3.45177 z m -34.67448,-2.41082 c -0.48987,-0.21374 -0.82835,-0.45093 -0.75219,-0.5271 0.14624,-0.14624 1.77516,0.61848 1.77516,0.83338 0,0.15025 0.0745,0.17256 -1.02297,-0.30628 z m 34.75735,-0.91496 c 2.71987,-0.91685 40.18868,-10.58037 40.71881,-10.50172 0.66957,0.0993 1.16802,0.89141 0.79544,1.264 -0.33492,0.33492 -39.31639,9.23556 -42.308,9.66019 -0.43657,0.062 -0.0794,-0.12815 0.79375,-0.42247 z m -4.7625,-0.45712 c 0.4576,-0.47705 13.15133,-6.3958 13.39451,-6.24551 0.12734,0.0787 0.23153,0.41761 0.23153,0.75314 0,0.65813 0.31314,0.51726 -8.86354,3.9872 -4.35521,1.64682 -5.13469,1.89317 -4.7625,1.50517 z m 20.28946,-7.46278 c -0.7735,-0.11263 -1.47241,-0.27083 -1.55313,-0.35154 -0.40832,-0.40833 0.90791,-2.81724 1.53933,-2.81724 0.40856,0 3.13996,2.68019 3.13996,3.08109 0,0.39764 -0.83642,0.4211 -3.12616,0.0877 z m 15.85749,-7.40261 c -1.71172,-1.10634 -1.9415,-1.11284 -2.76251,-0.0781 -0.59057,0.74431 -1.11144,0.76334 -2.22976,0.0815 -0.73376,-0.44738 -0.85989,-0.6758 -0.85989,-1.5572 0,-1.59365 0.68599,-2.24305 2.54479,-2.40904 l 1.54198,-0.1377 0.48763,-1.32292 c 0.26819,-0.7276 0.58661,-1.42381 0.7076,-1.54713 0.12099,-0.12333 0.73718,0.64636 1.36932,1.7104 1.02513,1.72556 1.15998,2.14539 1.24783,3.88508 0.0542,1.07276 -0.0124,2.06135 -0.14792,2.19688 -0.15216,0.15216 -0.87855,-0.16217 -1.89907,-0.82176 z m -32.8258,-1.96912 c -0.52097,-0.55455 -0.58203,-0.81684 -0.42849,-1.84068 0.2361,-1.57445 0.8511,-2.29521 1.79265,-2.10093 1.3417,0.27685 1.52803,2.74834 0.30878,4.0956 -0.5918,0.65392 -0.94444,0.62146 -1.67294,-0.15399 z"
         id="path363" />
      <path
         style="fill:#ee4034;stroke-width:0.264583"
         d="m 177.80641,263.69534 -47.22767,-47.22822 47.29409,-47.29408 47.29409,-47.29409 47.29408,47.29409 47.29409,47.29408 -47.22766,47.22822 c -25.97522,25.97552 -47.28745,47.22822 -47.36051,47.22822 -0.0731,0 -21.3853,-21.2527 -47.36051,-47.22822 z m 87.50897,-6.81173 c 22.01116,-22.00937 40.02029,-40.19602 40.02029,-40.41478 0,-0.62743 -79.67345,-80.17027 -80.30192,-80.17027 -0.6259,0 -80.30017,79.54495 -80.30017,80.16984 0,0.42876 79.87191,80.43224 80.29996,80.43224 0.14385,0 18.27068,-18.00766 40.28184,-40.01703 z M 190.41724,238.2107 c -0.40839,-0.45127 -0.39013,-0.52385 0.28973,-1.15202 1.54864,-1.4309 15.37117,-12.33175 16.2037,-12.77872 0.21828,-0.11719 -0.34727,0.55078 -1.25677,1.48436 -1.72113,1.76671 -1.91234,2.08007 -1.26922,2.08007 0.21143,0 0.68768,0.13818 1.05833,0.30706 0.76761,0.34974 0.91244,1.38225 0.30955,2.20675 -0.53826,0.73612 -2.99647,0.77619 -3.78841,0.0618 -0.56924,-0.51354 -0.59398,-0.51411 -1.23356,-0.0284 -0.35896,0.27257 -2.55558,2.25176 -4.88137,4.3982 -2.32579,2.14643 -4.40138,3.9026 -4.61242,3.9026 -0.21104,0 -0.57984,-0.21673 -0.81956,-0.48161 z m 47.45429,-5.23865 c -1.2344,-0.95447 -4.41932,-3.46411 -7.07761,-5.57699 -7.75124,-6.16088 -6.30795,-5.34957 4.95633,2.78608 4.42723,3.19758 5.46438,4.19351 4.63021,4.44617 -0.14552,0.0441 -1.27454,-0.70079 -2.50893,-1.65526 z m -54.52669,0.36245 c -0.62695,-0.86505 -0.77957,-1.30179 -0.66154,-1.89301 0.25092,-1.25692 0.60847,-1.53072 1.43842,-1.10154 0.38816,0.20072 1.01768,0.30532 1.39894,0.23244 0.87173,-0.16664 1.81084,0.31856 1.81084,0.93559 0,0.64722 -0.96656,1.62808 -1.60436,1.62808 -0.31698,0 -0.62517,0.2624 -0.77689,0.66146 -0.35097,0.92311 -0.66683,0.83201 -1.60541,-0.46302 z m 48.79041,-2.95074 c -1.86806,-1.51377 -3.87271,-3.18863 -4.45479,-3.72191 l -1.05833,-0.96961 1.32291,0.86269 c 3.39136,2.21154 7.75204,5.55548 7.87931,6.04217 0.0775,0.29643 0.0434,0.53896 -0.0759,0.53896 -0.11924,0 -1.74521,-1.23854 -3.61325,-2.7523 z m -40.83482,-0.48885 c 1.1e-4,-0.1819 1.68757,-1.22369 3.74993,-2.3151 4.00196,-2.11785 5.24572,-2.71776 5.24572,-2.53016 0,0.18962 -8.38596,5.17599 -8.70487,5.17599 -0.16003,0 -0.29088,-0.14882 -0.29078,-0.33073 z m 43.12196,-2.52049 c -7.17487,-4.42291 -8.29186,-5.27726 -4.22839,-3.23419 1.15771,0.58208 2.18937,1.05833 2.29259,1.05833 0.10321,0 -0.15258,-0.35514 -0.56843,-0.78919 -0.74367,-0.77623 -0.74795,-0.79819 -0.26026,-1.33708 0.4088,-0.45172 0.68375,-0.5174 1.56649,-0.3742 0.74932,0.12155 0.99079,0.0896 0.80457,-0.1064 -0.36003,-0.37898 -7.02064,-2.13492 -7.45943,-1.96655 -0.19187,0.0736 -0.42377,0.44816 -0.51534,0.83229 -0.0916,0.38413 -0.28371,0.84725 -0.42699,1.02915 -0.14327,0.1819 -0.15662,0.33828 -0.0297,0.3475 0.12696,0.009 -0.0371,0.12445 -0.36448,0.25606 -0.32742,0.13161 -0.59606,0.39195 -0.59698,0.57854 -8e-4,0.18659 -0.32834,0.55032 -0.72761,0.80828 -2.992,1.93315 -3.78999,2.3715 -4.94114,2.7143 -2.23763,0.66634 -5.55511,0.37559 -7.57095,-0.66352 -0.99955,-0.51524 -3.94255,-2.75651 -3.94996,-3.00813 -0.004,-0.12306 -0.26019,-0.57989 -0.57014,-1.01518 -0.69841,-0.98082 -0.97154,-0.94669 -6.23803,0.77945 -2.06738,0.6776 -3.84623,1.14464 -3.953,1.03787 -0.45246,-0.45245 0.81426,-1.02926 4.67114,-2.12701 4.5921,-1.30701 4.35065,-1.07528 3.8311,-3.67691 -0.17542,-0.8784 -0.13824,-0.99219 0.32422,-0.99219 0.2873,0 1.21449,0.23813 2.06041,0.52917 0.84593,0.29104 1.79855,0.52917 2.11693,0.52917 0.31837,0 1.25916,-0.59532 2.09064,-1.32292 0.83147,-0.7276 1.61597,-1.32292 1.74333,-1.32292 0.12736,0 1.21668,0.83344 2.42073,1.85209 1.20404,1.01864 2.37283,1.84564 2.59731,1.83777 0.22448,-0.008 1.06299,-0.45729 1.86336,-0.99871 1.2737,-0.86161 1.47216,-1.11559 1.59113,-2.03621 0.0938,-0.726 0.25227,-1.02632 0.51149,-0.96951 0.51703,0.1133 2.39529,1.6253 2.39529,1.9282 0,0.13543 0.37045,0.47151 0.82321,0.74686 0.45276,0.27534 0.95878,0.77122 1.12448,1.10196 0.28515,0.56915 0.84649,0.67693 10.48773,2.01365 5.60255,0.77676 10.35019,1.47174 10.5503,1.54438 0.27122,0.0985 0.31829,0.41721 0.18489,1.25216 -0.0984,0.61604 -0.28711,1.22839 -0.41933,1.36077 -0.14432,0.14451 -1.53989,-0.0937 -3.49218,-0.59613 -1.78849,-0.46025 -3.46016,-0.83645 -3.71483,-0.83601 -0.50352,8e-4 -0.62306,0.39984 -0.19843,0.66227 0.14552,0.0899 0.26458,0.57322 0.26458,1.07395 0,1.07338 0.002,1.07312 -3.175,0.51355 -3.8847,-0.68428 -4.0077,-0.51232 -0.85863,1.20042 1.12709,0.61302 2.25761,1.29676 2.51228,1.51944 0.46878,0.4099 0.6331,1.1166 0.25963,1.1166 -0.11186,0 -2.28475,-1.28305 -4.82864,-2.85122 z m -56.56686,-0.25763 c 0.0713,-0.37581 1.25854,-0.72397 6.30326,-1.84843 8.53931,-1.9034 12.9689,-2.79722 13.11893,-2.64719 0.0696,0.0696 -0.91946,0.38409 -2.19788,0.69892 -1.27841,0.31483 -2.86016,0.74426 -3.51501,0.9543 -1.04622,0.33557 -13.32471,3.30542 -13.66585,3.30542 -0.0722,0 -0.0918,-0.20836 -0.0435,-0.46302 z m 13.62651,-1.07281 c -0.39103,-0.40815 -0.71096,-0.83109 -0.71096,-0.93987 0,-0.10878 0.62508,-0.1618 1.38906,-0.11781 1.20981,0.0696 1.39997,0.15674 1.47356,0.67485 0.0624,0.43967 -0.0974,0.66404 -0.61254,0.8599 -0.38336,0.14575 -0.72653,0.26501 -0.76259,0.26501 -0.0361,0 -0.3855,-0.33394 -0.77653,-0.74208 z m -23.46513,-1.88814 c 0,-0.13693 0.12134,-0.32396 0.26965,-0.41562 0.20268,-0.12526 15.38057,-1.94667 16.46525,-1.9759 0.10914,-0.003 0.19844,-0.11584 0.19844,-0.25089 0,-0.13505 -0.65485,-0.32736 -1.45521,-0.42736 -1.16315,-0.14533 -1.45521,-0.27828 -1.45521,-0.66248 0,-0.50905 1.2922,-1.57965 1.89293,-1.56831 0.19582,0.004 1.06826,0.59901 1.93875,1.32291 0.8705,0.72392 1.81308,1.3162 2.09462,1.3162 1.5488,0 -0.6854,0.38341 -9.20945,1.58043 -9.9901,1.4029 -10.73977,1.47836 -10.73977,1.08102 z m 26.38954,-4.14153 c -1.58687,-0.57436 -2.57703,-1.43189 -2.57703,-2.23184 v -0.70199 l -6.72546,-0.24044 c -3.699,-0.13224 -6.81645,-0.33172 -6.92767,-0.44329 -0.60429,-0.60616 0.62077,-0.67623 5.45305,-0.31188 5.96708,0.44991 8.42609,0.51261 9.95173,0.25378 0.77864,-0.13211 1.32308,-0.0645 1.90509,0.23643 0.44819,0.23177 1.15815,0.4214 1.57769,0.4214 0.99107,0 1.07921,0.11454 0.8721,1.13334 -0.12451,0.61246 -0.33897,0.87497 -0.76504,0.93643 -0.32562,0.047 -0.78138,0.3744 -1.01282,0.72761 -0.47187,0.72016 -0.397,0.71074 -1.75164,0.22045 z m 75.47505,-0.13468 c -7.32427,-0.38171 -19.6566,-0.92343 -21.90176,-0.96208 -1.29673,-0.0223 -2.50002,-0.19221 -2.94948,-0.41643 -0.45989,-0.22943 -0.90023,-0.28934 -1.11699,-0.15199 -0.55011,0.3486 -2.34342,0.27909 -2.4737,-0.0959 -0.0632,-0.1819 -0.14876,-0.8008 -0.19014,-1.37532 -0.0719,-0.9988 -0.0285,-1.06259 0.98988,-1.45521 0.5858,-0.22584 1.49001,-0.73804 2.00935,-1.13822 0.51934,-0.40018 1.12602,-0.72761 1.34818,-0.72761 0.46137,0 5.76777,2.30095 6.14397,2.66413 0.15236,0.1471 0.0249,0.47656 -0.33073,0.85515 -1.0607,1.12907 -0.79043,1.50792 1.07507,1.50696 5.36855,-0.003 22.12451,0.59539 22.63679,0.80808 0.77673,0.32248 0.50576,0.7924 -0.42741,0.74121 -0.39159,-0.0215 -2.55746,-0.13524 -4.81303,-0.25279 z m -56.4703,-5.04035 -2.09842,-1.07241 -2.22725,0.18553 -2.22725,0.18553 -1.23058,-1.31146 c -0.67682,-0.7213 -1.91519,-1.74352 -2.75193,-2.2716 -0.83674,-0.52809 -1.52135,-1.0807 -1.52135,-1.22802 0,-0.46033 0.31722,-0.30458 1.87941,0.92275 0.83351,0.65485 1.61904,1.19063 1.74562,1.19063 0.12658,0 0.6179,-0.78635 1.09184,-1.74743 2.31017,-4.68479 7.16877,-7.35077 11.83086,-6.49175 0.95209,0.17543 1.83725,0.25335 1.96702,0.17314 0.32156,-0.19873 0.95993,-2.52046 1.31051,-4.76626 0.15902,-1.01864 0.99499,-4.64727 1.85772,-8.06361 0.86273,-3.41635 1.50354,-6.27385 1.42403,-6.35 -0.0795,-0.0762 -0.71819,0.49921 -1.41928,1.2786 -0.7011,0.77939 -1.39364,1.34357 -1.539,1.25374 -0.14535,-0.0898 -0.3405,-0.5104 -0.43367,-0.9346 -0.0932,-0.42419 -0.45951,-0.96135 -0.81411,-1.19369 -0.71256,-0.46689 -0.77426,-0.85915 -0.36621,-2.32846 0.21802,-0.78504 0.4047,-0.99218 0.89414,-0.99218 0.37176,0 0.79571,-0.27032 1.06246,-0.67744 0.32312,-0.49313 0.63155,-0.65509 1.13373,-0.59531 0.56772,0.0676 0.7679,0.31631 1.13075,1.40504 0.67241,2.01758 0.79836,1.86856 1.84493,-2.18281 0.31263,-1.21023 0.73003,-1.40271 1.41073,-0.65054 0.3983,0.44012 0.34599,0.72813 -0.73275,4.0349 -2.47776,7.59526 -4.12942,13.03389 -4.03987,13.30253 0.11101,0.33305 0.73283,-1.37072 6.45225,-17.67908 2.39863,-6.83948 4.46779,-12.54458 4.59812,-12.678 0.36895,-0.37768 2.37118,0.63003 2.37118,1.1934 0,0.26047 -2.73843,8.10744 -6.08541,17.43772 -3.34698,9.33028 -6.08163,17.10605 -6.07701,17.27947 0.0182,0.68265 0.98135,-1.05948 4.9179,-8.89564 3.64279,-7.25138 4.15962,-8.14348 4.67514,-8.0698 0.31878,0.0456 0.61623,0.2752 0.661,0.5103 0.079,0.41504 -3.91672,7.46372 -8.70446,15.35502 -1.29345,2.13192 -2.35174,4.1072 -2.35174,4.38951 0,0.57361 1.74094,1.94677 2.23016,1.75904 0.17126,-0.0657 0.53165,-0.50271 0.80086,-0.97109 0.26921,-0.46838 1.23829,-1.56597 2.15353,-2.4391 0.91523,-0.87312 6.51051,-6.88578 12.43396,-13.36146 5.92345,-6.47567 10.96729,-11.80896 11.20853,-11.85175 0.24124,-0.0428 0.65476,0.16105 0.91895,0.45297 0.47243,0.52203 0.29251,0.72089 -10.94017,12.0916 -6.89021,6.97489 -11.32465,11.65669 -11.17887,11.80247 0.45783,0.45783 2.18191,-0.12341 3.42823,-1.15577 0.91075,-0.75439 1.27051,-0.92758 1.33145,-0.64095 0.10734,0.50485 -1.12308,2.66741 -2.17677,3.82586 l -0.81715,0.89838 0.79375,-0.45408 c 0.43656,-0.24974 5.00438,-3.42221 10.15071,-7.04994 5.14633,-3.62773 9.46887,-6.59587 9.60564,-6.59587 0.13678,0 0.2124,0.5634 0.16804,1.25199 l -0.0806,1.25199 -11.96477,7.41312 c -12.3942,7.67917 -14.09669,8.70511 -14.09669,8.49481 0,-0.0686 0.71014,-0.67117 1.57808,-1.33904 1.51843,-1.1684 1.56614,-1.2415 1.26216,-1.93369 -0.44279,-1.00827 -0.71856,-1.13245 -1.55469,-0.70007 -0.40156,0.20766 -0.95169,0.37756 -1.22252,0.37756 -0.8272,0 -1.67822,0.98818 -1.49154,1.73195 0.1444,0.57536 0.0768,0.64976 -0.59333,0.65335 -0.41596,0.002 -0.93089,0.11448 -1.14429,0.24945 -0.24369,0.15413 -0.50888,0.14506 -0.71304,-0.0244 -0.63602,-0.52785 -1.48565,-0.13983 -1.81565,0.82919 l -0.31537,0.92605 -1.62511,-0.0861 c -1.79367,-0.095 -1.84728,-0.0317 -1.22824,1.44982 0.21828,0.52242 0.39687,1.0407 0.39687,1.15173 0,0.36498 -2.43915,3.17339 -2.74438,3.15986 -0.16408,-0.007 -1.24262,-0.49581 -2.39675,-1.08564 z m -14.70262,0.27685 c -4.70696,-0.74715 -5.02708,-0.82269 -5.02708,-1.18627 0,-0.58673 1.36308,-0.4503 5.29167,0.52964 2.80903,0.70068 3.31759,0.89061 2.38125,0.88929 -0.65485,-7.9e-4 -1.84547,-0.10562 -2.64584,-0.23266 z m 35.76818,-1.16769 c 0.21857,-0.21857 2.87685,-0.69018 26.07555,-4.62608 12.0371,-2.04223 22.03701,-3.65505 22.222,-3.58406 0.4344,0.16669 0.43906,1.71326 0.006,1.86739 -0.1819,0.0647 -9.55808,1.36562 -20.83594,2.89098 -28.06499,3.79584 -27.77485,3.75938 -27.46724,3.45177 z m -34.67448,-2.41082 c -0.48987,-0.21374 -0.82835,-0.45093 -0.75219,-0.5271 0.14624,-0.14624 1.77516,0.61848 1.77516,0.83338 0,0.15025 0.0745,0.17256 -1.02297,-0.30628 z m 34.75735,-0.91496 c 2.71987,-0.91685 40.18868,-10.58037 40.71881,-10.50172 0.66957,0.0993 1.16802,0.89141 0.79544,1.264 -0.33492,0.33492 -39.31639,9.23556 -42.308,9.66019 -0.43657,0.062 -0.0794,-0.12815 0.79375,-0.42247 z m -4.7625,-0.45712 c 0.4576,-0.47705 13.15133,-6.3958 13.39451,-6.24551 0.12734,0.0787 0.23153,0.41761 0.23153,0.75314 0,0.65813 0.31314,0.51726 -8.86354,3.9872 -4.35521,1.64682 -5.13469,1.89317 -4.7625,1.50517 z m 20.28946,-7.46278 c -0.7735,-0.11263 -1.47241,-0.27083 -1.55313,-0.35154 -0.40832,-0.40833 0.90791,-2.81724 1.53933,-2.81724 0.40856,0 3.13996,2.68019 3.13996,3.08109 0,0.39764 -0.83642,0.4211 -3.12616,0.0877 z m 15.85749,-7.40261 c -1.71172,-1.10634 -1.9415,-1.11284 -2.76251,-0.0781 -0.59057,0.74431 -1.11144,0.76334 -2.22976,0.0815 -0.73376,-0.44738 -0.85989,-0.6758 -0.85989,-1.5572 0,-1.59365 0.68599,-2.24305 2.54479,-2.40904 l 1.54198,-0.1377 0.48763,-1.32292 c 0.26819,-0.7276 0.58661,-1.42381 0.7076,-1.54713 0.12099,-0.12333 0.73718,0.64636 1.36932,1.7104 1.02513,1.72556 1.15998,2.14539 1.24783,3.88508 0.0542,1.07276 -0.0124,2.06135 -0.14792,2.19688 -0.15216,0.15216 -0.87855,-0.16217 -1.89907,-0.82176 z m -32.8258,-1.96912 c -0.52097,-0.55455 -0.58203,-0.81684 -0.42849,-1.84068 0.2361,-1.57445 0.8511,-2.29521 1.79265,-2.10093 1.3417,0.27685 1.52803,2.74834 0.30878,4.0956 -0.5918,0.65392 -0.94444,0.62146 -1.67294,-0.15399 z"
         id="path361" />
      <path
         style="fill:#606060;stroke-width:0.264583"
         d="m 190.41724,238.2107 c -0.40839,-0.45127 -0.39013,-0.52385 0.28973,-1.15202 1.54864,-1.4309 15.37117,-12.33175 16.2037,-12.77872 0.21828,-0.11719 -0.34727,0.55078 -1.25677,1.48436 -1.72113,1.76671 -1.91234,2.08007 -1.26922,2.08007 0.21143,0 0.68768,0.13818 1.05833,0.30706 0.76761,0.34974 0.91244,1.38225 0.30955,2.20675 -0.53826,0.73612 -2.99647,0.77619 -3.78841,0.0618 -0.56924,-0.51354 -0.59398,-0.51411 -1.23356,-0.0284 -0.35896,0.27257 -2.55558,2.25176 -4.88137,4.3982 -2.32579,2.14643 -4.40138,3.9026 -4.61242,3.9026 -0.21104,0 -0.57984,-0.21673 -0.81956,-0.48161 z m 47.45429,-5.23865 c -1.2344,-0.95447 -4.41932,-3.46411 -7.07761,-5.57699 -7.75124,-6.16088 -6.30795,-5.34957 4.95633,2.78608 4.42723,3.19758 5.46438,4.19351 4.63021,4.44617 -0.14552,0.0441 -1.27454,-0.70079 -2.50893,-1.65526 z m -54.52669,0.36245 c -0.62695,-0.86505 -0.77957,-1.30179 -0.66154,-1.89301 0.25092,-1.25692 0.60847,-1.53072 1.43842,-1.10154 0.38816,0.20072 1.01768,0.30532 1.39894,0.23244 0.87173,-0.16664 1.81084,0.31856 1.81084,0.93559 0,0.64722 -0.96656,1.62808 -1.60436,1.62808 -0.31698,0 -0.62517,0.2624 -0.77689,0.66146 -0.35097,0.92311 -0.66683,0.83201 -1.60541,-0.46302 z m 48.79041,-2.95074 c -1.86806,-1.51377 -3.87271,-3.18863 -4.45479,-3.72191 l -1.05833,-0.96961 1.32291,0.86269 c 3.39136,2.21154 7.75204,5.55548 7.87931,6.04217 0.0775,0.29643 0.0434,0.53896 -0.0759,0.53896 -0.11924,0 -1.74521,-1.23854 -3.61325,-2.7523 z m -40.83482,-0.48885 c 1.1e-4,-0.1819 1.68757,-1.22369 3.74993,-2.3151 4.00196,-2.11785 5.24572,-2.71776 5.24572,-2.53016 0,0.18962 -8.38596,5.17599 -8.70487,5.17599 -0.16003,0 -0.29088,-0.14882 -0.29078,-0.33073 z m 43.12196,-2.52049 c -7.17487,-4.42291 -8.29186,-5.27726 -4.22839,-3.23419 1.15771,0.58208 2.18937,1.05833 2.29259,1.05833 0.10321,0 -0.15258,-0.35514 -0.56843,-0.78919 -0.74367,-0.77623 -0.74795,-0.79819 -0.26026,-1.33708 0.4088,-0.45172 0.68375,-0.5174 1.56649,-0.3742 0.74932,0.12155 0.99079,0.0896 0.80457,-0.1064 -0.36003,-0.37898 -7.02064,-2.13492 -7.45943,-1.96655 -0.19187,0.0736 -0.42377,0.44816 -0.51534,0.83229 -0.0916,0.38413 -0.28371,0.84725 -0.42699,1.02915 -0.14327,0.1819 -0.15662,0.33828 -0.0297,0.3475 0.12696,0.009 -0.0371,0.12445 -0.36448,0.25606 -0.32742,0.13161 -0.59606,0.39195 -0.59698,0.57854 -8e-4,0.18659 -0.32834,0.55032 -0.72761,0.80828 -2.992,1.93315 -3.78999,2.3715 -4.94114,2.7143 -2.23763,0.66634 -5.55511,0.37559 -7.57095,-0.66352 -0.99955,-0.51524 -3.94255,-2.75651 -3.94996,-3.00813 -0.004,-0.12306 -0.26019,-0.57989 -0.57014,-1.01518 -0.69841,-0.98082 -0.97154,-0.94669 -6.23803,0.77945 -2.06738,0.6776 -3.84623,1.14464 -3.953,1.03787 -0.45246,-0.45245 0.81426,-1.02926 4.67114,-2.12701 4.5921,-1.30701 4.35065,-1.07528 3.8311,-3.67691 -0.17542,-0.8784 -0.13824,-0.99219 0.32422,-0.99219 0.2873,0 1.21449,0.23813 2.06041,0.52917 0.84593,0.29104 1.79855,0.52917 2.11693,0.52917 0.31837,0 1.25916,-0.59532 2.09064,-1.32292 0.83147,-0.7276 1.61597,-1.32292 1.74333,-1.32292 0.12736,0 1.21668,0.83344 2.42073,1.85209 1.20404,1.01864 2.37283,1.84564 2.59731,1.83777 0.22448,-0.008 1.06299,-0.45729 1.86336,-0.99871 1.2737,-0.86161 1.47216,-1.11559 1.59113,-2.03621 0.0938,-0.726 0.25227,-1.02632 0.51149,-0.96951 0.51703,0.1133 2.39529,1.6253 2.39529,1.9282 0,0.13543 0.37045,0.47151 0.82321,0.74686 0.45276,0.27534 0.95878,0.77122 1.12448,1.10196 0.28515,0.56915 0.84649,0.67693 10.48773,2.01365 5.60255,0.77676 10.35019,1.47174 10.5503,1.54438 0.27122,0.0985 0.31829,0.41721 0.18489,1.25216 -0.0984,0.61604 -0.28711,1.22839 -0.41933,1.36077 -0.14432,0.14451 -1.53989,-0.0937 -3.49218,-0.59613 -1.78849,-0.46025 -3.46016,-0.83645 -3.71483,-0.83601 -0.50352,8e-4 -0.62306,0.39984 -0.19843,0.66227 0.14552,0.0899 0.26458,0.57322 0.26458,1.07395 0,1.07338 0.002,1.07312 -3.175,0.51355 -3.8847,-0.68428 -4.0077,-0.51232 -0.85863,1.20042 1.12709,0.61302 2.25761,1.29676 2.51228,1.51944 0.46878,0.4099 0.6331,1.1166 0.25963,1.1166 -0.11186,0 -2.28475,-1.28305 -4.82864,-2.85122 z m -56.56686,-0.25763 c 0.0713,-0.37581 1.25854,-0.72397 6.30326,-1.84843 8.53931,-1.9034 12.9689,-2.79722 13.11893,-2.64719 0.0696,0.0696 -0.91946,0.38409 -2.19788,0.69892 -1.27841,0.31483 -2.86016,0.74426 -3.51501,0.9543 -1.04622,0.33557 -13.32471,3.30542 -13.66585,3.30542 -0.0722,0 -0.0918,-0.20836 -0.0435,-0.46302 z m 13.62651,-1.07281 c -0.39103,-0.40815 -0.71096,-0.83109 -0.71096,-0.93987 0,-0.10878 0.62508,-0.1618 1.38906,-0.11781 1.20981,0.0696 1.39997,0.15674 1.47356,0.67485 0.0624,0.43967 -0.0974,0.66404 -0.61254,0.8599 -0.38336,0.14575 -0.72653,0.26501 -0.76259,0.26501 -0.0361,0 -0.3855,-0.33394 -0.77653,-0.74208 z m -23.46513,-1.88814 c 0,-0.13693 0.12134,-0.32396 0.26965,-0.41562 0.20268,-0.12526 15.38057,-1.94667 16.46525,-1.9759 0.10914,-0.003 0.19844,-0.11584 0.19844,-0.25089 0,-0.13505 -0.65485,-0.32736 -1.45521,-0.42736 -1.16315,-0.14533 -1.45521,-0.27828 -1.45521,-0.66248 0,-0.50905 1.2922,-1.57965 1.89293,-1.56831 0.19582,0.004 1.06826,0.59901 1.93875,1.32291 0.8705,0.72392 1.81308,1.3162 2.09462,1.3162 1.5488,0 -0.6854,0.38341 -9.20945,1.58043 -9.9901,1.4029 -10.73977,1.47836 -10.73977,1.08102 z m 26.38954,-4.14153 c -1.58687,-0.57436 -2.57703,-1.43189 -2.57703,-2.23184 v -0.70199 l -6.72546,-0.24044 c -3.699,-0.13224 -6.81645,-0.33172 -6.92767,-0.44329 -0.60429,-0.60616 0.62077,-0.67623 5.45305,-0.31188 5.96708,0.44991 8.42609,0.51261 9.95173,0.25378 0.77864,-0.13211 1.32308,-0.0645 1.90509,0.23643 0.44819,0.23177 1.15815,0.4214 1.57769,0.4214 0.99107,0 1.07921,0.11454 0.8721,1.13334 -0.12451,0.61246 -0.33897,0.87497 -0.76504,0.93643 -0.32562,0.047 -0.78138,0.3744 -1.01282,0.72761 -0.47187,0.72016 -0.397,0.71074 -1.75164,0.22045 z m 75.47505,-0.13468 c -7.32427,-0.38171 -19.6566,-0.92343 -21.90176,-0.96208 -1.29673,-0.0223 -2.50002,-0.19221 -2.94948,-0.41643 -0.45989,-0.22943 -0.90023,-0.28934 -1.11699,-0.15199 -0.55011,0.3486 -2.34342,0.27909 -2.4737,-0.0959 -0.0632,-0.1819 -0.14876,-0.8008 -0.19014,-1.37532 -0.0719,-0.9988 -0.0285,-1.06259 0.98988,-1.45521 0.5858,-0.22584 1.49001,-0.73804 2.00935,-1.13822 0.51934,-0.40018 1.12602,-0.72761 1.34818,-0.72761 0.46137,0 5.76777,2.30095 6.14397,2.66413 0.15236,0.1471 0.0249,0.47656 -0.33073,0.85515 -1.0607,1.12907 -0.79043,1.50792 1.07507,1.50696 5.36855,-0.003 22.12451,0.59539 22.63679,0.80808 0.77673,0.32248 0.50576,0.7924 -0.42741,0.74121 -0.39159,-0.0215 -2.55746,-0.13524 -4.81303,-0.25279 z m -56.4703,-5.04035 -2.09842,-1.07241 -2.22725,0.18553 -2.22725,0.18553 -1.23058,-1.31146 c -0.67682,-0.7213 -1.91519,-1.74352 -2.75193,-2.2716 -0.83674,-0.52809 -1.52135,-1.0807 -1.52135,-1.22802 0,-0.46033 0.31722,-0.30458 1.87941,0.92275 0.83351,0.65485 1.61904,1.19063 1.74562,1.19063 0.12658,0 0.6179,-0.78635 1.09184,-1.74743 2.31017,-4.68479 7.16877,-7.35077 11.83086,-6.49175 0.95209,0.17543 1.83725,0.25335 1.96702,0.17314 0.32156,-0.19873 0.95993,-2.52046 1.31051,-4.76626 0.15902,-1.01864 0.99499,-4.64727 1.85772,-8.06361 0.86273,-3.41635 1.50354,-6.27385 1.42403,-6.35 -0.0795,-0.0762 -0.71819,0.49921 -1.41928,1.2786 -0.7011,0.77939 -1.39364,1.34357 -1.539,1.25374 -0.14535,-0.0898 -0.3405,-0.5104 -0.43367,-0.9346 -0.0932,-0.42419 -0.45951,-0.96135 -0.81411,-1.19369 -0.71256,-0.46689 -0.77426,-0.85915 -0.36621,-2.32846 0.21802,-0.78504 0.4047,-0.99218 0.89414,-0.99218 0.37176,0 0.79571,-0.27032 1.06246,-0.67744 0.32312,-0.49313 0.63155,-0.65509 1.13373,-0.59531 0.56772,0.0676 0.7679,0.31631 1.13075,1.40504 0.67241,2.01758 0.79836,1.86856 1.84493,-2.18281 0.31263,-1.21023 0.73003,-1.40271 1.41073,-0.65054 0.3983,0.44012 0.34599,0.72813 -0.73275,4.0349 -2.47776,7.59526 -4.12942,13.03389 -4.03987,13.30253 0.11101,0.33305 0.73283,-1.37072 6.45225,-17.67908 2.39863,-6.83948 4.46779,-12.54458 4.59812,-12.678 0.36895,-0.37768 2.37118,0.63003 2.37118,1.1934 0,0.26047 -2.73843,8.10744 -6.08541,17.43772 -3.34698,9.33028 -6.08163,17.10605 -6.07701,17.27947 0.0182,0.68265 0.98135,-1.05948 4.9179,-8.89564 3.64279,-7.25138 4.15962,-8.14348 4.67514,-8.0698 0.31878,0.0456 0.61623,0.2752 0.661,0.5103 0.079,0.41504 -3.91672,7.46372 -8.70446,15.35502 -1.29345,2.13192 -2.35174,4.1072 -2.35174,4.38951 0,0.57361 1.74094,1.94677 2.23016,1.75904 0.17126,-0.0657 0.53165,-0.50271 0.80086,-0.97109 0.26921,-0.46838 1.23829,-1.56597 2.15353,-2.4391 0.91523,-0.87312 6.51051,-6.88578 12.43396,-13.36146 5.92345,-6.47567 10.96729,-11.80896 11.20853,-11.85175 0.24124,-0.0428 0.65476,0.16105 0.91895,0.45297 0.47243,0.52203 0.29251,0.72089 -10.94017,12.0916 -6.89021,6.97489 -11.32465,11.65669 -11.17887,11.80247 0.45783,0.45783 2.18191,-0.12341 3.42823,-1.15577 0.91075,-0.75439 1.27051,-0.92758 1.33145,-0.64095 0.10734,0.50485 -1.12308,2.66741 -2.17677,3.82586 l -0.81715,0.89838 0.79375,-0.45408 c 0.43656,-0.24974 5.00438,-3.42221 10.15071,-7.04994 5.14633,-3.62773 9.46887,-6.59587 9.60564,-6.59587 0.13678,0 0.2124,0.5634 0.16804,1.25199 l -0.0806,1.25199 -11.96477,7.41312 c -12.3942,7.67917 -14.09669,8.70511 -14.09669,8.49481 0,-0.0686 0.71014,-0.67117 1.57808,-1.33904 1.51843,-1.1684 1.56614,-1.2415 1.26216,-1.93369 -0.44279,-1.00827 -0.71856,-1.13245 -1.55469,-0.70007 -0.40156,0.20766 -0.95169,0.37756 -1.22252,0.37756 -0.8272,0 -1.67822,0.98818 -1.49154,1.73195 0.1444,0.57536 0.0768,0.64976 -0.59333,0.65335 -0.41596,0.002 -0.93089,0.11448 -1.14429,0.24945 -0.24369,0.15413 -0.50888,0.14506 -0.71304,-0.0244 -0.63602,-0.52785 -1.48565,-0.13983 -1.81565,0.82919 l -0.31537,0.92605 -1.62511,-0.0861 c -1.79367,-0.095 -1.84728,-0.0317 -1.22824,1.44982 0.21828,0.52242 0.39687,1.0407 0.39687,1.15173 0,0.36498 -2.43915,3.17339 -2.74438,3.15986 -0.16408,-0.007 -1.24262,-0.49581 -2.39675,-1.08564 z m -14.70262,0.27685 c -4.70696,-0.74715 -5.02708,-0.82269 -5.02708,-1.18627 0,-0.58673 1.36308,-0.4503 5.29167,0.52964 2.80903,0.70068 3.31759,0.89061 2.38125,0.88929 -0.65485,-7.9e-4 -1.84547,-0.10562 -2.64584,-0.23266 z m 35.76818,-1.16769 c 0.21857,-0.21857 2.87685,-0.69018 26.07555,-4.62608 12.0371,-2.04223 22.03701,-3.65505 22.222,-3.58406 0.4344,0.16669 0.43906,1.71326 0.006,1.86739 -0.1819,0.0647 -9.55808,1.36562 -20.83594,2.89098 -28.06499,3.79584 -27.77485,3.75938 -27.46724,3.45177 z m -34.67448,-2.41082 c -0.48987,-0.21374 -0.82835,-0.45093 -0.75219,-0.5271 0.14624,-0.14624 1.77516,0.61848 1.77516,0.83338 0,0.15025 0.0745,0.17256 -1.02297,-0.30628 z m 34.75735,-0.91496 c 2.71987,-0.91685 40.18868,-10.58037 40.71881,-10.50172 0.66957,0.0993 1.16802,0.89141 0.79544,1.264 -0.33492,0.33492 -39.31639,9.23556 -42.308,9.66019 -0.43657,0.062 -0.0794,-0.12815 0.79375,-0.42247 z m -4.7625,-0.45712 c 0.4576,-0.47705 13.15133,-6.3958 13.39451,-6.24551 0.12734,0.0787 0.23153,0.41761 0.23153,0.75314 0,0.65813 0.31314,0.51726 -8.86354,3.9872 -4.35521,1.64682 -5.13469,1.89317 -4.7625,1.50517 z m 20.28946,-7.46278 c -0.7735,-0.11263 -1.47241,-0.27083 -1.55313,-0.35154 -0.40832,-0.40833 0.90791,-2.81724 1.53933,-2.81724 0.40856,0 3.13996,2.68019 3.13996,3.08109 0,0.39764 -0.83642,0.4211 -3.12616,0.0877 z m 15.85749,-7.40261 c -1.71172,-1.10634 -1.9415,-1.11284 -2.76251,-0.0781 -0.59057,0.74431 -1.11144,0.76334 -2.22976,0.0815 -0.73376,-0.44738 -0.85989,-0.6758 -0.85989,-1.5572 0,-1.59365 0.68599,-2.24305 2.54479,-2.40904 l 1.54198,-0.1377 0.48763,-1.32292 c 0.26819,-0.7276 0.58661,-1.42381 0.7076,-1.54713 0.12099,-0.12333 0.73718,0.64636 1.36932,1.7104 1.02513,1.72556 1.15998,2.14539 1.24783,3.88508 0.0542,1.07276 -0.0124,2.06135 -0.14792,2.19688 -0.15216,0.15216 -0.87855,-0.16217 -1.89907,-0.82176 z m -32.8258,-1.96912 c -0.52097,-0.55455 -0.58203,-0.81684 -0.42849,-1.84068 0.2361,-1.57445 0.8511,-2.29521 1.79265,-2.10093 1.3417,0.27685 1.52803,2.74834 0.30878,4.0956 -0.5918,0.65392 -0.94444,0.62146 -1.67294,-0.15399 z"
         id="path359" />
      <path
         style="fill:#0c0c0c;stroke-width:0.264583"
         d="m 190.5978,238.01944 c -0.0862,-0.22456 -0.1122,-0.45162 -0.0578,-0.50459 0.0544,-0.053 2.94842,-2.37522 6.43126,-5.16056 5.10542,-4.08297 6.37684,-4.98492 6.56159,-4.65479 0.12603,0.22521 0.46919,0.40948 0.76256,0.40948 1.41221,0 2.07841,1.32086 1.09394,2.16893 -0.62886,0.54174 -2.5396,0.45033 -3.20672,-0.1534 -0.28832,-0.26093 -0.6972,-0.43421 -0.90862,-0.38508 -0.21142,0.0491 -2.49289,2.0241 -5.06993,4.38882 -2.57705,2.36471 -4.85745,4.29948 -5.06756,4.29948 -0.2101,0 -0.45251,-0.18373 -0.53868,-0.40829 z m -7.07511,-4.84348 c -0.58173,-0.83944 -0.70061,-1.2373 -0.56042,-1.87559 0.18105,-0.82432 0.96559,-1.12955 1.3412,-0.5218 0.10527,0.17033 0.53031,0.22229 1.03844,0.12697 1.07782,-0.2022 1.72501,0.0343 1.72501,0.63032 0,0.5571 -0.80896,1.33562 -1.38783,1.33562 -0.23107,0 -0.64465,0.30823 -0.91908,0.68496 l -0.49897,0.68496 z m 53.81506,-0.98512 c -2.63159,-2.0955 -3.96668,-3.32843 -2.38125,-2.19903 4.2013,2.99284 5.55625,3.98982 5.55625,4.08832 0,0.43738 -1.0015,-0.15856 -3.175,-1.88929 z m -3.06477,-0.53403 -1.03627,-0.95009 1.12448,0.84003 c 1.00355,0.74968 1.30701,1.06014 1.03627,1.06014 -0.0485,0 -0.55453,-0.42754 -1.12448,-0.95008 z m 2.74596,-2.98346 c -2.1803,-1.41773 -2.18919,-1.54984 -0.0316,-0.46968 1.83829,0.9203 2.60062,1.51485 1.88738,1.47199 -0.19049,-0.0114 -1.02559,-0.46249 -1.85578,-1.00231 z m -58.94786,-1.57045 c 0,-0.25582 3.13502,-0.97418 3.34315,-0.76605 0.0642,0.0642 -0.4534,0.25643 -1.1502,0.42721 -0.6968,0.17078 -1.47527,0.37268 -1.72993,0.44867 -0.25466,0.076 -0.46302,0.0266 -0.46302,-0.10983 z m 34.92402,-0.26499 c -2.28396,-0.75823 -4.65675,-2.49823 -5.64444,-4.13914 -0.26733,-0.44413 -0.63191,-0.92656 -0.81017,-1.07209 -0.35461,-0.28947 -1.33621,-3.54118 -1.13095,-3.74643 0.0699,-0.0699 0.92502,0.11938 1.9003,0.42061 2.55467,0.78906 2.86751,0.73443 4.64451,-0.81117 1.77268,-1.54183 1.34899,-1.62666 4.21673,0.84428 0.94589,0.81501 1.86389,1.56596 2.04,1.66878 0.18166,0.10606 1.12609,-0.34894 2.18281,-1.05161 1.69055,-1.12414 1.86261,-1.32051 1.86261,-2.12577 0,-1.26452 0.48973,-1.13016 2.07023,0.56798 0.74491,0.80037 1.52247,1.45521 1.7279,1.45521 0.42339,0 0.75529,1.25738 0.39129,1.48235 -0.13065,0.0807 -0.48501,0.67328 -0.78748,1.31675 -0.7275,1.5477 -3.132,3.71349 -5.19858,4.68248 -2.18311,1.02364 -5.27692,1.23408 -7.46476,0.50777 z m -21.12478,-0.74089 c -0.85254,-0.59715 -0.68995,-0.94053 0.40166,-0.84829 1.09747,0.0927 1.4282,0.57337 0.67275,0.97767 -0.371,0.19855 -0.65505,0.16435 -1.07441,-0.12938 z m 44.60407,-0.10154 c -2.94768,-0.53082 -4.77925,-1.51593 -4.63929,-2.49524 0.0703,-0.49162 0.22757,-0.54094 1.46775,-0.46019 1.12213,0.0731 1.38907,0.0109 1.38907,-0.32334 0,-0.40623 -0.8157,-0.71089 -4.10104,-1.53173 -0.72761,-0.18179 -1.13323,-0.37026 -0.90139,-0.41884 0.6115,-0.12812 17.794,2.31262 18.05161,2.56419 0.30465,0.29751 -0.0789,2.13356 -0.44477,2.12933 -0.16571,-0.002 -1.8491,-0.41816 -3.74087,-0.92501 -1.89177,-0.50684 -3.58841,-0.922 -3.77031,-0.92256 -0.45662,-0.001 -0.41538,0.65767 0.0661,1.0573 0.21828,0.18116 0.39688,0.67199 0.39688,1.09073 0,0.90501 -0.041,0.90757 -3.77378,0.23536 z m -54.48417,0.0807 c 0.191,-0.0764 0.4192,-0.067 0.50712,0.0209 0.0879,0.0879 -0.0684,0.15045 -0.34726,0.13896 -0.30823,-0.0127 -0.37092,-0.0754 -0.15986,-0.15985 z m -13.22916,-2.11666 c 0.19099,-0.0764 0.41919,-0.067 0.50711,0.0209 0.0879,0.0879 -0.0684,0.15046 -0.34726,0.13897 -0.30823,-0.0127 -0.37092,-0.0754 -0.15985,-0.15985 z m 28.36002,-0.10862 c 0,-0.13189 0.23813,-0.23981 0.52917,-0.23981 0.29104,0 0.52917,0.0456 0.52917,0.10143 0,0.0558 -0.23813,0.16371 -0.52917,0.23982 -0.29104,0.0761 -0.52917,0.0305 -0.52917,-0.10144 z m -26.50794,-0.15597 c 0.19099,-0.0764 0.4192,-0.067 0.50712,0.0209 0.0879,0.0879 -0.0684,0.15045 -0.34727,0.13896 -0.30822,-0.0127 -0.37092,-0.0754 -0.15985,-0.15985 z m 12.40319,-2.9207 c -0.86686,-0.13031 -0.82201,-0.49694 0.14952,-1.22229 0.75815,-0.56604 0.84592,-0.53656 2.57815,0.86598 l 0.66146,0.53557 -1.32292,-0.0338 c -0.7276,-0.0186 -1.6574,-0.084 -2.06621,-0.1455 z m 11.43246,-1.05299 c -0.37835,-0.0585 -1.08058,-0.4342 -1.5605,-0.83485 -0.83827,-0.69982 -0.85796,-0.75909 -0.50082,-1.50761 0.30106,-0.63099 0.5639,-0.79499 1.38228,-0.86247 0.60075,-0.0495 1.26679,0.0846 1.64246,0.33073 0.34756,0.22773 0.9933,0.41405 1.43498,0.41405 0.68231,0 0.80306,0.10045 0.80306,0.66801 0,0.45284 -0.19525,0.74224 -0.60619,0.89848 -0.3334,0.12676 -0.7647,0.42146 -0.95844,0.6549 -0.19373,0.23345 -0.4865,0.40661 -0.65058,0.3848 -0.16408,-0.0218 -0.6079,-0.0875 -0.98625,-0.14604 z m 77.08636,-0.26129 c 0.25466,-0.0665 0.67138,-0.0665 0.92604,0 0.25466,0.0666 0.0463,0.12101 -0.46302,0.12101 -0.50932,0 -0.71768,-0.0545 -0.46302,-0.12101 z m -24.87832,-0.80546 c -0.75687,-0.068 -1.23825,-0.27183 -1.45271,-0.61523 -0.37934,-0.60741 -0.92533,-0.64362 -1.63308,-0.1083 -0.85636,0.64772 -1.70182,0.49559 -1.88472,-0.33914 -0.0877,-0.40018 -0.20194,-0.86773 -0.2539,-1.03899 -0.12387,-0.40831 0.31904,-0.74061 1.48882,-1.11702 0.5243,-0.16871 1.22967,-0.60094 1.56747,-0.96052 0.33781,-0.35958 0.81227,-0.65378 1.05435,-0.65378 0.73275,0 5.67978,2.33328 5.76126,2.71731 0.0418,0.19687 -0.16659,0.57743 -0.46302,0.8457 -0.29643,0.26826 -0.53897,0.63515 -0.53897,0.81531 0,0.62388 -0.73718,0.71582 -3.6455,0.45466 z m -33.15003,-4.07018 c -2.20227,-1.07124 -2.25797,-1.08293 -4.39946,-0.92341 l -2.16896,0.16156 -0.80638,-0.86037 c -0.44351,-0.47321 -0.80694,-0.92999 -0.80761,-1.01508 -7.9e-4,-0.0851 0.41987,-1.01997 0.93455,-2.07751 2.29074,-4.70697 6.78622,-7.16551 11.66357,-6.37871 1.66281,0.26824 2.07679,0.26301 2.35603,-0.0297 0.32773,-0.34359 1.36157,-3.22224 9.39231,-26.15204 2.06412,-5.8936 3.86327,-10.92287 3.99811,-11.17615 0.2173,-0.40821 0.34193,-0.42104 1.09708,-0.11293 0.46855,0.19118 0.88535,0.52094 0.92621,0.7328 0.0409,0.21186 -2.77549,8.32098 -6.25855,18.02026 -3.48306,9.69928 -6.453,18.19847 -6.59987,18.88708 -0.28923,1.35611 -0.21627,1.48086 1.87992,3.21438 1.27156,1.05155 1.08732,1.16366 -2.02251,1.23078 -1.22559,0.0265 -1.29913,0.0706 -1.58913,0.95378 l -0.30407,0.92604 -1.65202,-0.0928 c -1.50101,-0.0844 -1.65202,-0.045 -1.65202,0.43071 0,0.28796 0.18309,0.96176 0.40688,1.49735 0.39804,0.95265 0.39006,0.99501 -0.36773,1.95054 -1.63375,2.06011 -1.51351,2.03581 -4.02635,0.81351 z m -19.03155,-0.49822 c -0.31203,-0.20165 -0.25546,-0.25171 0.26458,-0.23416 0.3638,0.0123 0.95912,0.11765 1.32292,0.23416 0.60607,0.1941 0.58392,0.2137 -0.26458,0.23416 -0.50933,0.0123 -1.10464,-0.0931 -1.32292,-0.23416 z m 50.48581,-1.76824 c 0.19099,-0.0764 0.4192,-0.067 0.50712,0.0209 0.0879,0.0879 -0.0684,0.15045 -0.34727,0.13896 -0.30823,-0.0127 -0.37092,-0.0754 -0.15985,-0.15985 z m 1.24023,-0.22992 c 0.26286,-0.10361 36.11767,-6.20392 36.46382,-6.20392 0.32622,0 0.18928,1.33646 -0.14975,1.46158 -0.49166,0.18144 -35.33324,4.89188 -36.00358,4.86753 -0.31629,-0.0115 -0.45601,-0.0678 -0.31049,-0.12519 z m -12.03854,-3.71066 c 0,-0.12207 7.11429,-3.59049 8.41898,-4.10448 0.53408,-0.21041 0.60279,-0.16941 0.52917,0.31577 -0.0853,0.56227 -0.23636,0.63047 -7.2945,3.29362 -0.90951,0.34317 -1.65365,0.56596 -1.65365,0.49509 z M 245.036,208.1517 c 0.21928,-0.21928 29.56725,-7.82397 30.19421,-7.82397 0.37387,0 0.88096,0.73769 0.6594,0.95925 -0.13731,0.13731 -30.32103,6.97825 -30.78954,6.97825 -0.0977,0 -0.12651,-0.0511 -0.0641,-0.11353 z m -15.10658,-2.36762 c 0,-0.75941 -0.66773,-0.98409 -1.67451,-0.56343 -1.2303,0.51405 -1.50187,0.50237 -1.49434,-0.0643 0.003,-0.25466 0.72412,-1.10216 1.60163,-1.88332 1.46806,-1.30688 1.62283,-1.3829 1.93795,-0.95195 0.51256,0.70097 2.27331,0.38138 3.50857,-0.63682 0.54231,-0.44702 1.03422,-0.76456 1.09314,-0.70564 0.31317,0.31317 -1.51625,2.82299 -2.85233,3.91315 -1.59079,1.29799 -2.12011,1.52077 -2.12011,0.89229 z m 2.91041,-0.23851 c 0.31945,-0.33076 18.66134,-13.35062 19.79422,-14.05077 0.2216,-0.13696 0.31412,0.10501 0.31412,0.8215 v 1.01563 l -9.06573,5.6227 c -10.34869,6.4184 -11.59358,7.16143 -11.04261,6.59094 z m 17.99167,-3.0165 c -2.3673,-0.24343 -2.61072,-0.58431 -1.38906,-1.94517 l 0.7276,-0.81051 1.44617,1.46779 c 1.57211,1.59562 1.6096,1.53409 -0.78471,1.28789 z m -19.40124,-2.20134 c 0.287,-0.36381 4.96642,-5.51849 10.39871,-11.45487 6.29955,-6.88412 10.02889,-10.76414 10.29657,-10.71259 0.23082,0.0445 0.45725,0.27593 0.50318,0.5144 0.0534,0.27718 -3.84876,4.37974 -10.81839,11.37404 -5.99603,6.01726 -10.66706,10.64282 -10.38007,10.27902 z m -1.59196,-9.33298 c 2.94049,-5.90221 3.62696,-6.9165 3.97448,-5.87252 0.0891,0.26784 -6.29203,11.38065 -6.83217,11.8982 -0.15188,0.14553 1.13409,-2.56604 2.85769,-6.02568 z m 35.94705,3.89444 c -0.72491,-0.5013 -1.43361,-0.91146 -1.5749,-0.91146 -0.14128,0 -0.6486,0.37967 -1.12737,0.84371 l -0.87049,0.84371 -0.92804,-0.44256 c -0.83349,-0.39746 -0.92805,-0.55082 -0.92805,-1.50517 0,-1.49938 0.68835,-2.12094 2.34886,-2.12094 1.43739,0 1.71127,-0.21345 2.24241,-1.7476 0.19622,-0.56679 0.46386,-1.01721 0.59473,-1.00093 0.13088,0.0163 0.60881,0.67111 1.06207,1.4552 0.6449,1.11561 0.86305,1.87152 1.00322,3.47614 0.21023,2.4068 0.1266,2.45773 -1.82244,1.1099 z m -32.35748,-1.58792 c -0.64918,-0.45471 -0.7238,-1.073 -0.30954,-2.56469 0.23958,-0.8627 0.37836,-0.99219 1.0634,-0.99219 1.31744,0 1.61491,1.75993 0.57019,3.37344 -0.45759,0.70673 -0.55722,0.72054 -1.32405,0.18344 z m -10.48969,-1.10948 c 0.33992,-1.52118 1.99564,-8.17095 2.22338,-8.92969 0.13104,-0.43656 0.42903,-1.56765 0.6622,-2.51354 0.23316,-0.94589 0.47391,-1.86661 0.53499,-2.04606 0.17087,-0.50201 0.92483,-0.0821 0.92483,0.51511 0,0.59665 -4.19408,13.70178 -4.38503,13.70178 -0.0676,0 -0.0498,-0.32742 0.0396,-0.7276 z m -1.60596,-6.40811 c -0.0949,-0.43214 -0.47308,-1.00461 -0.84037,-1.27217 -0.6149,-0.44792 -0.64951,-0.57958 -0.43681,-1.66168 0.19546,-0.9944 0.33634,-1.18758 0.9156,-1.25547 0.42738,-0.0501 0.79852,-0.33026 0.98779,-0.74567 0.21615,-0.4744 0.47336,-0.64125 0.89594,-0.58122 0.46452,0.066 0.69634,0.41145 1.07158,1.59687 l 0.47882,1.51266 -1.27257,1.57788 c -0.69992,0.86783 -1.35241,1.58612 -1.44999,1.59619 -0.0976,0.0101 -0.25507,-0.33524 -0.34999,-0.76739 z"
         id="path357" />
    </g>
  </g>
</svg>
