<?xml version="1.0" encoding="UTF-8" standalone="no"?>
<svg
   xmlns:dc="http://purl.org/dc/elements/1.1/"
   xmlns:cc="http://creativecommons.org/ns#"
   xmlns:rdf="http://www.w3.org/1999/02/22-rdf-syntax-ns#"
   xmlns:svg="http://www.w3.org/2000/svg"
   xmlns="http://www.w3.org/2000/svg"
   xmlns:sodipodi="http://sodipodi.sourceforge.net/DTD/sodipodi-0.dtd"
   xmlns:inkscape="http://www.inkscape.org/namespaces/inkscape"
   width="24mm"
   height="24mm"
   viewBox="0 0 24 24"
   version="1.1"
   id="svg5"
   inkscape:version="1.0.2 (e86c870879, 2021-01-15)"
   sodipodi:docname="bottle.svg">
  <metadata
     id="metadata14">
    <rdf:RDF>
      <cc:Work
         rdf:about="">
        <dc:format>image/svg+xml</dc:format>
        <dc:type
           rdf:resource="http://purl.org/dc/dcmitype/StillImage" />
      </cc:Work>
    </rdf:RDF>
  </metadata>
  <sodipodi:namedview
     id="namedview7"
     pagecolor="#ffffff"
     bordercolor="#666666"
     borderopacity="1.0"
     inkscape:pageshadow="2"
     inkscape:pageopacity="0.0"
     inkscape:pagecheckerboard="0"
     inkscape:document-units="mm"
     showgrid="false"
     inkscape:zoom="0.46324355"
     inkscape:cx="247.24804"
     inkscape:cy="104.9724"
     inkscape:window-width="1360"
     inkscape:window-height="687"
     inkscape:window-x="0"
     inkscape:window-y="26"
     inkscape:window-maximized="1"
     inkscape:current-layer="layer1"
     inkscape:document-rotation="0" />
  <defs
     id="defs2" />
  <g
     inkscape:label="Capa 1"
     inkscape:groupmode="layer"
     id="layer1"
     transform="translate(-39.674596,-120.44048)">
    <g
       id="g39"
       transform="matrix(0.12593574,0,0,0.12571302,23.241486,105.22774)">
      <path
         style="fill:#f6a49e;stroke-width:0.264583"
         d="m 183.49074,270.01581 c -42.99643,-42.9719 -53.00268,-53.11445 -53.00268,-53.72466 0,-0.36345 93.2215,-93.76446 94.54863,-94.73069 l 0.75382,-0.54883 47.08695,47.06638 c 25.89783,25.88651 47.33379,47.4056 47.63547,47.82021 l 0.54852,0.75382 -47.06638,47.08695 c -25.88651,25.89783 -47.4055,47.33371 -47.81998,47.63531 l -0.75359,0.54835 z m 82.00064,-13.66224 c 21.79193,-21.79156 39.62169,-39.74008 39.62169,-39.8856 0,-0.34696 -79.16121,-79.50796 -79.50817,-79.50796 -0.14637,0 -18.12441,17.85977 -39.95121,39.68838 l -39.68508,39.68838 39.81825,39.81891 c 21.90004,21.90041 39.87779,39.81892 39.95055,39.81892 0.0728,0 17.96205,-17.82946 39.75397,-39.62103 z m -80.31351,-24.43272 c -2.23119,-1.17746 -4.195,-3.9353 -5.21812,-7.32796 -0.48407,-1.60517 -0.56445,-2.4038 -0.47934,-4.7625 0.0917,-2.54053 0.18369,-2.98243 0.88881,-4.26847 0.4326,-0.789 1.10447,-1.66835 1.49303,-1.95411 0.80666,-0.59325 62.98618,-17.38477 64.34135,-17.37532 1.32539,0.009 3.00387,0.92705 4.55523,2.49086 0.95238,0.96002 1.73171,1.50328 2.31292,1.61232 0.63943,0.11996 2.75465,-0.34203 7.81874,-1.70769 3.81819,-1.02967 7.20424,-1.87169 7.52456,-1.87114 1.55399,0.003 3.34009,2.16427 3.35471,4.06006 0.008,1.08743 -0.74903,2.51994 -1.55122,2.93386 -0.38056,0.19637 -3.66849,1.15633 -7.30651,2.13326 -3.63802,0.97693 -6.93314,1.96255 -7.32248,2.19026 -0.74263,0.43436 -1.39056,1.67334 -1.69104,3.23365 -0.34914,1.81297 -1.44704,3.4153 -2.83476,4.1372 -1.24499,0.64766 -62.68181,17.03029 -63.81867,17.01777 -0.58422,-0.006 -1.51447,-0.25035 -2.06721,-0.54205 z"
         id="path53" />
      <path
         style="fill:#f3837c;stroke-width:0.264583"
         d="m 178.04664,264.02589 -47.55858,-47.55914 47.62501,-47.62445 47.625,-47.62445 47.625,47.62445 47.625,47.62445 -47.55858,47.55914 c -26.15722,26.15752 -47.61836,47.55913 -47.69142,47.55913 -0.0731,0 -21.53421,-21.40161 -47.69143,-47.55913 z m 87.84315,-7.54243 c 21.86384,-21.86565 39.75245,-39.87292 39.75245,-40.01616 0,-0.42989 -79.47205,-79.77187 -79.90264,-79.77187 -0.43333,0 -79.9057,79.33862 -79.9057,79.77122 0,0.43303 79.47129,79.77253 79.90504,79.77253 0.21912,0 18.28701,-17.89007 40.15085,-39.75572 z m -80.50068,-24.50508 c -2.2336,-1.02272 -4.64834,-4.46668 -5.53735,-7.89751 -0.53618,-2.06918 -0.54054,-5.73708 -0.009,-7.24957 0.60216,-1.71219 1.54871,-3.00554 2.54579,-3.47852 1.24409,-0.59016 62.95195,-17.12737 63.88358,-17.12029 1.25445,0.01 2.83584,0.89645 4.38783,2.46089 2.27328,2.29151 1.07521,2.382 14.14667,-1.06856 3.6859,-0.97299 3.76261,-0.98174 4.69817,-0.5356 1.05251,0.50191 1.91694,1.71809 2.16891,3.05148 0.24649,1.30442 -0.51249,3.05382 -1.55969,3.59498 -0.46881,0.24227 -3.71885,1.20477 -7.22231,2.1389 -3.50346,0.93413 -6.68672,1.84275 -7.0739,2.01916 -0.94843,0.43214 -1.36658,1.13615 -1.87815,3.16213 -0.49269,1.95122 -1.52447,3.59245 -2.67335,4.25242 -1.02702,0.58997 -62.80569,17.16813 -63.94876,17.1605 -0.47877,-0.003 -1.34675,-0.22388 -1.92883,-0.49041 z"
         id="path51" />
      <path
         style="fill:#a0a0a0;stroke-width:0.264583"
         d="m 178.27864,264.08112 c -26.02993,-26.07914 -47.28259,-47.5499 -47.22813,-47.71281 0.0545,-0.16291 21.38123,-21.57958 47.39282,-47.5926 l 47.29382,-47.2964 47.49317,47.49317 c 26.12124,26.12124 47.49317,47.49391 47.49317,47.49482 0,0.0302 -95.11633,95.10368 -95.11689,95.07408 -5.3e-4,-0.024 -21.29804,-21.38112 -47.32796,-47.46026 z m 87.47733,-7.46296 c 21.93745,-21.93709 39.88627,-40.00468 39.88627,-40.1502 0,-0.34596 -79.68985,-80.03712 -80.03581,-80.03712 -0.34483,0 -80.03712,79.68925 -80.03712,80.03407 0,0.3454 79.68956,80.03886 80.03494,80.03886 0.146,0 18.21427,-17.94853 40.15172,-39.88561 z m -80.36686,-24.63978 c -2.2336,-1.02272 -4.64834,-4.46668 -5.53735,-7.89751 -0.53618,-2.06918 -0.54054,-5.73708 -0.009,-7.24957 0.60216,-1.71219 1.54871,-3.00554 2.54579,-3.47852 1.24409,-0.59016 62.95195,-17.12737 63.88358,-17.12029 1.25445,0.01 2.83584,0.89645 4.38783,2.46089 2.27328,2.29151 1.07521,2.382 14.14667,-1.06856 3.6859,-0.97299 3.76261,-0.98174 4.69817,-0.5356 1.05251,0.50191 1.91694,1.71809 2.16891,3.05148 0.24649,1.30442 -0.51249,3.05382 -1.55969,3.59498 -0.46881,0.24227 -3.71885,1.20477 -7.22231,2.1389 -3.50346,0.93413 -6.68672,1.84275 -7.0739,2.01916 -0.94843,0.43214 -1.36658,1.13615 -1.87815,3.16213 -0.49269,1.95122 -1.52447,3.59245 -2.67335,4.25242 -1.02702,0.58997 -62.80569,17.16813 -63.94876,17.1605 -0.47877,-0.003 -1.34675,-0.22388 -1.92883,-0.49041 z"
         id="path49" />
      <path
         style="fill:#f06258;stroke-width:0.264583"
         d="m 178.27864,264.08112 c -26.02993,-26.07914 -47.28259,-47.5499 -47.22813,-47.71281 0.0545,-0.16291 21.38123,-21.57958 47.39282,-47.5926 l 47.29382,-47.2964 47.49317,47.49317 c 26.12124,26.12124 47.49317,47.49391 47.49317,47.49482 0,0.0302 -95.11633,95.10368 -95.11689,95.07408 -5.3e-4,-0.024 -21.29804,-21.38112 -47.32796,-47.46026 z m 87.47733,-7.46296 c 21.93745,-21.93709 39.88627,-40.00468 39.88627,-40.1502 0,-0.34596 -79.68985,-80.03712 -80.03581,-80.03712 -0.34483,0 -80.03712,79.68925 -80.03712,80.03407 0,0.3454 79.68956,80.03886 80.03494,80.03886 0.146,0 18.21427,-17.94853 40.15172,-39.88561 z m -80.43629,-24.9668 c -1.50396,-0.74444 -3.07754,-2.58329 -4.15583,-4.85638 -1.06708,-2.24948 -1.46328,-4.0334 -1.46328,-6.58851 0,-3.61694 1.24595,-6.05742 3.51805,-6.89092 1.89223,-0.69415 62.32681,-16.82429 63.03535,-16.82429 1.14575,0 2.46498,0.72066 4.03397,2.20364 1.71907,1.62485 2.38466,2.0297 3.33689,2.0297 0.3682,0 3.78637,-0.83915 7.59594,-1.86478 4.69449,-1.26387 7.16646,-1.81207 7.67121,-1.70121 1.02446,0.22501 2.26365,1.71651 2.47742,2.98184 0.19158,1.13393 -0.25799,2.57419 -0.99405,3.18461 -0.23313,0.19333 -3.6579,1.22112 -7.61061,2.28397 -8.22569,2.21183 -8.21434,2.20548 -8.99771,5.03056 -0.64482,2.32545 -1.58483,3.89325 -2.67573,4.46274 -1.14172,0.59602 -62.74083,17.10775 -63.82164,17.10747 -0.45222,-1.1e-4 -1.32971,-0.25141 -1.94998,-0.55844 z"
         id="path47" />
      <path
         style="fill:#ee4034;stroke-width:0.264583"
         d="m 178.44352,263.89359 c -25.93894,-25.93924 -47.16171,-47.28132 -47.16171,-47.42684 0,-0.14552 21.25266,-21.51699 47.22813,-47.49215 l 47.22813,-47.22758 47.22812,47.22758 c 25.97547,25.97516 47.22813,47.34688 47.22813,47.4927 0,0.25999 -94.19718,94.58855 -94.45681,94.58855 -0.0728,0 -21.35506,-21.22302 -47.29399,-47.16226 z m 87.57529,-7.00998 c 26.53657,-26.5344 39.88801,-40.06267 39.88801,-40.41631 0,-0.62811 -79.54491,-80.30104 -80.17202,-80.30104 -0.42946,0 -80.43007,79.87227 -80.43007,80.30104 0,0.42878 80.00061,80.30105 80.43007,80.30105 0.2178,0 18.34561,-17.94813 40.28401,-39.88474 z m -80.69913,-25.23225 c -1.50396,-0.74444 -3.07754,-2.58329 -4.15583,-4.85638 -1.06708,-2.24948 -1.46328,-4.0334 -1.46328,-6.58851 0,-3.61694 1.24595,-6.05742 3.51805,-6.89092 1.89223,-0.69415 62.32681,-16.82429 63.03535,-16.82429 1.14575,0 2.46498,0.72066 4.03397,2.20364 1.71907,1.62485 2.38466,2.0297 3.33689,2.0297 0.3682,0 3.78637,-0.83915 7.59594,-1.86478 4.69449,-1.26387 7.16646,-1.81207 7.67121,-1.70121 1.02446,0.22501 2.26365,1.71651 2.47742,2.98184 0.19158,1.13393 -0.25799,2.57419 -0.99405,3.18461 -0.23313,0.19333 -3.6579,1.22112 -7.61061,2.28397 -8.22569,2.21183 -8.21434,2.20548 -8.99771,5.03056 -0.64482,2.32545 -1.58483,3.89325 -2.67573,4.46274 -1.14172,0.59602 -62.74083,17.10775 -63.82164,17.10747 -0.45222,-1.1e-4 -1.32971,-0.25141 -1.94998,-0.55844 z"
         id="path45" />
      <path
         style="fill:#5e5e5e;stroke-width:0.264583"
         d="m 185.31968,231.65136 c -1.50396,-0.74444 -3.07754,-2.58329 -4.15583,-4.85638 -1.06708,-2.24948 -1.46328,-4.0334 -1.46328,-6.58851 0,-3.61694 1.24595,-6.05742 3.51805,-6.89092 1.89223,-0.69415 62.32681,-16.82429 63.03535,-16.82429 1.14575,0 2.46498,0.72066 4.03397,2.20364 1.71907,1.62485 2.38466,2.0297 3.33689,2.0297 0.3682,0 3.78637,-0.83915 7.59594,-1.86478 4.69449,-1.26387 7.16646,-1.81207 7.67121,-1.70121 1.02446,0.22501 2.26365,1.71651 2.47742,2.98184 0.19158,1.13393 -0.25799,2.57419 -0.99405,3.18461 -0.23313,0.19333 -3.6579,1.22112 -7.61061,2.28397 -8.22569,2.21183 -8.21434,2.20548 -8.99771,5.03056 -0.64482,2.32545 -1.58483,3.89325 -2.67573,4.46274 -1.14172,0.59602 -62.74083,17.10775 -63.82164,17.10747 -0.45222,-1.1e-4 -1.32971,-0.25141 -1.94998,-0.55844 z"
         id="path43" />
      <path
         style="fill:#010101;stroke-width:0.264583"
         d="m 185.65369,231.44922 c -2.31353,-1.05932 -4.46477,-4.25064 -5.3172,-7.88796 -0.86132,-3.67523 -0.0163,-8.08853 1.79579,-9.37885 0.50886,-0.36234 11.49364,-3.42952 32.17722,-8.98456 17.27254,-4.63892 31.64273,-8.4335 31.93378,-8.43239 1.00398,0.004 2.75959,1.01676 4.02373,2.32161 1.49425,1.54236 2.11775,1.90211 3.29669,1.90211 0.48011,0 4.02286,-0.84473 7.87277,-1.87717 6.7766,-1.8173 7.02739,-1.86403 7.86376,-1.46519 2.1552,1.02774 2.41855,4.88463 0.38945,5.70349 -0.38073,0.15364 -3.60352,1.0596 -7.16176,2.01323 -3.55824,0.95363 -6.84955,1.96875 -7.31402,2.2558 -0.82715,0.51121 -1.69458,1.90685 -1.69458,2.72646 0,0.22721 -0.24483,1.06748 -0.54407,1.86726 -0.5879,1.57131 -1.58292,2.59187 -2.95494,3.03081 -2.61433,0.83639 -62.19312,16.70062 -62.70159,16.69575 -0.33369,-0.003 -1.08295,-0.22388 -1.66503,-0.4904 z"
         id="path41" />
    </g>
  </g>
</svg>
