<?xml version="1.0" encoding="UTF-8" standalone="no"?>
<!-- Created with Inkscape (http://www.inkscape.org/) -->

<svg
   width="24mm"
   height="24mm"
   viewBox="0 0 24 24"
   version="1.1"
   id="svg5"
   inkscape:version="1.1.1 (3bf5ae0d25, 2021-09-20)"
   sodipodi:docname="Trans.e.1.3.svg"
   xmlns:inkscape="http://www.inkscape.org/namespaces/inkscape"
   xmlns:sodipodi="http://sodipodi.sourceforge.net/DTD/sodipodi-0.dtd"
   xmlns="http://www.w3.org/2000/svg"
   xmlns:svg="http://www.w3.org/2000/svg">
  <sodipodi:namedview
     id="namedview7"
     pagecolor="#ffffff"
     bordercolor="#666666"
     borderopacity="1.0"
     inkscape:pageshadow="2"
     inkscape:pageopacity="0.0"
     inkscape:pagecheckerboard="0"
     inkscape:document-units="mm"
     showgrid="false"
     inkscape:zoom="0.46324355"
     inkscape:cx="849.44518"
     inkscape:cy="14.031496"
     inkscape:window-width="1366"
     inkscape:window-height="705"
     inkscape:window-x="-8"
     inkscape:window-y="-8"
     inkscape:window-maximized="1"
     inkscape:current-layer="layer1"
     showguides="true"
     inkscape:guide-bbox="true"
     width="24mm"
     fit-margin-top="0"
     fit-margin-left="0"
     fit-margin-right="0"
     fit-margin-bottom="0" />
  <defs
     id="defs2" />
  <g
     inkscape:label="Capa 1"
     inkscape:groupmode="layer"
     id="layer1"
     transform="translate(-30.748775,-144.40784)">
    <g
       id="g840"
       transform="matrix(0.12612503,0,0,0.12630028,17.938022,129.99234)">
      <path
         style="fill:#f7ab59;stroke-width:0.264583"
         d="m 149.03584,256.99804 c -25.94901,-25.93909 -47.30458,-47.38649 -47.45683,-47.66089 -0.2429,-0.43776 5.50569,-6.28362 46.91367,-47.70742 25.95477,-25.96469 47.41543,-47.33332 47.69036,-47.48586 0.43906,-0.2436 6.28838,5.51112 48.08802,47.31028 l 47.58816,47.5876 -47.55858,47.55914 c -26.15722,26.15752 -47.67698,47.55913 -47.82169,47.55913 -0.14471,0 -21.49411,-21.22289 -47.44311,-47.16198 z"
         id="path854" />
      <path
         style="fill:#f59226;stroke-width:0.264583"
         d="m 149.18237,256.3363 -47.29399,-47.29455 47.36042,-47.35986 47.36042,-47.35987 47.22812,47.22758 c 25.97547,25.97516 47.22813,47.34688 47.22813,47.4927 0,0.25999 -94.19718,94.58855 -94.45681,94.58855 -0.0728,0 -21.41459,-21.28255 -47.42629,-47.29455 z"
         id="path852" />
      <path
         style="fill:#ca781f;stroke-width:0.264583"
         d="m 154.07713,251.44148 c -23.31954,-23.31989 -42.39917,-42.51922 -42.39917,-42.6652 0,-0.34541 84.72037,-85.0621 85.06581,-85.0621 0.43098,0 85.06128,84.76478 85.06128,85.19645 0,0.51891 -84.41295,84.93064 -84.93187,84.93064 -0.21828,0 -19.4765,-19.07991 -42.79605,-42.39979 z m 122.96542,-42.6631 c 0,-0.34597 -79.95443,-80.3017 -80.30039,-80.3017 -0.34596,0 -80.3017,79.95443 -80.3017,80.30039 0,0.14552 18.06759,18.33247 40.1502,40.41543 l 40.1502,40.15085 40.15085,-40.15019 c 22.08296,-22.08261 40.15084,-40.26926 40.15084,-40.41478 z m -84.27635,70.70924 c -0.0672,-0.1819 -0.1528,-2.71198 -0.19014,-5.6224 l -0.0679,-5.29166 -1.85208,-0.13229 -1.85208,-0.1323 -0.08,-1.24006 c -0.0914,-1.41764 0.14462,-1.638 2.00856,-1.87523 1.34897,-0.17168 1.8136,-0.51258 2.30652,-1.69229 0.35845,-0.8579 0.40917,-0.88096 1.93823,-0.88096 1.40463,0 1.58696,0.0627 1.72968,0.59531 0.20804,0.77632 0.20804,15.23098 0,16.0073 -0.14595,0.54458 -0.31544,0.59531 -1.98907,0.59531 -1.22204,0 -1.87012,-0.10982 -1.95177,-0.33073 z m -1.5148,-22.98306 c -0.86282,-0.64373 -0.90786,-1.1473 -0.19843,-2.2185 0.68615,-1.03605 0.67095,-1.11744 -0.2463,-1.3189 -1.05607,-0.23195 -1.42391,-0.74491 -1.21531,-1.69469 0.25691,-1.16967 0.77064,-1.49048 1.85424,-1.15791 0.49538,0.15203 0.96689,0.21024 1.04778,0.12934 0.0809,-0.0809 0.14709,-0.65028 0.14709,-1.2653 0,-1.22731 0.24881,-1.43942 1.68851,-1.43942 1.14498,0 1.48649,0.41377 1.48649,1.80102 0,1.00234 0.065,1.14087 0.46302,0.98689 0.25466,-0.0985 0.79031,-0.24518 1.19033,-0.32591 0.64629,-0.13043 0.77467,-0.0334 1.15243,0.87068 0.50742,1.21442 0.28408,1.71748 -0.91513,2.06142 -0.96203,0.2759 -1.02141,0.56683 -0.30315,1.48507 0.71613,0.91553 0.65747,1.39312 -0.25387,2.06691 -1.04607,0.77339 -1.33601,0.73664 -2.19832,-0.27859 l -0.7324,-0.86228 -0.74208,0.8599 c -0.86018,0.99674 -1.22534,1.04603 -2.2249,0.30027 z m 6.82405,-15.50588 c -1.48181,-0.38354 -2.65373,-2.05897 -1.9952,-2.85245 0.49091,-0.59151 1.75205,-0.49633 2.21688,0.16732 0.50179,0.71639 1.29513,0.47771 1.17492,-0.35348 -0.0537,-0.37102 -0.32713,-0.64192 -0.74617,-0.73919 -0.5103,-0.11845 -0.68037,-0.34723 -0.74422,-1.00113 -0.0678,-0.69383 0.0402,-0.90365 0.59531,-1.15655 0.69208,-0.31534 0.81686,-0.52622 0.49927,-0.8438 -0.0983,-0.0984 -0.45726,0.0828 -0.79759,0.4025 -0.50915,0.47833 -0.747,0.53649 -1.34254,0.32828 -1.8629,-0.65128 -0.35514,-3.02142 1.92207,-3.02142 0.86253,0 1.36162,0.17805 1.99645,0.71223 0.81042,0.68192 0.84007,0.77481 0.69685,2.18282 -0.10784,1.06006 -0.043,1.61395 0.2322,1.98417 0.20998,0.28247 0.38134,0.81826 0.3808,1.19062 -0.001,0.80915 -0.83958,2.26374 -1.50621,2.61323 -0.66997,0.35123 -1.9688,0.54577 -2.58282,0.38685 z m -9.12984,-0.58586 c -0.15064,-0.28147 -0.27389,-1.47628 -0.27389,-2.65514 0,-2.03453 -0.0259,-2.12951 -0.51,-1.87042 -0.80676,0.43176 -1.34209,0.0638 -1.34209,-0.92252 0,-0.71651 0.16934,-0.98081 0.92939,-1.45054 0.51117,-0.31592 1.05473,-0.8086 1.20793,-1.09486 0.21446,-0.40071 0.50284,-0.5018 1.25342,-0.43937 l 0.97489,0.0811 0.0732,4.06542 c 0.0499,2.77297 -0.0235,4.1819 -0.23084,4.43178 -0.45653,0.55009 -1.75845,0.45915 -2.08201,-0.14544 z m 4.22693,-0.012 c -0.15416,-0.28806 -0.20344,-0.82998 -0.10949,-1.20427 0.15355,-0.61182 0.28109,-0.67248 1.26317,-0.60075 0.97783,0.0714 1.10131,0.15777 1.17764,0.8234 0.0469,0.40898 -0.057,0.915 -0.23084,1.12448 -0.47178,0.56845 -1.76694,0.48037 -2.10048,-0.14286 z m -37.92961,-35.67888 c -0.24084,-0.26612 -0.43788,-0.68204 -0.43788,-0.92427 0,-0.25959 3.15042,-2.96096 7.67292,-6.57927 4.2201,-3.37637 7.67291,-6.29793 7.67291,-6.49236 0,-0.19444 -0.16976,-0.41866 -0.37726,-0.49829 -0.20819,-0.0799 -3.21234,1.52459 -6.70338,3.58018 -3.47937,2.04872 -6.52803,3.72495 -6.7748,3.72495 -0.58381,0 -0.84316,-0.69528 -0.44038,-1.1806 0.17351,-0.20907 2.14959,-1.36026 4.39129,-2.55821 2.2417,-1.19795 4.02578,-2.22814 3.96461,-2.28931 -0.0612,-0.0612 -0.71867,0.0906 -1.46111,0.33715 -1.44425,0.4797 -2.12397,0.39846 -2.12397,-0.25385 0,-0.48013 -0.30778,-0.50042 -1.70532,-0.11242 -0.85821,0.23827 -0.96409,0.33447 -0.59532,0.54084 0.63658,0.35625 0.55818,1.44086 -0.13948,1.92952 -0.84397,0.59114 -1.13822,0.52417 -2.29705,-0.52275 l -1.03452,-0.93464 -5.35702,1.34417 c -2.94636,0.73929 -5.51726,1.28268 -5.71311,1.20752 -0.44799,-0.17191 -0.46383,-1.05805 -0.0254,-1.41921 0.1819,-0.14982 4.73604,-1.2411 10.12031,-2.42504 12.18208,-2.67872 14.48197,-3.21418 14.3542,-3.34196 -0.0557,-0.0557 -1.10556,0.0695 -2.33297,0.27833 -4.76917,0.81133 -30.44101,4.15342 -30.8116,4.01121 -0.42574,-0.16337 -0.53672,-1.10461 -0.15785,-1.33877 0.12873,-0.0796 2.89694,-0.44916 6.15156,-0.82133 3.25462,-0.37217 6.04732,-0.71978 6.20599,-0.77248 0.15868,-0.0527 0.23787,-0.44084 0.17598,-0.86253 -0.0953,-0.64942 0.0449,-0.87578 0.91634,-1.47971 0.56588,-0.39216 1.09745,-0.71301 1.18126,-0.71301 0.0838,0 0.85131,0.54668 1.70557,1.21485 l 1.55319,1.21485 1.71979,-0.16388 c 0.94588,-0.0901 2.11575,-0.23504 2.59969,-0.32201 l 0.87991,-0.15813 -0.96194,-0.79291 c -0.55489,-0.45738 -0.90275,-0.94716 -0.82206,-1.15743 0.0769,-0.20048 0.0543,-0.36564 -0.0503,-0.36702 -0.10457,-0.001 -2.80835,-0.12355 -6.0084,-0.27147 -6.00663,-0.27765 -6.77201,-0.44818 -6.39705,-1.4253 0.19375,-0.50492 0.20108,-0.50495 7.08368,-0.0301 2.99844,0.20688 6.12937,0.3062 6.95763,0.22072 0.87257,-0.0901 1.91802,-0.0255 2.4858,0.1535 0.53893,0.16991 3.123,0.47949 5.74237,0.68797 2.99771,0.23859 5.16997,0.54172 5.86209,0.81805 l 1.0996,0.43901 1.61582,-1.3447 1.61583,-1.34471 -0.78405,-0.40544 c -0.43122,-0.223 -1.20294,-0.40545 -1.71492,-0.40545 -0.75879,0 -0.89971,0.0812 -0.76226,0.43941 0.13535,0.35272 0.0554,0.40491 -0.40518,0.26458 -1.74133,-0.53054 -1.80449,-0.53659 -1.26897,-0.12158 0.3475,0.2693 0.44093,0.5557 0.3129,0.95911 -0.14413,0.45408 -0.38765,0.57458 -1.15691,0.57242 -1.65759,-0.005 -12.23109,-1.75547 -12.55448,-2.07886 -0.23101,-0.231 -0.16497,-0.44612 0.2707,-0.88179 l 0.57625,-0.57625 5.51763,1.24065 c 3.03469,0.68235 5.62825,1.23721 5.76346,1.23302 0.13521,-0.004 -1.48057,-0.8674 -3.59062,-1.91823 -2.47391,-1.23204 -3.86684,-2.07505 -3.92201,-2.37362 -0.14822,-0.80227 0.90632,-0.5383 3.55612,0.89017 3.63019,1.95698 3.58287,1.62217 -0.16328,-1.15547 -1.21994,-0.90455 -1.74128,-2.04981 -0.93309,-2.04981 0.23464,0 1.05742,0.47625 1.82838,1.05834 0.77096,0.58208 1.51165,1.05833 1.64598,1.05833 0.13432,0 0.53934,-0.62161 0.90005,-1.38136 0.8584,-1.80806 2.99707,-3.91963 4.93236,-4.8699 1.39903,-0.68696 1.8286,-0.76365 4.45861,-0.79599 l 2.91042,-0.0358 1.90665,-7.37254 c 1.04866,-4.0549 1.90702,-7.55114 1.90748,-7.76942 5.2e-4,-0.24133 -0.28769,-0.0599 -0.7353,0.46302 -0.95117,1.11111 -1.53113,1.10479 -1.84172,-0.0201 -0.13364,-0.48398 -0.54645,-1.18345 -0.91738,-1.55438 -0.64969,-0.64969 -0.66289,-0.72653 -0.35999,-2.0966 0.27668,-1.25148 0.39965,-1.43209 1.02459,-1.50468 0.40585,-0.0471 0.77604,-0.29002 0.86388,-0.56675 0.3466,-1.09206 2.32668,-0.80818 2.62394,0.37619 0.24846,0.98997 0.54831,0.64979 0.92979,-1.05483 0.18365,-0.82064 0.50799,-1.5518 0.72536,-1.63522 0.21626,-0.083 0.74363,0.10822 1.17194,0.42488 0.68372,0.50549 0.79859,0.52405 0.94133,0.15209 0.0894,-0.23302 1.0732,-3.00615 2.18618,-6.16252 l 2.0236,-5.73883 0.85846,0.0397 c 1.09416,0.0506 2.16931,0.74942 2.16931,1.41009 0,0.28133 -2.08254,6.31214 -4.62786,13.4018 -2.54533,7.08965 -4.57933,12.93882 -4.52001,12.99814 0.0593,0.0593 1.33819,-2.34132 2.84193,-5.33476 1.50374,-2.99345 2.86584,-5.49338 3.02689,-5.55541 0.44059,-0.1697 1.54348,0.45867 1.63449,0.93125 0.044,0.22824 -2.18741,4.30672 -4.95859,9.06328 -2.77118,4.75656 -5.03851,8.74533 -5.03851,8.86392 0,0.31685 0.91575,1.0914 1.29037,1.0914 0.17747,0 0.46976,-0.34982 0.64953,-0.77737 0.17977,-0.42755 0.81977,-1.17169 1.42222,-1.65364 0.60244,-0.48196 5.75637,-5.96621 11.45317,-12.18722 6.19111,-6.76082 10.54661,-11.31094 10.82713,-11.31094 0.44486,0 1.02328,0.50381 1.46423,1.27535 0.13682,0.2394 -2.99331,3.56499 -9.94778,10.56898 -7.23258,7.28408 -10.0158,10.2481 -9.68922,10.31864 0.25893,0.0559 1.10369,-0.42685 1.94248,-1.11013 0.81636,-0.665 1.58541,-1.20909 1.70901,-1.20909 0.53777,0 0.4935,0.60009 -0.13591,1.84216 -0.37147,0.73306 -0.60061,1.33284 -0.50921,1.33284 0.0914,0 3.15927,-2.10927 6.81748,-4.68727 9.5081,-6.7005 9.17091,-6.48498 9.59517,-6.13288 0.20528,0.17037 0.36341,0.79774 0.36341,1.44182 0,0.94391 -0.12527,1.22797 -0.7276,1.64995 -0.70966,0.49716 -19.13614,11.95805 -24.6724,15.34571 -2.18901,1.33946 -2.58378,1.66487 -1.86166,1.53452 0.50406,-0.091 1.21995,-0.45617 1.59087,-0.81153 0.63103,-0.60456 15.52026,-7.81115 16.13829,-7.81115 0.48813,0 0.88788,1.19687 0.58532,1.75247 -0.1774,0.32575 -2.28078,1.26099 -6.11644,2.7196 -3.21533,1.22271 -5.79612,2.27304 -5.7351,2.33406 0.061,0.061 9.0884,-2.21929 20.06085,-5.06738 10.97244,-2.84809 20.1485,-5.17834 20.39125,-5.17834 0.24275,0 0.63373,0.37199 0.86884,0.82664 0.35713,0.69061 0.36913,0.88425 0.0729,1.17666 -0.19499,0.19251 -10.59391,2.66647 -23.1087,5.49768 -25.52522,5.77456 -25.31308,5.72819 -26.20677,5.72819 -0.78629,0 -0.85589,-0.42767 -0.10822,-0.66497 0.35922,-0.11401 0.49204,-0.32328 0.39642,-0.62457 -0.14882,-0.46887 0.0242,-0.61881 4.41414,-3.82566 1.47941,-1.08071 1.99901,-1.60866 1.88237,-1.91263 -0.17286,-0.45045 -0.94257,-0.36622 -2.20607,0.24141 -0.48152,0.23157 -0.63726,0.48805 -0.57251,0.94286 0.0972,0.68268 -0.31913,1.0707 -1.15556,1.07701 -0.3036,0.002 -1.22459,0.70098 -2.11667,1.60578 -0.86857,0.88095 -2.232,2.10134 -3.02984,2.71198 -0.79785,0.61063 -1.73884,1.44678 -2.09109,1.8581 -0.41212,0.48123 -0.81464,0.7023 -1.12905,0.62009 -0.26874,-0.0703 -0.48861,-0.0757 -0.48861,-0.0122 0,0.17333 1.82906,1.76349 2.53599,2.20476 0.72329,0.45148 1.13001,0.2061 0.63901,-0.38553 -0.48412,-0.58332 -0.11488,-0.81235 0.64986,-0.40308 0.55378,0.29638 0.74793,0.28259 1.32252,-0.0939 0.54064,-0.35424 0.67345,-0.65561 0.67345,-1.52812 v -1.08685 l 0.96092,0.15594 c 0.5285,0.0858 1.80843,-0.0234 2.84427,-0.24251 4.20768,-0.89019 51.79295,-8.84923 52.03033,-8.70252 0.14088,0.0871 0.25615,0.63008 0.25615,1.2067 0,0.83512 -0.1211,1.10037 -0.59531,1.30392 -0.50667,0.21749 -31.31167,4.49563 -32.37101,4.49563 -0.88245,0 -0.20821,0.47927 2.07536,1.47524 2.59011,1.12967 2.9939,1.59821 2.16585,2.51319 -0.25359,0.28022 -0.41285,0.51701 -0.35392,0.52621 0.0589,0.009 4.89623,0.18189 10.74954,0.38377 6.41652,0.2213 10.85533,0.481 11.17865,0.65404 0.29494,0.15785 0.53626,0.52093 0.53626,0.80685 0,0.64833 0.74372,0.64661 -12.8663,0.0297 -5.94765,-0.26961 -11.23063,-0.48712 -11.73995,-0.48335 -0.50933,0.004 -3.06917,-0.13385 -5.68854,-0.30581 -2.61938,-0.17196 -5.83407,-0.37033 -7.14376,-0.44083 -1.30968,-0.0705 -3.43627,-0.20493 -4.72574,-0.29874 l -2.3445,-0.17058 0.19455,0.63174 c 0.10701,0.34746 0.20953,0.64411 0.22783,0.65923 0.0183,0.0151 4.18562,0.60409 9.2607,1.30882 9.25524,1.28519 10.1866,1.51464 9.8378,2.42361 -0.0811,0.21142 -0.14751,0.66382 -0.14751,1.00532 0,0.34151 -0.17508,0.796 -0.38906,1.00998 -0.34236,0.34236 -0.7473,0.29768 -3.37344,-0.37218 -1.64141,-0.41869 -2.98708,-0.76385 -2.99039,-0.76704 -0.003,-0.003 -0.006,0.46324 -0.006,1.03651 0,0.57326 -0.0877,1.13001 -0.19494,1.23723 -0.10721,0.10721 -1.05412,0.0619 -2.10425,-0.10061 -1.05013,-0.16254 -1.95381,-0.25105 -2.00818,-0.19668 -0.0544,0.0544 0.47853,0.39164 1.18423,0.7495 1.4019,0.7109 2.05385,1.32907 2.318,2.19787 0.34039,1.11955 -0.61633,0.84027 -3.80862,-1.11176 -5.66527,-3.46423 -5.67965,-3.32946 -0.0765,0.71736 5.08419,3.67202 5.19957,3.77868 4.83136,4.46669 -0.42271,0.78982 -1.00286,0.64219 -2.69227,-0.68508 -1.26315,-0.99239 -1.53783,-1.1184 -1.53783,-0.70556 0,1.31601 -0.18548,1.20673 -6.25968,-3.68819 -2.49694,-2.01217 -4.6688,-3.65849 -4.82635,-3.65849 -0.15756,0 -0.81724,0.40514 -1.46595,0.90032 -3.47881,2.65544 -8.54158,2.52969 -12.25441,-0.30438 l -1.15574,-0.88219 -1.30644,1.0938 c -0.71853,0.6016 -1.30643,1.17272 -1.30643,1.26917 0,0.0965 0.35719,0.33347 0.79375,0.52671 1.07265,0.4748 1.09322,1.63573 0.0475,2.68145 -0.6701,0.6701 -0.87933,0.73209 -2.05052,0.60747 -0.71735,-0.0763 -1.48492,-0.29562 -1.70572,-0.48731 -0.34464,-0.29921 -1.01287,0.21111 -4.72127,3.6055 -2.37589,2.17473 -4.52827,3.95405 -4.78305,3.95405 -0.25479,0 -0.6603,-0.21774 -0.90114,-0.48386 z m 37.04183,-14.20241 c 0.36512,-0.7872 0.44331,-0.735 -1.97192,-1.31633 -1.65147,-0.39749 -2.55279,-0.41178 -2.14824,-0.0341 0.19183,0.17911 3.54376,2.00763 3.68212,2.00864 0.0728,5.3e-4 0.26988,-0.29569 0.43804,-0.65826 z m -25.09721,-3.48108 c 0.86293,-0.11601 1.11779,-0.25705 1.05523,-0.58395 -0.0687,-0.35878 -0.53639,-0.44363 -2.79136,-0.5064 -2.55111,-0.071 -2.70887,-0.0448 -2.70887,0.44988 0,0.2889 -0.20836,0.6561 -0.46302,0.816 -0.46483,0.29187 2.11884,0.19947 4.90802,-0.17553 z m 33.818,-2.38488 c -0.0289,-0.92595 0.0368,-1.01018 1.09618,-1.40685 0.61979,-0.23207 1.33417,-0.63974 1.5875,-0.90593 0.55472,-0.58288 1.01098,-0.62061 -9.13679,0.75559 -3.82336,0.51851 -7.32822,0.94275 -7.78856,0.94275 h -0.837 l 0.6993,0.7276 0.6993,0.72761 6.85539,0.0721 6.85538,0.0721 z m -18.8352,-4.37166 c 0.46384,-0.66224 0.18502,-0.99425 -0.84082,-1.00123 -0.68207,-0.005 -0.68255,-0.003 -0.33728,0.90477 0.31625,0.83181 0.64423,0.85866 1.1781,0.0965 z m -33.16572,20.23979 c -1.03873,-1.25392 -1.21262,-1.91377 -0.8188,-3.10706 0.23906,-0.72438 0.45375,-0.94009 0.93558,-0.94009 0.34393,0 0.70322,0.12603 0.79842,0.28007 0.0978,0.1583 0.49886,0.20852 0.92234,0.11551 0.46853,-0.1029 1.06283,-0.002 1.5862,0.26824 0.71355,0.36899 0.81244,0.53724 0.6708,1.14126 -0.17528,0.7475 -1.27771,1.89908 -1.81801,1.89908 -0.17566,0 -0.43691,0.26019 -0.58056,0.5782 -0.40808,0.9034 -0.7975,0.84939 -1.69597,-0.23521 z m 60.56917,-27.95668 -1.98437,-0.29985 0.0357,-0.82943 c 0.0455,-1.05736 1.08216,-2.47786 1.80828,-2.47786 0.76322,0 3.70674,2.99223 3.49256,3.55035 -0.18148,0.47294 -0.55613,0.47929 -3.35216,0.0568 z m 14.07938,-6.68529 -1.39384,-0.97575 -0.73485,0.70403 c -0.88518,0.84806 -1.41779,0.87955 -2.5929,0.15329 -0.78737,-0.48663 -0.89112,-0.6827 -0.89112,-1.68411 0,-1.50324 0.78305,-2.5263 1.93743,-2.53126 1.59283,-0.007 1.95644,-0.23915 2.3011,-1.47016 0.33811,-1.20759 0.85454,-1.85519 1.27314,-1.59648 0.13375,0.0827 0.73911,0.98506 1.34523,2.00532 1.08307,1.82307 1.10073,1.89262 1.02518,4.03674 -0.0927,2.63048 -0.28648,2.74648 -2.26937,1.35838 z m -29.75594,-1.76995 c -1.46582,-1.20016 -0.52843,-4.6769 1.26098,-4.6769 1.51507,0 2.09975,2.84811 0.91393,4.45201 -0.73016,0.98759 -1.18584,1.03471 -2.17491,0.22489 z"
         id="path850" />
      <path
         style="fill:#9f5e18;stroke-width:0.264583"
         d="m 154.20943,251.30918 c -23.24679,-23.24712 -42.26688,-42.38553 -42.26688,-42.5298 0,-0.31727 83.79398,-84.18693 84.50505,-84.58138 0.43895,-0.24349 5.65238,4.87519 42.79636,42.01862 23.26308,23.26275 42.29651,42.41524 42.29651,42.5611 0,0.34637 -84.45321,84.79896 -84.79958,84.79896 -0.14552,0 -19.28468,-19.02037 -42.53146,-42.2675 z m 123.09771,-42.53081 c 0,-0.34596 -80.21902,-80.56628 -80.56498,-80.56628 -0.34596,0 -80.56628,80.21902 -80.56628,80.56498 0,0.14552 18.12712,18.392 40.28249,40.54773 l 40.28249,40.28313 40.28314,-40.28249 c 22.15572,-22.15536 40.28314,-40.40155 40.28314,-40.54707 z m -84.2509,70.6242 c -0.35016,-0.35015 -0.41577,-1.24789 -0.41577,-5.68854 v -5.27276 h -1.34031 c -1.81587,0 -2.36386,-0.332 -2.36386,-1.43213 0,-1.08246 0.3291,-1.36455 1.81194,-1.55316 1.15155,-0.14647 2.42139,-1.02339 2.42139,-1.67215 0,-0.9736 1.76737,-1.51056 2.92781,-0.88951 0.48877,0.26158 0.51178,0.6359 0.51178,8.32507 0,7.68917 -0.023,8.06349 -0.51178,8.32507 -0.7769,0.41578 -2.56705,0.33226 -3.0412,-0.14189 z m -1.67254,-23.046 c -0.74074,-0.51671 -0.74838,-0.96665 -0.036,-2.11935 0.62414,-1.00988 0.57088,-1.13814 -0.6351,-1.52944 -0.95073,-0.30849 -1.13213,-0.77207 -0.72307,-1.84796 0.25233,-0.6637 0.36761,-0.71963 1.13515,-0.55085 1.63894,0.36041 1.63932,0.36018 1.78034,-1.05 l 0.13229,-1.32291 h 1.19063 1.19062 l 0.13229,1.32291 c 0.0728,0.72761 0.25136,1.30362 0.39688,1.28004 0.14552,-0.0236 0.69257,-0.12266 1.21567,-0.22017 0.88025,-0.16409 0.97609,-0.11692 1.2869,0.63344 0.43947,1.06098 0.23221,1.52335 -0.78278,1.74628 -1.07808,0.23678 -1.23823,0.724 -0.55387,1.6851 0.70205,0.98593 0.69549,1.28693 -0.0414,1.9017 -0.86269,0.71968 -1.29512,0.63197 -2.14684,-0.43549 l -0.75778,-0.94971 -0.78284,0.94972 c -0.86561,1.05013 -1.12711,1.11635 -2.00108,0.50669 z m 6.30936,-15.7666 c -0.8698,-0.44701 -1.72018,-1.6503 -1.52526,-2.15826 0.23206,-0.60473 1.55582,-0.5237 2.11508,0.12946 0.51014,0.59581 0.92257,0.57598 1.3261,-0.0637 0.36386,-0.57683 0.0434,-1.2396 -0.74402,-1.539 -0.79012,-0.3004 -0.88658,-1.13796 -0.18903,-1.64122 0.73096,-0.52735 0.87549,-0.91602 0.46675,-1.25524 -0.29156,-0.24197 -0.48387,-0.18699 -0.89699,0.25644 -0.77416,0.83097 -1.76877,0.61914 -1.76877,-0.37671 0,-1.05302 1.13709,-1.88002 2.53456,-1.84337 1.82455,0.0478 2.9129,1.53923 2.2613,3.09872 -0.32204,0.77076 -0.3079,0.9261 0.13403,1.47186 0.96957,1.19737 0.32303,3.22877 -1.23479,3.87967 -1.09735,0.4585 -1.64942,0.46772 -2.47896,0.0414 z m -8.59069,-0.33423 c -0.0913,-0.23801 -0.16607,-1.44779 -0.16607,-2.68838 0,-2.0442 -0.0434,-2.23782 -0.46302,-2.06564 -0.88436,0.36288 -1.25604,0.26685 -1.34318,-0.34702 -0.0636,-0.44768 0.24577,-0.92012 1.15968,-1.7712 1.47976,-1.37801 1.78011,-1.51922 2.34803,-1.10394 0.36992,0.27049 0.41975,0.86899 0.35645,4.2813 l -0.0736,3.96686 -0.82612,0.0804 c -0.57319,0.0558 -0.87696,-0.0521 -0.99218,-0.35237 z m 4.23333,0 c -0.28645,-0.74648 -0.184,-1.15501 0.3631,-1.44781 0.80923,-0.43308 1.64081,0.11329 1.53721,1.00998 -0.067,0.57968 -0.23346,0.72455 -0.90812,0.7902 -0.5732,0.0558 -0.87697,-0.0521 -0.99219,-0.35237 z m -37.94857,-35.63198 c -0.17462,-0.17462 -0.3175,-0.52296 -0.3175,-0.77409 0,-0.2813 2.94555,-2.80433 7.67292,-6.57227 4.2201,-3.36362 7.67292,-6.281 7.67292,-6.48305 0,-0.20206 -0.19134,-0.55871 -0.4252,-0.79257 -0.39054,-0.39054 -0.49298,-0.38329 -1.25677,0.089 -5.54024,3.4256 -12.0326,7.1776 -12.41993,7.1776 -0.32321,0 -0.45882,-0.15698 -0.4,-0.46302 0.0565,-0.29391 1.96661,-1.4715 5.22978,-3.22415 2.82744,-1.51861 5.01624,-2.80264 4.864,-2.85339 -0.15224,-0.0507 -1.21699,0.20798 -2.36611,0.57493 -2.53051,0.8081 -2.75077,0.81969 -2.75077,0.14479 0,-0.64181 -0.0915,-0.64509 -2.32688,-0.0832 -1.69949,0.42716 -1.73916,0.45502 -0.94248,0.66172 1.05124,0.27275 1.29054,0.87117 0.61752,1.54419 -0.7273,0.7273 -1.05615,0.66294 -2.17744,-0.42616 l -0.97738,-0.94934 -5.45354,1.34792 c -2.99945,0.74136 -5.56248,1.28059 -5.69563,1.1983 -0.30448,-0.18817 -0.31561,-0.83547 -0.0175,-1.01969 0.28188,-0.17421 13.06701,-3.02725 19.72125,-4.40085 2.74826,-0.56731 5.04435,-1.07898 5.10241,-1.13703 0.0581,-0.0581 -0.0102,-0.62088 -0.15174,-1.25072 -0.14152,-0.62983 -0.19815,-1.24086 -0.12586,-1.35783 0.21019,-0.3401 0.97907,-0.25091 2.86896,0.33283 l 1.76615,0.5455 1.41277,-1.20696 c 0.77703,-0.66384 1.61441,-1.20697 1.86085,-1.20697 0.24643,0 1.27602,0.71437 2.28797,1.5875 1.93673,1.67103 2.33291,1.83549 2.86811,1.19062 0.18115,-0.21828 0.47733,-0.39687 0.65817,-0.39687 0.18084,0 0.64251,-0.24677 1.02594,-0.54837 0.51086,-0.40185 0.69714,-0.79067 0.69714,-1.45521 0,-1.28517 0.67393,-1.18856 2.12772,0.30501 0.64876,0.66651 1.50699,1.38395 1.90717,1.59429 0.40018,0.21035 0.72761,0.55572 0.72761,0.76749 0,0.50095 -0.2253,0.45842 9.92187,1.87274 4.80219,0.66933 8.88238,1.34155 9.0671,1.49382 0.2221,0.18309 0.27887,0.60046 0.16763,1.23239 -0.29303,1.66464 -0.43932,1.69628 -3.78489,0.81853 -1.65407,-0.43396 -3.05233,-0.78902 -3.10726,-0.78902 -0.0549,0 -0.024,0.47426 0.0687,1.05393 0.21802,1.36343 -0.11069,1.4936 -2.7119,1.07398 -1.09512,-0.17666 -2.04808,-0.26424 -2.1177,-0.19462 -0.0696,0.0696 0.5651,0.51502 1.41048,0.98978 0.84537,0.47477 1.74541,1.04178 2.00007,1.26003 0.51924,0.44501 0.6267,1.37315 0.15899,1.37315 -0.16722,0 -2.51871,-1.35228 -5.22552,-3.00506 -8.17555,-4.992 -8.15475,-4.84869 0.17174,1.18281 3.45612,2.50353 6.36213,4.67105 6.45781,4.81671 0.255,0.38823 -0.0379,0.97429 -0.48695,0.97429 -0.21376,0 -1.06423,-0.51477 -1.88992,-1.14392 -2.15523,-1.64223 -2.21437,-1.66758 -2.01234,-0.86263 0.12251,0.48814 0.067,0.68363 -0.19412,0.68363 -0.20114,0 -2.20834,-1.50009 -4.46046,-3.33353 -2.25211,-1.83345 -4.52673,-3.67743 -5.05471,-4.09775 l -0.95995,-0.76421 -1.02442,0.82632 c -2.00046,1.61361 -3.67201,2.1968 -6.31609,2.20364 -2.04916,0.005 -2.59659,-0.0947 -3.92533,-0.71722 -0.84924,-0.39785 -1.99747,-1.08246 -2.55162,-1.52135 -0.55414,-0.43889 -1.08682,-0.79798 -1.18373,-0.79798 -0.0969,0 -0.83062,0.61891 -1.63046,1.37537 l -1.45425,1.37537 0.87478,0.41146 c 1.14588,0.53898 1.31128,1.58472 0.3955,2.5005 -0.55176,0.55176 -0.81417,0.62354 -1.80302,0.49321 -0.63651,-0.0839 -1.4017,-0.31098 -1.70042,-0.50463 -0.50309,-0.32614 -0.86326,-0.0598 -4.88494,3.61289 -2.38799,2.18075 -4.53078,3.96499 -4.76176,3.96499 -0.23098,0 -0.56283,-0.14287 -0.73746,-0.3175 z m 36.98875,-9.32679 c 0,-0.15637 -5.21476,-4.37862 -5.4079,-4.37862 -0.0816,0 -0.14193,0.14882 -0.13409,0.33073 0.008,0.1819 1.22823,1.18667 2.71198,2.23282 2.86823,2.02232 2.83001,1.99781 2.83001,1.81507 z m 0,-4.32571 c 0,-0.26193 0.14784,-0.62408 0.32852,-0.80476 0.45462,-0.45462 0.10161,-0.6375 -2.34309,-1.21384 -1.98037,-0.46687 -2.79619,-0.34207 -2.36151,0.36127 0.21359,0.34559 3.5635,2.10161 4.04535,2.12057 0.18191,0.007 0.33073,-0.2013 0.33073,-0.46324 z m -43.39001,9.1678 c -0.85074,-1.17441 -0.94465,-1.64997 -0.53737,-2.7212 0.26239,-0.69013 1.14088,-0.93328 1.46677,-0.40598 0.0948,0.15334 0.54149,0.20274 1.02063,0.11285 0.62449,-0.11715 1.0228,-0.0216 1.49121,0.35767 0.57436,0.4651 0.60598,0.59025 0.31211,1.23524 -0.17986,0.39474 -0.67288,0.84826 -1.0956,1.00782 -0.42272,0.15956 -0.89381,0.56495 -1.04686,0.90087 -0.39239,0.8612 -0.70188,0.76758 -1.61089,-0.48727 z m -14.02457,-8.56493 c 0,-0.65806 0.88914,-0.8466 7.39214,-1.56751 3.41084,-0.37812 6.26314,-0.74911 6.33845,-0.82442 0.0753,-0.0753 -0.12577,-0.20562 -0.44683,-0.28958 -0.82547,-0.21587 -0.72676,-0.98191 0.23029,-1.78721 0.44773,-0.37674 0.90317,-0.68498 1.01208,-0.68498 0.10893,0 0.90346,0.54778 1.76564,1.2173 1.56127,1.21238 1.57402,1.21661 3.1551,1.04816 3.17037,-0.33776 4.10085,-0.48467 4.091,-0.6459 -0.006,-0.0904 -0.48648,-0.494 -1.06879,-0.89689 -0.66181,-0.4579 -1.03004,-0.90429 -0.98215,-1.19063 0.0691,-0.41299 -0.36619,-0.47799 -4.42131,-0.6603 -6.41527,-0.28842 -7.91396,-0.48545 -8.02128,-1.05455 -0.10967,-0.58163 0.35843,-0.58619 7.57118,-0.0738 3.51989,0.25007 5.59872,0.29488 6.0323,0.13004 0.4332,-0.1647 1.04525,-0.15186 1.77302,0.0372 0.6113,0.1588 2.03418,0.41313 3.16197,0.56518 2.1732,0.293 2.76738,0.7304 0.99219,0.7304 -0.94101,0 -1.05833,0.0705 -1.05833,0.63557 0,0.46832 -0.20889,0.7084 -0.79375,0.91228 -1.09219,0.38074 -0.99638,0.8334 0.17639,0.8334 0.53357,0 0.90881,0.0613 0.83385,0.13628 -0.25317,0.25317 -25.56956,3.83247 -27.10708,3.83247 -0.38405,0 -0.62608,-0.15562 -0.62608,-0.40255 z m 83.60833,-4.08941 c -5.02046,-0.2469 -9.34407,-0.39291 -9.60801,-0.32446 -0.26394,0.0685 -1.5141,-0.006 -2.77813,-0.16571 -1.26403,-0.15958 -3.51862,-0.36689 -5.01021,-0.46068 -2.89306,-0.18191 -3.61812,-0.56278 -1.32292,-0.69493 1.35213,-0.0778 1.38695,-0.0999 1.30935,-0.83026 -0.0971,-0.91391 0.28131,-1.41373 1.22772,-1.6216 0.87248,-0.19163 2.36607,-1.34201 2.09601,-1.61437 -0.10756,-0.10848 -2.60894,0.1235 -5.55862,0.5155 -6.03646,0.80222 -9.40562,1.11601 -9.16477,0.85357 0.27355,-0.29807 5.85993,-1.30665 27.96114,-5.0482 11.68435,-1.97806 21.35818,-3.52607 21.4974,-3.44003 0.42078,0.26006 0.29899,1.90308 -0.15395,2.07689 -0.2239,0.0859 -7.45694,1.10923 -16.07344,2.27402 -17.93919,2.42506 -17.44164,2.34964 -17.27545,2.61853 0.069,0.1116 1.32244,0.71404 2.78548,1.33876 2.76394,1.18019 3.06608,1.51316 2.22072,2.44728 -0.24164,0.26701 -0.38122,0.54361 -0.31017,0.61466 0.0711,0.0711 4.94196,0.29238 10.82425,0.49185 5.88228,0.19946 10.90342,0.451 11.15808,0.55896 0.25467,0.10796 0.46302,0.36215 0.46302,0.56486 0,0.46954 -2.0456,0.4474 -14.2875,-0.15464 z m -21.76198,-1.5041 c 0.18191,-0.0734 0.47956,-0.0734 0.66146,0 0.1819,0.0734 0.0331,0.13345 -0.33073,0.13345 -0.3638,0 -0.51263,-0.06 -0.33073,-0.13345 z m -33.93281,-2.3943 c -2.32833,-0.36742 -4.38363,-0.78883 -4.56732,-0.93645 -0.41989,-0.33742 0.0493,-0.99194 0.71113,-0.99194 1.03288,0 10.33848,2.27932 10.33848,2.53232 0,0.25756 -2.49783,0.0248 -6.48229,-0.60393 z m 13.5414,-0.22504 c -1.72752,-0.89203 -1.89881,-0.92688 -4.018,-0.8175 l -2.21356,0.11424 -1.40596,-1.35994 c -0.77328,-0.74797 -1.97151,-1.74444 -2.66273,-2.21439 -1.15133,-0.78275 -1.66479,-1.65909 -0.97209,-1.65909 0.15657,0 0.97759,0.53318 1.82448,1.18484 1.69726,1.30602 1.58158,1.33857 2.655,-0.74691 0.94411,-1.83424 3.58302,-4.22112 5.47071,-4.94822 1.43796,-0.55388 4.40968,-0.77536 6.28507,-0.46841 0.37843,0.0619 0.56762,-0.12392 0.72258,-0.70985 0.11547,-0.43656 0.99112,-3.9489 1.94591,-7.8052 0.95478,-3.85631 1.7985,-7.21982 1.87493,-7.47448 0.24509,-0.81665 -0.36859,-0.49562 -1.13631,0.59443 -0.87143,1.2373 -1.38018,1.25787 -1.77967,0.072 -0.15841,-0.47022 -0.55955,-1.04508 -0.89143,-1.27745 -0.51082,-0.35767 -0.57653,-0.5716 -0.42819,-1.39401 0.24408,-1.3533 0.57186,-1.89755 1.14278,-1.89755 0.26919,0 0.68446,-0.29765 0.92283,-0.66146 0.76105,-1.16149 1.98599,-0.64479 2.37781,1.00301 0.24385,1.02555 0.57824,0.70025 0.9622,-0.93605 0.56355,-2.4017 0.82586,-2.66415 1.84107,-1.84208 0.57444,0.46515 0.57742,0.4999 0.1625,1.89708 -0.23246,0.78278 -0.36353,1.48237 -0.29126,1.55464 0.0723,0.0723 0.13139,0.0794 0.13139,0.0158 0,-0.0636 1.19062,-3.4922 2.64583,-7.61918 1.45521,-4.12698 2.64584,-7.54763 2.64584,-7.60144 0,-0.24818 1.16248,-0.0576 1.86522,0.30583 0.48509,0.25085 0.78061,0.61215 0.78061,0.95435 0,0.30288 -2.26219,6.85417 -5.02708,14.55844 -2.7649,7.70426 -5.02505,14.15066 -5.02255,14.32533 0.002,0.17467 1.50302,-2.59944 3.33452,-6.1647 1.83149,-3.56527 3.48244,-6.64275 3.66876,-6.83885 0.40979,-0.4313 1.45885,0.0141 1.45885,0.61934 0,0.20705 -2.26219,4.25599 -5.02708,8.99763 -2.7649,4.74164 -5.02709,8.74591 -5.02709,8.89838 0,0.35148 1.08513,1.26761 1.51526,1.27928 0.17854,0.005 0.53108,-0.31862 0.78341,-0.71881 0.25232,-0.40018 1.24055,-1.50151 2.19605,-2.44739 0.95549,-0.94589 6.07465,-6.45759 11.37591,-12.24822 7.12802,-7.78605 9.77158,-10.50828 10.149,-10.45105 0.2807,0.0426 0.69199,0.35227 0.91399,0.68823 0.39636,0.59983 0.22166,0.79304 -9.69312,10.72017 -5.55321,5.56014 -10.09675,10.25612 -10.09675,10.43552 0,0.64698 1.1414,0.30506 2.44408,-0.73215 1.99604,-1.58927 2.24222,-1.40545 1.11001,0.82885 -0.37359,0.73724 -0.63554,1.38414 -0.58213,1.43755 0.0534,0.0534 3.00822,-1.95853 6.56623,-4.471 9.08291,-6.41386 10.06656,-7.07124 10.33372,-6.90613 0.13004,0.0804 0.23643,0.6671 0.23643,1.30384 v 1.15771 l -3.50573,2.17567 c -14.3085,8.87991 -20.12325,12.45498 -21.4974,13.21719 -1.37585,0.76316 -1.51695,0.79924 -1.05833,0.27062 0.29104,-0.33547 1.45304,-1.27244 2.58223,-2.08215 1.70546,-1.22295 2.02467,-1.56485 1.88536,-2.01937 -0.0922,-0.30093 -0.21389,-0.59821 -0.27034,-0.66061 -0.20327,-0.2247 -3.00728,0.80937 -3.03475,1.11916 -0.0155,0.17447 -0.0452,0.55534 -0.0661,0.84638 -0.0265,0.36943 -0.25897,0.55456 -0.76998,0.6133 -0.44752,0.0514 -1.36196,0.66742 -2.35316,1.58509 -1.08826,1.00754 -1.56318,1.31814 -1.44471,0.94485 0.15791,-0.4975 0.0459,-0.574 -1.0635,-0.72605 -0.68201,-0.0935 -1.29249,-0.11748 -1.35663,-0.0533 -0.0641,0.0641 0.0549,0.63007 0.26459,1.25763 l 0.38121,1.14102 -1.19786,1.38906 c -0.65882,0.76398 -1.32398,1.38665 -1.47813,1.38369 -0.15415,-0.003 -1.09226,-0.42465 -2.0847,-0.93711 z m 8.21729,-5.82973 c -0.33639,-0.3364 -0.9889,0.15009 -0.9889,0.73729 v 0.59626 l 0.58062,-0.58061 c 0.31933,-0.31933 0.50306,-0.65816 0.40828,-0.75294 z m -19.179,3.60422 c -2.50934,-1.19719 -3.32415,-1.85909 -2.28857,-1.85909 0.41904,0 5.66201,2.83132 5.66201,3.0576 0,0.30435 -0.87499,-0.007 -3.37344,-1.19851 z m 21.94603,0.11762 c 0.23017,-0.23017 3.89288,-1.21335 24.63773,-6.61349 10.88709,-2.83404 20.00603,-5.1528 20.26431,-5.1528 0.54116,0 1.22848,1.28397 0.876,1.63645 -0.23942,0.23942 -37.34389,8.73039 -42.46979,9.71877 -2.98125,0.57485 -3.54166,0.64448 -3.30825,0.41107 z m 1.76604,-1.65027 c 1.01101,-0.82064 13.78961,-6.73421 14.20635,-6.57429 0.57954,0.22239 0.45303,1.16089 -0.2153,1.59727 -0.7072,0.46176 -12.67924,5.06261 -13.82448,5.31275 l -0.79375,0.17336 z m 20.64333,-7.20139 c -1.75052,-0.22534 -2.08821,-0.39641 -2.08821,-1.05787 0,-0.66843 1.25832,-2.12135 1.83722,-2.12135 0.57671,0 3.28278,2.8106 3.05732,3.17541 -0.17882,0.28934 -0.58391,0.28989 -2.80633,0.004 z m 13.86594,-6.79225 -1.37606,-0.96254 -0.95641,0.83975 -0.95642,0.83974 -1.02871,-0.57817 c -1.23289,-0.69292 -1.34365,-0.92657 -1.05206,-2.21941 0.30556,-1.35483 0.69115,-1.66635 2.35984,-1.90649 l 1.43003,-0.20581 0.44243,-1.32254 c 0.24333,-0.7274 0.52144,-1.29277 0.61803,-1.25639 0.0966,0.0364 0.2693,0.0661 0.38382,0.0661 0.11453,0 0.65031,0.76863 1.19063,1.70807 0.9105,1.58307 0.98239,1.86384 0.98239,3.83646 0,1.52756 -0.0934,2.12773 -0.33072,2.12606 -0.18191,-0.001 -0.94996,-0.43547 -1.70679,-0.96487 z m -29.79546,-1.93286 c -0.59291,-0.70464 -0.63385,-0.89748 -0.40725,-1.91823 0.33142,-1.49288 1.01529,-2.18568 1.93072,-1.95592 1.33663,0.33547 1.56351,2.76992 0.37594,4.03402 -0.76563,0.81498 -1.10302,0.78658 -1.89941,-0.15987 z"
         id="path848" />
      <path
         style="fill:#744511;stroke-width:0.264583"
         d="m 154.34172,251.17689 c -23.17403,-23.17436 -42.13459,-42.25427 -42.13459,-42.39979 0,-0.34596 84.18904,-84.53376 84.535,-84.53376 0.43205,0 84.53376,84.23456 84.53376,84.6673 0,0.5189 -83.8838,84.40146 -84.40271,84.40146 -0.21828,0 -19.35744,-18.96084 -42.53146,-42.13521 z m 82.94686,-1.85145 c 22.15573,-22.15536 40.28314,-40.40077 40.28314,-40.54533 0,-0.3173 -79.82411,-80.21833 -80.53516,-80.61277 -0.43738,-0.24262 -5.42493,4.64733 -40.56374,39.77 -22.03578,22.02565 -40.18981,40.27156 -40.3423,40.54646 -0.24345,0.43891 4.63674,5.4139 40.03426,40.81198 22.17132,22.17169 40.43056,40.31215 40.57608,40.31215 0.14552,0 18.392,-18.12712 40.54772,-40.28249 z m -44.25269,29.91089 c -0.0701,-0.18921 -0.1579,-2.72527 -0.19524,-5.63569 l -0.0679,-5.29167 -1.71979,-0.13229 -1.7198,-0.13229 -0.0796,-1.08861 -0.0796,-1.0886 1.2798,-0.16978 c 1.57746,-0.20925 2.39299,-0.75614 2.88556,-1.93503 0.36347,-0.8699 0.42751,-0.90242 1.6257,-0.82532 l 1.24732,0.0803 v 8.20208 8.20208 l -1.52455,0.0795 c -1.06872,0.0557 -1.56263,-0.0234 -1.6519,-0.26459 z m -1.74507,-23.19892 -0.61452,-0.49761 0.75111,-1.13501 c 0.7142,-1.07924 0.72747,-1.1523 0.27006,-1.48677 -0.26458,-0.19347 -0.70016,-0.35176 -0.96796,-0.35176 -0.60506,0 -0.8459,-0.57996 -0.61796,-1.48814 0.16612,-0.6619 0.23247,-0.68545 1.46895,-0.52142 l 1.29497,0.17178 0.0809,-1.26392 0.0809,-1.26392 1.10939,-0.0806 1.10939,-0.0806 0.0812,1.27124 0.0812,1.27125 1.29653,-0.0836 c 1.38077,-0.089 1.73483,0.15235 1.74213,1.18754 0.003,0.42344 -0.23882,0.65495 -0.91831,0.8792 -1.23277,0.40685 -1.3295,0.64605 -0.68374,1.69092 0.66851,1.08167 0.68507,1.45502 0.0848,1.91073 -0.72526,0.55055 -1.24133,0.43353 -1.8764,-0.42544 -0.73738,-0.99736 -1.09544,-0.99736 -1.76163,0 -0.61201,0.91627 -1.14784,0.99517 -2.0111,0.29615 z m 5.86786,-16.06237 c -0.88274,-0.74278 -1.06023,-1.54519 -0.39801,-1.79931 0.46908,-0.18 1.43605,0.25196 1.43605,0.64151 0,0.48678 1.30048,0.2624 1.5875,-0.27389 0.3659,-0.68369 -0.0594,-1.52261 -0.94213,-1.8582 -0.8253,-0.31378 -0.81688,-0.66306 0.0294,-1.21754 0.43621,-0.28582 0.64666,-0.63776 0.59531,-0.99558 -0.10039,-0.69967 -0.94196,-0.87917 -1.37099,-0.29243 -0.36536,0.49966 -1.51435,0.45417 -1.68589,-0.0667 -0.0597,-0.1812 0.24926,-0.68722 0.68653,-1.12448 1.08973,-1.08974 2.42555,-1.09799 3.50191,-0.0216 0.76816,0.76817 1.03221,1.94583 0.50881,2.26931 -0.39526,0.24429 -0.31924,1.08047 0.1323,1.45521 0.23034,0.19117 0.39687,0.76841 0.39687,1.37567 0,2.29812 -2.66462,3.43364 -4.47762,1.90811 z m -8.01436,-2.1593 c -0.0799,-2.72318 -0.0208,-2.62293 -1.32928,-2.25283 -0.2762,0.0781 -0.5287,-0.0495 -0.63233,-0.31953 -0.12435,-0.32404 0.22571,-0.81425 1.25355,-1.75549 2.13999,-1.95966 2.20678,-1.87589 2.29287,2.87598 l 0.073,4.03156 H 190.01107 189.22 Z m 4.33847,1.85209 c 0.0664,-0.5774 0.22027,-0.72761 0.74518,-0.72761 0.5249,0 0.67874,0.15021 0.74517,0.72761 0.0756,0.65673 0.003,0.7276 -0.74517,0.7276 -0.74816,0 -0.82075,-0.0709 -0.74518,-0.7276 z m -37.97528,-35.21042 c -0.24083,-0.26612 -0.43788,-0.56502 -0.43788,-0.66422 0,-0.20765 14.31096,-11.66884 15.09252,-12.08713 0.65688,-0.35155 0.66389,-1.10274 0.0158,-1.68929 -0.43641,-0.39495 -0.70507,-0.41763 -2.05271,-0.17326 -0.85282,0.15465 -2.60068,0.63834 -3.88414,1.07488 -2.82568,0.96109 -3.19901,0.9898 -3.00052,0.23076 0.13719,-0.52458 0.0717,-0.5523 -0.96132,-0.40677 -1.63148,0.22984 -3.88668,0.95198 -3.88668,1.24455 0,0.13988 0.42045,0.25433 0.93434,0.25433 1.03367,0 1.45239,0.54642 0.91495,1.194 -0.55791,0.67223 -1.4788,0.46018 -2.28665,-0.52655 l -0.75327,-0.92004 -5.15937,1.3102 c -2.83766,0.72061 -5.36774,1.31322 -5.6224,1.31692 -0.86213,0.0125 -0.47835,-0.75792 0.51404,-1.03193 1.24763,-0.34449 16.3646,-3.48639 20.71878,-4.30617 3.66699,-0.69041 3.58135,-0.61255 3.07014,-2.79111 -0.19279,-0.82161 -0.16697,-0.8599 0.57974,-0.8599 0.42982,0 1.28769,0.17859 1.90637,0.39687 1.67866,0.59227 2.06271,0.50725 3.58554,-0.79375 0.76651,-0.65484 1.49372,-1.18666 1.61603,-1.18182 0.12231,0.005 1.11535,0.77768 2.20676,1.71741 1.09141,0.93974 2.07849,1.70968 2.19352,1.71099 0.11504,0.001 0.53176,-0.21867 0.92605,-0.48886 0.39429,-0.27018 1.03659,-0.68458 1.42734,-0.9209 0.49436,-0.29897 0.7358,-0.69213 0.79375,-1.29253 0.12002,-1.24332 0.70833,-1.19721 2.13221,0.16711 0.67948,0.65106 1.4787,1.31394 1.77606,1.47308 0.29736,0.15914 0.54065,0.45673 0.54065,0.6613 0,0.20458 0.10954,0.43965 0.24343,0.5224 0.13388,0.0827 4.34521,0.72808 9.35852,1.43408 5.01331,0.706 9.24955,1.36673 9.41387,1.46828 0.40935,0.253 0.3763,1.53375 -0.0548,2.12329 -0.33998,0.46496 -0.45926,0.45612 -3.10885,-0.23039 -1.51542,-0.39265 -2.96243,-0.7737 -3.21559,-0.84678 -0.40395,-0.11661 -0.44061,0.0106 -0.29954,1.03983 0.0917,0.66932 0.0488,1.24187 -0.1,1.33384 -0.14339,0.0886 -1.17993,-0.0147 -2.30341,-0.2297 -3.47702,-0.66527 -3.70866,-0.41001 -0.94556,1.04196 1.01438,0.53304 2.02967,1.2324 2.25619,1.55412 0.89309,1.26846 -0.44954,0.68835 -5.07152,-2.19124 -5.59118,-3.48342 -6.77005,-4.35662 -4.12884,-3.05828 2.19658,1.07977 2.59633,1.16041 2.14143,0.43201 -0.41969,-0.67204 0.11109,-1.34132 1.07257,-1.35245 0.52219,-0.006 0.59644,-0.0649 0.29833,-0.23655 -0.67545,-0.3889 -5.59183,-1.61673 -5.84559,-1.45989 -0.1319,0.0815 -0.23982,0.43885 -0.23982,0.79406 0,0.35521 -0.11907,0.64584 -0.26459,0.64584 -0.90676,0 0.53432,1.20107 6.63378,5.52896 3.77299,2.67713 6.85997,5.02861 6.85997,5.22552 0,1.07906 -1.2085,0.27043 -9.47691,-6.3411 l -4.58212,-3.66393 -0.57725,0.58161 c -1.20187,1.21094 -3.44786,2.64466 -4.7477,3.03067 -3.02837,0.89933 -6.51917,0.30332 -8.93808,-1.52606 -0.6191,-0.46821 -1.28454,-0.96853 -1.47876,-1.11182 -0.26173,-0.19311 -0.76511,0.14715 -1.9449,1.31463 -1.69355,1.67587 -1.86991,1.98861 -1.12148,1.98861 0.25866,0 0.73972,0.18871 1.06902,0.41936 0.64965,0.45503 0.59728,1.16948 -0.14798,2.01871 -0.47443,0.54062 -2.5289,0.49324 -3.44596,-0.0795 -0.52129,-0.32555 -0.65951,-0.28286 -1.44374,0.44591 -4.34109,4.03408 -7.9402,7.24966 -8.11433,7.24966 -0.11635,0 -0.40859,-0.21773 -0.64943,-0.48385 z m -6.51798,-4.57788 c -0.59356,-0.81939 -0.75042,-1.26644 -0.62663,-1.78594 0.26804,-1.12491 0.58755,-1.39137 1.24441,-1.03781 0.31214,0.16802 0.98425,0.28463 1.49357,0.25914 0.50932,-0.0255 1.10032,0.0657 1.31333,0.20254 0.6217,0.39955 0.034,1.66407 -0.98181,2.11241 -0.46997,0.20743 -0.92344,0.59438 -1.00771,0.85989 -0.23223,0.73169 -0.56583,0.58984 -1.43516,-0.61023 z m 43.60479,-3.10483 c -4.41477,-3.59983 -5.30236,-4.59318 -2.20281,-2.46529 3.96925,2.72496 6.07464,4.38976 6.16791,4.87717 0.0487,0.25466 -0.0302,0.46302 -0.17538,0.46302 -0.1452,0 -1.85056,-1.29371 -3.78972,-2.8749 z m -36.34298,0.21464 c -0.1007,-0.16295 -0.0804,-0.3968 0.0452,-0.51967 0.43718,-0.4278 8.32983,-4.54944 8.46089,-4.41839 0.0726,0.0726 -1.39285,1.05712 -3.25655,2.18782 -5.24868,3.18436 -5.04665,3.07852 -5.24954,2.75024 z m -20.90681,-5.29933 c -0.0981,-0.15873 -0.0756,-0.38526 0.0499,-0.50338 0.12556,-0.11813 3.0858,-0.52896 6.5783,-0.91295 3.4925,-0.38399 6.74026,-0.75923 7.21725,-0.83387 0.96351,-0.15076 0.91198,-0.63813 -0.0675,-0.63813 -0.78578,0 -1.46123,-0.25274 -1.46123,-0.54677 0,-0.3601 1.41205,-1.5699 1.83235,-1.5699 0.2104,0 0.97642,0.50076 1.70225,1.11279 0.90943,0.76684 1.65502,1.1594 2.39828,1.26271 1.14671,0.15938 -1.19969,0.54975 -12.0183,1.99948 -2.69213,0.36075 -5.15538,0.71503 -5.47389,0.78727 -0.3185,0.0722 -0.65936,0.002 -0.75746,-0.15725 z m 23.29698,-4.00295 c -1.46699,-0.73158 -1.98438,-1.24499 -1.98438,-1.9691 0,-0.58951 -0.089,-0.62049 -1.78594,-0.62133 -3.57526,-0.002 -10.09742,-0.35062 -10.43304,-0.55804 -0.9741,-0.60203 0.59615,-0.65859 6.39815,-0.23045 3.69469,0.27263 6.39853,0.36483 6.66333,0.22721 0.58508,-0.30406 2.1586,-0.29722 2.47802,0.0108 0.13825,0.1333 0.72066,0.31487 1.29426,0.4035 0.5736,0.0886 1.08044,0.19867 1.12632,0.24454 0.0459,0.0459 0.009,0.45312 -0.0809,0.90498 -0.11425,0.57121 -0.33652,0.84612 -0.72944,0.90216 -0.31083,0.0443 -0.68266,0.34848 -0.82631,0.6759 -0.31152,0.71007 -0.71225,0.71193 -2.12007,0.01 z m 71.56979,0.14931 c -2.39221,-0.17678 -18.73537,-0.94628 -21.56354,-1.0153 -1.60073,-0.0391 -3.89268,-0.16048 -5.09323,-0.26983 l -2.18281,-0.1988 v -1.16603 c 0,-1.11513 0.0491,-1.18838 1.12448,-1.67786 0.61846,-0.28151 1.48166,-0.80499 1.91823,-1.1633 l 0.79375,-0.65147 2.84427,1.22947 c 2.89278,1.25045 3.34106,1.69716 2.44739,2.43885 -0.79035,0.65593 -0.4629,1.0584 0.8599,1.05693 2.90622,-0.003 20.09299,0.56722 20.65629,0.68561 0.33776,0.071 0.56656,0.27349 0.50845,0.45003 -0.11755,0.35706 -0.56158,0.41114 -2.31318,0.2817 z m -53.975,-4.7352 c -1.65534,-0.87815 -1.7971,-0.90634 -3.78253,-0.75229 l -2.06274,0.16004 -1.51683,-1.44681 c -0.83425,-0.79574 -1.87922,-1.6342 -2.32215,-1.86325 -0.92277,-0.47718 -1.58174,-1.17981 -1.3365,-1.42504 0.0919,-0.0919 0.87001,0.38504 1.72907,1.05994 1.72829,1.35783 1.68427,1.36784 2.68148,-0.61008 2.03218,-4.03076 5.69136,-6.07655 10.24298,-5.72668 l 2.19964,0.16907 0.27637,-0.72692 c 0.15201,-0.39981 0.45324,-1.68063 0.66941,-2.84626 0.31333,-1.68962 2.56028,-10.82007 3.17488,-12.90111 0.25547,-0.86503 -0.64024,-0.4886 -1.40311,0.58967 -0.90238,1.27546 -1.26327,1.32556 -1.64573,0.22843 -0.1602,-0.45956 -0.54175,-1.01099 -0.84789,-1.22542 -0.46943,-0.3288 -0.52964,-0.55848 -0.38446,-1.46643 0.19677,-1.23053 0.56561,-1.79083 1.05519,-1.60296 0.18612,0.0714 0.53735,-0.17378 0.78051,-0.54489 0.75891,-1.15825 1.82455,-0.77323 2.24863,0.81245 0.34552,1.29193 0.75102,0.97197 1.22635,-0.96767 0.48488,-1.9786 0.94259,-2.4661 1.65063,-1.75806 0.38539,0.38539 0.27057,0.90199 -1.34594,6.05545 -0.972,3.09877 -1.76149,5.75318 -1.75441,5.8987 0.0251,0.51581 0.81666,-1.60945 4.66167,-12.51575 2.13916,-6.06769 4.0065,-11.11034 4.14963,-11.20589 0.28745,-0.19189 1.42959,0.2235 1.9921,0.72451 0.29901,0.26632 -0.54032,2.8317 -4.93987,15.09857 -2.91505,8.12775 -5.38011,15.13492 -5.47792,15.57148 l -0.17782,0.79375 0.56594,-0.88652 c 0.31127,-0.48759 2.04426,-3.84134 3.85109,-7.45279 1.80684,-3.61144 3.3979,-6.63594 3.5357,-6.7211 0.39714,-0.24545 1.09205,0.12732 1.09205,0.58582 0,0.40279 -2.85441,5.43704 -7.72588,13.62593 -1.28056,2.1526 -2.32829,4.00556 -2.32829,4.11768 0,0.11212 0.36152,0.55021 0.80337,0.97353 0.92551,0.8867 1.46861,0.73997 2.06658,-0.55832 0.19602,-0.42559 0.81395,-1.131 1.37316,-1.56756 0.55923,-0.43657 5.67515,-5.8837 11.36872,-12.10474 9.29639,-10.15764 10.40567,-11.28223 10.87876,-11.02904 0.28974,0.15506 0.59503,0.45973 0.67842,0.67705 0.10306,0.26857 -3.13965,3.70232 -10.12575,10.72224 -8.68999,8.73207 -10.2065,10.3668 -9.81852,10.58393 0.63052,0.35285 1.43608,0.05 2.77,-1.04138 0.62216,-0.50904 1.21747,-0.83903 1.32292,-0.73332 0.10544,0.10572 -0.19206,0.89645 -0.66113,1.75717 -0.46906,0.86073 -0.73242,1.56496 -0.58523,1.56496 0.14718,0 3.91723,-2.57231 8.37789,-5.71625 4.46066,-3.14394 8.26612,-5.77605 8.45659,-5.84914 0.25383,-0.0974 0.3463,0.18602 0.3463,1.06142 v 1.19431 l -10.64948,6.5962 c -5.85721,3.62792 -11.24479,6.9255 -11.97239,7.32797 l -1.32292,0.73176 0.814,-0.75491 c 0.44769,-0.41519 1.13073,-1.02064 1.51786,-1.34543 0.6211,-0.52108 0.66817,-0.66886 0.40031,-1.25677 -0.36109,-0.7925 -0.48966,-0.80366 -2.203,-0.19124 -1.14623,0.40972 -1.33339,0.57817 -1.40131,1.26125 -0.0663,0.66696 -0.24556,0.84056 -1.16382,1.12714 -0.75894,0.23687 -1.16909,0.2551 -1.36359,0.0606 -0.51115,-0.51115 -0.98957,-0.28653 -1.38,0.64788 -0.37554,0.8988 -0.42963,0.92605 -1.83858,0.92605 -0.79841,0 -1.45166,0.0571 -1.45166,0.12693 0,0.0698 0.18964,0.6009 0.42143,1.18019 l 0.42142,1.05325 -1.1243,1.33335 c -0.61836,0.73335 -1.31402,1.32758 -1.54591,1.32052 -0.23188,-0.007 -1.19551,-0.42339 -2.14139,-0.92517 z m -14.47373,0.13953 c -1.6304,-0.26296 -3.09085,-0.5563 -3.24546,-0.65185 -0.45816,-0.28316 -0.0315,-0.66634 0.74196,-0.66634 0.73437,0 7.194,1.50567 7.4172,1.72886 0.24585,0.24585 -2.01455,0.0569 -4.9137,-0.41067 z m 32.99456,-0.86435 c 0.33898,-0.36953 43.75076,-7.71947 44.31516,-7.50289 0.43595,0.16729 0.52069,0.89189 0.16915,1.44635 -0.15382,0.24261 -6.44072,1.19368 -20.43501,3.09135 -20.04415,2.71805 -24.30444,3.24333 -24.0493,2.96519 z m -30.7812,-2.20493 c -0.41305,-0.22384 -0.68593,-0.47205 -0.60641,-0.55158 0.0795,-0.0795 0.53654,0.10638 1.01558,0.41313 1.00374,0.64271 0.70676,0.74321 -0.40917,0.13845 z m 30.38433,-0.65599 c 1.42933,-0.47382 10.52386,-2.87444 30.82396,-8.13636 3.8563,-0.99958 7.15575,-1.76367 7.33211,-1.69796 0.4188,0.15601 0.72176,1.12457 0.43323,1.38501 -0.12359,0.11156 -4.5705,1.18202 -9.88201,2.37879 -28.45943,6.41239 -31.99191,7.15938 -28.70729,6.07052 z m -3.35875,-0.63642 c 0.86315,-0.63203 11.6093,-5.68775 12.08955,-5.68775 0.24419,0 0.39732,0.24738 0.39732,0.64186 0,0.57116 -0.31333,0.7635 -2.84427,1.74595 -4.04531,1.57029 -8.81547,3.34077 -9.59114,3.55981 l -0.66146,0.18679 z m 18.35944,-6.67593 c -1.37821,-0.12342 -1.63754,-0.59918 -0.98604,-1.80896 0.74238,-1.37851 1.13418,-1.34973 2.7018,0.19842 0.77413,0.76451 1.40751,1.48338 1.40751,1.5975 0,0.2057 -0.92851,0.20957 -3.12327,0.013 z m 14.50035,-6.68481 c -1.46706,-0.97516 -1.7584,-0.98243 -2.71318,-0.0677 l -0.75776,0.72598 -0.97651,-0.5738 c -0.90217,-0.53013 -0.97235,-0.65932 -0.92193,-1.69715 0.0708,-1.45752 0.56547,-1.91361 2.26062,-2.08431 l 1.38451,-0.13941 0.50193,-1.39889 c 0.27605,-0.76939 0.62774,-1.35695 0.78151,-1.30569 0.15378,0.0513 0.73785,0.96482 1.29794,2.03013 0.90547,1.72224 1.00971,2.11391 0.9405,3.53365 -0.0428,0.87819 -0.1969,1.63539 -0.34242,1.68266 -0.14552,0.0473 -0.80037,-0.2702 -1.45521,-0.70548 z m -29.87145,-1.88413 c -0.49734,-0.46335 -0.57188,-0.72883 -0.42719,-1.52136 0.24974,-1.36784 0.82781,-2.15069 1.58814,-2.15069 1.18422,0 1.6097,1.99247 0.73991,3.46491 -0.53883,0.91216 -1.08072,0.97121 -1.90086,0.20714 z"
         id="path846" />
      <path
         style="fill:#56330d;stroke-width:0.264583"
         d="m 154.27588,251.11023 -42.19877,-42.20187 42.1996,-42.20022 c 23.20977,-23.21012 42.37744,-42.20021 42.5948,-42.20021 0.40473,0 83.68375,83.07202 84.18513,83.97588 0.2435,0.43895 -4.85933,5.63652 -41.88632,42.66407 -23.18999,23.19032 -42.28332,42.16422 -42.42963,42.16422 -0.14632,0 -19.25548,-18.99084 -42.46481,-42.20187 z m 83.01098,-1.51934 c 22.15667,-22.1549 40.28486,-40.46061 40.28486,-40.67937 0,-0.43331 -80.39697,-80.96401 -80.82956,-80.96401 -0.43303,0 -80.83086,80.52963 -80.83086,80.96336 0,0.43105 80.39986,80.96165 80.83021,80.96165 0.14326,0 18.38867,-18.12674 40.54535,-40.28163 z m -44.11723,24.43873 c 0,-6.20457 0.0342,-6.11752 -2.40015,-6.11752 h -1.5686 v -0.921 c 0,-0.79358 0.10067,-0.94084 0.72761,-1.06441 2.13831,-0.42143 2.84729,-0.79844 3.37343,-1.79383 0.50505,-0.95548 0.58344,-0.99769 1.7198,-0.92604 l 1.19062,0.0751 v 7.9375 7.9375 l -1.52135,0.0794 -1.52136,0.0793 z m -1.52862,-17.90648 c -0.71813,-0.503 -0.73001,-0.8468 -0.0589,-1.70479 0.78208,-0.99983 0.65618,-1.45734 -0.52916,-1.92296 -1.11437,-0.43773 -1.28721,-0.83789 -0.70552,-1.63341 0.31353,-0.42878 0.46354,-0.44596 1.34727,-0.1543 1.20902,0.39901 1.41752,0.21895 1.52436,-1.31642 0.0813,-1.16854 0.10002,-1.19062 1.00889,-1.19062 0.90886,0 0.92758,0.0221 1.00889,1.19062 0.10653,1.53103 0.31601,1.71521 1.50465,1.32292 1.03586,-0.34186 1.28766,-0.22537 1.57608,0.72916 0.1568,0.51891 0.0225,0.66453 -1.02859,1.11507 -0.66492,0.28502 -1.20895,0.5883 -1.20895,0.67395 0,0.0856 0.29766,0.59377 0.66146,1.12915 0.81996,1.20668 0.81913,1.26425 -0.0262,1.81814 -0.68126,0.44637 -0.69607,0.44087 -1.5875,-0.58922 l -0.89982,-1.03979 -0.8599,0.9922 c -0.98678,1.1386 -0.94839,1.1257 -1.72706,0.5803 z m 6.11352,-15.84565 c -0.87934,-0.38583 -1.54731,-1.29776 -1.27423,-1.73961 0.26363,-0.42655 0.98285,-0.29482 1.61071,0.29503 0.73122,0.68694 1.62391,0.47555 1.85342,-0.4389 0.22182,-0.88382 -0.0256,-1.40009 -0.81489,-1.70017 -0.85264,-0.32417 -0.84353,-0.67093 0.0375,-1.42878 0.46767,-0.40228 0.64821,-0.75705 0.53516,-1.05165 -0.28362,-0.73911 -0.95641,-0.80812 -1.6378,-0.16798 -1.13916,1.07018 -2.03301,0.0486 -0.92605,-1.05833 0.37238,-0.37238 0.88195,-0.52917 1.7198,-0.52917 1.92104,0 2.89274,1.61423 1.91822,3.18666 -0.23692,0.38229 -0.24815,0.58765 -0.0396,0.72402 0.42927,0.2807 0.8995,1.26799 0.8995,1.88859 0,0.76776 -1.30843,2.07347 -2.24896,2.24429 -0.43656,0.0793 -1.17133,-0.0215 -1.63281,-0.224 z m -8.3661,-0.0473 c -0.10315,-0.10315 -0.18755,-1.30419 -0.18755,-2.66898 v -2.48143 l -0.92604,0.17372 c -0.76765,0.14402 -0.92604,0.0957 -0.92604,-0.28279 0,-0.632 2.11598,-2.48869 2.85134,-2.50194 l 0.60239,-0.0109 -0.0732,3.90261 c -0.0694,3.69924 -0.10136,3.90663 -0.61327,3.97991 -0.29703,0.0425 -0.62445,-0.007 -0.72761,-0.11024 z m 4.15345,-0.20042 c -0.227,-0.59155 0.0987,-0.95727 0.8524,-0.95727 0.5375,0 0.64811,0.11359 0.57969,0.59532 -0.10073,0.70929 -1.19288,0.98532 -1.43209,0.36195 z m -37.89016,-35.6706 c -0.17463,-0.17463 -0.31172,-0.44252 -0.30465,-0.59531 0.012,-0.25921 10.04729,-8.35851 12.68715,-10.23954 l 1.19062,-0.84839 -0.8599,0.91974 c -0.47294,0.50585 -0.85989,0.98452 -0.85989,1.06369 0,0.0792 0.47625,0.28665 1.05833,0.46105 0.85081,0.25491 1.05834,0.441 1.05834,0.94902 0,0.34757 -0.1871,0.81904 -0.41578,1.04772 -0.55084,0.55084 -2.83601,0.56397 -3.28839,0.0189 -0.18116,-0.21828 -0.43635,-0.39688 -0.5671,-0.39688 -0.13075,0 -2.18949,1.78594 -4.57497,3.96875 -2.38549,2.18281 -4.44277,3.96875 -4.57175,3.96875 -0.12899,0 -0.37739,-0.14287 -0.55201,-0.3175 z m 40.51282,-6.68092 c -2.30205,-1.81183 -4.60225,-3.66668 -5.11157,-4.12189 l -0.92605,-0.82764 0.92605,0.59771 c 3.18667,2.05681 9.78958,6.96299 9.78958,7.27398 0,0.20465 -0.11081,0.37209 -0.24624,0.37209 -0.13543,0 -2.12973,-1.48241 -4.43177,-3.29425 z m -47.13761,2.06831 c -0.48002,-0.74072 -0.58004,-1.16118 -0.44608,-1.87523 0.15024,-0.80083 0.24783,-0.896 0.75104,-0.73241 0.3181,0.10342 1.09474,0.22092 1.72587,0.26112 0.63112,0.0402 1.2739,0.19949 1.42839,0.35398 0.38337,0.38337 -0.41538,1.57711 -1.27359,1.90341 -0.35992,0.13684 -0.72362,0.42918 -0.80822,0.64964 -0.24915,0.64927 -0.71674,0.45899 -1.37741,-0.56051 z m 44.34114,-2.49639 c -1.41883,-1.16902 -2.57969,-2.18568 -2.57969,-2.25924 0,-0.41232 5.3233,3.52404 5.49504,4.06334 0.20691,0.64978 -0.37152,0.29183 -2.91535,-1.8041 z m -36.92122,-0.5416 c 0.0541,-0.16235 1.22489,-0.89458 2.60173,-1.62718 2.88954,-1.53749 2.67555,-1.1146 -0.35031,0.69229 -2.19368,1.30996 -2.40581,1.39804 -2.25142,0.93489 z m 41.46982,-0.71587 c -2.22752,-1.30422 -6.06995,-3.77471 -6.06995,-3.90267 0,-0.0551 0.3054,0.0159 0.67868,0.15777 1.11242,0.42294 1.30306,0.29787 0.63306,-0.41531 -0.87141,-0.92758 -0.45619,-1.61179 0.90348,-1.48878 1.70882,0.15461 1.01788,-0.41045 -1.22304,-1.00021 -3.18599,-0.83848 -4.07608,-1.1436 -3.70235,-1.26917 0.34949,-0.11741 18.10111,2.29355 18.30789,2.48652 0.21411,0.19981 -0.005,2.05681 -0.26105,2.21523 -0.13714,0.0848 -1.67214,-0.20667 -3.4111,-0.64762 -1.73896,-0.44095 -3.24863,-0.71484 -3.35482,-0.60865 -0.1062,0.10619 -0.0382,0.48252 0.15116,0.83629 0.40894,0.7641 0.20457,1.47265 -0.42476,1.47265 -0.24789,0 -1.4529,-0.18779 -2.67779,-0.41732 -3.32309,-0.62269 -3.26019,-0.20488 0.24791,1.64664 1.5217,0.80312 2.30867,1.53085 1.99484,1.84468 -0.0483,0.0483 -0.85478,-0.36121 -1.79216,-0.91005 z m -53.8209,-1.62451 c -0.0938,-0.15172 0.10457,-0.38003 0.44075,-0.50737 1.12819,-0.42735 11.04428,-2.46355 11.38599,-2.33804 0.18576,0.0682 -0.0194,0.20478 -0.456,0.30343 -0.96166,0.21732 -10.13901,2.51269 -10.75951,2.69109 -0.24241,0.0697 -0.51747,0.003 -0.61123,-0.14911 z m 32.12184,-0.10747 c -1.50832,-0.40669 -3.29124,-1.4595 -4.4053,-2.60133 -1.9409,-1.98927 -2.55404,-2.75296 -2.61298,-3.2546 -0.0342,-0.29104 -0.14742,-1.03518 -0.25161,-1.65364 -0.22431,-1.33151 -0.17904,-1.34358 2.21892,-0.5919 0.92247,0.28916 1.77595,0.52575 1.89663,0.52575 0.12067,0 0.84709,-0.53578 1.61426,-1.19062 0.76717,-0.65485 1.52242,-1.19063 1.67835,-1.19063 0.15592,0 1.21301,0.77588 2.34908,1.72418 1.23028,1.02693 2.19199,1.64663 2.37815,1.53242 1.20764,-0.7409 2.72563,-1.81954 2.8882,-2.05228 0.10691,-0.15305 0.19621,-0.6057 0.19844,-1.00588 0.002,-0.40018 0.12612,-0.7276 0.27531,-0.7276 0.37777,0 3.78809,3.18816 4.01712,3.75544 0.11256,0.27878 0.0486,0.546 -0.16028,0.66939 -0.1912,0.11296 -0.54892,0.6349 -0.79493,1.15988 -0.90976,1.94142 -3.48937,3.97958 -6.04248,4.7742 -1.79162,0.55761 -3.49725,0.59897 -5.24688,0.12722 z m -19.79884,-1.06551 c -0.72532,-0.77207 -0.38695,-1.08052 0.91699,-0.8359 0.93448,0.17531 1.14939,0.59393 0.59137,1.15194 -0.46942,0.46943 -0.84422,0.3909 -1.50836,-0.31604 z m -20.92831,-1.74267 c 0,-0.35582 0.57345,-0.45578 5.29167,-0.92235 2.25557,-0.22305 4.63682,-0.47622 5.29167,-0.56262 0.65484,-0.0864 1.12216,-0.0874 1.03848,-0.002 -0.14784,0.15035 -10.39519,1.74663 -11.21325,1.74663 -0.22471,0 -0.40857,-0.1168 -0.40857,-0.25955 z m 25.66459,0.018 c 0,-0.16442 0.26789,-0.41037 0.59531,-0.54656 1.03264,-0.42954 4.73797,-1.37511 4.87023,-1.24285 0.13334,0.13333 -3.50503,1.59629 -4.7422,1.9068 -0.46838,0.11756 -0.72334,0.0762 -0.72334,-0.11739 z m -10.11971,-2.25967 c -0.34576,-0.17938 -1.13714,-0.39435 -1.75862,-0.47771 -0.62148,-0.0834 -1.19436,-0.21596 -1.27309,-0.29468 -0.27788,-0.27789 0.18028,-0.96806 0.84313,-1.27007 0.78482,-0.35759 1.28714,-0.14891 2.89625,1.20319 0.95597,0.80329 0.99433,0.88474 0.47999,1.01924 -0.30745,0.0804 -0.8419,-5.3e-4 -1.18766,-0.17997 z m 8.22599,-1.46081 c -1.57112,-0.47463 -2.33961,-1.13808 -2.33961,-2.01981 0,-0.52252 0.15839,-0.90147 0.41851,-1.00128 0.67258,-0.2581 2.71033,-0.18475 2.88878,0.10398 0.0899,0.14552 0.58075,0.26458 1.09071,0.26458 0.88668,0 0.92357,0.0376 0.84428,0.8599 -0.0636,0.65934 -0.22189,0.87963 -0.6788,0.94452 -0.32774,0.0465 -0.71889,0.31443 -0.86921,0.59531 -0.29845,0.55767 -0.32753,0.5631 -1.35466,0.2528 z m 64.46768,-0.4018 -4.7625,-0.31206 4.49792,-0.0417 c 5.01197,-0.0465 8.86354,0.18101 8.86354,0.5235 0,0.28078 -2.46634,0.2321 -8.59896,-0.16973 z m -17.36633,-0.64127 c -0.67471,-0.0946 -1.39308,-0.30996 -1.59637,-0.47868 -0.23824,-0.19772 -0.50755,-0.21953 -0.75763,-0.0614 -0.46814,0.29609 -2.02702,0.33366 -2.20045,0.053 -0.0681,-0.11025 -0.20487,-0.63212 -0.30385,-1.15971 -0.17713,-0.94422 -0.16122,-0.96642 1.01505,-1.41564 0.65726,-0.25101 1.46256,-0.74116 1.78956,-1.08924 0.32701,-0.34808 0.73309,-0.63287 0.90241,-0.63287 0.32818,0 5.33357,2.20589 5.59216,2.46448 0.0844,0.0844 -0.0982,0.47347 -0.40585,0.86456 -0.30763,0.39109 -0.55933,0.85972 -0.55933,1.04141 0,0.60867 -1.12795,0.74303 -3.4757,0.41401 z m 11.62818,0.0619 c 0.19099,-0.0764 0.4192,-0.067 0.50712,0.0209 0.0879,0.0879 -0.0684,0.15045 -0.34727,0.13896 -0.30823,-0.0127 -0.37092,-0.0754 -0.15985,-0.15985 z m -72.1155,-2.13098 c -0.76398,-0.0534 -1.38906,-0.22266 -1.38906,-0.37602 0,-0.27732 2.65189,-0.15604 6.61458,0.30252 1.57951,0.18278 1.49318,0.19786 -1.05833,0.18484 -1.52797,-0.008 -3.4032,-0.0579 -4.16719,-0.11134 z m 30.62552,-1.53353 c -1.4277,-0.75475 -1.98941,-0.90631 -3.30729,-0.89236 -3.22244,0.0341 -3.23812,0.0305 -3.95673,-0.91165 l -0.67637,-0.88677 1.06044,-1.9575 c 1.19741,-2.21036 3.03556,-4.08197 4.93465,-5.0245 1.12965,-0.56065 1.6574,-0.63894 4.39418,-0.65188 1.71068,-0.008 3.21326,-0.12716 3.33906,-0.26459 0.1258,-0.13743 0.53094,-1.14284 0.90032,-2.23424 0.36938,-1.09141 1.26033,-3.53219 1.97988,-5.42396 0.71956,-1.89177 3.06478,-8.45357 5.21161,-14.58177 2.14683,-6.12819 4.00275,-11.30305 4.12428,-11.49969 0.18246,-0.29523 0.38499,-0.27928 1.16263,0.0916 0.51792,0.24698 0.94168,0.6175 0.94168,0.82339 0,0.20588 -2.45323,7.20273 -5.45161,15.54855 -2.99839,8.34582 -5.49383,15.59451 -5.54543,16.1082 -0.0516,0.51368 -0.27468,1.36684 -0.49574,1.89589 l -0.40191,0.96192 0.92946,0.81608 c 0.51121,0.44885 1.03051,0.81609 1.15399,0.81609 0.12349,0 0.28869,0.2454 0.36713,0.54535 0.17839,0.68214 -0.19684,0.83585 -2.14239,0.8776 -1.2805,0.0275 -1.5178,0.11067 -1.60143,0.56142 -0.18831,1.01493 -0.563,1.20983 -1.96765,1.0235 -1.47799,-0.19606 -1.38091,-0.40995 -0.85885,1.89209 0.1558,0.687 0.0268,0.97427 -0.92051,2.05052 -0.60594,0.68838 -1.18088,1.24582 -1.27766,1.23876 -0.0968,-0.007 -0.94985,-0.42196 -1.89574,-0.922 z m -15.875,-0.15693 c -1.96938,-0.31961 -2.27285,-0.44538 -1.92173,-0.7965 0.2015,-0.2015 1.01725,-0.11624 2.82237,0.29498 1.39642,0.31812 2.53895,0.62815 2.53895,0.68897 0,0.1728 -1.83643,0.0727 -3.43959,-0.18745 z m 40.08438,-1.57009 c 1.86994,-0.4813 38.07874,-6.56116 38.29162,-6.4296 0.3329,0.20574 0.2344,1.42477 -0.12547,1.55299 -0.57212,0.20385 -35.60202,4.91025 -37.45739,5.03254 -1.60347,0.10568 -1.6691,0.0913 -0.70876,-0.15593 z m -35.09104,-3.09283 c -0.3359,-0.4283 -0.32344,-0.43391 0.16604,-0.0749 0.29104,0.21349 0.57877,0.42185 0.63941,0.46302 0.0606,0.0412 -0.0141,0.0749 -0.16604,0.0749 -0.15196,0 -0.43969,-0.20836 -0.63941,-0.46302 z m 34.95875,-0.30972 c 1.38244,-0.40356 9.10525,-2.44326 17.1618,-4.53267 14.13363,-3.66546 14.66118,-3.78124 15.01609,-3.29587 0.2138,0.29239 0.26963,0.60126 0.13331,0.73758 -0.12899,0.12899 -3.61201,1.00486 -7.74005,1.94638 -14.84671,3.38621 -26.29832,5.91694 -26.68782,5.89782 -0.21828,-0.0107 0.73422,-0.34967 2.11667,-0.75324 z m -7.54063,0.0306 c 0.43656,-0.26155 1.32953,-0.72752 1.98438,-1.03549 0.65484,-0.30796 2.72699,-1.28964 4.60478,-2.1815 3.28769,-1.56149 4.17342,-1.73231 3.78908,-0.73073 -0.12016,0.31313 -10.30888,4.42723 -10.95683,4.42425 -0.11833,-5.3e-4 0.14203,-0.21498 0.57859,-0.47653 z m -2.3151,-1.26858 c 0.71981,-0.52611 0.75802,-1.16934 0.1165,-1.96159 -0.46016,-0.56827 -0.5112,-0.57456 -1.30978,-0.1616 -1.8952,0.98004 -2.25438,0.089 -0.56195,-1.39409 0.59897,-0.52488 5.74265,-6.01449 11.43038,-12.19912 5.68774,-6.18464 10.51274,-11.24479 10.72223,-11.24479 0.20949,0 0.50636,0.19892 0.65973,0.44205 0.23286,0.36916 -0.64291,1.39445 -5.31099,6.21771 -3.07441,3.17661 -7.62199,7.7984 -10.10574,10.27065 -2.48375,2.47225 -4.5159,4.64514 -4.5159,4.82865 0,0.73392 1.76834,0.36178 2.94257,-0.61926 0.62731,-0.5241 1.18158,-0.82983 1.23173,-0.6794 0.14751,0.44254 -0.69931,1.87029 -1.84919,3.11777 -0.58828,0.6382 -0.9858,1.16037 -0.88338,1.16037 0.2744,0 3.16711,-1.97361 11.19586,-7.63859 3.94533,-2.78378 7.29978,-5.06141 7.45433,-5.06141 0.15455,0 0.28099,0.40861 0.28099,0.90802 0,1.1125 0.88765,0.47891 -10.86106,7.75251 -8.48335,5.25203 -12.44774,7.58605 -10.63633,6.26212 z m 19.15078,-4.62487 c -0.92684,-0.12014 -1.75185,-0.28514 -1.83336,-0.36664 -0.23767,-0.23768 0.69909,-1.9944 1.15725,-2.17021 0.27535,-0.10567 0.85738,0.27285 1.7083,1.11098 1.11579,1.09901 1.46132,1.79267 0.83579,1.67787 -0.10055,-0.0184 -0.94115,-0.13185 -1.86798,-0.252 z m -23.04783,-2.16054 c -0.003,-0.10843 1.57098,-3.35288 3.49785,-7.2099 3.41853,-6.84285 3.98886,-7.68263 4.57431,-6.73535 0.0943,0.15257 -1.22465,2.68265 -2.93099,5.62239 -3.2805,5.65176 -5.13198,8.64906 -5.14117,8.32286 z m -2.89508,-3.8327 c -0.0115,-0.32464 0.51489,-2.67194 1.16973,-5.21622 1.54958,-6.02063 1.54259,-6.24801 -0.13545,-4.40563 l -1.30205,1.42957 -0.29027,-0.76811 c -0.15965,-0.42246 -0.56129,-1.06577 -0.89255,-1.42957 -0.52929,-0.5813 -0.57346,-0.79771 -0.36447,-1.78594 0.19886,-0.94032 0.34066,-1.12448 0.86586,-1.12448 0.38555,0 0.68992,-0.19488 0.78826,-0.50472 0.37885,-1.19367 1.56999,-0.92008 2.01129,0.46198 0.6324,1.98051 1.03072,1.78239 1.57524,-0.78353 0.38698,-1.82354 0.78574,-2.29156 1.3804,-1.62019 0.3738,0.42203 0.19847,1.11586 -2.02233,8.00271 -2.783,8.63032 -2.75506,8.55257 -2.78366,7.74413 z m 39.66661,-0.86496 c -0.65485,-0.43531 -1.28071,-0.79199 -1.39081,-0.79262 -0.11011,-5.2e-4 -0.459,0.29653 -0.77532,0.66033 -0.66713,0.76726 -1.2938,0.83369 -2.20881,0.23415 -0.50444,-0.33052 -0.65215,-0.65584 -0.65215,-1.43631 0,-1.32785 0.4658,-1.7386 2.22013,-1.95779 l 1.45287,-0.18152 0.43372,-1.30583 c 0.23855,-0.7182 0.53739,-1.30583 0.6641,-1.30583 0.1267,0 0.65292,0.75559 1.16936,1.67908 0.81329,1.4543 0.93899,1.91474 0.93899,3.43958 0,2.04732 -0.12693,2.11358 -1.85208,0.96676 z m -29.30754,-1.46857 c -0.66132,-0.46321 -0.76209,-1.39947 -0.29487,-2.73974 0.25757,-0.73886 0.40085,-0.83734 1.11613,-0.76708 1.15301,0.11325 1.50849,1.33317 0.80326,2.75661 -0.58685,1.1845 -0.83853,1.30074 -1.62452,0.75021 z"
         id="path844" />
      <path
         style="fill:#0c0701;stroke-width:0.264583"
         d="m 154.40807,250.97866 -42.06823,-42.06886 42.20104,-42.20104 42.20104,-42.20104 42.20053,42.20115 42.20052,42.20114 -42.06813,42.06875 c -23.13747,23.13782 -42.18747,42.06876 -42.33333,42.06876 -0.14587,0 -19.19591,-18.93099 -42.33344,-42.06886 z m 83.01108,-1.25548 c 22.22944,-22.22766 40.41715,-40.5932 40.41715,-40.81231 0,-0.4333 -80.6622,-81.22794 -81.09479,-81.22794 -0.4326,0 -81.0948,80.79464 -81.0948,81.22794 0,0.43105 80.66444,81.22623 81.0948,81.22623 0.14327,0 18.44821,-18.18627 40.67764,-40.41392 z m -44.11818,29.24988 c -0.0703,-0.18994 -0.1584,-2.72659 -0.19574,-5.637 l -0.0679,-5.29167 -1.71979,-0.13229 c -1.69852,-0.13066 -1.72078,-0.14248 -1.80002,-0.95619 -0.0771,-0.79216 -0.0357,-0.82892 1.07582,-0.9542 1.48082,-0.16691 2.55062,-0.87399 3.01923,-1.99553 0.33779,-0.80843 0.4581,-0.88009 1.35297,-0.80581 l 0.98221,0.0815 v 7.9375 7.9375 l -1.25947,0.0808 c -0.85511,0.0548 -1.30052,-0.0301 -1.38732,-0.26458 z m -1.66592,-23.02013 c -0.43715,-0.43715 -0.40242,-0.67218 0.23077,-1.56141 0.73175,-1.02766 0.56488,-1.63032 -0.55149,-1.99166 -0.96437,-0.31215 -1.22324,-0.7615 -0.80961,-1.4053 0.20134,-0.31337 0.42175,-0.32678 1.24057,-0.0755 1.30151,0.39944 1.68893,0.0719 1.68893,-1.42792 0,-1.11053 0.0327,-1.15823 0.79375,-1.15823 0.75679,0 0.79393,0.0523 0.7978,1.12448 0.006,1.6883 0.22497,1.89711 1.56715,1.49498 0.9402,-0.28169 1.15403,-0.27469 1.35596,0.0444 0.4269,0.67461 0.2655,0.99343 -0.65704,1.2979 -1.42757,0.47114 -1.58011,0.83861 -0.8157,1.96502 0.80795,1.19059 0.81788,1.37964 0.0928,1.76768 -0.50313,0.26927 -0.67274,0.18563 -1.45656,-0.71829 l -0.88711,-1.02305 -0.88659,0.99218 c -0.95318,1.06671 -1.20994,1.16839 -1.70364,0.67469 z m 6.16479,-15.84973 c -0.58856,-0.3367 -1.19062,-1.01725 -1.19062,-1.34584 0,-0.4199 0.90227,-0.2043 1.50168,0.35882 0.51651,0.48523 0.71018,0.52707 1.26653,0.27358 0.86385,-0.3936 1.12159,-1.44973 0.56214,-2.30355 -0.23767,-0.36274 -0.60798,-0.65953 -0.82291,-0.65953 -0.57413,0 -0.47787,-0.41802 0.26801,-1.16391 0.70737,-0.70735 0.66067,-1.32356 -0.13247,-1.74803 -0.34414,-0.18418 -0.64769,-0.11146 -1.13509,0.27193 -0.78456,0.61714 -1.24331,0.67078 -1.24331,0.14537 0,-1.07662 1.88747,-1.74304 3.12469,-1.10325 1.00882,0.52168 1.2703,1.52278 0.66526,2.54704 -0.44603,0.75507 -0.44242,0.79346 0.12429,1.32144 1.23602,1.15153 0.30544,3.32474 -1.53299,3.58004 -0.50932,0.0707 -1.16417,-0.008 -1.45521,-0.17411 z m -8.33437,-2.64763 v -2.67528 l -0.92605,0.17373 c -0.73377,0.13765 -0.92604,0.0888 -0.92604,-0.23514 0,-0.22488 0.0992,-0.40887 0.22049,-0.40887 0.12127,0 0.64913,-0.42864 1.17302,-0.95253 0.5239,-0.5239 1.07952,-0.87406 1.23472,-0.77814 0.17803,0.11003 0.28219,1.53593 0.28219,3.86296 0,3.51216 -0.0253,3.68855 -0.52917,3.68855 -0.49427,0 -0.52916,-0.17639 -0.52916,-2.67528 z m 4.2837,2.21226 c 0.049,-0.25466 0.2645,-0.46302 0.4788,-0.46302 0.21429,0 0.42975,0.20836 0.47879,0.46302 0.0626,0.32487 -0.0803,0.46302 -0.47879,0.46302 -0.39851,0 -0.54136,-0.13815 -0.4788,-0.46302 z m -37.97398,-35.43212 c -0.097,-0.097 -0.17639,-0.27258 -0.17639,-0.39015 0,-0.15922 7.50061,-6.29224 11.04635,-9.03226 0.2138,-0.16522 0.44767,-0.16138 0.66146,0.0108 0.1819,0.14654 0.71768,0.34917 1.19063,0.4503 0.67392,0.1441 0.85989,0.31829 0.85989,0.8054 0,1.01065 -0.62658,1.42392 -1.91269,1.26157 -0.62151,-0.0785 -1.31798,-0.30558 -1.54772,-0.50473 -0.22974,-0.19915 -0.50753,-0.36208 -0.61731,-0.36208 -0.10979,0 -2.14046,1.78593 -4.51261,3.96875 -2.37215,2.18281 -4.426,3.96875 -4.56411,3.96875 -0.13811,0 -0.33049,-0.0794 -0.4275,-0.17639 z m 42.91827,-4.8709 c -2.44649,-1.94737 -2.49942,-2.10694 -0.16601,-0.50056 1.12778,0.77641 2.05052,1.50886 2.05052,1.62767 0,0.34989 -0.11641,0.28026 -1.88451,-1.12711 z m -49.41217,0.39829 c -0.76124,-0.96776 -0.69811,-2.40687 0.0998,-2.27502 0.29104,0.0481 1.02527,0.10762 1.63161,0.13229 0.60635,0.0247 1.19745,0.13986 1.31356,0.25598 0.31522,0.31524 -0.24608,1.06204 -1.11749,1.48678 -0.42314,0.20625 -0.89776,0.54864 -1.05471,0.76087 -0.23927,0.32356 -0.38021,0.26528 -0.87277,-0.3609 z m 48.71699,-3.96746 c -0.61846,-0.37067 -1.12448,-0.72916 -1.12448,-0.79663 0,-0.19711 2.06423,0.9121 2.24662,1.20722 0.23513,0.38045 0.13902,0.34528 -1.12214,-0.41059 z m -21.95088,-1.8059 c -3.17321,-1.03626 -6.01344,-3.76716 -6.69796,-6.44012 -0.19498,-0.76139 -0.28452,-1.45434 -0.19898,-1.53988 0.0855,-0.0855 0.95349,0.0909 1.92877,0.39216 0.97527,0.30123 1.87577,0.5477 2.00111,0.5477 0.12533,0 0.83114,-0.53579 1.56846,-1.19063 0.73732,-0.65484 1.49269,-1.19062 1.67861,-1.19062 0.18592,0 1.16421,0.71042 2.17398,1.57871 1.00977,0.86829 2.03081,1.58267 2.26897,1.5875 0.81366,0.0165 3.40459,-1.88245 3.56423,-2.61231 0.0825,-0.37741 0.17899,-0.80417 0.21433,-0.94837 0.0353,-0.14419 0.65,0.33822 1.36591,1.07202 0.71592,0.7338 1.51004,1.41359 1.7647,1.51063 0.62695,0.23893 0.58584,0.60418 -0.25505,2.26617 -0.87482,1.72904 -2.88422,3.59873 -4.83294,4.49691 -1.75862,0.81055 -4.82677,1.03097 -6.54414,0.47013 z m -19.33735,-0.74306 c -0.50801,-0.50801 -0.37219,-0.74083 0.43215,-0.74083 0.92153,0 1.19099,0.23594 0.80316,0.70326 -0.36508,0.43989 -0.81918,0.4537 -1.23531,0.0376 z m 39.98107,-0.17739 c -2.32336,-0.46225 -3.88019,-1.34046 -3.73037,-2.10429 0.0659,-0.33604 0.37428,-0.44353 1.27242,-0.44353 1.93207,0 1.52399,-0.65532 -0.79589,-1.27812 -1.08972,-0.29255 -1.85703,-0.57334 -1.70512,-0.62397 0.34911,-0.11637 15.12244,1.95781 15.4687,2.17181 0.3204,0.19802 0.3219,0.44927 0.008,1.27589 l -0.24866,0.65403 -2.99249,-0.7633 c -4.08495,-1.04195 -4.65304,-1.02156 -3.77782,0.13559 0.21365,0.28247 0.38846,0.72895 0.38846,0.99218 0,0.5951 -0.83142,0.59162 -3.88685,-0.0163 z m -47.02493,-4.50761 c -1.5125,-0.18218 -1.77312,-0.56262 -0.81532,-1.19019 0.64499,-0.42261 0.71811,-0.41834 1.42233,0.0831 1.03496,0.73696 1.5407,1.36071 1.05851,1.30551 -0.19971,-0.0229 -0.9492,-0.11216 -1.66552,-0.19843 z m 8.09492,-1.74657 c -0.87285,-0.73446 -0.87642,-1.53756 -0.009,-2.00185 0.5377,-0.28777 2.25708,-0.0712 2.49532,0.31425 0.0797,0.12902 0.49515,0.23459 0.92312,0.23459 0.65362,0 0.77813,0.10584 0.77813,0.66145 0,0.4707 -0.14327,0.66146 -0.49677,0.66146 -0.27322,0 -0.64499,0.1786 -0.82614,0.39688 -0.51694,0.62286 -1.9681,0.48773 -2.86478,-0.26678 z m 48.32632,-0.31774 c -0.38953,-0.0596 -0.85059,-0.27988 -1.02458,-0.48952 -0.36383,-0.43839 -1.20144,-0.5061 -1.44217,-0.11659 -0.23799,0.38507 -1.7191,0.32823 -1.72341,-0.0661 -0.002,-0.1819 -0.075,-0.59708 -0.16225,-0.92261 -0.13495,-0.50349 0.0138,-0.66628 0.9958,-1.09019 0.63494,-0.27407 1.38125,-0.75187 1.65847,-1.06177 0.27721,-0.3099 0.64913,-0.56345 0.82648,-0.56345 0.25996,0 5.08916,2.026 5.35827,2.24796 0.0408,0.0337 -0.24823,0.55367 -0.64231,1.15557 -0.67676,1.03366 -0.78363,1.09218 -1.92628,1.05474 -0.66538,-0.0218 -1.52848,-0.0884 -1.91802,-0.148 z m -29.58655,-3.65238 c -1.61172,-0.84714 -1.866,-0.90101 -4.04655,-0.85734 -2.27952,0.0456 -2.33932,0.0309 -2.94476,-0.72845 -0.59362,-0.74446 -0.60144,-0.8119 -0.19835,-1.70951 1.38051,-3.07413 3.6896,-5.39202 6.26362,-6.28747 1.22137,-0.42489 3.34309,-0.52058 6.07678,-0.27405 0.73753,0.0665 0.82695,-0.0334 1.47565,-1.64899 0.37981,-0.94589 3.12008,-8.65518 6.08951,-17.13177 5.69224,-16.24919 5.58586,-16.01548 6.80458,-14.94896 0.52359,0.4582 0.46906,0.62958 -5.2404,16.47031 -3.17322,8.80401 -5.85376,16.59968 -5.95677,17.3237 -0.1846,1.29757 -0.17167,1.33026 0.90408,2.28491 1.63737,1.45304 1.44761,1.72538 -1.09529,1.57192 -0.91758,-0.0554 -1.02784,0.0161 -1.40007,0.90691 -0.39974,0.9567 -0.41875,0.96613 -1.7821,0.88302 -1.32294,-0.0806 -1.37677,-0.0575 -1.34609,0.57746 0.0176,0.3638 0.11513,1.01864 0.21679,1.45521 0.15609,0.67037 0.0348,0.96854 -0.78019,1.91823 -0.53075,0.61846 -1.04502,1.1187 -1.14282,1.11164 -0.0978,-0.007 -0.95173,-0.41961 -1.89762,-0.91677 z m -17.24752,-0.57405 c 0.19099,-0.0764 0.41919,-0.067 0.50711,0.0209 0.0879,0.0879 -0.0684,0.15045 -0.34726,0.13896 -0.30823,-0.0127 -0.37092,-0.0754 -0.15985,-0.15985 z m 50.37615,-2.22079 c 0.53996,-0.12743 7.02579,-1.25488 14.41295,-2.50544 7.38716,-1.25055 13.7617,-2.33983 14.16565,-2.42062 0.65365,-0.13073 0.73444,-0.0705 0.73444,0.54764 0,0.38199 -0.0489,0.69453 -0.10863,0.69453 -0.0597,0 -6.67836,0.89297 -14.70804,1.98438 -13.93668,1.89429 -16.68876,2.21694 -14.49637,1.69951 z m -9.97758,-5.00693 c 1.74625,-0.87131 3.26429,-1.58491 3.37343,-1.58578 0.10914,-8e-4 0.19844,0.16818 0.19844,0.37568 0,0.23426 -1.02806,0.77275 -2.71198,1.42051 -4.12324,1.5861 -4.34948,1.53074 -0.85989,-0.21041 z m 8.99583,1.03265 c 1.82525,-0.56319 23.13838,-6.05961 23.49697,-6.05961 0.49595,0 0.81352,0.77698 0.37721,0.92291 -0.81625,0.27301 -23.98539,5.42453 -24.30627,5.40435 -0.19892,-0.0125 -0.004,-0.13295 0.43209,-0.26765 z m -17.33021,-1.01363 c 0,-0.13512 -0.18031,-0.42599 -0.40068,-0.64636 -0.35765,-0.35765 -0.50348,-0.35773 -1.35774,-8e-4 -1.66335,0.695 -1.6317,0.0373 0.0759,-1.57762 1.36945,-1.29513 1.59539,-1.41967 1.96642,-1.08389 0.66504,0.60185 1.9606,0.46024 2.88194,-0.31501 0.45388,-0.38191 0.88851,-0.6311 0.96586,-0.55376 0.31377,0.31377 -0.75925,1.78307 -2.23721,3.06346 -1.5902,1.3776 -1.89452,1.55655 -1.89452,1.11398 z m 3.93723,-1.33117 c 0.90029,-0.78378 16.34288,-11.65231 16.55622,-11.65231 0.0977,0 0.14027,0.37556 0.0947,0.83458 -0.0782,0.78681 -0.54476,1.12108 -8.1527,5.84073 -8.58491,5.32572 -9.54387,5.88734 -8.49819,4.977 z m 14.52858,-1.84286 c -1.53357,-0.21423 -1.69978,-0.36825 -1.31316,-1.2168 0.49996,-1.09729 1.03794,-1.09124 2.1806,0.0245 0.57182,0.55836 1.03967,1.11011 1.03967,1.22609 0,0.22752 -0.0416,0.22679 -1.90711,-0.0338 z m -13.79569,-5.72085 c 5.43558,-6.04528 14.8189,-16.10602 15.10734,-16.19801 0.18183,-0.058 0.40222,0.0812 0.48975,0.30932 0.11242,0.29298 -2.24581,2.86732 -8.03213,8.7682 -8.06719,8.22692 -11.27249,11.24389 -7.56496,7.12049 z m 23.41547,-0.92811 c -0.72433,-0.44048 -0.80438,-0.60457 -0.6671,-1.3675 0.22002,-1.22278 0.98007,-1.79299 2.38995,-1.79299 1.24246,0 1.25693,-0.0159 2.05078,-2.2461 0.16064,-0.45134 0.31614,-0.31941 1.09142,0.92604 0.79351,1.27473 0.90481,1.67077 0.91005,3.23829 0.003,0.98227 -0.0729,1.78594 -0.1693,1.78594 -0.0964,0 -0.75223,-0.37024 -1.4574,-0.82274 -1.22838,-0.78825 -1.30977,-0.80463 -1.94139,-0.39078 -0.3626,0.23758 -0.65927,0.53555 -0.65927,0.66214 0,0.48416 -0.75808,0.48793 -1.54774,0.008 z m -27.84593,-4.41726 c 1.51351,-3.03375 2.55597,-4.82865 2.80444,-4.82865 0.21752,0 0.39548,0.10652 0.39548,0.2367 0,0.28654 -4.95135,8.7814 -5.33671,9.15601 -0.1497,0.14552 0.81186,-1.9083 2.13679,-4.56406 z m 2.58459,2.56525 c -0.57128,-0.81561 0.0916,-3.16056 0.89342,-3.16056 0.443,0 1.04483,0.85666 1.04483,1.48725 0,0.87651 -0.71492,2.21692 -1.18242,2.21692 -0.20629,0 -0.54642,-0.24463 -0.75583,-0.54361 z m -8.90967,-1.9479 c 0,-0.10915 0.24462,-1.15652 0.54359,-2.32748 0.29898,-1.17097 0.64516,-2.61956 0.76931,-3.21909 0.21175,-1.02257 1.1883,-4.60138 1.48347,-5.4365 0.11565,-0.32722 0.18393,-0.32722 0.51079,0 0.32671,0.32706 0.15078,1.0815 -1.31218,5.62686 -1.50827,4.68617 -1.99498,5.9929 -1.99498,5.35621 z m -1.86221,-4.81117 c -0.14388,-0.37845 -0.49354,-0.88446 -0.77701,-1.12448 -0.67713,-0.57332 -0.39733,-2.2345 0.40078,-2.37951 0.28526,-0.0518 0.76751,-0.40001 1.07166,-0.77374 0.79394,-0.97557 1.32463,-0.6332 1.71376,1.10558 l 0.32797,1.46553 -1.03279,1.17244 c -0.56803,0.64483 -1.12503,1.18364 -1.23777,1.19735 -0.11274,0.0137 -0.32271,-0.28472 -0.4666,-0.66317 z"
         id="path842" />
    </g>
  </g>
</svg>
