<?xml version="1.0" encoding="UTF-8" standalone="no"?>
<svg
   xmlns:dc="http://purl.org/dc/elements/1.1/"
   xmlns:cc="http://creativecommons.org/ns#"
   xmlns:rdf="http://www.w3.org/1999/02/22-rdf-syntax-ns#"
   xmlns:svg="http://www.w3.org/2000/svg"
   xmlns="http://www.w3.org/2000/svg"
   xmlns:sodipodi="http://sodipodi.sourceforge.net/DTD/sodipodi-0.dtd"
   xmlns:inkscape="http://www.inkscape.org/namespaces/inkscape"
   viewBox="0 0 51.04 49.47"
   version="1.1"
   id="svg16"
   sodipodi:docname="multilinetext.svg"
   inkscape:version="1.0.2 (e86c870879, 2021-01-15)">
  <metadata
     id="metadata20">
    <rdf:RDF>
      <cc:Work
         rdf:about="">
        <dc:format>image/svg+xml</dc:format>
        <dc:type
           rdf:resource="http://purl.org/dc/dcmitype/StillImage" />
      </cc:Work>
    </rdf:RDF>
  </metadata>
  <sodipodi:namedview
     pagecolor="#ffffff"
     bordercolor="#666666"
     borderopacity="1"
     objecttolerance="10"
     gridtolerance="10"
     guidetolerance="10"
     inkscape:pageopacity="0"
     inkscape:pageshadow="2"
     inkscape:window-width="1360"
     inkscape:window-height="687"
     id="namedview18"
     showgrid="false"
     inkscape:zoom="10.12735"
     inkscape:cx="25.52"
     inkscape:cy="24.735001"
     inkscape:window-x="0"
     inkscape:window-y="26"
     inkscape:window-maximized="1"
     inkscape:current-layer="svg16" />
  <defs
     id="defs4">
    <style
       id="style2">.cls-1,.cls-3{fill:none;}.cls-2{fill:#f9ba00;}.cls-3{stroke:#fff;stroke-linecap:round;stroke-miterlimit:10;stroke-width:2px;}</style>
    <linearGradient
       y2="18.206532"
       x2="5.1652589"
       y1="3.9080505"
       x1="2.3441039"
       id="svg_46_import"
       gradientTransform="matrix(0.7479258,0.73799566,-0.6684558,0.67745024,39.19045,16.770016)"
       gradientUnits="userSpaceOnUse">
      <stop
         stop-opacity="1"
         stop-color="#81f4bb"
         offset="0"
         id="stop2" />
      <stop
         stop-opacity="1"
         stop-color="#37b76e"
         offset="1"
         id="stop4" />
    </linearGradient>
  </defs>
  <g
     id="Calque_2"
     data-name="Calque 2">
    <g
       id="Calque_1-2"
       data-name="Calque 1">
      <polyline
         class="cls-1"
         points="6.8 0 51.04 0 51.04 49.47 0 49.47 0 0 6.8 0"
         id="polyline6" />
      <path
         class="cls-2"
         d="M28.27,17.05H23.91V32.58h3.5a3,3,0,0,1,2,.54,2.27,2.27,0,0,1,.6,1.75,2.28,2.28,0,0,1-.6,1.77,2.92,2.92,0,0,1-2,.55H15a2.89,2.89,0,0,1-2-.55,2.28,2.28,0,0,1-.6-1.77,2.29,2.29,0,0,1,.59-1.76,3,3,0,0,1,2-.53h3.5V17.05H14.19l-.13,4.23v.52a2.14,2.14,0,0,1-.55,1.56,2.07,2.07,0,0,1-1.53.56,2.27,2.27,0,0,1-1.72-.59,2.72,2.72,0,0,1-.55-1.89v-.16l.23-6.23c0-1.24.21-2,.51-2.23a3.06,3.06,0,0,1,1.82-.37H30.18a3,3,0,0,1,1.82.37c.3.25.48,1,.53,2.23l.21,6.23v.16a2.8,2.8,0,0,1-.52,1.9,2.16,2.16,0,0,1-1.69.58,2,2,0,0,1-1.61-.57,3.4,3.4,0,0,1-.53-2.07Z"
         id="path8"
         style="fill:#000080" />
      <polyline
         class="cls-3"
         points="37.21 9.9 39.86 14.56 39.86 34.47 37.21 39.57"
         id="polyline10" />
      <polyline
         class="cls-3"
         points="42.51 9.9 39.86 14.56 39.86 34.47 42.51 39.57"
         id="polyline12"
         style="fill:#782121" />
    </g>
  </g>
  <path
     stroke="#285582"
     fill="url(#svg_46_import)"
     id="svg_45"
     d="m 35.320374,30.861883 -0.357515,7.783474 8.051914,-0.326829 -1.718611,-1.831404 1.966083,-1.992537 c 1.6271,-1.648994 2.283172,-5.612176 -0.73999,-8.5952 -2.885739,-2.847425 -6.838886,-2.001947 -9.417872,0.199448 1.428277,-0.760346 5.110234,-1.330999 6.27918,-0.04196 1.579377,1.422797 0.840005,3.134124 -0.38032,4.370869 l -1.897372,2.060337 -1.785504,-1.626187 z"
     style="fill:url(#svg_46_import)" />
</svg>
